G75*
%MOIN*%
%OFA0B0*%
%FSLAX25Y25*%
%IPPOS*%
%LPD*%
%AMOC8*
5,1,8,0,0,1.08239X$1,22.5*
%
%ADD10R,0.03937X0.02165*%
%ADD11R,0.05906X0.05118*%
%ADD12R,0.05118X0.05906*%
%ADD13R,0.15748X0.05906*%
%ADD14R,0.21850X0.24213*%
%ADD15R,0.03937X0.10709*%
%ADD16R,0.02165X0.03937*%
%ADD17R,0.08000X0.02600*%
%ADD18R,0.03937X0.05512*%
%ADD19R,0.05118X0.06299*%
%ADD20R,0.07874X0.06299*%
%ADD21R,0.02362X0.04724*%
%ADD22R,0.02600X0.08000*%
%ADD23R,0.04724X0.04724*%
%ADD24R,0.02756X0.03937*%
%ADD25R,0.02362X0.07874*%
D10*
X0455134Y0372516D03*
X0455134Y0376256D03*
X0455134Y0379996D03*
X0465764Y0379996D03*
X0465764Y0376256D03*
X0465764Y0372516D03*
D11*
X0480134Y0372516D03*
X0480134Y0379996D03*
X0495882Y0379996D03*
X0495882Y0372516D03*
X0507693Y0372516D03*
X0507693Y0379996D03*
X0495882Y0392201D03*
X0495882Y0399681D03*
X0432890Y0379996D03*
X0432890Y0372516D03*
X0421079Y0372516D03*
X0421079Y0379996D03*
X0397457Y0289445D03*
X0397457Y0281965D03*
X0432890Y0155587D03*
X0432890Y0148106D03*
X0452575Y0148106D03*
X0452575Y0155587D03*
X0472260Y0155587D03*
X0472260Y0148106D03*
X0491945Y0148106D03*
X0491945Y0155587D03*
X0554937Y0128028D03*
X0554937Y0120547D03*
X0570685Y0120547D03*
X0570685Y0128028D03*
X0586433Y0128028D03*
X0586433Y0120547D03*
X0602181Y0120547D03*
X0602181Y0128028D03*
X0617929Y0128028D03*
X0617929Y0120547D03*
X0641551Y0199287D03*
X0641551Y0206768D03*
X0680921Y0206768D03*
X0680921Y0199287D03*
X0684858Y0419760D03*
X0684858Y0427240D03*
D12*
X0704740Y0423500D03*
X0712220Y0423500D03*
X0712220Y0388067D03*
X0704740Y0388067D03*
X0704740Y0376256D03*
X0712220Y0376256D03*
X0672850Y0372319D03*
X0665370Y0372319D03*
X0665370Y0384130D03*
X0672850Y0384130D03*
X0538992Y0289642D03*
X0531512Y0289642D03*
X0519307Y0289642D03*
X0511827Y0289642D03*
X0511827Y0277831D03*
X0519307Y0277831D03*
X0531512Y0277831D03*
X0538992Y0277831D03*
X0499622Y0277831D03*
X0492142Y0277831D03*
X0492142Y0289642D03*
X0499622Y0289642D03*
X0479937Y0289642D03*
X0472457Y0289642D03*
X0472457Y0277831D03*
X0479937Y0277831D03*
X0479937Y0230587D03*
X0472457Y0230587D03*
X0472457Y0218776D03*
X0479937Y0218776D03*
X0492142Y0218776D03*
X0499622Y0218776D03*
X0499622Y0230587D03*
X0492142Y0230587D03*
X0511827Y0230587D03*
X0519307Y0230587D03*
X0531512Y0230587D03*
X0538992Y0230587D03*
X0538992Y0218776D03*
X0531512Y0218776D03*
X0519307Y0218776D03*
X0511827Y0218776D03*
X0460252Y0360508D03*
X0452772Y0360508D03*
X0456709Y0392004D03*
X0464189Y0392004D03*
X0416945Y0399878D03*
X0409465Y0399878D03*
X0409465Y0411689D03*
X0416945Y0411689D03*
X0058677Y0266020D03*
X0051197Y0266020D03*
D13*
X0397457Y0377043D03*
X0397457Y0391217D03*
D14*
X0661236Y0224681D03*
D15*
X0652220Y0198303D03*
X0670252Y0198303D03*
D16*
X0495685Y0137476D03*
X0491945Y0137476D03*
X0488205Y0137476D03*
X0476000Y0137476D03*
X0472260Y0137476D03*
X0468520Y0137476D03*
X0468520Y0126846D03*
X0472260Y0126846D03*
X0476000Y0126846D03*
X0488205Y0126846D03*
X0491945Y0126846D03*
X0495685Y0126846D03*
X0456315Y0126846D03*
X0452575Y0126846D03*
X0448835Y0126846D03*
X0436630Y0126846D03*
X0432890Y0126846D03*
X0429150Y0126846D03*
X0429150Y0137476D03*
X0432890Y0137476D03*
X0436630Y0137476D03*
X0448835Y0137476D03*
X0452575Y0137476D03*
X0456315Y0137476D03*
D17*
X0452864Y0184091D03*
X0452864Y0189091D03*
X0452864Y0194091D03*
X0452864Y0199091D03*
X0452864Y0204091D03*
X0452864Y0209091D03*
X0452864Y0214091D03*
X0428664Y0214091D03*
X0428664Y0209091D03*
X0428664Y0204091D03*
X0428664Y0199091D03*
X0428664Y0194091D03*
X0428664Y0189091D03*
X0428664Y0184091D03*
D18*
X0492142Y0203421D03*
X0499622Y0203421D03*
X0495882Y0194760D03*
X0531512Y0203421D03*
X0538992Y0203421D03*
X0535252Y0194760D03*
X0535252Y0253815D03*
X0538992Y0262476D03*
X0531512Y0262476D03*
X0499622Y0262476D03*
X0492142Y0262476D03*
X0495882Y0253815D03*
X0704740Y0399484D03*
X0712220Y0399484D03*
X0708480Y0408146D03*
D19*
X0708283Y0199091D03*
X0700803Y0199091D03*
X0532299Y0133933D03*
X0522457Y0133933D03*
D20*
X0527378Y0122516D03*
D21*
X0535626Y0144760D03*
X0540626Y0144760D03*
X0545626Y0144760D03*
X0550626Y0144760D03*
X0578933Y0144760D03*
X0583933Y0144760D03*
X0588933Y0144760D03*
X0593933Y0144760D03*
X0622240Y0144760D03*
X0627240Y0144760D03*
X0632240Y0144760D03*
X0637240Y0144760D03*
X0637240Y0166807D03*
X0632240Y0166807D03*
X0627240Y0166807D03*
X0622240Y0166807D03*
X0593933Y0166807D03*
X0588933Y0166807D03*
X0583933Y0166807D03*
X0578933Y0166807D03*
X0550626Y0166807D03*
X0545626Y0166807D03*
X0540626Y0166807D03*
X0535626Y0166807D03*
D22*
X0557122Y0190928D03*
X0562122Y0190928D03*
X0567122Y0190928D03*
X0572122Y0190928D03*
X0577122Y0190928D03*
X0582122Y0190928D03*
X0587122Y0190928D03*
X0592122Y0190928D03*
X0592122Y0215128D03*
X0587122Y0215128D03*
X0582122Y0215128D03*
X0577122Y0215128D03*
X0572122Y0215128D03*
X0567122Y0215128D03*
X0562122Y0215128D03*
X0557122Y0215128D03*
D23*
X0708480Y0442988D03*
X0708480Y0451256D03*
X0736039Y0451256D03*
X0736039Y0442988D03*
D24*
X0389780Y0170744D03*
X0393520Y0170744D03*
X0397260Y0170744D03*
X0397260Y0180193D03*
X0393520Y0180193D03*
X0389780Y0180193D03*
X0389780Y0206177D03*
X0393520Y0206177D03*
X0397260Y0206177D03*
X0397260Y0215626D03*
X0393520Y0215626D03*
X0389780Y0215626D03*
X0389780Y0237673D03*
X0393520Y0237673D03*
X0397260Y0237673D03*
X0397260Y0247122D03*
X0393520Y0247122D03*
X0389780Y0247122D03*
D25*
X0412024Y0264839D03*
X0417024Y0264839D03*
X0422024Y0264839D03*
X0427024Y0264839D03*
X0432024Y0264839D03*
X0437024Y0264839D03*
X0442024Y0264839D03*
X0447024Y0264839D03*
X0447024Y0301453D03*
X0442024Y0301453D03*
X0437024Y0301453D03*
X0432024Y0301453D03*
X0427024Y0301453D03*
X0422024Y0301453D03*
X0417024Y0301453D03*
X0412024Y0301453D03*
M02*
