G75*
%MOIN*%
%OFA0B0*%
%FSLAX25Y25*%
%IPPOS*%
%LPD*%
%AMOC8*
5,1,8,0,0,1.08239X$1,22.5*
%
%ADD10C,0.11811*%
%ADD11C,0.09000*%
%ADD12C,0.08850*%
%ADD13C,0.06000*%
%ADD14C,0.06024*%
%ADD15C,0.05200*%
%ADD16C,0.05150*%
%ADD17C,0.04756*%
%ADD18C,0.05543*%
%ADD19C,0.05600*%
%ADD20C,0.03569*%
%ADD21C,0.02000*%
D10*
X0055724Y0385705D03*
X0055724Y0419563D03*
D11*
X0150463Y0485256D03*
X0210463Y0485256D03*
X0277363Y0485256D03*
X0337363Y0485256D03*
X0337363Y0267256D03*
X0277363Y0267256D03*
X0210463Y0267256D03*
X0150463Y0267256D03*
D12*
X0102181Y0299012D03*
X0102181Y0319012D03*
X0102181Y0339012D03*
X0102181Y0359012D03*
D13*
X0054937Y0327201D03*
X0054937Y0307201D03*
X0558244Y0321217D03*
X0558244Y0331217D03*
X0558244Y0341217D03*
X0558244Y0351217D03*
X0558244Y0361217D03*
X0558244Y0371217D03*
X0558244Y0381217D03*
X0558244Y0391217D03*
X0558244Y0401217D03*
X0558244Y0411217D03*
X0558244Y0421217D03*
X0558244Y0431217D03*
X0558244Y0441217D03*
X0558244Y0451217D03*
X0638244Y0451217D03*
X0638244Y0441217D03*
X0638244Y0431217D03*
X0638244Y0421217D03*
X0638244Y0411217D03*
X0638244Y0401217D03*
X0638244Y0391217D03*
X0638244Y0381217D03*
X0638244Y0371217D03*
X0638244Y0361217D03*
X0638244Y0351217D03*
X0638244Y0341217D03*
X0638244Y0331217D03*
X0638244Y0321217D03*
D14*
X0125803Y0088067D03*
X0125803Y0099878D03*
X0157299Y0099878D03*
X0157299Y0088067D03*
X0188795Y0088067D03*
X0188795Y0099878D03*
X0220291Y0099878D03*
X0220291Y0088067D03*
X0302969Y0088067D03*
X0302969Y0099878D03*
X0334465Y0099878D03*
X0334465Y0088067D03*
X0401394Y0087673D03*
X0413205Y0087673D03*
X0425016Y0087673D03*
X0436827Y0087673D03*
X0448638Y0087673D03*
X0460449Y0087673D03*
X0472260Y0087673D03*
X0484071Y0087673D03*
X0484071Y0099484D03*
X0472260Y0099484D03*
X0460449Y0099484D03*
X0448638Y0099484D03*
X0436827Y0099484D03*
X0425016Y0099484D03*
X0413205Y0099484D03*
X0401394Y0099484D03*
X0523441Y0099878D03*
X0523441Y0088067D03*
X0554937Y0088067D03*
X0554937Y0099878D03*
X0586433Y0099878D03*
X0586433Y0088067D03*
X0617929Y0088067D03*
X0617929Y0099878D03*
X0649425Y0099878D03*
X0649425Y0088067D03*
D15*
X0364150Y0135783D03*
X0364150Y0145783D03*
X0344150Y0145783D03*
X0344150Y0135783D03*
X0324780Y0135783D03*
X0324780Y0145783D03*
X0304780Y0145783D03*
X0304780Y0135783D03*
X0277535Y0135783D03*
X0277535Y0145783D03*
X0257535Y0145783D03*
X0257535Y0135783D03*
X0238165Y0135783D03*
X0238165Y0145783D03*
X0218165Y0145783D03*
X0218165Y0135783D03*
X0198795Y0135783D03*
X0198795Y0145783D03*
X0178795Y0145783D03*
X0178795Y0135783D03*
X0159425Y0135783D03*
X0159425Y0145783D03*
X0139425Y0145783D03*
X0139425Y0135783D03*
X0139425Y0175783D03*
X0159425Y0175783D03*
X0178795Y0175783D03*
X0198795Y0175783D03*
X0218165Y0175783D03*
X0238165Y0175783D03*
X0257535Y0175783D03*
X0277535Y0175783D03*
X0304780Y0175783D03*
X0324780Y0175783D03*
X0344150Y0175783D03*
X0364150Y0175783D03*
X0100370Y0385705D03*
X0080370Y0385705D03*
X0080370Y0419563D03*
X0100370Y0419563D03*
D16*
X0436827Y0435311D03*
X0436827Y0443185D03*
X0436827Y0451059D03*
X0436827Y0458933D03*
X0436827Y0466807D03*
X0436827Y0474681D03*
X0436827Y0482555D03*
X0436827Y0490429D03*
X0436827Y0498303D03*
X0436827Y0506177D03*
X0523441Y0506177D03*
X0523441Y0498303D03*
X0523441Y0490429D03*
X0523441Y0482555D03*
X0523441Y0474681D03*
X0523441Y0466807D03*
X0523441Y0458933D03*
X0523441Y0451059D03*
X0523441Y0443185D03*
X0523441Y0435311D03*
D17*
X0743913Y0423500D03*
X0743913Y0415626D03*
X0743913Y0407752D03*
X0743913Y0399878D03*
D18*
X0739228Y0228579D03*
X0729228Y0228579D03*
X0719228Y0228579D03*
X0709228Y0228579D03*
D19*
X0364150Y0116413D03*
X0354150Y0116413D03*
X0344150Y0116413D03*
X0324780Y0116413D03*
X0314780Y0116413D03*
X0304780Y0116413D03*
D20*
X0384465Y0156571D03*
X0417142Y0136098D03*
X0425016Y0143972D03*
X0438795Y0143185D03*
X0444701Y0143972D03*
X0440764Y0151846D03*
X0458480Y0143185D03*
X0464386Y0143972D03*
X0460843Y0155390D03*
X0478165Y0143185D03*
X0484071Y0143972D03*
X0497850Y0143185D03*
X0519504Y0147909D03*
X0529740Y0142398D03*
X0540764Y0151059D03*
X0535646Y0159720D03*
X0554937Y0143972D03*
X0554937Y0136098D03*
X0570685Y0136098D03*
X0586402Y0136068D03*
X0598244Y0143972D03*
X0602181Y0136098D03*
X0617929Y0136098D03*
X0625803Y0151059D03*
X0621866Y0159720D03*
X0617535Y0173500D03*
X0631709Y0190429D03*
X0641551Y0190429D03*
X0631709Y0199091D03*
X0629740Y0206965D03*
X0653362Y0214839D03*
X0653362Y0222713D03*
X0661236Y0222713D03*
X0669110Y0222713D03*
X0669110Y0214839D03*
X0661236Y0214839D03*
X0661236Y0230587D03*
X0653362Y0230587D03*
X0669110Y0230587D03*
X0712417Y0206965D03*
X0716354Y0203028D03*
X0716354Y0195154D03*
X0720291Y0185311D03*
X0708480Y0185311D03*
X0696669Y0185311D03*
X0696669Y0177043D03*
X0708480Y0177437D03*
X0720291Y0177437D03*
X0641551Y0143972D03*
X0582890Y0151059D03*
X0578953Y0155783D03*
X0594307Y0181768D03*
X0582496Y0199091D03*
X0585252Y0204996D03*
X0574622Y0199091D03*
X0551787Y0191217D03*
X0551394Y0221925D03*
X0572260Y0225469D03*
X0582102Y0225469D03*
X0591157Y0230193D03*
X0525409Y0225075D03*
X0511630Y0238461D03*
X0491945Y0242398D03*
X0490370Y0250665D03*
X0464386Y0238461D03*
X0444701Y0242398D03*
X0438795Y0242398D03*
X0432890Y0242398D03*
X0426197Y0243972D03*
X0411630Y0254602D03*
X0397457Y0254209D03*
X0401394Y0273894D03*
X0405331Y0301453D03*
X0425016Y0344760D03*
X0432890Y0344760D03*
X0440764Y0344760D03*
X0448638Y0344760D03*
X0448638Y0352634D03*
X0440764Y0352634D03*
X0432890Y0352634D03*
X0425016Y0352634D03*
X0397457Y0368382D03*
X0389583Y0397516D03*
X0389583Y0403815D03*
X0397457Y0403815D03*
X0397457Y0411689D03*
X0389583Y0411689D03*
X0425016Y0411689D03*
X0448638Y0392004D03*
X0448638Y0376256D03*
X0421079Y0439248D03*
X0572260Y0376256D03*
X0582102Y0364839D03*
X0582102Y0347909D03*
X0572260Y0316413D03*
X0562811Y0313264D03*
X0562811Y0305390D03*
X0525016Y0283343D03*
X0515567Y0266020D03*
X0486039Y0284524D03*
X0451000Y0254602D03*
X0443520Y0221138D03*
X0436827Y0214839D03*
X0421472Y0203815D03*
X0412417Y0203815D03*
X0405331Y0195154D03*
X0401394Y0191217D03*
X0401394Y0183736D03*
X0412417Y0189248D03*
X0421866Y0189248D03*
X0428953Y0175469D03*
X0440764Y0179406D03*
X0452575Y0175469D03*
X0468323Y0191217D03*
X0481709Y0189642D03*
X0488008Y0195154D03*
X0476197Y0179406D03*
X0488008Y0163657D03*
X0444701Y0199091D03*
X0467024Y0204091D03*
X0464386Y0210902D03*
X0515567Y0203028D03*
X0407299Y0214839D03*
X0389583Y0230587D03*
X0380921Y0188461D03*
X0354150Y0183343D03*
X0314780Y0183343D03*
X0428953Y0120350D03*
X0436827Y0120350D03*
X0448638Y0120350D03*
X0456512Y0120350D03*
X0468323Y0120350D03*
X0476197Y0120350D03*
X0488008Y0120350D03*
X0495882Y0120350D03*
X0495882Y0114051D03*
X0484071Y0109720D03*
X0684858Y0372319D03*
X0720291Y0399878D03*
X0665173Y0423500D03*
X0716354Y0451059D03*
D21*
X0714410Y0455398D02*
X0679885Y0455398D01*
X0680247Y0454857D02*
X0678096Y0458076D01*
X0674876Y0460227D01*
X0671079Y0460982D01*
X0667281Y0460227D01*
X0664062Y0458076D01*
X0661911Y0454857D01*
X0661156Y0451059D01*
X0661911Y0447262D01*
X0664062Y0444042D01*
X0667281Y0441891D01*
X0671079Y0441136D01*
X0674876Y0441891D01*
X0678096Y0444042D01*
X0680247Y0447262D01*
X0681002Y0451059D01*
X0680247Y0454857D01*
X0680536Y0453400D02*
X0712179Y0453400D01*
X0712325Y0453751D02*
X0711602Y0452004D01*
X0711602Y0450114D01*
X0712325Y0448367D01*
X0713662Y0447030D01*
X0715409Y0446306D01*
X0717300Y0446306D01*
X0719047Y0447030D01*
X0720384Y0448367D01*
X0721107Y0450114D01*
X0721107Y0452004D01*
X0720384Y0453751D01*
X0719047Y0455088D01*
X0717300Y0455812D01*
X0715409Y0455812D01*
X0713662Y0455088D01*
X0712325Y0453751D01*
X0711602Y0451401D02*
X0680934Y0451401D01*
X0680672Y0449403D02*
X0711896Y0449403D01*
X0713288Y0447404D02*
X0680275Y0447404D01*
X0679006Y0445406D02*
X0756628Y0445406D01*
X0756628Y0447404D02*
X0719421Y0447404D01*
X0720813Y0449403D02*
X0756628Y0449403D01*
X0756628Y0451401D02*
X0721107Y0451401D01*
X0720529Y0453400D02*
X0756628Y0453400D01*
X0756628Y0455398D02*
X0718298Y0455398D01*
X0704039Y0467711D02*
X0756628Y0467711D01*
X0756628Y0192120D01*
X0755724Y0191217D01*
X0696669Y0191217D01*
X0695370Y0189917D01*
X0693977Y0189340D01*
X0692640Y0188003D01*
X0692063Y0186610D01*
X0688795Y0183343D01*
X0688795Y0167594D01*
X0676984Y0155783D01*
X0669110Y0155783D01*
X0664827Y0151501D01*
X0664062Y0150989D01*
X0663550Y0150224D01*
X0661236Y0147909D01*
X0661236Y0144378D01*
X0661156Y0143972D01*
X0661236Y0143567D01*
X0661236Y0132161D01*
X0645488Y0116413D01*
X0503756Y0116413D01*
X0500635Y0113292D01*
X0500635Y0114997D01*
X0499911Y0116743D01*
X0498574Y0118080D01*
X0496827Y0118804D01*
X0494937Y0118804D01*
X0493190Y0118080D01*
X0491853Y0116743D01*
X0491129Y0114997D01*
X0491129Y0113106D01*
X0491853Y0111359D01*
X0493190Y0110022D01*
X0494937Y0109298D01*
X0496641Y0109298D01*
X0495882Y0108539D01*
X0488726Y0108539D01*
X0488824Y0108775D01*
X0488824Y0110666D01*
X0488100Y0112413D01*
X0486763Y0113750D01*
X0485016Y0114473D01*
X0483125Y0114473D01*
X0481379Y0113750D01*
X0480042Y0112413D01*
X0479318Y0110666D01*
X0479318Y0108775D01*
X0479416Y0108539D01*
X0425016Y0108539D01*
X0421079Y0112476D01*
X0421079Y0133314D01*
X0421171Y0133406D01*
X0421894Y0135153D01*
X0421894Y0137044D01*
X0421171Y0138791D01*
X0419834Y0140128D01*
X0418087Y0140851D01*
X0416326Y0140851D01*
X0365961Y0191217D01*
X0365961Y0301453D01*
X0373835Y0309327D01*
X0425016Y0309327D01*
X0436827Y0297516D01*
X0365961Y0297516D01*
X0365961Y0299514D02*
X0434828Y0299514D01*
X0436827Y0297516D02*
X0436827Y0281768D01*
X0440764Y0277831D01*
X0476197Y0277831D01*
X0484071Y0269957D01*
X0484071Y0197938D01*
X0483979Y0197846D01*
X0483255Y0196099D01*
X0483255Y0194208D01*
X0483286Y0194133D01*
X0482654Y0194394D01*
X0480763Y0194394D01*
X0479016Y0193671D01*
X0477679Y0192334D01*
X0476956Y0190587D01*
X0476956Y0188696D01*
X0477679Y0186950D01*
X0479016Y0185613D01*
X0480763Y0184889D01*
X0482654Y0184889D01*
X0484071Y0185476D01*
X0484071Y0166442D01*
X0483979Y0166350D01*
X0483255Y0164603D01*
X0483255Y0162712D01*
X0483979Y0160965D01*
X0484071Y0160873D01*
X0484071Y0148725D01*
X0483125Y0148725D01*
X0481379Y0148002D01*
X0480669Y0147292D01*
X0479111Y0147938D01*
X0477220Y0147938D01*
X0475473Y0147214D01*
X0474136Y0145877D01*
X0473413Y0144130D01*
X0473413Y0142240D01*
X0474136Y0140493D01*
X0475473Y0139156D01*
X0477220Y0138432D01*
X0479111Y0138432D01*
X0480858Y0139156D01*
X0481567Y0139865D01*
X0483125Y0139220D01*
X0484887Y0139220D01*
X0499819Y0124287D01*
X0629740Y0124287D01*
X0633677Y0128224D01*
X0633677Y0159720D01*
X0625803Y0167594D01*
X0554937Y0167594D01*
X0543126Y0179406D01*
X0543126Y0199091D01*
X0547063Y0203028D01*
X0558874Y0203028D01*
X0562811Y0199091D01*
X0562811Y0187280D01*
X0566748Y0183343D01*
X0589815Y0183343D01*
X0589554Y0182713D01*
X0589554Y0180822D01*
X0590278Y0179075D01*
X0591615Y0177739D01*
X0593362Y0177015D01*
X0595252Y0177015D01*
X0596999Y0177739D01*
X0598336Y0179075D01*
X0599060Y0180822D01*
X0599060Y0182713D01*
X0598799Y0183343D01*
X0653362Y0183343D01*
X0657299Y0187280D01*
X0657299Y0212054D01*
X0658544Y0210809D01*
X0660291Y0210086D01*
X0662182Y0210086D01*
X0663928Y0210809D01*
X0665173Y0212054D01*
X0666418Y0210809D01*
X0668165Y0210086D01*
X0670056Y0210086D01*
X0671802Y0210809D01*
X0673139Y0212146D01*
X0673863Y0213893D01*
X0673863Y0215784D01*
X0673139Y0217531D01*
X0671895Y0218776D01*
X0673139Y0220020D01*
X0673863Y0221767D01*
X0673863Y0223658D01*
X0673139Y0225405D01*
X0671895Y0226650D01*
X0673139Y0227894D01*
X0673863Y0229641D01*
X0673863Y0231532D01*
X0673139Y0233279D01*
X0671802Y0234616D01*
X0670056Y0235339D01*
X0668165Y0235339D01*
X0666418Y0234616D01*
X0665173Y0233371D01*
X0663928Y0234616D01*
X0662182Y0235339D01*
X0660291Y0235339D01*
X0658544Y0234616D01*
X0657299Y0233371D01*
X0657299Y0458933D01*
X0641551Y0474681D01*
X0528984Y0474681D01*
X0528984Y0475784D01*
X0528140Y0477821D01*
X0527343Y0478618D01*
X0528140Y0479415D01*
X0528984Y0481452D01*
X0528984Y0483658D01*
X0528140Y0485695D01*
X0527343Y0486492D01*
X0528140Y0487289D01*
X0528984Y0489326D01*
X0528984Y0491532D01*
X0528140Y0493569D01*
X0527343Y0494366D01*
X0528140Y0495163D01*
X0528984Y0497201D01*
X0528984Y0499406D01*
X0528140Y0501443D01*
X0527343Y0502240D01*
X0528140Y0503037D01*
X0528984Y0505075D01*
X0528984Y0507280D01*
X0528140Y0509317D01*
X0526581Y0510877D01*
X0524544Y0511720D01*
X0522338Y0511720D01*
X0520301Y0510877D01*
X0518742Y0509317D01*
X0517898Y0507280D01*
X0517898Y0505075D01*
X0518742Y0503037D01*
X0519539Y0502240D01*
X0518742Y0501443D01*
X0517898Y0499406D01*
X0517898Y0497201D01*
X0518742Y0495163D01*
X0519539Y0494366D01*
X0518742Y0493569D01*
X0517898Y0491532D01*
X0517898Y0489326D01*
X0518742Y0487289D01*
X0519539Y0486492D01*
X0518742Y0485695D01*
X0517898Y0483658D01*
X0517898Y0481452D01*
X0518742Y0479415D01*
X0519539Y0478618D01*
X0518742Y0477821D01*
X0517898Y0475784D01*
X0517898Y0474681D01*
X0442370Y0474681D01*
X0442370Y0475784D01*
X0441526Y0477821D01*
X0440729Y0478618D01*
X0441526Y0479415D01*
X0442370Y0481452D01*
X0442370Y0483658D01*
X0441526Y0485695D01*
X0440729Y0486492D01*
X0441526Y0487289D01*
X0442370Y0489326D01*
X0442370Y0491532D01*
X0441526Y0493569D01*
X0440729Y0494366D01*
X0441526Y0495163D01*
X0442370Y0497201D01*
X0442370Y0499406D01*
X0441526Y0501443D01*
X0440044Y0502925D01*
X0440316Y0503197D01*
X0440739Y0503779D01*
X0441066Y0504421D01*
X0441289Y0505106D01*
X0441402Y0505817D01*
X0441402Y0506177D01*
X0436827Y0506177D01*
X0436827Y0506177D01*
X0441402Y0506177D01*
X0441402Y0506537D01*
X0441289Y0507248D01*
X0441066Y0507933D01*
X0440739Y0508575D01*
X0440316Y0509157D01*
X0439807Y0509667D01*
X0439224Y0510090D01*
X0438583Y0510417D01*
X0437898Y0510639D01*
X0437187Y0510752D01*
X0436827Y0510752D01*
X0436827Y0506177D01*
X0448638Y0517988D01*
X0602181Y0517988D01*
X0657299Y0462870D01*
X0657299Y0415626D01*
X0700606Y0372319D01*
X0684858Y0372319D01*
X0691945Y0363657D02*
X0691945Y0197516D01*
X0694595Y0189596D02*
X0657299Y0189596D01*
X0657299Y0187598D02*
X0692472Y0187598D01*
X0691052Y0185599D02*
X0655619Y0185599D01*
X0653620Y0183601D02*
X0689053Y0183601D01*
X0688795Y0181602D02*
X0599060Y0181602D01*
X0598555Y0179604D02*
X0688795Y0179604D01*
X0688795Y0177605D02*
X0620044Y0177605D01*
X0620228Y0177529D02*
X0618481Y0178253D01*
X0616590Y0178253D01*
X0614843Y0177529D01*
X0613506Y0176192D01*
X0612783Y0174445D01*
X0612783Y0172555D01*
X0613506Y0170808D01*
X0614843Y0169471D01*
X0616590Y0168747D01*
X0618481Y0168747D01*
X0620228Y0169471D01*
X0621565Y0170808D01*
X0622288Y0172555D01*
X0622288Y0174445D01*
X0621565Y0176192D01*
X0620228Y0177529D01*
X0621807Y0175607D02*
X0688795Y0175607D01*
X0688795Y0173608D02*
X0622288Y0173608D01*
X0621897Y0171610D02*
X0688795Y0171610D01*
X0688795Y0169611D02*
X0620368Y0169611D01*
X0614703Y0169611D02*
X0552920Y0169611D01*
X0550922Y0171610D02*
X0613174Y0171610D01*
X0612783Y0173608D02*
X0548923Y0173608D01*
X0546925Y0175607D02*
X0613264Y0175607D01*
X0615026Y0177605D02*
X0596677Y0177605D01*
X0591937Y0177605D02*
X0544926Y0177605D01*
X0543126Y0179604D02*
X0590059Y0179604D01*
X0589554Y0181602D02*
X0543126Y0181602D01*
X0543126Y0183601D02*
X0566490Y0183601D01*
X0564491Y0185599D02*
X0543126Y0185599D01*
X0543126Y0187598D02*
X0562811Y0187598D01*
X0562811Y0189596D02*
X0543126Y0189596D01*
X0543126Y0191595D02*
X0562811Y0191595D01*
X0562811Y0193593D02*
X0543126Y0193593D01*
X0543126Y0195592D02*
X0562811Y0195592D01*
X0562811Y0197590D02*
X0543126Y0197590D01*
X0543624Y0199589D02*
X0562313Y0199589D01*
X0560314Y0201587D02*
X0545623Y0201587D01*
X0547063Y0206965D02*
X0531315Y0222713D01*
X0531315Y0285705D01*
X0452575Y0364445D01*
X0400241Y0364445D01*
X0401486Y0365690D01*
X0402209Y0367437D01*
X0402209Y0369327D01*
X0401486Y0371074D01*
X0400149Y0372411D01*
X0398402Y0373135D01*
X0396511Y0373135D01*
X0394764Y0372411D01*
X0393427Y0371074D01*
X0392704Y0369327D01*
X0392704Y0367437D01*
X0393427Y0365690D01*
X0394672Y0364445D01*
X0373835Y0364445D01*
X0365961Y0372319D01*
X0365961Y0458933D01*
X0373835Y0466807D01*
X0431283Y0466807D01*
X0431283Y0465704D01*
X0432127Y0463667D01*
X0432924Y0462870D01*
X0432127Y0462073D01*
X0431283Y0460036D01*
X0431283Y0457830D01*
X0432127Y0455793D01*
X0432924Y0454996D01*
X0432127Y0454199D01*
X0431283Y0452162D01*
X0431283Y0449956D01*
X0432127Y0447919D01*
X0432924Y0447122D01*
X0432127Y0446325D01*
X0431283Y0444288D01*
X0431283Y0442082D01*
X0432127Y0440045D01*
X0432924Y0439248D01*
X0432127Y0438451D01*
X0431283Y0436414D01*
X0431283Y0434208D01*
X0432127Y0432171D01*
X0433687Y0430612D01*
X0435724Y0429768D01*
X0437929Y0429768D01*
X0439967Y0430612D01*
X0441526Y0432171D01*
X0442370Y0434208D01*
X0442370Y0436414D01*
X0441526Y0438451D01*
X0440729Y0439248D01*
X0441526Y0440045D01*
X0442370Y0442082D01*
X0442370Y0444288D01*
X0441526Y0446325D01*
X0440729Y0447122D01*
X0441526Y0447919D01*
X0442370Y0449956D01*
X0442370Y0452162D01*
X0441526Y0454199D01*
X0440729Y0454996D01*
X0441526Y0455793D01*
X0442370Y0457830D01*
X0442370Y0460036D01*
X0441526Y0462073D01*
X0440729Y0462870D01*
X0441526Y0463667D01*
X0442370Y0465704D01*
X0442370Y0466807D01*
X0517898Y0466807D01*
X0517898Y0465704D01*
X0518742Y0463667D01*
X0519539Y0462870D01*
X0518742Y0462073D01*
X0517898Y0460036D01*
X0517898Y0457830D01*
X0518742Y0455793D01*
X0519539Y0454996D01*
X0518742Y0454199D01*
X0517898Y0452162D01*
X0517898Y0449956D01*
X0518742Y0447919D01*
X0519539Y0447122D01*
X0518742Y0446325D01*
X0517898Y0444288D01*
X0517898Y0442082D01*
X0518742Y0440045D01*
X0519539Y0439248D01*
X0518742Y0438451D01*
X0517898Y0436414D01*
X0517898Y0434208D01*
X0518742Y0432171D01*
X0520301Y0430612D01*
X0522338Y0429768D01*
X0524544Y0429768D01*
X0526581Y0430612D01*
X0528140Y0432171D01*
X0528984Y0434208D01*
X0528984Y0436414D01*
X0528140Y0438451D01*
X0527343Y0439248D01*
X0528140Y0440045D01*
X0528984Y0442082D01*
X0528984Y0444288D01*
X0528140Y0446325D01*
X0527343Y0447122D01*
X0528140Y0447919D01*
X0528984Y0449956D01*
X0528984Y0452162D01*
X0528140Y0454199D01*
X0527343Y0454996D01*
X0528140Y0455793D01*
X0528984Y0457830D01*
X0528984Y0460036D01*
X0528140Y0462073D01*
X0527343Y0462870D01*
X0528140Y0463667D01*
X0528984Y0465704D01*
X0528984Y0466807D01*
X0633677Y0466807D01*
X0649425Y0447122D01*
X0649425Y0233371D01*
X0649333Y0233279D01*
X0648609Y0231532D01*
X0648609Y0229641D01*
X0649333Y0227894D01*
X0649425Y0227802D01*
X0649425Y0225497D01*
X0649333Y0225405D01*
X0648609Y0223658D01*
X0648609Y0221767D01*
X0649333Y0220020D01*
X0649425Y0219928D01*
X0649425Y0217623D01*
X0649333Y0217531D01*
X0648609Y0215784D01*
X0648609Y0213893D01*
X0649333Y0212146D01*
X0649425Y0212054D01*
X0649425Y0195154D01*
X0641551Y0187280D01*
X0570685Y0187280D01*
X0566748Y0191217D01*
X0566748Y0203028D01*
X0562811Y0206965D01*
X0547063Y0206965D01*
X0546445Y0207583D02*
X0581179Y0207583D01*
X0581223Y0207688D02*
X0580499Y0205941D01*
X0580499Y0204051D01*
X0580727Y0203502D01*
X0579804Y0203120D01*
X0578559Y0201875D01*
X0577314Y0203120D01*
X0575567Y0203843D01*
X0573677Y0203843D01*
X0571930Y0203120D01*
X0570593Y0201783D01*
X0569869Y0200036D01*
X0569869Y0198145D01*
X0570593Y0196398D01*
X0571930Y0195061D01*
X0573677Y0194338D01*
X0575567Y0194338D01*
X0577314Y0195061D01*
X0578559Y0196306D01*
X0579804Y0195061D01*
X0581551Y0194338D01*
X0583441Y0194338D01*
X0585188Y0195061D01*
X0586525Y0196398D01*
X0587249Y0198145D01*
X0587249Y0200036D01*
X0587021Y0200585D01*
X0587944Y0200967D01*
X0589281Y0202304D01*
X0590005Y0204051D01*
X0590005Y0205941D01*
X0589281Y0207688D01*
X0587944Y0209025D01*
X0586197Y0209749D01*
X0584307Y0209749D01*
X0582560Y0209025D01*
X0581223Y0207688D01*
X0580499Y0205584D02*
X0564191Y0205584D01*
X0566190Y0203586D02*
X0573055Y0203586D01*
X0576189Y0203586D02*
X0580692Y0203586D01*
X0583902Y0209581D02*
X0544446Y0209581D01*
X0542448Y0211580D02*
X0628463Y0211580D01*
X0628795Y0211717D02*
X0627048Y0210994D01*
X0625711Y0209657D01*
X0624987Y0207910D01*
X0624987Y0206019D01*
X0625711Y0204272D01*
X0627048Y0202935D01*
X0628795Y0202212D01*
X0630686Y0202212D01*
X0632432Y0202935D01*
X0633769Y0204272D01*
X0634493Y0206019D01*
X0634493Y0207910D01*
X0633769Y0209657D01*
X0632432Y0210994D01*
X0630686Y0211717D01*
X0628795Y0211717D01*
X0631018Y0211580D02*
X0649425Y0211580D01*
X0649425Y0209581D02*
X0633801Y0209581D01*
X0634493Y0207583D02*
X0649425Y0207583D01*
X0649425Y0205584D02*
X0634313Y0205584D01*
X0633083Y0203586D02*
X0649425Y0203586D01*
X0649425Y0201587D02*
X0588565Y0201587D01*
X0589812Y0203586D02*
X0626398Y0203586D01*
X0625168Y0205584D02*
X0590005Y0205584D01*
X0589325Y0207583D02*
X0624987Y0207583D01*
X0625680Y0209581D02*
X0586602Y0209581D01*
X0587249Y0199589D02*
X0649425Y0199589D01*
X0649425Y0197590D02*
X0587019Y0197590D01*
X0585719Y0195592D02*
X0649425Y0195592D01*
X0647865Y0193593D02*
X0566748Y0193593D01*
X0566748Y0191595D02*
X0645866Y0191595D01*
X0643868Y0189596D02*
X0568368Y0189596D01*
X0570367Y0187598D02*
X0641869Y0187598D01*
X0631709Y0190429D02*
X0630528Y0194366D01*
X0617929Y0206965D01*
X0617929Y0258146D01*
X0598244Y0277831D01*
X0566748Y0277831D01*
X0527378Y0317201D01*
X0527378Y0395941D01*
X0539189Y0407752D01*
X0539189Y0454996D01*
X0547063Y0462870D01*
X0606118Y0462870D01*
X0627771Y0441217D01*
X0638244Y0441217D01*
X0633244Y0441217D01*
X0633244Y0440824D01*
X0633367Y0440046D01*
X0633610Y0439298D01*
X0633968Y0438597D01*
X0634430Y0437960D01*
X0634987Y0437404D01*
X0635624Y0436941D01*
X0636001Y0436749D01*
X0634863Y0436277D01*
X0633184Y0434598D01*
X0632276Y0432405D01*
X0632276Y0430030D01*
X0633184Y0427836D01*
X0634803Y0426217D01*
X0633184Y0424598D01*
X0632276Y0422405D01*
X0632276Y0420030D01*
X0633184Y0417836D01*
X0634803Y0416217D01*
X0633184Y0414598D01*
X0632276Y0412405D01*
X0632276Y0410030D01*
X0633184Y0407836D01*
X0634803Y0406217D01*
X0633184Y0404598D01*
X0632276Y0402405D01*
X0632276Y0400030D01*
X0633184Y0397836D01*
X0634803Y0396217D01*
X0633184Y0394598D01*
X0632276Y0392405D01*
X0632276Y0390030D01*
X0633184Y0387836D01*
X0634803Y0386217D01*
X0633184Y0384598D01*
X0632276Y0382405D01*
X0632276Y0380030D01*
X0633184Y0377836D01*
X0634803Y0376217D01*
X0633184Y0374598D01*
X0632276Y0372405D01*
X0632276Y0370030D01*
X0633184Y0367836D01*
X0634803Y0366217D01*
X0633184Y0364598D01*
X0632276Y0362405D01*
X0632276Y0360030D01*
X0633184Y0357836D01*
X0634803Y0356217D01*
X0633184Y0354598D01*
X0632276Y0352405D01*
X0632276Y0350030D01*
X0633184Y0347836D01*
X0634803Y0346217D01*
X0633184Y0344598D01*
X0632276Y0342405D01*
X0632276Y0340030D01*
X0633184Y0337836D01*
X0634803Y0336217D01*
X0633184Y0334598D01*
X0632276Y0332405D01*
X0632276Y0330030D01*
X0633184Y0327836D01*
X0634803Y0326217D01*
X0633184Y0324598D01*
X0632276Y0322405D01*
X0632276Y0320030D01*
X0633184Y0317836D01*
X0634863Y0316157D01*
X0637057Y0315249D01*
X0639431Y0315249D01*
X0641625Y0316157D01*
X0643304Y0317836D01*
X0644213Y0320030D01*
X0644213Y0322405D01*
X0643304Y0324598D01*
X0641685Y0326217D01*
X0643304Y0327836D01*
X0644213Y0330030D01*
X0644213Y0332405D01*
X0643304Y0334598D01*
X0641685Y0336217D01*
X0643304Y0337836D01*
X0644213Y0340030D01*
X0644213Y0342405D01*
X0643304Y0344598D01*
X0641685Y0346217D01*
X0643304Y0347836D01*
X0644213Y0350030D01*
X0644213Y0352405D01*
X0643304Y0354598D01*
X0641685Y0356217D01*
X0643304Y0357836D01*
X0644213Y0360030D01*
X0644213Y0362405D01*
X0643304Y0364598D01*
X0641685Y0366217D01*
X0643304Y0367836D01*
X0644213Y0370030D01*
X0644213Y0372405D01*
X0643304Y0374598D01*
X0641685Y0376217D01*
X0643304Y0377836D01*
X0644213Y0380030D01*
X0644213Y0382405D01*
X0643304Y0384598D01*
X0641685Y0386217D01*
X0643304Y0387836D01*
X0644213Y0390030D01*
X0644213Y0392405D01*
X0643304Y0394598D01*
X0641685Y0396217D01*
X0643304Y0397836D01*
X0644213Y0400030D01*
X0644213Y0402405D01*
X0643304Y0404598D01*
X0641685Y0406217D01*
X0643304Y0407836D01*
X0644213Y0410030D01*
X0644213Y0412405D01*
X0643304Y0414598D01*
X0641685Y0416217D01*
X0643304Y0417836D01*
X0644213Y0420030D01*
X0644213Y0422405D01*
X0643304Y0424598D01*
X0641685Y0426217D01*
X0643304Y0427836D01*
X0644213Y0430030D01*
X0644213Y0432405D01*
X0643304Y0434598D01*
X0641625Y0436277D01*
X0640487Y0436749D01*
X0640865Y0436941D01*
X0641501Y0437404D01*
X0642058Y0437960D01*
X0642520Y0438597D01*
X0642878Y0439298D01*
X0643121Y0440046D01*
X0643244Y0440824D01*
X0643244Y0441217D01*
X0638244Y0441217D01*
X0638244Y0441217D01*
X0638244Y0441217D01*
X0633244Y0441217D01*
X0633244Y0441611D01*
X0633367Y0442388D01*
X0633610Y0443137D01*
X0633968Y0443838D01*
X0634430Y0444475D01*
X0634987Y0445031D01*
X0635624Y0445494D01*
X0636001Y0445686D01*
X0634863Y0446157D01*
X0633184Y0447836D01*
X0632276Y0450030D01*
X0632276Y0452405D01*
X0633184Y0454598D01*
X0634863Y0456277D01*
X0637057Y0457186D01*
X0639431Y0457186D01*
X0641625Y0456277D01*
X0643304Y0454598D01*
X0644213Y0452405D01*
X0644213Y0450030D01*
X0643304Y0447836D01*
X0641625Y0446157D01*
X0640487Y0445686D01*
X0640865Y0445494D01*
X0641501Y0445031D01*
X0642058Y0444475D01*
X0642520Y0443838D01*
X0642878Y0443137D01*
X0643121Y0442388D01*
X0643244Y0441611D01*
X0643244Y0441217D01*
X0638244Y0441217D01*
X0633748Y0443407D02*
X0563797Y0443407D01*
X0564213Y0442405D02*
X0563304Y0444598D01*
X0561685Y0446217D01*
X0563304Y0447836D01*
X0564213Y0450030D01*
X0564213Y0452405D01*
X0563304Y0454598D01*
X0561625Y0456277D01*
X0559431Y0457186D01*
X0557057Y0457186D01*
X0554863Y0456277D01*
X0553184Y0454598D01*
X0552276Y0452405D01*
X0552276Y0450030D01*
X0553184Y0447836D01*
X0554803Y0446217D01*
X0553184Y0444598D01*
X0552276Y0442405D01*
X0552276Y0440030D01*
X0553184Y0437836D01*
X0554803Y0436217D01*
X0553184Y0434598D01*
X0552276Y0432405D01*
X0552276Y0430030D01*
X0553184Y0427836D01*
X0554803Y0426217D01*
X0553184Y0424598D01*
X0552276Y0422405D01*
X0552276Y0420030D01*
X0553184Y0417836D01*
X0554803Y0416217D01*
X0553184Y0414598D01*
X0552276Y0412405D01*
X0552276Y0410030D01*
X0553184Y0407836D01*
X0554803Y0406217D01*
X0553184Y0404598D01*
X0552276Y0402405D01*
X0552276Y0400030D01*
X0553184Y0397836D01*
X0554803Y0396217D01*
X0553184Y0394598D01*
X0552276Y0392405D01*
X0552276Y0390030D01*
X0553184Y0387836D01*
X0554803Y0386217D01*
X0553184Y0384598D01*
X0552276Y0382405D01*
X0552276Y0380030D01*
X0553184Y0377836D01*
X0554803Y0376217D01*
X0553184Y0374598D01*
X0552276Y0372405D01*
X0552276Y0370030D01*
X0553184Y0367836D01*
X0554803Y0366217D01*
X0553184Y0364598D01*
X0552276Y0362405D01*
X0552276Y0360030D01*
X0553184Y0357836D01*
X0554803Y0356217D01*
X0553184Y0354598D01*
X0552276Y0352405D01*
X0552276Y0350030D01*
X0553184Y0347836D01*
X0554803Y0346217D01*
X0553184Y0344598D01*
X0552276Y0342405D01*
X0552276Y0340030D01*
X0553184Y0337836D01*
X0554803Y0336217D01*
X0553184Y0334598D01*
X0552276Y0332405D01*
X0552276Y0330030D01*
X0553184Y0327836D01*
X0554803Y0326217D01*
X0553184Y0324598D01*
X0552276Y0322405D01*
X0552276Y0320030D01*
X0553184Y0317836D01*
X0554863Y0316157D01*
X0557057Y0315249D01*
X0558489Y0315249D01*
X0558058Y0314209D01*
X0558058Y0312318D01*
X0558782Y0310572D01*
X0560027Y0309327D01*
X0558782Y0308082D01*
X0558058Y0306335D01*
X0558058Y0304444D01*
X0558782Y0302698D01*
X0560119Y0301361D01*
X0561866Y0300637D01*
X0563756Y0300637D01*
X0565503Y0301361D01*
X0566840Y0302698D01*
X0567564Y0304444D01*
X0567564Y0306335D01*
X0566840Y0308082D01*
X0565595Y0309327D01*
X0566840Y0310572D01*
X0567564Y0312318D01*
X0567564Y0314209D01*
X0566840Y0315956D01*
X0565503Y0317293D01*
X0563756Y0318017D01*
X0563379Y0318017D01*
X0564213Y0320030D01*
X0564213Y0322405D01*
X0563304Y0324598D01*
X0561685Y0326217D01*
X0563304Y0327836D01*
X0564213Y0330030D01*
X0564213Y0332405D01*
X0563304Y0334598D01*
X0561685Y0336217D01*
X0563304Y0337836D01*
X0564213Y0340030D01*
X0564213Y0342405D01*
X0563304Y0344598D01*
X0561685Y0346217D01*
X0563304Y0347836D01*
X0564213Y0350030D01*
X0564213Y0352405D01*
X0563304Y0354598D01*
X0561685Y0356217D01*
X0563304Y0357836D01*
X0564213Y0360030D01*
X0564213Y0362405D01*
X0563304Y0364598D01*
X0561685Y0366217D01*
X0563304Y0367836D01*
X0564213Y0370030D01*
X0564213Y0372405D01*
X0563304Y0374598D01*
X0561685Y0376217D01*
X0563304Y0377836D01*
X0564213Y0380030D01*
X0564213Y0382405D01*
X0563304Y0384598D01*
X0561685Y0386217D01*
X0563304Y0387836D01*
X0564213Y0390030D01*
X0564213Y0392405D01*
X0563304Y0394598D01*
X0561685Y0396217D01*
X0563304Y0397836D01*
X0564213Y0400030D01*
X0564213Y0402405D01*
X0563304Y0404598D01*
X0561685Y0406217D01*
X0563304Y0407836D01*
X0564213Y0410030D01*
X0564213Y0412405D01*
X0563304Y0414598D01*
X0561685Y0416217D01*
X0563304Y0417836D01*
X0564213Y0420030D01*
X0564213Y0422405D01*
X0563304Y0424598D01*
X0561685Y0426217D01*
X0563304Y0427836D01*
X0564213Y0430030D01*
X0564213Y0432405D01*
X0563304Y0434598D01*
X0561685Y0436217D01*
X0563304Y0437836D01*
X0564213Y0440030D01*
X0564213Y0442405D01*
X0564213Y0441409D02*
X0633244Y0441409D01*
X0633574Y0439410D02*
X0563956Y0439410D01*
X0562879Y0437412D02*
X0634979Y0437412D01*
X0633999Y0435413D02*
X0562489Y0435413D01*
X0563794Y0433415D02*
X0632694Y0433415D01*
X0632276Y0431416D02*
X0564213Y0431416D01*
X0563959Y0429417D02*
X0632529Y0429417D01*
X0633602Y0427419D02*
X0562886Y0427419D01*
X0562482Y0425420D02*
X0634007Y0425420D01*
X0632697Y0423422D02*
X0563791Y0423422D01*
X0564213Y0421423D02*
X0632276Y0421423D01*
X0632526Y0419425D02*
X0563962Y0419425D01*
X0562894Y0417426D02*
X0633594Y0417426D01*
X0634014Y0415428D02*
X0562474Y0415428D01*
X0563788Y0413429D02*
X0632700Y0413429D01*
X0632276Y0411431D02*
X0564213Y0411431D01*
X0563965Y0409432D02*
X0632523Y0409432D01*
X0633587Y0407434D02*
X0562901Y0407434D01*
X0562467Y0405435D02*
X0634021Y0405435D01*
X0632703Y0403437D02*
X0563785Y0403437D01*
X0564213Y0401438D02*
X0632276Y0401438D01*
X0632520Y0399440D02*
X0563968Y0399440D01*
X0562909Y0397441D02*
X0633579Y0397441D01*
X0634029Y0395443D02*
X0562459Y0395443D01*
X0563782Y0393444D02*
X0632706Y0393444D01*
X0632276Y0391446D02*
X0564213Y0391446D01*
X0563971Y0389447D02*
X0632517Y0389447D01*
X0633572Y0387449D02*
X0562916Y0387449D01*
X0562452Y0385450D02*
X0634036Y0385450D01*
X0632709Y0383452D02*
X0563779Y0383452D01*
X0564213Y0381453D02*
X0632276Y0381453D01*
X0632514Y0379455D02*
X0575782Y0379455D01*
X0576289Y0378948D02*
X0574952Y0380285D01*
X0573205Y0381009D01*
X0571314Y0381009D01*
X0569568Y0380285D01*
X0568231Y0378948D01*
X0567507Y0377201D01*
X0567507Y0375311D01*
X0568231Y0373564D01*
X0569568Y0372227D01*
X0571314Y0371503D01*
X0573205Y0371503D01*
X0574952Y0372227D01*
X0576289Y0373564D01*
X0577013Y0375311D01*
X0577013Y0377201D01*
X0576289Y0378948D01*
X0576907Y0377456D02*
X0633564Y0377456D01*
X0634044Y0375458D02*
X0577013Y0375458D01*
X0576185Y0373459D02*
X0632712Y0373459D01*
X0632276Y0371461D02*
X0564213Y0371461D01*
X0563977Y0369462D02*
X0580845Y0369462D01*
X0581157Y0369591D02*
X0579410Y0368868D01*
X0578073Y0367531D01*
X0577350Y0365784D01*
X0577350Y0363893D01*
X0578073Y0362146D01*
X0579410Y0360809D01*
X0581157Y0360086D01*
X0583048Y0360086D01*
X0584795Y0360809D01*
X0586132Y0362146D01*
X0586855Y0363893D01*
X0586855Y0365784D01*
X0586132Y0367531D01*
X0584795Y0368868D01*
X0583048Y0369591D01*
X0581157Y0369591D01*
X0583360Y0369462D02*
X0632511Y0369462D01*
X0633557Y0367464D02*
X0586159Y0367464D01*
X0586855Y0365465D02*
X0634051Y0365465D01*
X0632716Y0363467D02*
X0586678Y0363467D01*
X0585453Y0361468D02*
X0632276Y0361468D01*
X0632508Y0359470D02*
X0563980Y0359470D01*
X0564213Y0361468D02*
X0578751Y0361468D01*
X0577526Y0363467D02*
X0563773Y0363467D01*
X0562437Y0365465D02*
X0577350Y0365465D01*
X0578045Y0367464D02*
X0562931Y0367464D01*
X0563776Y0373459D02*
X0568335Y0373459D01*
X0567507Y0375458D02*
X0562444Y0375458D01*
X0562924Y0377456D02*
X0567613Y0377456D01*
X0568737Y0379455D02*
X0563974Y0379455D01*
X0553564Y0377456D02*
X0453285Y0377456D01*
X0453391Y0377201D02*
X0452667Y0378948D01*
X0451330Y0380285D01*
X0449583Y0381009D01*
X0447692Y0381009D01*
X0445946Y0380285D01*
X0444609Y0378948D01*
X0443885Y0377201D01*
X0443885Y0375311D01*
X0444609Y0373564D01*
X0445946Y0372227D01*
X0447692Y0371503D01*
X0449583Y0371503D01*
X0451330Y0372227D01*
X0452667Y0373564D01*
X0453391Y0375311D01*
X0453391Y0377201D01*
X0453391Y0375458D02*
X0554044Y0375458D01*
X0552712Y0373459D02*
X0452562Y0373459D01*
X0452160Y0379455D02*
X0552514Y0379455D01*
X0552276Y0381453D02*
X0365961Y0381453D01*
X0365961Y0379455D02*
X0445115Y0379455D01*
X0443991Y0377456D02*
X0365961Y0377456D01*
X0365961Y0375458D02*
X0443885Y0375458D01*
X0444713Y0373459D02*
X0365961Y0373459D01*
X0366819Y0371461D02*
X0393814Y0371461D01*
X0392760Y0369462D02*
X0368817Y0369462D01*
X0370816Y0367464D02*
X0392704Y0367464D01*
X0393652Y0365465D02*
X0372814Y0365465D01*
X0368937Y0361468D02*
X0108118Y0361468D01*
X0108278Y0361081D02*
X0107956Y0361860D01*
X0107535Y0362589D01*
X0107022Y0363257D01*
X0106426Y0363853D01*
X0105758Y0364365D01*
X0105029Y0364787D01*
X0104251Y0365109D01*
X0103437Y0365327D01*
X0102656Y0365430D01*
X0102656Y0359487D01*
X0101706Y0359487D01*
X0101706Y0365430D01*
X0100925Y0365327D01*
X0100111Y0365109D01*
X0099333Y0364787D01*
X0098604Y0364365D01*
X0097936Y0363853D01*
X0097340Y0363257D01*
X0096827Y0362589D01*
X0096406Y0361860D01*
X0096084Y0361081D01*
X0095866Y0360268D01*
X0095763Y0359487D01*
X0101706Y0359487D01*
X0101706Y0358537D01*
X0095763Y0358537D01*
X0095866Y0357756D01*
X0096084Y0356942D01*
X0096406Y0356164D01*
X0096827Y0355435D01*
X0097340Y0354766D01*
X0097936Y0354171D01*
X0098604Y0353658D01*
X0099333Y0353237D01*
X0100111Y0352915D01*
X0100925Y0352697D01*
X0101706Y0352594D01*
X0101706Y0358537D01*
X0102656Y0358537D01*
X0102656Y0359487D01*
X0108599Y0359487D01*
X0108496Y0360268D01*
X0108278Y0361081D01*
X0108599Y0358537D02*
X0102656Y0358537D01*
X0102656Y0352594D01*
X0103437Y0352697D01*
X0104251Y0352915D01*
X0105029Y0353237D01*
X0105758Y0353658D01*
X0106426Y0354171D01*
X0107022Y0354766D01*
X0107535Y0355435D01*
X0107956Y0356164D01*
X0108278Y0356942D01*
X0108496Y0357756D01*
X0108599Y0358537D01*
X0108420Y0357471D02*
X0372934Y0357471D01*
X0373835Y0356571D02*
X0448638Y0356571D01*
X0520456Y0284753D01*
X0520263Y0284288D01*
X0520263Y0282397D01*
X0520987Y0280650D01*
X0522324Y0279313D01*
X0523441Y0278850D01*
X0523441Y0229404D01*
X0522717Y0229104D01*
X0521380Y0227767D01*
X0520657Y0226020D01*
X0520657Y0224129D01*
X0521380Y0222383D01*
X0522717Y0221046D01*
X0523441Y0220746D01*
X0523441Y0175469D01*
X0539189Y0159720D01*
X0621866Y0159720D01*
X0625775Y0155812D01*
X0624858Y0155812D01*
X0623111Y0155088D01*
X0621774Y0153751D01*
X0621050Y0152004D01*
X0621050Y0150114D01*
X0621774Y0148367D01*
X0623111Y0147030D01*
X0624858Y0146306D01*
X0625803Y0146306D01*
X0625803Y0136098D01*
X0621866Y0132161D01*
X0503756Y0132161D01*
X0497485Y0138432D01*
X0498796Y0138432D01*
X0500543Y0139156D01*
X0501880Y0140493D01*
X0502603Y0142240D01*
X0502603Y0144130D01*
X0501880Y0145877D01*
X0500543Y0147214D01*
X0498796Y0147938D01*
X0496905Y0147938D01*
X0495158Y0147214D01*
X0493821Y0145877D01*
X0493098Y0144130D01*
X0493098Y0142820D01*
X0491945Y0143972D01*
X0491945Y0160873D01*
X0492037Y0160965D01*
X0492761Y0162712D01*
X0492761Y0164603D01*
X0492037Y0166350D01*
X0491945Y0166442D01*
X0491945Y0192369D01*
X0492037Y0192461D01*
X0492761Y0194208D01*
X0492761Y0196099D01*
X0492037Y0197846D01*
X0491945Y0197938D01*
X0491945Y0237645D01*
X0492890Y0237645D01*
X0494637Y0238368D01*
X0495974Y0239705D01*
X0496698Y0241452D01*
X0496698Y0243343D01*
X0495974Y0245090D01*
X0494637Y0246427D01*
X0493376Y0246949D01*
X0494399Y0247973D01*
X0495123Y0249720D01*
X0495123Y0251611D01*
X0494399Y0253358D01*
X0493062Y0254695D01*
X0491945Y0255157D01*
X0491945Y0273894D01*
X0486068Y0279771D01*
X0486985Y0279771D01*
X0488732Y0280494D01*
X0490069Y0281831D01*
X0490792Y0283578D01*
X0490792Y0285469D01*
X0490069Y0287216D01*
X0488732Y0288553D01*
X0486985Y0289276D01*
X0485094Y0289276D01*
X0483347Y0288553D01*
X0482010Y0287216D01*
X0481287Y0285469D01*
X0481287Y0284552D01*
X0480134Y0285705D01*
X0448638Y0285705D01*
X0444701Y0289642D01*
X0444701Y0301453D01*
X0428953Y0317201D01*
X0373835Y0317201D01*
X0342339Y0348697D01*
X0082496Y0348697D01*
X0082496Y0364445D01*
X0086433Y0368382D01*
X0362024Y0368382D01*
X0373835Y0356571D01*
X0370936Y0359470D02*
X0102656Y0359470D01*
X0101706Y0359470D02*
X0082496Y0359470D01*
X0082496Y0361468D02*
X0096244Y0361468D01*
X0097550Y0363467D02*
X0082496Y0363467D01*
X0083516Y0365465D02*
X0364940Y0365465D01*
X0362942Y0367464D02*
X0085515Y0367464D01*
X0082496Y0357471D02*
X0095942Y0357471D01*
X0096806Y0355473D02*
X0082496Y0355473D01*
X0082496Y0353474D02*
X0098923Y0353474D01*
X0101706Y0353474D02*
X0102656Y0353474D01*
X0102656Y0355473D02*
X0101706Y0355473D01*
X0101706Y0357471D02*
X0102656Y0357471D01*
X0102656Y0361468D02*
X0101706Y0361468D01*
X0101706Y0363467D02*
X0102656Y0363467D01*
X0106813Y0363467D02*
X0366939Y0363467D01*
X0347554Y0343482D02*
X0461727Y0343482D01*
X0459729Y0345480D02*
X0345555Y0345480D01*
X0343557Y0347479D02*
X0457730Y0347479D01*
X0455732Y0349477D02*
X0082496Y0349477D01*
X0082496Y0351476D02*
X0453733Y0351476D01*
X0451735Y0353474D02*
X0105439Y0353474D01*
X0107557Y0355473D02*
X0449736Y0355473D01*
X0455552Y0361468D02*
X0552276Y0361468D01*
X0552508Y0359470D02*
X0457550Y0359470D01*
X0459549Y0357471D02*
X0553550Y0357471D01*
X0554059Y0355473D02*
X0461547Y0355473D01*
X0463546Y0353474D02*
X0552719Y0353474D01*
X0552276Y0351476D02*
X0465544Y0351476D01*
X0467543Y0349477D02*
X0552505Y0349477D01*
X0553542Y0347479D02*
X0469541Y0347479D01*
X0471540Y0345480D02*
X0554066Y0345480D01*
X0552722Y0343482D02*
X0473538Y0343482D01*
X0475537Y0341483D02*
X0552276Y0341483D01*
X0552502Y0339484D02*
X0477535Y0339484D01*
X0479534Y0337486D02*
X0553535Y0337486D01*
X0554073Y0335487D02*
X0481532Y0335487D01*
X0483531Y0333489D02*
X0552725Y0333489D01*
X0552276Y0331490D02*
X0485529Y0331490D01*
X0487528Y0329492D02*
X0552498Y0329492D01*
X0553527Y0327493D02*
X0489526Y0327493D01*
X0491525Y0325495D02*
X0554081Y0325495D01*
X0552728Y0323496D02*
X0493523Y0323496D01*
X0495522Y0321498D02*
X0552276Y0321498D01*
X0552495Y0319499D02*
X0497520Y0319499D01*
X0499519Y0317501D02*
X0553520Y0317501D01*
X0556445Y0315502D02*
X0501517Y0315502D01*
X0503516Y0313504D02*
X0558058Y0313504D01*
X0558395Y0311505D02*
X0505514Y0311505D01*
X0507513Y0309507D02*
X0559847Y0309507D01*
X0558544Y0307508D02*
X0509511Y0307508D01*
X0511510Y0305510D02*
X0558058Y0305510D01*
X0558445Y0303511D02*
X0513508Y0303511D01*
X0515507Y0301513D02*
X0559967Y0301513D01*
X0565655Y0301513D02*
X0649425Y0301513D01*
X0649425Y0303511D02*
X0567177Y0303511D01*
X0567564Y0305510D02*
X0649425Y0305510D01*
X0649425Y0307508D02*
X0567078Y0307508D01*
X0565775Y0309507D02*
X0649425Y0309507D01*
X0649425Y0311505D02*
X0567227Y0311505D01*
X0567564Y0313504D02*
X0568448Y0313504D01*
X0568231Y0313721D02*
X0569568Y0312384D01*
X0571314Y0311661D01*
X0573205Y0311661D01*
X0574952Y0312384D01*
X0576289Y0313721D01*
X0577013Y0315468D01*
X0577013Y0317359D01*
X0576289Y0319106D01*
X0574952Y0320443D01*
X0573205Y0321166D01*
X0571314Y0321166D01*
X0569568Y0320443D01*
X0568231Y0319106D01*
X0567507Y0317359D01*
X0567507Y0315468D01*
X0568231Y0313721D01*
X0567507Y0315502D02*
X0567028Y0315502D01*
X0567566Y0317501D02*
X0565001Y0317501D01*
X0563993Y0319499D02*
X0568624Y0319499D01*
X0564213Y0321498D02*
X0632276Y0321498D01*
X0632495Y0319499D02*
X0575895Y0319499D01*
X0576954Y0317501D02*
X0633520Y0317501D01*
X0636445Y0315502D02*
X0577013Y0315502D01*
X0576072Y0313504D02*
X0649425Y0313504D01*
X0649425Y0315502D02*
X0640043Y0315502D01*
X0642968Y0317501D02*
X0649425Y0317501D01*
X0649425Y0319499D02*
X0643993Y0319499D01*
X0644213Y0321498D02*
X0649425Y0321498D01*
X0649425Y0323496D02*
X0643760Y0323496D01*
X0642407Y0325495D02*
X0649425Y0325495D01*
X0649425Y0327493D02*
X0642961Y0327493D01*
X0643990Y0329492D02*
X0649425Y0329492D01*
X0649425Y0331490D02*
X0644213Y0331490D01*
X0643763Y0333489D02*
X0649425Y0333489D01*
X0649425Y0335487D02*
X0642415Y0335487D01*
X0642953Y0337486D02*
X0649425Y0337486D01*
X0649425Y0339484D02*
X0643987Y0339484D01*
X0644213Y0341483D02*
X0649425Y0341483D01*
X0649425Y0343482D02*
X0643766Y0343482D01*
X0642422Y0345480D02*
X0649425Y0345480D01*
X0649425Y0347479D02*
X0642946Y0347479D01*
X0643983Y0349477D02*
X0649425Y0349477D01*
X0649425Y0351476D02*
X0644213Y0351476D01*
X0643770Y0353474D02*
X0649425Y0353474D01*
X0649425Y0355473D02*
X0642430Y0355473D01*
X0642939Y0357471D02*
X0649425Y0357471D01*
X0649425Y0359470D02*
X0643980Y0359470D01*
X0644213Y0361468D02*
X0649425Y0361468D01*
X0649425Y0363467D02*
X0643773Y0363467D01*
X0642437Y0365465D02*
X0649425Y0365465D01*
X0649425Y0367464D02*
X0642931Y0367464D01*
X0643977Y0369462D02*
X0649425Y0369462D01*
X0649425Y0371461D02*
X0644213Y0371461D01*
X0643776Y0373459D02*
X0649425Y0373459D01*
X0649425Y0375458D02*
X0642444Y0375458D01*
X0642924Y0377456D02*
X0649425Y0377456D01*
X0649425Y0379455D02*
X0643974Y0379455D01*
X0644213Y0381453D02*
X0649425Y0381453D01*
X0649425Y0383452D02*
X0643779Y0383452D01*
X0642452Y0385450D02*
X0649425Y0385450D01*
X0649425Y0387449D02*
X0642916Y0387449D01*
X0643971Y0389447D02*
X0649425Y0389447D01*
X0649425Y0391446D02*
X0644213Y0391446D01*
X0643782Y0393444D02*
X0649425Y0393444D01*
X0649425Y0395443D02*
X0642459Y0395443D01*
X0642909Y0397441D02*
X0649425Y0397441D01*
X0649425Y0399440D02*
X0643968Y0399440D01*
X0644213Y0401438D02*
X0649425Y0401438D01*
X0649425Y0403437D02*
X0643785Y0403437D01*
X0642467Y0405435D02*
X0649425Y0405435D01*
X0649425Y0407434D02*
X0642901Y0407434D01*
X0643965Y0409432D02*
X0649425Y0409432D01*
X0649425Y0411431D02*
X0644213Y0411431D01*
X0643788Y0413429D02*
X0649425Y0413429D01*
X0649425Y0415428D02*
X0642474Y0415428D01*
X0642894Y0417426D02*
X0649425Y0417426D01*
X0649425Y0419425D02*
X0643962Y0419425D01*
X0644213Y0421423D02*
X0649425Y0421423D01*
X0649425Y0423422D02*
X0643791Y0423422D01*
X0642482Y0425420D02*
X0649425Y0425420D01*
X0649425Y0427419D02*
X0642886Y0427419D01*
X0643959Y0429417D02*
X0649425Y0429417D01*
X0649425Y0431416D02*
X0644213Y0431416D01*
X0643794Y0433415D02*
X0649425Y0433415D01*
X0649425Y0435413D02*
X0642489Y0435413D01*
X0641509Y0437412D02*
X0649425Y0437412D01*
X0649425Y0439410D02*
X0642914Y0439410D01*
X0643244Y0441409D02*
X0649425Y0441409D01*
X0649425Y0443407D02*
X0642740Y0443407D01*
X0640986Y0445406D02*
X0649425Y0445406D01*
X0649200Y0447404D02*
X0642872Y0447404D01*
X0643953Y0449403D02*
X0647601Y0449403D01*
X0646002Y0451401D02*
X0644213Y0451401D01*
X0644403Y0453400D02*
X0643800Y0453400D01*
X0642804Y0455398D02*
X0642504Y0455398D01*
X0641206Y0457397D02*
X0528805Y0457397D01*
X0528984Y0459395D02*
X0639607Y0459395D01*
X0638008Y0461394D02*
X0528422Y0461394D01*
X0527865Y0463392D02*
X0636409Y0463392D01*
X0634810Y0465391D02*
X0528854Y0465391D01*
X0519016Y0463392D02*
X0441251Y0463392D01*
X0441808Y0461394D02*
X0518460Y0461394D01*
X0517898Y0459395D02*
X0442370Y0459395D01*
X0442190Y0457397D02*
X0518077Y0457397D01*
X0519136Y0455398D02*
X0441131Y0455398D01*
X0441857Y0453400D02*
X0518410Y0453400D01*
X0517898Y0451401D02*
X0442370Y0451401D01*
X0442141Y0449403D02*
X0518127Y0449403D01*
X0519256Y0447404D02*
X0441011Y0447404D01*
X0441907Y0445406D02*
X0518361Y0445406D01*
X0517898Y0443407D02*
X0442370Y0443407D01*
X0442091Y0441409D02*
X0518177Y0441409D01*
X0519377Y0439410D02*
X0440891Y0439410D01*
X0441957Y0437412D02*
X0518311Y0437412D01*
X0517898Y0435413D02*
X0442370Y0435413D01*
X0442041Y0433415D02*
X0518226Y0433415D01*
X0519497Y0431416D02*
X0440771Y0431416D01*
X0432882Y0431416D02*
X0365961Y0431416D01*
X0365961Y0429417D02*
X0552529Y0429417D01*
X0552276Y0431416D02*
X0527385Y0431416D01*
X0528655Y0433415D02*
X0552694Y0433415D01*
X0553999Y0435413D02*
X0528984Y0435413D01*
X0528571Y0437412D02*
X0553609Y0437412D01*
X0552532Y0439410D02*
X0527505Y0439410D01*
X0528705Y0441409D02*
X0552276Y0441409D01*
X0552691Y0443407D02*
X0528984Y0443407D01*
X0528521Y0445406D02*
X0553992Y0445406D01*
X0553617Y0447404D02*
X0527625Y0447404D01*
X0528755Y0449403D02*
X0552536Y0449403D01*
X0552276Y0451401D02*
X0528984Y0451401D01*
X0528471Y0453400D02*
X0552688Y0453400D01*
X0553984Y0455398D02*
X0527745Y0455398D01*
X0518028Y0465391D02*
X0442240Y0465391D01*
X0432402Y0463392D02*
X0370420Y0463392D01*
X0372418Y0465391D02*
X0431413Y0465391D01*
X0431846Y0461394D02*
X0368421Y0461394D01*
X0366423Y0459395D02*
X0431283Y0459395D01*
X0431463Y0457397D02*
X0365961Y0457397D01*
X0365961Y0455398D02*
X0432522Y0455398D01*
X0431796Y0453400D02*
X0365961Y0453400D01*
X0365961Y0451401D02*
X0431283Y0451401D01*
X0431513Y0449403D02*
X0365961Y0449403D01*
X0365961Y0447404D02*
X0432642Y0447404D01*
X0431747Y0445406D02*
X0365961Y0445406D01*
X0365961Y0443407D02*
X0418700Y0443407D01*
X0418387Y0443277D02*
X0417050Y0441940D01*
X0416326Y0440193D01*
X0416326Y0438303D01*
X0417050Y0436556D01*
X0418387Y0435219D01*
X0420133Y0434495D01*
X0422024Y0434495D01*
X0423771Y0435219D01*
X0425108Y0436556D01*
X0425831Y0438303D01*
X0425831Y0440193D01*
X0425108Y0441940D01*
X0423771Y0443277D01*
X0422024Y0444001D01*
X0420133Y0444001D01*
X0418387Y0443277D01*
X0416829Y0441409D02*
X0365961Y0441409D01*
X0365961Y0439410D02*
X0416326Y0439410D01*
X0416695Y0437412D02*
X0365961Y0437412D01*
X0365961Y0435413D02*
X0418192Y0435413D01*
X0423965Y0435413D02*
X0431283Y0435413D01*
X0431612Y0433415D02*
X0365961Y0433415D01*
X0365961Y0427419D02*
X0553602Y0427419D01*
X0554007Y0425420D02*
X0365961Y0425420D01*
X0365961Y0423422D02*
X0552697Y0423422D01*
X0552276Y0421423D02*
X0365961Y0421423D01*
X0365961Y0419425D02*
X0552526Y0419425D01*
X0553594Y0417426D02*
X0365961Y0417426D01*
X0365961Y0415428D02*
X0422033Y0415428D01*
X0422324Y0415718D02*
X0420987Y0414381D01*
X0420263Y0412634D01*
X0420263Y0410744D01*
X0420987Y0408997D01*
X0422324Y0407660D01*
X0424070Y0406936D01*
X0425961Y0406936D01*
X0427708Y0407660D01*
X0429045Y0408997D01*
X0429768Y0410744D01*
X0429768Y0412634D01*
X0429045Y0414381D01*
X0427708Y0415718D01*
X0425961Y0416442D01*
X0424070Y0416442D01*
X0422324Y0415718D01*
X0420592Y0413429D02*
X0365961Y0413429D01*
X0365961Y0411431D02*
X0420263Y0411431D01*
X0420806Y0409432D02*
X0365961Y0409432D01*
X0365961Y0407434D02*
X0422869Y0407434D01*
X0427163Y0407434D02*
X0553587Y0407434D01*
X0554021Y0405435D02*
X0365961Y0405435D01*
X0365961Y0403437D02*
X0552703Y0403437D01*
X0552276Y0401438D02*
X0365961Y0401438D01*
X0365961Y0399440D02*
X0552520Y0399440D01*
X0553579Y0397441D02*
X0365961Y0397441D01*
X0365961Y0395443D02*
X0445355Y0395443D01*
X0445946Y0396033D02*
X0444609Y0394696D01*
X0443885Y0392949D01*
X0443885Y0391059D01*
X0444609Y0389312D01*
X0445946Y0387975D01*
X0447692Y0387251D01*
X0449583Y0387251D01*
X0451330Y0387975D01*
X0452667Y0389312D01*
X0453391Y0391059D01*
X0453391Y0392949D01*
X0452667Y0394696D01*
X0451330Y0396033D01*
X0449583Y0396757D01*
X0447692Y0396757D01*
X0445946Y0396033D01*
X0444090Y0393444D02*
X0365961Y0393444D01*
X0365961Y0391446D02*
X0443885Y0391446D01*
X0444552Y0389447D02*
X0365961Y0389447D01*
X0365961Y0387449D02*
X0447215Y0387449D01*
X0450060Y0387449D02*
X0553572Y0387449D01*
X0554036Y0385450D02*
X0365961Y0385450D01*
X0365961Y0383452D02*
X0552709Y0383452D01*
X0552517Y0389447D02*
X0452723Y0389447D01*
X0453391Y0391446D02*
X0552276Y0391446D01*
X0552706Y0393444D02*
X0453186Y0393444D01*
X0451920Y0395443D02*
X0554029Y0395443D01*
X0552523Y0409432D02*
X0429225Y0409432D01*
X0429768Y0411431D02*
X0552276Y0411431D01*
X0552700Y0413429D02*
X0429439Y0413429D01*
X0427998Y0415428D02*
X0554014Y0415428D01*
X0527378Y0395941D02*
X0519504Y0403815D01*
X0405331Y0403815D01*
X0401099Y0371461D02*
X0552276Y0371461D01*
X0552511Y0369462D02*
X0402154Y0369462D01*
X0402209Y0367464D02*
X0553557Y0367464D01*
X0554051Y0365465D02*
X0401261Y0365465D01*
X0422575Y0355075D02*
X0425016Y0352634D01*
X0448638Y0344760D02*
X0519504Y0273894D01*
X0519504Y0147909D01*
X0531315Y0159720D01*
X0535646Y0159720D01*
X0575016Y0159720D01*
X0578953Y0155783D01*
X0617929Y0155783D01*
X0617929Y0136098D01*
X0602181Y0136098D01*
X0586433Y0136098D01*
X0586402Y0136068D01*
X0570716Y0136068D01*
X0570685Y0136098D01*
X0554937Y0136098D01*
X0553992Y0139220D02*
X0555882Y0139220D01*
X0557629Y0139943D01*
X0558966Y0141280D01*
X0559690Y0143027D01*
X0559690Y0144918D01*
X0558966Y0146665D01*
X0557629Y0148002D01*
X0555882Y0148725D01*
X0553992Y0148725D01*
X0552245Y0148002D01*
X0550908Y0146665D01*
X0550184Y0144918D01*
X0550184Y0143027D01*
X0550908Y0141280D01*
X0552245Y0139943D01*
X0553992Y0139220D01*
X0552993Y0139633D02*
X0533697Y0139633D01*
X0533769Y0139705D02*
X0534493Y0141452D01*
X0534493Y0143343D01*
X0533769Y0145090D01*
X0532432Y0146427D01*
X0530686Y0147150D01*
X0528795Y0147150D01*
X0527048Y0146427D01*
X0525711Y0145090D01*
X0524987Y0143343D01*
X0524987Y0141452D01*
X0525711Y0139705D01*
X0527048Y0138368D01*
X0528795Y0137645D01*
X0530686Y0137645D01*
X0532432Y0138368D01*
X0533769Y0139705D01*
X0534493Y0141632D02*
X0550762Y0141632D01*
X0550184Y0143630D02*
X0534374Y0143630D01*
X0533230Y0145629D02*
X0550479Y0145629D01*
X0551871Y0147627D02*
X0544054Y0147627D01*
X0543456Y0147030D02*
X0544793Y0148367D01*
X0545517Y0150114D01*
X0545517Y0152004D01*
X0544793Y0153751D01*
X0543456Y0155088D01*
X0541709Y0155812D01*
X0539818Y0155812D01*
X0538072Y0155088D01*
X0536735Y0153751D01*
X0536011Y0152004D01*
X0536011Y0150114D01*
X0536735Y0148367D01*
X0538072Y0147030D01*
X0539818Y0146306D01*
X0541709Y0146306D01*
X0543456Y0147030D01*
X0545314Y0149626D02*
X0578339Y0149626D01*
X0578137Y0150114D02*
X0578861Y0148367D01*
X0580198Y0147030D01*
X0581944Y0146306D01*
X0583835Y0146306D01*
X0585582Y0147030D01*
X0586919Y0148367D01*
X0587643Y0150114D01*
X0587643Y0152004D01*
X0586919Y0153751D01*
X0585582Y0155088D01*
X0583835Y0155812D01*
X0581944Y0155812D01*
X0580198Y0155088D01*
X0578861Y0153751D01*
X0578137Y0152004D01*
X0578137Y0150114D01*
X0578137Y0151624D02*
X0545517Y0151624D01*
X0544846Y0153623D02*
X0578807Y0153623D01*
X0581485Y0155621D02*
X0542169Y0155621D01*
X0539359Y0155621D02*
X0491945Y0155621D01*
X0491945Y0153623D02*
X0536681Y0153623D01*
X0536011Y0151624D02*
X0491945Y0151624D01*
X0491945Y0149626D02*
X0536213Y0149626D01*
X0537474Y0147627D02*
X0499545Y0147627D01*
X0501982Y0145629D02*
X0526250Y0145629D01*
X0525106Y0143630D02*
X0502603Y0143630D01*
X0502351Y0141632D02*
X0524987Y0141632D01*
X0525783Y0139633D02*
X0501020Y0139633D01*
X0498282Y0137635D02*
X0625803Y0137635D01*
X0625803Y0139633D02*
X0600188Y0139633D01*
X0600936Y0139943D02*
X0602273Y0141280D01*
X0602997Y0143027D01*
X0602997Y0144918D01*
X0602273Y0146665D01*
X0600936Y0148002D01*
X0599189Y0148725D01*
X0597299Y0148725D01*
X0595552Y0148002D01*
X0594215Y0146665D01*
X0593491Y0144918D01*
X0593491Y0143027D01*
X0594215Y0141280D01*
X0595552Y0139943D01*
X0597299Y0139220D01*
X0599189Y0139220D01*
X0600936Y0139943D01*
X0602419Y0141632D02*
X0625803Y0141632D01*
X0625803Y0143630D02*
X0602997Y0143630D01*
X0602702Y0145629D02*
X0625803Y0145629D01*
X0622513Y0147627D02*
X0601311Y0147627D01*
X0595178Y0147627D02*
X0586180Y0147627D01*
X0587440Y0149626D02*
X0621252Y0149626D01*
X0621050Y0151624D02*
X0587643Y0151624D01*
X0586972Y0153623D02*
X0621721Y0153623D01*
X0624398Y0155621D02*
X0584295Y0155621D01*
X0579600Y0147627D02*
X0558003Y0147627D01*
X0559395Y0145629D02*
X0593786Y0145629D01*
X0593491Y0143630D02*
X0559690Y0143630D01*
X0559112Y0141632D02*
X0594069Y0141632D01*
X0596300Y0139633D02*
X0556881Y0139633D01*
X0537292Y0161617D02*
X0492307Y0161617D01*
X0491945Y0159618D02*
X0621968Y0159618D01*
X0621866Y0159720D02*
X0617929Y0155783D01*
X0623967Y0157620D02*
X0491945Y0157620D01*
X0484071Y0157620D02*
X0465063Y0157620D01*
X0464872Y0158082D02*
X0465595Y0156335D01*
X0465595Y0154444D01*
X0464872Y0152698D01*
X0463535Y0151361D01*
X0461788Y0150637D01*
X0459897Y0150637D01*
X0458150Y0151361D01*
X0456813Y0152698D01*
X0456090Y0154444D01*
X0456090Y0156335D01*
X0456813Y0158082D01*
X0458150Y0159419D01*
X0459897Y0160143D01*
X0461788Y0160143D01*
X0463535Y0159419D01*
X0464872Y0158082D01*
X0463053Y0159618D02*
X0484071Y0159618D01*
X0483709Y0161617D02*
X0395560Y0161617D01*
X0393562Y0163615D02*
X0483255Y0163615D01*
X0483674Y0165614D02*
X0391563Y0165614D01*
X0389565Y0167613D02*
X0484071Y0167613D01*
X0484071Y0169611D02*
X0387566Y0169611D01*
X0385568Y0171610D02*
X0426090Y0171610D01*
X0426261Y0171439D02*
X0428007Y0170716D01*
X0429898Y0170716D01*
X0431645Y0171439D01*
X0432982Y0172776D01*
X0433705Y0174523D01*
X0433705Y0176414D01*
X0432982Y0178161D01*
X0431645Y0179498D01*
X0429898Y0180221D01*
X0428007Y0180221D01*
X0426261Y0179498D01*
X0424924Y0178161D01*
X0424200Y0176414D01*
X0424200Y0174523D01*
X0424924Y0172776D01*
X0426261Y0171439D01*
X0424579Y0173608D02*
X0383569Y0173608D01*
X0381571Y0175607D02*
X0424200Y0175607D01*
X0424693Y0177605D02*
X0379572Y0177605D01*
X0377574Y0179604D02*
X0398951Y0179604D01*
X0398701Y0179707D02*
X0400448Y0178983D01*
X0402339Y0178983D01*
X0404086Y0179707D01*
X0405423Y0181044D01*
X0406146Y0182791D01*
X0406146Y0184682D01*
X0405423Y0186428D01*
X0404375Y0187476D01*
X0405423Y0188524D01*
X0406146Y0190271D01*
X0406146Y0190401D01*
X0406276Y0190401D01*
X0408023Y0191124D01*
X0408069Y0191171D01*
X0407665Y0190193D01*
X0407665Y0188303D01*
X0408388Y0186556D01*
X0409725Y0185219D01*
X0411472Y0184495D01*
X0413363Y0184495D01*
X0415110Y0185219D01*
X0416447Y0186556D01*
X0417142Y0188234D01*
X0417837Y0186556D01*
X0419174Y0185219D01*
X0420921Y0184495D01*
X0422812Y0184495D01*
X0424558Y0185219D01*
X0425895Y0186556D01*
X0426619Y0188303D01*
X0426619Y0190193D01*
X0425895Y0191940D01*
X0424558Y0193277D01*
X0422812Y0194001D01*
X0420921Y0194001D01*
X0419174Y0193277D01*
X0417837Y0191940D01*
X0417142Y0190262D01*
X0416447Y0191940D01*
X0415110Y0193277D01*
X0413363Y0194001D01*
X0411472Y0194001D01*
X0409725Y0193277D01*
X0409679Y0193231D01*
X0410083Y0194208D01*
X0410083Y0196099D01*
X0409360Y0197846D01*
X0408023Y0199183D01*
X0406276Y0199906D01*
X0404385Y0199906D01*
X0402638Y0199183D01*
X0401302Y0197846D01*
X0400578Y0196099D01*
X0400578Y0195969D01*
X0400448Y0195969D01*
X0398701Y0195246D01*
X0397365Y0193909D01*
X0396641Y0192162D01*
X0396641Y0190271D01*
X0397365Y0188524D01*
X0398412Y0187476D01*
X0397365Y0186428D01*
X0396641Y0184682D01*
X0396641Y0182791D01*
X0397365Y0181044D01*
X0398701Y0179707D01*
X0397133Y0181602D02*
X0375575Y0181602D01*
X0373577Y0183601D02*
X0396641Y0183601D01*
X0397021Y0185599D02*
X0384781Y0185599D01*
X0384950Y0185768D02*
X0385674Y0187515D01*
X0385674Y0189406D01*
X0384950Y0191153D01*
X0383613Y0192490D01*
X0381867Y0193213D01*
X0379976Y0193213D01*
X0378229Y0192490D01*
X0376892Y0191153D01*
X0376169Y0189406D01*
X0376169Y0187515D01*
X0376892Y0185768D01*
X0378229Y0184431D01*
X0379976Y0183708D01*
X0381867Y0183708D01*
X0383613Y0184431D01*
X0384950Y0185768D01*
X0385674Y0187598D02*
X0398291Y0187598D01*
X0396921Y0189596D02*
X0385595Y0189596D01*
X0384509Y0191595D02*
X0396641Y0191595D01*
X0397234Y0193593D02*
X0365961Y0193593D01*
X0365961Y0191595D02*
X0377334Y0191595D01*
X0376247Y0189596D02*
X0367581Y0189596D01*
X0369580Y0187598D02*
X0376169Y0187598D01*
X0377061Y0185599D02*
X0371578Y0185599D01*
X0368689Y0181602D02*
X0358573Y0181602D01*
X0358902Y0182397D02*
X0358179Y0180650D01*
X0356842Y0179313D01*
X0355095Y0178590D01*
X0353204Y0178590D01*
X0351457Y0179313D01*
X0350120Y0180650D01*
X0349397Y0182397D01*
X0349397Y0184288D01*
X0350120Y0186035D01*
X0351457Y0187372D01*
X0353204Y0188095D01*
X0355095Y0188095D01*
X0356842Y0187372D01*
X0358179Y0186035D01*
X0358902Y0184288D01*
X0358902Y0182397D01*
X0358902Y0183601D02*
X0366632Y0183601D01*
X0365257Y0181352D02*
X0363042Y0181352D01*
X0360995Y0180504D01*
X0359429Y0178938D01*
X0358581Y0176891D01*
X0358581Y0174676D01*
X0359429Y0172629D01*
X0360995Y0171063D01*
X0363042Y0170215D01*
X0365257Y0170215D01*
X0367304Y0171063D01*
X0368870Y0172629D01*
X0369718Y0174676D01*
X0369718Y0176891D01*
X0368870Y0178938D01*
X0367304Y0180504D01*
X0365257Y0181352D01*
X0368205Y0179604D02*
X0370746Y0179604D01*
X0369422Y0177605D02*
X0372802Y0177605D01*
X0374859Y0175607D02*
X0369718Y0175607D01*
X0369276Y0173608D02*
X0376916Y0173608D01*
X0378973Y0171610D02*
X0367851Y0171610D01*
X0360448Y0171610D02*
X0347851Y0171610D01*
X0347304Y0171063D02*
X0348870Y0172629D01*
X0349718Y0174676D01*
X0349718Y0176891D01*
X0348870Y0178938D01*
X0347304Y0180504D01*
X0345257Y0181352D01*
X0343042Y0181352D01*
X0340995Y0180504D01*
X0339429Y0178938D01*
X0338581Y0176891D01*
X0338581Y0174676D01*
X0339429Y0172629D01*
X0340995Y0171063D01*
X0343042Y0170215D01*
X0345257Y0170215D01*
X0347304Y0171063D01*
X0349276Y0173608D02*
X0359023Y0173608D01*
X0358581Y0175607D02*
X0349718Y0175607D01*
X0349422Y0177605D02*
X0358877Y0177605D01*
X0360095Y0179604D02*
X0357132Y0179604D01*
X0351167Y0179604D02*
X0348205Y0179604D01*
X0349726Y0181602D02*
X0319203Y0181602D01*
X0319532Y0182397D02*
X0318809Y0180650D01*
X0317472Y0179313D01*
X0315725Y0178590D01*
X0313834Y0178590D01*
X0312087Y0179313D01*
X0310750Y0180650D01*
X0310027Y0182397D01*
X0310027Y0184288D01*
X0310750Y0186035D01*
X0312087Y0187372D01*
X0313834Y0188095D01*
X0315725Y0188095D01*
X0317472Y0187372D01*
X0318809Y0186035D01*
X0319532Y0184288D01*
X0319532Y0182397D01*
X0319532Y0183601D02*
X0349397Y0183601D01*
X0349940Y0185599D02*
X0318989Y0185599D01*
X0316926Y0187598D02*
X0352003Y0187598D01*
X0356296Y0187598D02*
X0362518Y0187598D01*
X0361630Y0188461D02*
X0413009Y0138540D01*
X0412389Y0137044D01*
X0412389Y0135153D01*
X0413113Y0133406D01*
X0414450Y0132069D01*
X0416196Y0131346D01*
X0417142Y0131346D01*
X0417142Y0110508D01*
X0422666Y0104984D01*
X0421628Y0104554D01*
X0419946Y0102872D01*
X0419110Y0100854D01*
X0418275Y0102872D01*
X0416592Y0104554D01*
X0414394Y0105465D01*
X0412015Y0105465D01*
X0409817Y0104554D01*
X0408135Y0102872D01*
X0407299Y0100854D01*
X0406464Y0102872D01*
X0404781Y0104554D01*
X0402583Y0105465D01*
X0400204Y0105465D01*
X0398006Y0104554D01*
X0396324Y0102872D01*
X0395413Y0100674D01*
X0395413Y0098295D01*
X0396324Y0096097D01*
X0398006Y0094414D01*
X0400024Y0093579D01*
X0398006Y0092743D01*
X0396324Y0091061D01*
X0395413Y0088863D01*
X0395413Y0086484D01*
X0396324Y0084286D01*
X0398006Y0082603D01*
X0400204Y0081693D01*
X0402583Y0081693D01*
X0404781Y0082603D01*
X0406464Y0084286D01*
X0407299Y0086303D01*
X0408135Y0084286D01*
X0409817Y0082603D01*
X0412015Y0081693D01*
X0414394Y0081693D01*
X0416592Y0082603D01*
X0418275Y0084286D01*
X0419110Y0086303D01*
X0419946Y0084286D01*
X0421628Y0082603D01*
X0423826Y0081693D01*
X0426205Y0081693D01*
X0428403Y0082603D01*
X0430086Y0084286D01*
X0430921Y0086303D01*
X0431757Y0084286D01*
X0433439Y0082603D01*
X0435637Y0081693D01*
X0438016Y0081693D01*
X0440214Y0082603D01*
X0441897Y0084286D01*
X0442807Y0086484D01*
X0442807Y0088863D01*
X0441897Y0091061D01*
X0440214Y0092743D01*
X0438197Y0093579D01*
X0440214Y0094414D01*
X0441897Y0096097D01*
X0442732Y0098114D01*
X0443568Y0096097D01*
X0445250Y0094414D01*
X0447448Y0093504D01*
X0449827Y0093504D01*
X0452025Y0094414D01*
X0453708Y0096097D01*
X0454543Y0098114D01*
X0455379Y0096097D01*
X0457061Y0094414D01*
X0459259Y0093504D01*
X0461638Y0093504D01*
X0463836Y0094414D01*
X0465519Y0096097D01*
X0466354Y0098114D01*
X0467190Y0096097D01*
X0468872Y0094414D01*
X0471070Y0093504D01*
X0473449Y0093504D01*
X0475647Y0094414D01*
X0477330Y0096097D01*
X0478165Y0098114D01*
X0479001Y0096097D01*
X0480683Y0094414D01*
X0482881Y0093504D01*
X0485260Y0093504D01*
X0487458Y0094414D01*
X0489141Y0096097D01*
X0490051Y0098295D01*
X0490051Y0100674D01*
X0489141Y0102872D01*
X0487796Y0104217D01*
X0489189Y0104209D01*
X0496669Y0104209D01*
X0504937Y0112476D01*
X0657299Y0112476D01*
X0692732Y0147909D01*
X0692732Y0183343D01*
X0696669Y0187280D01*
X0755724Y0187280D01*
X0756628Y0186376D01*
X0756628Y0127321D01*
X0704039Y0127321D01*
X0699262Y0126041D01*
X0694980Y0123568D01*
X0693730Y0122319D01*
X0692732Y0122319D01*
X0692732Y0121321D01*
X0691483Y0120071D01*
X0689010Y0115789D01*
X0689010Y0115789D01*
X0687730Y0111012D01*
X0687730Y0062360D01*
X0656149Y0062360D01*
X0658152Y0064363D01*
X0659588Y0066850D01*
X0660331Y0069623D01*
X0660331Y0072495D01*
X0659588Y0075268D01*
X0658152Y0077755D01*
X0656121Y0079786D01*
X0653635Y0081221D01*
X0650861Y0081965D01*
X0647989Y0081965D01*
X0645216Y0081221D01*
X0642729Y0079786D01*
X0640699Y0077755D01*
X0639263Y0075268D01*
X0638520Y0072495D01*
X0638520Y0069623D01*
X0639263Y0066850D01*
X0640699Y0064363D01*
X0642701Y0062360D01*
X0624653Y0062360D01*
X0626656Y0064363D01*
X0628091Y0066850D01*
X0628835Y0069623D01*
X0628835Y0072495D01*
X0628091Y0075268D01*
X0626656Y0077755D01*
X0624625Y0079786D01*
X0622138Y0081221D01*
X0619365Y0081965D01*
X0616493Y0081965D01*
X0613720Y0081221D01*
X0611233Y0079786D01*
X0609203Y0077755D01*
X0607767Y0075268D01*
X0607024Y0072495D01*
X0607024Y0069623D01*
X0607767Y0066850D01*
X0609203Y0064363D01*
X0611205Y0062360D01*
X0593157Y0062360D01*
X0595160Y0064363D01*
X0596595Y0066850D01*
X0597339Y0069623D01*
X0597339Y0072495D01*
X0596595Y0075268D01*
X0595160Y0077755D01*
X0593129Y0079786D01*
X0590642Y0081221D01*
X0587869Y0081965D01*
X0584997Y0081965D01*
X0582224Y0081221D01*
X0579737Y0079786D01*
X0577706Y0077755D01*
X0576271Y0075268D01*
X0575528Y0072495D01*
X0575528Y0069623D01*
X0576271Y0066850D01*
X0577706Y0064363D01*
X0579709Y0062360D01*
X0561661Y0062360D01*
X0563664Y0064363D01*
X0565099Y0066850D01*
X0565843Y0069623D01*
X0565843Y0072495D01*
X0565099Y0075268D01*
X0563664Y0077755D01*
X0561633Y0079786D01*
X0559146Y0081221D01*
X0556373Y0081965D01*
X0553501Y0081965D01*
X0550728Y0081221D01*
X0548241Y0079786D01*
X0546210Y0077755D01*
X0544775Y0075268D01*
X0544031Y0072495D01*
X0544031Y0069623D01*
X0544775Y0066850D01*
X0546210Y0064363D01*
X0548213Y0062360D01*
X0530165Y0062360D01*
X0532168Y0064363D01*
X0533603Y0066850D01*
X0534346Y0069623D01*
X0534346Y0072495D01*
X0533603Y0075268D01*
X0532168Y0077755D01*
X0530137Y0079786D01*
X0527650Y0081221D01*
X0524877Y0081965D01*
X0522005Y0081965D01*
X0519232Y0081221D01*
X0516745Y0079786D01*
X0514714Y0077755D01*
X0513279Y0075268D01*
X0512535Y0072495D01*
X0512535Y0069623D01*
X0513279Y0066850D01*
X0514714Y0064363D01*
X0516717Y0062360D01*
X0482724Y0062360D01*
X0484333Y0063969D01*
X0485769Y0066456D01*
X0486512Y0069230D01*
X0486512Y0072101D01*
X0485769Y0074875D01*
X0484333Y0077361D01*
X0482302Y0079392D01*
X0479816Y0080828D01*
X0477042Y0081571D01*
X0474171Y0081571D01*
X0471397Y0080828D01*
X0468910Y0079392D01*
X0466880Y0077361D01*
X0465444Y0074875D01*
X0464701Y0072101D01*
X0464701Y0069230D01*
X0465444Y0066456D01*
X0466880Y0063969D01*
X0468489Y0062360D01*
X0416976Y0062360D01*
X0418585Y0063969D01*
X0420021Y0066456D01*
X0420764Y0069230D01*
X0420764Y0072101D01*
X0420021Y0074875D01*
X0418585Y0077361D01*
X0416554Y0079392D01*
X0414068Y0080828D01*
X0411294Y0081571D01*
X0408423Y0081571D01*
X0405649Y0080828D01*
X0403162Y0079392D01*
X0401132Y0077361D01*
X0399696Y0074875D01*
X0398953Y0072101D01*
X0398953Y0069230D01*
X0399696Y0066456D01*
X0401132Y0063969D01*
X0402741Y0062360D01*
X0341188Y0062360D01*
X0343191Y0064363D01*
X0344627Y0066850D01*
X0345370Y0069623D01*
X0345370Y0072495D01*
X0344627Y0075268D01*
X0343191Y0077755D01*
X0341161Y0079786D01*
X0338674Y0081221D01*
X0335900Y0081965D01*
X0333029Y0081965D01*
X0330255Y0081221D01*
X0327768Y0079786D01*
X0325738Y0077755D01*
X0324302Y0075268D01*
X0323559Y0072495D01*
X0323559Y0069623D01*
X0324302Y0066850D01*
X0325738Y0064363D01*
X0327741Y0062360D01*
X0309692Y0062360D01*
X0311695Y0064363D01*
X0313131Y0066850D01*
X0313874Y0069623D01*
X0313874Y0072495D01*
X0313131Y0075268D01*
X0311695Y0077755D01*
X0309665Y0079786D01*
X0307178Y0081221D01*
X0304404Y0081965D01*
X0301533Y0081965D01*
X0298759Y0081221D01*
X0296272Y0079786D01*
X0294242Y0077755D01*
X0292806Y0075268D01*
X0292063Y0072495D01*
X0292063Y0069623D01*
X0292806Y0066850D01*
X0294242Y0064363D01*
X0296245Y0062360D01*
X0287220Y0062360D01*
X0287220Y0136098D01*
X0283283Y0140035D01*
X0281159Y0140035D01*
X0280690Y0140504D01*
X0278704Y0141327D01*
X0279301Y0141520D01*
X0279946Y0141849D01*
X0280532Y0142275D01*
X0281044Y0142787D01*
X0281470Y0143373D01*
X0281798Y0144018D01*
X0282022Y0144706D01*
X0282135Y0145421D01*
X0282135Y0145783D01*
X0277536Y0145783D01*
X0277536Y0145784D01*
X0282135Y0145784D01*
X0282135Y0146145D01*
X0282022Y0146861D01*
X0281798Y0147549D01*
X0281470Y0148194D01*
X0281044Y0148780D01*
X0280532Y0149292D01*
X0279946Y0149718D01*
X0279301Y0150046D01*
X0278613Y0150270D01*
X0277897Y0150383D01*
X0277535Y0150383D01*
X0277173Y0150383D01*
X0276458Y0150270D01*
X0275770Y0150046D01*
X0275125Y0149718D01*
X0274539Y0149292D01*
X0274027Y0148780D01*
X0273601Y0148194D01*
X0273272Y0147549D01*
X0273049Y0146861D01*
X0272935Y0146145D01*
X0272935Y0145784D01*
X0277535Y0145784D01*
X0277535Y0150383D01*
X0277535Y0145784D01*
X0277535Y0145784D01*
X0277535Y0145783D01*
X0272935Y0145783D01*
X0272935Y0145421D01*
X0273049Y0144706D01*
X0273272Y0144018D01*
X0273601Y0143373D01*
X0274027Y0142787D01*
X0274539Y0142275D01*
X0275125Y0141849D01*
X0275770Y0141520D01*
X0276366Y0141327D01*
X0274381Y0140504D01*
X0273912Y0140035D01*
X0261159Y0140035D01*
X0260690Y0140504D01*
X0260016Y0140783D01*
X0260690Y0141063D01*
X0262256Y0142629D01*
X0263104Y0144676D01*
X0263104Y0146891D01*
X0262256Y0148938D01*
X0260690Y0150504D01*
X0258643Y0151352D01*
X0256428Y0151352D01*
X0254381Y0150504D01*
X0252815Y0148938D01*
X0251967Y0146891D01*
X0251967Y0144676D01*
X0252815Y0142629D01*
X0254381Y0141063D01*
X0255055Y0140783D01*
X0254381Y0140504D01*
X0253912Y0140035D01*
X0241788Y0140035D01*
X0241320Y0140504D01*
X0239334Y0141327D01*
X0239931Y0141520D01*
X0240576Y0141849D01*
X0241162Y0142275D01*
X0241674Y0142787D01*
X0242100Y0143373D01*
X0242428Y0144018D01*
X0242652Y0144706D01*
X0242765Y0145421D01*
X0242765Y0145783D01*
X0238165Y0145783D01*
X0233565Y0145783D01*
X0233565Y0145421D01*
X0233679Y0144706D01*
X0233902Y0144018D01*
X0234231Y0143373D01*
X0234657Y0142787D01*
X0235169Y0142275D01*
X0235754Y0141849D01*
X0236400Y0141520D01*
X0236996Y0141327D01*
X0235011Y0140504D01*
X0234542Y0140035D01*
X0221788Y0140035D01*
X0221320Y0140504D01*
X0220645Y0140783D01*
X0221320Y0141063D01*
X0222886Y0142629D01*
X0223734Y0144676D01*
X0223734Y0146891D01*
X0222886Y0148938D01*
X0221320Y0150504D01*
X0219273Y0151352D01*
X0217058Y0151352D01*
X0215011Y0150504D01*
X0213445Y0148938D01*
X0212597Y0146891D01*
X0212597Y0144676D01*
X0213445Y0142629D01*
X0215011Y0141063D01*
X0215685Y0140783D01*
X0215011Y0140504D01*
X0214542Y0140035D01*
X0202418Y0140035D01*
X0201950Y0140504D01*
X0199964Y0141327D01*
X0200561Y0141520D01*
X0201206Y0141849D01*
X0201792Y0142275D01*
X0202304Y0142787D01*
X0202730Y0143373D01*
X0203058Y0144018D01*
X0203282Y0144706D01*
X0203395Y0145421D01*
X0203395Y0145783D01*
X0198795Y0145783D01*
X0194195Y0145783D01*
X0194195Y0145421D01*
X0194309Y0144706D01*
X0194532Y0144018D01*
X0194861Y0143373D01*
X0195287Y0142787D01*
X0195799Y0142275D01*
X0196384Y0141849D01*
X0197029Y0141520D01*
X0197626Y0141327D01*
X0195641Y0140504D01*
X0195172Y0140035D01*
X0182418Y0140035D01*
X0181950Y0140504D01*
X0181275Y0140783D01*
X0181950Y0141063D01*
X0183516Y0142629D01*
X0184364Y0144676D01*
X0184364Y0146891D01*
X0183516Y0148938D01*
X0181950Y0150504D01*
X0179903Y0151352D01*
X0177688Y0151352D01*
X0175641Y0150504D01*
X0174075Y0148938D01*
X0173227Y0146891D01*
X0173227Y0144676D01*
X0174075Y0142629D01*
X0175641Y0141063D01*
X0176315Y0140783D01*
X0175641Y0140504D01*
X0175172Y0140035D01*
X0163048Y0140035D01*
X0162579Y0140504D01*
X0160594Y0141327D01*
X0161191Y0141520D01*
X0161836Y0141849D01*
X0162422Y0142275D01*
X0162934Y0142787D01*
X0163359Y0143373D01*
X0163688Y0144018D01*
X0163912Y0144706D01*
X0164025Y0145421D01*
X0164025Y0145783D01*
X0159425Y0145783D01*
X0154825Y0145783D01*
X0154825Y0145421D01*
X0154938Y0144706D01*
X0155162Y0144018D01*
X0155491Y0143373D01*
X0155917Y0142787D01*
X0156428Y0142275D01*
X0157014Y0141849D01*
X0157659Y0141520D01*
X0158256Y0141327D01*
X0156667Y0140668D01*
X0153362Y0143972D01*
X0153362Y0163657D01*
X0285646Y0163657D01*
X0299446Y0177457D01*
X0299211Y0176891D01*
X0299211Y0174676D01*
X0300059Y0172629D01*
X0301625Y0171063D01*
X0303672Y0170215D01*
X0305887Y0170215D01*
X0307934Y0171063D01*
X0309500Y0172629D01*
X0310348Y0174676D01*
X0310348Y0176891D01*
X0309500Y0178938D01*
X0307934Y0180504D01*
X0305887Y0181352D01*
X0303672Y0181352D01*
X0303106Y0181117D01*
X0332890Y0210902D01*
X0362024Y0210902D01*
X0361630Y0188461D01*
X0361650Y0189596D02*
X0311584Y0189596D01*
X0312633Y0187598D02*
X0309586Y0187598D01*
X0310570Y0185599D02*
X0307587Y0185599D01*
X0305589Y0183601D02*
X0310027Y0183601D01*
X0310356Y0181602D02*
X0303590Y0181602D01*
X0308834Y0179604D02*
X0311797Y0179604D01*
X0310052Y0177605D02*
X0319507Y0177605D01*
X0319211Y0176891D02*
X0319211Y0174676D01*
X0320059Y0172629D01*
X0321625Y0171063D01*
X0323672Y0170215D01*
X0325887Y0170215D01*
X0327934Y0171063D01*
X0329500Y0172629D01*
X0330348Y0174676D01*
X0330348Y0176891D01*
X0329500Y0178938D01*
X0327934Y0180504D01*
X0325887Y0181352D01*
X0323672Y0181352D01*
X0321625Y0180504D01*
X0320059Y0178938D01*
X0319211Y0176891D01*
X0319211Y0175607D02*
X0310348Y0175607D01*
X0309906Y0173608D02*
X0319653Y0173608D01*
X0321078Y0171610D02*
X0308481Y0171610D01*
X0301078Y0171610D02*
X0293598Y0171610D01*
X0295596Y0173608D02*
X0299653Y0173608D01*
X0299211Y0175607D02*
X0297595Y0175607D01*
X0291599Y0169611D02*
X0381030Y0169611D01*
X0383087Y0167613D02*
X0289601Y0167613D01*
X0287602Y0165614D02*
X0385144Y0165614D01*
X0387200Y0163615D02*
X0153362Y0163615D01*
X0153362Y0161617D02*
X0389257Y0161617D01*
X0388138Y0159618D02*
X0391314Y0159618D01*
X0388494Y0159263D02*
X0387157Y0160600D01*
X0385410Y0161324D01*
X0383519Y0161324D01*
X0381772Y0160600D01*
X0380435Y0159263D01*
X0379712Y0157516D01*
X0379712Y0155625D01*
X0380435Y0153879D01*
X0381772Y0152542D01*
X0383519Y0151818D01*
X0385410Y0151818D01*
X0387157Y0152542D01*
X0388494Y0153879D01*
X0389217Y0155625D01*
X0389217Y0157516D01*
X0388494Y0159263D01*
X0389174Y0157620D02*
X0393371Y0157620D01*
X0395428Y0155621D02*
X0389216Y0155621D01*
X0388238Y0153623D02*
X0397485Y0153623D01*
X0399542Y0151624D02*
X0153362Y0151624D01*
X0153362Y0149626D02*
X0156888Y0149626D01*
X0157014Y0149718D02*
X0156428Y0149292D01*
X0155917Y0148780D01*
X0155491Y0148194D01*
X0155162Y0147549D01*
X0154938Y0146861D01*
X0154825Y0146145D01*
X0154825Y0145784D01*
X0159425Y0145784D01*
X0159425Y0150383D01*
X0159063Y0150383D01*
X0158348Y0150270D01*
X0157659Y0150046D01*
X0157014Y0149718D01*
X0159425Y0149626D02*
X0159425Y0149626D01*
X0159425Y0150383D02*
X0159425Y0145784D01*
X0159425Y0145784D01*
X0159425Y0145783D01*
X0159425Y0145784D01*
X0159425Y0145783D02*
X0165488Y0151846D01*
X0200606Y0151846D01*
X0198795Y0150035D01*
X0198795Y0145783D01*
X0198795Y0145784D01*
X0198795Y0150383D01*
X0198433Y0150383D01*
X0197718Y0150270D01*
X0197029Y0150046D01*
X0196384Y0149718D01*
X0195799Y0149292D01*
X0195287Y0148780D01*
X0194861Y0148194D01*
X0194532Y0147549D01*
X0194309Y0146861D01*
X0194195Y0146145D01*
X0194195Y0145784D01*
X0198795Y0145784D01*
X0198795Y0145784D01*
X0198795Y0150383D01*
X0199157Y0150383D01*
X0199872Y0150270D01*
X0200561Y0150046D01*
X0201206Y0149718D01*
X0201792Y0149292D01*
X0202304Y0148780D01*
X0202730Y0148194D01*
X0203058Y0147549D01*
X0203282Y0146861D01*
X0203395Y0146145D01*
X0203395Y0145784D01*
X0198795Y0145784D01*
X0198795Y0145783D01*
X0198795Y0147627D02*
X0198795Y0147627D01*
X0198795Y0149626D02*
X0198795Y0149626D01*
X0196258Y0149626D02*
X0182828Y0149626D01*
X0184059Y0147627D02*
X0194572Y0147627D01*
X0194195Y0145629D02*
X0184364Y0145629D01*
X0183931Y0143630D02*
X0194730Y0143630D01*
X0196811Y0141632D02*
X0182519Y0141632D01*
X0175072Y0141632D02*
X0161410Y0141632D01*
X0163491Y0143630D02*
X0173660Y0143630D01*
X0173227Y0145629D02*
X0164025Y0145629D01*
X0164025Y0145784D02*
X0164025Y0146145D01*
X0163912Y0146861D01*
X0163688Y0147549D01*
X0163359Y0148194D01*
X0162934Y0148780D01*
X0162422Y0149292D01*
X0161836Y0149718D01*
X0161191Y0150046D01*
X0160502Y0150270D01*
X0159787Y0150383D01*
X0159425Y0150383D01*
X0161962Y0149626D02*
X0174763Y0149626D01*
X0173532Y0147627D02*
X0163648Y0147627D01*
X0164025Y0145784D02*
X0159425Y0145784D01*
X0159425Y0147627D02*
X0159425Y0147627D01*
X0155202Y0147627D02*
X0153362Y0147627D01*
X0153362Y0145629D02*
X0154825Y0145629D01*
X0155360Y0143630D02*
X0153704Y0143630D01*
X0155703Y0141632D02*
X0157441Y0141632D01*
X0153362Y0153623D02*
X0380691Y0153623D01*
X0379713Y0155621D02*
X0153362Y0155621D01*
X0153362Y0157620D02*
X0379755Y0157620D01*
X0380791Y0159618D02*
X0153362Y0159618D01*
X0200606Y0151846D02*
X0239976Y0151846D01*
X0238165Y0150035D01*
X0238165Y0145783D01*
X0238165Y0145784D01*
X0238165Y0150383D01*
X0237803Y0150383D01*
X0237088Y0150270D01*
X0236400Y0150046D01*
X0235754Y0149718D01*
X0235169Y0149292D01*
X0234657Y0148780D01*
X0234231Y0148194D01*
X0233902Y0147549D01*
X0233679Y0146861D01*
X0233565Y0146145D01*
X0233565Y0145784D01*
X0238165Y0145784D01*
X0238165Y0145784D01*
X0238165Y0150383D01*
X0238527Y0150383D01*
X0239243Y0150270D01*
X0239931Y0150046D01*
X0240576Y0149718D01*
X0241162Y0149292D01*
X0241674Y0148780D01*
X0242100Y0148194D01*
X0242428Y0147549D01*
X0242652Y0146861D01*
X0242765Y0146145D01*
X0242765Y0145784D01*
X0238165Y0145784D01*
X0238165Y0145783D01*
X0238165Y0147627D02*
X0238165Y0147627D01*
X0238165Y0149626D02*
X0238165Y0149626D01*
X0235628Y0149626D02*
X0222198Y0149626D01*
X0223429Y0147627D02*
X0233942Y0147627D01*
X0233565Y0145629D02*
X0223734Y0145629D01*
X0223301Y0143630D02*
X0234100Y0143630D01*
X0236181Y0141632D02*
X0221889Y0141632D01*
X0214442Y0141632D02*
X0200780Y0141632D01*
X0202861Y0143630D02*
X0213030Y0143630D01*
X0212597Y0145629D02*
X0203395Y0145629D01*
X0203018Y0147627D02*
X0212902Y0147627D01*
X0214133Y0149626D02*
X0201333Y0149626D01*
X0239976Y0151846D02*
X0279346Y0151846D01*
X0277535Y0150035D01*
X0277535Y0145783D01*
X0277535Y0147627D02*
X0277535Y0147627D01*
X0277535Y0149626D02*
X0277535Y0149626D01*
X0274998Y0149626D02*
X0261568Y0149626D01*
X0262799Y0147627D02*
X0273312Y0147627D01*
X0272935Y0145629D02*
X0263104Y0145629D01*
X0262671Y0143630D02*
X0273470Y0143630D01*
X0275551Y0141632D02*
X0261259Y0141632D01*
X0253812Y0141632D02*
X0240150Y0141632D01*
X0242231Y0143630D02*
X0252400Y0143630D01*
X0251967Y0145629D02*
X0242765Y0145629D01*
X0242389Y0147627D02*
X0252272Y0147627D01*
X0253503Y0149626D02*
X0240703Y0149626D01*
X0279346Y0151846D02*
X0326591Y0151846D01*
X0324780Y0150035D01*
X0324780Y0145783D01*
X0324780Y0145784D01*
X0329380Y0145784D01*
X0329380Y0146145D01*
X0329266Y0146861D01*
X0329043Y0147549D01*
X0328714Y0148194D01*
X0328288Y0148780D01*
X0327776Y0149292D01*
X0327190Y0149718D01*
X0326545Y0150046D01*
X0325857Y0150270D01*
X0325142Y0150383D01*
X0324780Y0150383D01*
X0324780Y0145784D01*
X0324779Y0145784D01*
X0324779Y0150383D01*
X0324417Y0150383D01*
X0323702Y0150270D01*
X0323014Y0150046D01*
X0322369Y0149718D01*
X0321783Y0149292D01*
X0321271Y0148780D01*
X0320845Y0148194D01*
X0320517Y0147549D01*
X0320293Y0146861D01*
X0320180Y0146145D01*
X0320180Y0145784D01*
X0324779Y0145784D01*
X0324779Y0145783D01*
X0320180Y0145783D01*
X0320180Y0145421D01*
X0320293Y0144706D01*
X0320517Y0144018D01*
X0320845Y0143373D01*
X0321271Y0142787D01*
X0321783Y0142275D01*
X0322369Y0141849D01*
X0323014Y0141520D01*
X0323611Y0141327D01*
X0321625Y0140504D01*
X0320059Y0138938D01*
X0319211Y0136891D01*
X0319211Y0134676D01*
X0320059Y0132629D01*
X0321625Y0131063D01*
X0323672Y0130215D01*
X0325887Y0130215D01*
X0327934Y0131063D01*
X0329500Y0132629D01*
X0330348Y0134676D01*
X0330348Y0136891D01*
X0329500Y0138938D01*
X0327934Y0140504D01*
X0325948Y0141327D01*
X0326545Y0141520D01*
X0327190Y0141849D01*
X0327776Y0142275D01*
X0328288Y0142787D01*
X0328714Y0143373D01*
X0329043Y0144018D01*
X0329266Y0144706D01*
X0329380Y0145421D01*
X0329380Y0145783D01*
X0324780Y0145783D01*
X0324779Y0147627D02*
X0324780Y0147627D01*
X0324779Y0149626D02*
X0324780Y0149626D01*
X0327317Y0149626D02*
X0340117Y0149626D01*
X0339429Y0148938D02*
X0338581Y0146891D01*
X0338581Y0144676D01*
X0339429Y0142629D01*
X0340995Y0141063D01*
X0341669Y0140783D01*
X0340995Y0140504D01*
X0339429Y0138938D01*
X0338581Y0136891D01*
X0338581Y0134676D01*
X0339429Y0132629D01*
X0340995Y0131063D01*
X0343042Y0130215D01*
X0345257Y0130215D01*
X0347304Y0131063D01*
X0348870Y0132629D01*
X0349718Y0134676D01*
X0349718Y0136891D01*
X0348870Y0138938D01*
X0347304Y0140504D01*
X0346630Y0140783D01*
X0347304Y0141063D01*
X0348870Y0142629D01*
X0349718Y0144676D01*
X0349718Y0146891D01*
X0348870Y0148938D01*
X0347304Y0150504D01*
X0345257Y0151352D01*
X0343042Y0151352D01*
X0340995Y0150504D01*
X0339429Y0148938D01*
X0338886Y0147627D02*
X0329003Y0147627D01*
X0329380Y0145629D02*
X0338581Y0145629D01*
X0339014Y0143630D02*
X0328845Y0143630D01*
X0326764Y0141632D02*
X0340426Y0141632D01*
X0340124Y0139633D02*
X0328805Y0139633D01*
X0330040Y0137635D02*
X0338889Y0137635D01*
X0338581Y0135636D02*
X0330348Y0135636D01*
X0329918Y0133638D02*
X0339011Y0133638D01*
X0340419Y0131639D02*
X0328510Y0131639D01*
X0321049Y0131639D02*
X0308510Y0131639D01*
X0307934Y0131063D02*
X0309500Y0132629D01*
X0310348Y0134676D01*
X0310348Y0136891D01*
X0309500Y0138938D01*
X0307934Y0140504D01*
X0307260Y0140783D01*
X0307934Y0141063D01*
X0309500Y0142629D01*
X0310348Y0144676D01*
X0310348Y0146891D01*
X0309500Y0148938D01*
X0307934Y0150504D01*
X0305887Y0151352D01*
X0303672Y0151352D01*
X0301625Y0150504D01*
X0300059Y0148938D01*
X0299211Y0146891D01*
X0299211Y0144676D01*
X0300059Y0142629D01*
X0301625Y0141063D01*
X0302299Y0140783D01*
X0301625Y0140504D01*
X0300059Y0138938D01*
X0299211Y0136891D01*
X0299211Y0134676D01*
X0300059Y0132629D01*
X0301625Y0131063D01*
X0303672Y0130215D01*
X0305887Y0130215D01*
X0307934Y0131063D01*
X0309918Y0133638D02*
X0319641Y0133638D01*
X0319211Y0135636D02*
X0310348Y0135636D01*
X0310040Y0137635D02*
X0319519Y0137635D01*
X0320754Y0139633D02*
X0308805Y0139633D01*
X0308503Y0141632D02*
X0322795Y0141632D01*
X0320714Y0143630D02*
X0309915Y0143630D01*
X0310348Y0145629D02*
X0320180Y0145629D01*
X0320556Y0147627D02*
X0310043Y0147627D01*
X0308812Y0149626D02*
X0322242Y0149626D01*
X0326591Y0151846D02*
X0358087Y0151846D01*
X0364150Y0145783D01*
X0364150Y0145784D01*
X0364150Y0145784D01*
X0364150Y0150383D01*
X0364512Y0150383D01*
X0365227Y0150270D01*
X0365915Y0150046D01*
X0366561Y0149718D01*
X0367146Y0149292D01*
X0367658Y0148780D01*
X0368084Y0148194D01*
X0368413Y0147549D01*
X0368636Y0146861D01*
X0368750Y0146145D01*
X0368750Y0145784D01*
X0364150Y0145784D01*
X0364150Y0150383D01*
X0363788Y0150383D01*
X0363072Y0150270D01*
X0362384Y0150046D01*
X0361739Y0149718D01*
X0361153Y0149292D01*
X0360641Y0148780D01*
X0360215Y0148194D01*
X0359887Y0147549D01*
X0359663Y0146861D01*
X0359550Y0146145D01*
X0359550Y0145784D01*
X0364149Y0145784D01*
X0364149Y0145783D01*
X0359550Y0145783D01*
X0359550Y0145421D01*
X0359663Y0144706D01*
X0359887Y0144018D01*
X0360215Y0143373D01*
X0360641Y0142787D01*
X0361153Y0142275D01*
X0361739Y0141849D01*
X0362384Y0141520D01*
X0362981Y0141327D01*
X0360995Y0140504D01*
X0359429Y0138938D01*
X0358581Y0136891D01*
X0358581Y0134676D01*
X0359429Y0132629D01*
X0360995Y0131063D01*
X0363042Y0130215D01*
X0365257Y0130215D01*
X0367304Y0131063D01*
X0368870Y0132629D01*
X0369718Y0134676D01*
X0369718Y0136891D01*
X0368870Y0138938D01*
X0367304Y0140504D01*
X0365319Y0141327D01*
X0365915Y0141520D01*
X0366561Y0141849D01*
X0367146Y0142275D01*
X0367658Y0142787D01*
X0368084Y0143373D01*
X0368413Y0144018D01*
X0368636Y0144706D01*
X0368750Y0145421D01*
X0368750Y0145783D01*
X0364150Y0145783D01*
X0385646Y0124287D01*
X0385646Y0080980D01*
X0404750Y0080980D01*
X0405341Y0081571D01*
X0442535Y0081571D01*
X0448638Y0087673D01*
X0460449Y0087673D01*
X0472260Y0087673D01*
X0484071Y0087673D01*
X0494701Y0087673D01*
X0515567Y0108539D01*
X0661236Y0108539D01*
X0704543Y0151846D01*
X0704543Y0171531D01*
X0708480Y0177437D01*
X0692732Y0177605D02*
X0756628Y0177605D01*
X0756628Y0175607D02*
X0692732Y0175607D01*
X0692732Y0173608D02*
X0756628Y0173608D01*
X0756628Y0171610D02*
X0692732Y0171610D01*
X0692732Y0169611D02*
X0756628Y0169611D01*
X0756628Y0167613D02*
X0692732Y0167613D01*
X0692732Y0165614D02*
X0756628Y0165614D01*
X0756628Y0163615D02*
X0692732Y0163615D01*
X0692732Y0161617D02*
X0756628Y0161617D01*
X0756628Y0159618D02*
X0692732Y0159618D01*
X0692732Y0157620D02*
X0756628Y0157620D01*
X0756628Y0155621D02*
X0692732Y0155621D01*
X0692732Y0153623D02*
X0756628Y0153623D01*
X0756628Y0151624D02*
X0692732Y0151624D01*
X0692732Y0149626D02*
X0756628Y0149626D01*
X0756628Y0147627D02*
X0692450Y0147627D01*
X0690452Y0145629D02*
X0756628Y0145629D01*
X0756628Y0143630D02*
X0688453Y0143630D01*
X0686455Y0141632D02*
X0756628Y0141632D01*
X0756628Y0139633D02*
X0684456Y0139633D01*
X0682458Y0137635D02*
X0756628Y0137635D01*
X0756628Y0135636D02*
X0680459Y0135636D01*
X0678461Y0133638D02*
X0756628Y0133638D01*
X0756628Y0131639D02*
X0676462Y0131639D01*
X0674464Y0129641D02*
X0756628Y0129641D01*
X0756628Y0127642D02*
X0672465Y0127642D01*
X0670467Y0125644D02*
X0698575Y0125644D01*
X0699262Y0126041D02*
X0699262Y0126041D01*
X0695113Y0123645D02*
X0668468Y0123645D01*
X0666470Y0121647D02*
X0692732Y0121647D01*
X0691483Y0120071D02*
X0691483Y0120071D01*
X0691239Y0119648D02*
X0664471Y0119648D01*
X0662473Y0117650D02*
X0690085Y0117650D01*
X0688973Y0115651D02*
X0660474Y0115651D01*
X0658476Y0113653D02*
X0688438Y0113653D01*
X0687902Y0111654D02*
X0504115Y0111654D01*
X0502116Y0109656D02*
X0687730Y0109656D01*
X0687730Y0107657D02*
X0500118Y0107657D01*
X0498119Y0105659D02*
X0521770Y0105659D01*
X0522251Y0105858D02*
X0520053Y0104948D01*
X0518371Y0103266D01*
X0517461Y0101068D01*
X0517461Y0098688D01*
X0518371Y0096490D01*
X0520053Y0094808D01*
X0522071Y0093972D01*
X0520053Y0093137D01*
X0518371Y0091455D01*
X0517461Y0089256D01*
X0517461Y0086877D01*
X0518371Y0084679D01*
X0520053Y0082997D01*
X0522251Y0082087D01*
X0524630Y0082087D01*
X0526829Y0082997D01*
X0528511Y0084679D01*
X0529421Y0086877D01*
X0529421Y0089256D01*
X0528511Y0091455D01*
X0526829Y0093137D01*
X0524811Y0093972D01*
X0526829Y0094808D01*
X0528511Y0096490D01*
X0529421Y0098688D01*
X0529421Y0101068D01*
X0528511Y0103266D01*
X0526829Y0104948D01*
X0524630Y0105858D01*
X0522251Y0105858D01*
X0525112Y0105659D02*
X0553266Y0105659D01*
X0553747Y0105858D02*
X0551549Y0104948D01*
X0549867Y0103266D01*
X0548957Y0101068D01*
X0548957Y0098688D01*
X0549867Y0096490D01*
X0551549Y0094808D01*
X0553567Y0093972D01*
X0551549Y0093137D01*
X0549867Y0091455D01*
X0548957Y0089256D01*
X0548957Y0086877D01*
X0549867Y0084679D01*
X0551549Y0082997D01*
X0553747Y0082087D01*
X0556127Y0082087D01*
X0558325Y0082997D01*
X0560007Y0084679D01*
X0560917Y0086877D01*
X0560917Y0089256D01*
X0560007Y0091455D01*
X0558325Y0093137D01*
X0556307Y0093972D01*
X0558325Y0094808D01*
X0560007Y0096490D01*
X0560917Y0098688D01*
X0560917Y0101068D01*
X0560007Y0103266D01*
X0558325Y0104948D01*
X0556127Y0105858D01*
X0553747Y0105858D01*
X0556608Y0105659D02*
X0584762Y0105659D01*
X0585244Y0105858D02*
X0583045Y0104948D01*
X0581363Y0103266D01*
X0580453Y0101068D01*
X0580453Y0098688D01*
X0581363Y0096490D01*
X0583045Y0094808D01*
X0585063Y0093972D01*
X0583045Y0093137D01*
X0581363Y0091455D01*
X0580453Y0089256D01*
X0580453Y0086877D01*
X0581363Y0084679D01*
X0583045Y0082997D01*
X0585244Y0082087D01*
X0587623Y0082087D01*
X0589821Y0082997D01*
X0591503Y0084679D01*
X0592413Y0086877D01*
X0592413Y0089256D01*
X0591503Y0091455D01*
X0589821Y0093137D01*
X0587803Y0093972D01*
X0589821Y0094808D01*
X0591503Y0096490D01*
X0592413Y0098688D01*
X0592413Y0101068D01*
X0591503Y0103266D01*
X0589821Y0104948D01*
X0587623Y0105858D01*
X0585244Y0105858D01*
X0588104Y0105659D02*
X0616258Y0105659D01*
X0616740Y0105858D02*
X0614542Y0104948D01*
X0612859Y0103266D01*
X0611949Y0101068D01*
X0611949Y0098688D01*
X0612859Y0096490D01*
X0614542Y0094808D01*
X0616559Y0093972D01*
X0614542Y0093137D01*
X0612859Y0091455D01*
X0611949Y0089256D01*
X0611949Y0086877D01*
X0612859Y0084679D01*
X0614542Y0082997D01*
X0616740Y0082087D01*
X0619119Y0082087D01*
X0621317Y0082997D01*
X0622999Y0084679D01*
X0623909Y0086877D01*
X0623909Y0089256D01*
X0622999Y0091455D01*
X0621317Y0093137D01*
X0619299Y0093972D01*
X0621317Y0094808D01*
X0622999Y0096490D01*
X0623909Y0098688D01*
X0623909Y0101068D01*
X0622999Y0103266D01*
X0621317Y0104948D01*
X0619119Y0105858D01*
X0616740Y0105858D01*
X0619601Y0105659D02*
X0647754Y0105659D01*
X0648236Y0105858D02*
X0646038Y0104948D01*
X0644355Y0103266D01*
X0643445Y0101068D01*
X0643445Y0098688D01*
X0644355Y0096490D01*
X0646038Y0094808D01*
X0648055Y0093972D01*
X0646038Y0093137D01*
X0644355Y0091455D01*
X0643445Y0089256D01*
X0643445Y0086877D01*
X0644355Y0084679D01*
X0646038Y0082997D01*
X0648236Y0082087D01*
X0650615Y0082087D01*
X0652813Y0082997D01*
X0654495Y0084679D01*
X0655405Y0086877D01*
X0655405Y0089256D01*
X0654495Y0091455D01*
X0652813Y0093137D01*
X0650795Y0093972D01*
X0652813Y0094808D01*
X0654495Y0096490D01*
X0655405Y0098688D01*
X0655405Y0101068D01*
X0654495Y0103266D01*
X0652813Y0104948D01*
X0650615Y0105858D01*
X0648236Y0105858D01*
X0651097Y0105659D02*
X0687730Y0105659D01*
X0687730Y0103660D02*
X0654100Y0103660D01*
X0655159Y0101662D02*
X0687730Y0101662D01*
X0687730Y0099663D02*
X0655405Y0099663D01*
X0654981Y0097665D02*
X0687730Y0097665D01*
X0687730Y0095666D02*
X0653671Y0095666D01*
X0651531Y0093668D02*
X0687730Y0093668D01*
X0687730Y0091669D02*
X0654280Y0091669D01*
X0655234Y0089671D02*
X0687730Y0089671D01*
X0687730Y0087672D02*
X0655405Y0087672D01*
X0654907Y0085674D02*
X0687730Y0085674D01*
X0687730Y0083675D02*
X0653491Y0083675D01*
X0651936Y0081677D02*
X0687730Y0081677D01*
X0687730Y0079678D02*
X0656229Y0079678D01*
X0658195Y0077680D02*
X0687730Y0077680D01*
X0687730Y0075681D02*
X0659349Y0075681D01*
X0660012Y0073682D02*
X0687730Y0073682D01*
X0687730Y0071684D02*
X0660331Y0071684D01*
X0660331Y0069685D02*
X0687730Y0069685D01*
X0687730Y0067687D02*
X0659812Y0067687D01*
X0658917Y0065688D02*
X0687730Y0065688D01*
X0687730Y0063690D02*
X0657479Y0063690D01*
X0641372Y0063690D02*
X0625983Y0063690D01*
X0627421Y0065688D02*
X0639933Y0065688D01*
X0639039Y0067687D02*
X0628316Y0067687D01*
X0628835Y0069685D02*
X0638520Y0069685D01*
X0638520Y0071684D02*
X0628835Y0071684D01*
X0628516Y0073682D02*
X0638838Y0073682D01*
X0639501Y0075681D02*
X0627853Y0075681D01*
X0626699Y0077680D02*
X0640655Y0077680D01*
X0642621Y0079678D02*
X0624733Y0079678D01*
X0620440Y0081677D02*
X0646915Y0081677D01*
X0645360Y0083675D02*
X0621995Y0083675D01*
X0623411Y0085674D02*
X0643944Y0085674D01*
X0643445Y0087672D02*
X0623909Y0087672D01*
X0623738Y0089671D02*
X0643616Y0089671D01*
X0644570Y0091669D02*
X0622784Y0091669D01*
X0620035Y0093668D02*
X0647319Y0093668D01*
X0645180Y0095666D02*
X0622175Y0095666D01*
X0623485Y0097665D02*
X0643869Y0097665D01*
X0643445Y0099663D02*
X0623909Y0099663D01*
X0623663Y0101662D02*
X0643691Y0101662D01*
X0644750Y0103660D02*
X0622604Y0103660D01*
X0613254Y0103660D02*
X0591108Y0103660D01*
X0592167Y0101662D02*
X0612195Y0101662D01*
X0611949Y0099663D02*
X0592413Y0099663D01*
X0591989Y0097665D02*
X0612373Y0097665D01*
X0613684Y0095666D02*
X0590679Y0095666D01*
X0588539Y0093668D02*
X0615823Y0093668D01*
X0613074Y0091669D02*
X0591288Y0091669D01*
X0592242Y0089671D02*
X0612120Y0089671D01*
X0611949Y0087672D02*
X0592413Y0087672D01*
X0591915Y0085674D02*
X0612447Y0085674D01*
X0613864Y0083675D02*
X0590499Y0083675D01*
X0588944Y0081677D02*
X0615418Y0081677D01*
X0611125Y0079678D02*
X0593237Y0079678D01*
X0595203Y0077680D02*
X0609159Y0077680D01*
X0608005Y0075681D02*
X0596357Y0075681D01*
X0597020Y0073682D02*
X0607342Y0073682D01*
X0607024Y0071684D02*
X0597339Y0071684D01*
X0597339Y0069685D02*
X0607024Y0069685D01*
X0607542Y0067687D02*
X0596820Y0067687D01*
X0595925Y0065688D02*
X0608437Y0065688D01*
X0609876Y0063690D02*
X0594487Y0063690D01*
X0578379Y0063690D02*
X0562991Y0063690D01*
X0564429Y0065688D02*
X0576941Y0065688D01*
X0576046Y0067687D02*
X0565324Y0067687D01*
X0565843Y0069685D02*
X0575528Y0069685D01*
X0575528Y0071684D02*
X0565843Y0071684D01*
X0565524Y0073682D02*
X0575846Y0073682D01*
X0576509Y0075681D02*
X0564861Y0075681D01*
X0563707Y0077680D02*
X0577663Y0077680D01*
X0579629Y0079678D02*
X0561741Y0079678D01*
X0557448Y0081677D02*
X0583922Y0081677D01*
X0582368Y0083675D02*
X0559003Y0083675D01*
X0560419Y0085674D02*
X0580951Y0085674D01*
X0580453Y0087672D02*
X0560917Y0087672D01*
X0560746Y0089671D02*
X0580624Y0089671D01*
X0581578Y0091669D02*
X0559792Y0091669D01*
X0557043Y0093668D02*
X0584327Y0093668D01*
X0582187Y0095666D02*
X0559183Y0095666D01*
X0560493Y0097665D02*
X0580877Y0097665D01*
X0580453Y0099663D02*
X0560917Y0099663D01*
X0560671Y0101662D02*
X0580699Y0101662D01*
X0581758Y0103660D02*
X0559612Y0103660D01*
X0550262Y0103660D02*
X0528116Y0103660D01*
X0529175Y0101662D02*
X0549203Y0101662D01*
X0548957Y0099663D02*
X0529421Y0099663D01*
X0528997Y0097665D02*
X0549381Y0097665D01*
X0550691Y0095666D02*
X0527687Y0095666D01*
X0525547Y0093668D02*
X0552831Y0093668D01*
X0550082Y0091669D02*
X0528296Y0091669D01*
X0529250Y0089671D02*
X0549128Y0089671D01*
X0548957Y0087672D02*
X0529421Y0087672D01*
X0528923Y0085674D02*
X0549455Y0085674D01*
X0550871Y0083675D02*
X0527506Y0083675D01*
X0525952Y0081677D02*
X0552426Y0081677D01*
X0548133Y0079678D02*
X0530245Y0079678D01*
X0532211Y0077680D02*
X0546167Y0077680D01*
X0545013Y0075681D02*
X0533365Y0075681D01*
X0534028Y0073682D02*
X0544350Y0073682D01*
X0544031Y0071684D02*
X0534346Y0071684D01*
X0534346Y0069685D02*
X0544031Y0069685D01*
X0544550Y0067687D02*
X0533828Y0067687D01*
X0532933Y0065688D02*
X0545445Y0065688D01*
X0546883Y0063690D02*
X0531495Y0063690D01*
X0515387Y0063690D02*
X0484054Y0063690D01*
X0485325Y0065688D02*
X0513949Y0065688D01*
X0513054Y0067687D02*
X0486098Y0067687D01*
X0486512Y0069685D02*
X0512535Y0069685D01*
X0512535Y0071684D02*
X0486512Y0071684D01*
X0486088Y0073682D02*
X0512854Y0073682D01*
X0513517Y0075681D02*
X0485303Y0075681D01*
X0484015Y0077680D02*
X0514671Y0077680D01*
X0516637Y0079678D02*
X0481807Y0079678D01*
X0482897Y0082785D02*
X0483676Y0082661D01*
X0484067Y0082661D01*
X0484067Y0087669D01*
X0484075Y0087669D01*
X0484075Y0082661D01*
X0484465Y0082661D01*
X0485244Y0082785D01*
X0485995Y0083029D01*
X0486698Y0083387D01*
X0487336Y0083850D01*
X0487894Y0084408D01*
X0488357Y0085046D01*
X0488715Y0085749D01*
X0488959Y0086500D01*
X0489083Y0087279D01*
X0489083Y0087669D01*
X0484075Y0087669D01*
X0484075Y0087677D01*
X0489083Y0087677D01*
X0489083Y0088068D01*
X0488959Y0088847D01*
X0488715Y0089597D01*
X0488357Y0090300D01*
X0487894Y0090938D01*
X0487336Y0091496D01*
X0486698Y0091960D01*
X0485995Y0092318D01*
X0485244Y0092562D01*
X0484465Y0092685D01*
X0484075Y0092685D01*
X0484075Y0087677D01*
X0484067Y0087677D01*
X0484067Y0087669D01*
X0479059Y0087669D01*
X0479059Y0087279D01*
X0479182Y0086500D01*
X0479426Y0085749D01*
X0479784Y0085046D01*
X0480248Y0084408D01*
X0480806Y0083850D01*
X0481444Y0083387D01*
X0482147Y0083029D01*
X0482897Y0082785D01*
X0484067Y0083675D02*
X0484075Y0083675D01*
X0484067Y0085674D02*
X0484075Y0085674D01*
X0484075Y0087672D02*
X0517461Y0087672D01*
X0517632Y0089671D02*
X0488678Y0089671D01*
X0487098Y0091669D02*
X0518586Y0091669D01*
X0521335Y0093668D02*
X0485656Y0093668D01*
X0484067Y0092685D02*
X0483676Y0092685D01*
X0482897Y0092562D01*
X0482147Y0092318D01*
X0481444Y0091960D01*
X0480806Y0091496D01*
X0480248Y0090938D01*
X0479784Y0090300D01*
X0479426Y0089597D01*
X0479182Y0088847D01*
X0479059Y0088068D01*
X0479059Y0087677D01*
X0484067Y0087677D01*
X0484067Y0092685D01*
X0484067Y0091669D02*
X0484075Y0091669D01*
X0484067Y0089671D02*
X0484075Y0089671D01*
X0484067Y0087672D02*
X0472264Y0087672D01*
X0472264Y0087669D02*
X0472264Y0087677D01*
X0477272Y0087677D01*
X0477272Y0088068D01*
X0477148Y0088847D01*
X0476904Y0089597D01*
X0476546Y0090300D01*
X0476083Y0090938D01*
X0475525Y0091496D01*
X0474887Y0091960D01*
X0474184Y0092318D01*
X0473433Y0092562D01*
X0472654Y0092685D01*
X0472264Y0092685D01*
X0472264Y0087677D01*
X0472256Y0087677D01*
X0472256Y0087669D01*
X0472264Y0087669D01*
X0472264Y0082661D01*
X0472654Y0082661D01*
X0473433Y0082785D01*
X0474184Y0083029D01*
X0474887Y0083387D01*
X0475525Y0083850D01*
X0476083Y0084408D01*
X0476546Y0085046D01*
X0476904Y0085749D01*
X0477148Y0086500D01*
X0477272Y0087279D01*
X0477272Y0087669D01*
X0472264Y0087669D01*
X0472256Y0087669D02*
X0472256Y0082661D01*
X0471865Y0082661D01*
X0471086Y0082785D01*
X0470336Y0083029D01*
X0469633Y0083387D01*
X0468995Y0083850D01*
X0468437Y0084408D01*
X0467973Y0085046D01*
X0467615Y0085749D01*
X0467371Y0086500D01*
X0467248Y0087279D01*
X0467248Y0087669D01*
X0472256Y0087669D01*
X0472256Y0087672D02*
X0460453Y0087672D01*
X0460453Y0087669D02*
X0460453Y0087677D01*
X0465461Y0087677D01*
X0465461Y0088068D01*
X0465337Y0088847D01*
X0465093Y0089597D01*
X0464735Y0090300D01*
X0464272Y0090938D01*
X0463714Y0091496D01*
X0463076Y0091960D01*
X0462373Y0092318D01*
X0461622Y0092562D01*
X0460843Y0092685D01*
X0460453Y0092685D01*
X0460453Y0087677D01*
X0460445Y0087677D01*
X0460445Y0087669D01*
X0460453Y0087669D01*
X0465461Y0087669D01*
X0465461Y0087279D01*
X0465337Y0086500D01*
X0465093Y0085749D01*
X0464735Y0085046D01*
X0464272Y0084408D01*
X0463714Y0083850D01*
X0463076Y0083387D01*
X0462373Y0083029D01*
X0461622Y0082785D01*
X0460843Y0082661D01*
X0460453Y0082661D01*
X0460453Y0087669D01*
X0460445Y0087669D02*
X0460445Y0082661D01*
X0460054Y0082661D01*
X0459275Y0082785D01*
X0458525Y0083029D01*
X0457822Y0083387D01*
X0457184Y0083850D01*
X0456626Y0084408D01*
X0456162Y0085046D01*
X0455804Y0085749D01*
X0455560Y0086500D01*
X0455437Y0087279D01*
X0455437Y0087669D01*
X0460445Y0087669D01*
X0460445Y0087672D02*
X0448642Y0087672D01*
X0448642Y0087669D02*
X0448642Y0087677D01*
X0453650Y0087677D01*
X0453650Y0088068D01*
X0453526Y0088847D01*
X0453282Y0089597D01*
X0452924Y0090300D01*
X0452461Y0090938D01*
X0451903Y0091496D01*
X0451265Y0091960D01*
X0450562Y0092318D01*
X0449811Y0092562D01*
X0449032Y0092685D01*
X0448642Y0092685D01*
X0448642Y0087677D01*
X0448634Y0087677D01*
X0448634Y0087669D01*
X0448642Y0087669D01*
X0453650Y0087669D01*
X0453650Y0087279D01*
X0453526Y0086500D01*
X0453282Y0085749D01*
X0452924Y0085046D01*
X0452461Y0084408D01*
X0451903Y0083850D01*
X0451265Y0083387D01*
X0450562Y0083029D01*
X0449811Y0082785D01*
X0449032Y0082661D01*
X0448642Y0082661D01*
X0448642Y0087669D01*
X0448634Y0087669D02*
X0448634Y0082661D01*
X0448243Y0082661D01*
X0447464Y0082785D01*
X0446714Y0083029D01*
X0446011Y0083387D01*
X0445373Y0083850D01*
X0444815Y0084408D01*
X0444351Y0085046D01*
X0443993Y0085749D01*
X0443749Y0086500D01*
X0443626Y0087279D01*
X0443626Y0087669D01*
X0448634Y0087669D01*
X0448634Y0087672D02*
X0442807Y0087672D01*
X0443626Y0087677D02*
X0448634Y0087677D01*
X0448634Y0092685D01*
X0448243Y0092685D01*
X0447464Y0092562D01*
X0446714Y0092318D01*
X0446011Y0091960D01*
X0445373Y0091496D01*
X0444815Y0090938D01*
X0444351Y0090300D01*
X0443993Y0089597D01*
X0443749Y0088847D01*
X0443626Y0088068D01*
X0443626Y0087677D01*
X0444031Y0089671D02*
X0442472Y0089671D01*
X0441288Y0091669D02*
X0445611Y0091669D01*
X0447053Y0093668D02*
X0438411Y0093668D01*
X0441466Y0095666D02*
X0443998Y0095666D01*
X0442918Y0097665D02*
X0442546Y0097665D01*
X0448634Y0091669D02*
X0448642Y0091669D01*
X0448634Y0089671D02*
X0448642Y0089671D01*
X0451665Y0091669D02*
X0457422Y0091669D01*
X0457184Y0091496D02*
X0456626Y0090938D01*
X0456162Y0090300D01*
X0455804Y0089597D01*
X0455560Y0088847D01*
X0455437Y0088068D01*
X0455437Y0087677D01*
X0460445Y0087677D01*
X0460445Y0092685D01*
X0460054Y0092685D01*
X0459275Y0092562D01*
X0458525Y0092318D01*
X0457822Y0091960D01*
X0457184Y0091496D01*
X0455842Y0089671D02*
X0453245Y0089671D01*
X0453244Y0085674D02*
X0455843Y0085674D01*
X0457425Y0083675D02*
X0451661Y0083675D01*
X0448642Y0083675D02*
X0448634Y0083675D01*
X0448634Y0085674D02*
X0448642Y0085674D01*
X0445614Y0083675D02*
X0441286Y0083675D01*
X0442472Y0085674D02*
X0444032Y0085674D01*
X0450222Y0093668D02*
X0458864Y0093668D01*
X0460445Y0091669D02*
X0460453Y0091669D01*
X0460445Y0089671D02*
X0460453Y0089671D01*
X0463476Y0091669D02*
X0469233Y0091669D01*
X0468995Y0091496D02*
X0468437Y0090938D01*
X0467973Y0090300D01*
X0467615Y0089597D01*
X0467371Y0088847D01*
X0467248Y0088068D01*
X0467248Y0087677D01*
X0472256Y0087677D01*
X0472256Y0092685D01*
X0471865Y0092685D01*
X0471086Y0092562D01*
X0470336Y0092318D01*
X0469633Y0091960D01*
X0468995Y0091496D01*
X0467653Y0089671D02*
X0465056Y0089671D01*
X0465055Y0085674D02*
X0467654Y0085674D01*
X0469236Y0083675D02*
X0463472Y0083675D01*
X0460453Y0083675D02*
X0460445Y0083675D01*
X0460445Y0085674D02*
X0460453Y0085674D01*
X0467198Y0077680D02*
X0418267Y0077680D01*
X0419555Y0075681D02*
X0465909Y0075681D01*
X0465125Y0073682D02*
X0420340Y0073682D01*
X0420764Y0071684D02*
X0464701Y0071684D01*
X0464701Y0069685D02*
X0420764Y0069685D01*
X0420350Y0067687D02*
X0465114Y0067687D01*
X0465887Y0065688D02*
X0419577Y0065688D01*
X0418306Y0063690D02*
X0467159Y0063690D01*
X0469406Y0079678D02*
X0416059Y0079678D01*
X0417664Y0083675D02*
X0420556Y0083675D01*
X0419371Y0085674D02*
X0418849Y0085674D01*
X0429475Y0083675D02*
X0432368Y0083675D01*
X0431182Y0085674D02*
X0430660Y0085674D01*
X0419445Y0101662D02*
X0418776Y0101662D01*
X0417486Y0103660D02*
X0420734Y0103660D01*
X0421991Y0105659D02*
X0336136Y0105659D01*
X0335654Y0105858D02*
X0337852Y0104948D01*
X0339534Y0103266D01*
X0340445Y0101068D01*
X0340445Y0098688D01*
X0339534Y0096490D01*
X0337852Y0094808D01*
X0335835Y0093972D01*
X0337852Y0093137D01*
X0339534Y0091455D01*
X0340445Y0089256D01*
X0340445Y0086877D01*
X0339534Y0084679D01*
X0337852Y0082997D01*
X0335654Y0082087D01*
X0333275Y0082087D01*
X0331077Y0082997D01*
X0329395Y0084679D01*
X0328484Y0086877D01*
X0328484Y0089256D01*
X0329395Y0091455D01*
X0331077Y0093137D01*
X0333094Y0093972D01*
X0331077Y0094808D01*
X0329395Y0096490D01*
X0328484Y0098688D01*
X0328484Y0101068D01*
X0329395Y0103266D01*
X0331077Y0104948D01*
X0333275Y0105858D01*
X0335654Y0105858D01*
X0332793Y0105659D02*
X0304640Y0105659D01*
X0304158Y0105858D02*
X0301779Y0105858D01*
X0299581Y0104948D01*
X0297899Y0103266D01*
X0296988Y0101068D01*
X0296988Y0098688D01*
X0297899Y0096490D01*
X0299581Y0094808D01*
X0301598Y0093972D01*
X0299581Y0093137D01*
X0297899Y0091455D01*
X0296988Y0089256D01*
X0296988Y0086877D01*
X0297899Y0084679D01*
X0299581Y0082997D01*
X0301779Y0082087D01*
X0304158Y0082087D01*
X0306356Y0082997D01*
X0308038Y0084679D01*
X0308949Y0086877D01*
X0308949Y0089256D01*
X0308038Y0091455D01*
X0306356Y0093137D01*
X0304339Y0093972D01*
X0306356Y0094808D01*
X0308038Y0096490D01*
X0308949Y0098688D01*
X0308949Y0101068D01*
X0308038Y0103266D01*
X0306356Y0104948D01*
X0304158Y0105858D01*
X0301297Y0105659D02*
X0287220Y0105659D01*
X0287220Y0107657D02*
X0419992Y0107657D01*
X0417994Y0109656D02*
X0287220Y0109656D01*
X0287220Y0111654D02*
X0301381Y0111654D01*
X0301512Y0111523D02*
X0303632Y0110645D01*
X0305927Y0110645D01*
X0308047Y0111523D01*
X0309670Y0113146D01*
X0309780Y0113411D01*
X0309889Y0113146D01*
X0311512Y0111523D01*
X0313632Y0110645D01*
X0315927Y0110645D01*
X0318047Y0111523D01*
X0319670Y0113146D01*
X0319780Y0113411D01*
X0319889Y0113146D01*
X0321512Y0111523D01*
X0323632Y0110645D01*
X0325927Y0110645D01*
X0328047Y0111523D01*
X0329670Y0113146D01*
X0330548Y0115266D01*
X0330548Y0117561D01*
X0329670Y0119681D01*
X0328047Y0121304D01*
X0325927Y0122182D01*
X0323632Y0122182D01*
X0321512Y0121304D01*
X0319889Y0119681D01*
X0319780Y0119416D01*
X0319670Y0119681D01*
X0318047Y0121304D01*
X0315927Y0122182D01*
X0313632Y0122182D01*
X0311512Y0121304D01*
X0309889Y0119681D01*
X0309780Y0119416D01*
X0309670Y0119681D01*
X0308047Y0121304D01*
X0305927Y0122182D01*
X0303632Y0122182D01*
X0301512Y0121304D01*
X0299889Y0119681D01*
X0299011Y0117561D01*
X0299011Y0115266D01*
X0299889Y0113146D01*
X0301512Y0111523D01*
X0299679Y0113653D02*
X0287220Y0113653D01*
X0287220Y0115651D02*
X0299011Y0115651D01*
X0299048Y0117650D02*
X0287220Y0117650D01*
X0287220Y0119648D02*
X0299876Y0119648D01*
X0302340Y0121647D02*
X0287220Y0121647D01*
X0287220Y0123645D02*
X0417142Y0123645D01*
X0417142Y0121647D02*
X0366589Y0121647D01*
X0367417Y0121304D02*
X0365297Y0122182D01*
X0363002Y0122182D01*
X0360882Y0121304D01*
X0359259Y0119681D01*
X0359150Y0119416D01*
X0359040Y0119681D01*
X0357417Y0121304D01*
X0355297Y0122182D01*
X0353002Y0122182D01*
X0350882Y0121304D01*
X0349259Y0119681D01*
X0349150Y0119416D01*
X0349040Y0119681D01*
X0347417Y0121304D01*
X0345297Y0122182D01*
X0343002Y0122182D01*
X0340882Y0121304D01*
X0339259Y0119681D01*
X0338381Y0117561D01*
X0338381Y0115266D01*
X0339259Y0113146D01*
X0340882Y0111523D01*
X0343002Y0110645D01*
X0345297Y0110645D01*
X0347417Y0111523D01*
X0349040Y0113146D01*
X0349150Y0113411D01*
X0349259Y0113146D01*
X0350882Y0111523D01*
X0353002Y0110645D01*
X0355297Y0110645D01*
X0357417Y0111523D01*
X0359040Y0113146D01*
X0359150Y0113411D01*
X0359259Y0113146D01*
X0360882Y0111523D01*
X0363002Y0110645D01*
X0365297Y0110645D01*
X0367417Y0111523D01*
X0369040Y0113146D01*
X0369918Y0115266D01*
X0369918Y0117561D01*
X0369040Y0119681D01*
X0367417Y0121304D01*
X0369053Y0119648D02*
X0417142Y0119648D01*
X0417142Y0117650D02*
X0369881Y0117650D01*
X0369918Y0115651D02*
X0417142Y0115651D01*
X0417142Y0113653D02*
X0369250Y0113653D01*
X0367548Y0111654D02*
X0417142Y0111654D01*
X0421079Y0113653D02*
X0481282Y0113653D01*
X0479727Y0111654D02*
X0421901Y0111654D01*
X0423899Y0109656D02*
X0479318Y0109656D01*
X0480134Y0116413D02*
X0491945Y0116413D01*
X0495882Y0120350D01*
X0641551Y0120350D01*
X0653362Y0132161D01*
X0653362Y0151846D01*
X0672260Y0170744D01*
X0672260Y0175469D01*
X0641551Y0175469D01*
X0637614Y0179406D01*
X0610055Y0179406D01*
X0606118Y0175469D01*
X0558874Y0175469D01*
X0551787Y0182555D01*
X0551787Y0191217D01*
X0566748Y0195592D02*
X0571400Y0195592D01*
X0570099Y0197590D02*
X0566748Y0197590D01*
X0566748Y0199589D02*
X0569869Y0199589D01*
X0570512Y0201587D02*
X0566748Y0201587D01*
X0577845Y0195592D02*
X0579274Y0195592D01*
X0554086Y0217896D02*
X0552339Y0217172D01*
X0550448Y0217172D01*
X0548701Y0217896D01*
X0547365Y0219233D01*
X0546641Y0220980D01*
X0546641Y0222871D01*
X0547365Y0224617D01*
X0548701Y0225954D01*
X0550448Y0226678D01*
X0552339Y0226678D01*
X0554086Y0225954D01*
X0555423Y0224617D01*
X0556146Y0222871D01*
X0556146Y0220980D01*
X0555423Y0219233D01*
X0554086Y0217896D01*
X0553312Y0217575D02*
X0649378Y0217575D01*
X0649425Y0219574D02*
X0555564Y0219574D01*
X0556146Y0221572D02*
X0569435Y0221572D01*
X0569568Y0221439D02*
X0571314Y0220716D01*
X0573205Y0220716D01*
X0574952Y0221439D01*
X0576289Y0222776D01*
X0577013Y0224523D01*
X0577013Y0226414D01*
X0576289Y0228161D01*
X0574952Y0229498D01*
X0573205Y0230221D01*
X0571314Y0230221D01*
X0569568Y0229498D01*
X0568231Y0228161D01*
X0567507Y0226414D01*
X0567507Y0224523D01*
X0568231Y0222776D01*
X0569568Y0221439D01*
X0567902Y0223571D02*
X0555856Y0223571D01*
X0554471Y0225569D02*
X0567507Y0225569D01*
X0567985Y0227568D02*
X0531315Y0227568D01*
X0531315Y0229566D02*
X0569733Y0229566D01*
X0574786Y0229566D02*
X0579576Y0229566D01*
X0579410Y0229498D02*
X0578073Y0228161D01*
X0577350Y0226414D01*
X0577350Y0224523D01*
X0578073Y0222776D01*
X0579410Y0221439D01*
X0581157Y0220716D01*
X0583048Y0220716D01*
X0584795Y0221439D01*
X0586132Y0222776D01*
X0586855Y0224523D01*
X0586855Y0226414D01*
X0586132Y0228161D01*
X0584795Y0229498D01*
X0583048Y0230221D01*
X0581157Y0230221D01*
X0579410Y0229498D01*
X0577828Y0227568D02*
X0576535Y0227568D01*
X0577013Y0225569D02*
X0577350Y0225569D01*
X0577744Y0223571D02*
X0576618Y0223571D01*
X0575085Y0221572D02*
X0579277Y0221572D01*
X0584928Y0221572D02*
X0648690Y0221572D01*
X0648609Y0223571D02*
X0586461Y0223571D01*
X0586855Y0225569D02*
X0589900Y0225569D01*
X0590212Y0225440D02*
X0588465Y0226164D01*
X0587128Y0227501D01*
X0586405Y0229248D01*
X0586405Y0231138D01*
X0587128Y0232885D01*
X0588465Y0234222D01*
X0590212Y0234946D01*
X0592103Y0234946D01*
X0593850Y0234222D01*
X0595187Y0232885D01*
X0595910Y0231138D01*
X0595910Y0229248D01*
X0595187Y0227501D01*
X0593850Y0226164D01*
X0592103Y0225440D01*
X0590212Y0225440D01*
X0592415Y0225569D02*
X0649425Y0225569D01*
X0649425Y0227568D02*
X0595214Y0227568D01*
X0595910Y0229566D02*
X0648640Y0229566D01*
X0648623Y0231565D02*
X0595734Y0231565D01*
X0594508Y0233563D02*
X0649425Y0233563D01*
X0649425Y0235562D02*
X0531315Y0235562D01*
X0531315Y0237560D02*
X0649425Y0237560D01*
X0649425Y0239559D02*
X0531315Y0239559D01*
X0531315Y0241557D02*
X0649425Y0241557D01*
X0649425Y0243556D02*
X0531315Y0243556D01*
X0531315Y0245554D02*
X0649425Y0245554D01*
X0649425Y0247553D02*
X0531315Y0247553D01*
X0531315Y0249551D02*
X0649425Y0249551D01*
X0649425Y0251550D02*
X0531315Y0251550D01*
X0531315Y0253548D02*
X0649425Y0253548D01*
X0649425Y0255547D02*
X0531315Y0255547D01*
X0531315Y0257546D02*
X0649425Y0257546D01*
X0649425Y0259544D02*
X0531315Y0259544D01*
X0531315Y0261543D02*
X0649425Y0261543D01*
X0649425Y0263541D02*
X0531315Y0263541D01*
X0531315Y0265540D02*
X0649425Y0265540D01*
X0649425Y0267538D02*
X0531315Y0267538D01*
X0531315Y0269537D02*
X0649425Y0269537D01*
X0649425Y0271535D02*
X0531315Y0271535D01*
X0531315Y0273534D02*
X0649425Y0273534D01*
X0649425Y0275532D02*
X0531315Y0275532D01*
X0531315Y0277531D02*
X0649425Y0277531D01*
X0649425Y0279529D02*
X0531315Y0279529D01*
X0531315Y0281528D02*
X0649425Y0281528D01*
X0649425Y0283526D02*
X0531315Y0283526D01*
X0531315Y0285525D02*
X0649425Y0285525D01*
X0649425Y0287523D02*
X0529496Y0287523D01*
X0527498Y0289522D02*
X0649425Y0289522D01*
X0649425Y0291520D02*
X0525499Y0291520D01*
X0523501Y0293519D02*
X0649425Y0293519D01*
X0649425Y0295517D02*
X0521502Y0295517D01*
X0519504Y0297516D02*
X0649425Y0297516D01*
X0649425Y0299514D02*
X0517505Y0299514D01*
X0509691Y0295517D02*
X0444701Y0295517D01*
X0444701Y0293519D02*
X0511690Y0293519D01*
X0513688Y0291520D02*
X0444701Y0291520D01*
X0444821Y0289522D02*
X0515687Y0289522D01*
X0517685Y0287523D02*
X0489761Y0287523D01*
X0490769Y0285525D02*
X0519684Y0285525D01*
X0520263Y0283526D02*
X0490771Y0283526D01*
X0489765Y0281528D02*
X0520623Y0281528D01*
X0522108Y0279529D02*
X0486309Y0279529D01*
X0488308Y0277531D02*
X0523441Y0277531D01*
X0523441Y0275532D02*
X0490306Y0275532D01*
X0491945Y0273534D02*
X0523441Y0273534D01*
X0523441Y0271535D02*
X0491945Y0271535D01*
X0491945Y0269537D02*
X0512362Y0269537D01*
X0512875Y0270049D02*
X0511538Y0268712D01*
X0510814Y0266965D01*
X0510814Y0265074D01*
X0511538Y0263327D01*
X0512875Y0261990D01*
X0514622Y0261267D01*
X0516512Y0261267D01*
X0518259Y0261990D01*
X0519596Y0263327D01*
X0520320Y0265074D01*
X0520320Y0266965D01*
X0519596Y0268712D01*
X0518259Y0270049D01*
X0516512Y0270772D01*
X0514622Y0270772D01*
X0512875Y0270049D01*
X0511052Y0267538D02*
X0491945Y0267538D01*
X0491945Y0265540D02*
X0510814Y0265540D01*
X0511449Y0263541D02*
X0491945Y0263541D01*
X0491945Y0261543D02*
X0513956Y0261543D01*
X0517178Y0261543D02*
X0523441Y0261543D01*
X0523441Y0263541D02*
X0519685Y0263541D01*
X0520320Y0265540D02*
X0523441Y0265540D01*
X0523441Y0267538D02*
X0520082Y0267538D01*
X0518771Y0269537D02*
X0523441Y0269537D01*
X0523441Y0259544D02*
X0491945Y0259544D01*
X0491945Y0257546D02*
X0523441Y0257546D01*
X0523441Y0255547D02*
X0491945Y0255547D01*
X0494208Y0253548D02*
X0523441Y0253548D01*
X0523441Y0251550D02*
X0495123Y0251550D01*
X0495053Y0249551D02*
X0523441Y0249551D01*
X0523441Y0247553D02*
X0493979Y0247553D01*
X0495509Y0245554D02*
X0523441Y0245554D01*
X0523441Y0243556D02*
X0496609Y0243556D01*
X0496698Y0241557D02*
X0508005Y0241557D01*
X0507601Y0241153D02*
X0506877Y0239406D01*
X0506877Y0237515D01*
X0507601Y0235768D01*
X0508938Y0234431D01*
X0510685Y0233708D01*
X0512575Y0233708D01*
X0514322Y0234431D01*
X0515659Y0235768D01*
X0516383Y0237515D01*
X0516383Y0239406D01*
X0515659Y0241153D01*
X0514322Y0242490D01*
X0512575Y0243213D01*
X0510685Y0243213D01*
X0508938Y0242490D01*
X0507601Y0241153D01*
X0506941Y0239559D02*
X0495828Y0239559D01*
X0491945Y0237560D02*
X0506877Y0237560D01*
X0507807Y0235562D02*
X0491945Y0235562D01*
X0491945Y0233563D02*
X0523441Y0233563D01*
X0523441Y0231565D02*
X0491945Y0231565D01*
X0491945Y0229566D02*
X0523441Y0229566D01*
X0521298Y0227568D02*
X0491945Y0227568D01*
X0491945Y0225569D02*
X0520657Y0225569D01*
X0520888Y0223571D02*
X0491945Y0223571D01*
X0491945Y0221572D02*
X0522191Y0221572D01*
X0523441Y0219574D02*
X0491945Y0219574D01*
X0491945Y0217575D02*
X0523441Y0217575D01*
X0523441Y0215577D02*
X0491945Y0215577D01*
X0491945Y0213578D02*
X0523441Y0213578D01*
X0523441Y0211580D02*
X0491945Y0211580D01*
X0491945Y0209581D02*
X0523441Y0209581D01*
X0523441Y0207583D02*
X0516989Y0207583D01*
X0516512Y0207780D02*
X0514622Y0207780D01*
X0512875Y0207057D01*
X0511538Y0205720D01*
X0510814Y0203973D01*
X0510814Y0202082D01*
X0511538Y0200335D01*
X0512875Y0198998D01*
X0514622Y0198275D01*
X0516512Y0198275D01*
X0518259Y0198998D01*
X0519596Y0200335D01*
X0520320Y0202082D01*
X0520320Y0203973D01*
X0519596Y0205720D01*
X0518259Y0207057D01*
X0516512Y0207780D01*
X0514145Y0207583D02*
X0491945Y0207583D01*
X0491945Y0205584D02*
X0511482Y0205584D01*
X0510814Y0203586D02*
X0491945Y0203586D01*
X0491945Y0201587D02*
X0511019Y0201587D01*
X0512284Y0199589D02*
X0491945Y0199589D01*
X0492143Y0197590D02*
X0523441Y0197590D01*
X0523441Y0195592D02*
X0492761Y0195592D01*
X0492506Y0193593D02*
X0523441Y0193593D01*
X0523441Y0191595D02*
X0491945Y0191595D01*
X0491945Y0189596D02*
X0523441Y0189596D01*
X0523441Y0187598D02*
X0491945Y0187598D01*
X0491945Y0185599D02*
X0523441Y0185599D01*
X0523441Y0183601D02*
X0491945Y0183601D01*
X0491945Y0181602D02*
X0523441Y0181602D01*
X0523441Y0179604D02*
X0491945Y0179604D01*
X0491945Y0177605D02*
X0523441Y0177605D01*
X0523441Y0175607D02*
X0491945Y0175607D01*
X0491945Y0173608D02*
X0525301Y0173608D01*
X0527300Y0171610D02*
X0491945Y0171610D01*
X0491945Y0169611D02*
X0529298Y0169611D01*
X0531297Y0167613D02*
X0491945Y0167613D01*
X0492342Y0165614D02*
X0533295Y0165614D01*
X0535294Y0163615D02*
X0492761Y0163615D01*
X0484071Y0171610D02*
X0455437Y0171610D01*
X0455267Y0171439D02*
X0456604Y0172776D01*
X0457328Y0174523D01*
X0457328Y0176414D01*
X0456604Y0178161D01*
X0455267Y0179498D01*
X0453520Y0180221D01*
X0451629Y0180221D01*
X0449883Y0179498D01*
X0448546Y0178161D01*
X0447822Y0176414D01*
X0447822Y0174523D01*
X0448546Y0172776D01*
X0449883Y0171439D01*
X0451629Y0170716D01*
X0453520Y0170716D01*
X0455267Y0171439D01*
X0456949Y0173608D02*
X0484071Y0173608D01*
X0484071Y0175607D02*
X0479119Y0175607D01*
X0478889Y0175376D02*
X0480226Y0176713D01*
X0480950Y0178460D01*
X0480950Y0180351D01*
X0480226Y0182098D01*
X0478889Y0183435D01*
X0477142Y0184158D01*
X0475251Y0184158D01*
X0473505Y0183435D01*
X0472168Y0182098D01*
X0471444Y0180351D01*
X0471444Y0178460D01*
X0472168Y0176713D01*
X0473505Y0175376D01*
X0475251Y0174653D01*
X0477142Y0174653D01*
X0478889Y0175376D01*
X0480595Y0177605D02*
X0484071Y0177605D01*
X0484071Y0179604D02*
X0480950Y0179604D01*
X0480431Y0181602D02*
X0484071Y0181602D01*
X0484071Y0183601D02*
X0478489Y0183601D01*
X0479049Y0185599D02*
X0424939Y0185599D01*
X0426327Y0187598D02*
X0465220Y0187598D01*
X0465631Y0187187D02*
X0467377Y0186464D01*
X0469268Y0186464D01*
X0471015Y0187187D01*
X0472352Y0188524D01*
X0473076Y0190271D01*
X0473076Y0192162D01*
X0472352Y0193909D01*
X0471015Y0195246D01*
X0469268Y0195969D01*
X0467377Y0195969D01*
X0465631Y0195246D01*
X0464294Y0193909D01*
X0463570Y0192162D01*
X0463570Y0190271D01*
X0464294Y0188524D01*
X0465631Y0187187D01*
X0463850Y0189596D02*
X0426619Y0189596D01*
X0426038Y0191595D02*
X0463570Y0191595D01*
X0464163Y0193593D02*
X0423796Y0193593D01*
X0419937Y0193593D02*
X0414347Y0193593D01*
X0416590Y0191595D02*
X0417694Y0191595D01*
X0417405Y0187598D02*
X0416878Y0187598D01*
X0415490Y0185599D02*
X0418794Y0185599D01*
X0410488Y0193593D02*
X0409829Y0193593D01*
X0410083Y0195592D02*
X0441478Y0195592D01*
X0442009Y0195061D02*
X0443755Y0194338D01*
X0445646Y0194338D01*
X0447393Y0195061D01*
X0448730Y0196398D01*
X0449454Y0198145D01*
X0449454Y0200036D01*
X0448730Y0201783D01*
X0447393Y0203120D01*
X0445646Y0203843D01*
X0443755Y0203843D01*
X0442009Y0203120D01*
X0440672Y0201783D01*
X0439948Y0200036D01*
X0439948Y0198145D01*
X0440672Y0196398D01*
X0442009Y0195061D01*
X0440178Y0197590D02*
X0409466Y0197590D01*
X0410201Y0199589D02*
X0407043Y0199589D01*
X0408388Y0201123D02*
X0409725Y0199786D01*
X0411472Y0199062D01*
X0413363Y0199062D01*
X0415110Y0199786D01*
X0416447Y0201123D01*
X0416945Y0202326D01*
X0417443Y0201123D01*
X0418780Y0199786D01*
X0420527Y0199062D01*
X0422418Y0199062D01*
X0424165Y0199786D01*
X0425502Y0201123D01*
X0426225Y0202870D01*
X0426225Y0204760D01*
X0425502Y0206507D01*
X0424165Y0207844D01*
X0422418Y0208568D01*
X0420527Y0208568D01*
X0418780Y0207844D01*
X0417443Y0206507D01*
X0416945Y0205304D01*
X0416447Y0206507D01*
X0415110Y0207844D01*
X0413363Y0208568D01*
X0411472Y0208568D01*
X0409725Y0207844D01*
X0408388Y0206507D01*
X0407665Y0204760D01*
X0407665Y0202870D01*
X0408388Y0201123D01*
X0408196Y0201587D02*
X0365961Y0201587D01*
X0365961Y0199589D02*
X0403619Y0199589D01*
X0401196Y0197590D02*
X0365961Y0197590D01*
X0365961Y0195592D02*
X0399537Y0195592D01*
X0405867Y0189596D02*
X0407665Y0189596D01*
X0407957Y0187598D02*
X0404496Y0187598D01*
X0405766Y0185599D02*
X0409345Y0185599D01*
X0406146Y0183601D02*
X0438472Y0183601D01*
X0438072Y0183435D02*
X0436735Y0182098D01*
X0436011Y0180351D01*
X0436011Y0178460D01*
X0436735Y0176713D01*
X0438072Y0175376D01*
X0439818Y0174653D01*
X0441709Y0174653D01*
X0443456Y0175376D01*
X0444793Y0176713D01*
X0445517Y0178460D01*
X0445517Y0180351D01*
X0444793Y0182098D01*
X0443456Y0183435D01*
X0441709Y0184158D01*
X0439818Y0184158D01*
X0438072Y0183435D01*
X0436529Y0181602D02*
X0405654Y0181602D01*
X0403836Y0179604D02*
X0426516Y0179604D01*
X0431389Y0179604D02*
X0436011Y0179604D01*
X0436365Y0177605D02*
X0433212Y0177605D01*
X0433705Y0175607D02*
X0437841Y0175607D01*
X0433326Y0173608D02*
X0448201Y0173608D01*
X0447822Y0175607D02*
X0443686Y0175607D01*
X0445162Y0177605D02*
X0448315Y0177605D01*
X0450138Y0179604D02*
X0445517Y0179604D01*
X0444998Y0181602D02*
X0471962Y0181602D01*
X0471444Y0179604D02*
X0455011Y0179604D01*
X0456834Y0177605D02*
X0471798Y0177605D01*
X0473274Y0175607D02*
X0457328Y0175607D01*
X0449712Y0171610D02*
X0431815Y0171610D01*
X0443055Y0183601D02*
X0473905Y0183601D01*
X0476197Y0187280D02*
X0476197Y0206965D01*
X0472260Y0210902D01*
X0464386Y0210902D01*
X0464386Y0230587D01*
X0456512Y0238461D01*
X0456512Y0242398D01*
X0464386Y0250272D01*
X0464386Y0258146D01*
X0460449Y0262083D01*
X0413205Y0262083D01*
X0401394Y0273894D01*
X0405331Y0277831D01*
X0405331Y0301453D01*
X0426834Y0307508D02*
X0372016Y0307508D01*
X0370018Y0305510D02*
X0428833Y0305510D01*
X0430831Y0303511D02*
X0368019Y0303511D01*
X0366021Y0301513D02*
X0432830Y0301513D01*
X0436827Y0295517D02*
X0365961Y0295517D01*
X0365961Y0293519D02*
X0436827Y0293519D01*
X0436827Y0291520D02*
X0365961Y0291520D01*
X0365961Y0289522D02*
X0436827Y0289522D01*
X0436827Y0287523D02*
X0365961Y0287523D01*
X0365961Y0285525D02*
X0436827Y0285525D01*
X0436827Y0283526D02*
X0365961Y0283526D01*
X0365961Y0281528D02*
X0437067Y0281528D01*
X0439065Y0279529D02*
X0365961Y0279529D01*
X0365961Y0277531D02*
X0476497Y0277531D01*
X0478495Y0275532D02*
X0365961Y0275532D01*
X0365961Y0273534D02*
X0480494Y0273534D01*
X0482492Y0271535D02*
X0365961Y0271535D01*
X0365961Y0269537D02*
X0484071Y0269537D01*
X0484071Y0267538D02*
X0365961Y0267538D01*
X0365961Y0265540D02*
X0484071Y0265540D01*
X0484071Y0263541D02*
X0365961Y0263541D01*
X0365961Y0261543D02*
X0484071Y0261543D01*
X0484071Y0259544D02*
X0365961Y0259544D01*
X0365961Y0257546D02*
X0394072Y0257546D01*
X0393427Y0256901D02*
X0392704Y0255154D01*
X0392704Y0253263D01*
X0393427Y0251516D01*
X0394764Y0250179D01*
X0396511Y0249456D01*
X0398402Y0249456D01*
X0400149Y0250179D01*
X0401486Y0251516D01*
X0402209Y0253263D01*
X0402209Y0255154D01*
X0401486Y0256901D01*
X0400149Y0258238D01*
X0398402Y0258961D01*
X0396511Y0258961D01*
X0394764Y0258238D01*
X0393427Y0256901D01*
X0392867Y0255547D02*
X0365961Y0255547D01*
X0365961Y0253548D02*
X0392704Y0253548D01*
X0393414Y0251550D02*
X0365961Y0251550D01*
X0365961Y0249551D02*
X0396281Y0249551D01*
X0398633Y0249551D02*
X0484071Y0249551D01*
X0484071Y0247553D02*
X0429338Y0247553D01*
X0428889Y0248002D02*
X0427142Y0248725D01*
X0425251Y0248725D01*
X0423505Y0248002D01*
X0422168Y0246665D01*
X0421444Y0244918D01*
X0421444Y0243027D01*
X0422168Y0241280D01*
X0423505Y0239943D01*
X0425251Y0239220D01*
X0427142Y0239220D01*
X0428781Y0239898D01*
X0428861Y0239705D01*
X0430198Y0238368D01*
X0431944Y0237645D01*
X0433835Y0237645D01*
X0435582Y0238368D01*
X0435843Y0238629D01*
X0436103Y0238368D01*
X0437850Y0237645D01*
X0439741Y0237645D01*
X0441487Y0238368D01*
X0441748Y0238629D01*
X0442009Y0238368D01*
X0443755Y0237645D01*
X0445646Y0237645D01*
X0447393Y0238368D01*
X0448730Y0239705D01*
X0449454Y0241452D01*
X0449454Y0243343D01*
X0448730Y0245090D01*
X0447393Y0246427D01*
X0445646Y0247150D01*
X0443755Y0247150D01*
X0442009Y0246427D01*
X0441748Y0246166D01*
X0441487Y0246427D01*
X0439741Y0247150D01*
X0437850Y0247150D01*
X0436103Y0246427D01*
X0435843Y0246166D01*
X0435582Y0246427D01*
X0433835Y0247150D01*
X0431944Y0247150D01*
X0430306Y0246472D01*
X0430226Y0246665D01*
X0428889Y0248002D01*
X0423056Y0247553D02*
X0365961Y0247553D01*
X0365961Y0245554D02*
X0421708Y0245554D01*
X0421444Y0243556D02*
X0365961Y0243556D01*
X0365961Y0241557D02*
X0422053Y0241557D01*
X0424432Y0239559D02*
X0365961Y0239559D01*
X0365961Y0237560D02*
X0459633Y0237560D01*
X0459633Y0237515D02*
X0460357Y0235768D01*
X0461694Y0234431D01*
X0463440Y0233708D01*
X0465331Y0233708D01*
X0467078Y0234431D01*
X0468415Y0235768D01*
X0469139Y0237515D01*
X0469139Y0239406D01*
X0468415Y0241153D01*
X0467078Y0242490D01*
X0465331Y0243213D01*
X0463440Y0243213D01*
X0461694Y0242490D01*
X0460357Y0241153D01*
X0459633Y0239406D01*
X0459633Y0237515D01*
X0459696Y0239559D02*
X0448583Y0239559D01*
X0449454Y0241557D02*
X0460761Y0241557D01*
X0460563Y0235562D02*
X0365961Y0235562D01*
X0365961Y0233563D02*
X0385838Y0233563D01*
X0385553Y0233279D02*
X0384830Y0231532D01*
X0384830Y0229641D01*
X0385553Y0227894D01*
X0386890Y0226557D01*
X0388637Y0225834D01*
X0390528Y0225834D01*
X0392275Y0226557D01*
X0393612Y0227894D01*
X0394335Y0229641D01*
X0394335Y0231532D01*
X0393612Y0233279D01*
X0392275Y0234616D01*
X0390528Y0235339D01*
X0388637Y0235339D01*
X0386890Y0234616D01*
X0385553Y0233279D01*
X0384844Y0231565D02*
X0365961Y0231565D01*
X0365961Y0229566D02*
X0384861Y0229566D01*
X0385880Y0227568D02*
X0365961Y0227568D01*
X0365961Y0225569D02*
X0441799Y0225569D01*
X0442574Y0225891D02*
X0440827Y0225167D01*
X0439490Y0223830D01*
X0438767Y0222083D01*
X0438767Y0220192D01*
X0439273Y0218969D01*
X0437772Y0219591D01*
X0435881Y0219591D01*
X0434135Y0218868D01*
X0432798Y0217531D01*
X0432074Y0215784D01*
X0432074Y0213893D01*
X0432798Y0212146D01*
X0434135Y0210809D01*
X0435881Y0210086D01*
X0437772Y0210086D01*
X0439519Y0210809D01*
X0440856Y0212146D01*
X0441580Y0213893D01*
X0441580Y0215784D01*
X0441073Y0217007D01*
X0442574Y0216385D01*
X0444465Y0216385D01*
X0446212Y0217109D01*
X0447549Y0218446D01*
X0448272Y0220192D01*
X0448272Y0222083D01*
X0447549Y0223830D01*
X0446212Y0225167D01*
X0444465Y0225891D01*
X0442574Y0225891D01*
X0445241Y0225569D02*
X0484071Y0225569D01*
X0484071Y0223571D02*
X0447656Y0223571D01*
X0448272Y0221572D02*
X0484071Y0221572D01*
X0484071Y0219574D02*
X0448016Y0219574D01*
X0446679Y0217575D02*
X0484071Y0217575D01*
X0484071Y0215577D02*
X0441580Y0215577D01*
X0441449Y0213578D02*
X0484071Y0213578D01*
X0484071Y0211580D02*
X0440289Y0211580D01*
X0433364Y0211580D02*
X0410762Y0211580D01*
X0411328Y0212146D02*
X0412052Y0213893D01*
X0412052Y0215784D01*
X0411328Y0217531D01*
X0409991Y0218868D01*
X0408245Y0219591D01*
X0406354Y0219591D01*
X0404607Y0218868D01*
X0403270Y0217531D01*
X0402546Y0215784D01*
X0402546Y0213893D01*
X0403270Y0212146D01*
X0404607Y0210809D01*
X0406354Y0210086D01*
X0408245Y0210086D01*
X0409991Y0210809D01*
X0411328Y0212146D01*
X0411922Y0213578D02*
X0432204Y0213578D01*
X0432074Y0215577D02*
X0412052Y0215577D01*
X0411284Y0217575D02*
X0432842Y0217575D01*
X0435839Y0219574D02*
X0408287Y0219574D01*
X0406312Y0219574D02*
X0365961Y0219574D01*
X0365961Y0221572D02*
X0438767Y0221572D01*
X0439023Y0219574D02*
X0437814Y0219574D01*
X0439383Y0223571D02*
X0365961Y0223571D01*
X0365961Y0217575D02*
X0403315Y0217575D01*
X0402546Y0215577D02*
X0365961Y0215577D01*
X0365961Y0213578D02*
X0402677Y0213578D01*
X0403837Y0211580D02*
X0365961Y0211580D01*
X0365961Y0209581D02*
X0484071Y0209581D01*
X0484071Y0207583D02*
X0470253Y0207583D01*
X0469716Y0208120D02*
X0467969Y0208843D01*
X0466078Y0208843D01*
X0464331Y0208120D01*
X0462994Y0206783D01*
X0462271Y0205036D01*
X0462271Y0203145D01*
X0462994Y0201398D01*
X0464331Y0200061D01*
X0466078Y0199338D01*
X0467969Y0199338D01*
X0469716Y0200061D01*
X0471053Y0201398D01*
X0471776Y0203145D01*
X0471776Y0205036D01*
X0471053Y0206783D01*
X0469716Y0208120D01*
X0471549Y0205584D02*
X0484071Y0205584D01*
X0484071Y0203586D02*
X0471776Y0203586D01*
X0471131Y0201587D02*
X0484071Y0201587D01*
X0484071Y0199589D02*
X0468575Y0199589D01*
X0465473Y0199589D02*
X0449454Y0199589D01*
X0449224Y0197590D02*
X0483873Y0197590D01*
X0483255Y0195592D02*
X0470180Y0195592D01*
X0472483Y0193593D02*
X0478939Y0193593D01*
X0477373Y0191595D02*
X0473076Y0191595D01*
X0472796Y0189596D02*
X0476956Y0189596D01*
X0477411Y0187598D02*
X0471425Y0187598D01*
X0476197Y0187280D02*
X0452575Y0163657D01*
X0452575Y0124287D01*
X0456512Y0120350D01*
X0460449Y0116413D01*
X0472260Y0116413D01*
X0476197Y0120350D01*
X0480134Y0116413D01*
X0483979Y0117658D02*
X0483255Y0119405D01*
X0483255Y0121296D01*
X0483979Y0123043D01*
X0485316Y0124380D01*
X0487062Y0125103D01*
X0488953Y0125103D01*
X0490700Y0124380D01*
X0492037Y0123043D01*
X0492761Y0121296D01*
X0492761Y0119405D01*
X0492037Y0117658D01*
X0490700Y0116321D01*
X0488953Y0115598D01*
X0487062Y0115598D01*
X0485316Y0116321D01*
X0483979Y0117658D01*
X0483987Y0117650D02*
X0472344Y0117650D01*
X0472352Y0117658D02*
X0473076Y0119405D01*
X0473076Y0121296D01*
X0472352Y0123043D01*
X0471015Y0124380D01*
X0469268Y0125103D01*
X0467377Y0125103D01*
X0465631Y0124380D01*
X0464294Y0123043D01*
X0463570Y0121296D01*
X0463570Y0119405D01*
X0464294Y0117658D01*
X0465631Y0116321D01*
X0467377Y0115598D01*
X0469268Y0115598D01*
X0471015Y0116321D01*
X0472352Y0117658D01*
X0473076Y0119648D02*
X0483255Y0119648D01*
X0483401Y0121647D02*
X0472930Y0121647D01*
X0471749Y0123645D02*
X0484581Y0123645D01*
X0491434Y0123645D02*
X0652720Y0123645D01*
X0650722Y0121647D02*
X0492615Y0121647D01*
X0492761Y0119648D02*
X0648723Y0119648D01*
X0646725Y0117650D02*
X0499005Y0117650D01*
X0500363Y0115651D02*
X0502994Y0115651D01*
X0500995Y0113653D02*
X0500635Y0113653D01*
X0494074Y0109656D02*
X0488824Y0109656D01*
X0488414Y0111654D02*
X0491730Y0111654D01*
X0491129Y0113653D02*
X0486860Y0113653D01*
X0486933Y0115651D02*
X0469398Y0115651D01*
X0467248Y0115651D02*
X0449713Y0115651D01*
X0449583Y0115598D02*
X0451330Y0116321D01*
X0452667Y0117658D01*
X0453391Y0119405D01*
X0453391Y0121296D01*
X0452667Y0123043D01*
X0451330Y0124380D01*
X0449583Y0125103D01*
X0447692Y0125103D01*
X0445946Y0124380D01*
X0444609Y0123043D01*
X0443885Y0121296D01*
X0443885Y0119405D01*
X0444609Y0117658D01*
X0445946Y0116321D01*
X0447692Y0115598D01*
X0449583Y0115598D01*
X0447563Y0115651D02*
X0430027Y0115651D01*
X0429898Y0115598D02*
X0431645Y0116321D01*
X0432982Y0117658D01*
X0433705Y0119405D01*
X0433705Y0121296D01*
X0432982Y0123043D01*
X0431645Y0124380D01*
X0429898Y0125103D01*
X0428007Y0125103D01*
X0426261Y0124380D01*
X0424924Y0123043D01*
X0424200Y0121296D01*
X0424200Y0119405D01*
X0424924Y0117658D01*
X0426261Y0116321D01*
X0428007Y0115598D01*
X0429898Y0115598D01*
X0427878Y0115651D02*
X0421079Y0115651D01*
X0421079Y0117650D02*
X0424932Y0117650D01*
X0424200Y0119648D02*
X0421079Y0119648D01*
X0421079Y0121647D02*
X0424345Y0121647D01*
X0425526Y0123645D02*
X0421079Y0123645D01*
X0421079Y0125644D02*
X0498463Y0125644D01*
X0496464Y0127642D02*
X0421079Y0127642D01*
X0421079Y0129641D02*
X0494465Y0129641D01*
X0492467Y0131639D02*
X0421079Y0131639D01*
X0421267Y0133638D02*
X0490468Y0133638D01*
X0488470Y0135636D02*
X0421894Y0135636D01*
X0421650Y0137635D02*
X0486471Y0137635D01*
X0482127Y0139633D02*
X0481335Y0139633D01*
X0474996Y0139633D02*
X0466330Y0139633D01*
X0467078Y0139943D02*
X0465331Y0139220D01*
X0463440Y0139220D01*
X0461882Y0139865D01*
X0461173Y0139156D01*
X0459426Y0138432D01*
X0457535Y0138432D01*
X0455788Y0139156D01*
X0454451Y0140493D01*
X0453728Y0142240D01*
X0453728Y0144130D01*
X0454451Y0145877D01*
X0455788Y0147214D01*
X0457535Y0147938D01*
X0459426Y0147938D01*
X0460984Y0147292D01*
X0461694Y0148002D01*
X0463440Y0148725D01*
X0465331Y0148725D01*
X0467078Y0148002D01*
X0468415Y0146665D01*
X0469139Y0144918D01*
X0469139Y0143027D01*
X0468415Y0141280D01*
X0467078Y0139943D01*
X0468561Y0141632D02*
X0473664Y0141632D01*
X0473413Y0143630D02*
X0469139Y0143630D01*
X0468844Y0145629D02*
X0474033Y0145629D01*
X0476471Y0147627D02*
X0467452Y0147627D01*
X0463799Y0151624D02*
X0484071Y0151624D01*
X0484071Y0149626D02*
X0444988Y0149626D01*
X0444793Y0149154D02*
X0445517Y0150901D01*
X0445517Y0152792D01*
X0444793Y0154539D01*
X0443456Y0155876D01*
X0441709Y0156599D01*
X0439818Y0156599D01*
X0438072Y0155876D01*
X0436735Y0154539D01*
X0436011Y0152792D01*
X0436011Y0150901D01*
X0436735Y0149154D01*
X0437951Y0147938D01*
X0437850Y0147938D01*
X0436103Y0147214D01*
X0434766Y0145877D01*
X0434043Y0144130D01*
X0434043Y0142240D01*
X0434766Y0140493D01*
X0436103Y0139156D01*
X0437850Y0138432D01*
X0439741Y0138432D01*
X0441487Y0139156D01*
X0442197Y0139865D01*
X0443755Y0139220D01*
X0445646Y0139220D01*
X0447393Y0139943D01*
X0448730Y0141280D01*
X0449454Y0143027D01*
X0449454Y0144918D01*
X0448730Y0146665D01*
X0447393Y0148002D01*
X0445646Y0148725D01*
X0444364Y0148725D01*
X0444793Y0149154D01*
X0445517Y0151624D02*
X0457886Y0151624D01*
X0456430Y0153623D02*
X0445172Y0153623D01*
X0443710Y0155621D02*
X0456090Y0155621D01*
X0456622Y0157620D02*
X0399557Y0157620D01*
X0397559Y0159618D02*
X0458632Y0159618D01*
X0465595Y0155621D02*
X0484071Y0155621D01*
X0484071Y0153623D02*
X0465255Y0153623D01*
X0461319Y0147627D02*
X0460175Y0147627D01*
X0456786Y0147627D02*
X0447767Y0147627D01*
X0449159Y0145629D02*
X0454348Y0145629D01*
X0453728Y0143630D02*
X0449454Y0143630D01*
X0448876Y0141632D02*
X0453979Y0141632D01*
X0455311Y0139633D02*
X0446645Y0139633D01*
X0442757Y0139633D02*
X0441965Y0139633D01*
X0435626Y0139633D02*
X0426960Y0139633D01*
X0427708Y0139943D02*
X0429045Y0141280D01*
X0429768Y0143027D01*
X0429768Y0144918D01*
X0429045Y0146665D01*
X0427708Y0148002D01*
X0425961Y0148725D01*
X0424070Y0148725D01*
X0422324Y0148002D01*
X0420987Y0146665D01*
X0420263Y0144918D01*
X0420263Y0143027D01*
X0420987Y0141280D01*
X0422324Y0139943D01*
X0424070Y0139220D01*
X0425961Y0139220D01*
X0427708Y0139943D01*
X0429191Y0141632D02*
X0434294Y0141632D01*
X0434043Y0143630D02*
X0429768Y0143630D01*
X0429474Y0145629D02*
X0434663Y0145629D01*
X0437101Y0147627D02*
X0428082Y0147627D01*
X0421949Y0147627D02*
X0409550Y0147627D01*
X0411548Y0145629D02*
X0420558Y0145629D01*
X0420263Y0143630D02*
X0413547Y0143630D01*
X0415545Y0141632D02*
X0420841Y0141632D01*
X0420328Y0139633D02*
X0423072Y0139633D01*
X0412634Y0137635D02*
X0369410Y0137635D01*
X0369718Y0135636D02*
X0412389Y0135636D01*
X0413017Y0133638D02*
X0369288Y0133638D01*
X0367880Y0131639D02*
X0415487Y0131639D01*
X0417142Y0129641D02*
X0287220Y0129641D01*
X0287220Y0131639D02*
X0301049Y0131639D01*
X0299641Y0133638D02*
X0287220Y0133638D01*
X0287220Y0135636D02*
X0299211Y0135636D01*
X0299519Y0137635D02*
X0285684Y0137635D01*
X0283686Y0139633D02*
X0300754Y0139633D01*
X0301056Y0141632D02*
X0279520Y0141632D01*
X0281601Y0143630D02*
X0299644Y0143630D01*
X0299211Y0145629D02*
X0282135Y0145629D01*
X0281759Y0147627D02*
X0299516Y0147627D01*
X0300747Y0149626D02*
X0280073Y0149626D01*
X0287220Y0127642D02*
X0417142Y0127642D01*
X0417142Y0125644D02*
X0287220Y0125644D01*
X0307219Y0121647D02*
X0312340Y0121647D01*
X0309876Y0119648D02*
X0309683Y0119648D01*
X0317219Y0121647D02*
X0322340Y0121647D01*
X0319876Y0119648D02*
X0319683Y0119648D01*
X0327219Y0121647D02*
X0341710Y0121647D01*
X0339246Y0119648D02*
X0329683Y0119648D01*
X0330511Y0117650D02*
X0338418Y0117650D01*
X0338381Y0115651D02*
X0330548Y0115651D01*
X0329880Y0113653D02*
X0339049Y0113653D01*
X0340751Y0111654D02*
X0328178Y0111654D01*
X0321381Y0111654D02*
X0318178Y0111654D01*
X0311381Y0111654D02*
X0308178Y0111654D01*
X0307644Y0103660D02*
X0329789Y0103660D01*
X0328730Y0101662D02*
X0308703Y0101662D01*
X0308949Y0099663D02*
X0328484Y0099663D01*
X0328908Y0097665D02*
X0308525Y0097665D01*
X0307214Y0095666D02*
X0330219Y0095666D01*
X0332358Y0093668D02*
X0305075Y0093668D01*
X0307824Y0091669D02*
X0329609Y0091669D01*
X0328656Y0089671D02*
X0308777Y0089671D01*
X0308949Y0087672D02*
X0328484Y0087672D01*
X0328983Y0085674D02*
X0308450Y0085674D01*
X0307034Y0083675D02*
X0330399Y0083675D01*
X0331954Y0081677D02*
X0305479Y0081677D01*
X0309772Y0079678D02*
X0327661Y0079678D01*
X0325694Y0077680D02*
X0311739Y0077680D01*
X0312893Y0075681D02*
X0324540Y0075681D01*
X0323877Y0073682D02*
X0313556Y0073682D01*
X0313874Y0071684D02*
X0323559Y0071684D01*
X0323559Y0069685D02*
X0313874Y0069685D01*
X0313355Y0067687D02*
X0324078Y0067687D01*
X0324973Y0065688D02*
X0312460Y0065688D01*
X0311022Y0063690D02*
X0326411Y0063690D01*
X0342518Y0063690D02*
X0401411Y0063690D01*
X0400139Y0065688D02*
X0343956Y0065688D01*
X0344851Y0067687D02*
X0399366Y0067687D01*
X0398953Y0069685D02*
X0345370Y0069685D01*
X0345370Y0071684D02*
X0398953Y0071684D01*
X0399377Y0073682D02*
X0345052Y0073682D01*
X0344389Y0075681D02*
X0400161Y0075681D01*
X0401450Y0077680D02*
X0343235Y0077680D01*
X0341268Y0079678D02*
X0403658Y0079678D01*
X0405853Y0083675D02*
X0408745Y0083675D01*
X0407560Y0085674D02*
X0407038Y0085674D01*
X0396934Y0083675D02*
X0338530Y0083675D01*
X0339946Y0085674D02*
X0395749Y0085674D01*
X0395413Y0087672D02*
X0340445Y0087672D01*
X0340273Y0089671D02*
X0395748Y0089671D01*
X0396932Y0091669D02*
X0339320Y0091669D01*
X0336571Y0093668D02*
X0399809Y0093668D01*
X0396754Y0095666D02*
X0338710Y0095666D01*
X0340021Y0097665D02*
X0395674Y0097665D01*
X0395413Y0099663D02*
X0340445Y0099663D01*
X0340199Y0101662D02*
X0395823Y0101662D01*
X0397112Y0103660D02*
X0339140Y0103660D01*
X0347548Y0111654D02*
X0350751Y0111654D01*
X0357548Y0111654D02*
X0360751Y0111654D01*
X0359246Y0119648D02*
X0359053Y0119648D01*
X0356589Y0121647D02*
X0361710Y0121647D01*
X0351710Y0121647D02*
X0346589Y0121647D01*
X0349053Y0119648D02*
X0349246Y0119648D01*
X0347880Y0131639D02*
X0360419Y0131639D01*
X0359011Y0133638D02*
X0349288Y0133638D01*
X0349718Y0135636D02*
X0358581Y0135636D01*
X0358889Y0137635D02*
X0349410Y0137635D01*
X0348175Y0139633D02*
X0360124Y0139633D01*
X0362165Y0141632D02*
X0347873Y0141632D01*
X0349285Y0143630D02*
X0360084Y0143630D01*
X0359550Y0145629D02*
X0349718Y0145629D01*
X0349413Y0147627D02*
X0359926Y0147627D01*
X0361612Y0149626D02*
X0348182Y0149626D01*
X0364150Y0149626D02*
X0364150Y0149626D01*
X0364150Y0147627D02*
X0364150Y0147627D01*
X0366687Y0149626D02*
X0401598Y0149626D01*
X0403655Y0147627D02*
X0368373Y0147627D01*
X0368750Y0145629D02*
X0405712Y0145629D01*
X0407769Y0143630D02*
X0368215Y0143630D01*
X0366134Y0141632D02*
X0409826Y0141632D01*
X0411883Y0139633D02*
X0368175Y0139633D01*
X0401556Y0155621D02*
X0437817Y0155621D01*
X0436355Y0153623D02*
X0403554Y0153623D01*
X0405553Y0151624D02*
X0436011Y0151624D01*
X0436539Y0149626D02*
X0407551Y0149626D01*
X0432379Y0123645D02*
X0445211Y0123645D01*
X0444030Y0121647D02*
X0433560Y0121647D01*
X0433705Y0119648D02*
X0443885Y0119648D01*
X0444617Y0117650D02*
X0432973Y0117650D01*
X0436827Y0120350D02*
X0440764Y0116413D01*
X0452575Y0116413D01*
X0456512Y0120350D01*
X0453391Y0119648D02*
X0463570Y0119648D01*
X0463715Y0121647D02*
X0453245Y0121647D01*
X0452064Y0123645D02*
X0464896Y0123645D01*
X0464302Y0117650D02*
X0452659Y0117650D01*
X0454357Y0097665D02*
X0454729Y0097665D01*
X0455810Y0095666D02*
X0453277Y0095666D01*
X0462033Y0093668D02*
X0470675Y0093668D01*
X0472256Y0091669D02*
X0472264Y0091669D01*
X0472256Y0089671D02*
X0472264Y0089671D01*
X0475287Y0091669D02*
X0481044Y0091669D01*
X0482486Y0093668D02*
X0473845Y0093668D01*
X0476899Y0095666D02*
X0479432Y0095666D01*
X0478352Y0097665D02*
X0477979Y0097665D01*
X0476867Y0089671D02*
X0479464Y0089671D01*
X0479465Y0085674D02*
X0476866Y0085674D01*
X0475283Y0083675D02*
X0481047Y0083675D01*
X0487094Y0083675D02*
X0519375Y0083675D01*
X0517959Y0085674D02*
X0488677Y0085674D01*
X0488710Y0095666D02*
X0519195Y0095666D01*
X0517885Y0097665D02*
X0489790Y0097665D01*
X0490051Y0099663D02*
X0517461Y0099663D01*
X0517707Y0101662D02*
X0489642Y0101662D01*
X0488352Y0103660D02*
X0518766Y0103660D01*
X0492759Y0117650D02*
X0492029Y0117650D01*
X0491400Y0115651D02*
X0489083Y0115651D01*
X0502280Y0133638D02*
X0623343Y0133638D01*
X0625341Y0135636D02*
X0500281Y0135636D01*
X0493098Y0143630D02*
X0492287Y0143630D01*
X0491945Y0145629D02*
X0493718Y0145629D01*
X0491945Y0147627D02*
X0496156Y0147627D01*
X0481004Y0147627D02*
X0479860Y0147627D01*
X0462442Y0139633D02*
X0461650Y0139633D01*
X0408923Y0103660D02*
X0405675Y0103660D01*
X0406965Y0101662D02*
X0407634Y0101662D01*
X0465088Y0095666D02*
X0467621Y0095666D01*
X0466541Y0097665D02*
X0466168Y0097665D01*
X0472256Y0085674D02*
X0472264Y0085674D01*
X0472256Y0083675D02*
X0472264Y0083675D01*
X0520930Y0081677D02*
X0336975Y0081677D01*
X0300458Y0081677D02*
X0287220Y0081677D01*
X0287220Y0083675D02*
X0298903Y0083675D01*
X0297487Y0085674D02*
X0287220Y0085674D01*
X0287220Y0087672D02*
X0296988Y0087672D01*
X0297160Y0089671D02*
X0287220Y0089671D01*
X0287220Y0091669D02*
X0298113Y0091669D01*
X0300862Y0093668D02*
X0287220Y0093668D01*
X0287220Y0095666D02*
X0298723Y0095666D01*
X0297412Y0097665D02*
X0287220Y0097665D01*
X0287220Y0099663D02*
X0296988Y0099663D01*
X0297234Y0101662D02*
X0287220Y0101662D01*
X0287220Y0103660D02*
X0298293Y0103660D01*
X0296165Y0079678D02*
X0287220Y0079678D01*
X0287220Y0077680D02*
X0294198Y0077680D01*
X0293044Y0075681D02*
X0287220Y0075681D01*
X0287220Y0073682D02*
X0292381Y0073682D01*
X0292063Y0071684D02*
X0287220Y0071684D01*
X0287220Y0069685D02*
X0292063Y0069685D01*
X0292582Y0067687D02*
X0287220Y0067687D01*
X0287220Y0065688D02*
X0293477Y0065688D01*
X0294915Y0063690D02*
X0287220Y0063690D01*
X0328481Y0171610D02*
X0340448Y0171610D01*
X0339023Y0173608D02*
X0329906Y0173608D01*
X0330348Y0175607D02*
X0338581Y0175607D01*
X0338877Y0177605D02*
X0330052Y0177605D01*
X0328834Y0179604D02*
X0340095Y0179604D01*
X0358359Y0185599D02*
X0364575Y0185599D01*
X0361685Y0191595D02*
X0313583Y0191595D01*
X0315581Y0193593D02*
X0361720Y0193593D01*
X0361755Y0195592D02*
X0317580Y0195592D01*
X0319578Y0197590D02*
X0361790Y0197590D01*
X0361825Y0199589D02*
X0321577Y0199589D01*
X0323575Y0201587D02*
X0361860Y0201587D01*
X0361895Y0203586D02*
X0325574Y0203586D01*
X0327572Y0205584D02*
X0361930Y0205584D01*
X0361965Y0207583D02*
X0329571Y0207583D01*
X0331569Y0209581D02*
X0362000Y0209581D01*
X0365961Y0207583D02*
X0409464Y0207583D01*
X0408006Y0205584D02*
X0365961Y0205584D01*
X0365961Y0203586D02*
X0407665Y0203586D01*
X0414634Y0199589D02*
X0419256Y0199589D01*
X0417251Y0201587D02*
X0416639Y0201587D01*
X0416829Y0205584D02*
X0417061Y0205584D01*
X0418519Y0207583D02*
X0415371Y0207583D01*
X0424426Y0207583D02*
X0463794Y0207583D01*
X0462498Y0205584D02*
X0425884Y0205584D01*
X0426225Y0203586D02*
X0443134Y0203586D01*
X0446268Y0203586D02*
X0462271Y0203586D01*
X0462916Y0201587D02*
X0448811Y0201587D01*
X0440591Y0201587D02*
X0425694Y0201587D01*
X0423689Y0199589D02*
X0439948Y0199589D01*
X0447923Y0195592D02*
X0466466Y0195592D01*
X0484071Y0227568D02*
X0393285Y0227568D01*
X0394304Y0229566D02*
X0484071Y0229566D01*
X0484071Y0231565D02*
X0394322Y0231565D01*
X0393327Y0233563D02*
X0484071Y0233563D01*
X0484071Y0235562D02*
X0468209Y0235562D01*
X0469139Y0237560D02*
X0484071Y0237560D01*
X0484071Y0239559D02*
X0469075Y0239559D01*
X0468010Y0241557D02*
X0484071Y0241557D01*
X0484071Y0243556D02*
X0449365Y0243556D01*
X0448265Y0245554D02*
X0484071Y0245554D01*
X0484071Y0251550D02*
X0454669Y0251550D01*
X0455029Y0251910D02*
X0455753Y0253657D01*
X0455753Y0255548D01*
X0455029Y0257295D01*
X0453692Y0258632D01*
X0451945Y0259355D01*
X0450055Y0259355D01*
X0448308Y0258632D01*
X0446971Y0257295D01*
X0446247Y0255548D01*
X0446247Y0253657D01*
X0446971Y0251910D01*
X0448308Y0250573D01*
X0450055Y0249850D01*
X0451945Y0249850D01*
X0453692Y0250573D01*
X0455029Y0251910D01*
X0455708Y0253548D02*
X0484071Y0253548D01*
X0484071Y0255547D02*
X0455753Y0255547D01*
X0454778Y0257546D02*
X0484071Y0257546D01*
X0515255Y0241557D02*
X0523441Y0241557D01*
X0523441Y0239559D02*
X0516319Y0239559D01*
X0516383Y0237560D02*
X0523441Y0237560D01*
X0523441Y0235562D02*
X0515453Y0235562D01*
X0531315Y0233563D02*
X0587807Y0233563D01*
X0586581Y0231565D02*
X0531315Y0231565D01*
X0531315Y0225569D02*
X0548316Y0225569D01*
X0546931Y0223571D02*
X0531315Y0223571D01*
X0532455Y0221572D02*
X0546641Y0221572D01*
X0547223Y0219574D02*
X0534454Y0219574D01*
X0536452Y0217575D02*
X0549476Y0217575D01*
X0540449Y0213578D02*
X0648740Y0213578D01*
X0648609Y0215577D02*
X0538451Y0215577D01*
X0523441Y0205584D02*
X0519652Y0205584D01*
X0520320Y0203586D02*
X0523441Y0203586D01*
X0523441Y0201587D02*
X0520115Y0201587D01*
X0518849Y0199589D02*
X0523441Y0199589D01*
X0554919Y0167613D02*
X0688795Y0167613D01*
X0686815Y0165614D02*
X0627784Y0165614D01*
X0629782Y0163615D02*
X0684816Y0163615D01*
X0682818Y0161617D02*
X0631781Y0161617D01*
X0633677Y0159618D02*
X0680819Y0159618D01*
X0678821Y0157620D02*
X0633677Y0157620D01*
X0633677Y0155621D02*
X0668948Y0155621D01*
X0666950Y0153623D02*
X0633677Y0153623D01*
X0633677Y0151624D02*
X0664951Y0151624D01*
X0662953Y0149626D02*
X0633677Y0149626D01*
X0633677Y0147627D02*
X0638485Y0147627D01*
X0638859Y0148002D02*
X0637522Y0146665D01*
X0636798Y0144918D01*
X0636798Y0143027D01*
X0637522Y0141280D01*
X0638859Y0139943D01*
X0640606Y0139220D01*
X0642497Y0139220D01*
X0644243Y0139943D01*
X0645580Y0141280D01*
X0646304Y0143027D01*
X0646304Y0144918D01*
X0645580Y0146665D01*
X0644243Y0148002D01*
X0642497Y0148725D01*
X0640606Y0148725D01*
X0638859Y0148002D01*
X0637093Y0145629D02*
X0633677Y0145629D01*
X0633677Y0143630D02*
X0636798Y0143630D01*
X0637376Y0141632D02*
X0633677Y0141632D01*
X0633677Y0139633D02*
X0639607Y0139633D01*
X0643495Y0139633D02*
X0661236Y0139633D01*
X0661236Y0137635D02*
X0633677Y0137635D01*
X0633677Y0135636D02*
X0661236Y0135636D01*
X0661236Y0133638D02*
X0633677Y0133638D01*
X0633677Y0131639D02*
X0660714Y0131639D01*
X0658716Y0129641D02*
X0633677Y0129641D01*
X0633095Y0127642D02*
X0656717Y0127642D01*
X0654719Y0125644D02*
X0631097Y0125644D01*
X0645726Y0141632D02*
X0661236Y0141632D01*
X0661224Y0143630D02*
X0646304Y0143630D01*
X0646009Y0145629D02*
X0661236Y0145629D01*
X0661236Y0147627D02*
X0644618Y0147627D01*
X0672260Y0175469D02*
X0672260Y0191217D01*
X0675803Y0194760D01*
X0657299Y0195592D02*
X0756628Y0195592D01*
X0756628Y0197590D02*
X0657299Y0197590D01*
X0657299Y0199589D02*
X0756628Y0199589D01*
X0756628Y0201587D02*
X0657299Y0201587D01*
X0657299Y0203586D02*
X0756628Y0203586D01*
X0756628Y0205584D02*
X0657299Y0205584D01*
X0657299Y0207583D02*
X0756628Y0207583D01*
X0756628Y0209581D02*
X0657299Y0209581D01*
X0657299Y0211580D02*
X0657774Y0211580D01*
X0664699Y0211580D02*
X0665648Y0211580D01*
X0672573Y0211580D02*
X0756628Y0211580D01*
X0756628Y0213578D02*
X0673733Y0213578D01*
X0673863Y0215577D02*
X0756628Y0215577D01*
X0756628Y0217575D02*
X0673095Y0217575D01*
X0672693Y0219574D02*
X0756628Y0219574D01*
X0756628Y0221572D02*
X0673782Y0221572D01*
X0673863Y0223571D02*
X0706319Y0223571D01*
X0705977Y0223712D02*
X0708087Y0222839D01*
X0710370Y0222839D01*
X0712480Y0223712D01*
X0714095Y0225327D01*
X0714228Y0225650D01*
X0714362Y0225327D01*
X0715977Y0223712D01*
X0718087Y0222839D01*
X0720370Y0222839D01*
X0722480Y0223712D01*
X0724095Y0225327D01*
X0724228Y0225650D01*
X0724362Y0225327D01*
X0725977Y0223712D01*
X0728087Y0222839D01*
X0730370Y0222839D01*
X0732480Y0223712D01*
X0734095Y0225327D01*
X0734228Y0225650D01*
X0734362Y0225327D01*
X0735977Y0223712D01*
X0738087Y0222839D01*
X0740370Y0222839D01*
X0742480Y0223712D01*
X0744095Y0225327D01*
X0744968Y0227437D01*
X0744968Y0229721D01*
X0744095Y0231830D01*
X0742480Y0233445D01*
X0740370Y0234319D01*
X0738087Y0234319D01*
X0735977Y0233445D01*
X0734362Y0231830D01*
X0734228Y0231507D01*
X0734095Y0231830D01*
X0732480Y0233445D01*
X0730370Y0234319D01*
X0728087Y0234319D01*
X0725977Y0233445D01*
X0724362Y0231830D01*
X0724228Y0231507D01*
X0724095Y0231830D01*
X0722480Y0233445D01*
X0720370Y0234319D01*
X0718087Y0234319D01*
X0715977Y0233445D01*
X0714362Y0231830D01*
X0714228Y0231507D01*
X0714095Y0231830D01*
X0712480Y0233445D01*
X0710370Y0234319D01*
X0708087Y0234319D01*
X0705977Y0233445D01*
X0704362Y0231830D01*
X0703488Y0229721D01*
X0703488Y0227437D01*
X0704362Y0225327D01*
X0705977Y0223712D01*
X0704262Y0225569D02*
X0672975Y0225569D01*
X0672813Y0227568D02*
X0703488Y0227568D01*
X0703488Y0229566D02*
X0673832Y0229566D01*
X0673849Y0231565D02*
X0704252Y0231565D01*
X0706263Y0233563D02*
X0672855Y0233563D01*
X0665366Y0233563D02*
X0664981Y0233563D01*
X0657492Y0233563D02*
X0657299Y0233563D01*
X0657299Y0235562D02*
X0756628Y0235562D01*
X0756628Y0237560D02*
X0657299Y0237560D01*
X0657299Y0239559D02*
X0756628Y0239559D01*
X0756628Y0241557D02*
X0657299Y0241557D01*
X0657299Y0243556D02*
X0756628Y0243556D01*
X0756628Y0245554D02*
X0657299Y0245554D01*
X0657299Y0247553D02*
X0756628Y0247553D01*
X0756628Y0249551D02*
X0657299Y0249551D01*
X0657299Y0251550D02*
X0756628Y0251550D01*
X0756628Y0253548D02*
X0657299Y0253548D01*
X0657299Y0255547D02*
X0756628Y0255547D01*
X0756628Y0257546D02*
X0657299Y0257546D01*
X0657299Y0259544D02*
X0756628Y0259544D01*
X0756628Y0261543D02*
X0657299Y0261543D01*
X0657299Y0263541D02*
X0756628Y0263541D01*
X0756628Y0265540D02*
X0657299Y0265540D01*
X0657299Y0267538D02*
X0756628Y0267538D01*
X0756628Y0269537D02*
X0657299Y0269537D01*
X0657299Y0271535D02*
X0756628Y0271535D01*
X0756628Y0273534D02*
X0657299Y0273534D01*
X0657299Y0275532D02*
X0756628Y0275532D01*
X0756628Y0277531D02*
X0657299Y0277531D01*
X0657299Y0279529D02*
X0756628Y0279529D01*
X0756628Y0281528D02*
X0657299Y0281528D01*
X0657299Y0283526D02*
X0756628Y0283526D01*
X0756628Y0285525D02*
X0657299Y0285525D01*
X0657299Y0287523D02*
X0756628Y0287523D01*
X0756628Y0289522D02*
X0657299Y0289522D01*
X0657299Y0291520D02*
X0756628Y0291520D01*
X0756628Y0293519D02*
X0657299Y0293519D01*
X0657299Y0295517D02*
X0756628Y0295517D01*
X0756628Y0297516D02*
X0657299Y0297516D01*
X0657299Y0299514D02*
X0756628Y0299514D01*
X0756628Y0301513D02*
X0657299Y0301513D01*
X0657299Y0303511D02*
X0756628Y0303511D01*
X0756628Y0305510D02*
X0657299Y0305510D01*
X0657299Y0307508D02*
X0756628Y0307508D01*
X0756628Y0309507D02*
X0657299Y0309507D01*
X0657299Y0311505D02*
X0756628Y0311505D01*
X0756628Y0313504D02*
X0657299Y0313504D01*
X0657299Y0315502D02*
X0756628Y0315502D01*
X0756628Y0317501D02*
X0657299Y0317501D01*
X0657299Y0319499D02*
X0756628Y0319499D01*
X0756628Y0321498D02*
X0657299Y0321498D01*
X0657299Y0323496D02*
X0756628Y0323496D01*
X0756628Y0325495D02*
X0657299Y0325495D01*
X0657299Y0327493D02*
X0756628Y0327493D01*
X0756628Y0329492D02*
X0657299Y0329492D01*
X0657299Y0331490D02*
X0756628Y0331490D01*
X0756628Y0333489D02*
X0657299Y0333489D01*
X0657299Y0335487D02*
X0756628Y0335487D01*
X0756628Y0337486D02*
X0657299Y0337486D01*
X0657299Y0339484D02*
X0756628Y0339484D01*
X0756628Y0341483D02*
X0657299Y0341483D01*
X0657299Y0343482D02*
X0756628Y0343482D01*
X0756628Y0345480D02*
X0657299Y0345480D01*
X0657299Y0347479D02*
X0756628Y0347479D01*
X0756628Y0349477D02*
X0657299Y0349477D01*
X0657299Y0351476D02*
X0756628Y0351476D01*
X0756628Y0353474D02*
X0657299Y0353474D01*
X0657299Y0355473D02*
X0756628Y0355473D01*
X0756628Y0357471D02*
X0657299Y0357471D01*
X0657299Y0359470D02*
X0756628Y0359470D01*
X0756628Y0361468D02*
X0657299Y0361468D01*
X0657299Y0363467D02*
X0756628Y0363467D01*
X0756628Y0365465D02*
X0657299Y0365465D01*
X0657299Y0367464D02*
X0756628Y0367464D01*
X0756628Y0369462D02*
X0657299Y0369462D01*
X0657299Y0371461D02*
X0756628Y0371461D01*
X0756628Y0373459D02*
X0657299Y0373459D01*
X0657299Y0375458D02*
X0756628Y0375458D01*
X0756628Y0377456D02*
X0657299Y0377456D01*
X0657299Y0379455D02*
X0756628Y0379455D01*
X0756628Y0381453D02*
X0657299Y0381453D01*
X0657299Y0383452D02*
X0756628Y0383452D01*
X0756628Y0385450D02*
X0657299Y0385450D01*
X0657299Y0387449D02*
X0756628Y0387449D01*
X0756628Y0389447D02*
X0657299Y0389447D01*
X0657299Y0391446D02*
X0756628Y0391446D01*
X0756628Y0393444D02*
X0657299Y0393444D01*
X0657299Y0395443D02*
X0718579Y0395443D01*
X0719346Y0395125D02*
X0721237Y0395125D01*
X0722984Y0395849D01*
X0724321Y0397186D01*
X0725044Y0398933D01*
X0725044Y0400823D01*
X0724321Y0402570D01*
X0722984Y0403907D01*
X0721237Y0404631D01*
X0719346Y0404631D01*
X0717599Y0403907D01*
X0716262Y0402570D01*
X0715539Y0400823D01*
X0715539Y0398933D01*
X0716262Y0397186D01*
X0717599Y0395849D01*
X0719346Y0395125D01*
X0722003Y0395443D02*
X0740787Y0395443D01*
X0740885Y0395345D02*
X0742850Y0394531D01*
X0744977Y0394531D01*
X0746942Y0395345D01*
X0748446Y0396849D01*
X0749260Y0398814D01*
X0749260Y0400941D01*
X0748446Y0402906D01*
X0747537Y0403815D01*
X0748446Y0404723D01*
X0749260Y0406688D01*
X0749260Y0408815D01*
X0748446Y0410780D01*
X0746942Y0412284D01*
X0746816Y0412337D01*
X0747253Y0412774D01*
X0747658Y0413331D01*
X0747971Y0413945D01*
X0748184Y0414601D01*
X0748291Y0415281D01*
X0748291Y0415626D01*
X0748291Y0415971D01*
X0748184Y0416651D01*
X0747971Y0417307D01*
X0747658Y0417921D01*
X0747253Y0418478D01*
X0746816Y0418915D01*
X0746942Y0418967D01*
X0748446Y0420471D01*
X0749260Y0422437D01*
X0749260Y0424563D01*
X0748446Y0426529D01*
X0746942Y0428032D01*
X0744977Y0428846D01*
X0742850Y0428846D01*
X0740885Y0428032D01*
X0739381Y0426529D01*
X0738567Y0424563D01*
X0738567Y0422437D01*
X0739381Y0420471D01*
X0740885Y0418967D01*
X0741011Y0418915D01*
X0740574Y0418478D01*
X0740169Y0417921D01*
X0739856Y0417307D01*
X0739643Y0416651D01*
X0739535Y0415971D01*
X0739535Y0415626D01*
X0739535Y0415281D01*
X0739643Y0414601D01*
X0739856Y0413945D01*
X0740169Y0413331D01*
X0740574Y0412774D01*
X0741011Y0412337D01*
X0740885Y0412284D01*
X0739381Y0410780D01*
X0738567Y0408815D01*
X0738567Y0406688D01*
X0739381Y0404723D01*
X0740289Y0403815D01*
X0739381Y0402906D01*
X0738567Y0400941D01*
X0738567Y0398814D01*
X0739381Y0396849D01*
X0740885Y0395345D01*
X0739136Y0397441D02*
X0724426Y0397441D01*
X0725044Y0399440D02*
X0738567Y0399440D01*
X0738773Y0401438D02*
X0724789Y0401438D01*
X0723454Y0403437D02*
X0739911Y0403437D01*
X0739086Y0405435D02*
X0657299Y0405435D01*
X0657299Y0403437D02*
X0717129Y0403437D01*
X0715793Y0401438D02*
X0657299Y0401438D01*
X0657299Y0399440D02*
X0715539Y0399440D01*
X0716156Y0397441D02*
X0657299Y0397441D01*
X0657299Y0407434D02*
X0738567Y0407434D01*
X0738822Y0409432D02*
X0657299Y0409432D01*
X0657299Y0411431D02*
X0740031Y0411431D01*
X0740119Y0413429D02*
X0657299Y0413429D01*
X0657299Y0415428D02*
X0739535Y0415428D01*
X0739535Y0415626D02*
X0743913Y0415626D01*
X0743913Y0415626D01*
X0739535Y0415626D01*
X0739917Y0417426D02*
X0657299Y0417426D01*
X0657299Y0419425D02*
X0662592Y0419425D01*
X0662481Y0419471D02*
X0664228Y0418747D01*
X0666119Y0418747D01*
X0667865Y0419471D01*
X0669202Y0420808D01*
X0669926Y0422555D01*
X0669926Y0424445D01*
X0669202Y0426192D01*
X0667865Y0427529D01*
X0666119Y0428253D01*
X0664228Y0428253D01*
X0662481Y0427529D01*
X0661144Y0426192D01*
X0660420Y0424445D01*
X0660420Y0422555D01*
X0661144Y0420808D01*
X0662481Y0419471D01*
X0660889Y0421423D02*
X0657299Y0421423D01*
X0657299Y0423422D02*
X0660420Y0423422D01*
X0660824Y0425420D02*
X0657299Y0425420D01*
X0657299Y0427419D02*
X0662371Y0427419D01*
X0657299Y0429417D02*
X0756628Y0429417D01*
X0756628Y0427419D02*
X0747555Y0427419D01*
X0748905Y0425420D02*
X0756628Y0425420D01*
X0756628Y0423422D02*
X0749260Y0423422D01*
X0748840Y0421423D02*
X0756628Y0421423D01*
X0756628Y0419425D02*
X0747399Y0419425D01*
X0747909Y0417426D02*
X0756628Y0417426D01*
X0756628Y0415428D02*
X0748291Y0415428D01*
X0748291Y0415626D02*
X0743914Y0415626D01*
X0748291Y0415626D01*
X0747708Y0413429D02*
X0756628Y0413429D01*
X0756628Y0411431D02*
X0747795Y0411431D01*
X0749004Y0409432D02*
X0756628Y0409432D01*
X0756628Y0407434D02*
X0749260Y0407434D01*
X0748741Y0405435D02*
X0756628Y0405435D01*
X0756628Y0403437D02*
X0747916Y0403437D01*
X0749054Y0401438D02*
X0756628Y0401438D01*
X0756628Y0399440D02*
X0749260Y0399440D01*
X0748691Y0397441D02*
X0756628Y0397441D01*
X0756628Y0395443D02*
X0747039Y0395443D01*
X0743914Y0415626D02*
X0743914Y0415626D01*
X0743913Y0415626D02*
X0700606Y0372319D01*
X0691945Y0363657D01*
X0634059Y0355473D02*
X0562430Y0355473D01*
X0562939Y0357471D02*
X0633550Y0357471D01*
X0632719Y0353474D02*
X0563770Y0353474D01*
X0564213Y0351476D02*
X0578947Y0351476D01*
X0579410Y0351939D02*
X0578073Y0350602D01*
X0577350Y0348855D01*
X0577350Y0346964D01*
X0578073Y0345217D01*
X0579410Y0343880D01*
X0581157Y0343157D01*
X0583048Y0343157D01*
X0584795Y0343880D01*
X0586132Y0345217D01*
X0586855Y0346964D01*
X0586855Y0348855D01*
X0586132Y0350602D01*
X0584795Y0351939D01*
X0583048Y0352662D01*
X0581157Y0352662D01*
X0579410Y0351939D01*
X0577607Y0349477D02*
X0563983Y0349477D01*
X0562946Y0347479D02*
X0577350Y0347479D01*
X0577964Y0345480D02*
X0562422Y0345480D01*
X0563766Y0343482D02*
X0580373Y0343482D01*
X0583832Y0343482D02*
X0632722Y0343482D01*
X0632276Y0341483D02*
X0564213Y0341483D01*
X0563987Y0339484D02*
X0632502Y0339484D01*
X0633535Y0337486D02*
X0562953Y0337486D01*
X0562415Y0335487D02*
X0634073Y0335487D01*
X0632725Y0333489D02*
X0563763Y0333489D01*
X0564213Y0331490D02*
X0632276Y0331490D01*
X0632498Y0329492D02*
X0563990Y0329492D01*
X0562961Y0327493D02*
X0633527Y0327493D01*
X0634081Y0325495D02*
X0562407Y0325495D01*
X0563760Y0323496D02*
X0632728Y0323496D01*
X0634066Y0345480D02*
X0586240Y0345480D01*
X0586855Y0347479D02*
X0633542Y0347479D01*
X0632505Y0349477D02*
X0586597Y0349477D01*
X0585258Y0351476D02*
X0632276Y0351476D01*
X0552716Y0363467D02*
X0453553Y0363467D01*
X0463726Y0341483D02*
X0349552Y0341483D01*
X0351551Y0339484D02*
X0465724Y0339484D01*
X0467723Y0337486D02*
X0353549Y0337486D01*
X0355548Y0335487D02*
X0469721Y0335487D01*
X0471720Y0333489D02*
X0357546Y0333489D01*
X0359545Y0331490D02*
X0473718Y0331490D01*
X0475717Y0329492D02*
X0361544Y0329492D01*
X0363542Y0327493D02*
X0477715Y0327493D01*
X0479714Y0325495D02*
X0365541Y0325495D01*
X0367539Y0323496D02*
X0481712Y0323496D01*
X0483711Y0321498D02*
X0369538Y0321498D01*
X0371536Y0319499D02*
X0485709Y0319499D01*
X0487708Y0317501D02*
X0373535Y0317501D01*
X0430651Y0315502D02*
X0489706Y0315502D01*
X0491705Y0313504D02*
X0432650Y0313504D01*
X0434648Y0311505D02*
X0493703Y0311505D01*
X0495702Y0309507D02*
X0436647Y0309507D01*
X0438645Y0307508D02*
X0497700Y0307508D01*
X0499699Y0305510D02*
X0440644Y0305510D01*
X0442642Y0303511D02*
X0501697Y0303511D01*
X0503696Y0301513D02*
X0444641Y0301513D01*
X0444701Y0299514D02*
X0505694Y0299514D01*
X0507693Y0297516D02*
X0444701Y0297516D01*
X0446819Y0287523D02*
X0482318Y0287523D01*
X0481310Y0285525D02*
X0480314Y0285525D01*
X0447222Y0257546D02*
X0415408Y0257546D01*
X0415659Y0257295D02*
X0414322Y0258632D01*
X0412575Y0259355D01*
X0410685Y0259355D01*
X0408938Y0258632D01*
X0407601Y0257295D01*
X0406877Y0255548D01*
X0406877Y0253657D01*
X0407601Y0251910D01*
X0408938Y0250573D01*
X0410685Y0249850D01*
X0412575Y0249850D01*
X0414322Y0250573D01*
X0415659Y0251910D01*
X0416383Y0253657D01*
X0416383Y0255548D01*
X0415659Y0257295D01*
X0416383Y0255547D02*
X0446247Y0255547D01*
X0446292Y0253548D02*
X0416338Y0253548D01*
X0415299Y0251550D02*
X0447331Y0251550D01*
X0429007Y0239559D02*
X0427961Y0239559D01*
X0407961Y0251550D02*
X0401500Y0251550D01*
X0402209Y0253548D02*
X0406922Y0253548D01*
X0406877Y0255547D02*
X0402047Y0255547D01*
X0400841Y0257546D02*
X0407852Y0257546D01*
X0320725Y0179604D02*
X0317762Y0179604D01*
X0584629Y0229566D02*
X0586405Y0229566D01*
X0586377Y0227568D02*
X0587100Y0227568D01*
X0657299Y0193593D02*
X0756628Y0193593D01*
X0756103Y0191595D02*
X0657299Y0191595D01*
X0692990Y0183601D02*
X0756628Y0183601D01*
X0756628Y0185599D02*
X0694989Y0185599D01*
X0692732Y0181602D02*
X0756628Y0181602D01*
X0756628Y0179604D02*
X0692732Y0179604D01*
X0712138Y0223571D02*
X0716319Y0223571D01*
X0714262Y0225569D02*
X0714195Y0225569D01*
X0714205Y0231565D02*
X0714252Y0231565D01*
X0716263Y0233563D02*
X0712194Y0233563D01*
X0722194Y0233563D02*
X0726263Y0233563D01*
X0724252Y0231565D02*
X0724205Y0231565D01*
X0724195Y0225569D02*
X0724262Y0225569D01*
X0726319Y0223571D02*
X0722138Y0223571D01*
X0732138Y0223571D02*
X0736319Y0223571D01*
X0734262Y0225569D02*
X0734195Y0225569D01*
X0734205Y0231565D02*
X0734252Y0231565D01*
X0736263Y0233563D02*
X0732194Y0233563D01*
X0742194Y0233563D02*
X0756628Y0233563D01*
X0756628Y0231565D02*
X0744205Y0231565D01*
X0744968Y0229566D02*
X0756628Y0229566D01*
X0756628Y0227568D02*
X0744968Y0227568D01*
X0744195Y0225569D02*
X0756628Y0225569D01*
X0756628Y0223571D02*
X0742138Y0223571D01*
X0694980Y0123568D02*
X0694980Y0123568D01*
X0667755Y0419425D02*
X0740427Y0419425D01*
X0738987Y0421423D02*
X0669457Y0421423D01*
X0669926Y0423422D02*
X0738567Y0423422D01*
X0738922Y0425420D02*
X0669522Y0425420D01*
X0667976Y0427419D02*
X0740271Y0427419D01*
X0756628Y0431416D02*
X0657299Y0431416D01*
X0657299Y0433415D02*
X0756628Y0433415D01*
X0756628Y0435413D02*
X0657299Y0435413D01*
X0657299Y0437412D02*
X0756628Y0437412D01*
X0756628Y0439410D02*
X0657299Y0439410D01*
X0657299Y0441409D02*
X0669708Y0441409D01*
X0672450Y0441409D02*
X0756628Y0441409D01*
X0756628Y0443407D02*
X0677145Y0443407D01*
X0665013Y0443407D02*
X0657299Y0443407D01*
X0657299Y0445406D02*
X0663151Y0445406D01*
X0661883Y0447404D02*
X0657299Y0447404D01*
X0657299Y0449403D02*
X0661485Y0449403D01*
X0661224Y0451401D02*
X0657299Y0451401D01*
X0657299Y0453400D02*
X0661621Y0453400D01*
X0662273Y0455398D02*
X0657299Y0455398D01*
X0657299Y0457397D02*
X0663608Y0457397D01*
X0666036Y0459395D02*
X0656837Y0459395D01*
X0654839Y0461394D02*
X0756628Y0461394D01*
X0756628Y0463392D02*
X0652840Y0463392D01*
X0650842Y0465391D02*
X0756628Y0465391D01*
X0756628Y0467389D02*
X0648843Y0467389D01*
X0646845Y0469388D02*
X0698574Y0469388D01*
X0699262Y0468991D02*
X0704039Y0467711D01*
X0699262Y0468991D02*
X0699262Y0468991D01*
X0694980Y0471463D01*
X0694980Y0471463D01*
X0693730Y0472713D01*
X0692732Y0472713D01*
X0692732Y0473711D01*
X0691483Y0474960D01*
X0691483Y0474960D01*
X0689010Y0479243D01*
X0689010Y0479243D01*
X0687730Y0484019D01*
X0687730Y0532671D01*
X0365961Y0532671D01*
X0365961Y0486492D01*
X0377772Y0474681D01*
X0431283Y0474681D01*
X0431283Y0475784D01*
X0432127Y0477821D01*
X0432924Y0478618D01*
X0432127Y0479415D01*
X0431283Y0481452D01*
X0431283Y0483658D01*
X0432127Y0485695D01*
X0432924Y0486492D01*
X0432127Y0487289D01*
X0431283Y0489326D01*
X0431283Y0491532D01*
X0432127Y0493569D01*
X0432924Y0494366D01*
X0432127Y0495163D01*
X0431283Y0497201D01*
X0431283Y0499406D01*
X0432127Y0501443D01*
X0433609Y0502925D01*
X0433337Y0503197D01*
X0432914Y0503779D01*
X0432587Y0504421D01*
X0432365Y0505106D01*
X0432252Y0505817D01*
X0432252Y0506177D01*
X0436827Y0506177D01*
X0436827Y0506177D01*
X0436827Y0506177D01*
X0436827Y0510752D01*
X0436467Y0510752D01*
X0435755Y0510639D01*
X0435071Y0510417D01*
X0434429Y0510090D01*
X0433846Y0509667D01*
X0433337Y0509157D01*
X0432914Y0508575D01*
X0432587Y0507933D01*
X0432365Y0507248D01*
X0432252Y0506537D01*
X0432252Y0506177D01*
X0436827Y0506177D01*
X0436827Y0507359D02*
X0436827Y0507359D01*
X0436827Y0509358D02*
X0436827Y0509358D01*
X0440116Y0509358D02*
X0518782Y0509358D01*
X0517931Y0507359D02*
X0441253Y0507359D01*
X0441329Y0505361D02*
X0517898Y0505361D01*
X0518607Y0503362D02*
X0440436Y0503362D01*
X0441559Y0501364D02*
X0518709Y0501364D01*
X0517898Y0499365D02*
X0442370Y0499365D01*
X0442370Y0497367D02*
X0517898Y0497367D01*
X0518657Y0495368D02*
X0441611Y0495368D01*
X0441609Y0493370D02*
X0518659Y0493370D01*
X0517898Y0491371D02*
X0442370Y0491371D01*
X0442370Y0489373D02*
X0517898Y0489373D01*
X0518706Y0487374D02*
X0441561Y0487374D01*
X0441658Y0485376D02*
X0518609Y0485376D01*
X0517898Y0483377D02*
X0442370Y0483377D01*
X0442340Y0481379D02*
X0517928Y0481379D01*
X0518776Y0479380D02*
X0441491Y0479380D01*
X0441708Y0477382D02*
X0518560Y0477382D01*
X0517898Y0475383D02*
X0442370Y0475383D01*
X0431945Y0477382D02*
X0375071Y0477382D01*
X0373072Y0479380D02*
X0432162Y0479380D01*
X0431314Y0481379D02*
X0371074Y0481379D01*
X0369075Y0483377D02*
X0431283Y0483377D01*
X0431995Y0485376D02*
X0367077Y0485376D01*
X0365961Y0487374D02*
X0432092Y0487374D01*
X0431283Y0489373D02*
X0365961Y0489373D01*
X0365961Y0491371D02*
X0431283Y0491371D01*
X0432045Y0493370D02*
X0365961Y0493370D01*
X0365961Y0495368D02*
X0432042Y0495368D01*
X0431283Y0497367D02*
X0365961Y0497367D01*
X0365961Y0499365D02*
X0431283Y0499365D01*
X0432095Y0501364D02*
X0365961Y0501364D01*
X0365961Y0503362D02*
X0433217Y0503362D01*
X0432324Y0505361D02*
X0365961Y0505361D01*
X0365961Y0507359D02*
X0432401Y0507359D01*
X0433538Y0509358D02*
X0365961Y0509358D01*
X0365961Y0511356D02*
X0521460Y0511356D01*
X0525422Y0511356D02*
X0687730Y0511356D01*
X0687730Y0509358D02*
X0528100Y0509358D01*
X0528951Y0507359D02*
X0687730Y0507359D01*
X0687730Y0505361D02*
X0528984Y0505361D01*
X0528275Y0503362D02*
X0687730Y0503362D01*
X0687730Y0501364D02*
X0528173Y0501364D01*
X0528984Y0499365D02*
X0687730Y0499365D01*
X0687730Y0497367D02*
X0528984Y0497367D01*
X0528225Y0495368D02*
X0687730Y0495368D01*
X0687730Y0493370D02*
X0528223Y0493370D01*
X0528984Y0491371D02*
X0687730Y0491371D01*
X0687730Y0489373D02*
X0528984Y0489373D01*
X0528176Y0487374D02*
X0687730Y0487374D01*
X0687730Y0485376D02*
X0528273Y0485376D01*
X0528984Y0483377D02*
X0687902Y0483377D01*
X0688438Y0481379D02*
X0528954Y0481379D01*
X0528106Y0479380D02*
X0688973Y0479380D01*
X0690085Y0477382D02*
X0528322Y0477382D01*
X0528984Y0475383D02*
X0691239Y0475383D01*
X0692732Y0473385D02*
X0642848Y0473385D01*
X0644846Y0471386D02*
X0695113Y0471386D01*
X0678549Y0457397D02*
X0756628Y0457397D01*
X0756628Y0459395D02*
X0676121Y0459395D01*
X0633984Y0455398D02*
X0562504Y0455398D01*
X0563800Y0453400D02*
X0632688Y0453400D01*
X0632276Y0451401D02*
X0564213Y0451401D01*
X0563953Y0449403D02*
X0632536Y0449403D01*
X0633617Y0447404D02*
X0562872Y0447404D01*
X0562497Y0445406D02*
X0635502Y0445406D01*
X0687730Y0513355D02*
X0365961Y0513355D01*
X0365961Y0515353D02*
X0687730Y0515353D01*
X0687730Y0517352D02*
X0365961Y0517352D01*
X0365961Y0519351D02*
X0687730Y0519351D01*
X0687730Y0521349D02*
X0365961Y0521349D01*
X0365961Y0523348D02*
X0687730Y0523348D01*
X0687730Y0525346D02*
X0365961Y0525346D01*
X0365961Y0527345D02*
X0687730Y0527345D01*
X0687730Y0529343D02*
X0365961Y0529343D01*
X0365961Y0531342D02*
X0687730Y0531342D01*
X0431283Y0475383D02*
X0377070Y0475383D01*
X0423457Y0443407D02*
X0431283Y0443407D01*
X0431563Y0441409D02*
X0425328Y0441409D01*
X0425831Y0439410D02*
X0432762Y0439410D01*
X0431697Y0437412D02*
X0425462Y0437412D01*
M02*
