G75*
%MOIN*%
%OFA0B0*%
%FSLAX25Y25*%
%IPPOS*%
%LPD*%
%AMOC8*
5,1,8,0,0,1.08239X$1,22.5*
%
%ADD10C,0.00004*%
%ADD11C,0.00000*%
D10*
X0086433Y0057358D02*
X0692732Y0057358D01*
X0692732Y0108539D01*
X0692736Y0108872D01*
X0692748Y0109205D01*
X0692768Y0109537D01*
X0692796Y0109869D01*
X0692832Y0110200D01*
X0692877Y0110530D01*
X0692929Y0110859D01*
X0692989Y0111187D01*
X0693057Y0111513D01*
X0693132Y0111837D01*
X0693216Y0112159D01*
X0693307Y0112479D01*
X0693406Y0112797D01*
X0693513Y0113113D01*
X0693627Y0113425D01*
X0693749Y0113735D01*
X0693879Y0114042D01*
X0694015Y0114346D01*
X0694159Y0114646D01*
X0694310Y0114943D01*
X0694469Y0115236D01*
X0694634Y0115525D01*
X0694806Y0115810D01*
X0694985Y0116091D01*
X0695171Y0116367D01*
X0695364Y0116639D01*
X0695563Y0116906D01*
X0695768Y0117168D01*
X0695980Y0117425D01*
X0696198Y0117677D01*
X0696421Y0117923D01*
X0696651Y0118164D01*
X0696887Y0118400D01*
X0697128Y0118630D01*
X0697374Y0118853D01*
X0697626Y0119071D01*
X0697883Y0119283D01*
X0698145Y0119488D01*
X0698412Y0119687D01*
X0698684Y0119880D01*
X0698960Y0120066D01*
X0699241Y0120245D01*
X0699526Y0120417D01*
X0699815Y0120582D01*
X0700108Y0120741D01*
X0700405Y0120892D01*
X0700705Y0121036D01*
X0701009Y0121172D01*
X0701316Y0121302D01*
X0701626Y0121424D01*
X0701938Y0121538D01*
X0702254Y0121645D01*
X0702572Y0121744D01*
X0702892Y0121835D01*
X0703214Y0121919D01*
X0703538Y0121994D01*
X0703864Y0122062D01*
X0704192Y0122122D01*
X0704521Y0122174D01*
X0704851Y0122219D01*
X0705182Y0122255D01*
X0705514Y0122283D01*
X0705846Y0122303D01*
X0706179Y0122315D01*
X0706512Y0122319D01*
X0761630Y0122319D01*
X0761630Y0472713D01*
X0706512Y0472713D01*
X0706512Y0472712D02*
X0706179Y0472716D01*
X0705846Y0472728D01*
X0705514Y0472748D01*
X0705182Y0472776D01*
X0704851Y0472812D01*
X0704521Y0472857D01*
X0704192Y0472909D01*
X0703864Y0472969D01*
X0703538Y0473037D01*
X0703214Y0473112D01*
X0702892Y0473196D01*
X0702572Y0473287D01*
X0702254Y0473386D01*
X0701938Y0473493D01*
X0701626Y0473607D01*
X0701316Y0473729D01*
X0701009Y0473859D01*
X0700705Y0473995D01*
X0700405Y0474139D01*
X0700108Y0474290D01*
X0699815Y0474449D01*
X0699526Y0474614D01*
X0699241Y0474786D01*
X0698960Y0474965D01*
X0698684Y0475151D01*
X0698412Y0475344D01*
X0698145Y0475543D01*
X0697883Y0475748D01*
X0697626Y0475960D01*
X0697374Y0476178D01*
X0697128Y0476401D01*
X0696887Y0476631D01*
X0696651Y0476867D01*
X0696421Y0477108D01*
X0696198Y0477354D01*
X0695980Y0477606D01*
X0695768Y0477863D01*
X0695563Y0478125D01*
X0695364Y0478392D01*
X0695171Y0478664D01*
X0694985Y0478940D01*
X0694806Y0479221D01*
X0694634Y0479506D01*
X0694469Y0479795D01*
X0694310Y0480088D01*
X0694159Y0480385D01*
X0694015Y0480685D01*
X0693879Y0480989D01*
X0693749Y0481296D01*
X0693627Y0481606D01*
X0693513Y0481918D01*
X0693406Y0482234D01*
X0693307Y0482552D01*
X0693216Y0482872D01*
X0693132Y0483194D01*
X0693057Y0483518D01*
X0692989Y0483844D01*
X0692929Y0484172D01*
X0692877Y0484501D01*
X0692832Y0484831D01*
X0692796Y0485162D01*
X0692768Y0485494D01*
X0692748Y0485826D01*
X0692736Y0486159D01*
X0692732Y0486492D01*
X0692732Y0537673D01*
X0086433Y0537673D01*
X0086433Y0486492D01*
X0086434Y0486492D02*
X0086430Y0486159D01*
X0086418Y0485826D01*
X0086398Y0485494D01*
X0086370Y0485162D01*
X0086334Y0484831D01*
X0086289Y0484501D01*
X0086237Y0484172D01*
X0086177Y0483844D01*
X0086109Y0483518D01*
X0086034Y0483194D01*
X0085950Y0482872D01*
X0085859Y0482552D01*
X0085760Y0482234D01*
X0085653Y0481918D01*
X0085539Y0481606D01*
X0085417Y0481296D01*
X0085287Y0480989D01*
X0085151Y0480685D01*
X0085007Y0480385D01*
X0084856Y0480088D01*
X0084697Y0479795D01*
X0084532Y0479506D01*
X0084360Y0479221D01*
X0084181Y0478940D01*
X0083995Y0478664D01*
X0083802Y0478392D01*
X0083603Y0478125D01*
X0083398Y0477863D01*
X0083186Y0477606D01*
X0082968Y0477354D01*
X0082745Y0477108D01*
X0082515Y0476867D01*
X0082279Y0476631D01*
X0082038Y0476401D01*
X0081792Y0476178D01*
X0081540Y0475960D01*
X0081283Y0475748D01*
X0081021Y0475543D01*
X0080754Y0475344D01*
X0080482Y0475151D01*
X0080206Y0474965D01*
X0079925Y0474786D01*
X0079640Y0474614D01*
X0079351Y0474449D01*
X0079058Y0474290D01*
X0078761Y0474139D01*
X0078461Y0473995D01*
X0078157Y0473859D01*
X0077850Y0473729D01*
X0077540Y0473607D01*
X0077228Y0473493D01*
X0076912Y0473386D01*
X0076594Y0473287D01*
X0076274Y0473196D01*
X0075952Y0473112D01*
X0075628Y0473037D01*
X0075302Y0472969D01*
X0074974Y0472909D01*
X0074645Y0472857D01*
X0074315Y0472812D01*
X0073984Y0472776D01*
X0073652Y0472748D01*
X0073320Y0472728D01*
X0072987Y0472716D01*
X0072654Y0472712D01*
X0072654Y0472713D02*
X0017535Y0472713D01*
X0017535Y0122319D01*
X0072654Y0122319D01*
X0072987Y0122315D01*
X0073320Y0122303D01*
X0073652Y0122283D01*
X0073984Y0122255D01*
X0074315Y0122219D01*
X0074645Y0122174D01*
X0074974Y0122122D01*
X0075302Y0122062D01*
X0075628Y0121994D01*
X0075952Y0121919D01*
X0076274Y0121835D01*
X0076594Y0121744D01*
X0076912Y0121645D01*
X0077228Y0121538D01*
X0077540Y0121424D01*
X0077850Y0121302D01*
X0078157Y0121172D01*
X0078461Y0121036D01*
X0078761Y0120892D01*
X0079058Y0120741D01*
X0079351Y0120582D01*
X0079640Y0120417D01*
X0079925Y0120245D01*
X0080206Y0120066D01*
X0080482Y0119880D01*
X0080754Y0119687D01*
X0081021Y0119488D01*
X0081283Y0119283D01*
X0081540Y0119071D01*
X0081792Y0118853D01*
X0082038Y0118630D01*
X0082279Y0118400D01*
X0082515Y0118164D01*
X0082745Y0117923D01*
X0082968Y0117677D01*
X0083186Y0117425D01*
X0083398Y0117168D01*
X0083603Y0116906D01*
X0083802Y0116639D01*
X0083995Y0116367D01*
X0084181Y0116091D01*
X0084360Y0115810D01*
X0084532Y0115525D01*
X0084697Y0115236D01*
X0084856Y0114943D01*
X0085007Y0114646D01*
X0085151Y0114346D01*
X0085287Y0114042D01*
X0085417Y0113735D01*
X0085539Y0113425D01*
X0085653Y0113113D01*
X0085760Y0112797D01*
X0085859Y0112479D01*
X0085950Y0112159D01*
X0086034Y0111837D01*
X0086109Y0111513D01*
X0086177Y0111187D01*
X0086237Y0110859D01*
X0086289Y0110530D01*
X0086334Y0110200D01*
X0086370Y0109869D01*
X0086398Y0109537D01*
X0086418Y0109205D01*
X0086430Y0108872D01*
X0086434Y0108539D01*
X0086433Y0108539D02*
X0086433Y0057358D01*
X0103166Y0143972D02*
X0103168Y0144112D01*
X0103174Y0144252D01*
X0103184Y0144391D01*
X0103198Y0144530D01*
X0103216Y0144669D01*
X0103237Y0144807D01*
X0103263Y0144945D01*
X0103293Y0145082D01*
X0103326Y0145217D01*
X0103364Y0145352D01*
X0103405Y0145486D01*
X0103450Y0145619D01*
X0103498Y0145750D01*
X0103551Y0145879D01*
X0103607Y0146008D01*
X0103666Y0146134D01*
X0103730Y0146259D01*
X0103796Y0146382D01*
X0103867Y0146503D01*
X0103940Y0146622D01*
X0104017Y0146739D01*
X0104098Y0146853D01*
X0104181Y0146965D01*
X0104268Y0147075D01*
X0104358Y0147183D01*
X0104450Y0147287D01*
X0104546Y0147389D01*
X0104645Y0147489D01*
X0104746Y0147585D01*
X0104850Y0147679D01*
X0104957Y0147769D01*
X0105066Y0147856D01*
X0105178Y0147941D01*
X0105292Y0148022D01*
X0105408Y0148100D01*
X0105526Y0148174D01*
X0105647Y0148245D01*
X0105769Y0148313D01*
X0105894Y0148377D01*
X0106020Y0148438D01*
X0106147Y0148495D01*
X0106277Y0148548D01*
X0106408Y0148598D01*
X0106540Y0148643D01*
X0106673Y0148686D01*
X0106808Y0148724D01*
X0106943Y0148758D01*
X0107080Y0148789D01*
X0107217Y0148816D01*
X0107355Y0148838D01*
X0107494Y0148857D01*
X0107633Y0148872D01*
X0107772Y0148883D01*
X0107912Y0148890D01*
X0108052Y0148893D01*
X0108192Y0148892D01*
X0108332Y0148887D01*
X0108471Y0148878D01*
X0108611Y0148865D01*
X0108750Y0148848D01*
X0108888Y0148827D01*
X0109026Y0148803D01*
X0109163Y0148774D01*
X0109299Y0148742D01*
X0109434Y0148705D01*
X0109568Y0148665D01*
X0109701Y0148621D01*
X0109832Y0148573D01*
X0109962Y0148522D01*
X0110091Y0148467D01*
X0110218Y0148408D01*
X0110343Y0148345D01*
X0110466Y0148280D01*
X0110588Y0148210D01*
X0110707Y0148137D01*
X0110825Y0148061D01*
X0110940Y0147982D01*
X0111053Y0147899D01*
X0111163Y0147813D01*
X0111271Y0147724D01*
X0111376Y0147632D01*
X0111479Y0147537D01*
X0111579Y0147439D01*
X0111676Y0147339D01*
X0111770Y0147235D01*
X0111862Y0147129D01*
X0111950Y0147021D01*
X0112035Y0146910D01*
X0112117Y0146796D01*
X0112196Y0146680D01*
X0112271Y0146563D01*
X0112343Y0146443D01*
X0112411Y0146321D01*
X0112476Y0146197D01*
X0112538Y0146071D01*
X0112596Y0145944D01*
X0112650Y0145815D01*
X0112701Y0145684D01*
X0112747Y0145552D01*
X0112790Y0145419D01*
X0112830Y0145285D01*
X0112865Y0145150D01*
X0112897Y0145013D01*
X0112924Y0144876D01*
X0112948Y0144738D01*
X0112968Y0144600D01*
X0112984Y0144461D01*
X0112996Y0144321D01*
X0113004Y0144182D01*
X0113008Y0144042D01*
X0113008Y0143902D01*
X0113004Y0143762D01*
X0112996Y0143623D01*
X0112984Y0143483D01*
X0112968Y0143344D01*
X0112948Y0143206D01*
X0112924Y0143068D01*
X0112897Y0142931D01*
X0112865Y0142794D01*
X0112830Y0142659D01*
X0112790Y0142525D01*
X0112747Y0142392D01*
X0112701Y0142260D01*
X0112650Y0142129D01*
X0112596Y0142000D01*
X0112538Y0141873D01*
X0112476Y0141747D01*
X0112411Y0141623D01*
X0112343Y0141501D01*
X0112271Y0141381D01*
X0112196Y0141264D01*
X0112117Y0141148D01*
X0112035Y0141034D01*
X0111950Y0140923D01*
X0111862Y0140815D01*
X0111770Y0140709D01*
X0111676Y0140605D01*
X0111579Y0140505D01*
X0111479Y0140407D01*
X0111376Y0140312D01*
X0111271Y0140220D01*
X0111163Y0140131D01*
X0111053Y0140045D01*
X0110940Y0139962D01*
X0110825Y0139883D01*
X0110707Y0139807D01*
X0110588Y0139734D01*
X0110466Y0139664D01*
X0110343Y0139599D01*
X0110218Y0139536D01*
X0110091Y0139477D01*
X0109962Y0139422D01*
X0109832Y0139371D01*
X0109701Y0139323D01*
X0109568Y0139279D01*
X0109434Y0139239D01*
X0109299Y0139202D01*
X0109163Y0139170D01*
X0109026Y0139141D01*
X0108888Y0139117D01*
X0108750Y0139096D01*
X0108611Y0139079D01*
X0108471Y0139066D01*
X0108332Y0139057D01*
X0108192Y0139052D01*
X0108052Y0139051D01*
X0107912Y0139054D01*
X0107772Y0139061D01*
X0107633Y0139072D01*
X0107494Y0139087D01*
X0107355Y0139106D01*
X0107217Y0139128D01*
X0107080Y0139155D01*
X0106943Y0139186D01*
X0106808Y0139220D01*
X0106673Y0139258D01*
X0106540Y0139301D01*
X0106408Y0139346D01*
X0106277Y0139396D01*
X0106147Y0139449D01*
X0106020Y0139506D01*
X0105894Y0139567D01*
X0105769Y0139631D01*
X0105647Y0139699D01*
X0105526Y0139770D01*
X0105408Y0139844D01*
X0105292Y0139922D01*
X0105178Y0140003D01*
X0105066Y0140088D01*
X0104957Y0140175D01*
X0104850Y0140265D01*
X0104746Y0140359D01*
X0104645Y0140455D01*
X0104546Y0140555D01*
X0104450Y0140657D01*
X0104358Y0140761D01*
X0104268Y0140869D01*
X0104181Y0140979D01*
X0104098Y0141091D01*
X0104017Y0141205D01*
X0103940Y0141322D01*
X0103867Y0141441D01*
X0103796Y0141562D01*
X0103730Y0141685D01*
X0103666Y0141810D01*
X0103607Y0141936D01*
X0103551Y0142065D01*
X0103498Y0142194D01*
X0103450Y0142325D01*
X0103405Y0142458D01*
X0103364Y0142592D01*
X0103326Y0142727D01*
X0103293Y0142862D01*
X0103263Y0142999D01*
X0103237Y0143137D01*
X0103216Y0143275D01*
X0103198Y0143414D01*
X0103184Y0143553D01*
X0103174Y0143692D01*
X0103168Y0143832D01*
X0103166Y0143972D01*
X0103166Y0451059D02*
X0103168Y0451199D01*
X0103174Y0451339D01*
X0103184Y0451478D01*
X0103198Y0451617D01*
X0103216Y0451756D01*
X0103237Y0451894D01*
X0103263Y0452032D01*
X0103293Y0452169D01*
X0103326Y0452304D01*
X0103364Y0452439D01*
X0103405Y0452573D01*
X0103450Y0452706D01*
X0103498Y0452837D01*
X0103551Y0452966D01*
X0103607Y0453095D01*
X0103666Y0453221D01*
X0103730Y0453346D01*
X0103796Y0453469D01*
X0103867Y0453590D01*
X0103940Y0453709D01*
X0104017Y0453826D01*
X0104098Y0453940D01*
X0104181Y0454052D01*
X0104268Y0454162D01*
X0104358Y0454270D01*
X0104450Y0454374D01*
X0104546Y0454476D01*
X0104645Y0454576D01*
X0104746Y0454672D01*
X0104850Y0454766D01*
X0104957Y0454856D01*
X0105066Y0454943D01*
X0105178Y0455028D01*
X0105292Y0455109D01*
X0105408Y0455187D01*
X0105526Y0455261D01*
X0105647Y0455332D01*
X0105769Y0455400D01*
X0105894Y0455464D01*
X0106020Y0455525D01*
X0106147Y0455582D01*
X0106277Y0455635D01*
X0106408Y0455685D01*
X0106540Y0455730D01*
X0106673Y0455773D01*
X0106808Y0455811D01*
X0106943Y0455845D01*
X0107080Y0455876D01*
X0107217Y0455903D01*
X0107355Y0455925D01*
X0107494Y0455944D01*
X0107633Y0455959D01*
X0107772Y0455970D01*
X0107912Y0455977D01*
X0108052Y0455980D01*
X0108192Y0455979D01*
X0108332Y0455974D01*
X0108471Y0455965D01*
X0108611Y0455952D01*
X0108750Y0455935D01*
X0108888Y0455914D01*
X0109026Y0455890D01*
X0109163Y0455861D01*
X0109299Y0455829D01*
X0109434Y0455792D01*
X0109568Y0455752D01*
X0109701Y0455708D01*
X0109832Y0455660D01*
X0109962Y0455609D01*
X0110091Y0455554D01*
X0110218Y0455495D01*
X0110343Y0455432D01*
X0110466Y0455367D01*
X0110588Y0455297D01*
X0110707Y0455224D01*
X0110825Y0455148D01*
X0110940Y0455069D01*
X0111053Y0454986D01*
X0111163Y0454900D01*
X0111271Y0454811D01*
X0111376Y0454719D01*
X0111479Y0454624D01*
X0111579Y0454526D01*
X0111676Y0454426D01*
X0111770Y0454322D01*
X0111862Y0454216D01*
X0111950Y0454108D01*
X0112035Y0453997D01*
X0112117Y0453883D01*
X0112196Y0453767D01*
X0112271Y0453650D01*
X0112343Y0453530D01*
X0112411Y0453408D01*
X0112476Y0453284D01*
X0112538Y0453158D01*
X0112596Y0453031D01*
X0112650Y0452902D01*
X0112701Y0452771D01*
X0112747Y0452639D01*
X0112790Y0452506D01*
X0112830Y0452372D01*
X0112865Y0452237D01*
X0112897Y0452100D01*
X0112924Y0451963D01*
X0112948Y0451825D01*
X0112968Y0451687D01*
X0112984Y0451548D01*
X0112996Y0451408D01*
X0113004Y0451269D01*
X0113008Y0451129D01*
X0113008Y0450989D01*
X0113004Y0450849D01*
X0112996Y0450710D01*
X0112984Y0450570D01*
X0112968Y0450431D01*
X0112948Y0450293D01*
X0112924Y0450155D01*
X0112897Y0450018D01*
X0112865Y0449881D01*
X0112830Y0449746D01*
X0112790Y0449612D01*
X0112747Y0449479D01*
X0112701Y0449347D01*
X0112650Y0449216D01*
X0112596Y0449087D01*
X0112538Y0448960D01*
X0112476Y0448834D01*
X0112411Y0448710D01*
X0112343Y0448588D01*
X0112271Y0448468D01*
X0112196Y0448351D01*
X0112117Y0448235D01*
X0112035Y0448121D01*
X0111950Y0448010D01*
X0111862Y0447902D01*
X0111770Y0447796D01*
X0111676Y0447692D01*
X0111579Y0447592D01*
X0111479Y0447494D01*
X0111376Y0447399D01*
X0111271Y0447307D01*
X0111163Y0447218D01*
X0111053Y0447132D01*
X0110940Y0447049D01*
X0110825Y0446970D01*
X0110707Y0446894D01*
X0110588Y0446821D01*
X0110466Y0446751D01*
X0110343Y0446686D01*
X0110218Y0446623D01*
X0110091Y0446564D01*
X0109962Y0446509D01*
X0109832Y0446458D01*
X0109701Y0446410D01*
X0109568Y0446366D01*
X0109434Y0446326D01*
X0109299Y0446289D01*
X0109163Y0446257D01*
X0109026Y0446228D01*
X0108888Y0446204D01*
X0108750Y0446183D01*
X0108611Y0446166D01*
X0108471Y0446153D01*
X0108332Y0446144D01*
X0108192Y0446139D01*
X0108052Y0446138D01*
X0107912Y0446141D01*
X0107772Y0446148D01*
X0107633Y0446159D01*
X0107494Y0446174D01*
X0107355Y0446193D01*
X0107217Y0446215D01*
X0107080Y0446242D01*
X0106943Y0446273D01*
X0106808Y0446307D01*
X0106673Y0446345D01*
X0106540Y0446388D01*
X0106408Y0446433D01*
X0106277Y0446483D01*
X0106147Y0446536D01*
X0106020Y0446593D01*
X0105894Y0446654D01*
X0105769Y0446718D01*
X0105647Y0446786D01*
X0105526Y0446857D01*
X0105408Y0446931D01*
X0105292Y0447009D01*
X0105178Y0447090D01*
X0105066Y0447175D01*
X0104957Y0447262D01*
X0104850Y0447352D01*
X0104746Y0447446D01*
X0104645Y0447542D01*
X0104546Y0447642D01*
X0104450Y0447744D01*
X0104358Y0447848D01*
X0104268Y0447956D01*
X0104181Y0448066D01*
X0104098Y0448178D01*
X0104017Y0448292D01*
X0103940Y0448409D01*
X0103867Y0448528D01*
X0103796Y0448649D01*
X0103730Y0448772D01*
X0103666Y0448897D01*
X0103607Y0449023D01*
X0103551Y0449152D01*
X0103498Y0449281D01*
X0103450Y0449412D01*
X0103405Y0449545D01*
X0103364Y0449679D01*
X0103326Y0449814D01*
X0103293Y0449949D01*
X0103263Y0450086D01*
X0103237Y0450224D01*
X0103216Y0450362D01*
X0103198Y0450501D01*
X0103184Y0450640D01*
X0103174Y0450779D01*
X0103168Y0450919D01*
X0103166Y0451059D01*
X0666158Y0451059D02*
X0666160Y0451199D01*
X0666166Y0451339D01*
X0666176Y0451478D01*
X0666190Y0451617D01*
X0666208Y0451756D01*
X0666229Y0451894D01*
X0666255Y0452032D01*
X0666285Y0452169D01*
X0666318Y0452304D01*
X0666356Y0452439D01*
X0666397Y0452573D01*
X0666442Y0452706D01*
X0666490Y0452837D01*
X0666543Y0452966D01*
X0666599Y0453095D01*
X0666658Y0453221D01*
X0666722Y0453346D01*
X0666788Y0453469D01*
X0666859Y0453590D01*
X0666932Y0453709D01*
X0667009Y0453826D01*
X0667090Y0453940D01*
X0667173Y0454052D01*
X0667260Y0454162D01*
X0667350Y0454270D01*
X0667442Y0454374D01*
X0667538Y0454476D01*
X0667637Y0454576D01*
X0667738Y0454672D01*
X0667842Y0454766D01*
X0667949Y0454856D01*
X0668058Y0454943D01*
X0668170Y0455028D01*
X0668284Y0455109D01*
X0668400Y0455187D01*
X0668518Y0455261D01*
X0668639Y0455332D01*
X0668761Y0455400D01*
X0668886Y0455464D01*
X0669012Y0455525D01*
X0669139Y0455582D01*
X0669269Y0455635D01*
X0669400Y0455685D01*
X0669532Y0455730D01*
X0669665Y0455773D01*
X0669800Y0455811D01*
X0669935Y0455845D01*
X0670072Y0455876D01*
X0670209Y0455903D01*
X0670347Y0455925D01*
X0670486Y0455944D01*
X0670625Y0455959D01*
X0670764Y0455970D01*
X0670904Y0455977D01*
X0671044Y0455980D01*
X0671184Y0455979D01*
X0671324Y0455974D01*
X0671463Y0455965D01*
X0671603Y0455952D01*
X0671742Y0455935D01*
X0671880Y0455914D01*
X0672018Y0455890D01*
X0672155Y0455861D01*
X0672291Y0455829D01*
X0672426Y0455792D01*
X0672560Y0455752D01*
X0672693Y0455708D01*
X0672824Y0455660D01*
X0672954Y0455609D01*
X0673083Y0455554D01*
X0673210Y0455495D01*
X0673335Y0455432D01*
X0673458Y0455367D01*
X0673580Y0455297D01*
X0673699Y0455224D01*
X0673817Y0455148D01*
X0673932Y0455069D01*
X0674045Y0454986D01*
X0674155Y0454900D01*
X0674263Y0454811D01*
X0674368Y0454719D01*
X0674471Y0454624D01*
X0674571Y0454526D01*
X0674668Y0454426D01*
X0674762Y0454322D01*
X0674854Y0454216D01*
X0674942Y0454108D01*
X0675027Y0453997D01*
X0675109Y0453883D01*
X0675188Y0453767D01*
X0675263Y0453650D01*
X0675335Y0453530D01*
X0675403Y0453408D01*
X0675468Y0453284D01*
X0675530Y0453158D01*
X0675588Y0453031D01*
X0675642Y0452902D01*
X0675693Y0452771D01*
X0675739Y0452639D01*
X0675782Y0452506D01*
X0675822Y0452372D01*
X0675857Y0452237D01*
X0675889Y0452100D01*
X0675916Y0451963D01*
X0675940Y0451825D01*
X0675960Y0451687D01*
X0675976Y0451548D01*
X0675988Y0451408D01*
X0675996Y0451269D01*
X0676000Y0451129D01*
X0676000Y0450989D01*
X0675996Y0450849D01*
X0675988Y0450710D01*
X0675976Y0450570D01*
X0675960Y0450431D01*
X0675940Y0450293D01*
X0675916Y0450155D01*
X0675889Y0450018D01*
X0675857Y0449881D01*
X0675822Y0449746D01*
X0675782Y0449612D01*
X0675739Y0449479D01*
X0675693Y0449347D01*
X0675642Y0449216D01*
X0675588Y0449087D01*
X0675530Y0448960D01*
X0675468Y0448834D01*
X0675403Y0448710D01*
X0675335Y0448588D01*
X0675263Y0448468D01*
X0675188Y0448351D01*
X0675109Y0448235D01*
X0675027Y0448121D01*
X0674942Y0448010D01*
X0674854Y0447902D01*
X0674762Y0447796D01*
X0674668Y0447692D01*
X0674571Y0447592D01*
X0674471Y0447494D01*
X0674368Y0447399D01*
X0674263Y0447307D01*
X0674155Y0447218D01*
X0674045Y0447132D01*
X0673932Y0447049D01*
X0673817Y0446970D01*
X0673699Y0446894D01*
X0673580Y0446821D01*
X0673458Y0446751D01*
X0673335Y0446686D01*
X0673210Y0446623D01*
X0673083Y0446564D01*
X0672954Y0446509D01*
X0672824Y0446458D01*
X0672693Y0446410D01*
X0672560Y0446366D01*
X0672426Y0446326D01*
X0672291Y0446289D01*
X0672155Y0446257D01*
X0672018Y0446228D01*
X0671880Y0446204D01*
X0671742Y0446183D01*
X0671603Y0446166D01*
X0671463Y0446153D01*
X0671324Y0446144D01*
X0671184Y0446139D01*
X0671044Y0446138D01*
X0670904Y0446141D01*
X0670764Y0446148D01*
X0670625Y0446159D01*
X0670486Y0446174D01*
X0670347Y0446193D01*
X0670209Y0446215D01*
X0670072Y0446242D01*
X0669935Y0446273D01*
X0669800Y0446307D01*
X0669665Y0446345D01*
X0669532Y0446388D01*
X0669400Y0446433D01*
X0669269Y0446483D01*
X0669139Y0446536D01*
X0669012Y0446593D01*
X0668886Y0446654D01*
X0668761Y0446718D01*
X0668639Y0446786D01*
X0668518Y0446857D01*
X0668400Y0446931D01*
X0668284Y0447009D01*
X0668170Y0447090D01*
X0668058Y0447175D01*
X0667949Y0447262D01*
X0667842Y0447352D01*
X0667738Y0447446D01*
X0667637Y0447542D01*
X0667538Y0447642D01*
X0667442Y0447744D01*
X0667350Y0447848D01*
X0667260Y0447956D01*
X0667173Y0448066D01*
X0667090Y0448178D01*
X0667009Y0448292D01*
X0666932Y0448409D01*
X0666859Y0448528D01*
X0666788Y0448649D01*
X0666722Y0448772D01*
X0666658Y0448897D01*
X0666599Y0449023D01*
X0666543Y0449152D01*
X0666490Y0449281D01*
X0666442Y0449412D01*
X0666397Y0449545D01*
X0666356Y0449679D01*
X0666318Y0449814D01*
X0666285Y0449949D01*
X0666255Y0450086D01*
X0666229Y0450224D01*
X0666208Y0450362D01*
X0666190Y0450501D01*
X0666176Y0450640D01*
X0666166Y0450779D01*
X0666160Y0450919D01*
X0666158Y0451059D01*
X0666158Y0143972D02*
X0666160Y0144112D01*
X0666166Y0144252D01*
X0666176Y0144391D01*
X0666190Y0144530D01*
X0666208Y0144669D01*
X0666229Y0144807D01*
X0666255Y0144945D01*
X0666285Y0145082D01*
X0666318Y0145217D01*
X0666356Y0145352D01*
X0666397Y0145486D01*
X0666442Y0145619D01*
X0666490Y0145750D01*
X0666543Y0145879D01*
X0666599Y0146008D01*
X0666658Y0146134D01*
X0666722Y0146259D01*
X0666788Y0146382D01*
X0666859Y0146503D01*
X0666932Y0146622D01*
X0667009Y0146739D01*
X0667090Y0146853D01*
X0667173Y0146965D01*
X0667260Y0147075D01*
X0667350Y0147183D01*
X0667442Y0147287D01*
X0667538Y0147389D01*
X0667637Y0147489D01*
X0667738Y0147585D01*
X0667842Y0147679D01*
X0667949Y0147769D01*
X0668058Y0147856D01*
X0668170Y0147941D01*
X0668284Y0148022D01*
X0668400Y0148100D01*
X0668518Y0148174D01*
X0668639Y0148245D01*
X0668761Y0148313D01*
X0668886Y0148377D01*
X0669012Y0148438D01*
X0669139Y0148495D01*
X0669269Y0148548D01*
X0669400Y0148598D01*
X0669532Y0148643D01*
X0669665Y0148686D01*
X0669800Y0148724D01*
X0669935Y0148758D01*
X0670072Y0148789D01*
X0670209Y0148816D01*
X0670347Y0148838D01*
X0670486Y0148857D01*
X0670625Y0148872D01*
X0670764Y0148883D01*
X0670904Y0148890D01*
X0671044Y0148893D01*
X0671184Y0148892D01*
X0671324Y0148887D01*
X0671463Y0148878D01*
X0671603Y0148865D01*
X0671742Y0148848D01*
X0671880Y0148827D01*
X0672018Y0148803D01*
X0672155Y0148774D01*
X0672291Y0148742D01*
X0672426Y0148705D01*
X0672560Y0148665D01*
X0672693Y0148621D01*
X0672824Y0148573D01*
X0672954Y0148522D01*
X0673083Y0148467D01*
X0673210Y0148408D01*
X0673335Y0148345D01*
X0673458Y0148280D01*
X0673580Y0148210D01*
X0673699Y0148137D01*
X0673817Y0148061D01*
X0673932Y0147982D01*
X0674045Y0147899D01*
X0674155Y0147813D01*
X0674263Y0147724D01*
X0674368Y0147632D01*
X0674471Y0147537D01*
X0674571Y0147439D01*
X0674668Y0147339D01*
X0674762Y0147235D01*
X0674854Y0147129D01*
X0674942Y0147021D01*
X0675027Y0146910D01*
X0675109Y0146796D01*
X0675188Y0146680D01*
X0675263Y0146563D01*
X0675335Y0146443D01*
X0675403Y0146321D01*
X0675468Y0146197D01*
X0675530Y0146071D01*
X0675588Y0145944D01*
X0675642Y0145815D01*
X0675693Y0145684D01*
X0675739Y0145552D01*
X0675782Y0145419D01*
X0675822Y0145285D01*
X0675857Y0145150D01*
X0675889Y0145013D01*
X0675916Y0144876D01*
X0675940Y0144738D01*
X0675960Y0144600D01*
X0675976Y0144461D01*
X0675988Y0144321D01*
X0675996Y0144182D01*
X0676000Y0144042D01*
X0676000Y0143902D01*
X0675996Y0143762D01*
X0675988Y0143623D01*
X0675976Y0143483D01*
X0675960Y0143344D01*
X0675940Y0143206D01*
X0675916Y0143068D01*
X0675889Y0142931D01*
X0675857Y0142794D01*
X0675822Y0142659D01*
X0675782Y0142525D01*
X0675739Y0142392D01*
X0675693Y0142260D01*
X0675642Y0142129D01*
X0675588Y0142000D01*
X0675530Y0141873D01*
X0675468Y0141747D01*
X0675403Y0141623D01*
X0675335Y0141501D01*
X0675263Y0141381D01*
X0675188Y0141264D01*
X0675109Y0141148D01*
X0675027Y0141034D01*
X0674942Y0140923D01*
X0674854Y0140815D01*
X0674762Y0140709D01*
X0674668Y0140605D01*
X0674571Y0140505D01*
X0674471Y0140407D01*
X0674368Y0140312D01*
X0674263Y0140220D01*
X0674155Y0140131D01*
X0674045Y0140045D01*
X0673932Y0139962D01*
X0673817Y0139883D01*
X0673699Y0139807D01*
X0673580Y0139734D01*
X0673458Y0139664D01*
X0673335Y0139599D01*
X0673210Y0139536D01*
X0673083Y0139477D01*
X0672954Y0139422D01*
X0672824Y0139371D01*
X0672693Y0139323D01*
X0672560Y0139279D01*
X0672426Y0139239D01*
X0672291Y0139202D01*
X0672155Y0139170D01*
X0672018Y0139141D01*
X0671880Y0139117D01*
X0671742Y0139096D01*
X0671603Y0139079D01*
X0671463Y0139066D01*
X0671324Y0139057D01*
X0671184Y0139052D01*
X0671044Y0139051D01*
X0670904Y0139054D01*
X0670764Y0139061D01*
X0670625Y0139072D01*
X0670486Y0139087D01*
X0670347Y0139106D01*
X0670209Y0139128D01*
X0670072Y0139155D01*
X0669935Y0139186D01*
X0669800Y0139220D01*
X0669665Y0139258D01*
X0669532Y0139301D01*
X0669400Y0139346D01*
X0669269Y0139396D01*
X0669139Y0139449D01*
X0669012Y0139506D01*
X0668886Y0139567D01*
X0668761Y0139631D01*
X0668639Y0139699D01*
X0668518Y0139770D01*
X0668400Y0139844D01*
X0668284Y0139922D01*
X0668170Y0140003D01*
X0668058Y0140088D01*
X0667949Y0140175D01*
X0667842Y0140265D01*
X0667738Y0140359D01*
X0667637Y0140455D01*
X0667538Y0140555D01*
X0667442Y0140657D01*
X0667350Y0140761D01*
X0667260Y0140869D01*
X0667173Y0140979D01*
X0667090Y0141091D01*
X0667009Y0141205D01*
X0666932Y0141322D01*
X0666859Y0141441D01*
X0666788Y0141562D01*
X0666722Y0141685D01*
X0666658Y0141810D01*
X0666599Y0141936D01*
X0666543Y0142065D01*
X0666490Y0142194D01*
X0666442Y0142325D01*
X0666397Y0142458D01*
X0666356Y0142592D01*
X0666318Y0142727D01*
X0666285Y0142862D01*
X0666255Y0142999D01*
X0666229Y0143137D01*
X0666208Y0143275D01*
X0666190Y0143414D01*
X0666176Y0143553D01*
X0666166Y0143692D01*
X0666160Y0143832D01*
X0666158Y0143972D01*
D11*
X0643519Y0071059D02*
X0643521Y0071212D01*
X0643527Y0071366D01*
X0643537Y0071519D01*
X0643551Y0071671D01*
X0643569Y0071824D01*
X0643591Y0071975D01*
X0643616Y0072126D01*
X0643646Y0072277D01*
X0643680Y0072427D01*
X0643717Y0072575D01*
X0643758Y0072723D01*
X0643803Y0072869D01*
X0643852Y0073015D01*
X0643905Y0073159D01*
X0643961Y0073301D01*
X0644021Y0073442D01*
X0644085Y0073582D01*
X0644152Y0073720D01*
X0644223Y0073856D01*
X0644298Y0073990D01*
X0644375Y0074122D01*
X0644457Y0074252D01*
X0644541Y0074380D01*
X0644629Y0074506D01*
X0644720Y0074629D01*
X0644814Y0074750D01*
X0644912Y0074868D01*
X0645012Y0074984D01*
X0645116Y0075097D01*
X0645222Y0075208D01*
X0645331Y0075316D01*
X0645443Y0075421D01*
X0645557Y0075522D01*
X0645675Y0075621D01*
X0645794Y0075717D01*
X0645916Y0075810D01*
X0646041Y0075899D01*
X0646168Y0075986D01*
X0646297Y0076068D01*
X0646428Y0076148D01*
X0646561Y0076224D01*
X0646696Y0076297D01*
X0646833Y0076366D01*
X0646972Y0076431D01*
X0647112Y0076493D01*
X0647254Y0076551D01*
X0647397Y0076606D01*
X0647542Y0076657D01*
X0647688Y0076704D01*
X0647835Y0076747D01*
X0647983Y0076786D01*
X0648132Y0076822D01*
X0648282Y0076853D01*
X0648433Y0076881D01*
X0648584Y0076905D01*
X0648737Y0076925D01*
X0648889Y0076941D01*
X0649042Y0076953D01*
X0649195Y0076961D01*
X0649348Y0076965D01*
X0649502Y0076965D01*
X0649655Y0076961D01*
X0649808Y0076953D01*
X0649961Y0076941D01*
X0650113Y0076925D01*
X0650266Y0076905D01*
X0650417Y0076881D01*
X0650568Y0076853D01*
X0650718Y0076822D01*
X0650867Y0076786D01*
X0651015Y0076747D01*
X0651162Y0076704D01*
X0651308Y0076657D01*
X0651453Y0076606D01*
X0651596Y0076551D01*
X0651738Y0076493D01*
X0651878Y0076431D01*
X0652017Y0076366D01*
X0652154Y0076297D01*
X0652289Y0076224D01*
X0652422Y0076148D01*
X0652553Y0076068D01*
X0652682Y0075986D01*
X0652809Y0075899D01*
X0652934Y0075810D01*
X0653056Y0075717D01*
X0653175Y0075621D01*
X0653293Y0075522D01*
X0653407Y0075421D01*
X0653519Y0075316D01*
X0653628Y0075208D01*
X0653734Y0075097D01*
X0653838Y0074984D01*
X0653938Y0074868D01*
X0654036Y0074750D01*
X0654130Y0074629D01*
X0654221Y0074506D01*
X0654309Y0074380D01*
X0654393Y0074252D01*
X0654475Y0074122D01*
X0654552Y0073990D01*
X0654627Y0073856D01*
X0654698Y0073720D01*
X0654765Y0073582D01*
X0654829Y0073442D01*
X0654889Y0073301D01*
X0654945Y0073159D01*
X0654998Y0073015D01*
X0655047Y0072869D01*
X0655092Y0072723D01*
X0655133Y0072575D01*
X0655170Y0072427D01*
X0655204Y0072277D01*
X0655234Y0072126D01*
X0655259Y0071975D01*
X0655281Y0071824D01*
X0655299Y0071671D01*
X0655313Y0071519D01*
X0655323Y0071366D01*
X0655329Y0071212D01*
X0655331Y0071059D01*
X0655329Y0070906D01*
X0655323Y0070752D01*
X0655313Y0070599D01*
X0655299Y0070447D01*
X0655281Y0070294D01*
X0655259Y0070143D01*
X0655234Y0069992D01*
X0655204Y0069841D01*
X0655170Y0069691D01*
X0655133Y0069543D01*
X0655092Y0069395D01*
X0655047Y0069249D01*
X0654998Y0069103D01*
X0654945Y0068959D01*
X0654889Y0068817D01*
X0654829Y0068676D01*
X0654765Y0068536D01*
X0654698Y0068398D01*
X0654627Y0068262D01*
X0654552Y0068128D01*
X0654475Y0067996D01*
X0654393Y0067866D01*
X0654309Y0067738D01*
X0654221Y0067612D01*
X0654130Y0067489D01*
X0654036Y0067368D01*
X0653938Y0067250D01*
X0653838Y0067134D01*
X0653734Y0067021D01*
X0653628Y0066910D01*
X0653519Y0066802D01*
X0653407Y0066697D01*
X0653293Y0066596D01*
X0653175Y0066497D01*
X0653056Y0066401D01*
X0652934Y0066308D01*
X0652809Y0066219D01*
X0652682Y0066132D01*
X0652553Y0066050D01*
X0652422Y0065970D01*
X0652289Y0065894D01*
X0652154Y0065821D01*
X0652017Y0065752D01*
X0651878Y0065687D01*
X0651738Y0065625D01*
X0651596Y0065567D01*
X0651453Y0065512D01*
X0651308Y0065461D01*
X0651162Y0065414D01*
X0651015Y0065371D01*
X0650867Y0065332D01*
X0650718Y0065296D01*
X0650568Y0065265D01*
X0650417Y0065237D01*
X0650266Y0065213D01*
X0650113Y0065193D01*
X0649961Y0065177D01*
X0649808Y0065165D01*
X0649655Y0065157D01*
X0649502Y0065153D01*
X0649348Y0065153D01*
X0649195Y0065157D01*
X0649042Y0065165D01*
X0648889Y0065177D01*
X0648737Y0065193D01*
X0648584Y0065213D01*
X0648433Y0065237D01*
X0648282Y0065265D01*
X0648132Y0065296D01*
X0647983Y0065332D01*
X0647835Y0065371D01*
X0647688Y0065414D01*
X0647542Y0065461D01*
X0647397Y0065512D01*
X0647254Y0065567D01*
X0647112Y0065625D01*
X0646972Y0065687D01*
X0646833Y0065752D01*
X0646696Y0065821D01*
X0646561Y0065894D01*
X0646428Y0065970D01*
X0646297Y0066050D01*
X0646168Y0066132D01*
X0646041Y0066219D01*
X0645916Y0066308D01*
X0645794Y0066401D01*
X0645675Y0066497D01*
X0645557Y0066596D01*
X0645443Y0066697D01*
X0645331Y0066802D01*
X0645222Y0066910D01*
X0645116Y0067021D01*
X0645012Y0067134D01*
X0644912Y0067250D01*
X0644814Y0067368D01*
X0644720Y0067489D01*
X0644629Y0067612D01*
X0644541Y0067738D01*
X0644457Y0067866D01*
X0644375Y0067996D01*
X0644298Y0068128D01*
X0644223Y0068262D01*
X0644152Y0068398D01*
X0644085Y0068536D01*
X0644021Y0068676D01*
X0643961Y0068817D01*
X0643905Y0068959D01*
X0643852Y0069103D01*
X0643803Y0069249D01*
X0643758Y0069395D01*
X0643717Y0069543D01*
X0643680Y0069691D01*
X0643646Y0069841D01*
X0643616Y0069992D01*
X0643591Y0070143D01*
X0643569Y0070294D01*
X0643551Y0070447D01*
X0643537Y0070599D01*
X0643527Y0070752D01*
X0643521Y0070906D01*
X0643519Y0071059D01*
X0612023Y0071059D02*
X0612025Y0071212D01*
X0612031Y0071366D01*
X0612041Y0071519D01*
X0612055Y0071671D01*
X0612073Y0071824D01*
X0612095Y0071975D01*
X0612120Y0072126D01*
X0612150Y0072277D01*
X0612184Y0072427D01*
X0612221Y0072575D01*
X0612262Y0072723D01*
X0612307Y0072869D01*
X0612356Y0073015D01*
X0612409Y0073159D01*
X0612465Y0073301D01*
X0612525Y0073442D01*
X0612589Y0073582D01*
X0612656Y0073720D01*
X0612727Y0073856D01*
X0612802Y0073990D01*
X0612879Y0074122D01*
X0612961Y0074252D01*
X0613045Y0074380D01*
X0613133Y0074506D01*
X0613224Y0074629D01*
X0613318Y0074750D01*
X0613416Y0074868D01*
X0613516Y0074984D01*
X0613620Y0075097D01*
X0613726Y0075208D01*
X0613835Y0075316D01*
X0613947Y0075421D01*
X0614061Y0075522D01*
X0614179Y0075621D01*
X0614298Y0075717D01*
X0614420Y0075810D01*
X0614545Y0075899D01*
X0614672Y0075986D01*
X0614801Y0076068D01*
X0614932Y0076148D01*
X0615065Y0076224D01*
X0615200Y0076297D01*
X0615337Y0076366D01*
X0615476Y0076431D01*
X0615616Y0076493D01*
X0615758Y0076551D01*
X0615901Y0076606D01*
X0616046Y0076657D01*
X0616192Y0076704D01*
X0616339Y0076747D01*
X0616487Y0076786D01*
X0616636Y0076822D01*
X0616786Y0076853D01*
X0616937Y0076881D01*
X0617088Y0076905D01*
X0617241Y0076925D01*
X0617393Y0076941D01*
X0617546Y0076953D01*
X0617699Y0076961D01*
X0617852Y0076965D01*
X0618006Y0076965D01*
X0618159Y0076961D01*
X0618312Y0076953D01*
X0618465Y0076941D01*
X0618617Y0076925D01*
X0618770Y0076905D01*
X0618921Y0076881D01*
X0619072Y0076853D01*
X0619222Y0076822D01*
X0619371Y0076786D01*
X0619519Y0076747D01*
X0619666Y0076704D01*
X0619812Y0076657D01*
X0619957Y0076606D01*
X0620100Y0076551D01*
X0620242Y0076493D01*
X0620382Y0076431D01*
X0620521Y0076366D01*
X0620658Y0076297D01*
X0620793Y0076224D01*
X0620926Y0076148D01*
X0621057Y0076068D01*
X0621186Y0075986D01*
X0621313Y0075899D01*
X0621438Y0075810D01*
X0621560Y0075717D01*
X0621679Y0075621D01*
X0621797Y0075522D01*
X0621911Y0075421D01*
X0622023Y0075316D01*
X0622132Y0075208D01*
X0622238Y0075097D01*
X0622342Y0074984D01*
X0622442Y0074868D01*
X0622540Y0074750D01*
X0622634Y0074629D01*
X0622725Y0074506D01*
X0622813Y0074380D01*
X0622897Y0074252D01*
X0622979Y0074122D01*
X0623056Y0073990D01*
X0623131Y0073856D01*
X0623202Y0073720D01*
X0623269Y0073582D01*
X0623333Y0073442D01*
X0623393Y0073301D01*
X0623449Y0073159D01*
X0623502Y0073015D01*
X0623551Y0072869D01*
X0623596Y0072723D01*
X0623637Y0072575D01*
X0623674Y0072427D01*
X0623708Y0072277D01*
X0623738Y0072126D01*
X0623763Y0071975D01*
X0623785Y0071824D01*
X0623803Y0071671D01*
X0623817Y0071519D01*
X0623827Y0071366D01*
X0623833Y0071212D01*
X0623835Y0071059D01*
X0623833Y0070906D01*
X0623827Y0070752D01*
X0623817Y0070599D01*
X0623803Y0070447D01*
X0623785Y0070294D01*
X0623763Y0070143D01*
X0623738Y0069992D01*
X0623708Y0069841D01*
X0623674Y0069691D01*
X0623637Y0069543D01*
X0623596Y0069395D01*
X0623551Y0069249D01*
X0623502Y0069103D01*
X0623449Y0068959D01*
X0623393Y0068817D01*
X0623333Y0068676D01*
X0623269Y0068536D01*
X0623202Y0068398D01*
X0623131Y0068262D01*
X0623056Y0068128D01*
X0622979Y0067996D01*
X0622897Y0067866D01*
X0622813Y0067738D01*
X0622725Y0067612D01*
X0622634Y0067489D01*
X0622540Y0067368D01*
X0622442Y0067250D01*
X0622342Y0067134D01*
X0622238Y0067021D01*
X0622132Y0066910D01*
X0622023Y0066802D01*
X0621911Y0066697D01*
X0621797Y0066596D01*
X0621679Y0066497D01*
X0621560Y0066401D01*
X0621438Y0066308D01*
X0621313Y0066219D01*
X0621186Y0066132D01*
X0621057Y0066050D01*
X0620926Y0065970D01*
X0620793Y0065894D01*
X0620658Y0065821D01*
X0620521Y0065752D01*
X0620382Y0065687D01*
X0620242Y0065625D01*
X0620100Y0065567D01*
X0619957Y0065512D01*
X0619812Y0065461D01*
X0619666Y0065414D01*
X0619519Y0065371D01*
X0619371Y0065332D01*
X0619222Y0065296D01*
X0619072Y0065265D01*
X0618921Y0065237D01*
X0618770Y0065213D01*
X0618617Y0065193D01*
X0618465Y0065177D01*
X0618312Y0065165D01*
X0618159Y0065157D01*
X0618006Y0065153D01*
X0617852Y0065153D01*
X0617699Y0065157D01*
X0617546Y0065165D01*
X0617393Y0065177D01*
X0617241Y0065193D01*
X0617088Y0065213D01*
X0616937Y0065237D01*
X0616786Y0065265D01*
X0616636Y0065296D01*
X0616487Y0065332D01*
X0616339Y0065371D01*
X0616192Y0065414D01*
X0616046Y0065461D01*
X0615901Y0065512D01*
X0615758Y0065567D01*
X0615616Y0065625D01*
X0615476Y0065687D01*
X0615337Y0065752D01*
X0615200Y0065821D01*
X0615065Y0065894D01*
X0614932Y0065970D01*
X0614801Y0066050D01*
X0614672Y0066132D01*
X0614545Y0066219D01*
X0614420Y0066308D01*
X0614298Y0066401D01*
X0614179Y0066497D01*
X0614061Y0066596D01*
X0613947Y0066697D01*
X0613835Y0066802D01*
X0613726Y0066910D01*
X0613620Y0067021D01*
X0613516Y0067134D01*
X0613416Y0067250D01*
X0613318Y0067368D01*
X0613224Y0067489D01*
X0613133Y0067612D01*
X0613045Y0067738D01*
X0612961Y0067866D01*
X0612879Y0067996D01*
X0612802Y0068128D01*
X0612727Y0068262D01*
X0612656Y0068398D01*
X0612589Y0068536D01*
X0612525Y0068676D01*
X0612465Y0068817D01*
X0612409Y0068959D01*
X0612356Y0069103D01*
X0612307Y0069249D01*
X0612262Y0069395D01*
X0612221Y0069543D01*
X0612184Y0069691D01*
X0612150Y0069841D01*
X0612120Y0069992D01*
X0612095Y0070143D01*
X0612073Y0070294D01*
X0612055Y0070447D01*
X0612041Y0070599D01*
X0612031Y0070752D01*
X0612025Y0070906D01*
X0612023Y0071059D01*
X0580527Y0071059D02*
X0580529Y0071212D01*
X0580535Y0071366D01*
X0580545Y0071519D01*
X0580559Y0071671D01*
X0580577Y0071824D01*
X0580599Y0071975D01*
X0580624Y0072126D01*
X0580654Y0072277D01*
X0580688Y0072427D01*
X0580725Y0072575D01*
X0580766Y0072723D01*
X0580811Y0072869D01*
X0580860Y0073015D01*
X0580913Y0073159D01*
X0580969Y0073301D01*
X0581029Y0073442D01*
X0581093Y0073582D01*
X0581160Y0073720D01*
X0581231Y0073856D01*
X0581306Y0073990D01*
X0581383Y0074122D01*
X0581465Y0074252D01*
X0581549Y0074380D01*
X0581637Y0074506D01*
X0581728Y0074629D01*
X0581822Y0074750D01*
X0581920Y0074868D01*
X0582020Y0074984D01*
X0582124Y0075097D01*
X0582230Y0075208D01*
X0582339Y0075316D01*
X0582451Y0075421D01*
X0582565Y0075522D01*
X0582683Y0075621D01*
X0582802Y0075717D01*
X0582924Y0075810D01*
X0583049Y0075899D01*
X0583176Y0075986D01*
X0583305Y0076068D01*
X0583436Y0076148D01*
X0583569Y0076224D01*
X0583704Y0076297D01*
X0583841Y0076366D01*
X0583980Y0076431D01*
X0584120Y0076493D01*
X0584262Y0076551D01*
X0584405Y0076606D01*
X0584550Y0076657D01*
X0584696Y0076704D01*
X0584843Y0076747D01*
X0584991Y0076786D01*
X0585140Y0076822D01*
X0585290Y0076853D01*
X0585441Y0076881D01*
X0585592Y0076905D01*
X0585745Y0076925D01*
X0585897Y0076941D01*
X0586050Y0076953D01*
X0586203Y0076961D01*
X0586356Y0076965D01*
X0586510Y0076965D01*
X0586663Y0076961D01*
X0586816Y0076953D01*
X0586969Y0076941D01*
X0587121Y0076925D01*
X0587274Y0076905D01*
X0587425Y0076881D01*
X0587576Y0076853D01*
X0587726Y0076822D01*
X0587875Y0076786D01*
X0588023Y0076747D01*
X0588170Y0076704D01*
X0588316Y0076657D01*
X0588461Y0076606D01*
X0588604Y0076551D01*
X0588746Y0076493D01*
X0588886Y0076431D01*
X0589025Y0076366D01*
X0589162Y0076297D01*
X0589297Y0076224D01*
X0589430Y0076148D01*
X0589561Y0076068D01*
X0589690Y0075986D01*
X0589817Y0075899D01*
X0589942Y0075810D01*
X0590064Y0075717D01*
X0590183Y0075621D01*
X0590301Y0075522D01*
X0590415Y0075421D01*
X0590527Y0075316D01*
X0590636Y0075208D01*
X0590742Y0075097D01*
X0590846Y0074984D01*
X0590946Y0074868D01*
X0591044Y0074750D01*
X0591138Y0074629D01*
X0591229Y0074506D01*
X0591317Y0074380D01*
X0591401Y0074252D01*
X0591483Y0074122D01*
X0591560Y0073990D01*
X0591635Y0073856D01*
X0591706Y0073720D01*
X0591773Y0073582D01*
X0591837Y0073442D01*
X0591897Y0073301D01*
X0591953Y0073159D01*
X0592006Y0073015D01*
X0592055Y0072869D01*
X0592100Y0072723D01*
X0592141Y0072575D01*
X0592178Y0072427D01*
X0592212Y0072277D01*
X0592242Y0072126D01*
X0592267Y0071975D01*
X0592289Y0071824D01*
X0592307Y0071671D01*
X0592321Y0071519D01*
X0592331Y0071366D01*
X0592337Y0071212D01*
X0592339Y0071059D01*
X0592337Y0070906D01*
X0592331Y0070752D01*
X0592321Y0070599D01*
X0592307Y0070447D01*
X0592289Y0070294D01*
X0592267Y0070143D01*
X0592242Y0069992D01*
X0592212Y0069841D01*
X0592178Y0069691D01*
X0592141Y0069543D01*
X0592100Y0069395D01*
X0592055Y0069249D01*
X0592006Y0069103D01*
X0591953Y0068959D01*
X0591897Y0068817D01*
X0591837Y0068676D01*
X0591773Y0068536D01*
X0591706Y0068398D01*
X0591635Y0068262D01*
X0591560Y0068128D01*
X0591483Y0067996D01*
X0591401Y0067866D01*
X0591317Y0067738D01*
X0591229Y0067612D01*
X0591138Y0067489D01*
X0591044Y0067368D01*
X0590946Y0067250D01*
X0590846Y0067134D01*
X0590742Y0067021D01*
X0590636Y0066910D01*
X0590527Y0066802D01*
X0590415Y0066697D01*
X0590301Y0066596D01*
X0590183Y0066497D01*
X0590064Y0066401D01*
X0589942Y0066308D01*
X0589817Y0066219D01*
X0589690Y0066132D01*
X0589561Y0066050D01*
X0589430Y0065970D01*
X0589297Y0065894D01*
X0589162Y0065821D01*
X0589025Y0065752D01*
X0588886Y0065687D01*
X0588746Y0065625D01*
X0588604Y0065567D01*
X0588461Y0065512D01*
X0588316Y0065461D01*
X0588170Y0065414D01*
X0588023Y0065371D01*
X0587875Y0065332D01*
X0587726Y0065296D01*
X0587576Y0065265D01*
X0587425Y0065237D01*
X0587274Y0065213D01*
X0587121Y0065193D01*
X0586969Y0065177D01*
X0586816Y0065165D01*
X0586663Y0065157D01*
X0586510Y0065153D01*
X0586356Y0065153D01*
X0586203Y0065157D01*
X0586050Y0065165D01*
X0585897Y0065177D01*
X0585745Y0065193D01*
X0585592Y0065213D01*
X0585441Y0065237D01*
X0585290Y0065265D01*
X0585140Y0065296D01*
X0584991Y0065332D01*
X0584843Y0065371D01*
X0584696Y0065414D01*
X0584550Y0065461D01*
X0584405Y0065512D01*
X0584262Y0065567D01*
X0584120Y0065625D01*
X0583980Y0065687D01*
X0583841Y0065752D01*
X0583704Y0065821D01*
X0583569Y0065894D01*
X0583436Y0065970D01*
X0583305Y0066050D01*
X0583176Y0066132D01*
X0583049Y0066219D01*
X0582924Y0066308D01*
X0582802Y0066401D01*
X0582683Y0066497D01*
X0582565Y0066596D01*
X0582451Y0066697D01*
X0582339Y0066802D01*
X0582230Y0066910D01*
X0582124Y0067021D01*
X0582020Y0067134D01*
X0581920Y0067250D01*
X0581822Y0067368D01*
X0581728Y0067489D01*
X0581637Y0067612D01*
X0581549Y0067738D01*
X0581465Y0067866D01*
X0581383Y0067996D01*
X0581306Y0068128D01*
X0581231Y0068262D01*
X0581160Y0068398D01*
X0581093Y0068536D01*
X0581029Y0068676D01*
X0580969Y0068817D01*
X0580913Y0068959D01*
X0580860Y0069103D01*
X0580811Y0069249D01*
X0580766Y0069395D01*
X0580725Y0069543D01*
X0580688Y0069691D01*
X0580654Y0069841D01*
X0580624Y0069992D01*
X0580599Y0070143D01*
X0580577Y0070294D01*
X0580559Y0070447D01*
X0580545Y0070599D01*
X0580535Y0070752D01*
X0580529Y0070906D01*
X0580527Y0071059D01*
X0549031Y0071059D02*
X0549033Y0071212D01*
X0549039Y0071366D01*
X0549049Y0071519D01*
X0549063Y0071671D01*
X0549081Y0071824D01*
X0549103Y0071975D01*
X0549128Y0072126D01*
X0549158Y0072277D01*
X0549192Y0072427D01*
X0549229Y0072575D01*
X0549270Y0072723D01*
X0549315Y0072869D01*
X0549364Y0073015D01*
X0549417Y0073159D01*
X0549473Y0073301D01*
X0549533Y0073442D01*
X0549597Y0073582D01*
X0549664Y0073720D01*
X0549735Y0073856D01*
X0549810Y0073990D01*
X0549887Y0074122D01*
X0549969Y0074252D01*
X0550053Y0074380D01*
X0550141Y0074506D01*
X0550232Y0074629D01*
X0550326Y0074750D01*
X0550424Y0074868D01*
X0550524Y0074984D01*
X0550628Y0075097D01*
X0550734Y0075208D01*
X0550843Y0075316D01*
X0550955Y0075421D01*
X0551069Y0075522D01*
X0551187Y0075621D01*
X0551306Y0075717D01*
X0551428Y0075810D01*
X0551553Y0075899D01*
X0551680Y0075986D01*
X0551809Y0076068D01*
X0551940Y0076148D01*
X0552073Y0076224D01*
X0552208Y0076297D01*
X0552345Y0076366D01*
X0552484Y0076431D01*
X0552624Y0076493D01*
X0552766Y0076551D01*
X0552909Y0076606D01*
X0553054Y0076657D01*
X0553200Y0076704D01*
X0553347Y0076747D01*
X0553495Y0076786D01*
X0553644Y0076822D01*
X0553794Y0076853D01*
X0553945Y0076881D01*
X0554096Y0076905D01*
X0554249Y0076925D01*
X0554401Y0076941D01*
X0554554Y0076953D01*
X0554707Y0076961D01*
X0554860Y0076965D01*
X0555014Y0076965D01*
X0555167Y0076961D01*
X0555320Y0076953D01*
X0555473Y0076941D01*
X0555625Y0076925D01*
X0555778Y0076905D01*
X0555929Y0076881D01*
X0556080Y0076853D01*
X0556230Y0076822D01*
X0556379Y0076786D01*
X0556527Y0076747D01*
X0556674Y0076704D01*
X0556820Y0076657D01*
X0556965Y0076606D01*
X0557108Y0076551D01*
X0557250Y0076493D01*
X0557390Y0076431D01*
X0557529Y0076366D01*
X0557666Y0076297D01*
X0557801Y0076224D01*
X0557934Y0076148D01*
X0558065Y0076068D01*
X0558194Y0075986D01*
X0558321Y0075899D01*
X0558446Y0075810D01*
X0558568Y0075717D01*
X0558687Y0075621D01*
X0558805Y0075522D01*
X0558919Y0075421D01*
X0559031Y0075316D01*
X0559140Y0075208D01*
X0559246Y0075097D01*
X0559350Y0074984D01*
X0559450Y0074868D01*
X0559548Y0074750D01*
X0559642Y0074629D01*
X0559733Y0074506D01*
X0559821Y0074380D01*
X0559905Y0074252D01*
X0559987Y0074122D01*
X0560064Y0073990D01*
X0560139Y0073856D01*
X0560210Y0073720D01*
X0560277Y0073582D01*
X0560341Y0073442D01*
X0560401Y0073301D01*
X0560457Y0073159D01*
X0560510Y0073015D01*
X0560559Y0072869D01*
X0560604Y0072723D01*
X0560645Y0072575D01*
X0560682Y0072427D01*
X0560716Y0072277D01*
X0560746Y0072126D01*
X0560771Y0071975D01*
X0560793Y0071824D01*
X0560811Y0071671D01*
X0560825Y0071519D01*
X0560835Y0071366D01*
X0560841Y0071212D01*
X0560843Y0071059D01*
X0560841Y0070906D01*
X0560835Y0070752D01*
X0560825Y0070599D01*
X0560811Y0070447D01*
X0560793Y0070294D01*
X0560771Y0070143D01*
X0560746Y0069992D01*
X0560716Y0069841D01*
X0560682Y0069691D01*
X0560645Y0069543D01*
X0560604Y0069395D01*
X0560559Y0069249D01*
X0560510Y0069103D01*
X0560457Y0068959D01*
X0560401Y0068817D01*
X0560341Y0068676D01*
X0560277Y0068536D01*
X0560210Y0068398D01*
X0560139Y0068262D01*
X0560064Y0068128D01*
X0559987Y0067996D01*
X0559905Y0067866D01*
X0559821Y0067738D01*
X0559733Y0067612D01*
X0559642Y0067489D01*
X0559548Y0067368D01*
X0559450Y0067250D01*
X0559350Y0067134D01*
X0559246Y0067021D01*
X0559140Y0066910D01*
X0559031Y0066802D01*
X0558919Y0066697D01*
X0558805Y0066596D01*
X0558687Y0066497D01*
X0558568Y0066401D01*
X0558446Y0066308D01*
X0558321Y0066219D01*
X0558194Y0066132D01*
X0558065Y0066050D01*
X0557934Y0065970D01*
X0557801Y0065894D01*
X0557666Y0065821D01*
X0557529Y0065752D01*
X0557390Y0065687D01*
X0557250Y0065625D01*
X0557108Y0065567D01*
X0556965Y0065512D01*
X0556820Y0065461D01*
X0556674Y0065414D01*
X0556527Y0065371D01*
X0556379Y0065332D01*
X0556230Y0065296D01*
X0556080Y0065265D01*
X0555929Y0065237D01*
X0555778Y0065213D01*
X0555625Y0065193D01*
X0555473Y0065177D01*
X0555320Y0065165D01*
X0555167Y0065157D01*
X0555014Y0065153D01*
X0554860Y0065153D01*
X0554707Y0065157D01*
X0554554Y0065165D01*
X0554401Y0065177D01*
X0554249Y0065193D01*
X0554096Y0065213D01*
X0553945Y0065237D01*
X0553794Y0065265D01*
X0553644Y0065296D01*
X0553495Y0065332D01*
X0553347Y0065371D01*
X0553200Y0065414D01*
X0553054Y0065461D01*
X0552909Y0065512D01*
X0552766Y0065567D01*
X0552624Y0065625D01*
X0552484Y0065687D01*
X0552345Y0065752D01*
X0552208Y0065821D01*
X0552073Y0065894D01*
X0551940Y0065970D01*
X0551809Y0066050D01*
X0551680Y0066132D01*
X0551553Y0066219D01*
X0551428Y0066308D01*
X0551306Y0066401D01*
X0551187Y0066497D01*
X0551069Y0066596D01*
X0550955Y0066697D01*
X0550843Y0066802D01*
X0550734Y0066910D01*
X0550628Y0067021D01*
X0550524Y0067134D01*
X0550424Y0067250D01*
X0550326Y0067368D01*
X0550232Y0067489D01*
X0550141Y0067612D01*
X0550053Y0067738D01*
X0549969Y0067866D01*
X0549887Y0067996D01*
X0549810Y0068128D01*
X0549735Y0068262D01*
X0549664Y0068398D01*
X0549597Y0068536D01*
X0549533Y0068676D01*
X0549473Y0068817D01*
X0549417Y0068959D01*
X0549364Y0069103D01*
X0549315Y0069249D01*
X0549270Y0069395D01*
X0549229Y0069543D01*
X0549192Y0069691D01*
X0549158Y0069841D01*
X0549128Y0069992D01*
X0549103Y0070143D01*
X0549081Y0070294D01*
X0549063Y0070447D01*
X0549049Y0070599D01*
X0549039Y0070752D01*
X0549033Y0070906D01*
X0549031Y0071059D01*
X0517535Y0071059D02*
X0517537Y0071212D01*
X0517543Y0071366D01*
X0517553Y0071519D01*
X0517567Y0071671D01*
X0517585Y0071824D01*
X0517607Y0071975D01*
X0517632Y0072126D01*
X0517662Y0072277D01*
X0517696Y0072427D01*
X0517733Y0072575D01*
X0517774Y0072723D01*
X0517819Y0072869D01*
X0517868Y0073015D01*
X0517921Y0073159D01*
X0517977Y0073301D01*
X0518037Y0073442D01*
X0518101Y0073582D01*
X0518168Y0073720D01*
X0518239Y0073856D01*
X0518314Y0073990D01*
X0518391Y0074122D01*
X0518473Y0074252D01*
X0518557Y0074380D01*
X0518645Y0074506D01*
X0518736Y0074629D01*
X0518830Y0074750D01*
X0518928Y0074868D01*
X0519028Y0074984D01*
X0519132Y0075097D01*
X0519238Y0075208D01*
X0519347Y0075316D01*
X0519459Y0075421D01*
X0519573Y0075522D01*
X0519691Y0075621D01*
X0519810Y0075717D01*
X0519932Y0075810D01*
X0520057Y0075899D01*
X0520184Y0075986D01*
X0520313Y0076068D01*
X0520444Y0076148D01*
X0520577Y0076224D01*
X0520712Y0076297D01*
X0520849Y0076366D01*
X0520988Y0076431D01*
X0521128Y0076493D01*
X0521270Y0076551D01*
X0521413Y0076606D01*
X0521558Y0076657D01*
X0521704Y0076704D01*
X0521851Y0076747D01*
X0521999Y0076786D01*
X0522148Y0076822D01*
X0522298Y0076853D01*
X0522449Y0076881D01*
X0522600Y0076905D01*
X0522753Y0076925D01*
X0522905Y0076941D01*
X0523058Y0076953D01*
X0523211Y0076961D01*
X0523364Y0076965D01*
X0523518Y0076965D01*
X0523671Y0076961D01*
X0523824Y0076953D01*
X0523977Y0076941D01*
X0524129Y0076925D01*
X0524282Y0076905D01*
X0524433Y0076881D01*
X0524584Y0076853D01*
X0524734Y0076822D01*
X0524883Y0076786D01*
X0525031Y0076747D01*
X0525178Y0076704D01*
X0525324Y0076657D01*
X0525469Y0076606D01*
X0525612Y0076551D01*
X0525754Y0076493D01*
X0525894Y0076431D01*
X0526033Y0076366D01*
X0526170Y0076297D01*
X0526305Y0076224D01*
X0526438Y0076148D01*
X0526569Y0076068D01*
X0526698Y0075986D01*
X0526825Y0075899D01*
X0526950Y0075810D01*
X0527072Y0075717D01*
X0527191Y0075621D01*
X0527309Y0075522D01*
X0527423Y0075421D01*
X0527535Y0075316D01*
X0527644Y0075208D01*
X0527750Y0075097D01*
X0527854Y0074984D01*
X0527954Y0074868D01*
X0528052Y0074750D01*
X0528146Y0074629D01*
X0528237Y0074506D01*
X0528325Y0074380D01*
X0528409Y0074252D01*
X0528491Y0074122D01*
X0528568Y0073990D01*
X0528643Y0073856D01*
X0528714Y0073720D01*
X0528781Y0073582D01*
X0528845Y0073442D01*
X0528905Y0073301D01*
X0528961Y0073159D01*
X0529014Y0073015D01*
X0529063Y0072869D01*
X0529108Y0072723D01*
X0529149Y0072575D01*
X0529186Y0072427D01*
X0529220Y0072277D01*
X0529250Y0072126D01*
X0529275Y0071975D01*
X0529297Y0071824D01*
X0529315Y0071671D01*
X0529329Y0071519D01*
X0529339Y0071366D01*
X0529345Y0071212D01*
X0529347Y0071059D01*
X0529345Y0070906D01*
X0529339Y0070752D01*
X0529329Y0070599D01*
X0529315Y0070447D01*
X0529297Y0070294D01*
X0529275Y0070143D01*
X0529250Y0069992D01*
X0529220Y0069841D01*
X0529186Y0069691D01*
X0529149Y0069543D01*
X0529108Y0069395D01*
X0529063Y0069249D01*
X0529014Y0069103D01*
X0528961Y0068959D01*
X0528905Y0068817D01*
X0528845Y0068676D01*
X0528781Y0068536D01*
X0528714Y0068398D01*
X0528643Y0068262D01*
X0528568Y0068128D01*
X0528491Y0067996D01*
X0528409Y0067866D01*
X0528325Y0067738D01*
X0528237Y0067612D01*
X0528146Y0067489D01*
X0528052Y0067368D01*
X0527954Y0067250D01*
X0527854Y0067134D01*
X0527750Y0067021D01*
X0527644Y0066910D01*
X0527535Y0066802D01*
X0527423Y0066697D01*
X0527309Y0066596D01*
X0527191Y0066497D01*
X0527072Y0066401D01*
X0526950Y0066308D01*
X0526825Y0066219D01*
X0526698Y0066132D01*
X0526569Y0066050D01*
X0526438Y0065970D01*
X0526305Y0065894D01*
X0526170Y0065821D01*
X0526033Y0065752D01*
X0525894Y0065687D01*
X0525754Y0065625D01*
X0525612Y0065567D01*
X0525469Y0065512D01*
X0525324Y0065461D01*
X0525178Y0065414D01*
X0525031Y0065371D01*
X0524883Y0065332D01*
X0524734Y0065296D01*
X0524584Y0065265D01*
X0524433Y0065237D01*
X0524282Y0065213D01*
X0524129Y0065193D01*
X0523977Y0065177D01*
X0523824Y0065165D01*
X0523671Y0065157D01*
X0523518Y0065153D01*
X0523364Y0065153D01*
X0523211Y0065157D01*
X0523058Y0065165D01*
X0522905Y0065177D01*
X0522753Y0065193D01*
X0522600Y0065213D01*
X0522449Y0065237D01*
X0522298Y0065265D01*
X0522148Y0065296D01*
X0521999Y0065332D01*
X0521851Y0065371D01*
X0521704Y0065414D01*
X0521558Y0065461D01*
X0521413Y0065512D01*
X0521270Y0065567D01*
X0521128Y0065625D01*
X0520988Y0065687D01*
X0520849Y0065752D01*
X0520712Y0065821D01*
X0520577Y0065894D01*
X0520444Y0065970D01*
X0520313Y0066050D01*
X0520184Y0066132D01*
X0520057Y0066219D01*
X0519932Y0066308D01*
X0519810Y0066401D01*
X0519691Y0066497D01*
X0519573Y0066596D01*
X0519459Y0066697D01*
X0519347Y0066802D01*
X0519238Y0066910D01*
X0519132Y0067021D01*
X0519028Y0067134D01*
X0518928Y0067250D01*
X0518830Y0067368D01*
X0518736Y0067489D01*
X0518645Y0067612D01*
X0518557Y0067738D01*
X0518473Y0067866D01*
X0518391Y0067996D01*
X0518314Y0068128D01*
X0518239Y0068262D01*
X0518168Y0068398D01*
X0518101Y0068536D01*
X0518037Y0068676D01*
X0517977Y0068817D01*
X0517921Y0068959D01*
X0517868Y0069103D01*
X0517819Y0069249D01*
X0517774Y0069395D01*
X0517733Y0069543D01*
X0517696Y0069691D01*
X0517662Y0069841D01*
X0517632Y0069992D01*
X0517607Y0070143D01*
X0517585Y0070294D01*
X0517567Y0070447D01*
X0517553Y0070599D01*
X0517543Y0070752D01*
X0517537Y0070906D01*
X0517535Y0071059D01*
X0469700Y0070665D02*
X0469702Y0070818D01*
X0469708Y0070972D01*
X0469718Y0071125D01*
X0469732Y0071277D01*
X0469750Y0071430D01*
X0469772Y0071581D01*
X0469797Y0071732D01*
X0469827Y0071883D01*
X0469861Y0072033D01*
X0469898Y0072181D01*
X0469939Y0072329D01*
X0469984Y0072475D01*
X0470033Y0072621D01*
X0470086Y0072765D01*
X0470142Y0072907D01*
X0470202Y0073048D01*
X0470266Y0073188D01*
X0470333Y0073326D01*
X0470404Y0073462D01*
X0470479Y0073596D01*
X0470556Y0073728D01*
X0470638Y0073858D01*
X0470722Y0073986D01*
X0470810Y0074112D01*
X0470901Y0074235D01*
X0470995Y0074356D01*
X0471093Y0074474D01*
X0471193Y0074590D01*
X0471297Y0074703D01*
X0471403Y0074814D01*
X0471512Y0074922D01*
X0471624Y0075027D01*
X0471738Y0075128D01*
X0471856Y0075227D01*
X0471975Y0075323D01*
X0472097Y0075416D01*
X0472222Y0075505D01*
X0472349Y0075592D01*
X0472478Y0075674D01*
X0472609Y0075754D01*
X0472742Y0075830D01*
X0472877Y0075903D01*
X0473014Y0075972D01*
X0473153Y0076037D01*
X0473293Y0076099D01*
X0473435Y0076157D01*
X0473578Y0076212D01*
X0473723Y0076263D01*
X0473869Y0076310D01*
X0474016Y0076353D01*
X0474164Y0076392D01*
X0474313Y0076428D01*
X0474463Y0076459D01*
X0474614Y0076487D01*
X0474765Y0076511D01*
X0474918Y0076531D01*
X0475070Y0076547D01*
X0475223Y0076559D01*
X0475376Y0076567D01*
X0475529Y0076571D01*
X0475683Y0076571D01*
X0475836Y0076567D01*
X0475989Y0076559D01*
X0476142Y0076547D01*
X0476294Y0076531D01*
X0476447Y0076511D01*
X0476598Y0076487D01*
X0476749Y0076459D01*
X0476899Y0076428D01*
X0477048Y0076392D01*
X0477196Y0076353D01*
X0477343Y0076310D01*
X0477489Y0076263D01*
X0477634Y0076212D01*
X0477777Y0076157D01*
X0477919Y0076099D01*
X0478059Y0076037D01*
X0478198Y0075972D01*
X0478335Y0075903D01*
X0478470Y0075830D01*
X0478603Y0075754D01*
X0478734Y0075674D01*
X0478863Y0075592D01*
X0478990Y0075505D01*
X0479115Y0075416D01*
X0479237Y0075323D01*
X0479356Y0075227D01*
X0479474Y0075128D01*
X0479588Y0075027D01*
X0479700Y0074922D01*
X0479809Y0074814D01*
X0479915Y0074703D01*
X0480019Y0074590D01*
X0480119Y0074474D01*
X0480217Y0074356D01*
X0480311Y0074235D01*
X0480402Y0074112D01*
X0480490Y0073986D01*
X0480574Y0073858D01*
X0480656Y0073728D01*
X0480733Y0073596D01*
X0480808Y0073462D01*
X0480879Y0073326D01*
X0480946Y0073188D01*
X0481010Y0073048D01*
X0481070Y0072907D01*
X0481126Y0072765D01*
X0481179Y0072621D01*
X0481228Y0072475D01*
X0481273Y0072329D01*
X0481314Y0072181D01*
X0481351Y0072033D01*
X0481385Y0071883D01*
X0481415Y0071732D01*
X0481440Y0071581D01*
X0481462Y0071430D01*
X0481480Y0071277D01*
X0481494Y0071125D01*
X0481504Y0070972D01*
X0481510Y0070818D01*
X0481512Y0070665D01*
X0481510Y0070512D01*
X0481504Y0070358D01*
X0481494Y0070205D01*
X0481480Y0070053D01*
X0481462Y0069900D01*
X0481440Y0069749D01*
X0481415Y0069598D01*
X0481385Y0069447D01*
X0481351Y0069297D01*
X0481314Y0069149D01*
X0481273Y0069001D01*
X0481228Y0068855D01*
X0481179Y0068709D01*
X0481126Y0068565D01*
X0481070Y0068423D01*
X0481010Y0068282D01*
X0480946Y0068142D01*
X0480879Y0068004D01*
X0480808Y0067868D01*
X0480733Y0067734D01*
X0480656Y0067602D01*
X0480574Y0067472D01*
X0480490Y0067344D01*
X0480402Y0067218D01*
X0480311Y0067095D01*
X0480217Y0066974D01*
X0480119Y0066856D01*
X0480019Y0066740D01*
X0479915Y0066627D01*
X0479809Y0066516D01*
X0479700Y0066408D01*
X0479588Y0066303D01*
X0479474Y0066202D01*
X0479356Y0066103D01*
X0479237Y0066007D01*
X0479115Y0065914D01*
X0478990Y0065825D01*
X0478863Y0065738D01*
X0478734Y0065656D01*
X0478603Y0065576D01*
X0478470Y0065500D01*
X0478335Y0065427D01*
X0478198Y0065358D01*
X0478059Y0065293D01*
X0477919Y0065231D01*
X0477777Y0065173D01*
X0477634Y0065118D01*
X0477489Y0065067D01*
X0477343Y0065020D01*
X0477196Y0064977D01*
X0477048Y0064938D01*
X0476899Y0064902D01*
X0476749Y0064871D01*
X0476598Y0064843D01*
X0476447Y0064819D01*
X0476294Y0064799D01*
X0476142Y0064783D01*
X0475989Y0064771D01*
X0475836Y0064763D01*
X0475683Y0064759D01*
X0475529Y0064759D01*
X0475376Y0064763D01*
X0475223Y0064771D01*
X0475070Y0064783D01*
X0474918Y0064799D01*
X0474765Y0064819D01*
X0474614Y0064843D01*
X0474463Y0064871D01*
X0474313Y0064902D01*
X0474164Y0064938D01*
X0474016Y0064977D01*
X0473869Y0065020D01*
X0473723Y0065067D01*
X0473578Y0065118D01*
X0473435Y0065173D01*
X0473293Y0065231D01*
X0473153Y0065293D01*
X0473014Y0065358D01*
X0472877Y0065427D01*
X0472742Y0065500D01*
X0472609Y0065576D01*
X0472478Y0065656D01*
X0472349Y0065738D01*
X0472222Y0065825D01*
X0472097Y0065914D01*
X0471975Y0066007D01*
X0471856Y0066103D01*
X0471738Y0066202D01*
X0471624Y0066303D01*
X0471512Y0066408D01*
X0471403Y0066516D01*
X0471297Y0066627D01*
X0471193Y0066740D01*
X0471093Y0066856D01*
X0470995Y0066974D01*
X0470901Y0067095D01*
X0470810Y0067218D01*
X0470722Y0067344D01*
X0470638Y0067472D01*
X0470556Y0067602D01*
X0470479Y0067734D01*
X0470404Y0067868D01*
X0470333Y0068004D01*
X0470266Y0068142D01*
X0470202Y0068282D01*
X0470142Y0068423D01*
X0470086Y0068565D01*
X0470033Y0068709D01*
X0469984Y0068855D01*
X0469939Y0069001D01*
X0469898Y0069149D01*
X0469861Y0069297D01*
X0469827Y0069447D01*
X0469797Y0069598D01*
X0469772Y0069749D01*
X0469750Y0069900D01*
X0469732Y0070053D01*
X0469718Y0070205D01*
X0469708Y0070358D01*
X0469702Y0070512D01*
X0469700Y0070665D01*
X0403952Y0070665D02*
X0403954Y0070818D01*
X0403960Y0070972D01*
X0403970Y0071125D01*
X0403984Y0071277D01*
X0404002Y0071430D01*
X0404024Y0071581D01*
X0404049Y0071732D01*
X0404079Y0071883D01*
X0404113Y0072033D01*
X0404150Y0072181D01*
X0404191Y0072329D01*
X0404236Y0072475D01*
X0404285Y0072621D01*
X0404338Y0072765D01*
X0404394Y0072907D01*
X0404454Y0073048D01*
X0404518Y0073188D01*
X0404585Y0073326D01*
X0404656Y0073462D01*
X0404731Y0073596D01*
X0404808Y0073728D01*
X0404890Y0073858D01*
X0404974Y0073986D01*
X0405062Y0074112D01*
X0405153Y0074235D01*
X0405247Y0074356D01*
X0405345Y0074474D01*
X0405445Y0074590D01*
X0405549Y0074703D01*
X0405655Y0074814D01*
X0405764Y0074922D01*
X0405876Y0075027D01*
X0405990Y0075128D01*
X0406108Y0075227D01*
X0406227Y0075323D01*
X0406349Y0075416D01*
X0406474Y0075505D01*
X0406601Y0075592D01*
X0406730Y0075674D01*
X0406861Y0075754D01*
X0406994Y0075830D01*
X0407129Y0075903D01*
X0407266Y0075972D01*
X0407405Y0076037D01*
X0407545Y0076099D01*
X0407687Y0076157D01*
X0407830Y0076212D01*
X0407975Y0076263D01*
X0408121Y0076310D01*
X0408268Y0076353D01*
X0408416Y0076392D01*
X0408565Y0076428D01*
X0408715Y0076459D01*
X0408866Y0076487D01*
X0409017Y0076511D01*
X0409170Y0076531D01*
X0409322Y0076547D01*
X0409475Y0076559D01*
X0409628Y0076567D01*
X0409781Y0076571D01*
X0409935Y0076571D01*
X0410088Y0076567D01*
X0410241Y0076559D01*
X0410394Y0076547D01*
X0410546Y0076531D01*
X0410699Y0076511D01*
X0410850Y0076487D01*
X0411001Y0076459D01*
X0411151Y0076428D01*
X0411300Y0076392D01*
X0411448Y0076353D01*
X0411595Y0076310D01*
X0411741Y0076263D01*
X0411886Y0076212D01*
X0412029Y0076157D01*
X0412171Y0076099D01*
X0412311Y0076037D01*
X0412450Y0075972D01*
X0412587Y0075903D01*
X0412722Y0075830D01*
X0412855Y0075754D01*
X0412986Y0075674D01*
X0413115Y0075592D01*
X0413242Y0075505D01*
X0413367Y0075416D01*
X0413489Y0075323D01*
X0413608Y0075227D01*
X0413726Y0075128D01*
X0413840Y0075027D01*
X0413952Y0074922D01*
X0414061Y0074814D01*
X0414167Y0074703D01*
X0414271Y0074590D01*
X0414371Y0074474D01*
X0414469Y0074356D01*
X0414563Y0074235D01*
X0414654Y0074112D01*
X0414742Y0073986D01*
X0414826Y0073858D01*
X0414908Y0073728D01*
X0414985Y0073596D01*
X0415060Y0073462D01*
X0415131Y0073326D01*
X0415198Y0073188D01*
X0415262Y0073048D01*
X0415322Y0072907D01*
X0415378Y0072765D01*
X0415431Y0072621D01*
X0415480Y0072475D01*
X0415525Y0072329D01*
X0415566Y0072181D01*
X0415603Y0072033D01*
X0415637Y0071883D01*
X0415667Y0071732D01*
X0415692Y0071581D01*
X0415714Y0071430D01*
X0415732Y0071277D01*
X0415746Y0071125D01*
X0415756Y0070972D01*
X0415762Y0070818D01*
X0415764Y0070665D01*
X0415762Y0070512D01*
X0415756Y0070358D01*
X0415746Y0070205D01*
X0415732Y0070053D01*
X0415714Y0069900D01*
X0415692Y0069749D01*
X0415667Y0069598D01*
X0415637Y0069447D01*
X0415603Y0069297D01*
X0415566Y0069149D01*
X0415525Y0069001D01*
X0415480Y0068855D01*
X0415431Y0068709D01*
X0415378Y0068565D01*
X0415322Y0068423D01*
X0415262Y0068282D01*
X0415198Y0068142D01*
X0415131Y0068004D01*
X0415060Y0067868D01*
X0414985Y0067734D01*
X0414908Y0067602D01*
X0414826Y0067472D01*
X0414742Y0067344D01*
X0414654Y0067218D01*
X0414563Y0067095D01*
X0414469Y0066974D01*
X0414371Y0066856D01*
X0414271Y0066740D01*
X0414167Y0066627D01*
X0414061Y0066516D01*
X0413952Y0066408D01*
X0413840Y0066303D01*
X0413726Y0066202D01*
X0413608Y0066103D01*
X0413489Y0066007D01*
X0413367Y0065914D01*
X0413242Y0065825D01*
X0413115Y0065738D01*
X0412986Y0065656D01*
X0412855Y0065576D01*
X0412722Y0065500D01*
X0412587Y0065427D01*
X0412450Y0065358D01*
X0412311Y0065293D01*
X0412171Y0065231D01*
X0412029Y0065173D01*
X0411886Y0065118D01*
X0411741Y0065067D01*
X0411595Y0065020D01*
X0411448Y0064977D01*
X0411300Y0064938D01*
X0411151Y0064902D01*
X0411001Y0064871D01*
X0410850Y0064843D01*
X0410699Y0064819D01*
X0410546Y0064799D01*
X0410394Y0064783D01*
X0410241Y0064771D01*
X0410088Y0064763D01*
X0409935Y0064759D01*
X0409781Y0064759D01*
X0409628Y0064763D01*
X0409475Y0064771D01*
X0409322Y0064783D01*
X0409170Y0064799D01*
X0409017Y0064819D01*
X0408866Y0064843D01*
X0408715Y0064871D01*
X0408565Y0064902D01*
X0408416Y0064938D01*
X0408268Y0064977D01*
X0408121Y0065020D01*
X0407975Y0065067D01*
X0407830Y0065118D01*
X0407687Y0065173D01*
X0407545Y0065231D01*
X0407405Y0065293D01*
X0407266Y0065358D01*
X0407129Y0065427D01*
X0406994Y0065500D01*
X0406861Y0065576D01*
X0406730Y0065656D01*
X0406601Y0065738D01*
X0406474Y0065825D01*
X0406349Y0065914D01*
X0406227Y0066007D01*
X0406108Y0066103D01*
X0405990Y0066202D01*
X0405876Y0066303D01*
X0405764Y0066408D01*
X0405655Y0066516D01*
X0405549Y0066627D01*
X0405445Y0066740D01*
X0405345Y0066856D01*
X0405247Y0066974D01*
X0405153Y0067095D01*
X0405062Y0067218D01*
X0404974Y0067344D01*
X0404890Y0067472D01*
X0404808Y0067602D01*
X0404731Y0067734D01*
X0404656Y0067868D01*
X0404585Y0068004D01*
X0404518Y0068142D01*
X0404454Y0068282D01*
X0404394Y0068423D01*
X0404338Y0068565D01*
X0404285Y0068709D01*
X0404236Y0068855D01*
X0404191Y0069001D01*
X0404150Y0069149D01*
X0404113Y0069297D01*
X0404079Y0069447D01*
X0404049Y0069598D01*
X0404024Y0069749D01*
X0404002Y0069900D01*
X0403984Y0070053D01*
X0403970Y0070205D01*
X0403960Y0070358D01*
X0403954Y0070512D01*
X0403952Y0070665D01*
X0328559Y0071059D02*
X0328561Y0071212D01*
X0328567Y0071366D01*
X0328577Y0071519D01*
X0328591Y0071671D01*
X0328609Y0071824D01*
X0328631Y0071975D01*
X0328656Y0072126D01*
X0328686Y0072277D01*
X0328720Y0072427D01*
X0328757Y0072575D01*
X0328798Y0072723D01*
X0328843Y0072869D01*
X0328892Y0073015D01*
X0328945Y0073159D01*
X0329001Y0073301D01*
X0329061Y0073442D01*
X0329125Y0073582D01*
X0329192Y0073720D01*
X0329263Y0073856D01*
X0329338Y0073990D01*
X0329415Y0074122D01*
X0329497Y0074252D01*
X0329581Y0074380D01*
X0329669Y0074506D01*
X0329760Y0074629D01*
X0329854Y0074750D01*
X0329952Y0074868D01*
X0330052Y0074984D01*
X0330156Y0075097D01*
X0330262Y0075208D01*
X0330371Y0075316D01*
X0330483Y0075421D01*
X0330597Y0075522D01*
X0330715Y0075621D01*
X0330834Y0075717D01*
X0330956Y0075810D01*
X0331081Y0075899D01*
X0331208Y0075986D01*
X0331337Y0076068D01*
X0331468Y0076148D01*
X0331601Y0076224D01*
X0331736Y0076297D01*
X0331873Y0076366D01*
X0332012Y0076431D01*
X0332152Y0076493D01*
X0332294Y0076551D01*
X0332437Y0076606D01*
X0332582Y0076657D01*
X0332728Y0076704D01*
X0332875Y0076747D01*
X0333023Y0076786D01*
X0333172Y0076822D01*
X0333322Y0076853D01*
X0333473Y0076881D01*
X0333624Y0076905D01*
X0333777Y0076925D01*
X0333929Y0076941D01*
X0334082Y0076953D01*
X0334235Y0076961D01*
X0334388Y0076965D01*
X0334542Y0076965D01*
X0334695Y0076961D01*
X0334848Y0076953D01*
X0335001Y0076941D01*
X0335153Y0076925D01*
X0335306Y0076905D01*
X0335457Y0076881D01*
X0335608Y0076853D01*
X0335758Y0076822D01*
X0335907Y0076786D01*
X0336055Y0076747D01*
X0336202Y0076704D01*
X0336348Y0076657D01*
X0336493Y0076606D01*
X0336636Y0076551D01*
X0336778Y0076493D01*
X0336918Y0076431D01*
X0337057Y0076366D01*
X0337194Y0076297D01*
X0337329Y0076224D01*
X0337462Y0076148D01*
X0337593Y0076068D01*
X0337722Y0075986D01*
X0337849Y0075899D01*
X0337974Y0075810D01*
X0338096Y0075717D01*
X0338215Y0075621D01*
X0338333Y0075522D01*
X0338447Y0075421D01*
X0338559Y0075316D01*
X0338668Y0075208D01*
X0338774Y0075097D01*
X0338878Y0074984D01*
X0338978Y0074868D01*
X0339076Y0074750D01*
X0339170Y0074629D01*
X0339261Y0074506D01*
X0339349Y0074380D01*
X0339433Y0074252D01*
X0339515Y0074122D01*
X0339592Y0073990D01*
X0339667Y0073856D01*
X0339738Y0073720D01*
X0339805Y0073582D01*
X0339869Y0073442D01*
X0339929Y0073301D01*
X0339985Y0073159D01*
X0340038Y0073015D01*
X0340087Y0072869D01*
X0340132Y0072723D01*
X0340173Y0072575D01*
X0340210Y0072427D01*
X0340244Y0072277D01*
X0340274Y0072126D01*
X0340299Y0071975D01*
X0340321Y0071824D01*
X0340339Y0071671D01*
X0340353Y0071519D01*
X0340363Y0071366D01*
X0340369Y0071212D01*
X0340371Y0071059D01*
X0340369Y0070906D01*
X0340363Y0070752D01*
X0340353Y0070599D01*
X0340339Y0070447D01*
X0340321Y0070294D01*
X0340299Y0070143D01*
X0340274Y0069992D01*
X0340244Y0069841D01*
X0340210Y0069691D01*
X0340173Y0069543D01*
X0340132Y0069395D01*
X0340087Y0069249D01*
X0340038Y0069103D01*
X0339985Y0068959D01*
X0339929Y0068817D01*
X0339869Y0068676D01*
X0339805Y0068536D01*
X0339738Y0068398D01*
X0339667Y0068262D01*
X0339592Y0068128D01*
X0339515Y0067996D01*
X0339433Y0067866D01*
X0339349Y0067738D01*
X0339261Y0067612D01*
X0339170Y0067489D01*
X0339076Y0067368D01*
X0338978Y0067250D01*
X0338878Y0067134D01*
X0338774Y0067021D01*
X0338668Y0066910D01*
X0338559Y0066802D01*
X0338447Y0066697D01*
X0338333Y0066596D01*
X0338215Y0066497D01*
X0338096Y0066401D01*
X0337974Y0066308D01*
X0337849Y0066219D01*
X0337722Y0066132D01*
X0337593Y0066050D01*
X0337462Y0065970D01*
X0337329Y0065894D01*
X0337194Y0065821D01*
X0337057Y0065752D01*
X0336918Y0065687D01*
X0336778Y0065625D01*
X0336636Y0065567D01*
X0336493Y0065512D01*
X0336348Y0065461D01*
X0336202Y0065414D01*
X0336055Y0065371D01*
X0335907Y0065332D01*
X0335758Y0065296D01*
X0335608Y0065265D01*
X0335457Y0065237D01*
X0335306Y0065213D01*
X0335153Y0065193D01*
X0335001Y0065177D01*
X0334848Y0065165D01*
X0334695Y0065157D01*
X0334542Y0065153D01*
X0334388Y0065153D01*
X0334235Y0065157D01*
X0334082Y0065165D01*
X0333929Y0065177D01*
X0333777Y0065193D01*
X0333624Y0065213D01*
X0333473Y0065237D01*
X0333322Y0065265D01*
X0333172Y0065296D01*
X0333023Y0065332D01*
X0332875Y0065371D01*
X0332728Y0065414D01*
X0332582Y0065461D01*
X0332437Y0065512D01*
X0332294Y0065567D01*
X0332152Y0065625D01*
X0332012Y0065687D01*
X0331873Y0065752D01*
X0331736Y0065821D01*
X0331601Y0065894D01*
X0331468Y0065970D01*
X0331337Y0066050D01*
X0331208Y0066132D01*
X0331081Y0066219D01*
X0330956Y0066308D01*
X0330834Y0066401D01*
X0330715Y0066497D01*
X0330597Y0066596D01*
X0330483Y0066697D01*
X0330371Y0066802D01*
X0330262Y0066910D01*
X0330156Y0067021D01*
X0330052Y0067134D01*
X0329952Y0067250D01*
X0329854Y0067368D01*
X0329760Y0067489D01*
X0329669Y0067612D01*
X0329581Y0067738D01*
X0329497Y0067866D01*
X0329415Y0067996D01*
X0329338Y0068128D01*
X0329263Y0068262D01*
X0329192Y0068398D01*
X0329125Y0068536D01*
X0329061Y0068676D01*
X0329001Y0068817D01*
X0328945Y0068959D01*
X0328892Y0069103D01*
X0328843Y0069249D01*
X0328798Y0069395D01*
X0328757Y0069543D01*
X0328720Y0069691D01*
X0328686Y0069841D01*
X0328656Y0069992D01*
X0328631Y0070143D01*
X0328609Y0070294D01*
X0328591Y0070447D01*
X0328577Y0070599D01*
X0328567Y0070752D01*
X0328561Y0070906D01*
X0328559Y0071059D01*
X0297063Y0071059D02*
X0297065Y0071212D01*
X0297071Y0071366D01*
X0297081Y0071519D01*
X0297095Y0071671D01*
X0297113Y0071824D01*
X0297135Y0071975D01*
X0297160Y0072126D01*
X0297190Y0072277D01*
X0297224Y0072427D01*
X0297261Y0072575D01*
X0297302Y0072723D01*
X0297347Y0072869D01*
X0297396Y0073015D01*
X0297449Y0073159D01*
X0297505Y0073301D01*
X0297565Y0073442D01*
X0297629Y0073582D01*
X0297696Y0073720D01*
X0297767Y0073856D01*
X0297842Y0073990D01*
X0297919Y0074122D01*
X0298001Y0074252D01*
X0298085Y0074380D01*
X0298173Y0074506D01*
X0298264Y0074629D01*
X0298358Y0074750D01*
X0298456Y0074868D01*
X0298556Y0074984D01*
X0298660Y0075097D01*
X0298766Y0075208D01*
X0298875Y0075316D01*
X0298987Y0075421D01*
X0299101Y0075522D01*
X0299219Y0075621D01*
X0299338Y0075717D01*
X0299460Y0075810D01*
X0299585Y0075899D01*
X0299712Y0075986D01*
X0299841Y0076068D01*
X0299972Y0076148D01*
X0300105Y0076224D01*
X0300240Y0076297D01*
X0300377Y0076366D01*
X0300516Y0076431D01*
X0300656Y0076493D01*
X0300798Y0076551D01*
X0300941Y0076606D01*
X0301086Y0076657D01*
X0301232Y0076704D01*
X0301379Y0076747D01*
X0301527Y0076786D01*
X0301676Y0076822D01*
X0301826Y0076853D01*
X0301977Y0076881D01*
X0302128Y0076905D01*
X0302281Y0076925D01*
X0302433Y0076941D01*
X0302586Y0076953D01*
X0302739Y0076961D01*
X0302892Y0076965D01*
X0303046Y0076965D01*
X0303199Y0076961D01*
X0303352Y0076953D01*
X0303505Y0076941D01*
X0303657Y0076925D01*
X0303810Y0076905D01*
X0303961Y0076881D01*
X0304112Y0076853D01*
X0304262Y0076822D01*
X0304411Y0076786D01*
X0304559Y0076747D01*
X0304706Y0076704D01*
X0304852Y0076657D01*
X0304997Y0076606D01*
X0305140Y0076551D01*
X0305282Y0076493D01*
X0305422Y0076431D01*
X0305561Y0076366D01*
X0305698Y0076297D01*
X0305833Y0076224D01*
X0305966Y0076148D01*
X0306097Y0076068D01*
X0306226Y0075986D01*
X0306353Y0075899D01*
X0306478Y0075810D01*
X0306600Y0075717D01*
X0306719Y0075621D01*
X0306837Y0075522D01*
X0306951Y0075421D01*
X0307063Y0075316D01*
X0307172Y0075208D01*
X0307278Y0075097D01*
X0307382Y0074984D01*
X0307482Y0074868D01*
X0307580Y0074750D01*
X0307674Y0074629D01*
X0307765Y0074506D01*
X0307853Y0074380D01*
X0307937Y0074252D01*
X0308019Y0074122D01*
X0308096Y0073990D01*
X0308171Y0073856D01*
X0308242Y0073720D01*
X0308309Y0073582D01*
X0308373Y0073442D01*
X0308433Y0073301D01*
X0308489Y0073159D01*
X0308542Y0073015D01*
X0308591Y0072869D01*
X0308636Y0072723D01*
X0308677Y0072575D01*
X0308714Y0072427D01*
X0308748Y0072277D01*
X0308778Y0072126D01*
X0308803Y0071975D01*
X0308825Y0071824D01*
X0308843Y0071671D01*
X0308857Y0071519D01*
X0308867Y0071366D01*
X0308873Y0071212D01*
X0308875Y0071059D01*
X0308873Y0070906D01*
X0308867Y0070752D01*
X0308857Y0070599D01*
X0308843Y0070447D01*
X0308825Y0070294D01*
X0308803Y0070143D01*
X0308778Y0069992D01*
X0308748Y0069841D01*
X0308714Y0069691D01*
X0308677Y0069543D01*
X0308636Y0069395D01*
X0308591Y0069249D01*
X0308542Y0069103D01*
X0308489Y0068959D01*
X0308433Y0068817D01*
X0308373Y0068676D01*
X0308309Y0068536D01*
X0308242Y0068398D01*
X0308171Y0068262D01*
X0308096Y0068128D01*
X0308019Y0067996D01*
X0307937Y0067866D01*
X0307853Y0067738D01*
X0307765Y0067612D01*
X0307674Y0067489D01*
X0307580Y0067368D01*
X0307482Y0067250D01*
X0307382Y0067134D01*
X0307278Y0067021D01*
X0307172Y0066910D01*
X0307063Y0066802D01*
X0306951Y0066697D01*
X0306837Y0066596D01*
X0306719Y0066497D01*
X0306600Y0066401D01*
X0306478Y0066308D01*
X0306353Y0066219D01*
X0306226Y0066132D01*
X0306097Y0066050D01*
X0305966Y0065970D01*
X0305833Y0065894D01*
X0305698Y0065821D01*
X0305561Y0065752D01*
X0305422Y0065687D01*
X0305282Y0065625D01*
X0305140Y0065567D01*
X0304997Y0065512D01*
X0304852Y0065461D01*
X0304706Y0065414D01*
X0304559Y0065371D01*
X0304411Y0065332D01*
X0304262Y0065296D01*
X0304112Y0065265D01*
X0303961Y0065237D01*
X0303810Y0065213D01*
X0303657Y0065193D01*
X0303505Y0065177D01*
X0303352Y0065165D01*
X0303199Y0065157D01*
X0303046Y0065153D01*
X0302892Y0065153D01*
X0302739Y0065157D01*
X0302586Y0065165D01*
X0302433Y0065177D01*
X0302281Y0065193D01*
X0302128Y0065213D01*
X0301977Y0065237D01*
X0301826Y0065265D01*
X0301676Y0065296D01*
X0301527Y0065332D01*
X0301379Y0065371D01*
X0301232Y0065414D01*
X0301086Y0065461D01*
X0300941Y0065512D01*
X0300798Y0065567D01*
X0300656Y0065625D01*
X0300516Y0065687D01*
X0300377Y0065752D01*
X0300240Y0065821D01*
X0300105Y0065894D01*
X0299972Y0065970D01*
X0299841Y0066050D01*
X0299712Y0066132D01*
X0299585Y0066219D01*
X0299460Y0066308D01*
X0299338Y0066401D01*
X0299219Y0066497D01*
X0299101Y0066596D01*
X0298987Y0066697D01*
X0298875Y0066802D01*
X0298766Y0066910D01*
X0298660Y0067021D01*
X0298556Y0067134D01*
X0298456Y0067250D01*
X0298358Y0067368D01*
X0298264Y0067489D01*
X0298173Y0067612D01*
X0298085Y0067738D01*
X0298001Y0067866D01*
X0297919Y0067996D01*
X0297842Y0068128D01*
X0297767Y0068262D01*
X0297696Y0068398D01*
X0297629Y0068536D01*
X0297565Y0068676D01*
X0297505Y0068817D01*
X0297449Y0068959D01*
X0297396Y0069103D01*
X0297347Y0069249D01*
X0297302Y0069395D01*
X0297261Y0069543D01*
X0297224Y0069691D01*
X0297190Y0069841D01*
X0297160Y0069992D01*
X0297135Y0070143D01*
X0297113Y0070294D01*
X0297095Y0070447D01*
X0297081Y0070599D01*
X0297071Y0070752D01*
X0297065Y0070906D01*
X0297063Y0071059D01*
X0214385Y0071059D02*
X0214387Y0071212D01*
X0214393Y0071366D01*
X0214403Y0071519D01*
X0214417Y0071671D01*
X0214435Y0071824D01*
X0214457Y0071975D01*
X0214482Y0072126D01*
X0214512Y0072277D01*
X0214546Y0072427D01*
X0214583Y0072575D01*
X0214624Y0072723D01*
X0214669Y0072869D01*
X0214718Y0073015D01*
X0214771Y0073159D01*
X0214827Y0073301D01*
X0214887Y0073442D01*
X0214951Y0073582D01*
X0215018Y0073720D01*
X0215089Y0073856D01*
X0215164Y0073990D01*
X0215241Y0074122D01*
X0215323Y0074252D01*
X0215407Y0074380D01*
X0215495Y0074506D01*
X0215586Y0074629D01*
X0215680Y0074750D01*
X0215778Y0074868D01*
X0215878Y0074984D01*
X0215982Y0075097D01*
X0216088Y0075208D01*
X0216197Y0075316D01*
X0216309Y0075421D01*
X0216423Y0075522D01*
X0216541Y0075621D01*
X0216660Y0075717D01*
X0216782Y0075810D01*
X0216907Y0075899D01*
X0217034Y0075986D01*
X0217163Y0076068D01*
X0217294Y0076148D01*
X0217427Y0076224D01*
X0217562Y0076297D01*
X0217699Y0076366D01*
X0217838Y0076431D01*
X0217978Y0076493D01*
X0218120Y0076551D01*
X0218263Y0076606D01*
X0218408Y0076657D01*
X0218554Y0076704D01*
X0218701Y0076747D01*
X0218849Y0076786D01*
X0218998Y0076822D01*
X0219148Y0076853D01*
X0219299Y0076881D01*
X0219450Y0076905D01*
X0219603Y0076925D01*
X0219755Y0076941D01*
X0219908Y0076953D01*
X0220061Y0076961D01*
X0220214Y0076965D01*
X0220368Y0076965D01*
X0220521Y0076961D01*
X0220674Y0076953D01*
X0220827Y0076941D01*
X0220979Y0076925D01*
X0221132Y0076905D01*
X0221283Y0076881D01*
X0221434Y0076853D01*
X0221584Y0076822D01*
X0221733Y0076786D01*
X0221881Y0076747D01*
X0222028Y0076704D01*
X0222174Y0076657D01*
X0222319Y0076606D01*
X0222462Y0076551D01*
X0222604Y0076493D01*
X0222744Y0076431D01*
X0222883Y0076366D01*
X0223020Y0076297D01*
X0223155Y0076224D01*
X0223288Y0076148D01*
X0223419Y0076068D01*
X0223548Y0075986D01*
X0223675Y0075899D01*
X0223800Y0075810D01*
X0223922Y0075717D01*
X0224041Y0075621D01*
X0224159Y0075522D01*
X0224273Y0075421D01*
X0224385Y0075316D01*
X0224494Y0075208D01*
X0224600Y0075097D01*
X0224704Y0074984D01*
X0224804Y0074868D01*
X0224902Y0074750D01*
X0224996Y0074629D01*
X0225087Y0074506D01*
X0225175Y0074380D01*
X0225259Y0074252D01*
X0225341Y0074122D01*
X0225418Y0073990D01*
X0225493Y0073856D01*
X0225564Y0073720D01*
X0225631Y0073582D01*
X0225695Y0073442D01*
X0225755Y0073301D01*
X0225811Y0073159D01*
X0225864Y0073015D01*
X0225913Y0072869D01*
X0225958Y0072723D01*
X0225999Y0072575D01*
X0226036Y0072427D01*
X0226070Y0072277D01*
X0226100Y0072126D01*
X0226125Y0071975D01*
X0226147Y0071824D01*
X0226165Y0071671D01*
X0226179Y0071519D01*
X0226189Y0071366D01*
X0226195Y0071212D01*
X0226197Y0071059D01*
X0226195Y0070906D01*
X0226189Y0070752D01*
X0226179Y0070599D01*
X0226165Y0070447D01*
X0226147Y0070294D01*
X0226125Y0070143D01*
X0226100Y0069992D01*
X0226070Y0069841D01*
X0226036Y0069691D01*
X0225999Y0069543D01*
X0225958Y0069395D01*
X0225913Y0069249D01*
X0225864Y0069103D01*
X0225811Y0068959D01*
X0225755Y0068817D01*
X0225695Y0068676D01*
X0225631Y0068536D01*
X0225564Y0068398D01*
X0225493Y0068262D01*
X0225418Y0068128D01*
X0225341Y0067996D01*
X0225259Y0067866D01*
X0225175Y0067738D01*
X0225087Y0067612D01*
X0224996Y0067489D01*
X0224902Y0067368D01*
X0224804Y0067250D01*
X0224704Y0067134D01*
X0224600Y0067021D01*
X0224494Y0066910D01*
X0224385Y0066802D01*
X0224273Y0066697D01*
X0224159Y0066596D01*
X0224041Y0066497D01*
X0223922Y0066401D01*
X0223800Y0066308D01*
X0223675Y0066219D01*
X0223548Y0066132D01*
X0223419Y0066050D01*
X0223288Y0065970D01*
X0223155Y0065894D01*
X0223020Y0065821D01*
X0222883Y0065752D01*
X0222744Y0065687D01*
X0222604Y0065625D01*
X0222462Y0065567D01*
X0222319Y0065512D01*
X0222174Y0065461D01*
X0222028Y0065414D01*
X0221881Y0065371D01*
X0221733Y0065332D01*
X0221584Y0065296D01*
X0221434Y0065265D01*
X0221283Y0065237D01*
X0221132Y0065213D01*
X0220979Y0065193D01*
X0220827Y0065177D01*
X0220674Y0065165D01*
X0220521Y0065157D01*
X0220368Y0065153D01*
X0220214Y0065153D01*
X0220061Y0065157D01*
X0219908Y0065165D01*
X0219755Y0065177D01*
X0219603Y0065193D01*
X0219450Y0065213D01*
X0219299Y0065237D01*
X0219148Y0065265D01*
X0218998Y0065296D01*
X0218849Y0065332D01*
X0218701Y0065371D01*
X0218554Y0065414D01*
X0218408Y0065461D01*
X0218263Y0065512D01*
X0218120Y0065567D01*
X0217978Y0065625D01*
X0217838Y0065687D01*
X0217699Y0065752D01*
X0217562Y0065821D01*
X0217427Y0065894D01*
X0217294Y0065970D01*
X0217163Y0066050D01*
X0217034Y0066132D01*
X0216907Y0066219D01*
X0216782Y0066308D01*
X0216660Y0066401D01*
X0216541Y0066497D01*
X0216423Y0066596D01*
X0216309Y0066697D01*
X0216197Y0066802D01*
X0216088Y0066910D01*
X0215982Y0067021D01*
X0215878Y0067134D01*
X0215778Y0067250D01*
X0215680Y0067368D01*
X0215586Y0067489D01*
X0215495Y0067612D01*
X0215407Y0067738D01*
X0215323Y0067866D01*
X0215241Y0067996D01*
X0215164Y0068128D01*
X0215089Y0068262D01*
X0215018Y0068398D01*
X0214951Y0068536D01*
X0214887Y0068676D01*
X0214827Y0068817D01*
X0214771Y0068959D01*
X0214718Y0069103D01*
X0214669Y0069249D01*
X0214624Y0069395D01*
X0214583Y0069543D01*
X0214546Y0069691D01*
X0214512Y0069841D01*
X0214482Y0069992D01*
X0214457Y0070143D01*
X0214435Y0070294D01*
X0214417Y0070447D01*
X0214403Y0070599D01*
X0214393Y0070752D01*
X0214387Y0070906D01*
X0214385Y0071059D01*
X0182889Y0071059D02*
X0182891Y0071212D01*
X0182897Y0071366D01*
X0182907Y0071519D01*
X0182921Y0071671D01*
X0182939Y0071824D01*
X0182961Y0071975D01*
X0182986Y0072126D01*
X0183016Y0072277D01*
X0183050Y0072427D01*
X0183087Y0072575D01*
X0183128Y0072723D01*
X0183173Y0072869D01*
X0183222Y0073015D01*
X0183275Y0073159D01*
X0183331Y0073301D01*
X0183391Y0073442D01*
X0183455Y0073582D01*
X0183522Y0073720D01*
X0183593Y0073856D01*
X0183668Y0073990D01*
X0183745Y0074122D01*
X0183827Y0074252D01*
X0183911Y0074380D01*
X0183999Y0074506D01*
X0184090Y0074629D01*
X0184184Y0074750D01*
X0184282Y0074868D01*
X0184382Y0074984D01*
X0184486Y0075097D01*
X0184592Y0075208D01*
X0184701Y0075316D01*
X0184813Y0075421D01*
X0184927Y0075522D01*
X0185045Y0075621D01*
X0185164Y0075717D01*
X0185286Y0075810D01*
X0185411Y0075899D01*
X0185538Y0075986D01*
X0185667Y0076068D01*
X0185798Y0076148D01*
X0185931Y0076224D01*
X0186066Y0076297D01*
X0186203Y0076366D01*
X0186342Y0076431D01*
X0186482Y0076493D01*
X0186624Y0076551D01*
X0186767Y0076606D01*
X0186912Y0076657D01*
X0187058Y0076704D01*
X0187205Y0076747D01*
X0187353Y0076786D01*
X0187502Y0076822D01*
X0187652Y0076853D01*
X0187803Y0076881D01*
X0187954Y0076905D01*
X0188107Y0076925D01*
X0188259Y0076941D01*
X0188412Y0076953D01*
X0188565Y0076961D01*
X0188718Y0076965D01*
X0188872Y0076965D01*
X0189025Y0076961D01*
X0189178Y0076953D01*
X0189331Y0076941D01*
X0189483Y0076925D01*
X0189636Y0076905D01*
X0189787Y0076881D01*
X0189938Y0076853D01*
X0190088Y0076822D01*
X0190237Y0076786D01*
X0190385Y0076747D01*
X0190532Y0076704D01*
X0190678Y0076657D01*
X0190823Y0076606D01*
X0190966Y0076551D01*
X0191108Y0076493D01*
X0191248Y0076431D01*
X0191387Y0076366D01*
X0191524Y0076297D01*
X0191659Y0076224D01*
X0191792Y0076148D01*
X0191923Y0076068D01*
X0192052Y0075986D01*
X0192179Y0075899D01*
X0192304Y0075810D01*
X0192426Y0075717D01*
X0192545Y0075621D01*
X0192663Y0075522D01*
X0192777Y0075421D01*
X0192889Y0075316D01*
X0192998Y0075208D01*
X0193104Y0075097D01*
X0193208Y0074984D01*
X0193308Y0074868D01*
X0193406Y0074750D01*
X0193500Y0074629D01*
X0193591Y0074506D01*
X0193679Y0074380D01*
X0193763Y0074252D01*
X0193845Y0074122D01*
X0193922Y0073990D01*
X0193997Y0073856D01*
X0194068Y0073720D01*
X0194135Y0073582D01*
X0194199Y0073442D01*
X0194259Y0073301D01*
X0194315Y0073159D01*
X0194368Y0073015D01*
X0194417Y0072869D01*
X0194462Y0072723D01*
X0194503Y0072575D01*
X0194540Y0072427D01*
X0194574Y0072277D01*
X0194604Y0072126D01*
X0194629Y0071975D01*
X0194651Y0071824D01*
X0194669Y0071671D01*
X0194683Y0071519D01*
X0194693Y0071366D01*
X0194699Y0071212D01*
X0194701Y0071059D01*
X0194699Y0070906D01*
X0194693Y0070752D01*
X0194683Y0070599D01*
X0194669Y0070447D01*
X0194651Y0070294D01*
X0194629Y0070143D01*
X0194604Y0069992D01*
X0194574Y0069841D01*
X0194540Y0069691D01*
X0194503Y0069543D01*
X0194462Y0069395D01*
X0194417Y0069249D01*
X0194368Y0069103D01*
X0194315Y0068959D01*
X0194259Y0068817D01*
X0194199Y0068676D01*
X0194135Y0068536D01*
X0194068Y0068398D01*
X0193997Y0068262D01*
X0193922Y0068128D01*
X0193845Y0067996D01*
X0193763Y0067866D01*
X0193679Y0067738D01*
X0193591Y0067612D01*
X0193500Y0067489D01*
X0193406Y0067368D01*
X0193308Y0067250D01*
X0193208Y0067134D01*
X0193104Y0067021D01*
X0192998Y0066910D01*
X0192889Y0066802D01*
X0192777Y0066697D01*
X0192663Y0066596D01*
X0192545Y0066497D01*
X0192426Y0066401D01*
X0192304Y0066308D01*
X0192179Y0066219D01*
X0192052Y0066132D01*
X0191923Y0066050D01*
X0191792Y0065970D01*
X0191659Y0065894D01*
X0191524Y0065821D01*
X0191387Y0065752D01*
X0191248Y0065687D01*
X0191108Y0065625D01*
X0190966Y0065567D01*
X0190823Y0065512D01*
X0190678Y0065461D01*
X0190532Y0065414D01*
X0190385Y0065371D01*
X0190237Y0065332D01*
X0190088Y0065296D01*
X0189938Y0065265D01*
X0189787Y0065237D01*
X0189636Y0065213D01*
X0189483Y0065193D01*
X0189331Y0065177D01*
X0189178Y0065165D01*
X0189025Y0065157D01*
X0188872Y0065153D01*
X0188718Y0065153D01*
X0188565Y0065157D01*
X0188412Y0065165D01*
X0188259Y0065177D01*
X0188107Y0065193D01*
X0187954Y0065213D01*
X0187803Y0065237D01*
X0187652Y0065265D01*
X0187502Y0065296D01*
X0187353Y0065332D01*
X0187205Y0065371D01*
X0187058Y0065414D01*
X0186912Y0065461D01*
X0186767Y0065512D01*
X0186624Y0065567D01*
X0186482Y0065625D01*
X0186342Y0065687D01*
X0186203Y0065752D01*
X0186066Y0065821D01*
X0185931Y0065894D01*
X0185798Y0065970D01*
X0185667Y0066050D01*
X0185538Y0066132D01*
X0185411Y0066219D01*
X0185286Y0066308D01*
X0185164Y0066401D01*
X0185045Y0066497D01*
X0184927Y0066596D01*
X0184813Y0066697D01*
X0184701Y0066802D01*
X0184592Y0066910D01*
X0184486Y0067021D01*
X0184382Y0067134D01*
X0184282Y0067250D01*
X0184184Y0067368D01*
X0184090Y0067489D01*
X0183999Y0067612D01*
X0183911Y0067738D01*
X0183827Y0067866D01*
X0183745Y0067996D01*
X0183668Y0068128D01*
X0183593Y0068262D01*
X0183522Y0068398D01*
X0183455Y0068536D01*
X0183391Y0068676D01*
X0183331Y0068817D01*
X0183275Y0068959D01*
X0183222Y0069103D01*
X0183173Y0069249D01*
X0183128Y0069395D01*
X0183087Y0069543D01*
X0183050Y0069691D01*
X0183016Y0069841D01*
X0182986Y0069992D01*
X0182961Y0070143D01*
X0182939Y0070294D01*
X0182921Y0070447D01*
X0182907Y0070599D01*
X0182897Y0070752D01*
X0182891Y0070906D01*
X0182889Y0071059D01*
X0151393Y0071059D02*
X0151395Y0071212D01*
X0151401Y0071366D01*
X0151411Y0071519D01*
X0151425Y0071671D01*
X0151443Y0071824D01*
X0151465Y0071975D01*
X0151490Y0072126D01*
X0151520Y0072277D01*
X0151554Y0072427D01*
X0151591Y0072575D01*
X0151632Y0072723D01*
X0151677Y0072869D01*
X0151726Y0073015D01*
X0151779Y0073159D01*
X0151835Y0073301D01*
X0151895Y0073442D01*
X0151959Y0073582D01*
X0152026Y0073720D01*
X0152097Y0073856D01*
X0152172Y0073990D01*
X0152249Y0074122D01*
X0152331Y0074252D01*
X0152415Y0074380D01*
X0152503Y0074506D01*
X0152594Y0074629D01*
X0152688Y0074750D01*
X0152786Y0074868D01*
X0152886Y0074984D01*
X0152990Y0075097D01*
X0153096Y0075208D01*
X0153205Y0075316D01*
X0153317Y0075421D01*
X0153431Y0075522D01*
X0153549Y0075621D01*
X0153668Y0075717D01*
X0153790Y0075810D01*
X0153915Y0075899D01*
X0154042Y0075986D01*
X0154171Y0076068D01*
X0154302Y0076148D01*
X0154435Y0076224D01*
X0154570Y0076297D01*
X0154707Y0076366D01*
X0154846Y0076431D01*
X0154986Y0076493D01*
X0155128Y0076551D01*
X0155271Y0076606D01*
X0155416Y0076657D01*
X0155562Y0076704D01*
X0155709Y0076747D01*
X0155857Y0076786D01*
X0156006Y0076822D01*
X0156156Y0076853D01*
X0156307Y0076881D01*
X0156458Y0076905D01*
X0156611Y0076925D01*
X0156763Y0076941D01*
X0156916Y0076953D01*
X0157069Y0076961D01*
X0157222Y0076965D01*
X0157376Y0076965D01*
X0157529Y0076961D01*
X0157682Y0076953D01*
X0157835Y0076941D01*
X0157987Y0076925D01*
X0158140Y0076905D01*
X0158291Y0076881D01*
X0158442Y0076853D01*
X0158592Y0076822D01*
X0158741Y0076786D01*
X0158889Y0076747D01*
X0159036Y0076704D01*
X0159182Y0076657D01*
X0159327Y0076606D01*
X0159470Y0076551D01*
X0159612Y0076493D01*
X0159752Y0076431D01*
X0159891Y0076366D01*
X0160028Y0076297D01*
X0160163Y0076224D01*
X0160296Y0076148D01*
X0160427Y0076068D01*
X0160556Y0075986D01*
X0160683Y0075899D01*
X0160808Y0075810D01*
X0160930Y0075717D01*
X0161049Y0075621D01*
X0161167Y0075522D01*
X0161281Y0075421D01*
X0161393Y0075316D01*
X0161502Y0075208D01*
X0161608Y0075097D01*
X0161712Y0074984D01*
X0161812Y0074868D01*
X0161910Y0074750D01*
X0162004Y0074629D01*
X0162095Y0074506D01*
X0162183Y0074380D01*
X0162267Y0074252D01*
X0162349Y0074122D01*
X0162426Y0073990D01*
X0162501Y0073856D01*
X0162572Y0073720D01*
X0162639Y0073582D01*
X0162703Y0073442D01*
X0162763Y0073301D01*
X0162819Y0073159D01*
X0162872Y0073015D01*
X0162921Y0072869D01*
X0162966Y0072723D01*
X0163007Y0072575D01*
X0163044Y0072427D01*
X0163078Y0072277D01*
X0163108Y0072126D01*
X0163133Y0071975D01*
X0163155Y0071824D01*
X0163173Y0071671D01*
X0163187Y0071519D01*
X0163197Y0071366D01*
X0163203Y0071212D01*
X0163205Y0071059D01*
X0163203Y0070906D01*
X0163197Y0070752D01*
X0163187Y0070599D01*
X0163173Y0070447D01*
X0163155Y0070294D01*
X0163133Y0070143D01*
X0163108Y0069992D01*
X0163078Y0069841D01*
X0163044Y0069691D01*
X0163007Y0069543D01*
X0162966Y0069395D01*
X0162921Y0069249D01*
X0162872Y0069103D01*
X0162819Y0068959D01*
X0162763Y0068817D01*
X0162703Y0068676D01*
X0162639Y0068536D01*
X0162572Y0068398D01*
X0162501Y0068262D01*
X0162426Y0068128D01*
X0162349Y0067996D01*
X0162267Y0067866D01*
X0162183Y0067738D01*
X0162095Y0067612D01*
X0162004Y0067489D01*
X0161910Y0067368D01*
X0161812Y0067250D01*
X0161712Y0067134D01*
X0161608Y0067021D01*
X0161502Y0066910D01*
X0161393Y0066802D01*
X0161281Y0066697D01*
X0161167Y0066596D01*
X0161049Y0066497D01*
X0160930Y0066401D01*
X0160808Y0066308D01*
X0160683Y0066219D01*
X0160556Y0066132D01*
X0160427Y0066050D01*
X0160296Y0065970D01*
X0160163Y0065894D01*
X0160028Y0065821D01*
X0159891Y0065752D01*
X0159752Y0065687D01*
X0159612Y0065625D01*
X0159470Y0065567D01*
X0159327Y0065512D01*
X0159182Y0065461D01*
X0159036Y0065414D01*
X0158889Y0065371D01*
X0158741Y0065332D01*
X0158592Y0065296D01*
X0158442Y0065265D01*
X0158291Y0065237D01*
X0158140Y0065213D01*
X0157987Y0065193D01*
X0157835Y0065177D01*
X0157682Y0065165D01*
X0157529Y0065157D01*
X0157376Y0065153D01*
X0157222Y0065153D01*
X0157069Y0065157D01*
X0156916Y0065165D01*
X0156763Y0065177D01*
X0156611Y0065193D01*
X0156458Y0065213D01*
X0156307Y0065237D01*
X0156156Y0065265D01*
X0156006Y0065296D01*
X0155857Y0065332D01*
X0155709Y0065371D01*
X0155562Y0065414D01*
X0155416Y0065461D01*
X0155271Y0065512D01*
X0155128Y0065567D01*
X0154986Y0065625D01*
X0154846Y0065687D01*
X0154707Y0065752D01*
X0154570Y0065821D01*
X0154435Y0065894D01*
X0154302Y0065970D01*
X0154171Y0066050D01*
X0154042Y0066132D01*
X0153915Y0066219D01*
X0153790Y0066308D01*
X0153668Y0066401D01*
X0153549Y0066497D01*
X0153431Y0066596D01*
X0153317Y0066697D01*
X0153205Y0066802D01*
X0153096Y0066910D01*
X0152990Y0067021D01*
X0152886Y0067134D01*
X0152786Y0067250D01*
X0152688Y0067368D01*
X0152594Y0067489D01*
X0152503Y0067612D01*
X0152415Y0067738D01*
X0152331Y0067866D01*
X0152249Y0067996D01*
X0152172Y0068128D01*
X0152097Y0068262D01*
X0152026Y0068398D01*
X0151959Y0068536D01*
X0151895Y0068676D01*
X0151835Y0068817D01*
X0151779Y0068959D01*
X0151726Y0069103D01*
X0151677Y0069249D01*
X0151632Y0069395D01*
X0151591Y0069543D01*
X0151554Y0069691D01*
X0151520Y0069841D01*
X0151490Y0069992D01*
X0151465Y0070143D01*
X0151443Y0070294D01*
X0151425Y0070447D01*
X0151411Y0070599D01*
X0151401Y0070752D01*
X0151395Y0070906D01*
X0151393Y0071059D01*
X0119897Y0071059D02*
X0119899Y0071212D01*
X0119905Y0071366D01*
X0119915Y0071519D01*
X0119929Y0071671D01*
X0119947Y0071824D01*
X0119969Y0071975D01*
X0119994Y0072126D01*
X0120024Y0072277D01*
X0120058Y0072427D01*
X0120095Y0072575D01*
X0120136Y0072723D01*
X0120181Y0072869D01*
X0120230Y0073015D01*
X0120283Y0073159D01*
X0120339Y0073301D01*
X0120399Y0073442D01*
X0120463Y0073582D01*
X0120530Y0073720D01*
X0120601Y0073856D01*
X0120676Y0073990D01*
X0120753Y0074122D01*
X0120835Y0074252D01*
X0120919Y0074380D01*
X0121007Y0074506D01*
X0121098Y0074629D01*
X0121192Y0074750D01*
X0121290Y0074868D01*
X0121390Y0074984D01*
X0121494Y0075097D01*
X0121600Y0075208D01*
X0121709Y0075316D01*
X0121821Y0075421D01*
X0121935Y0075522D01*
X0122053Y0075621D01*
X0122172Y0075717D01*
X0122294Y0075810D01*
X0122419Y0075899D01*
X0122546Y0075986D01*
X0122675Y0076068D01*
X0122806Y0076148D01*
X0122939Y0076224D01*
X0123074Y0076297D01*
X0123211Y0076366D01*
X0123350Y0076431D01*
X0123490Y0076493D01*
X0123632Y0076551D01*
X0123775Y0076606D01*
X0123920Y0076657D01*
X0124066Y0076704D01*
X0124213Y0076747D01*
X0124361Y0076786D01*
X0124510Y0076822D01*
X0124660Y0076853D01*
X0124811Y0076881D01*
X0124962Y0076905D01*
X0125115Y0076925D01*
X0125267Y0076941D01*
X0125420Y0076953D01*
X0125573Y0076961D01*
X0125726Y0076965D01*
X0125880Y0076965D01*
X0126033Y0076961D01*
X0126186Y0076953D01*
X0126339Y0076941D01*
X0126491Y0076925D01*
X0126644Y0076905D01*
X0126795Y0076881D01*
X0126946Y0076853D01*
X0127096Y0076822D01*
X0127245Y0076786D01*
X0127393Y0076747D01*
X0127540Y0076704D01*
X0127686Y0076657D01*
X0127831Y0076606D01*
X0127974Y0076551D01*
X0128116Y0076493D01*
X0128256Y0076431D01*
X0128395Y0076366D01*
X0128532Y0076297D01*
X0128667Y0076224D01*
X0128800Y0076148D01*
X0128931Y0076068D01*
X0129060Y0075986D01*
X0129187Y0075899D01*
X0129312Y0075810D01*
X0129434Y0075717D01*
X0129553Y0075621D01*
X0129671Y0075522D01*
X0129785Y0075421D01*
X0129897Y0075316D01*
X0130006Y0075208D01*
X0130112Y0075097D01*
X0130216Y0074984D01*
X0130316Y0074868D01*
X0130414Y0074750D01*
X0130508Y0074629D01*
X0130599Y0074506D01*
X0130687Y0074380D01*
X0130771Y0074252D01*
X0130853Y0074122D01*
X0130930Y0073990D01*
X0131005Y0073856D01*
X0131076Y0073720D01*
X0131143Y0073582D01*
X0131207Y0073442D01*
X0131267Y0073301D01*
X0131323Y0073159D01*
X0131376Y0073015D01*
X0131425Y0072869D01*
X0131470Y0072723D01*
X0131511Y0072575D01*
X0131548Y0072427D01*
X0131582Y0072277D01*
X0131612Y0072126D01*
X0131637Y0071975D01*
X0131659Y0071824D01*
X0131677Y0071671D01*
X0131691Y0071519D01*
X0131701Y0071366D01*
X0131707Y0071212D01*
X0131709Y0071059D01*
X0131707Y0070906D01*
X0131701Y0070752D01*
X0131691Y0070599D01*
X0131677Y0070447D01*
X0131659Y0070294D01*
X0131637Y0070143D01*
X0131612Y0069992D01*
X0131582Y0069841D01*
X0131548Y0069691D01*
X0131511Y0069543D01*
X0131470Y0069395D01*
X0131425Y0069249D01*
X0131376Y0069103D01*
X0131323Y0068959D01*
X0131267Y0068817D01*
X0131207Y0068676D01*
X0131143Y0068536D01*
X0131076Y0068398D01*
X0131005Y0068262D01*
X0130930Y0068128D01*
X0130853Y0067996D01*
X0130771Y0067866D01*
X0130687Y0067738D01*
X0130599Y0067612D01*
X0130508Y0067489D01*
X0130414Y0067368D01*
X0130316Y0067250D01*
X0130216Y0067134D01*
X0130112Y0067021D01*
X0130006Y0066910D01*
X0129897Y0066802D01*
X0129785Y0066697D01*
X0129671Y0066596D01*
X0129553Y0066497D01*
X0129434Y0066401D01*
X0129312Y0066308D01*
X0129187Y0066219D01*
X0129060Y0066132D01*
X0128931Y0066050D01*
X0128800Y0065970D01*
X0128667Y0065894D01*
X0128532Y0065821D01*
X0128395Y0065752D01*
X0128256Y0065687D01*
X0128116Y0065625D01*
X0127974Y0065567D01*
X0127831Y0065512D01*
X0127686Y0065461D01*
X0127540Y0065414D01*
X0127393Y0065371D01*
X0127245Y0065332D01*
X0127096Y0065296D01*
X0126946Y0065265D01*
X0126795Y0065237D01*
X0126644Y0065213D01*
X0126491Y0065193D01*
X0126339Y0065177D01*
X0126186Y0065165D01*
X0126033Y0065157D01*
X0125880Y0065153D01*
X0125726Y0065153D01*
X0125573Y0065157D01*
X0125420Y0065165D01*
X0125267Y0065177D01*
X0125115Y0065193D01*
X0124962Y0065213D01*
X0124811Y0065237D01*
X0124660Y0065265D01*
X0124510Y0065296D01*
X0124361Y0065332D01*
X0124213Y0065371D01*
X0124066Y0065414D01*
X0123920Y0065461D01*
X0123775Y0065512D01*
X0123632Y0065567D01*
X0123490Y0065625D01*
X0123350Y0065687D01*
X0123211Y0065752D01*
X0123074Y0065821D01*
X0122939Y0065894D01*
X0122806Y0065970D01*
X0122675Y0066050D01*
X0122546Y0066132D01*
X0122419Y0066219D01*
X0122294Y0066308D01*
X0122172Y0066401D01*
X0122053Y0066497D01*
X0121935Y0066596D01*
X0121821Y0066697D01*
X0121709Y0066802D01*
X0121600Y0066910D01*
X0121494Y0067021D01*
X0121390Y0067134D01*
X0121290Y0067250D01*
X0121192Y0067368D01*
X0121098Y0067489D01*
X0121007Y0067612D01*
X0120919Y0067738D01*
X0120835Y0067866D01*
X0120753Y0067996D01*
X0120676Y0068128D01*
X0120601Y0068262D01*
X0120530Y0068398D01*
X0120463Y0068536D01*
X0120399Y0068676D01*
X0120339Y0068817D01*
X0120283Y0068959D01*
X0120230Y0069103D01*
X0120181Y0069249D01*
X0120136Y0069395D01*
X0120095Y0069543D01*
X0120058Y0069691D01*
X0120024Y0069841D01*
X0119994Y0069992D01*
X0119969Y0070143D01*
X0119947Y0070294D01*
X0119929Y0070447D01*
X0119915Y0070599D01*
X0119905Y0070752D01*
X0119899Y0070906D01*
X0119897Y0071059D01*
X0024228Y0373106D02*
X0024230Y0373259D01*
X0024236Y0373413D01*
X0024246Y0373566D01*
X0024260Y0373718D01*
X0024278Y0373871D01*
X0024300Y0374022D01*
X0024325Y0374173D01*
X0024355Y0374324D01*
X0024389Y0374474D01*
X0024426Y0374622D01*
X0024467Y0374770D01*
X0024512Y0374916D01*
X0024561Y0375062D01*
X0024614Y0375206D01*
X0024670Y0375348D01*
X0024730Y0375489D01*
X0024794Y0375629D01*
X0024861Y0375767D01*
X0024932Y0375903D01*
X0025007Y0376037D01*
X0025084Y0376169D01*
X0025166Y0376299D01*
X0025250Y0376427D01*
X0025338Y0376553D01*
X0025429Y0376676D01*
X0025523Y0376797D01*
X0025621Y0376915D01*
X0025721Y0377031D01*
X0025825Y0377144D01*
X0025931Y0377255D01*
X0026040Y0377363D01*
X0026152Y0377468D01*
X0026266Y0377569D01*
X0026384Y0377668D01*
X0026503Y0377764D01*
X0026625Y0377857D01*
X0026750Y0377946D01*
X0026877Y0378033D01*
X0027006Y0378115D01*
X0027137Y0378195D01*
X0027270Y0378271D01*
X0027405Y0378344D01*
X0027542Y0378413D01*
X0027681Y0378478D01*
X0027821Y0378540D01*
X0027963Y0378598D01*
X0028106Y0378653D01*
X0028251Y0378704D01*
X0028397Y0378751D01*
X0028544Y0378794D01*
X0028692Y0378833D01*
X0028841Y0378869D01*
X0028991Y0378900D01*
X0029142Y0378928D01*
X0029293Y0378952D01*
X0029446Y0378972D01*
X0029598Y0378988D01*
X0029751Y0379000D01*
X0029904Y0379008D01*
X0030057Y0379012D01*
X0030211Y0379012D01*
X0030364Y0379008D01*
X0030517Y0379000D01*
X0030670Y0378988D01*
X0030822Y0378972D01*
X0030975Y0378952D01*
X0031126Y0378928D01*
X0031277Y0378900D01*
X0031427Y0378869D01*
X0031576Y0378833D01*
X0031724Y0378794D01*
X0031871Y0378751D01*
X0032017Y0378704D01*
X0032162Y0378653D01*
X0032305Y0378598D01*
X0032447Y0378540D01*
X0032587Y0378478D01*
X0032726Y0378413D01*
X0032863Y0378344D01*
X0032998Y0378271D01*
X0033131Y0378195D01*
X0033262Y0378115D01*
X0033391Y0378033D01*
X0033518Y0377946D01*
X0033643Y0377857D01*
X0033765Y0377764D01*
X0033884Y0377668D01*
X0034002Y0377569D01*
X0034116Y0377468D01*
X0034228Y0377363D01*
X0034337Y0377255D01*
X0034443Y0377144D01*
X0034547Y0377031D01*
X0034647Y0376915D01*
X0034745Y0376797D01*
X0034839Y0376676D01*
X0034930Y0376553D01*
X0035018Y0376427D01*
X0035102Y0376299D01*
X0035184Y0376169D01*
X0035261Y0376037D01*
X0035336Y0375903D01*
X0035407Y0375767D01*
X0035474Y0375629D01*
X0035538Y0375489D01*
X0035598Y0375348D01*
X0035654Y0375206D01*
X0035707Y0375062D01*
X0035756Y0374916D01*
X0035801Y0374770D01*
X0035842Y0374622D01*
X0035879Y0374474D01*
X0035913Y0374324D01*
X0035943Y0374173D01*
X0035968Y0374022D01*
X0035990Y0373871D01*
X0036008Y0373718D01*
X0036022Y0373566D01*
X0036032Y0373413D01*
X0036038Y0373259D01*
X0036040Y0373106D01*
X0036038Y0372953D01*
X0036032Y0372799D01*
X0036022Y0372646D01*
X0036008Y0372494D01*
X0035990Y0372341D01*
X0035968Y0372190D01*
X0035943Y0372039D01*
X0035913Y0371888D01*
X0035879Y0371738D01*
X0035842Y0371590D01*
X0035801Y0371442D01*
X0035756Y0371296D01*
X0035707Y0371150D01*
X0035654Y0371006D01*
X0035598Y0370864D01*
X0035538Y0370723D01*
X0035474Y0370583D01*
X0035407Y0370445D01*
X0035336Y0370309D01*
X0035261Y0370175D01*
X0035184Y0370043D01*
X0035102Y0369913D01*
X0035018Y0369785D01*
X0034930Y0369659D01*
X0034839Y0369536D01*
X0034745Y0369415D01*
X0034647Y0369297D01*
X0034547Y0369181D01*
X0034443Y0369068D01*
X0034337Y0368957D01*
X0034228Y0368849D01*
X0034116Y0368744D01*
X0034002Y0368643D01*
X0033884Y0368544D01*
X0033765Y0368448D01*
X0033643Y0368355D01*
X0033518Y0368266D01*
X0033391Y0368179D01*
X0033262Y0368097D01*
X0033131Y0368017D01*
X0032998Y0367941D01*
X0032863Y0367868D01*
X0032726Y0367799D01*
X0032587Y0367734D01*
X0032447Y0367672D01*
X0032305Y0367614D01*
X0032162Y0367559D01*
X0032017Y0367508D01*
X0031871Y0367461D01*
X0031724Y0367418D01*
X0031576Y0367379D01*
X0031427Y0367343D01*
X0031277Y0367312D01*
X0031126Y0367284D01*
X0030975Y0367260D01*
X0030822Y0367240D01*
X0030670Y0367224D01*
X0030517Y0367212D01*
X0030364Y0367204D01*
X0030211Y0367200D01*
X0030057Y0367200D01*
X0029904Y0367204D01*
X0029751Y0367212D01*
X0029598Y0367224D01*
X0029446Y0367240D01*
X0029293Y0367260D01*
X0029142Y0367284D01*
X0028991Y0367312D01*
X0028841Y0367343D01*
X0028692Y0367379D01*
X0028544Y0367418D01*
X0028397Y0367461D01*
X0028251Y0367508D01*
X0028106Y0367559D01*
X0027963Y0367614D01*
X0027821Y0367672D01*
X0027681Y0367734D01*
X0027542Y0367799D01*
X0027405Y0367868D01*
X0027270Y0367941D01*
X0027137Y0368017D01*
X0027006Y0368097D01*
X0026877Y0368179D01*
X0026750Y0368266D01*
X0026625Y0368355D01*
X0026503Y0368448D01*
X0026384Y0368544D01*
X0026266Y0368643D01*
X0026152Y0368744D01*
X0026040Y0368849D01*
X0025931Y0368957D01*
X0025825Y0369068D01*
X0025721Y0369181D01*
X0025621Y0369297D01*
X0025523Y0369415D01*
X0025429Y0369536D01*
X0025338Y0369659D01*
X0025250Y0369785D01*
X0025166Y0369913D01*
X0025084Y0370043D01*
X0025007Y0370175D01*
X0024932Y0370309D01*
X0024861Y0370445D01*
X0024794Y0370583D01*
X0024730Y0370723D01*
X0024670Y0370864D01*
X0024614Y0371006D01*
X0024561Y0371150D01*
X0024512Y0371296D01*
X0024467Y0371442D01*
X0024426Y0371590D01*
X0024389Y0371738D01*
X0024355Y0371888D01*
X0024325Y0372039D01*
X0024300Y0372190D01*
X0024278Y0372341D01*
X0024260Y0372494D01*
X0024246Y0372646D01*
X0024236Y0372799D01*
X0024230Y0372953D01*
X0024228Y0373106D01*
X0024228Y0424287D02*
X0024230Y0424440D01*
X0024236Y0424594D01*
X0024246Y0424747D01*
X0024260Y0424899D01*
X0024278Y0425052D01*
X0024300Y0425203D01*
X0024325Y0425354D01*
X0024355Y0425505D01*
X0024389Y0425655D01*
X0024426Y0425803D01*
X0024467Y0425951D01*
X0024512Y0426097D01*
X0024561Y0426243D01*
X0024614Y0426387D01*
X0024670Y0426529D01*
X0024730Y0426670D01*
X0024794Y0426810D01*
X0024861Y0426948D01*
X0024932Y0427084D01*
X0025007Y0427218D01*
X0025084Y0427350D01*
X0025166Y0427480D01*
X0025250Y0427608D01*
X0025338Y0427734D01*
X0025429Y0427857D01*
X0025523Y0427978D01*
X0025621Y0428096D01*
X0025721Y0428212D01*
X0025825Y0428325D01*
X0025931Y0428436D01*
X0026040Y0428544D01*
X0026152Y0428649D01*
X0026266Y0428750D01*
X0026384Y0428849D01*
X0026503Y0428945D01*
X0026625Y0429038D01*
X0026750Y0429127D01*
X0026877Y0429214D01*
X0027006Y0429296D01*
X0027137Y0429376D01*
X0027270Y0429452D01*
X0027405Y0429525D01*
X0027542Y0429594D01*
X0027681Y0429659D01*
X0027821Y0429721D01*
X0027963Y0429779D01*
X0028106Y0429834D01*
X0028251Y0429885D01*
X0028397Y0429932D01*
X0028544Y0429975D01*
X0028692Y0430014D01*
X0028841Y0430050D01*
X0028991Y0430081D01*
X0029142Y0430109D01*
X0029293Y0430133D01*
X0029446Y0430153D01*
X0029598Y0430169D01*
X0029751Y0430181D01*
X0029904Y0430189D01*
X0030057Y0430193D01*
X0030211Y0430193D01*
X0030364Y0430189D01*
X0030517Y0430181D01*
X0030670Y0430169D01*
X0030822Y0430153D01*
X0030975Y0430133D01*
X0031126Y0430109D01*
X0031277Y0430081D01*
X0031427Y0430050D01*
X0031576Y0430014D01*
X0031724Y0429975D01*
X0031871Y0429932D01*
X0032017Y0429885D01*
X0032162Y0429834D01*
X0032305Y0429779D01*
X0032447Y0429721D01*
X0032587Y0429659D01*
X0032726Y0429594D01*
X0032863Y0429525D01*
X0032998Y0429452D01*
X0033131Y0429376D01*
X0033262Y0429296D01*
X0033391Y0429214D01*
X0033518Y0429127D01*
X0033643Y0429038D01*
X0033765Y0428945D01*
X0033884Y0428849D01*
X0034002Y0428750D01*
X0034116Y0428649D01*
X0034228Y0428544D01*
X0034337Y0428436D01*
X0034443Y0428325D01*
X0034547Y0428212D01*
X0034647Y0428096D01*
X0034745Y0427978D01*
X0034839Y0427857D01*
X0034930Y0427734D01*
X0035018Y0427608D01*
X0035102Y0427480D01*
X0035184Y0427350D01*
X0035261Y0427218D01*
X0035336Y0427084D01*
X0035407Y0426948D01*
X0035474Y0426810D01*
X0035538Y0426670D01*
X0035598Y0426529D01*
X0035654Y0426387D01*
X0035707Y0426243D01*
X0035756Y0426097D01*
X0035801Y0425951D01*
X0035842Y0425803D01*
X0035879Y0425655D01*
X0035913Y0425505D01*
X0035943Y0425354D01*
X0035968Y0425203D01*
X0035990Y0425052D01*
X0036008Y0424899D01*
X0036022Y0424747D01*
X0036032Y0424594D01*
X0036038Y0424440D01*
X0036040Y0424287D01*
X0036038Y0424134D01*
X0036032Y0423980D01*
X0036022Y0423827D01*
X0036008Y0423675D01*
X0035990Y0423522D01*
X0035968Y0423371D01*
X0035943Y0423220D01*
X0035913Y0423069D01*
X0035879Y0422919D01*
X0035842Y0422771D01*
X0035801Y0422623D01*
X0035756Y0422477D01*
X0035707Y0422331D01*
X0035654Y0422187D01*
X0035598Y0422045D01*
X0035538Y0421904D01*
X0035474Y0421764D01*
X0035407Y0421626D01*
X0035336Y0421490D01*
X0035261Y0421356D01*
X0035184Y0421224D01*
X0035102Y0421094D01*
X0035018Y0420966D01*
X0034930Y0420840D01*
X0034839Y0420717D01*
X0034745Y0420596D01*
X0034647Y0420478D01*
X0034547Y0420362D01*
X0034443Y0420249D01*
X0034337Y0420138D01*
X0034228Y0420030D01*
X0034116Y0419925D01*
X0034002Y0419824D01*
X0033884Y0419725D01*
X0033765Y0419629D01*
X0033643Y0419536D01*
X0033518Y0419447D01*
X0033391Y0419360D01*
X0033262Y0419278D01*
X0033131Y0419198D01*
X0032998Y0419122D01*
X0032863Y0419049D01*
X0032726Y0418980D01*
X0032587Y0418915D01*
X0032447Y0418853D01*
X0032305Y0418795D01*
X0032162Y0418740D01*
X0032017Y0418689D01*
X0031871Y0418642D01*
X0031724Y0418599D01*
X0031576Y0418560D01*
X0031427Y0418524D01*
X0031277Y0418493D01*
X0031126Y0418465D01*
X0030975Y0418441D01*
X0030822Y0418421D01*
X0030670Y0418405D01*
X0030517Y0418393D01*
X0030364Y0418385D01*
X0030211Y0418381D01*
X0030057Y0418381D01*
X0029904Y0418385D01*
X0029751Y0418393D01*
X0029598Y0418405D01*
X0029446Y0418421D01*
X0029293Y0418441D01*
X0029142Y0418465D01*
X0028991Y0418493D01*
X0028841Y0418524D01*
X0028692Y0418560D01*
X0028544Y0418599D01*
X0028397Y0418642D01*
X0028251Y0418689D01*
X0028106Y0418740D01*
X0027963Y0418795D01*
X0027821Y0418853D01*
X0027681Y0418915D01*
X0027542Y0418980D01*
X0027405Y0419049D01*
X0027270Y0419122D01*
X0027137Y0419198D01*
X0027006Y0419278D01*
X0026877Y0419360D01*
X0026750Y0419447D01*
X0026625Y0419536D01*
X0026503Y0419629D01*
X0026384Y0419725D01*
X0026266Y0419824D01*
X0026152Y0419925D01*
X0026040Y0420030D01*
X0025931Y0420138D01*
X0025825Y0420249D01*
X0025721Y0420362D01*
X0025621Y0420478D01*
X0025523Y0420596D01*
X0025429Y0420717D01*
X0025338Y0420840D01*
X0025250Y0420966D01*
X0025166Y0421094D01*
X0025084Y0421224D01*
X0025007Y0421356D01*
X0024932Y0421490D01*
X0024861Y0421626D01*
X0024794Y0421764D01*
X0024730Y0421904D01*
X0024670Y0422045D01*
X0024614Y0422187D01*
X0024561Y0422331D01*
X0024512Y0422477D01*
X0024467Y0422623D01*
X0024426Y0422771D01*
X0024389Y0422919D01*
X0024355Y0423069D01*
X0024325Y0423220D01*
X0024300Y0423371D01*
X0024278Y0423522D01*
X0024260Y0423675D01*
X0024246Y0423827D01*
X0024236Y0423980D01*
X0024230Y0424134D01*
X0024228Y0424287D01*
M02*
