%
M48
M72
T01C0.0197
T02C0.0276
T03C0.0315
T04C0.0320
T05C0.0354
T06C0.0360
T07C0.0400
T08C0.0402
T09C0.0590
T10C0.0600
T11C0.0787
T12C0.1181
%
T01
X31478Y18334
X35415Y18334
X38092Y18846
X40139Y19122
X40533Y19515
X41242Y18925
X42187Y18925
X42895Y17547
X44076Y17941
X45257Y17547
X46832Y19122
X48171Y18964
X48801Y19515
X47620Y17941
X48801Y16366
X46084Y15539
X46439Y14397
X45848Y14319
X44470Y14397
X43880Y14319
X44076Y15185
X42502Y14397
X41714Y13610
X42895Y12035
X43683Y12035
X44864Y12035
X45651Y12035
X46832Y12035
X47620Y12035
X48801Y12035
X49588Y12035
X49588Y11405
X48407Y10972
X47817Y14319
X48407Y14397
X49785Y14319
X51950Y14791
X52974Y14240
X54076Y15106
X53565Y15972
X55494Y14397
X55494Y13610
X57069Y13610
X58640Y13607
X59824Y14397
X60218Y13610
X61793Y13610
X62580Y15106
X62187Y15972
X61754Y17350
X63171Y19043
X64155Y19043
X63171Y19909
X62974Y20696
X65336Y21484
X65336Y22271
X66124Y22271
X66911Y22271
X66911Y21484
X66124Y21484
X66124Y23059
X66911Y23059
X65336Y23059
X59116Y23019
X58210Y22547
X57226Y22547
X55139Y22193
X52541Y22507
X51163Y23846
X49194Y24240
X49037Y25067
X46439Y23846
X44470Y24240
X43880Y24240
X43289Y24240
X42620Y24397
X41163Y25460
X39746Y25421
X40139Y27389
X40533Y30145
X42502Y34476
X43289Y34476
X44076Y34476
X44076Y35263
X43289Y35263
X42502Y35263
X44864Y35263
X44864Y34476
X44864Y37626
X44864Y39200
X42502Y41169
X39746Y41169
X39746Y40381
X38958Y40381
X38958Y39752
X38958Y41169
X42108Y43925
X39746Y36838
X48604Y28452
X51557Y26602
X52502Y28334
X56281Y30539
X56281Y31326
X57226Y31641
X58210Y34791
X58210Y36484
X57226Y37626
X66517Y42350
X71635Y45106
X72029Y39988
X68486Y37232
X45100Y25460
X44352Y22114
X43683Y21484
X42147Y20381
X41242Y20381
X40730Y21484
X38958Y23059
X44470Y19909
X46702Y20409
X46439Y21090
X51557Y20303
X55179Y19122
X57462Y19909
X58250Y19909
X58525Y20500
X59431Y18177
X57895Y15578
X58289Y15106
X64155Y14397
X69667Y17704
X70848Y17744
X72029Y17744
X72029Y18531
X71635Y19515
X70848Y18531
X69667Y18531
X71635Y20303
X71242Y20696
X40139Y18374
X38446Y15657
T02
X74391Y39988
X74391Y40775
X74391Y41563
X74391Y42350
T03
X52344Y43531
X52344Y44319
X52344Y45106
X52344Y45893
X52344Y46681
X52344Y47468
X52344Y48256
X52344Y49043
X52344Y49830
X52344Y50618
X43683Y50618
X43683Y49830
X43683Y49043
X43683Y48256
X43683Y47468
X43683Y46681
X43683Y45893
X43683Y45106
X43683Y44319
X43683Y43531
T04
X10037Y41956
X8037Y41956
X8037Y38570
X10037Y38570
X13943Y17578
X15943Y17578
X17880Y17578
X19880Y17578
X21817Y17578
X23817Y17578
X25754Y17578
X27754Y17578
X30478Y17578
X32478Y17578
X34415Y17578
X36415Y17578
X36415Y14578
X36415Y13578
X34415Y13578
X34415Y14578
X32478Y14578
X32478Y13578
X30478Y13578
X30478Y14578
X27754Y14578
X27754Y13578
X25754Y13578
X25754Y14578
X23817Y14578
X23817Y13578
X21817Y13578
X21817Y14578
X19880Y14578
X19880Y13578
X17880Y13578
X17880Y14578
X15943Y14578
X15943Y13578
X13943Y13578
X13943Y14578
T05
X70923Y22858
X71923Y22858
X72923Y22858
X73923Y22858
T06
X36415Y11641
X35415Y11641
X34415Y11641
X32478Y11641
X31478Y11641
X30478Y11641
T07
X5494Y30720
X5494Y32720
X55824Y33122
X55824Y32122
X55824Y34122
X55824Y35122
X55824Y36122
X55824Y37122
X55824Y38122
X55824Y39122
X55824Y40122
X55824Y41122
X55824Y42122
X55824Y43122
X55824Y44122
X55824Y45122
X63824Y45122
X63824Y44122
X63824Y43122
X63824Y42122
X63824Y41122
X63824Y40122
X63824Y39122
X63824Y38122
X63824Y37122
X63824Y36122
X63824Y35122
X63824Y34122
X63824Y33122
X63824Y32122
T08
X64943Y9988
X64943Y8807
X61793Y8807
X61793Y9988
X58643Y9988
X58643Y8807
X55494Y8807
X55494Y9988
X52344Y9988
X52344Y8807
X48407Y8767
X47226Y8767
X46045Y8767
X44864Y8767
X43683Y8767
X43683Y9948
X44864Y9948
X46045Y9948
X47226Y9948
X48407Y9948
X42502Y9948
X41320Y9948
X40139Y9948
X40139Y8767
X41320Y8767
X42502Y8767
X33446Y8807
X33446Y9988
X30297Y9988
X30297Y8807
X22029Y8807
X22029Y9988
X18880Y9988
X18880Y8807
X15730Y8807
X15730Y9988
X12580Y9988
X12580Y8807
T09
X10218Y29901
X10218Y31901
X10218Y33901
X10218Y35901
T10
X15046Y26726
X21046Y26726
X27736Y26726
X33736Y26726
X33736Y48526
X27736Y48526
X21046Y48526
X15046Y48526
T11
X5572Y41956
X5572Y38570
T12
X12580Y7106
X15730Y7106
X18880Y7106
X22029Y7106
X30297Y7106
X33446Y7106
X40986Y7067
X47561Y7067
X52344Y7106
X55494Y7106
X58643Y7106
X61793Y7106
X64943Y7106
X3013Y37311
X3013Y42429
M30
