G75*
%MOIN*%
%OFA0B0*%
%FSLAX25Y25*%
%IPPOS*%
%LPD*%
%AMOC8*
5,1,8,0,0,1.08239X$1,22.5*
%
%ADD10C,0.12611*%
%ADD11C,0.12611*%
%ADD12C,0.15800*%
%ADD13C,0.09650*%
%ADD14C,0.10800*%
%ADD15OC8,0.10800*%
%ADD16R,0.04737X0.02965*%
%ADD17R,0.06706X0.05918*%
%ADD18R,0.05918X0.06706*%
%ADD19R,0.16548X0.06706*%
%ADD20R,0.22650X0.25013*%
%ADD21R,0.04737X0.11509*%
%ADD22C,0.08400*%
%ADD23C,0.06000*%
%ADD24R,0.02965X0.04737*%
%ADD25R,0.08800X0.03400*%
%ADD26R,0.04737X0.06312*%
%ADD27C,0.08200*%
%ADD28C,0.06800*%
%ADD29C,0.06400*%
%ADD30C,0.07800*%
%ADD31R,0.05918X0.07099*%
%ADD32R,0.08674X0.07099*%
%ADD33R,0.03162X0.05524*%
%ADD34R,0.03400X0.08800*%
%ADD35R,0.05524X0.05524*%
%ADD36R,0.03556X0.04737*%
%ADD37C,0.06400*%
%ADD38R,0.03162X0.08674*%
%ADD39C,0.07800*%
D10*
X0125803Y0071059D03*
X0157299Y0071059D03*
X0188795Y0071059D03*
X0220291Y0071059D03*
X0302969Y0071059D03*
X0334465Y0071059D03*
X0409858Y0070665D03*
X0475606Y0070665D03*
X0523441Y0071059D03*
X0554937Y0071059D03*
X0586433Y0071059D03*
X0617929Y0071059D03*
X0649425Y0071059D03*
X0030134Y0373106D03*
X0030134Y0424287D03*
D11*
X0049819Y0419563D02*
X0061630Y0419563D01*
X0061630Y0385705D02*
X0049819Y0385705D01*
D12*
X0150463Y0477756D02*
X0150463Y0492756D01*
X0210463Y0492756D02*
X0210463Y0477756D01*
X0277363Y0477756D02*
X0277363Y0492756D01*
X0337363Y0492756D02*
X0337363Y0477756D01*
X0337363Y0274756D02*
X0337363Y0259756D01*
X0277363Y0259756D02*
X0277363Y0274756D01*
X0210463Y0274756D02*
X0210463Y0259756D01*
X0150463Y0259756D02*
X0150463Y0274756D01*
D13*
X0106606Y0299012D02*
X0097756Y0299012D01*
X0097756Y0319012D02*
X0106606Y0319012D01*
X0106606Y0339012D02*
X0097756Y0339012D01*
X0097756Y0359012D02*
X0106606Y0359012D01*
D14*
X0054937Y0327201D03*
D15*
X0054937Y0307201D03*
D16*
X0455134Y0372516D03*
X0455134Y0376256D03*
X0455134Y0379996D03*
X0465764Y0379996D03*
X0465764Y0376256D03*
X0465764Y0372516D03*
D17*
X0480134Y0372516D03*
X0480134Y0379996D03*
X0495882Y0379996D03*
X0495882Y0372516D03*
X0507693Y0372516D03*
X0507693Y0379996D03*
X0495882Y0392201D03*
X0495882Y0399681D03*
X0432890Y0379996D03*
X0432890Y0372516D03*
X0421079Y0372516D03*
X0421079Y0379996D03*
X0397457Y0289445D03*
X0397457Y0281965D03*
X0432890Y0155587D03*
X0432890Y0148106D03*
X0452575Y0148106D03*
X0452575Y0155587D03*
X0472260Y0155587D03*
X0472260Y0148106D03*
X0491945Y0148106D03*
X0491945Y0155587D03*
X0554937Y0128028D03*
X0554937Y0120547D03*
X0570685Y0120547D03*
X0570685Y0128028D03*
X0586433Y0128028D03*
X0586433Y0120547D03*
X0602181Y0120547D03*
X0602181Y0128028D03*
X0617929Y0128028D03*
X0617929Y0120547D03*
X0641551Y0199287D03*
X0641551Y0206768D03*
X0680921Y0206768D03*
X0680921Y0199287D03*
X0684858Y0419760D03*
X0684858Y0427240D03*
D18*
X0704740Y0423500D03*
X0712220Y0423500D03*
X0712220Y0388067D03*
X0704740Y0388067D03*
X0704740Y0376256D03*
X0712220Y0376256D03*
X0672850Y0372319D03*
X0665370Y0372319D03*
X0665370Y0384130D03*
X0672850Y0384130D03*
X0538992Y0289642D03*
X0531512Y0289642D03*
X0519307Y0289642D03*
X0511827Y0289642D03*
X0511827Y0277831D03*
X0519307Y0277831D03*
X0531512Y0277831D03*
X0538992Y0277831D03*
X0499622Y0277831D03*
X0492142Y0277831D03*
X0492142Y0289642D03*
X0499622Y0289642D03*
X0479937Y0289642D03*
X0472457Y0289642D03*
X0472457Y0277831D03*
X0479937Y0277831D03*
X0479937Y0230587D03*
X0472457Y0230587D03*
X0472457Y0218776D03*
X0479937Y0218776D03*
X0492142Y0218776D03*
X0499622Y0218776D03*
X0499622Y0230587D03*
X0492142Y0230587D03*
X0511827Y0230587D03*
X0519307Y0230587D03*
X0531512Y0230587D03*
X0538992Y0230587D03*
X0538992Y0218776D03*
X0531512Y0218776D03*
X0519307Y0218776D03*
X0511827Y0218776D03*
X0460252Y0360508D03*
X0452772Y0360508D03*
X0456709Y0392004D03*
X0464189Y0392004D03*
X0416945Y0399878D03*
X0409465Y0399878D03*
X0409465Y0411689D03*
X0416945Y0411689D03*
X0058677Y0266020D03*
X0051197Y0266020D03*
D19*
X0397457Y0377043D03*
X0397457Y0391217D03*
D20*
X0661236Y0224681D03*
D21*
X0652220Y0198303D03*
X0670252Y0198303D03*
D22*
X0649425Y0099878D03*
X0649425Y0088067D03*
X0617929Y0088067D03*
X0617929Y0099878D03*
X0586433Y0099878D03*
X0586433Y0088067D03*
X0554937Y0088067D03*
X0554937Y0099878D03*
X0523441Y0099878D03*
X0523441Y0088067D03*
X0484071Y0087673D03*
X0472260Y0087673D03*
X0460449Y0087673D03*
X0448638Y0087673D03*
X0436827Y0087673D03*
X0436827Y0099484D03*
X0448638Y0099484D03*
X0460449Y0099484D03*
X0472260Y0099484D03*
X0484071Y0099484D03*
X0425016Y0099484D03*
X0413205Y0099484D03*
X0413205Y0087673D03*
X0425016Y0087673D03*
X0401394Y0087673D03*
X0401394Y0099484D03*
X0334465Y0099878D03*
X0334465Y0088067D03*
X0302969Y0088067D03*
X0302969Y0099878D03*
X0220291Y0099878D03*
X0220291Y0088067D03*
X0188795Y0088067D03*
X0188795Y0099878D03*
X0157299Y0099878D03*
X0157299Y0088067D03*
X0125803Y0088067D03*
X0125803Y0099878D03*
D23*
X0136825Y0135783D02*
X0142025Y0135783D01*
X0142025Y0145783D02*
X0136825Y0145783D01*
X0156825Y0145783D02*
X0162025Y0145783D01*
X0162025Y0135783D02*
X0156825Y0135783D01*
X0176195Y0135783D02*
X0181395Y0135783D01*
X0196195Y0135783D02*
X0201395Y0135783D01*
X0201395Y0145783D02*
X0196195Y0145783D01*
X0181395Y0145783D02*
X0176195Y0145783D01*
X0215565Y0145783D02*
X0220765Y0145783D01*
X0220765Y0135783D02*
X0215565Y0135783D01*
X0235565Y0135783D02*
X0240765Y0135783D01*
X0240765Y0145783D02*
X0235565Y0145783D01*
X0254935Y0145783D02*
X0260135Y0145783D01*
X0260135Y0135783D02*
X0254935Y0135783D01*
X0274935Y0135783D02*
X0280135Y0135783D01*
X0280135Y0145783D02*
X0274935Y0145783D01*
X0302180Y0145783D02*
X0307380Y0145783D01*
X0307380Y0135783D02*
X0302180Y0135783D01*
X0322180Y0135783D02*
X0327380Y0135783D01*
X0327380Y0145783D02*
X0322180Y0145783D01*
X0341550Y0145783D02*
X0346750Y0145783D01*
X0346750Y0135783D02*
X0341550Y0135783D01*
X0361550Y0135783D02*
X0366750Y0135783D01*
X0366750Y0145783D02*
X0361550Y0145783D01*
X0361550Y0175783D02*
X0366750Y0175783D01*
X0346750Y0175783D02*
X0341550Y0175783D01*
X0327380Y0175783D02*
X0322180Y0175783D01*
X0307380Y0175783D02*
X0302180Y0175783D01*
X0280135Y0175783D02*
X0274935Y0175783D01*
X0260135Y0175783D02*
X0254935Y0175783D01*
X0240765Y0175783D02*
X0235565Y0175783D01*
X0220765Y0175783D02*
X0215565Y0175783D01*
X0201395Y0175783D02*
X0196195Y0175783D01*
X0181395Y0175783D02*
X0176195Y0175783D01*
X0162025Y0175783D02*
X0156825Y0175783D01*
X0142025Y0175783D02*
X0136825Y0175783D01*
D24*
X0429150Y0137476D03*
X0432890Y0137476D03*
X0436630Y0137476D03*
X0448835Y0137476D03*
X0452575Y0137476D03*
X0456315Y0137476D03*
X0456315Y0126846D03*
X0452575Y0126846D03*
X0448835Y0126846D03*
X0436630Y0126846D03*
X0432890Y0126846D03*
X0429150Y0126846D03*
X0468520Y0126846D03*
X0472260Y0126846D03*
X0476000Y0126846D03*
X0488205Y0126846D03*
X0491945Y0126846D03*
X0495685Y0126846D03*
X0495685Y0137476D03*
X0491945Y0137476D03*
X0488205Y0137476D03*
X0476000Y0137476D03*
X0472260Y0137476D03*
X0468520Y0137476D03*
D25*
X0452864Y0184091D03*
X0452864Y0189091D03*
X0452864Y0194091D03*
X0452864Y0199091D03*
X0452864Y0204091D03*
X0452864Y0209091D03*
X0452864Y0214091D03*
X0428664Y0214091D03*
X0428664Y0209091D03*
X0428664Y0204091D03*
X0428664Y0199091D03*
X0428664Y0194091D03*
X0428664Y0189091D03*
X0428664Y0184091D03*
D26*
X0492142Y0203421D03*
X0499622Y0203421D03*
X0495882Y0194760D03*
X0531512Y0203421D03*
X0538992Y0203421D03*
X0535252Y0194760D03*
X0535252Y0253815D03*
X0538992Y0262476D03*
X0531512Y0262476D03*
X0499622Y0262476D03*
X0492142Y0262476D03*
X0495882Y0253815D03*
X0704740Y0399484D03*
X0712220Y0399484D03*
X0708480Y0408146D03*
D27*
X0638244Y0411217D03*
X0638244Y0401217D03*
X0638244Y0391217D03*
X0638244Y0381217D03*
X0638244Y0371217D03*
X0638244Y0361217D03*
X0638244Y0351217D03*
X0638244Y0341217D03*
X0638244Y0331217D03*
X0638244Y0321217D03*
X0558244Y0321217D03*
X0558244Y0331217D03*
X0558244Y0341217D03*
X0558244Y0351217D03*
X0558244Y0361217D03*
X0558244Y0371217D03*
X0558244Y0381217D03*
X0558244Y0391217D03*
X0558244Y0401217D03*
X0558244Y0411217D03*
X0558244Y0421217D03*
X0558244Y0431217D03*
X0558244Y0441217D03*
X0558244Y0451217D03*
X0638244Y0451217D03*
X0638244Y0441217D03*
X0638244Y0431217D03*
X0638244Y0421217D03*
D28*
X0523441Y0435311D03*
X0523441Y0443185D03*
X0523441Y0451059D03*
X0523441Y0458933D03*
X0523441Y0466807D03*
X0523441Y0474681D03*
X0523441Y0482555D03*
X0523441Y0490429D03*
X0523441Y0498303D03*
X0523441Y0506177D03*
X0436827Y0506177D03*
X0436827Y0498303D03*
X0436827Y0490429D03*
X0436827Y0482555D03*
X0436827Y0474681D03*
X0436827Y0466807D03*
X0436827Y0458933D03*
X0436827Y0451059D03*
X0436827Y0443185D03*
X0436827Y0435311D03*
D29*
X0743913Y0423500D03*
X0743913Y0415626D03*
X0743913Y0407752D03*
X0743913Y0399878D03*
D30*
X0739228Y0228579D03*
X0729228Y0228579D03*
X0719228Y0228579D03*
X0709228Y0228579D03*
D31*
X0708283Y0199091D03*
X0700803Y0199091D03*
X0532299Y0133933D03*
X0522457Y0133933D03*
D32*
X0527378Y0122516D03*
D33*
X0535626Y0144760D03*
X0540626Y0144760D03*
X0545626Y0144760D03*
X0550626Y0144760D03*
X0578933Y0144760D03*
X0583933Y0144760D03*
X0588933Y0144760D03*
X0593933Y0144760D03*
X0622240Y0144760D03*
X0627240Y0144760D03*
X0632240Y0144760D03*
X0637240Y0144760D03*
X0637240Y0166807D03*
X0632240Y0166807D03*
X0627240Y0166807D03*
X0622240Y0166807D03*
X0593933Y0166807D03*
X0588933Y0166807D03*
X0583933Y0166807D03*
X0578933Y0166807D03*
X0550626Y0166807D03*
X0545626Y0166807D03*
X0540626Y0166807D03*
X0535626Y0166807D03*
D34*
X0557122Y0190928D03*
X0562122Y0190928D03*
X0567122Y0190928D03*
X0572122Y0190928D03*
X0577122Y0190928D03*
X0582122Y0190928D03*
X0587122Y0190928D03*
X0592122Y0190928D03*
X0592122Y0215128D03*
X0587122Y0215128D03*
X0582122Y0215128D03*
X0577122Y0215128D03*
X0572122Y0215128D03*
X0567122Y0215128D03*
X0562122Y0215128D03*
X0557122Y0215128D03*
D35*
X0708480Y0442988D03*
X0708480Y0451256D03*
X0736039Y0451256D03*
X0736039Y0442988D03*
D36*
X0397260Y0247122D03*
X0393520Y0247122D03*
X0389780Y0247122D03*
X0389780Y0237673D03*
X0393520Y0237673D03*
X0397260Y0237673D03*
X0397260Y0215626D03*
X0393520Y0215626D03*
X0389780Y0215626D03*
X0389780Y0206177D03*
X0393520Y0206177D03*
X0397260Y0206177D03*
X0397260Y0180193D03*
X0393520Y0180193D03*
X0389780Y0180193D03*
X0389780Y0170744D03*
X0393520Y0170744D03*
X0397260Y0170744D03*
D37*
X0364150Y0119213D02*
X0364150Y0113613D01*
X0354150Y0113613D02*
X0354150Y0119213D01*
X0344150Y0119213D02*
X0344150Y0113613D01*
X0324780Y0113613D02*
X0324780Y0119213D01*
X0314780Y0119213D02*
X0314780Y0113613D01*
X0304780Y0113613D02*
X0304780Y0119213D01*
D38*
X0412024Y0264839D03*
X0417024Y0264839D03*
X0422024Y0264839D03*
X0427024Y0264839D03*
X0432024Y0264839D03*
X0437024Y0264839D03*
X0442024Y0264839D03*
X0447024Y0264839D03*
X0447024Y0301453D03*
X0442024Y0301453D03*
X0437024Y0301453D03*
X0432024Y0301453D03*
X0427024Y0301453D03*
X0422024Y0301453D03*
X0417024Y0301453D03*
X0412024Y0301453D03*
D39*
X0100370Y0382205D02*
X0100370Y0389205D01*
X0080370Y0389205D02*
X0080370Y0382205D01*
X0080370Y0416063D02*
X0080370Y0423063D01*
X0100370Y0423063D02*
X0100370Y0416063D01*
M02*
