G75*
%MOIN*%
%OFA0B0*%
%FSLAX25Y25*%
%IPPOS*%
%LPD*%
%AMOC8*
5,1,8,0,0,1.08239X$1,22.5*
%
%ADD10C,0.11811*%
%ADD11C,0.15000*%
%ADD12C,0.08850*%
%ADD13C,0.10000*%
%ADD14OC8,0.10000*%
%ADD15C,0.07600*%
%ADD16C,0.05200*%
%ADD17C,0.07400*%
%ADD18C,0.06000*%
%ADD19C,0.05600*%
%ADD20C,0.07000*%
%ADD21C,0.05600*%
%ADD22C,0.07000*%
%ADD23C,0.02000*%
%ADD24C,0.03569*%
%ADD25C,0.05000*%
%ADD26C,0.10000*%
%ADD27C,0.04000*%
D10*
X0139425Y0175783D02*
X0159425Y0175783D01*
X0178795Y0175783D01*
X0198795Y0175783D01*
X0218165Y0175783D01*
X0238165Y0175783D01*
X0257535Y0175783D01*
X0277535Y0175783D01*
X0337363Y0235611D01*
X0337363Y0267256D01*
X0277363Y0267256D02*
X0239976Y0267256D01*
X0239976Y0305390D01*
X0206354Y0339012D01*
X0102181Y0339012D01*
X0102181Y0359012D02*
X0086748Y0359012D01*
X0054937Y0327201D01*
X0102181Y0319012D02*
X0131866Y0319012D01*
X0150463Y0300415D01*
X0150463Y0267256D01*
X0210463Y0267256D02*
X0239976Y0267256D01*
X0135252Y0385705D02*
X0100370Y0385705D01*
X0080370Y0385705D02*
X0055724Y0385705D01*
X0049819Y0385705D02*
X0061630Y0385705D01*
X0061630Y0419563D02*
X0049819Y0419563D01*
X0055724Y0419563D02*
X0080370Y0419563D01*
X0100370Y0419563D02*
X0110055Y0419563D01*
X0129740Y0439248D01*
X0129740Y0506177D01*
X0141551Y0517988D01*
X0220291Y0517988D01*
X0326591Y0517988D01*
X0337363Y0507215D01*
X0337363Y0485256D01*
X0277363Y0485256D02*
X0277363Y0460887D01*
X0251787Y0435311D01*
X0165173Y0435311D01*
X0150463Y0450021D01*
X0150463Y0400916D01*
X0135252Y0385705D01*
X0150463Y0450021D02*
X0150463Y0485256D01*
X0210463Y0485256D02*
X0210463Y0508160D01*
X0220291Y0517988D01*
D11*
X0210463Y0492756D02*
X0210463Y0477756D01*
X0150463Y0477756D02*
X0150463Y0492756D01*
X0277363Y0492756D02*
X0277363Y0477756D01*
X0337363Y0477756D02*
X0337363Y0492756D01*
X0337363Y0274756D02*
X0337363Y0259756D01*
X0277363Y0259756D02*
X0277363Y0274756D01*
X0210463Y0274756D02*
X0210463Y0259756D01*
X0150463Y0259756D02*
X0150463Y0274756D01*
D12*
X0106606Y0299012D02*
X0097756Y0299012D01*
X0097756Y0319012D02*
X0106606Y0319012D01*
X0106606Y0339012D02*
X0097756Y0339012D01*
X0097756Y0359012D02*
X0106606Y0359012D01*
D13*
X0054937Y0327201D03*
D14*
X0054937Y0307201D03*
D15*
X0125803Y0099878D03*
X0125803Y0088067D03*
X0157299Y0088067D03*
X0157299Y0099878D03*
X0188795Y0099878D03*
X0188795Y0088067D03*
X0220291Y0088067D03*
X0220291Y0099878D03*
X0302969Y0099878D03*
X0302969Y0088067D03*
X0334465Y0088067D03*
X0334465Y0099878D03*
X0401394Y0099484D03*
X0413205Y0099484D03*
X0425016Y0099484D03*
X0425016Y0087673D03*
X0413205Y0087673D03*
X0401394Y0087673D03*
X0436827Y0087673D03*
X0448638Y0087673D03*
X0460449Y0087673D03*
X0472260Y0087673D03*
X0484071Y0087673D03*
X0484071Y0099484D03*
X0472260Y0099484D03*
X0460449Y0099484D03*
X0448638Y0099484D03*
X0436827Y0099484D03*
X0523441Y0099878D03*
X0523441Y0088067D03*
X0554937Y0088067D03*
X0554937Y0099878D03*
X0586433Y0099878D03*
X0586433Y0088067D03*
X0617929Y0088067D03*
X0617929Y0099878D03*
X0649425Y0099878D03*
X0649425Y0088067D03*
D16*
X0366750Y0135783D02*
X0361550Y0135783D01*
X0361550Y0145783D02*
X0366750Y0145783D01*
X0346750Y0145783D02*
X0341550Y0145783D01*
X0341550Y0135783D02*
X0346750Y0135783D01*
X0327380Y0135783D02*
X0322180Y0135783D01*
X0322180Y0145783D02*
X0327380Y0145783D01*
X0307380Y0145783D02*
X0302180Y0145783D01*
X0302180Y0135783D02*
X0307380Y0135783D01*
X0280135Y0135783D02*
X0274935Y0135783D01*
X0274935Y0145783D02*
X0280135Y0145783D01*
X0260135Y0145783D02*
X0254935Y0145783D01*
X0254935Y0135783D02*
X0260135Y0135783D01*
X0240765Y0135783D02*
X0235565Y0135783D01*
X0235565Y0145783D02*
X0240765Y0145783D01*
X0220765Y0145783D02*
X0215565Y0145783D01*
X0215565Y0135783D02*
X0220765Y0135783D01*
X0201395Y0135783D02*
X0196195Y0135783D01*
X0181395Y0135783D02*
X0176195Y0135783D01*
X0176195Y0145783D02*
X0181395Y0145783D01*
X0196195Y0145783D02*
X0201395Y0145783D01*
X0162025Y0145783D02*
X0156825Y0145783D01*
X0156825Y0135783D02*
X0162025Y0135783D01*
X0142025Y0135783D02*
X0136825Y0135783D01*
X0136825Y0145783D02*
X0142025Y0145783D01*
X0142025Y0175783D02*
X0136825Y0175783D01*
X0156825Y0175783D02*
X0162025Y0175783D01*
X0176195Y0175783D02*
X0181395Y0175783D01*
X0196195Y0175783D02*
X0201395Y0175783D01*
X0215565Y0175783D02*
X0220765Y0175783D01*
X0235565Y0175783D02*
X0240765Y0175783D01*
X0254935Y0175783D02*
X0260135Y0175783D01*
X0274935Y0175783D02*
X0280135Y0175783D01*
X0302180Y0175783D02*
X0307380Y0175783D01*
X0322180Y0175783D02*
X0327380Y0175783D01*
X0341550Y0175783D02*
X0346750Y0175783D01*
X0361550Y0175783D02*
X0366750Y0175783D01*
D17*
X0558244Y0321217D03*
X0558244Y0331217D03*
X0558244Y0341217D03*
X0558244Y0351217D03*
X0558244Y0361217D03*
X0558244Y0371217D03*
X0558244Y0381217D03*
X0558244Y0391217D03*
X0558244Y0401217D03*
X0558244Y0411217D03*
X0558244Y0421217D03*
X0558244Y0431217D03*
X0558244Y0441217D03*
X0558244Y0451217D03*
X0638244Y0451217D03*
X0638244Y0441217D03*
X0638244Y0431217D03*
X0638244Y0421217D03*
X0638244Y0411217D03*
X0638244Y0401217D03*
X0638244Y0391217D03*
X0638244Y0381217D03*
X0638244Y0371217D03*
X0638244Y0361217D03*
X0638244Y0351217D03*
X0638244Y0341217D03*
X0638244Y0331217D03*
X0638244Y0321217D03*
D18*
X0523441Y0435311D03*
X0523441Y0443185D03*
X0523441Y0451059D03*
X0523441Y0458933D03*
X0523441Y0466807D03*
X0523441Y0474681D03*
X0523441Y0482555D03*
X0523441Y0490429D03*
X0523441Y0498303D03*
X0523441Y0506177D03*
X0436827Y0506177D03*
X0436827Y0498303D03*
X0436827Y0490429D03*
X0436827Y0482555D03*
X0436827Y0474681D03*
X0436827Y0466807D03*
X0436827Y0458933D03*
X0436827Y0451059D03*
X0436827Y0443185D03*
X0436827Y0435311D03*
D19*
X0743913Y0423500D03*
X0743913Y0415626D03*
X0743913Y0407752D03*
X0743913Y0399878D03*
D20*
X0739228Y0228579D03*
X0729228Y0228579D03*
X0719228Y0228579D03*
X0709228Y0228579D03*
D21*
X0364150Y0119213D02*
X0364150Y0113613D01*
X0354150Y0113613D02*
X0354150Y0119213D01*
X0344150Y0119213D02*
X0344150Y0113613D01*
X0324780Y0113613D02*
X0324780Y0119213D01*
X0314780Y0119213D02*
X0314780Y0113613D01*
X0304780Y0113613D02*
X0304780Y0119213D01*
D22*
X0100370Y0382205D02*
X0100370Y0389205D01*
X0080370Y0389205D02*
X0080370Y0382205D01*
X0080370Y0416063D02*
X0080370Y0423063D01*
X0100370Y0423063D02*
X0100370Y0416063D01*
D23*
X0100370Y0415428D02*
X0100370Y0415428D01*
X0100370Y0417426D02*
X0100370Y0417426D01*
X0100370Y0419425D02*
X0100370Y0419425D01*
X0100370Y0419563D02*
X0100370Y0410563D01*
X0100370Y0419563D01*
X0100370Y0419563D01*
X0094870Y0419563D01*
X0094870Y0423496D01*
X0095006Y0424351D01*
X0095273Y0425174D01*
X0095666Y0425946D01*
X0096175Y0426646D01*
X0096787Y0427258D01*
X0097487Y0427767D01*
X0098259Y0428160D01*
X0099082Y0428428D01*
X0099937Y0428563D01*
X0100370Y0428563D01*
X0100370Y0419563D01*
X0094870Y0419563D01*
X0094870Y0415630D01*
X0095006Y0414775D01*
X0095273Y0413952D01*
X0095666Y0413180D01*
X0096175Y0412480D01*
X0096787Y0411868D01*
X0097487Y0411359D01*
X0098259Y0410966D01*
X0099082Y0410698D01*
X0099937Y0410563D01*
X0100370Y0410563D01*
X0100803Y0410563D01*
X0101658Y0410698D01*
X0102481Y0410966D01*
X0103253Y0411359D01*
X0103953Y0411868D01*
X0104565Y0412480D01*
X0105074Y0413180D01*
X0105467Y0413952D01*
X0105735Y0414775D01*
X0105870Y0415630D01*
X0105870Y0419563D01*
X0105870Y0423496D01*
X0105735Y0424351D01*
X0105467Y0425174D01*
X0105074Y0425946D01*
X0104565Y0426646D01*
X0103953Y0427258D01*
X0103253Y0427767D01*
X0102481Y0428160D01*
X0101658Y0428428D01*
X0100803Y0428563D01*
X0100370Y0428563D01*
X0100370Y0419563D01*
X0100370Y0419563D01*
X0100370Y0419563D01*
X0105870Y0419563D01*
X0100370Y0419563D01*
X0100370Y0419563D01*
X0100370Y0421423D02*
X0100370Y0421423D01*
X0100370Y0423422D02*
X0100370Y0423422D01*
X0100370Y0425420D02*
X0100370Y0425420D01*
X0100370Y0427419D02*
X0100370Y0427419D01*
X0097008Y0427419D02*
X0094307Y0427419D01*
X0094307Y0429417D02*
X0129133Y0429417D01*
X0127192Y0427419D02*
X0103732Y0427419D01*
X0105342Y0425420D02*
X0125250Y0425420D01*
X0123309Y0423422D02*
X0105870Y0423422D01*
X0105870Y0421423D02*
X0121367Y0421423D01*
X0119426Y0419425D02*
X0105870Y0419425D01*
X0105870Y0417426D02*
X0117485Y0417426D01*
X0115543Y0415428D02*
X0105838Y0415428D01*
X0105201Y0413429D02*
X0113602Y0413429D01*
X0111660Y0411431D02*
X0103352Y0411431D01*
X0100370Y0411431D02*
X0100370Y0411431D01*
X0100370Y0413429D02*
X0100370Y0413429D01*
X0097388Y0411431D02*
X0094307Y0411431D01*
X0094307Y0413429D02*
X0095539Y0413429D01*
X0094902Y0415428D02*
X0094307Y0415428D01*
X0094307Y0417426D02*
X0094870Y0417426D01*
X0094870Y0419425D02*
X0094307Y0419425D01*
X0094307Y0421423D02*
X0094870Y0421423D01*
X0094870Y0423422D02*
X0094307Y0423422D01*
X0094307Y0425420D02*
X0095398Y0425420D01*
X0094307Y0431374D02*
X0098244Y0435311D01*
X0098244Y0450653D01*
X0098919Y0447262D01*
X0101070Y0444042D01*
X0104289Y0441891D01*
X0108087Y0441136D01*
X0111884Y0441891D01*
X0115103Y0444042D01*
X0117254Y0447262D01*
X0118010Y0451059D01*
X0117254Y0454857D01*
X0115103Y0458076D01*
X0111884Y0460227D01*
X0108087Y0460982D01*
X0104289Y0460227D01*
X0101070Y0458076D01*
X0098919Y0454857D01*
X0098244Y0451465D01*
X0098244Y0514051D01*
X0110055Y0525862D01*
X0334465Y0525862D01*
X0346276Y0514051D01*
X0346276Y0496050D01*
X0346154Y0496397D01*
X0345691Y0497358D01*
X0345123Y0498262D01*
X0344458Y0499096D01*
X0343704Y0499851D01*
X0342869Y0500516D01*
X0341966Y0501084D01*
X0341005Y0501547D01*
X0339997Y0501899D01*
X0338957Y0502136D01*
X0337897Y0502256D01*
X0337863Y0502256D01*
X0337863Y0485756D01*
X0336863Y0485756D01*
X0336863Y0484756D01*
X0327863Y0484756D01*
X0327863Y0477222D01*
X0327983Y0476162D01*
X0328220Y0475122D01*
X0328573Y0474115D01*
X0329036Y0473153D01*
X0329603Y0472250D01*
X0330269Y0471416D01*
X0331023Y0470661D01*
X0331857Y0469996D01*
X0332761Y0469428D01*
X0333722Y0468965D01*
X0334729Y0468613D01*
X0335770Y0468375D01*
X0336830Y0468256D01*
X0336863Y0468256D01*
X0336863Y0484756D01*
X0337863Y0484756D01*
X0337863Y0468256D01*
X0337897Y0468256D01*
X0338957Y0468375D01*
X0339997Y0468613D01*
X0341005Y0468965D01*
X0341966Y0469428D01*
X0342869Y0469996D01*
X0343704Y0470661D01*
X0344458Y0471416D01*
X0345123Y0472250D01*
X0345691Y0473153D01*
X0346154Y0474115D01*
X0346276Y0474462D01*
X0346276Y0470744D01*
X0342339Y0466807D01*
X0318717Y0466807D01*
X0314780Y0470744D01*
X0314780Y0506177D01*
X0310843Y0510114D01*
X0247850Y0510114D01*
X0239976Y0502240D01*
X0239976Y0470744D01*
X0232102Y0462870D01*
X0192732Y0462870D01*
X0188795Y0466807D01*
X0188795Y0503815D01*
X0181315Y0512083D01*
X0143913Y0512083D01*
X0134858Y0503421D01*
X0134858Y0435311D01*
X0108087Y0407752D01*
X0094307Y0407752D01*
X0094307Y0431374D01*
X0094349Y0431416D02*
X0131075Y0431416D01*
X0133016Y0433415D02*
X0096348Y0433415D01*
X0098244Y0435413D02*
X0134858Y0435413D01*
X0134858Y0437412D02*
X0098244Y0437412D01*
X0098244Y0439410D02*
X0134858Y0439410D01*
X0134858Y0441409D02*
X0109458Y0441409D01*
X0106715Y0441409D02*
X0098244Y0441409D01*
X0098244Y0443407D02*
X0102020Y0443407D01*
X0100159Y0445406D02*
X0098244Y0445406D01*
X0098244Y0447404D02*
X0098890Y0447404D01*
X0098493Y0449403D02*
X0098244Y0449403D01*
X0098244Y0453400D02*
X0098629Y0453400D01*
X0098244Y0455398D02*
X0099281Y0455398D01*
X0098244Y0457397D02*
X0100616Y0457397D01*
X0098244Y0459395D02*
X0103044Y0459395D01*
X0098244Y0461394D02*
X0134858Y0461394D01*
X0134858Y0463392D02*
X0098244Y0463392D01*
X0098244Y0465391D02*
X0134858Y0465391D01*
X0134858Y0467389D02*
X0098244Y0467389D01*
X0098244Y0469388D02*
X0134858Y0469388D01*
X0134858Y0471386D02*
X0098244Y0471386D01*
X0098244Y0473385D02*
X0134858Y0473385D01*
X0134858Y0475383D02*
X0098244Y0475383D01*
X0098244Y0477382D02*
X0134858Y0477382D01*
X0134858Y0479380D02*
X0098244Y0479380D01*
X0098244Y0481379D02*
X0134858Y0481379D01*
X0134858Y0483377D02*
X0098244Y0483377D01*
X0098244Y0485376D02*
X0134858Y0485376D01*
X0134858Y0487374D02*
X0098244Y0487374D01*
X0098244Y0489373D02*
X0134858Y0489373D01*
X0134858Y0491371D02*
X0098244Y0491371D01*
X0098244Y0493370D02*
X0134858Y0493370D01*
X0134858Y0495368D02*
X0098244Y0495368D01*
X0098244Y0497367D02*
X0134858Y0497367D01*
X0134858Y0499365D02*
X0098244Y0499365D01*
X0098244Y0501364D02*
X0134858Y0501364D01*
X0134858Y0503362D02*
X0098244Y0503362D01*
X0098244Y0505361D02*
X0136886Y0505361D01*
X0138975Y0507359D02*
X0098244Y0507359D01*
X0098244Y0509358D02*
X0141065Y0509358D01*
X0143154Y0511356D02*
X0098244Y0511356D01*
X0098244Y0513355D02*
X0346276Y0513355D01*
X0346276Y0511356D02*
X0181972Y0511356D01*
X0183780Y0509358D02*
X0247094Y0509358D01*
X0245096Y0507359D02*
X0185588Y0507359D01*
X0187397Y0505361D02*
X0243097Y0505361D01*
X0241099Y0503362D02*
X0188795Y0503362D01*
X0188795Y0501364D02*
X0206443Y0501364D01*
X0206822Y0501547D02*
X0205861Y0501084D01*
X0204957Y0500516D01*
X0204123Y0499851D01*
X0203369Y0499096D01*
X0202703Y0498262D01*
X0202136Y0497358D01*
X0201673Y0496397D01*
X0201320Y0495390D01*
X0201083Y0494350D01*
X0200963Y0493289D01*
X0200963Y0485756D01*
X0209963Y0485756D01*
X0209963Y0484756D01*
X0200963Y0484756D01*
X0200963Y0477222D01*
X0201083Y0476162D01*
X0201320Y0475122D01*
X0201673Y0474115D01*
X0202136Y0473153D01*
X0202703Y0472250D01*
X0203369Y0471416D01*
X0204123Y0470661D01*
X0204957Y0469996D01*
X0205861Y0469428D01*
X0206822Y0468965D01*
X0207829Y0468613D01*
X0208870Y0468375D01*
X0209930Y0468256D01*
X0209963Y0468256D01*
X0209963Y0484756D01*
X0210963Y0484756D01*
X0210963Y0468256D01*
X0210997Y0468256D01*
X0212057Y0468375D01*
X0213097Y0468613D01*
X0214105Y0468965D01*
X0215066Y0469428D01*
X0215969Y0469996D01*
X0216804Y0470661D01*
X0217558Y0471416D01*
X0218223Y0472250D01*
X0218791Y0473153D01*
X0219254Y0474115D01*
X0219606Y0475122D01*
X0219844Y0476162D01*
X0219963Y0477222D01*
X0219963Y0484756D01*
X0210963Y0484756D01*
X0210963Y0485756D01*
X0209963Y0485756D01*
X0209963Y0502256D01*
X0209930Y0502256D01*
X0208870Y0502136D01*
X0207829Y0501899D01*
X0206822Y0501547D01*
X0209963Y0501364D02*
X0210963Y0501364D01*
X0210963Y0502256D02*
X0210963Y0485756D01*
X0219963Y0485756D01*
X0219963Y0493289D01*
X0219844Y0494350D01*
X0219606Y0495390D01*
X0219254Y0496397D01*
X0218791Y0497358D01*
X0218223Y0498262D01*
X0217558Y0499096D01*
X0216804Y0499851D01*
X0215969Y0500516D01*
X0215066Y0501084D01*
X0214105Y0501547D01*
X0213097Y0501899D01*
X0212057Y0502136D01*
X0210997Y0502256D01*
X0210963Y0502256D01*
X0210963Y0499365D02*
X0209963Y0499365D01*
X0209963Y0497367D02*
X0210963Y0497367D01*
X0210963Y0495368D02*
X0209963Y0495368D01*
X0209963Y0493370D02*
X0210963Y0493370D01*
X0210963Y0491371D02*
X0209963Y0491371D01*
X0209963Y0489373D02*
X0210963Y0489373D01*
X0210963Y0487374D02*
X0209963Y0487374D01*
X0209963Y0485376D02*
X0188795Y0485376D01*
X0188795Y0487374D02*
X0200963Y0487374D01*
X0200963Y0489373D02*
X0188795Y0489373D01*
X0188795Y0491371D02*
X0200963Y0491371D01*
X0200972Y0493370D02*
X0188795Y0493370D01*
X0188795Y0495368D02*
X0201315Y0495368D01*
X0202141Y0497367D02*
X0188795Y0497367D01*
X0188795Y0499365D02*
X0203638Y0499365D01*
X0214484Y0501364D02*
X0239976Y0501364D01*
X0239976Y0499365D02*
X0217289Y0499365D01*
X0218786Y0497367D02*
X0239976Y0497367D01*
X0239976Y0495368D02*
X0219611Y0495368D01*
X0219954Y0493370D02*
X0239976Y0493370D01*
X0239976Y0491371D02*
X0219963Y0491371D01*
X0219963Y0489373D02*
X0239976Y0489373D01*
X0239976Y0487374D02*
X0219963Y0487374D01*
X0219963Y0483377D02*
X0239976Y0483377D01*
X0239976Y0481379D02*
X0219963Y0481379D01*
X0219963Y0479380D02*
X0239976Y0479380D01*
X0239976Y0477382D02*
X0219963Y0477382D01*
X0219666Y0475383D02*
X0239976Y0475383D01*
X0239976Y0473385D02*
X0218903Y0473385D01*
X0217529Y0471386D02*
X0239976Y0471386D01*
X0238620Y0469388D02*
X0214982Y0469388D01*
X0210963Y0469388D02*
X0209963Y0469388D01*
X0209963Y0471386D02*
X0210963Y0471386D01*
X0210963Y0473385D02*
X0209963Y0473385D01*
X0209963Y0475383D02*
X0210963Y0475383D01*
X0210963Y0477382D02*
X0209963Y0477382D01*
X0209963Y0479380D02*
X0210963Y0479380D01*
X0210963Y0481379D02*
X0209963Y0481379D01*
X0209963Y0483377D02*
X0210963Y0483377D01*
X0210963Y0485376D02*
X0239976Y0485376D01*
X0247850Y0485376D02*
X0276863Y0485376D01*
X0276863Y0485756D02*
X0276863Y0484756D01*
X0267863Y0484756D01*
X0267863Y0477222D01*
X0267983Y0476162D01*
X0268220Y0475122D01*
X0268573Y0474115D01*
X0269036Y0473153D01*
X0269603Y0472250D01*
X0270269Y0471416D01*
X0271023Y0470661D01*
X0271857Y0469996D01*
X0272761Y0469428D01*
X0273722Y0468965D01*
X0274729Y0468613D01*
X0275770Y0468375D01*
X0276830Y0468256D01*
X0276863Y0468256D01*
X0276863Y0484756D01*
X0277863Y0484756D01*
X0277863Y0468256D01*
X0277897Y0468256D01*
X0278957Y0468375D01*
X0279997Y0468613D01*
X0281005Y0468965D01*
X0281966Y0469428D01*
X0282869Y0469996D01*
X0283704Y0470661D01*
X0284458Y0471416D01*
X0285123Y0472250D01*
X0285691Y0473153D01*
X0286154Y0474115D01*
X0286506Y0475122D01*
X0286744Y0476162D01*
X0286863Y0477222D01*
X0286863Y0484756D01*
X0277863Y0484756D01*
X0277863Y0485756D01*
X0286863Y0485756D01*
X0286863Y0493289D01*
X0286744Y0494350D01*
X0286506Y0495390D01*
X0286154Y0496397D01*
X0285691Y0497358D01*
X0285123Y0498262D01*
X0284458Y0499096D01*
X0283704Y0499851D01*
X0282869Y0500516D01*
X0281966Y0501084D01*
X0281005Y0501547D01*
X0279997Y0501899D01*
X0278957Y0502136D01*
X0278037Y0502240D01*
X0302969Y0502240D01*
X0306906Y0498303D01*
X0306906Y0466807D01*
X0314780Y0458933D01*
X0342339Y0458933D01*
X0346276Y0454996D01*
X0346276Y0423500D01*
X0342339Y0419563D01*
X0173047Y0419563D01*
X0169110Y0415626D01*
X0169110Y0376256D01*
X0165173Y0372319D01*
X0102181Y0372319D01*
X0094307Y0380193D01*
X0094307Y0392004D01*
X0098244Y0395941D01*
X0133677Y0395941D01*
X0141551Y0403815D01*
X0141551Y0474462D01*
X0141673Y0474115D01*
X0142136Y0473153D01*
X0142703Y0472250D01*
X0143369Y0471416D01*
X0144123Y0470661D01*
X0144957Y0469996D01*
X0145861Y0469428D01*
X0146822Y0468965D01*
X0147829Y0468613D01*
X0148870Y0468375D01*
X0149930Y0468256D01*
X0149963Y0468256D01*
X0149963Y0484756D01*
X0150963Y0484756D01*
X0150963Y0468256D01*
X0150997Y0468256D01*
X0152057Y0468375D01*
X0153097Y0468613D01*
X0154105Y0468965D01*
X0155066Y0469428D01*
X0155969Y0469996D01*
X0156804Y0470661D01*
X0157558Y0471416D01*
X0158223Y0472250D01*
X0158791Y0473153D01*
X0159254Y0474115D01*
X0159606Y0475122D01*
X0159844Y0476162D01*
X0159963Y0477222D01*
X0159963Y0484756D01*
X0150963Y0484756D01*
X0150963Y0485756D01*
X0159963Y0485756D01*
X0159963Y0493289D01*
X0159844Y0494350D01*
X0159606Y0495390D01*
X0159254Y0496397D01*
X0158791Y0497358D01*
X0158223Y0498262D01*
X0157558Y0499096D01*
X0156804Y0499851D01*
X0155969Y0500516D01*
X0155066Y0501084D01*
X0154105Y0501547D01*
X0153097Y0501899D01*
X0152057Y0502136D01*
X0151137Y0502240D01*
X0176984Y0502240D01*
X0180921Y0498303D01*
X0180921Y0462870D01*
X0188795Y0454996D01*
X0239976Y0454996D01*
X0247850Y0462870D01*
X0247850Y0494366D01*
X0255724Y0502240D01*
X0276690Y0502240D01*
X0275770Y0502136D01*
X0274729Y0501899D01*
X0273722Y0501547D01*
X0272761Y0501084D01*
X0271857Y0500516D01*
X0271023Y0499851D01*
X0270269Y0499096D01*
X0269603Y0498262D01*
X0269036Y0497358D01*
X0268573Y0496397D01*
X0268220Y0495390D01*
X0267983Y0494350D01*
X0267863Y0493289D01*
X0267863Y0485756D01*
X0276863Y0485756D01*
X0277863Y0485376D02*
X0306906Y0485376D01*
X0306906Y0487374D02*
X0286863Y0487374D01*
X0286863Y0489373D02*
X0306906Y0489373D01*
X0306906Y0491371D02*
X0286863Y0491371D01*
X0286854Y0493370D02*
X0306906Y0493370D01*
X0306906Y0495368D02*
X0286511Y0495368D01*
X0285686Y0497367D02*
X0306906Y0497367D01*
X0305843Y0499365D02*
X0284189Y0499365D01*
X0281384Y0501364D02*
X0303845Y0501364D01*
X0314780Y0501364D02*
X0333343Y0501364D01*
X0333722Y0501547D02*
X0332761Y0501084D01*
X0331857Y0500516D01*
X0331023Y0499851D01*
X0330269Y0499096D01*
X0329603Y0498262D01*
X0329036Y0497358D01*
X0328573Y0496397D01*
X0328220Y0495390D01*
X0327983Y0494350D01*
X0327863Y0493289D01*
X0327863Y0485756D01*
X0336863Y0485756D01*
X0336863Y0502256D01*
X0336830Y0502256D01*
X0335770Y0502136D01*
X0334729Y0501899D01*
X0333722Y0501547D01*
X0336863Y0501364D02*
X0337863Y0501364D01*
X0337863Y0499365D02*
X0336863Y0499365D01*
X0336863Y0497367D02*
X0337863Y0497367D01*
X0337863Y0495368D02*
X0336863Y0495368D01*
X0336863Y0493370D02*
X0337863Y0493370D01*
X0337863Y0491371D02*
X0336863Y0491371D01*
X0336863Y0489373D02*
X0337863Y0489373D01*
X0337863Y0487374D02*
X0336863Y0487374D01*
X0336863Y0485376D02*
X0314780Y0485376D01*
X0314780Y0487374D02*
X0327863Y0487374D01*
X0327863Y0489373D02*
X0314780Y0489373D01*
X0314780Y0491371D02*
X0327863Y0491371D01*
X0327872Y0493370D02*
X0314780Y0493370D01*
X0314780Y0495368D02*
X0328215Y0495368D01*
X0329041Y0497367D02*
X0314780Y0497367D01*
X0314780Y0499365D02*
X0330538Y0499365D01*
X0341384Y0501364D02*
X0346276Y0501364D01*
X0346276Y0503362D02*
X0314780Y0503362D01*
X0314780Y0505361D02*
X0346276Y0505361D01*
X0346276Y0507359D02*
X0313597Y0507359D01*
X0311599Y0509358D02*
X0346276Y0509358D01*
X0344973Y0515353D02*
X0099546Y0515353D01*
X0101545Y0517352D02*
X0342975Y0517352D01*
X0340976Y0519351D02*
X0103543Y0519351D01*
X0105542Y0521349D02*
X0338978Y0521349D01*
X0336979Y0523348D02*
X0107540Y0523348D01*
X0109539Y0525346D02*
X0334981Y0525346D01*
X0354937Y0525346D02*
X0687730Y0525346D01*
X0687730Y0523348D02*
X0354937Y0523348D01*
X0354937Y0521349D02*
X0687730Y0521349D01*
X0687730Y0519351D02*
X0354937Y0519351D01*
X0354937Y0517352D02*
X0687730Y0517352D01*
X0687730Y0515353D02*
X0354937Y0515353D01*
X0354937Y0513355D02*
X0687730Y0513355D01*
X0687730Y0511356D02*
X0526533Y0511356D01*
X0526822Y0511237D02*
X0524628Y0512146D01*
X0522254Y0512146D01*
X0520060Y0511237D01*
X0518381Y0509558D01*
X0517472Y0507364D01*
X0517472Y0504990D01*
X0518381Y0502796D01*
X0518937Y0502240D01*
X0518381Y0501684D01*
X0517472Y0499490D01*
X0517472Y0497116D01*
X0518381Y0494922D01*
X0518937Y0494366D01*
X0518381Y0493810D01*
X0517472Y0491616D01*
X0517472Y0489242D01*
X0518381Y0487048D01*
X0518937Y0486492D01*
X0518381Y0485936D01*
X0517472Y0483742D01*
X0517472Y0481368D01*
X0518381Y0479174D01*
X0518937Y0478618D01*
X0518381Y0478062D01*
X0517472Y0475868D01*
X0517472Y0473494D01*
X0518381Y0471300D01*
X0518937Y0470744D01*
X0518381Y0470188D01*
X0517472Y0467994D01*
X0517472Y0465620D01*
X0518381Y0463426D01*
X0518937Y0462870D01*
X0518381Y0462314D01*
X0517472Y0460120D01*
X0517472Y0457746D01*
X0518381Y0455552D01*
X0518937Y0454996D01*
X0518381Y0454440D01*
X0517472Y0452246D01*
X0517472Y0449872D01*
X0518381Y0447678D01*
X0518937Y0447122D01*
X0518381Y0446566D01*
X0517472Y0444372D01*
X0517472Y0441998D01*
X0518381Y0439804D01*
X0518937Y0439248D01*
X0518381Y0438692D01*
X0517472Y0436498D01*
X0517472Y0434124D01*
X0518381Y0431930D01*
X0520060Y0430251D01*
X0522254Y0429343D01*
X0524628Y0429343D01*
X0526822Y0430251D01*
X0528501Y0431930D01*
X0529409Y0434124D01*
X0529409Y0436498D01*
X0528501Y0438692D01*
X0527945Y0439248D01*
X0528501Y0439804D01*
X0529409Y0441998D01*
X0529409Y0444372D01*
X0528501Y0446566D01*
X0527945Y0447122D01*
X0528501Y0447678D01*
X0529409Y0449872D01*
X0529409Y0452246D01*
X0528501Y0454440D01*
X0527945Y0454996D01*
X0528501Y0455552D01*
X0529409Y0457746D01*
X0529409Y0460120D01*
X0528501Y0462314D01*
X0527945Y0462870D01*
X0528501Y0463426D01*
X0529409Y0465620D01*
X0529409Y0467994D01*
X0528501Y0470188D01*
X0527945Y0470744D01*
X0528501Y0471300D01*
X0529409Y0473494D01*
X0529409Y0475868D01*
X0528501Y0478062D01*
X0527945Y0478618D01*
X0528501Y0479174D01*
X0529409Y0481368D01*
X0529409Y0483742D01*
X0528501Y0485936D01*
X0527945Y0486492D01*
X0528501Y0487048D01*
X0529409Y0489242D01*
X0529409Y0491616D01*
X0528501Y0493810D01*
X0527945Y0494366D01*
X0528501Y0494922D01*
X0529409Y0497116D01*
X0529409Y0499490D01*
X0528501Y0501684D01*
X0527945Y0502240D01*
X0528501Y0502796D01*
X0529409Y0504990D01*
X0529409Y0507364D01*
X0528501Y0509558D01*
X0526822Y0511237D01*
X0528584Y0509358D02*
X0687730Y0509358D01*
X0687730Y0507359D02*
X0529409Y0507359D01*
X0529409Y0505361D02*
X0687730Y0505361D01*
X0687730Y0503362D02*
X0528735Y0503362D01*
X0528633Y0501364D02*
X0687730Y0501364D01*
X0687730Y0499365D02*
X0529409Y0499365D01*
X0529409Y0497367D02*
X0687730Y0497367D01*
X0687730Y0495368D02*
X0528686Y0495368D01*
X0528683Y0493370D02*
X0687730Y0493370D01*
X0687730Y0491371D02*
X0529409Y0491371D01*
X0529409Y0489373D02*
X0687730Y0489373D01*
X0687730Y0487374D02*
X0528636Y0487374D01*
X0528733Y0485376D02*
X0687730Y0485376D01*
X0687730Y0484019D02*
X0689010Y0479243D01*
X0689010Y0479243D01*
X0691483Y0474960D01*
X0694980Y0471463D01*
X0699262Y0468991D01*
X0699262Y0468991D01*
X0704039Y0467711D01*
X0756628Y0467711D01*
X0756628Y0127321D01*
X0704039Y0127321D01*
X0699262Y0126041D01*
X0694980Y0123568D01*
X0691483Y0120071D01*
X0689010Y0115789D01*
X0689010Y0115789D01*
X0687730Y0111012D01*
X0687730Y0062360D01*
X0656149Y0062360D01*
X0658152Y0064363D01*
X0659588Y0066850D01*
X0660331Y0069623D01*
X0660331Y0072495D01*
X0659588Y0075268D01*
X0658152Y0077755D01*
X0656121Y0079786D01*
X0653635Y0081221D01*
X0650861Y0081965D01*
X0647989Y0081965D01*
X0645216Y0081221D01*
X0642729Y0079786D01*
X0640699Y0077755D01*
X0639263Y0075268D01*
X0638520Y0072495D01*
X0638520Y0069623D01*
X0639263Y0066850D01*
X0640699Y0064363D01*
X0642701Y0062360D01*
X0624653Y0062360D01*
X0626656Y0064363D01*
X0628091Y0066850D01*
X0628835Y0069623D01*
X0628835Y0072495D01*
X0628091Y0075268D01*
X0626656Y0077755D01*
X0624625Y0079786D01*
X0622138Y0081221D01*
X0619365Y0081965D01*
X0616493Y0081965D01*
X0613720Y0081221D01*
X0611233Y0079786D01*
X0609203Y0077755D01*
X0607767Y0075268D01*
X0607024Y0072495D01*
X0607024Y0069623D01*
X0607767Y0066850D01*
X0609203Y0064363D01*
X0611205Y0062360D01*
X0593157Y0062360D01*
X0595160Y0064363D01*
X0596595Y0066850D01*
X0597339Y0069623D01*
X0597339Y0072495D01*
X0596595Y0075268D01*
X0595160Y0077755D01*
X0593129Y0079786D01*
X0590642Y0081221D01*
X0587869Y0081965D01*
X0584997Y0081965D01*
X0582224Y0081221D01*
X0579737Y0079786D01*
X0577706Y0077755D01*
X0576271Y0075268D01*
X0575528Y0072495D01*
X0575528Y0069623D01*
X0576271Y0066850D01*
X0577706Y0064363D01*
X0579709Y0062360D01*
X0561661Y0062360D01*
X0563664Y0064363D01*
X0565099Y0066850D01*
X0565843Y0069623D01*
X0565843Y0072495D01*
X0565099Y0075268D01*
X0563664Y0077755D01*
X0561633Y0079786D01*
X0559146Y0081221D01*
X0556373Y0081965D01*
X0553501Y0081965D01*
X0550728Y0081221D01*
X0548241Y0079786D01*
X0546210Y0077755D01*
X0544775Y0075268D01*
X0544031Y0072495D01*
X0544031Y0069623D01*
X0544775Y0066850D01*
X0546210Y0064363D01*
X0548213Y0062360D01*
X0530165Y0062360D01*
X0532168Y0064363D01*
X0533603Y0066850D01*
X0534346Y0069623D01*
X0534346Y0072495D01*
X0533603Y0075268D01*
X0532168Y0077755D01*
X0530137Y0079786D01*
X0527650Y0081221D01*
X0524877Y0081965D01*
X0522005Y0081965D01*
X0519232Y0081221D01*
X0516745Y0079786D01*
X0514714Y0077755D01*
X0513279Y0075268D01*
X0512535Y0072495D01*
X0512535Y0069623D01*
X0513279Y0066850D01*
X0514714Y0064363D01*
X0516717Y0062360D01*
X0482724Y0062360D01*
X0484333Y0063969D01*
X0485769Y0066456D01*
X0486512Y0069230D01*
X0486512Y0072101D01*
X0485769Y0074875D01*
X0484333Y0077361D01*
X0482302Y0079392D01*
X0479816Y0080828D01*
X0477042Y0081571D01*
X0475214Y0081571D01*
X0476094Y0081935D01*
X0477998Y0083839D01*
X0478165Y0084243D01*
X0478333Y0083839D01*
X0480237Y0081935D01*
X0482725Y0080905D01*
X0485417Y0080905D01*
X0487905Y0081935D01*
X0489809Y0083839D01*
X0490839Y0086327D01*
X0490839Y0089020D01*
X0489809Y0091507D01*
X0487905Y0093411D01*
X0487501Y0093579D01*
X0487905Y0093746D01*
X0489809Y0095650D01*
X0490839Y0098138D01*
X0490839Y0100831D01*
X0489809Y0103318D01*
X0487905Y0105222D01*
X0486766Y0105694D01*
X0488100Y0107028D01*
X0488824Y0108775D01*
X0488824Y0110666D01*
X0488739Y0110870D01*
X0492342Y0110870D01*
X0493190Y0110022D01*
X0494937Y0109298D01*
X0496827Y0109298D01*
X0498574Y0110022D01*
X0499911Y0111359D01*
X0500635Y0113106D01*
X0500635Y0114997D01*
X0499911Y0116743D01*
X0499454Y0117201D01*
X0499911Y0117658D01*
X0500635Y0119405D01*
X0500635Y0121296D01*
X0499911Y0123043D01*
X0498574Y0124380D01*
X0496827Y0125103D01*
X0494937Y0125103D01*
X0493190Y0124380D01*
X0491976Y0123166D01*
X0491976Y0160905D01*
X0492037Y0160965D01*
X0492761Y0162712D01*
X0492761Y0164603D01*
X0492037Y0166350D01*
X0490700Y0167687D01*
X0488953Y0168410D01*
X0487062Y0168410D01*
X0485316Y0167687D01*
X0483979Y0166350D01*
X0483255Y0164603D01*
X0483255Y0162712D01*
X0483979Y0160965D01*
X0484039Y0160905D01*
X0484039Y0157490D01*
X0479561Y0161968D01*
X0478445Y0163085D01*
X0476986Y0163689D01*
X0432100Y0163689D01*
X0430642Y0163085D01*
X0429525Y0161968D01*
X0427309Y0159752D01*
X0410912Y0159752D01*
X0401425Y0169238D01*
X0401425Y0185573D01*
X0405903Y0181095D01*
X0407020Y0179978D01*
X0408478Y0179374D01*
X0436011Y0179374D01*
X0436011Y0178460D01*
X0436735Y0176713D01*
X0438072Y0175376D01*
X0439818Y0174653D01*
X0441709Y0174653D01*
X0443456Y0175376D01*
X0443517Y0175437D01*
X0446994Y0175437D01*
X0447822Y0174609D01*
X0447822Y0174523D01*
X0448546Y0172776D01*
X0449883Y0171439D01*
X0451629Y0170716D01*
X0453520Y0170716D01*
X0455267Y0171439D01*
X0456604Y0172776D01*
X0457328Y0174523D01*
X0457328Y0175437D01*
X0473444Y0175437D01*
X0473505Y0175376D01*
X0475251Y0174653D01*
X0477142Y0174653D01*
X0478889Y0175376D01*
X0478950Y0175437D01*
X0481317Y0175437D01*
X0482776Y0176041D01*
X0486108Y0179374D01*
X0518719Y0179374D01*
X0520177Y0179978D01*
X0527657Y0187459D01*
X0528774Y0188575D01*
X0529378Y0190033D01*
X0529378Y0222322D01*
X0529439Y0222383D01*
X0530162Y0224129D01*
X0530162Y0226020D01*
X0529439Y0227767D01*
X0528102Y0229104D01*
X0526355Y0229828D01*
X0525047Y0229828D01*
X0525047Y0277762D01*
X0525875Y0278590D01*
X0525961Y0278590D01*
X0527708Y0279313D01*
X0529045Y0280650D01*
X0529768Y0282397D01*
X0529768Y0284288D01*
X0529045Y0286035D01*
X0527708Y0287372D01*
X0525961Y0288095D01*
X0524070Y0288095D01*
X0522324Y0287372D01*
X0520987Y0286035D01*
X0520263Y0284288D01*
X0520263Y0284202D01*
X0518831Y0282770D01*
X0518831Y0282770D01*
X0517714Y0281653D01*
X0517110Y0280195D01*
X0517110Y0194435D01*
X0513923Y0191248D01*
X0486188Y0191248D01*
X0485738Y0192334D01*
X0484401Y0193671D01*
X0482912Y0194288D01*
X0489404Y0200780D01*
X0490008Y0202238D01*
X0490008Y0238056D01*
X0490999Y0237645D01*
X0492890Y0237645D01*
X0494637Y0238368D01*
X0494698Y0238429D01*
X0506049Y0238429D01*
X0506877Y0237601D01*
X0506877Y0237515D01*
X0507601Y0235768D01*
X0508938Y0234431D01*
X0510685Y0233708D01*
X0512575Y0233708D01*
X0514322Y0234431D01*
X0515659Y0235768D01*
X0516383Y0237515D01*
X0516383Y0239406D01*
X0515659Y0241153D01*
X0514322Y0242490D01*
X0512575Y0243213D01*
X0512489Y0243213D01*
X0511057Y0244646D01*
X0509941Y0245762D01*
X0508482Y0246366D01*
X0494698Y0246366D01*
X0494637Y0246427D01*
X0492890Y0247150D01*
X0490999Y0247150D01*
X0490008Y0246740D01*
X0490008Y0281771D01*
X0490069Y0281831D01*
X0490792Y0283578D01*
X0490792Y0285469D01*
X0490069Y0287216D01*
X0488732Y0288553D01*
X0486985Y0289276D01*
X0485094Y0289276D01*
X0484102Y0288866D01*
X0484102Y0299809D01*
X0485715Y0301421D01*
X0532104Y0301421D01*
X0533563Y0302025D01*
X0534679Y0303142D01*
X0537500Y0305962D01*
X0538616Y0307079D01*
X0539220Y0308537D01*
X0539220Y0370675D01*
X0545794Y0377249D01*
X0552782Y0377249D01*
X0553813Y0376217D01*
X0552591Y0374995D01*
X0551576Y0372544D01*
X0551576Y0369891D01*
X0552591Y0367440D01*
X0553813Y0366217D01*
X0552591Y0364995D01*
X0551576Y0362544D01*
X0551576Y0359891D01*
X0552591Y0357440D01*
X0553813Y0356217D01*
X0552591Y0354995D01*
X0551576Y0352544D01*
X0551576Y0349891D01*
X0552591Y0347440D01*
X0553813Y0346217D01*
X0552591Y0344995D01*
X0551576Y0342544D01*
X0551576Y0339891D01*
X0552591Y0337440D01*
X0553813Y0336217D01*
X0552591Y0334995D01*
X0551576Y0332544D01*
X0551576Y0329891D01*
X0552591Y0327440D01*
X0553813Y0326217D01*
X0552591Y0324995D01*
X0551576Y0322544D01*
X0551576Y0319891D01*
X0552591Y0317440D01*
X0554467Y0315564D01*
X0556918Y0314549D01*
X0558199Y0314549D01*
X0558058Y0314209D01*
X0558058Y0314123D01*
X0555510Y0311575D01*
X0554906Y0310116D01*
X0554906Y0302632D01*
X0555510Y0301173D01*
X0559776Y0296907D01*
X0561234Y0296303D01*
X0597852Y0296303D01*
X0599311Y0296907D01*
X0612303Y0309899D01*
X0613419Y0311016D01*
X0614024Y0312474D01*
X0614024Y0358864D01*
X0622408Y0367249D01*
X0632782Y0367249D01*
X0633813Y0366217D01*
X0632591Y0364995D01*
X0631576Y0362544D01*
X0631576Y0359891D01*
X0632591Y0357440D01*
X0633813Y0356217D01*
X0632591Y0354995D01*
X0631576Y0352544D01*
X0631576Y0349891D01*
X0632591Y0347440D01*
X0633813Y0346217D01*
X0632591Y0344995D01*
X0631576Y0342544D01*
X0631576Y0339891D01*
X0632591Y0337440D01*
X0633813Y0336217D01*
X0632591Y0334995D01*
X0631576Y0332544D01*
X0631576Y0329891D01*
X0632591Y0327440D01*
X0633813Y0326217D01*
X0632591Y0324995D01*
X0631576Y0322544D01*
X0631576Y0319891D01*
X0632591Y0317440D01*
X0634467Y0315564D01*
X0636918Y0314549D01*
X0639571Y0314549D01*
X0642021Y0315564D01*
X0643897Y0317440D01*
X0644913Y0319891D01*
X0644913Y0322544D01*
X0643897Y0324995D01*
X0642675Y0326217D01*
X0643897Y0327440D01*
X0644913Y0329891D01*
X0644913Y0332544D01*
X0643897Y0334995D01*
X0642675Y0336217D01*
X0643897Y0337440D01*
X0644913Y0339891D01*
X0644913Y0342544D01*
X0643897Y0344995D01*
X0642675Y0346217D01*
X0643897Y0347440D01*
X0644913Y0349891D01*
X0644913Y0352544D01*
X0643897Y0354995D01*
X0642675Y0356217D01*
X0643897Y0357440D01*
X0644913Y0359891D01*
X0644913Y0362544D01*
X0643897Y0364995D01*
X0642675Y0366217D01*
X0643897Y0367440D01*
X0644913Y0369891D01*
X0644913Y0372544D01*
X0643897Y0374995D01*
X0642675Y0376217D01*
X0643897Y0377440D01*
X0644913Y0379891D01*
X0644913Y0382544D01*
X0643897Y0384995D01*
X0642675Y0386217D01*
X0643706Y0387249D01*
X0687938Y0387249D01*
X0696638Y0378549D01*
X0696638Y0221923D01*
X0697242Y0220465D01*
X0698358Y0219348D01*
X0702295Y0215411D01*
X0703754Y0214807D01*
X0717144Y0214807D01*
X0718602Y0215411D01*
X0719719Y0216528D01*
X0722593Y0219402D01*
X0723197Y0220860D01*
X0723197Y0223399D01*
X0724712Y0224915D01*
X0724850Y0225248D01*
X0725033Y0224996D01*
X0725645Y0224384D01*
X0726346Y0223875D01*
X0727117Y0223482D01*
X0727940Y0223214D01*
X0728795Y0223079D01*
X0729228Y0223079D01*
X0729228Y0228579D01*
X0729228Y0234079D01*
X0728795Y0234079D01*
X0727940Y0233943D01*
X0727117Y0233676D01*
X0726346Y0233283D01*
X0725645Y0232774D01*
X0725033Y0232162D01*
X0724850Y0231910D01*
X0724712Y0232243D01*
X0722892Y0234062D01*
X0720515Y0235047D01*
X0717942Y0235047D01*
X0715564Y0234062D01*
X0714228Y0232727D01*
X0713197Y0233758D01*
X0713197Y0388108D01*
X0712593Y0389567D01*
X0697578Y0404582D01*
X0696119Y0405186D01*
X0643706Y0405186D01*
X0642675Y0406217D01*
X0643897Y0407440D01*
X0644913Y0409891D01*
X0644913Y0412544D01*
X0643897Y0414995D01*
X0642021Y0416871D01*
X0641977Y0416889D01*
X0642592Y0417504D01*
X0643119Y0418230D01*
X0643526Y0419029D01*
X0643804Y0419883D01*
X0643944Y0420769D01*
X0643944Y0421217D01*
X0638244Y0421217D01*
X0632544Y0421217D01*
X0632544Y0420769D01*
X0632684Y0419883D01*
X0632962Y0419029D01*
X0633369Y0418230D01*
X0633896Y0417504D01*
X0634511Y0416889D01*
X0634467Y0416871D01*
X0632591Y0414995D01*
X0631576Y0412544D01*
X0631576Y0409891D01*
X0632591Y0407440D01*
X0633813Y0406217D01*
X0632591Y0404995D01*
X0631576Y0402544D01*
X0631576Y0399891D01*
X0632591Y0397440D01*
X0633813Y0396217D01*
X0632591Y0394995D01*
X0631576Y0392544D01*
X0631576Y0389891D01*
X0632591Y0387440D01*
X0633813Y0386217D01*
X0632782Y0385186D01*
X0618164Y0385186D01*
X0616706Y0384582D01*
X0615589Y0383465D01*
X0602754Y0370630D01*
X0602150Y0369171D01*
X0602150Y0318845D01*
X0592663Y0309358D01*
X0565627Y0309358D01*
X0566840Y0310572D01*
X0567564Y0312318D01*
X0567564Y0314209D01*
X0566840Y0315956D01*
X0565503Y0317293D01*
X0564081Y0317882D01*
X0564913Y0319891D01*
X0564913Y0322544D01*
X0563897Y0324995D01*
X0562675Y0326217D01*
X0563897Y0327440D01*
X0564913Y0329891D01*
X0564913Y0332544D01*
X0563897Y0334995D01*
X0562675Y0336217D01*
X0563897Y0337440D01*
X0564913Y0339891D01*
X0564913Y0342544D01*
X0563897Y0344995D01*
X0562675Y0346217D01*
X0563897Y0347440D01*
X0564913Y0349891D01*
X0564913Y0352544D01*
X0563897Y0354995D01*
X0562675Y0356217D01*
X0563897Y0357440D01*
X0564913Y0359891D01*
X0564913Y0362544D01*
X0563897Y0364995D01*
X0562675Y0366217D01*
X0563897Y0367440D01*
X0564913Y0369891D01*
X0564913Y0372544D01*
X0563897Y0374995D01*
X0562675Y0376217D01*
X0563897Y0377440D01*
X0564913Y0379891D01*
X0564913Y0382544D01*
X0563897Y0384995D01*
X0562675Y0386217D01*
X0563897Y0387440D01*
X0564913Y0389891D01*
X0564913Y0392544D01*
X0563897Y0394995D01*
X0562675Y0396217D01*
X0563897Y0397440D01*
X0564913Y0399891D01*
X0564913Y0402544D01*
X0563897Y0404995D01*
X0562675Y0406217D01*
X0563897Y0407440D01*
X0564913Y0409891D01*
X0564913Y0412544D01*
X0563897Y0414995D01*
X0562675Y0416217D01*
X0563897Y0417440D01*
X0564913Y0419891D01*
X0564913Y0422544D01*
X0563897Y0424995D01*
X0562675Y0426217D01*
X0563897Y0427440D01*
X0564913Y0429891D01*
X0564913Y0432544D01*
X0563897Y0434995D01*
X0562675Y0436217D01*
X0563897Y0437440D01*
X0564913Y0439891D01*
X0564913Y0442544D01*
X0563897Y0444995D01*
X0562675Y0446217D01*
X0563897Y0447440D01*
X0564913Y0449891D01*
X0564913Y0452544D01*
X0563897Y0454995D01*
X0562021Y0456871D01*
X0559571Y0457886D01*
X0556918Y0457886D01*
X0554467Y0456871D01*
X0552591Y0454995D01*
X0551576Y0452544D01*
X0551576Y0449891D01*
X0552591Y0447440D01*
X0553813Y0446217D01*
X0552591Y0444995D01*
X0551576Y0442544D01*
X0551576Y0439891D01*
X0552591Y0437440D01*
X0553813Y0436217D01*
X0552591Y0434995D01*
X0551576Y0432544D01*
X0551576Y0429891D01*
X0552591Y0427440D01*
X0553813Y0426217D01*
X0552591Y0424995D01*
X0551576Y0422544D01*
X0551576Y0419891D01*
X0552591Y0417440D01*
X0553813Y0416217D01*
X0552782Y0415186D01*
X0545802Y0415186D01*
X0544343Y0414582D01*
X0520077Y0390315D01*
X0519472Y0388856D01*
X0519472Y0322782D01*
X0517860Y0321169D01*
X0471470Y0321169D01*
X0470012Y0320565D01*
X0468896Y0319449D01*
X0466075Y0316628D01*
X0464959Y0315512D01*
X0464354Y0314053D01*
X0464354Y0243213D01*
X0463440Y0243213D01*
X0461694Y0242490D01*
X0460357Y0241153D01*
X0459633Y0239406D01*
X0459633Y0239320D01*
X0450931Y0230618D01*
X0438534Y0230618D01*
X0445560Y0237645D01*
X0445646Y0237645D01*
X0447393Y0238368D01*
X0448730Y0239705D01*
X0449454Y0241452D01*
X0449454Y0243343D01*
X0448730Y0245090D01*
X0447393Y0246427D01*
X0445646Y0247150D01*
X0443755Y0247150D01*
X0442009Y0246427D01*
X0441748Y0246166D01*
X0441487Y0246427D01*
X0439741Y0247150D01*
X0437850Y0247150D01*
X0436103Y0246427D01*
X0435843Y0246166D01*
X0435582Y0246427D01*
X0433835Y0247150D01*
X0431944Y0247150D01*
X0430306Y0246472D01*
X0430226Y0246665D01*
X0428889Y0248002D01*
X0427142Y0248725D01*
X0425251Y0248725D01*
X0423505Y0248002D01*
X0422657Y0247154D01*
X0411628Y0247154D01*
X0410169Y0246549D01*
X0409053Y0245433D01*
X0382281Y0218661D01*
X0381677Y0217203D01*
X0381677Y0162081D01*
X0382281Y0160622D01*
X0383398Y0159506D01*
X0402295Y0140608D01*
X0403754Y0140004D01*
X0414326Y0140004D01*
X0413113Y0138791D01*
X0412389Y0137044D01*
X0412389Y0135153D01*
X0413113Y0133406D01*
X0413173Y0133346D01*
X0413173Y0127435D01*
X0413777Y0125976D01*
X0421651Y0118102D01*
X0422768Y0116986D01*
X0424226Y0116382D01*
X0426200Y0116382D01*
X0426261Y0116321D01*
X0428007Y0115598D01*
X0429898Y0115598D01*
X0431645Y0116321D01*
X0432890Y0117566D01*
X0434135Y0116321D01*
X0435881Y0115598D01*
X0437772Y0115598D01*
X0439519Y0116321D01*
X0440856Y0117658D01*
X0441580Y0119405D01*
X0441580Y0121296D01*
X0440856Y0123043D01*
X0439519Y0124380D01*
X0437772Y0125103D01*
X0435881Y0125103D01*
X0434135Y0124380D01*
X0432890Y0123135D01*
X0431645Y0124380D01*
X0429898Y0125103D01*
X0428007Y0125103D01*
X0426500Y0124479D01*
X0421110Y0129868D01*
X0421110Y0133346D01*
X0421171Y0133406D01*
X0421894Y0135153D01*
X0421894Y0137044D01*
X0421171Y0138791D01*
X0419958Y0140004D01*
X0422263Y0140004D01*
X0422324Y0139943D01*
X0424070Y0139220D01*
X0425961Y0139220D01*
X0427708Y0139943D01*
X0429045Y0141280D01*
X0429768Y0143027D01*
X0429768Y0143941D01*
X0439120Y0143941D01*
X0439948Y0143113D01*
X0439948Y0143027D01*
X0440672Y0141280D01*
X0442009Y0139943D01*
X0443755Y0139220D01*
X0444669Y0139220D01*
X0444669Y0123103D01*
X0444609Y0123043D01*
X0443885Y0121296D01*
X0443885Y0119405D01*
X0444609Y0117658D01*
X0445946Y0116321D01*
X0447692Y0115598D01*
X0449583Y0115598D01*
X0451330Y0116321D01*
X0452575Y0117566D01*
X0453696Y0116445D01*
X0451785Y0116445D01*
X0450327Y0115841D01*
X0449210Y0114724D01*
X0445273Y0110787D01*
X0444669Y0109329D01*
X0444669Y0105088D01*
X0442900Y0103318D01*
X0442732Y0102914D01*
X0442565Y0103318D01*
X0440661Y0105222D01*
X0438173Y0106253D01*
X0435480Y0106253D01*
X0432993Y0105222D01*
X0431089Y0103318D01*
X0430921Y0102914D01*
X0430754Y0103318D01*
X0428850Y0105222D01*
X0426362Y0106253D01*
X0423669Y0106253D01*
X0421182Y0105222D01*
X0419278Y0103318D01*
X0419110Y0102914D01*
X0418943Y0103318D01*
X0417039Y0105222D01*
X0414551Y0106253D01*
X0411858Y0106253D01*
X0409371Y0105222D01*
X0407467Y0103318D01*
X0407299Y0102914D01*
X0407132Y0103318D01*
X0405228Y0105222D01*
X0402740Y0106253D01*
X0400047Y0106253D01*
X0397560Y0105222D01*
X0395656Y0103318D01*
X0394625Y0100831D01*
X0394625Y0098138D01*
X0395656Y0095650D01*
X0397560Y0093746D01*
X0399211Y0093062D01*
X0399167Y0093048D01*
X0398354Y0092634D01*
X0397615Y0092097D01*
X0396970Y0091452D01*
X0396433Y0090713D01*
X0396019Y0089900D01*
X0395737Y0089031D01*
X0395594Y0088130D01*
X0395594Y0087677D01*
X0401390Y0087677D01*
X0401390Y0087669D01*
X0401398Y0087669D01*
X0401398Y0087677D01*
X0407194Y0087677D01*
X0407194Y0088130D01*
X0407051Y0089031D01*
X0406769Y0089900D01*
X0406354Y0090713D01*
X0405818Y0091452D01*
X0405172Y0092097D01*
X0404434Y0092634D01*
X0403620Y0093048D01*
X0403577Y0093062D01*
X0405228Y0093746D01*
X0407132Y0095650D01*
X0407299Y0096054D01*
X0407467Y0095650D01*
X0409371Y0093746D01*
X0411022Y0093062D01*
X0410978Y0093048D01*
X0410165Y0092634D01*
X0409426Y0092097D01*
X0408781Y0091452D01*
X0408244Y0090713D01*
X0407830Y0089900D01*
X0407548Y0089031D01*
X0407405Y0088130D01*
X0407405Y0087677D01*
X0413201Y0087677D01*
X0413201Y0087669D01*
X0413209Y0087669D01*
X0413209Y0087677D01*
X0419005Y0087677D01*
X0419005Y0088130D01*
X0418862Y0089031D01*
X0418580Y0089900D01*
X0418165Y0090713D01*
X0417629Y0091452D01*
X0416983Y0092097D01*
X0416245Y0092634D01*
X0415431Y0093048D01*
X0415388Y0093062D01*
X0417039Y0093746D01*
X0418943Y0095650D01*
X0419110Y0096054D01*
X0419278Y0095650D01*
X0421182Y0093746D01*
X0422833Y0093062D01*
X0422789Y0093048D01*
X0421976Y0092634D01*
X0421237Y0092097D01*
X0420592Y0091452D01*
X0420055Y0090713D01*
X0419641Y0089900D01*
X0419359Y0089031D01*
X0419216Y0088130D01*
X0419216Y0087677D01*
X0425012Y0087677D01*
X0425012Y0087669D01*
X0425020Y0087669D01*
X0425020Y0087677D01*
X0430816Y0087677D01*
X0430816Y0088130D01*
X0430673Y0089031D01*
X0430391Y0089900D01*
X0429976Y0090713D01*
X0429440Y0091452D01*
X0428794Y0092097D01*
X0428056Y0092634D01*
X0427242Y0093048D01*
X0427199Y0093062D01*
X0428850Y0093746D01*
X0430754Y0095650D01*
X0430921Y0096054D01*
X0431089Y0095650D01*
X0432993Y0093746D01*
X0434644Y0093062D01*
X0434600Y0093048D01*
X0433787Y0092634D01*
X0433048Y0092097D01*
X0432403Y0091452D01*
X0431866Y0090713D01*
X0431452Y0089900D01*
X0431170Y0089031D01*
X0431027Y0088130D01*
X0431027Y0087677D01*
X0436823Y0087677D01*
X0436823Y0087669D01*
X0436831Y0087669D01*
X0436831Y0081873D01*
X0437283Y0081873D01*
X0438185Y0082016D01*
X0439053Y0082298D01*
X0439867Y0082713D01*
X0440605Y0083249D01*
X0441251Y0083895D01*
X0441787Y0084633D01*
X0442202Y0085447D01*
X0442216Y0085490D01*
X0442900Y0083839D01*
X0444804Y0081935D01*
X0447291Y0080905D01*
X0449984Y0080905D01*
X0452472Y0081935D01*
X0454376Y0083839D01*
X0454543Y0084243D01*
X0454711Y0083839D01*
X0456615Y0081935D01*
X0459102Y0080905D01*
X0461795Y0080905D01*
X0464283Y0081935D01*
X0466187Y0083839D01*
X0466354Y0084243D01*
X0466522Y0083839D01*
X0468426Y0081935D01*
X0470913Y0080905D01*
X0471685Y0080905D01*
X0471397Y0080828D01*
X0468910Y0079392D01*
X0466880Y0077361D01*
X0465444Y0074875D01*
X0464701Y0072101D01*
X0464701Y0069230D01*
X0465444Y0066456D01*
X0466880Y0063969D01*
X0468489Y0062360D01*
X0416976Y0062360D01*
X0418585Y0063969D01*
X0420021Y0066456D01*
X0420764Y0069230D01*
X0420764Y0072101D01*
X0420021Y0074875D01*
X0418585Y0077361D01*
X0416554Y0079392D01*
X0414068Y0080828D01*
X0411294Y0081571D01*
X0408423Y0081571D01*
X0405649Y0080828D01*
X0403162Y0079392D01*
X0401132Y0077361D01*
X0399696Y0074875D01*
X0398953Y0072101D01*
X0398953Y0069230D01*
X0399696Y0066456D01*
X0401132Y0063969D01*
X0402741Y0062360D01*
X0341188Y0062360D01*
X0343191Y0064363D01*
X0344627Y0066850D01*
X0345370Y0069623D01*
X0345370Y0072495D01*
X0344627Y0075268D01*
X0343191Y0077755D01*
X0341161Y0079786D01*
X0338674Y0081221D01*
X0336823Y0081717D01*
X0338299Y0082329D01*
X0340203Y0084233D01*
X0341233Y0086721D01*
X0341233Y0087809D01*
X0356964Y0103540D01*
X0358362Y0104938D01*
X0359118Y0106764D01*
X0359118Y0110535D01*
X0359150Y0110611D01*
X0359259Y0110346D01*
X0360882Y0108723D01*
X0363002Y0107845D01*
X0365297Y0107845D01*
X0367417Y0108723D01*
X0369040Y0110346D01*
X0369918Y0112466D01*
X0369918Y0120361D01*
X0369118Y0122292D01*
X0369118Y0130737D01*
X0369904Y0131063D01*
X0371470Y0132629D01*
X0372318Y0134676D01*
X0372318Y0136891D01*
X0371470Y0138938D01*
X0369904Y0140504D01*
X0369230Y0140783D01*
X0369904Y0141063D01*
X0371470Y0142629D01*
X0372318Y0144676D01*
X0372318Y0146891D01*
X0371470Y0148938D01*
X0369904Y0150504D01*
X0367857Y0151352D01*
X0360442Y0151352D01*
X0358395Y0150504D01*
X0356829Y0148938D01*
X0355981Y0146891D01*
X0355981Y0144676D01*
X0356829Y0142629D01*
X0358395Y0141063D01*
X0359069Y0140783D01*
X0358395Y0140504D01*
X0356829Y0138938D01*
X0355981Y0136891D01*
X0355981Y0134676D01*
X0356829Y0132629D01*
X0358395Y0131063D01*
X0359181Y0130737D01*
X0359181Y0122292D01*
X0359150Y0122216D01*
X0359040Y0122481D01*
X0357417Y0124104D01*
X0355297Y0124982D01*
X0353002Y0124982D01*
X0350882Y0124104D01*
X0349259Y0122481D01*
X0349150Y0122216D01*
X0349118Y0122292D01*
X0349118Y0130737D01*
X0349904Y0131063D01*
X0351470Y0132629D01*
X0352318Y0134676D01*
X0352318Y0136891D01*
X0351470Y0138938D01*
X0349904Y0140504D01*
X0349230Y0140783D01*
X0349904Y0141063D01*
X0351470Y0142629D01*
X0352318Y0144676D01*
X0352318Y0146891D01*
X0351894Y0147915D01*
X0356398Y0152419D01*
X0357514Y0153535D01*
X0358118Y0154994D01*
X0358118Y0171340D01*
X0358395Y0171063D01*
X0360442Y0170215D01*
X0367857Y0170215D01*
X0369904Y0171063D01*
X0371470Y0172629D01*
X0372318Y0174676D01*
X0372318Y0176891D01*
X0371470Y0178938D01*
X0369904Y0180504D01*
X0367857Y0181352D01*
X0360442Y0181352D01*
X0358395Y0180504D01*
X0358118Y0180227D01*
X0358118Y0180590D01*
X0358179Y0180650D01*
X0358902Y0182397D01*
X0358902Y0184288D01*
X0358179Y0186035D01*
X0356842Y0187372D01*
X0355095Y0188095D01*
X0353204Y0188095D01*
X0351457Y0187372D01*
X0350120Y0186035D01*
X0349397Y0184288D01*
X0349397Y0182397D01*
X0350120Y0180650D01*
X0350181Y0180590D01*
X0350181Y0180227D01*
X0349904Y0180504D01*
X0347857Y0181352D01*
X0340442Y0181352D01*
X0338395Y0180504D01*
X0336829Y0178938D01*
X0335981Y0176891D01*
X0335981Y0176138D01*
X0331650Y0171807D01*
X0330252Y0170409D01*
X0329496Y0168583D01*
X0329496Y0150934D01*
X0328487Y0151352D01*
X0321072Y0151352D01*
X0319025Y0150504D01*
X0317459Y0148938D01*
X0316611Y0146891D01*
X0316611Y0144676D01*
X0317459Y0142629D01*
X0319025Y0141063D01*
X0319699Y0140783D01*
X0319025Y0140504D01*
X0317459Y0138938D01*
X0316611Y0136891D01*
X0316611Y0134676D01*
X0317459Y0132629D01*
X0319025Y0131063D01*
X0319811Y0130737D01*
X0319811Y0122292D01*
X0319780Y0122216D01*
X0319670Y0122481D01*
X0318047Y0124104D01*
X0315927Y0124982D01*
X0313632Y0124982D01*
X0311512Y0124104D01*
X0309889Y0122481D01*
X0309780Y0122216D01*
X0309748Y0122292D01*
X0309748Y0130737D01*
X0310534Y0131063D01*
X0312100Y0132629D01*
X0312948Y0134676D01*
X0312948Y0136891D01*
X0312100Y0138938D01*
X0310534Y0140504D01*
X0309860Y0140783D01*
X0310534Y0141063D01*
X0312100Y0142629D01*
X0312948Y0144676D01*
X0312948Y0146891D01*
X0312100Y0148938D01*
X0310534Y0150504D01*
X0308748Y0151244D01*
X0308748Y0159888D01*
X0317027Y0168167D01*
X0318144Y0169284D01*
X0318748Y0170742D01*
X0318748Y0171340D01*
X0319025Y0171063D01*
X0321072Y0170215D01*
X0328487Y0170215D01*
X0330534Y0171063D01*
X0332100Y0172629D01*
X0332948Y0174676D01*
X0332948Y0176891D01*
X0332100Y0178938D01*
X0330534Y0180504D01*
X0328487Y0181352D01*
X0321072Y0181352D01*
X0319025Y0180504D01*
X0318748Y0180227D01*
X0318748Y0180590D01*
X0318809Y0180650D01*
X0319532Y0182397D01*
X0319532Y0184288D01*
X0318809Y0186035D01*
X0317472Y0187372D01*
X0315725Y0188095D01*
X0313834Y0188095D01*
X0312087Y0187372D01*
X0310750Y0186035D01*
X0310027Y0184288D01*
X0310027Y0182397D01*
X0310750Y0180650D01*
X0310811Y0180590D01*
X0310811Y0180227D01*
X0310534Y0180504D01*
X0308487Y0181352D01*
X0301072Y0181352D01*
X0299025Y0180504D01*
X0297459Y0178938D01*
X0296611Y0176891D01*
X0296611Y0174676D01*
X0296621Y0174652D01*
X0292280Y0170311D01*
X0290882Y0168913D01*
X0290126Y0167087D01*
X0290126Y0106764D01*
X0290882Y0104938D01*
X0292280Y0103540D01*
X0296200Y0099620D01*
X0296200Y0098532D01*
X0297230Y0096044D01*
X0299134Y0094140D01*
X0299539Y0093972D01*
X0299134Y0093805D01*
X0297230Y0091901D01*
X0296200Y0089413D01*
X0296200Y0086721D01*
X0297230Y0084233D01*
X0299134Y0082329D01*
X0300611Y0081717D01*
X0298759Y0081221D01*
X0296272Y0079786D01*
X0294242Y0077755D01*
X0292806Y0075268D01*
X0292063Y0072495D01*
X0292063Y0069623D01*
X0292806Y0066850D01*
X0294242Y0064363D01*
X0296245Y0062360D01*
X0287337Y0062360D01*
X0287220Y0062476D01*
X0287220Y0168776D01*
X0354937Y0236492D01*
X0354937Y0529799D01*
X0357809Y0532671D01*
X0687730Y0532671D01*
X0687730Y0484019D01*
X0687902Y0483377D02*
X0529409Y0483377D01*
X0529409Y0481379D02*
X0688438Y0481379D01*
X0688973Y0479380D02*
X0528586Y0479380D01*
X0528783Y0477382D02*
X0690085Y0477382D01*
X0691239Y0475383D02*
X0529409Y0475383D01*
X0529364Y0473385D02*
X0693058Y0473385D01*
X0691483Y0474960D02*
X0691483Y0474960D01*
X0694980Y0471463D02*
X0694980Y0471463D01*
X0695113Y0471386D02*
X0528536Y0471386D01*
X0528832Y0469388D02*
X0698574Y0469388D01*
X0678549Y0457397D02*
X0756628Y0457397D01*
X0756628Y0459395D02*
X0676121Y0459395D01*
X0674876Y0460227D02*
X0671079Y0460982D01*
X0667281Y0460227D01*
X0664062Y0458076D01*
X0661911Y0454857D01*
X0661156Y0451059D01*
X0661911Y0447262D01*
X0664062Y0444042D01*
X0667281Y0441891D01*
X0671079Y0441136D01*
X0674876Y0441891D01*
X0678096Y0444042D01*
X0680247Y0447262D01*
X0681002Y0451059D01*
X0680247Y0454857D01*
X0678096Y0458076D01*
X0674876Y0460227D01*
X0679885Y0455398D02*
X0756628Y0455398D01*
X0756628Y0453400D02*
X0680536Y0453400D01*
X0680934Y0451401D02*
X0756628Y0451401D01*
X0756628Y0449403D02*
X0680672Y0449403D01*
X0680275Y0447404D02*
X0756628Y0447404D01*
X0756628Y0445406D02*
X0679006Y0445406D01*
X0677145Y0443407D02*
X0756628Y0443407D01*
X0756628Y0441409D02*
X0672450Y0441409D01*
X0669708Y0441409D02*
X0664688Y0441409D01*
X0665013Y0443407D02*
X0662689Y0443407D01*
X0661515Y0444582D02*
X0660056Y0445186D01*
X0643706Y0445186D01*
X0642675Y0446217D01*
X0643897Y0447440D01*
X0644913Y0449891D01*
X0644913Y0452544D01*
X0643897Y0454995D01*
X0642021Y0456871D01*
X0639571Y0457886D01*
X0636918Y0457886D01*
X0634467Y0456871D01*
X0632591Y0454995D01*
X0631576Y0452544D01*
X0631576Y0449891D01*
X0632591Y0447440D01*
X0633813Y0446217D01*
X0632591Y0444995D01*
X0631576Y0442544D01*
X0631576Y0439891D01*
X0632591Y0437440D01*
X0633813Y0436217D01*
X0632591Y0434995D01*
X0631576Y0432544D01*
X0631576Y0429891D01*
X0632591Y0427440D01*
X0634467Y0425564D01*
X0634511Y0425546D01*
X0633896Y0424931D01*
X0633369Y0424205D01*
X0632962Y0423405D01*
X0632684Y0422552D01*
X0632544Y0421666D01*
X0632544Y0421217D01*
X0638244Y0421217D01*
X0638244Y0421217D01*
X0638244Y0421217D01*
X0643944Y0421217D01*
X0643944Y0421666D01*
X0643804Y0422552D01*
X0643526Y0423405D01*
X0643119Y0424205D01*
X0642592Y0424931D01*
X0641977Y0425546D01*
X0642021Y0425564D01*
X0643897Y0427440D01*
X0644913Y0429891D01*
X0644913Y0432544D01*
X0643897Y0434995D01*
X0642675Y0436217D01*
X0643706Y0437249D01*
X0657623Y0437249D01*
X0661205Y0433667D01*
X0661205Y0426253D01*
X0661144Y0426192D01*
X0660420Y0424445D01*
X0660420Y0422555D01*
X0661144Y0420808D01*
X0662481Y0419471D01*
X0664228Y0418747D01*
X0666119Y0418747D01*
X0667865Y0419471D01*
X0669202Y0420808D01*
X0669926Y0422555D01*
X0669926Y0424445D01*
X0669202Y0426192D01*
X0669142Y0426253D01*
X0669142Y0436100D01*
X0668538Y0437559D01*
X0667421Y0438675D01*
X0661515Y0444582D01*
X0663151Y0445406D02*
X0643487Y0445406D01*
X0643862Y0447404D02*
X0661883Y0447404D01*
X0661485Y0449403D02*
X0644710Y0449403D01*
X0644913Y0451401D02*
X0661224Y0451401D01*
X0661621Y0453400D02*
X0644558Y0453400D01*
X0643494Y0455398D02*
X0662273Y0455398D01*
X0663608Y0457397D02*
X0640751Y0457397D01*
X0635737Y0457397D02*
X0560751Y0457397D01*
X0563494Y0455398D02*
X0632994Y0455398D01*
X0631930Y0453400D02*
X0564558Y0453400D01*
X0564913Y0451401D02*
X0631576Y0451401D01*
X0631778Y0449403D02*
X0564710Y0449403D01*
X0563862Y0447404D02*
X0632627Y0447404D01*
X0633002Y0445406D02*
X0563487Y0445406D01*
X0564555Y0443407D02*
X0631933Y0443407D01*
X0631576Y0441409D02*
X0564913Y0441409D01*
X0564713Y0439410D02*
X0631775Y0439410D01*
X0632619Y0437412D02*
X0563869Y0437412D01*
X0563479Y0435413D02*
X0633009Y0435413D01*
X0631936Y0433415D02*
X0564552Y0433415D01*
X0564913Y0431416D02*
X0631576Y0431416D01*
X0631772Y0429417D02*
X0564716Y0429417D01*
X0563876Y0427419D02*
X0632612Y0427419D01*
X0634386Y0425420D02*
X0563472Y0425420D01*
X0564549Y0423422D02*
X0632970Y0423422D01*
X0632544Y0421423D02*
X0564913Y0421423D01*
X0564720Y0419425D02*
X0632833Y0419425D01*
X0633974Y0417426D02*
X0563884Y0417426D01*
X0563464Y0415428D02*
X0633024Y0415428D01*
X0631942Y0413429D02*
X0564546Y0413429D01*
X0564913Y0411431D02*
X0631576Y0411431D01*
X0631766Y0409432D02*
X0564723Y0409432D01*
X0563891Y0407434D02*
X0632597Y0407434D01*
X0633031Y0405435D02*
X0563457Y0405435D01*
X0564543Y0403437D02*
X0631946Y0403437D01*
X0631576Y0401438D02*
X0564913Y0401438D01*
X0564726Y0399440D02*
X0631762Y0399440D01*
X0632590Y0397441D02*
X0563898Y0397441D01*
X0563449Y0395443D02*
X0633039Y0395443D01*
X0631949Y0393444D02*
X0564540Y0393444D01*
X0564913Y0391446D02*
X0631576Y0391446D01*
X0631759Y0389447D02*
X0564729Y0389447D01*
X0563901Y0387449D02*
X0632587Y0387449D01*
X0633046Y0385450D02*
X0563442Y0385450D01*
X0564537Y0383452D02*
X0615576Y0383452D01*
X0613577Y0381453D02*
X0564913Y0381453D01*
X0564732Y0379455D02*
X0568737Y0379455D01*
X0568231Y0378948D02*
X0567507Y0377201D01*
X0567507Y0375311D01*
X0568231Y0373564D01*
X0568291Y0373503D01*
X0568291Y0319166D01*
X0568231Y0319106D01*
X0567507Y0317359D01*
X0567507Y0315468D01*
X0568231Y0313721D01*
X0569568Y0312384D01*
X0571314Y0311661D01*
X0573205Y0311661D01*
X0574952Y0312384D01*
X0576289Y0313721D01*
X0577013Y0315468D01*
X0577013Y0317359D01*
X0576289Y0319106D01*
X0576228Y0319166D01*
X0576228Y0373503D01*
X0576289Y0373564D01*
X0577013Y0375311D01*
X0577013Y0377201D01*
X0576289Y0378948D01*
X0574952Y0380285D01*
X0573205Y0381009D01*
X0571314Y0381009D01*
X0569568Y0380285D01*
X0568231Y0378948D01*
X0567613Y0377456D02*
X0563904Y0377456D01*
X0563434Y0375458D02*
X0567507Y0375458D01*
X0568291Y0373459D02*
X0564533Y0373459D01*
X0564913Y0371461D02*
X0568291Y0371461D01*
X0568291Y0369462D02*
X0564735Y0369462D01*
X0563907Y0367464D02*
X0568291Y0367464D01*
X0568291Y0365465D02*
X0563427Y0365465D01*
X0564530Y0363467D02*
X0568291Y0363467D01*
X0568291Y0361468D02*
X0564913Y0361468D01*
X0564738Y0359470D02*
X0568291Y0359470D01*
X0568291Y0357471D02*
X0563910Y0357471D01*
X0563420Y0355473D02*
X0568291Y0355473D01*
X0568291Y0353474D02*
X0564527Y0353474D01*
X0564913Y0351476D02*
X0568291Y0351476D01*
X0568291Y0349477D02*
X0564741Y0349477D01*
X0563913Y0347479D02*
X0568291Y0347479D01*
X0568291Y0345480D02*
X0563412Y0345480D01*
X0564524Y0343482D02*
X0568291Y0343482D01*
X0568291Y0341483D02*
X0564913Y0341483D01*
X0564744Y0339484D02*
X0568291Y0339484D01*
X0568291Y0337486D02*
X0563916Y0337486D01*
X0563405Y0335487D02*
X0568291Y0335487D01*
X0568291Y0333489D02*
X0564521Y0333489D01*
X0564913Y0331490D02*
X0568291Y0331490D01*
X0568291Y0329492D02*
X0564747Y0329492D01*
X0563920Y0327493D02*
X0568291Y0327493D01*
X0568291Y0325495D02*
X0563397Y0325495D01*
X0564518Y0323496D02*
X0568291Y0323496D01*
X0568291Y0321498D02*
X0564913Y0321498D01*
X0564750Y0319499D02*
X0568291Y0319499D01*
X0567566Y0317501D02*
X0565001Y0317501D01*
X0567028Y0315502D02*
X0567507Y0315502D01*
X0567564Y0313504D02*
X0568448Y0313504D01*
X0567227Y0311505D02*
X0594810Y0311505D01*
X0592812Y0309507D02*
X0565775Y0309507D01*
X0562811Y0313264D02*
X0558874Y0309327D01*
X0558874Y0303421D01*
X0562024Y0300272D01*
X0597063Y0300272D01*
X0610055Y0313264D01*
X0610055Y0360508D01*
X0620765Y0371217D01*
X0638244Y0371217D01*
X0644913Y0371461D02*
X0680106Y0371461D01*
X0680106Y0371374D02*
X0680829Y0369627D01*
X0682166Y0368290D01*
X0683913Y0367566D01*
X0685804Y0367566D01*
X0687550Y0368290D01*
X0688887Y0369627D01*
X0689611Y0371374D01*
X0689611Y0373264D01*
X0688887Y0375011D01*
X0687550Y0376348D01*
X0685804Y0377072D01*
X0683913Y0377072D01*
X0682166Y0376348D01*
X0680829Y0375011D01*
X0680106Y0373264D01*
X0680106Y0371374D01*
X0680186Y0373459D02*
X0644533Y0373459D01*
X0643434Y0375458D02*
X0681276Y0375458D01*
X0680994Y0369462D02*
X0644735Y0369462D01*
X0643907Y0367464D02*
X0696638Y0367464D01*
X0696638Y0369462D02*
X0688723Y0369462D01*
X0689611Y0371461D02*
X0696638Y0371461D01*
X0696638Y0373459D02*
X0689530Y0373459D01*
X0688441Y0375458D02*
X0696638Y0375458D01*
X0696638Y0377456D02*
X0643904Y0377456D01*
X0644732Y0379455D02*
X0695732Y0379455D01*
X0693734Y0381453D02*
X0644913Y0381453D01*
X0644537Y0383452D02*
X0691735Y0383452D01*
X0689737Y0385450D02*
X0643442Y0385450D01*
X0638244Y0381217D02*
X0618954Y0381217D01*
X0606118Y0368382D01*
X0606118Y0317201D01*
X0594307Y0305390D01*
X0562811Y0305390D01*
X0554906Y0305510D02*
X0537047Y0305510D01*
X0538794Y0307508D02*
X0554906Y0307508D01*
X0554906Y0309507D02*
X0539220Y0309507D01*
X0539220Y0311505D02*
X0555481Y0311505D01*
X0557439Y0313504D02*
X0539220Y0313504D01*
X0539220Y0315502D02*
X0554616Y0315502D01*
X0552566Y0317501D02*
X0539220Y0317501D01*
X0539220Y0319499D02*
X0551738Y0319499D01*
X0551576Y0321498D02*
X0539220Y0321498D01*
X0539220Y0323496D02*
X0551970Y0323496D01*
X0553091Y0325495D02*
X0539220Y0325495D01*
X0539220Y0327493D02*
X0552569Y0327493D01*
X0551741Y0329492D02*
X0539220Y0329492D01*
X0539220Y0331490D02*
X0551576Y0331490D01*
X0551967Y0333489D02*
X0539220Y0333489D01*
X0539220Y0335487D02*
X0553084Y0335487D01*
X0552572Y0337486D02*
X0539220Y0337486D01*
X0539220Y0339484D02*
X0551744Y0339484D01*
X0551576Y0341483D02*
X0539220Y0341483D01*
X0539220Y0343482D02*
X0551964Y0343482D01*
X0553076Y0345480D02*
X0539220Y0345480D01*
X0539220Y0347479D02*
X0552575Y0347479D01*
X0551747Y0349477D02*
X0539220Y0349477D01*
X0539220Y0351476D02*
X0551576Y0351476D01*
X0551961Y0353474D02*
X0539220Y0353474D01*
X0539220Y0355473D02*
X0553069Y0355473D01*
X0552578Y0357471D02*
X0539220Y0357471D01*
X0539220Y0359470D02*
X0551750Y0359470D01*
X0551576Y0361468D02*
X0539220Y0361468D01*
X0539220Y0363467D02*
X0551958Y0363467D01*
X0553061Y0365465D02*
X0539220Y0365465D01*
X0539220Y0367464D02*
X0552581Y0367464D01*
X0551753Y0369462D02*
X0539220Y0369462D01*
X0540006Y0371461D02*
X0551576Y0371461D01*
X0551955Y0373459D02*
X0542005Y0373459D01*
X0544003Y0375458D02*
X0553054Y0375458D01*
X0558244Y0381217D02*
X0544150Y0381217D01*
X0535252Y0372319D01*
X0535252Y0309327D01*
X0531315Y0305390D01*
X0484071Y0305390D01*
X0480134Y0301453D01*
X0480134Y0203028D01*
X0468323Y0191217D01*
X0469504Y0186492D02*
X0446276Y0186492D01*
X0443520Y0189248D01*
X0421866Y0189248D01*
X0412417Y0189248D01*
X0409268Y0183343D02*
X0452575Y0183343D01*
X0456512Y0179406D01*
X0476197Y0179406D01*
X0480528Y0179406D01*
X0484465Y0183343D01*
X0517929Y0183343D01*
X0525409Y0190823D01*
X0525409Y0225075D01*
X0526985Y0229566D02*
X0548698Y0229566D01*
X0548029Y0228898D02*
X0547425Y0227439D01*
X0547425Y0224678D01*
X0547365Y0224617D01*
X0546641Y0222871D01*
X0546641Y0220980D01*
X0547365Y0219233D01*
X0548701Y0217896D01*
X0550448Y0217172D01*
X0552339Y0217172D01*
X0554086Y0217896D01*
X0555423Y0219233D01*
X0556146Y0220980D01*
X0556146Y0222871D01*
X0555423Y0224617D01*
X0555362Y0224678D01*
X0555362Y0225006D01*
X0556581Y0226224D01*
X0567507Y0226224D01*
X0567507Y0224523D01*
X0568231Y0222776D01*
X0568291Y0222716D01*
X0568291Y0200663D01*
X0568896Y0199205D01*
X0569869Y0198231D01*
X0569869Y0198145D01*
X0570593Y0196398D01*
X0571930Y0195061D01*
X0573677Y0194338D01*
X0575567Y0194338D01*
X0577314Y0195061D01*
X0578559Y0196306D01*
X0579804Y0195061D01*
X0581551Y0194338D01*
X0583441Y0194338D01*
X0585188Y0195061D01*
X0586525Y0196398D01*
X0587249Y0198145D01*
X0587249Y0200036D01*
X0587021Y0200585D01*
X0587944Y0200967D01*
X0588005Y0201028D01*
X0611955Y0201028D01*
X0613567Y0199415D01*
X0613567Y0176253D01*
X0613506Y0176192D01*
X0612783Y0174445D01*
X0612783Y0172555D01*
X0613506Y0170808D01*
X0614843Y0169471D01*
X0616590Y0168747D01*
X0618481Y0168747D01*
X0620228Y0169471D01*
X0621565Y0170808D01*
X0622288Y0172555D01*
X0622288Y0174445D01*
X0621565Y0176192D01*
X0621504Y0176253D01*
X0621504Y0201848D01*
X0620900Y0203307D01*
X0615846Y0208360D01*
X0614388Y0208965D01*
X0588005Y0208965D01*
X0587944Y0209025D01*
X0586197Y0209749D01*
X0586071Y0209749D01*
X0586071Y0222716D01*
X0586132Y0222776D01*
X0586855Y0224523D01*
X0586855Y0226224D01*
X0588405Y0226224D01*
X0588465Y0226164D01*
X0590212Y0225440D01*
X0592103Y0225440D01*
X0593850Y0226164D01*
X0595187Y0227501D01*
X0595910Y0229248D01*
X0595910Y0231138D01*
X0595187Y0232885D01*
X0593850Y0234222D01*
X0592103Y0234946D01*
X0590212Y0234946D01*
X0588465Y0234222D01*
X0588405Y0234161D01*
X0554148Y0234161D01*
X0552689Y0233557D01*
X0551573Y0232441D01*
X0548029Y0228898D01*
X0547479Y0227568D02*
X0529521Y0227568D01*
X0530162Y0225569D02*
X0547425Y0225569D01*
X0546931Y0223571D02*
X0529931Y0223571D01*
X0529378Y0221572D02*
X0546641Y0221572D01*
X0547223Y0219574D02*
X0529378Y0219574D01*
X0529378Y0217575D02*
X0549476Y0217575D01*
X0553312Y0217575D02*
X0568291Y0217575D01*
X0568291Y0215577D02*
X0529378Y0215577D01*
X0529378Y0213578D02*
X0568291Y0213578D01*
X0568291Y0211580D02*
X0529378Y0211580D01*
X0529378Y0209581D02*
X0568291Y0209581D01*
X0568291Y0207583D02*
X0529378Y0207583D01*
X0529378Y0205584D02*
X0568291Y0205584D01*
X0568291Y0203586D02*
X0529378Y0203586D01*
X0529378Y0201587D02*
X0568291Y0201587D01*
X0568736Y0199589D02*
X0529378Y0199589D01*
X0529378Y0197590D02*
X0570099Y0197590D01*
X0571400Y0195592D02*
X0553644Y0195592D01*
X0554480Y0195246D02*
X0552733Y0195969D01*
X0550842Y0195969D01*
X0549095Y0195246D01*
X0547758Y0193909D01*
X0547035Y0192162D01*
X0547035Y0190271D01*
X0547758Y0188524D01*
X0549095Y0187187D01*
X0550842Y0186464D01*
X0552733Y0186464D01*
X0554480Y0187187D01*
X0555817Y0188524D01*
X0556540Y0190271D01*
X0556540Y0192162D01*
X0555817Y0193909D01*
X0554480Y0195246D01*
X0555947Y0193593D02*
X0613567Y0193593D01*
X0613567Y0191595D02*
X0556540Y0191595D01*
X0556261Y0189596D02*
X0613567Y0189596D01*
X0613567Y0187598D02*
X0554890Y0187598D01*
X0548685Y0187598D02*
X0527797Y0187598D01*
X0529197Y0189596D02*
X0547314Y0189596D01*
X0547035Y0191595D02*
X0529378Y0191595D01*
X0529378Y0193593D02*
X0547627Y0193593D01*
X0549930Y0195592D02*
X0529378Y0195592D01*
X0521079Y0192791D02*
X0521079Y0279406D01*
X0525016Y0283343D01*
X0529408Y0281528D02*
X0696638Y0281528D01*
X0696638Y0283526D02*
X0529768Y0283526D01*
X0529256Y0285525D02*
X0696638Y0285525D01*
X0696638Y0287523D02*
X0527342Y0287523D01*
X0522689Y0287523D02*
X0489761Y0287523D01*
X0490769Y0285525D02*
X0520775Y0285525D01*
X0519587Y0283526D02*
X0490771Y0283526D01*
X0490008Y0281528D02*
X0517662Y0281528D01*
X0517110Y0279529D02*
X0490008Y0279529D01*
X0490008Y0277531D02*
X0517110Y0277531D01*
X0517110Y0275532D02*
X0490008Y0275532D01*
X0490008Y0273534D02*
X0517110Y0273534D01*
X0517110Y0271535D02*
X0490008Y0271535D01*
X0490008Y0269537D02*
X0517110Y0269537D01*
X0517110Y0267538D02*
X0490008Y0267538D01*
X0490008Y0265540D02*
X0517110Y0265540D01*
X0517110Y0263541D02*
X0490008Y0263541D01*
X0490008Y0261543D02*
X0517110Y0261543D01*
X0517110Y0259544D02*
X0490008Y0259544D01*
X0490008Y0257546D02*
X0517110Y0257546D01*
X0517110Y0255547D02*
X0490008Y0255547D01*
X0490008Y0253548D02*
X0517110Y0253548D01*
X0517110Y0251550D02*
X0490008Y0251550D01*
X0490008Y0249551D02*
X0517110Y0249551D01*
X0517110Y0247553D02*
X0490008Y0247553D01*
X0491945Y0242398D02*
X0507693Y0242398D01*
X0511630Y0238461D01*
X0515255Y0241557D02*
X0517110Y0241557D01*
X0517110Y0239559D02*
X0516319Y0239559D01*
X0516383Y0237560D02*
X0517110Y0237560D01*
X0517110Y0235562D02*
X0515453Y0235562D01*
X0517110Y0233563D02*
X0490008Y0233563D01*
X0490008Y0231565D02*
X0517110Y0231565D01*
X0517110Y0229566D02*
X0490008Y0229566D01*
X0490008Y0227568D02*
X0517110Y0227568D01*
X0517110Y0225569D02*
X0490008Y0225569D01*
X0490008Y0223571D02*
X0517110Y0223571D01*
X0517110Y0221572D02*
X0490008Y0221572D01*
X0490008Y0219574D02*
X0517110Y0219574D01*
X0517110Y0217575D02*
X0490008Y0217575D01*
X0490008Y0215577D02*
X0517110Y0215577D01*
X0517110Y0213578D02*
X0490008Y0213578D01*
X0490008Y0211580D02*
X0517110Y0211580D01*
X0517110Y0209581D02*
X0490008Y0209581D01*
X0490008Y0207583D02*
X0517110Y0207583D01*
X0517110Y0205584D02*
X0490008Y0205584D01*
X0490008Y0203586D02*
X0517110Y0203586D01*
X0517110Y0201587D02*
X0489738Y0201587D01*
X0488213Y0199589D02*
X0517110Y0199589D01*
X0517110Y0197590D02*
X0486214Y0197590D01*
X0484216Y0195592D02*
X0517110Y0195592D01*
X0516268Y0193593D02*
X0484479Y0193593D01*
X0486044Y0191595D02*
X0514270Y0191595D01*
X0515567Y0187280D02*
X0521079Y0192791D01*
X0515567Y0187280D02*
X0484071Y0187280D01*
X0481709Y0189642D01*
X0469504Y0186492D02*
X0486039Y0203028D01*
X0486039Y0284524D01*
X0484102Y0289522D02*
X0696638Y0289522D01*
X0696638Y0291520D02*
X0484102Y0291520D01*
X0484102Y0293519D02*
X0696638Y0293519D01*
X0696638Y0295517D02*
X0484102Y0295517D01*
X0484102Y0297516D02*
X0559167Y0297516D01*
X0557169Y0299514D02*
X0484102Y0299514D01*
X0476197Y0305390D02*
X0476197Y0210902D01*
X0469386Y0204091D01*
X0467024Y0204091D01*
X0468323Y0214839D02*
X0472260Y0218776D01*
X0472260Y0309327D01*
X0476197Y0313264D01*
X0523441Y0313264D01*
X0527378Y0317201D01*
X0527378Y0384130D01*
X0544465Y0401217D01*
X0558244Y0401217D01*
X0558244Y0391217D02*
X0542339Y0391217D01*
X0540213Y0389091D01*
X0539189Y0388067D01*
X0531315Y0380193D01*
X0531315Y0313264D01*
X0527378Y0309327D01*
X0480134Y0309327D01*
X0476197Y0305390D01*
X0468323Y0313264D02*
X0468323Y0222713D01*
X0466748Y0221138D01*
X0443520Y0221138D01*
X0436827Y0214839D02*
X0468323Y0214839D01*
X0452575Y0226650D02*
X0419110Y0226650D01*
X0412417Y0219957D01*
X0412417Y0203815D01*
X0421472Y0203815D01*
X0409268Y0199091D02*
X0405331Y0195154D01*
X0403619Y0199589D02*
X0401425Y0199589D01*
X0402638Y0199183D02*
X0401425Y0197969D01*
X0401425Y0209258D01*
X0408449Y0216281D01*
X0408449Y0206568D01*
X0408388Y0206507D01*
X0407665Y0204760D01*
X0407665Y0202870D01*
X0407717Y0202744D01*
X0407020Y0202455D01*
X0404471Y0199906D01*
X0404385Y0199906D01*
X0402638Y0199183D01*
X0401425Y0201587D02*
X0406152Y0201587D01*
X0407665Y0203586D02*
X0401425Y0203586D01*
X0401425Y0205584D02*
X0408006Y0205584D01*
X0408449Y0207583D02*
X0401425Y0207583D01*
X0401749Y0209581D02*
X0408449Y0209581D01*
X0408449Y0211580D02*
X0403747Y0211580D01*
X0405746Y0213578D02*
X0408449Y0213578D01*
X0408449Y0215577D02*
X0407744Y0215577D01*
X0397457Y0210902D02*
X0417142Y0230587D01*
X0432890Y0230587D01*
X0444701Y0242398D01*
X0448265Y0245554D02*
X0464354Y0245554D01*
X0464354Y0243556D02*
X0449365Y0243556D01*
X0449454Y0241557D02*
X0460761Y0241557D01*
X0459696Y0239559D02*
X0448583Y0239559D01*
X0445476Y0237560D02*
X0457873Y0237560D01*
X0455875Y0235562D02*
X0443477Y0235562D01*
X0441479Y0233563D02*
X0453876Y0233563D01*
X0451878Y0231565D02*
X0439480Y0231565D01*
X0431315Y0234524D02*
X0438795Y0242004D01*
X0438795Y0242398D01*
X0432890Y0242398D02*
X0429346Y0238854D01*
X0413992Y0238854D01*
X0389583Y0214445D01*
X0389583Y0164445D01*
X0406118Y0147909D01*
X0440764Y0147909D01*
X0444701Y0143972D01*
X0442757Y0139633D02*
X0426960Y0139633D01*
X0429191Y0141632D02*
X0440526Y0141632D01*
X0439431Y0143630D02*
X0429768Y0143630D01*
X0425016Y0143972D02*
X0404543Y0143972D01*
X0385646Y0162870D01*
X0385646Y0216413D01*
X0412417Y0243185D01*
X0425409Y0243185D01*
X0426197Y0243972D01*
X0429338Y0247553D02*
X0464354Y0247553D01*
X0464354Y0249551D02*
X0354937Y0249551D01*
X0354937Y0247553D02*
X0423056Y0247553D01*
X0409174Y0245554D02*
X0354937Y0245554D01*
X0354937Y0243556D02*
X0407176Y0243556D01*
X0405177Y0241557D02*
X0354937Y0241557D01*
X0354937Y0239559D02*
X0403179Y0239559D01*
X0401180Y0237560D02*
X0354937Y0237560D01*
X0354007Y0235562D02*
X0399182Y0235562D01*
X0397183Y0233563D02*
X0352008Y0233563D01*
X0350010Y0231565D02*
X0395185Y0231565D01*
X0393186Y0229566D02*
X0348011Y0229566D01*
X0346013Y0227568D02*
X0391188Y0227568D01*
X0389189Y0225569D02*
X0344014Y0225569D01*
X0342016Y0223571D02*
X0387191Y0223571D01*
X0385192Y0221572D02*
X0340017Y0221572D01*
X0338019Y0219574D02*
X0383194Y0219574D01*
X0381831Y0217575D02*
X0336020Y0217575D01*
X0334022Y0215577D02*
X0381677Y0215577D01*
X0381677Y0213578D02*
X0332023Y0213578D01*
X0330025Y0211580D02*
X0381677Y0211580D01*
X0381677Y0209581D02*
X0328026Y0209581D01*
X0326028Y0207583D02*
X0381677Y0207583D01*
X0381677Y0205584D02*
X0324029Y0205584D01*
X0322031Y0203586D02*
X0381677Y0203586D01*
X0381677Y0201587D02*
X0320032Y0201587D01*
X0318034Y0199589D02*
X0381677Y0199589D01*
X0381677Y0197590D02*
X0316035Y0197590D01*
X0314037Y0195592D02*
X0381677Y0195592D01*
X0381677Y0193593D02*
X0312038Y0193593D01*
X0310040Y0191595D02*
X0381677Y0191595D01*
X0381677Y0189596D02*
X0308041Y0189596D01*
X0306043Y0187598D02*
X0312633Y0187598D01*
X0310570Y0185599D02*
X0304044Y0185599D01*
X0302045Y0183601D02*
X0310027Y0183601D01*
X0310356Y0181602D02*
X0300047Y0181602D01*
X0298125Y0179604D02*
X0298048Y0179604D01*
X0296907Y0177605D02*
X0296050Y0177605D01*
X0296611Y0175607D02*
X0294051Y0175607D01*
X0295578Y0173608D02*
X0292053Y0173608D01*
X0293579Y0171610D02*
X0290054Y0171610D01*
X0291581Y0169611D02*
X0288056Y0169611D01*
X0287220Y0167613D02*
X0290344Y0167613D01*
X0290126Y0165614D02*
X0287220Y0165614D01*
X0287220Y0163615D02*
X0290126Y0163615D01*
X0290126Y0161617D02*
X0287220Y0161617D01*
X0287220Y0159618D02*
X0290126Y0159618D01*
X0290126Y0157620D02*
X0287220Y0157620D01*
X0287220Y0155621D02*
X0290126Y0155621D01*
X0290126Y0153623D02*
X0287220Y0153623D01*
X0287220Y0151624D02*
X0290126Y0151624D01*
X0290126Y0149626D02*
X0287220Y0149626D01*
X0287220Y0147627D02*
X0290126Y0147627D01*
X0290126Y0145629D02*
X0287220Y0145629D01*
X0287220Y0143630D02*
X0290126Y0143630D01*
X0290126Y0141632D02*
X0287220Y0141632D01*
X0287220Y0139633D02*
X0290126Y0139633D01*
X0290126Y0137635D02*
X0287220Y0137635D01*
X0287220Y0135636D02*
X0290126Y0135636D01*
X0290126Y0133638D02*
X0287220Y0133638D01*
X0287220Y0131639D02*
X0290126Y0131639D01*
X0290126Y0129641D02*
X0287220Y0129641D01*
X0287220Y0127642D02*
X0290126Y0127642D01*
X0290126Y0125644D02*
X0287220Y0125644D01*
X0287220Y0123645D02*
X0290126Y0123645D01*
X0290126Y0121647D02*
X0287220Y0121647D01*
X0287220Y0119648D02*
X0290126Y0119648D01*
X0290126Y0117650D02*
X0287220Y0117650D01*
X0287220Y0115651D02*
X0290126Y0115651D01*
X0290126Y0113653D02*
X0287220Y0113653D01*
X0287220Y0111654D02*
X0290126Y0111654D01*
X0290126Y0109656D02*
X0287220Y0109656D01*
X0287220Y0107657D02*
X0290126Y0107657D01*
X0290584Y0105659D02*
X0287220Y0105659D01*
X0287220Y0103660D02*
X0292160Y0103660D01*
X0294158Y0101662D02*
X0287220Y0101662D01*
X0287220Y0099663D02*
X0296157Y0099663D01*
X0296559Y0097665D02*
X0287220Y0097665D01*
X0287220Y0095666D02*
X0297608Y0095666D01*
X0298997Y0093668D02*
X0287220Y0093668D01*
X0287220Y0091669D02*
X0297134Y0091669D01*
X0296307Y0089671D02*
X0287220Y0089671D01*
X0287220Y0087672D02*
X0296200Y0087672D01*
X0296634Y0085674D02*
X0287220Y0085674D01*
X0287220Y0083675D02*
X0297788Y0083675D01*
X0300458Y0081677D02*
X0287220Y0081677D01*
X0287220Y0079678D02*
X0296165Y0079678D01*
X0294198Y0077680D02*
X0287220Y0077680D01*
X0287220Y0075681D02*
X0293044Y0075681D01*
X0292381Y0073682D02*
X0287220Y0073682D01*
X0287220Y0071684D02*
X0292063Y0071684D01*
X0292063Y0069685D02*
X0287220Y0069685D01*
X0287220Y0067687D02*
X0292582Y0067687D01*
X0293477Y0065688D02*
X0287220Y0065688D01*
X0287220Y0063690D02*
X0294915Y0063690D01*
X0336975Y0081677D02*
X0445428Y0081677D01*
X0443064Y0083675D02*
X0441031Y0083675D01*
X0436831Y0083675D02*
X0436823Y0083675D01*
X0436823Y0081873D02*
X0436823Y0087669D01*
X0431027Y0087669D01*
X0431027Y0087217D01*
X0431170Y0086315D01*
X0431452Y0085447D01*
X0431866Y0084633D01*
X0432403Y0083895D01*
X0433048Y0083249D01*
X0433787Y0082713D01*
X0434600Y0082298D01*
X0435469Y0082016D01*
X0436370Y0081873D01*
X0436823Y0081873D01*
X0436823Y0085674D02*
X0436831Y0085674D01*
X0436823Y0087672D02*
X0425020Y0087672D01*
X0425020Y0087669D02*
X0430816Y0087669D01*
X0430816Y0087217D01*
X0430673Y0086315D01*
X0430391Y0085447D01*
X0429976Y0084633D01*
X0429440Y0083895D01*
X0428794Y0083249D01*
X0428056Y0082713D01*
X0427242Y0082298D01*
X0426374Y0082016D01*
X0425472Y0081873D01*
X0425020Y0081873D01*
X0425020Y0087669D01*
X0425012Y0087669D02*
X0425012Y0081873D01*
X0424559Y0081873D01*
X0423658Y0082016D01*
X0422789Y0082298D01*
X0421976Y0082713D01*
X0421237Y0083249D01*
X0420592Y0083895D01*
X0420055Y0084633D01*
X0419641Y0085447D01*
X0419359Y0086315D01*
X0419216Y0087217D01*
X0419216Y0087669D01*
X0425012Y0087669D01*
X0425012Y0087672D02*
X0413209Y0087672D01*
X0413209Y0087669D02*
X0419005Y0087669D01*
X0419005Y0087217D01*
X0418862Y0086315D01*
X0418580Y0085447D01*
X0418165Y0084633D01*
X0417629Y0083895D01*
X0416983Y0083249D01*
X0416245Y0082713D01*
X0415431Y0082298D01*
X0414563Y0082016D01*
X0413661Y0081873D01*
X0413209Y0081873D01*
X0413209Y0087669D01*
X0413201Y0087669D02*
X0413201Y0081873D01*
X0412748Y0081873D01*
X0411847Y0082016D01*
X0410978Y0082298D01*
X0410165Y0082713D01*
X0409426Y0083249D01*
X0408781Y0083895D01*
X0408244Y0084633D01*
X0407830Y0085447D01*
X0407548Y0086315D01*
X0407405Y0087217D01*
X0407405Y0087669D01*
X0413201Y0087669D01*
X0413201Y0087672D02*
X0401398Y0087672D01*
X0401398Y0087669D02*
X0407194Y0087669D01*
X0407194Y0087217D01*
X0407051Y0086315D01*
X0406769Y0085447D01*
X0406354Y0084633D01*
X0405818Y0083895D01*
X0405172Y0083249D01*
X0404434Y0082713D01*
X0403620Y0082298D01*
X0402752Y0082016D01*
X0401850Y0081873D01*
X0401398Y0081873D01*
X0401398Y0087669D01*
X0401390Y0087669D02*
X0401390Y0081873D01*
X0400937Y0081873D01*
X0400036Y0082016D01*
X0399167Y0082298D01*
X0398354Y0082713D01*
X0397615Y0083249D01*
X0396970Y0083895D01*
X0396433Y0084633D01*
X0396019Y0085447D01*
X0395737Y0086315D01*
X0395594Y0087217D01*
X0395594Y0087669D01*
X0401390Y0087669D01*
X0401390Y0087672D02*
X0341233Y0087672D01*
X0340799Y0085674D02*
X0395945Y0085674D01*
X0397189Y0083675D02*
X0339645Y0083675D01*
X0341268Y0079678D02*
X0403658Y0079678D01*
X0401450Y0077680D02*
X0343235Y0077680D01*
X0344389Y0075681D02*
X0400161Y0075681D01*
X0399377Y0073682D02*
X0345052Y0073682D01*
X0345370Y0071684D02*
X0398953Y0071684D01*
X0398953Y0069685D02*
X0345370Y0069685D01*
X0344851Y0067687D02*
X0399366Y0067687D01*
X0400139Y0065688D02*
X0343956Y0065688D01*
X0342518Y0063690D02*
X0401411Y0063690D01*
X0418306Y0063690D02*
X0467159Y0063690D01*
X0465887Y0065688D02*
X0419577Y0065688D01*
X0420350Y0067687D02*
X0465114Y0067687D01*
X0464701Y0069685D02*
X0420764Y0069685D01*
X0420764Y0071684D02*
X0464701Y0071684D01*
X0465125Y0073682D02*
X0420340Y0073682D01*
X0419555Y0075681D02*
X0465909Y0075681D01*
X0467198Y0077680D02*
X0418267Y0077680D01*
X0416059Y0079678D02*
X0469406Y0079678D01*
X0469050Y0081677D02*
X0463658Y0081677D01*
X0466023Y0083675D02*
X0466686Y0083675D01*
X0457239Y0081677D02*
X0451847Y0081677D01*
X0454212Y0083675D02*
X0454875Y0083675D01*
X0460449Y0099484D02*
X0460449Y0104602D01*
X0464386Y0108539D01*
X0482890Y0108539D01*
X0484071Y0109720D01*
X0488824Y0109656D02*
X0494074Y0109656D01*
X0497690Y0109656D02*
X0687730Y0109656D01*
X0687730Y0107657D02*
X0488361Y0107657D01*
X0486851Y0105659D02*
X0519710Y0105659D01*
X0519607Y0105616D02*
X0517703Y0103712D01*
X0516672Y0101224D01*
X0516672Y0098532D01*
X0517703Y0096044D01*
X0519607Y0094140D01*
X0521258Y0093456D01*
X0521215Y0093442D01*
X0520401Y0093028D01*
X0519662Y0092491D01*
X0519017Y0091845D01*
X0518480Y0091107D01*
X0518066Y0090293D01*
X0517784Y0089425D01*
X0517641Y0088523D01*
X0517641Y0088071D01*
X0523437Y0088071D01*
X0523437Y0088063D01*
X0517641Y0088063D01*
X0517641Y0087610D01*
X0517784Y0086709D01*
X0518066Y0085840D01*
X0518480Y0085027D01*
X0519017Y0084288D01*
X0519662Y0083643D01*
X0520401Y0083106D01*
X0521215Y0082692D01*
X0522083Y0082410D01*
X0522984Y0082267D01*
X0523437Y0082267D01*
X0523437Y0088063D01*
X0523445Y0088063D01*
X0523445Y0088071D01*
X0529241Y0088071D01*
X0529241Y0088523D01*
X0529098Y0089425D01*
X0528816Y0090293D01*
X0528402Y0091107D01*
X0527865Y0091845D01*
X0527219Y0092491D01*
X0526481Y0093028D01*
X0525667Y0093442D01*
X0525624Y0093456D01*
X0527275Y0094140D01*
X0529179Y0096044D01*
X0530209Y0098532D01*
X0530209Y0101224D01*
X0529179Y0103712D01*
X0527275Y0105616D01*
X0524787Y0106646D01*
X0522095Y0106646D01*
X0519607Y0105616D01*
X0517681Y0103660D02*
X0489467Y0103660D01*
X0490495Y0101662D02*
X0516854Y0101662D01*
X0516672Y0099663D02*
X0490839Y0099663D01*
X0490643Y0097665D02*
X0517032Y0097665D01*
X0518081Y0095666D02*
X0489816Y0095666D01*
X0487715Y0093668D02*
X0520747Y0093668D01*
X0518889Y0091669D02*
X0489647Y0091669D01*
X0490570Y0089671D02*
X0517864Y0089671D01*
X0517641Y0087672D02*
X0490839Y0087672D01*
X0490569Y0085674D02*
X0518151Y0085674D01*
X0519630Y0083675D02*
X0489645Y0083675D01*
X0487280Y0081677D02*
X0520930Y0081677D01*
X0523445Y0082267D02*
X0523897Y0082267D01*
X0524799Y0082410D01*
X0525667Y0082692D01*
X0526481Y0083106D01*
X0527219Y0083643D01*
X0527865Y0084288D01*
X0528402Y0085027D01*
X0528816Y0085840D01*
X0529098Y0086709D01*
X0529241Y0087610D01*
X0529241Y0088063D01*
X0523445Y0088063D01*
X0523445Y0082267D01*
X0523437Y0083675D02*
X0523445Y0083675D01*
X0523437Y0085674D02*
X0523445Y0085674D01*
X0523437Y0087672D02*
X0523445Y0087672D01*
X0527251Y0083675D02*
X0551126Y0083675D01*
X0551159Y0083643D02*
X0551897Y0083106D01*
X0552711Y0082692D01*
X0553579Y0082410D01*
X0554481Y0082267D01*
X0554933Y0082267D01*
X0554933Y0088063D01*
X0549137Y0088063D01*
X0549137Y0087610D01*
X0549280Y0086709D01*
X0549562Y0085840D01*
X0549976Y0085027D01*
X0550513Y0084288D01*
X0551159Y0083643D01*
X0552426Y0081677D02*
X0525952Y0081677D01*
X0530245Y0079678D02*
X0548133Y0079678D01*
X0546167Y0077680D02*
X0532211Y0077680D01*
X0533365Y0075681D02*
X0545013Y0075681D01*
X0544350Y0073682D02*
X0534028Y0073682D01*
X0534346Y0071684D02*
X0544031Y0071684D01*
X0544031Y0069685D02*
X0534346Y0069685D01*
X0533828Y0067687D02*
X0544550Y0067687D01*
X0545445Y0065688D02*
X0532933Y0065688D01*
X0531495Y0063690D02*
X0546883Y0063690D01*
X0562991Y0063690D02*
X0578379Y0063690D01*
X0576941Y0065688D02*
X0564429Y0065688D01*
X0565324Y0067687D02*
X0576046Y0067687D01*
X0575528Y0069685D02*
X0565843Y0069685D01*
X0565843Y0071684D02*
X0575528Y0071684D01*
X0575846Y0073682D02*
X0565524Y0073682D01*
X0564861Y0075681D02*
X0576509Y0075681D01*
X0577663Y0077680D02*
X0563707Y0077680D01*
X0561741Y0079678D02*
X0579629Y0079678D01*
X0583922Y0081677D02*
X0557448Y0081677D01*
X0557163Y0082692D02*
X0557977Y0083106D01*
X0558715Y0083643D01*
X0559361Y0084288D01*
X0559898Y0085027D01*
X0560312Y0085840D01*
X0560594Y0086709D01*
X0560737Y0087610D01*
X0560737Y0088063D01*
X0554941Y0088063D01*
X0554941Y0088071D01*
X0560737Y0088071D01*
X0560737Y0088523D01*
X0560594Y0089425D01*
X0560312Y0090293D01*
X0559898Y0091107D01*
X0559361Y0091845D01*
X0558715Y0092491D01*
X0557977Y0093028D01*
X0557163Y0093442D01*
X0557120Y0093456D01*
X0558771Y0094140D01*
X0560675Y0096044D01*
X0561705Y0098532D01*
X0561705Y0101224D01*
X0560675Y0103712D01*
X0558771Y0105616D01*
X0556283Y0106646D01*
X0553591Y0106646D01*
X0551103Y0105616D01*
X0549199Y0103712D01*
X0548169Y0101224D01*
X0548169Y0098532D01*
X0549199Y0096044D01*
X0551103Y0094140D01*
X0552754Y0093456D01*
X0552711Y0093442D01*
X0551897Y0093028D01*
X0551159Y0092491D01*
X0550513Y0091845D01*
X0549976Y0091107D01*
X0549562Y0090293D01*
X0549280Y0089425D01*
X0549137Y0088523D01*
X0549137Y0088071D01*
X0554933Y0088071D01*
X0554933Y0088063D01*
X0554941Y0088063D01*
X0554941Y0082267D01*
X0555393Y0082267D01*
X0556295Y0082410D01*
X0557163Y0082692D01*
X0558748Y0083675D02*
X0582623Y0083675D01*
X0582655Y0083643D02*
X0583393Y0083106D01*
X0584207Y0082692D01*
X0585075Y0082410D01*
X0585977Y0082267D01*
X0586429Y0082267D01*
X0586429Y0088063D01*
X0580633Y0088063D01*
X0580633Y0087610D01*
X0580776Y0086709D01*
X0581058Y0085840D01*
X0581472Y0085027D01*
X0582009Y0084288D01*
X0582655Y0083643D01*
X0581143Y0085674D02*
X0560227Y0085674D01*
X0560737Y0087672D02*
X0580633Y0087672D01*
X0580633Y0088071D02*
X0586429Y0088071D01*
X0586429Y0088063D01*
X0586437Y0088063D01*
X0586437Y0088071D01*
X0592233Y0088071D01*
X0592233Y0088523D01*
X0592090Y0089425D01*
X0591808Y0090293D01*
X0591394Y0091107D01*
X0590857Y0091845D01*
X0590212Y0092491D01*
X0589473Y0093028D01*
X0588659Y0093442D01*
X0588616Y0093456D01*
X0590267Y0094140D01*
X0592171Y0096044D01*
X0593202Y0098532D01*
X0593202Y0101224D01*
X0592171Y0103712D01*
X0590267Y0105616D01*
X0587779Y0106646D01*
X0585087Y0106646D01*
X0582599Y0105616D01*
X0580695Y0103712D01*
X0579665Y0101224D01*
X0579665Y0098532D01*
X0580695Y0096044D01*
X0582599Y0094140D01*
X0584250Y0093456D01*
X0584207Y0093442D01*
X0583393Y0093028D01*
X0582655Y0092491D01*
X0582009Y0091845D01*
X0581472Y0091107D01*
X0581058Y0090293D01*
X0580776Y0089425D01*
X0580633Y0088523D01*
X0580633Y0088071D01*
X0580856Y0089671D02*
X0560514Y0089671D01*
X0559489Y0091669D02*
X0581881Y0091669D01*
X0583739Y0093668D02*
X0557631Y0093668D01*
X0560297Y0095666D02*
X0581073Y0095666D01*
X0580024Y0097665D02*
X0561346Y0097665D01*
X0561705Y0099663D02*
X0579665Y0099663D01*
X0579846Y0101662D02*
X0561524Y0101662D01*
X0560697Y0103660D02*
X0580674Y0103660D01*
X0582702Y0105659D02*
X0558668Y0105659D01*
X0551206Y0105659D02*
X0527172Y0105659D01*
X0529200Y0103660D02*
X0549177Y0103660D01*
X0548350Y0101662D02*
X0530028Y0101662D01*
X0530209Y0099663D02*
X0548169Y0099663D01*
X0548528Y0097665D02*
X0529850Y0097665D01*
X0528801Y0095666D02*
X0549577Y0095666D01*
X0552243Y0093668D02*
X0526135Y0093668D01*
X0527993Y0091669D02*
X0550385Y0091669D01*
X0549360Y0089671D02*
X0529018Y0089671D01*
X0529241Y0087672D02*
X0549137Y0087672D01*
X0549647Y0085674D02*
X0528731Y0085674D01*
X0516637Y0079678D02*
X0481807Y0079678D01*
X0480861Y0081677D02*
X0475469Y0081677D01*
X0477834Y0083675D02*
X0478497Y0083675D01*
X0484015Y0077680D02*
X0514671Y0077680D01*
X0513517Y0075681D02*
X0485303Y0075681D01*
X0486088Y0073682D02*
X0512854Y0073682D01*
X0512535Y0071684D02*
X0486512Y0071684D01*
X0486512Y0069685D02*
X0512535Y0069685D01*
X0513054Y0067687D02*
X0486098Y0067687D01*
X0485325Y0065688D02*
X0513949Y0065688D01*
X0515387Y0063690D02*
X0484054Y0063690D01*
X0448638Y0099484D02*
X0448638Y0108539D01*
X0452575Y0112476D01*
X0460449Y0112476D01*
X0462811Y0114839D01*
X0495094Y0114839D01*
X0495882Y0114051D01*
X0500363Y0115651D02*
X0688973Y0115651D01*
X0688438Y0113653D02*
X0500635Y0113653D01*
X0500033Y0111654D02*
X0687902Y0111654D01*
X0687730Y0105659D02*
X0653156Y0105659D01*
X0653259Y0105616D02*
X0650772Y0106646D01*
X0648079Y0106646D01*
X0645591Y0105616D01*
X0643687Y0103712D01*
X0642657Y0101224D01*
X0642657Y0098532D01*
X0643687Y0096044D01*
X0645591Y0094140D01*
X0647242Y0093456D01*
X0647199Y0093442D01*
X0646385Y0093028D01*
X0645647Y0092491D01*
X0645001Y0091845D01*
X0644465Y0091107D01*
X0644050Y0090293D01*
X0643768Y0089425D01*
X0643625Y0088523D01*
X0643625Y0088071D01*
X0649421Y0088071D01*
X0649421Y0088063D01*
X0643625Y0088063D01*
X0643625Y0087610D01*
X0643768Y0086709D01*
X0644050Y0085840D01*
X0644465Y0085027D01*
X0645001Y0084288D01*
X0645647Y0083643D01*
X0646385Y0083106D01*
X0647199Y0082692D01*
X0648067Y0082410D01*
X0648969Y0082267D01*
X0649421Y0082267D01*
X0649421Y0088063D01*
X0649429Y0088063D01*
X0649429Y0082267D01*
X0649882Y0082267D01*
X0650783Y0082410D01*
X0651652Y0082692D01*
X0652465Y0083106D01*
X0653204Y0083643D01*
X0653849Y0084288D01*
X0654386Y0085027D01*
X0654800Y0085840D01*
X0655082Y0086709D01*
X0655225Y0087610D01*
X0655225Y0088063D01*
X0649429Y0088063D01*
X0649429Y0088071D01*
X0655225Y0088071D01*
X0655225Y0088523D01*
X0655082Y0089425D01*
X0654800Y0090293D01*
X0654386Y0091107D01*
X0653849Y0091845D01*
X0653204Y0092491D01*
X0652465Y0093028D01*
X0651652Y0093442D01*
X0651608Y0093456D01*
X0653259Y0094140D01*
X0655163Y0096044D01*
X0656194Y0098532D01*
X0656194Y0101224D01*
X0655163Y0103712D01*
X0653259Y0105616D01*
X0655185Y0103660D02*
X0687730Y0103660D01*
X0687730Y0101662D02*
X0656013Y0101662D01*
X0656194Y0099663D02*
X0687730Y0099663D01*
X0687730Y0097665D02*
X0655835Y0097665D01*
X0654785Y0095666D02*
X0687730Y0095666D01*
X0687730Y0093668D02*
X0652119Y0093668D01*
X0653977Y0091669D02*
X0687730Y0091669D01*
X0687730Y0089671D02*
X0655003Y0089671D01*
X0655225Y0087672D02*
X0687730Y0087672D01*
X0687730Y0085674D02*
X0654715Y0085674D01*
X0653236Y0083675D02*
X0687730Y0083675D01*
X0687730Y0081677D02*
X0651936Y0081677D01*
X0649429Y0083675D02*
X0649421Y0083675D01*
X0649421Y0085674D02*
X0649429Y0085674D01*
X0649421Y0087672D02*
X0649429Y0087672D01*
X0645615Y0083675D02*
X0621740Y0083675D01*
X0621708Y0083643D02*
X0622353Y0084288D01*
X0622890Y0085027D01*
X0623304Y0085840D01*
X0623586Y0086709D01*
X0623729Y0087610D01*
X0623729Y0088063D01*
X0617933Y0088063D01*
X0617933Y0082267D01*
X0618386Y0082267D01*
X0619287Y0082410D01*
X0620156Y0082692D01*
X0620969Y0083106D01*
X0621708Y0083643D01*
X0620440Y0081677D02*
X0646915Y0081677D01*
X0642621Y0079678D02*
X0624733Y0079678D01*
X0626699Y0077680D02*
X0640655Y0077680D01*
X0639501Y0075681D02*
X0627853Y0075681D01*
X0628516Y0073682D02*
X0638838Y0073682D01*
X0638520Y0071684D02*
X0628835Y0071684D01*
X0628835Y0069685D02*
X0638520Y0069685D01*
X0639039Y0067687D02*
X0628316Y0067687D01*
X0627421Y0065688D02*
X0639933Y0065688D01*
X0641372Y0063690D02*
X0625983Y0063690D01*
X0609876Y0063690D02*
X0594487Y0063690D01*
X0595925Y0065688D02*
X0608437Y0065688D01*
X0607542Y0067687D02*
X0596820Y0067687D01*
X0597339Y0069685D02*
X0607024Y0069685D01*
X0607024Y0071684D02*
X0597339Y0071684D01*
X0597020Y0073682D02*
X0607342Y0073682D01*
X0608005Y0075681D02*
X0596357Y0075681D01*
X0595203Y0077680D02*
X0609159Y0077680D01*
X0611125Y0079678D02*
X0593237Y0079678D01*
X0588944Y0081677D02*
X0615418Y0081677D01*
X0615703Y0082692D02*
X0616571Y0082410D01*
X0617473Y0082267D01*
X0617925Y0082267D01*
X0617925Y0088063D01*
X0612129Y0088063D01*
X0612129Y0087610D01*
X0612272Y0086709D01*
X0612554Y0085840D01*
X0612969Y0085027D01*
X0613505Y0084288D01*
X0614151Y0083643D01*
X0614889Y0083106D01*
X0615703Y0082692D01*
X0614119Y0083675D02*
X0590244Y0083675D01*
X0590212Y0083643D02*
X0590857Y0084288D01*
X0591394Y0085027D01*
X0591808Y0085840D01*
X0592090Y0086709D01*
X0592233Y0087610D01*
X0592233Y0088063D01*
X0586437Y0088063D01*
X0586437Y0082267D01*
X0586890Y0082267D01*
X0587791Y0082410D01*
X0588659Y0082692D01*
X0589473Y0083106D01*
X0590212Y0083643D01*
X0591723Y0085674D02*
X0612639Y0085674D01*
X0612129Y0087672D02*
X0592233Y0087672D01*
X0592010Y0089671D02*
X0612352Y0089671D01*
X0612272Y0089425D02*
X0612129Y0088523D01*
X0612129Y0088071D01*
X0617925Y0088071D01*
X0617925Y0088063D01*
X0617933Y0088063D01*
X0617933Y0088071D01*
X0623729Y0088071D01*
X0623729Y0088523D01*
X0623586Y0089425D01*
X0623304Y0090293D01*
X0622890Y0091107D01*
X0622353Y0091845D01*
X0621708Y0092491D01*
X0620969Y0093028D01*
X0620156Y0093442D01*
X0620112Y0093456D01*
X0621763Y0094140D01*
X0623667Y0096044D01*
X0624698Y0098532D01*
X0624698Y0101224D01*
X0623667Y0103712D01*
X0621763Y0105616D01*
X0619275Y0106646D01*
X0616583Y0106646D01*
X0614095Y0105616D01*
X0612191Y0103712D01*
X0611161Y0101224D01*
X0611161Y0098532D01*
X0612191Y0096044D01*
X0614095Y0094140D01*
X0615746Y0093456D01*
X0615703Y0093442D01*
X0614889Y0093028D01*
X0614151Y0092491D01*
X0613505Y0091845D01*
X0612969Y0091107D01*
X0612554Y0090293D01*
X0612272Y0089425D01*
X0613377Y0091669D02*
X0590985Y0091669D01*
X0589127Y0093668D02*
X0615235Y0093668D01*
X0612569Y0095666D02*
X0591793Y0095666D01*
X0592842Y0097665D02*
X0611520Y0097665D01*
X0611161Y0099663D02*
X0593202Y0099663D01*
X0593020Y0101662D02*
X0611342Y0101662D01*
X0612170Y0103660D02*
X0592193Y0103660D01*
X0590164Y0105659D02*
X0614198Y0105659D01*
X0621660Y0105659D02*
X0645694Y0105659D01*
X0643666Y0103660D02*
X0623689Y0103660D01*
X0624516Y0101662D02*
X0642838Y0101662D01*
X0642657Y0099663D02*
X0624698Y0099663D01*
X0624338Y0097665D02*
X0643016Y0097665D01*
X0644065Y0095666D02*
X0623289Y0095666D01*
X0620623Y0093668D02*
X0646731Y0093668D01*
X0644873Y0091669D02*
X0622481Y0091669D01*
X0623507Y0089671D02*
X0643848Y0089671D01*
X0643625Y0087672D02*
X0623729Y0087672D01*
X0623219Y0085674D02*
X0644135Y0085674D01*
X0656229Y0079678D02*
X0687730Y0079678D01*
X0687730Y0077680D02*
X0658195Y0077680D01*
X0659349Y0075681D02*
X0687730Y0075681D01*
X0687730Y0073682D02*
X0660012Y0073682D01*
X0660331Y0071684D02*
X0687730Y0071684D01*
X0687730Y0069685D02*
X0660331Y0069685D01*
X0659812Y0067687D02*
X0687730Y0067687D01*
X0687730Y0065688D02*
X0658917Y0065688D01*
X0657479Y0063690D02*
X0687730Y0063690D01*
X0617933Y0083675D02*
X0617925Y0083675D01*
X0617925Y0085674D02*
X0617933Y0085674D01*
X0617925Y0087672D02*
X0617933Y0087672D01*
X0586437Y0087672D02*
X0586429Y0087672D01*
X0586429Y0085674D02*
X0586437Y0085674D01*
X0586429Y0083675D02*
X0586437Y0083675D01*
X0554941Y0083675D02*
X0554933Y0083675D01*
X0554933Y0085674D02*
X0554941Y0085674D01*
X0554933Y0087672D02*
X0554941Y0087672D01*
X0499903Y0117650D02*
X0690085Y0117650D01*
X0691239Y0119648D02*
X0500635Y0119648D01*
X0500489Y0121647D02*
X0693058Y0121647D01*
X0691483Y0120071D02*
X0691483Y0120071D01*
X0694980Y0123568D02*
X0694980Y0123568D01*
X0695113Y0123645D02*
X0499308Y0123645D01*
X0492455Y0123645D02*
X0491976Y0123645D01*
X0491976Y0125644D02*
X0698575Y0125644D01*
X0699262Y0126041D02*
X0699262Y0126041D01*
X0680247Y0140175D02*
X0681002Y0143972D01*
X0680247Y0147770D01*
X0678096Y0150989D01*
X0674876Y0153140D01*
X0671079Y0153896D01*
X0667281Y0153140D01*
X0664062Y0150989D01*
X0661911Y0147770D01*
X0661156Y0143972D01*
X0661911Y0140175D01*
X0664062Y0136956D01*
X0667281Y0134805D01*
X0671079Y0134049D01*
X0674876Y0134805D01*
X0678096Y0136956D01*
X0680247Y0140175D01*
X0679885Y0139633D02*
X0756628Y0139633D01*
X0756628Y0137635D02*
X0678549Y0137635D01*
X0676121Y0135636D02*
X0756628Y0135636D01*
X0756628Y0133638D02*
X0622054Y0133638D01*
X0621958Y0133406D02*
X0622682Y0135153D01*
X0622682Y0137044D01*
X0621958Y0138791D01*
X0620621Y0140128D01*
X0618875Y0140851D01*
X0616984Y0140851D01*
X0615237Y0140128D01*
X0613900Y0138791D01*
X0613176Y0137044D01*
X0613176Y0135153D01*
X0613900Y0133406D01*
X0615237Y0132069D01*
X0616984Y0131346D01*
X0618875Y0131346D01*
X0620621Y0132069D01*
X0621958Y0133406D01*
X0622682Y0135636D02*
X0666036Y0135636D01*
X0663608Y0137635D02*
X0622437Y0137635D01*
X0621116Y0139633D02*
X0662273Y0139633D01*
X0661621Y0141632D02*
X0491976Y0141632D01*
X0491976Y0143630D02*
X0517415Y0143630D01*
X0516812Y0143880D02*
X0518559Y0143157D01*
X0520449Y0143157D01*
X0522196Y0143880D01*
X0523533Y0145217D01*
X0524257Y0146964D01*
X0524257Y0148855D01*
X0523533Y0150602D01*
X0522196Y0151939D01*
X0520449Y0152662D01*
X0518559Y0152662D01*
X0516812Y0151939D01*
X0515475Y0150602D01*
X0514751Y0148855D01*
X0514751Y0146964D01*
X0515475Y0145217D01*
X0516812Y0143880D01*
X0515304Y0145629D02*
X0491976Y0145629D01*
X0491976Y0147627D02*
X0514751Y0147627D01*
X0515071Y0149626D02*
X0491976Y0149626D01*
X0491976Y0151624D02*
X0516498Y0151624D01*
X0522510Y0151624D02*
X0536011Y0151624D01*
X0536011Y0152004D02*
X0536011Y0150114D01*
X0536735Y0148367D01*
X0538072Y0147030D01*
X0539818Y0146306D01*
X0541709Y0146306D01*
X0543456Y0147030D01*
X0543517Y0147091D01*
X0580137Y0147091D01*
X0580198Y0147030D01*
X0581944Y0146306D01*
X0583835Y0146306D01*
X0585582Y0147030D01*
X0585643Y0147091D01*
X0623050Y0147091D01*
X0623111Y0147030D01*
X0624858Y0146306D01*
X0626749Y0146306D01*
X0628495Y0147030D01*
X0629832Y0148367D01*
X0630556Y0150114D01*
X0630556Y0152004D01*
X0629832Y0153751D01*
X0628495Y0155088D01*
X0626749Y0155812D01*
X0624858Y0155812D01*
X0623111Y0155088D01*
X0623050Y0155028D01*
X0622956Y0155028D01*
X0624558Y0155691D01*
X0625895Y0157028D01*
X0626619Y0158775D01*
X0626619Y0160666D01*
X0625895Y0162413D01*
X0624558Y0163750D01*
X0622812Y0164473D01*
X0620921Y0164473D01*
X0619174Y0163750D01*
X0617837Y0162413D01*
X0617113Y0160666D01*
X0617113Y0158775D01*
X0617837Y0157028D01*
X0619174Y0155691D01*
X0620776Y0155028D01*
X0585643Y0155028D01*
X0585582Y0155088D01*
X0583835Y0155812D01*
X0583705Y0155812D01*
X0583705Y0156729D01*
X0582982Y0158476D01*
X0581645Y0159813D01*
X0579898Y0160536D01*
X0578007Y0160536D01*
X0576261Y0159813D01*
X0574924Y0158476D01*
X0574200Y0156729D01*
X0574200Y0155028D01*
X0543517Y0155028D01*
X0543456Y0155088D01*
X0541709Y0155812D01*
X0539818Y0155812D01*
X0538072Y0155088D01*
X0536735Y0153751D01*
X0536011Y0152004D01*
X0536681Y0153623D02*
X0491976Y0153623D01*
X0491976Y0155621D02*
X0533122Y0155621D01*
X0532953Y0155691D02*
X0534700Y0154968D01*
X0536591Y0154968D01*
X0538338Y0155691D01*
X0539675Y0157028D01*
X0540398Y0158775D01*
X0540398Y0160666D01*
X0539675Y0162413D01*
X0538338Y0163750D01*
X0536591Y0164473D01*
X0534700Y0164473D01*
X0532953Y0163750D01*
X0531616Y0162413D01*
X0530893Y0160666D01*
X0530893Y0158775D01*
X0531616Y0157028D01*
X0532953Y0155691D01*
X0531371Y0157620D02*
X0491976Y0157620D01*
X0491976Y0159618D02*
X0530893Y0159618D01*
X0531287Y0161617D02*
X0492307Y0161617D01*
X0492761Y0163615D02*
X0532819Y0163615D01*
X0538472Y0163615D02*
X0619040Y0163615D01*
X0617507Y0161617D02*
X0540004Y0161617D01*
X0540398Y0159618D02*
X0576066Y0159618D01*
X0574569Y0157620D02*
X0539920Y0157620D01*
X0539359Y0155621D02*
X0538169Y0155621D01*
X0542169Y0155621D02*
X0574200Y0155621D01*
X0581839Y0159618D02*
X0617113Y0159618D01*
X0617592Y0157620D02*
X0583336Y0157620D01*
X0584295Y0155621D02*
X0619343Y0155621D01*
X0624390Y0155621D02*
X0624398Y0155621D01*
X0626140Y0157620D02*
X0756628Y0157620D01*
X0756628Y0159618D02*
X0626619Y0159618D01*
X0626225Y0161617D02*
X0756628Y0161617D01*
X0756628Y0163615D02*
X0624693Y0163615D01*
X0620368Y0169611D02*
X0756628Y0169611D01*
X0756628Y0167613D02*
X0490774Y0167613D01*
X0492342Y0165614D02*
X0756628Y0165614D01*
X0756628Y0171610D02*
X0621897Y0171610D01*
X0622288Y0173608D02*
X0693383Y0173608D01*
X0693977Y0173014D02*
X0695724Y0172291D01*
X0697615Y0172291D01*
X0699362Y0173014D01*
X0700698Y0174351D01*
X0701422Y0176098D01*
X0701422Y0177989D01*
X0700698Y0179736D01*
X0699362Y0181072D01*
X0699109Y0181177D01*
X0699362Y0181282D01*
X0700698Y0182619D01*
X0701422Y0184366D01*
X0701422Y0186256D01*
X0700698Y0188003D01*
X0699362Y0189340D01*
X0697615Y0190064D01*
X0695724Y0190064D01*
X0693977Y0189340D01*
X0692640Y0188003D01*
X0691917Y0186256D01*
X0691917Y0184366D01*
X0692640Y0182619D01*
X0693977Y0181282D01*
X0694230Y0181177D01*
X0693977Y0181072D01*
X0692640Y0179736D01*
X0691917Y0177989D01*
X0691917Y0176098D01*
X0692640Y0174351D01*
X0693977Y0173014D01*
X0692120Y0175607D02*
X0621807Y0175607D01*
X0621504Y0177605D02*
X0691917Y0177605D01*
X0692585Y0179604D02*
X0621504Y0179604D01*
X0621504Y0181602D02*
X0693657Y0181602D01*
X0692233Y0183601D02*
X0621504Y0183601D01*
X0621504Y0185599D02*
X0691917Y0185599D01*
X0692472Y0187598D02*
X0645441Y0187598D01*
X0645580Y0187737D02*
X0646304Y0189484D01*
X0646304Y0191375D01*
X0645580Y0193121D01*
X0644243Y0194458D01*
X0642497Y0195182D01*
X0640606Y0195182D01*
X0638859Y0194458D01*
X0637522Y0193121D01*
X0636798Y0191375D01*
X0636798Y0189484D01*
X0637522Y0187737D01*
X0638859Y0186400D01*
X0640606Y0185676D01*
X0642497Y0185676D01*
X0644243Y0186400D01*
X0645580Y0187737D01*
X0646304Y0189596D02*
X0694595Y0189596D01*
X0698744Y0189596D02*
X0706406Y0189596D01*
X0705788Y0189340D02*
X0704451Y0188003D01*
X0703728Y0186256D01*
X0703728Y0184366D01*
X0704451Y0182619D01*
X0705696Y0181374D01*
X0704451Y0180129D01*
X0703728Y0178382D01*
X0703728Y0176492D01*
X0704451Y0174745D01*
X0705788Y0173408D01*
X0707535Y0172684D01*
X0709426Y0172684D01*
X0711173Y0173408D01*
X0712509Y0174745D01*
X0713233Y0176492D01*
X0713233Y0178382D01*
X0712509Y0180129D01*
X0711265Y0181374D01*
X0712509Y0182619D01*
X0713233Y0184366D01*
X0713233Y0186256D01*
X0712509Y0188003D01*
X0711173Y0189340D01*
X0709426Y0190064D01*
X0707535Y0190064D01*
X0705788Y0189340D01*
X0704283Y0187598D02*
X0700866Y0187598D01*
X0701422Y0185599D02*
X0703728Y0185599D01*
X0704044Y0183601D02*
X0701105Y0183601D01*
X0699682Y0181602D02*
X0705468Y0181602D01*
X0704233Y0179604D02*
X0700753Y0179604D01*
X0701422Y0177605D02*
X0703728Y0177605D01*
X0704094Y0175607D02*
X0701219Y0175607D01*
X0699955Y0173608D02*
X0705588Y0173608D01*
X0711373Y0173608D02*
X0717399Y0173608D01*
X0717599Y0173408D02*
X0719346Y0172684D01*
X0721237Y0172684D01*
X0722984Y0173408D01*
X0724321Y0174745D01*
X0725044Y0176492D01*
X0725044Y0178382D01*
X0724321Y0180129D01*
X0723076Y0181374D01*
X0724321Y0182619D01*
X0725044Y0184366D01*
X0725044Y0186256D01*
X0724321Y0188003D01*
X0722984Y0189340D01*
X0721237Y0190064D01*
X0719346Y0190064D01*
X0717599Y0189340D01*
X0716262Y0188003D01*
X0715539Y0186256D01*
X0715539Y0184366D01*
X0716262Y0182619D01*
X0717507Y0181374D01*
X0716262Y0180129D01*
X0715539Y0178382D01*
X0715539Y0176492D01*
X0716262Y0174745D01*
X0717599Y0173408D01*
X0715905Y0175607D02*
X0712866Y0175607D01*
X0713233Y0177605D02*
X0715539Y0177605D01*
X0716044Y0179604D02*
X0712727Y0179604D01*
X0711493Y0181602D02*
X0717279Y0181602D01*
X0715855Y0183601D02*
X0712916Y0183601D01*
X0713233Y0185599D02*
X0715539Y0185599D01*
X0716094Y0187598D02*
X0712678Y0187598D01*
X0710555Y0189596D02*
X0718217Y0189596D01*
X0717300Y0190401D02*
X0719047Y0191124D01*
X0720384Y0192461D01*
X0721107Y0194208D01*
X0721107Y0196099D01*
X0720384Y0197846D01*
X0719139Y0199091D01*
X0720384Y0200335D01*
X0721107Y0202082D01*
X0721107Y0203973D01*
X0720384Y0205720D01*
X0719047Y0207057D01*
X0717300Y0207780D01*
X0717170Y0207780D01*
X0717170Y0207910D01*
X0716447Y0209657D01*
X0715110Y0210994D01*
X0713363Y0211717D01*
X0711472Y0211717D01*
X0709725Y0210994D01*
X0708388Y0209657D01*
X0707665Y0207910D01*
X0707665Y0206019D01*
X0708388Y0204272D01*
X0709725Y0202935D01*
X0711472Y0202212D01*
X0711602Y0202212D01*
X0711602Y0202082D01*
X0712325Y0200335D01*
X0713570Y0199091D01*
X0712325Y0197846D01*
X0711602Y0196099D01*
X0711602Y0194208D01*
X0712325Y0192461D01*
X0713662Y0191124D01*
X0715409Y0190401D01*
X0717300Y0190401D01*
X0719517Y0191595D02*
X0756628Y0191595D01*
X0756628Y0193593D02*
X0720852Y0193593D01*
X0721107Y0195592D02*
X0756628Y0195592D01*
X0756628Y0197590D02*
X0720489Y0197590D01*
X0719637Y0199589D02*
X0756628Y0199589D01*
X0756628Y0201587D02*
X0720902Y0201587D01*
X0721107Y0203586D02*
X0756628Y0203586D01*
X0756628Y0205584D02*
X0720440Y0205584D01*
X0717777Y0207583D02*
X0756628Y0207583D01*
X0756628Y0209581D02*
X0716478Y0209581D01*
X0713695Y0211580D02*
X0756628Y0211580D01*
X0756628Y0213578D02*
X0586071Y0213578D01*
X0586071Y0211580D02*
X0711140Y0211580D01*
X0708357Y0209581D02*
X0586602Y0209581D01*
X0582102Y0210508D02*
X0582102Y0225469D01*
X0586461Y0223571D02*
X0696638Y0223571D01*
X0696638Y0225569D02*
X0592415Y0225569D01*
X0589900Y0225569D02*
X0586855Y0225569D01*
X0586071Y0221572D02*
X0696783Y0221572D01*
X0698133Y0219574D02*
X0586071Y0219574D01*
X0586071Y0217575D02*
X0700131Y0217575D01*
X0702130Y0215577D02*
X0586071Y0215577D01*
X0582102Y0210508D02*
X0578559Y0206965D01*
X0578559Y0203028D01*
X0582496Y0199091D01*
X0579274Y0195592D02*
X0577845Y0195592D01*
X0574622Y0199091D02*
X0572260Y0201453D01*
X0572260Y0225469D01*
X0567902Y0223571D02*
X0555856Y0223571D01*
X0555926Y0225569D02*
X0567507Y0225569D01*
X0568291Y0221572D02*
X0556146Y0221572D01*
X0555564Y0219574D02*
X0568291Y0219574D01*
X0551394Y0221925D02*
X0551394Y0226650D01*
X0554937Y0230193D01*
X0591157Y0230193D01*
X0594508Y0233563D02*
X0696638Y0233563D01*
X0696638Y0231565D02*
X0595734Y0231565D01*
X0595910Y0229566D02*
X0696638Y0229566D01*
X0696638Y0227568D02*
X0595214Y0227568D01*
X0616624Y0207583D02*
X0707665Y0207583D01*
X0707845Y0205584D02*
X0618623Y0205584D01*
X0620621Y0203586D02*
X0630141Y0203586D01*
X0630763Y0203843D02*
X0629016Y0203120D01*
X0627679Y0201783D01*
X0626956Y0200036D01*
X0626956Y0198145D01*
X0627679Y0196398D01*
X0629016Y0195061D01*
X0629744Y0194760D01*
X0629016Y0194458D01*
X0627679Y0193121D01*
X0626956Y0191375D01*
X0626956Y0189484D01*
X0627679Y0187737D01*
X0629016Y0186400D01*
X0630763Y0185676D01*
X0632654Y0185676D01*
X0634401Y0186400D01*
X0635738Y0187737D01*
X0636461Y0189484D01*
X0636461Y0191375D01*
X0635738Y0193121D01*
X0634401Y0194458D01*
X0633673Y0194760D01*
X0634401Y0195061D01*
X0635738Y0196398D01*
X0636461Y0198145D01*
X0636461Y0200036D01*
X0635738Y0201783D01*
X0634401Y0203120D01*
X0632654Y0203843D01*
X0630763Y0203843D01*
X0633276Y0203586D02*
X0709075Y0203586D01*
X0711807Y0201587D02*
X0635819Y0201587D01*
X0636461Y0199589D02*
X0713072Y0199589D01*
X0712219Y0197590D02*
X0636232Y0197590D01*
X0634931Y0195592D02*
X0711602Y0195592D01*
X0711856Y0193593D02*
X0645109Y0193593D01*
X0646213Y0191595D02*
X0713192Y0191595D01*
X0722366Y0189596D02*
X0756628Y0189596D01*
X0756628Y0187598D02*
X0724489Y0187598D01*
X0725044Y0185599D02*
X0756628Y0185599D01*
X0756628Y0183601D02*
X0724727Y0183601D01*
X0723304Y0181602D02*
X0756628Y0181602D01*
X0756628Y0179604D02*
X0724538Y0179604D01*
X0725044Y0177605D02*
X0756628Y0177605D01*
X0756628Y0175607D02*
X0724677Y0175607D01*
X0723184Y0173608D02*
X0756628Y0173608D01*
X0756628Y0155621D02*
X0627208Y0155621D01*
X0629885Y0153623D02*
X0669708Y0153623D01*
X0672450Y0153623D02*
X0756628Y0153623D01*
X0756628Y0151624D02*
X0677145Y0151624D01*
X0679006Y0149626D02*
X0756628Y0149626D01*
X0756628Y0147627D02*
X0680275Y0147627D01*
X0680672Y0145629D02*
X0756628Y0145629D01*
X0756628Y0143630D02*
X0680934Y0143630D01*
X0680536Y0141632D02*
X0756628Y0141632D01*
X0756628Y0131639D02*
X0619583Y0131639D01*
X0616275Y0131639D02*
X0603835Y0131639D01*
X0603126Y0131346D02*
X0604873Y0132069D01*
X0606210Y0133406D01*
X0606934Y0135153D01*
X0606934Y0137044D01*
X0606210Y0138791D01*
X0604873Y0140128D01*
X0603126Y0140851D01*
X0601236Y0140851D01*
X0599489Y0140128D01*
X0598152Y0138791D01*
X0597428Y0137044D01*
X0597428Y0135153D01*
X0598152Y0133406D01*
X0599489Y0132069D01*
X0601236Y0131346D01*
X0603126Y0131346D01*
X0600527Y0131639D02*
X0588131Y0131639D01*
X0587348Y0131315D02*
X0589094Y0132038D01*
X0590431Y0133375D01*
X0591155Y0135122D01*
X0591155Y0137013D01*
X0590431Y0138760D01*
X0589094Y0140097D01*
X0587348Y0140820D01*
X0585457Y0140820D01*
X0583710Y0140097D01*
X0582373Y0138760D01*
X0581649Y0137013D01*
X0581649Y0135122D01*
X0582373Y0133375D01*
X0583710Y0132038D01*
X0585457Y0131315D01*
X0587348Y0131315D01*
X0584673Y0131639D02*
X0572339Y0131639D01*
X0571630Y0131346D02*
X0573377Y0132069D01*
X0574714Y0133406D01*
X0575438Y0135153D01*
X0575438Y0137044D01*
X0574714Y0138791D01*
X0573377Y0140128D01*
X0571630Y0140851D01*
X0569740Y0140851D01*
X0567993Y0140128D01*
X0566656Y0138791D01*
X0565932Y0137044D01*
X0565932Y0135153D01*
X0566656Y0133406D01*
X0567993Y0132069D01*
X0569740Y0131346D01*
X0571630Y0131346D01*
X0569031Y0131639D02*
X0556591Y0131639D01*
X0555882Y0131346D02*
X0557629Y0132069D01*
X0558966Y0133406D01*
X0559690Y0135153D01*
X0559690Y0137044D01*
X0558966Y0138791D01*
X0557629Y0140128D01*
X0555882Y0140851D01*
X0553992Y0140851D01*
X0552245Y0140128D01*
X0550908Y0138791D01*
X0550184Y0137044D01*
X0550184Y0135153D01*
X0550908Y0133406D01*
X0552245Y0132069D01*
X0553992Y0131346D01*
X0555882Y0131346D01*
X0553283Y0131639D02*
X0491976Y0131639D01*
X0491976Y0129641D02*
X0756628Y0129641D01*
X0756628Y0127642D02*
X0491976Y0127642D01*
X0491976Y0133638D02*
X0550812Y0133638D01*
X0550184Y0135636D02*
X0491976Y0135636D01*
X0491976Y0137635D02*
X0550429Y0137635D01*
X0551751Y0139633D02*
X0491976Y0139633D01*
X0484039Y0139220D02*
X0484039Y0123103D01*
X0483979Y0123043D01*
X0483255Y0121296D01*
X0483255Y0119405D01*
X0483503Y0118807D01*
X0480702Y0118807D01*
X0480950Y0119405D01*
X0480950Y0121296D01*
X0480226Y0123043D01*
X0478889Y0124380D01*
X0477142Y0125103D01*
X0475251Y0125103D01*
X0473505Y0124380D01*
X0472291Y0123166D01*
X0472291Y0148699D01*
X0471687Y0150157D01*
X0466093Y0155752D01*
X0474553Y0155752D01*
X0480102Y0150203D01*
X0480102Y0146725D01*
X0480042Y0146665D01*
X0479318Y0144918D01*
X0479318Y0143027D01*
X0480042Y0141280D01*
X0481379Y0139943D01*
X0483125Y0139220D01*
X0484039Y0139220D01*
X0484039Y0137635D02*
X0472291Y0137635D01*
X0472291Y0139633D02*
X0482127Y0139633D01*
X0479896Y0141632D02*
X0472291Y0141632D01*
X0472291Y0143630D02*
X0479318Y0143630D01*
X0479613Y0145629D02*
X0472291Y0145629D01*
X0472291Y0147627D02*
X0480102Y0147627D01*
X0480102Y0149626D02*
X0471907Y0149626D01*
X0470220Y0151624D02*
X0478681Y0151624D01*
X0476682Y0153623D02*
X0468222Y0153623D01*
X0466223Y0155621D02*
X0474684Y0155621D01*
X0476197Y0159720D02*
X0432890Y0159720D01*
X0428953Y0155783D01*
X0409268Y0155783D01*
X0397457Y0167594D01*
X0397457Y0210902D01*
X0393520Y0212476D02*
X0415567Y0234524D01*
X0431315Y0234524D01*
X0452575Y0226650D02*
X0464386Y0238461D01*
X0464354Y0251550D02*
X0354937Y0251550D01*
X0354937Y0253548D02*
X0464354Y0253548D01*
X0464354Y0255547D02*
X0354937Y0255547D01*
X0354937Y0257546D02*
X0464354Y0257546D01*
X0464354Y0259544D02*
X0354937Y0259544D01*
X0354937Y0261543D02*
X0464354Y0261543D01*
X0464354Y0263541D02*
X0354937Y0263541D01*
X0354937Y0265540D02*
X0464354Y0265540D01*
X0464354Y0267538D02*
X0354937Y0267538D01*
X0354937Y0269537D02*
X0399493Y0269537D01*
X0398701Y0269865D02*
X0400448Y0269141D01*
X0402339Y0269141D01*
X0404086Y0269865D01*
X0405423Y0271201D01*
X0406146Y0272948D01*
X0406146Y0274839D01*
X0405423Y0276586D01*
X0404086Y0277923D01*
X0402339Y0278646D01*
X0400448Y0278646D01*
X0398701Y0277923D01*
X0397365Y0276586D01*
X0396641Y0274839D01*
X0396641Y0272948D01*
X0397365Y0271201D01*
X0398701Y0269865D01*
X0397226Y0271535D02*
X0354937Y0271535D01*
X0354937Y0273534D02*
X0396641Y0273534D01*
X0396928Y0275532D02*
X0354937Y0275532D01*
X0354937Y0277531D02*
X0398309Y0277531D01*
X0404478Y0277531D02*
X0464354Y0277531D01*
X0464354Y0279529D02*
X0354937Y0279529D01*
X0354937Y0281528D02*
X0464354Y0281528D01*
X0464354Y0283526D02*
X0354937Y0283526D01*
X0354937Y0285525D02*
X0464354Y0285525D01*
X0464354Y0287523D02*
X0354937Y0287523D01*
X0354937Y0289522D02*
X0464354Y0289522D01*
X0464354Y0291520D02*
X0354937Y0291520D01*
X0354937Y0293519D02*
X0464354Y0293519D01*
X0464354Y0295517D02*
X0354937Y0295517D01*
X0354937Y0297516D02*
X0402546Y0297516D01*
X0402638Y0297424D02*
X0404385Y0296700D01*
X0406276Y0296700D01*
X0408023Y0297424D01*
X0409360Y0298761D01*
X0410083Y0300507D01*
X0410083Y0302398D01*
X0409360Y0304145D01*
X0408023Y0305482D01*
X0406276Y0306205D01*
X0404385Y0306205D01*
X0402638Y0305482D01*
X0401302Y0304145D01*
X0400578Y0302398D01*
X0400578Y0300507D01*
X0401302Y0298761D01*
X0402638Y0297424D01*
X0400989Y0299514D02*
X0354937Y0299514D01*
X0354937Y0301513D02*
X0400578Y0301513D01*
X0401039Y0303511D02*
X0354937Y0303511D01*
X0354937Y0305510D02*
X0402706Y0305510D01*
X0407956Y0305510D02*
X0464354Y0305510D01*
X0464354Y0307508D02*
X0354937Y0307508D01*
X0354937Y0309507D02*
X0464354Y0309507D01*
X0464354Y0311505D02*
X0354937Y0311505D01*
X0354937Y0313504D02*
X0464354Y0313504D01*
X0464955Y0315502D02*
X0354937Y0315502D01*
X0354937Y0317501D02*
X0466948Y0317501D01*
X0468946Y0319499D02*
X0354937Y0319499D01*
X0354937Y0321498D02*
X0518189Y0321498D01*
X0519472Y0323496D02*
X0354937Y0323496D01*
X0354937Y0325495D02*
X0519472Y0325495D01*
X0519472Y0327493D02*
X0354937Y0327493D01*
X0354937Y0329492D02*
X0519472Y0329492D01*
X0519472Y0331490D02*
X0354937Y0331490D01*
X0354937Y0333489D02*
X0519472Y0333489D01*
X0519472Y0335487D02*
X0354937Y0335487D01*
X0354937Y0337486D02*
X0519472Y0337486D01*
X0519472Y0339484D02*
X0354937Y0339484D01*
X0354937Y0341483D02*
X0421571Y0341483D01*
X0420987Y0342068D02*
X0422324Y0340731D01*
X0424070Y0340007D01*
X0425961Y0340007D01*
X0427708Y0340731D01*
X0428953Y0341975D01*
X0430198Y0340731D01*
X0431944Y0340007D01*
X0433835Y0340007D01*
X0435582Y0340731D01*
X0436827Y0341975D01*
X0438072Y0340731D01*
X0439818Y0340007D01*
X0441709Y0340007D01*
X0443456Y0340731D01*
X0444701Y0341975D01*
X0445946Y0340731D01*
X0447692Y0340007D01*
X0449583Y0340007D01*
X0451330Y0340731D01*
X0452667Y0342068D01*
X0453391Y0343814D01*
X0453391Y0345705D01*
X0452667Y0347452D01*
X0451422Y0348697D01*
X0452667Y0349942D01*
X0453391Y0351688D01*
X0453391Y0353579D01*
X0452667Y0355326D01*
X0451330Y0356663D01*
X0449583Y0357387D01*
X0447692Y0357387D01*
X0445946Y0356663D01*
X0444701Y0355418D01*
X0443456Y0356663D01*
X0442802Y0356934D01*
X0455939Y0370071D01*
X0456543Y0371530D01*
X0456543Y0396730D01*
X0455939Y0398189D01*
X0454823Y0399305D01*
X0450886Y0403242D01*
X0449427Y0403846D01*
X0424226Y0403846D01*
X0422768Y0403242D01*
X0421651Y0402126D01*
X0417714Y0398189D01*
X0417110Y0396730D01*
X0417110Y0385774D01*
X0415498Y0384161D01*
X0388793Y0384161D01*
X0387335Y0383557D01*
X0386218Y0382441D01*
X0382281Y0378504D01*
X0381677Y0377045D01*
X0381677Y0359718D01*
X0382281Y0358260D01*
X0383398Y0357144D01*
X0387335Y0353207D01*
X0388793Y0352602D01*
X0420263Y0352602D01*
X0420263Y0351688D01*
X0420987Y0349942D01*
X0422231Y0348697D01*
X0420987Y0347452D01*
X0420263Y0345705D01*
X0420263Y0343814D01*
X0420987Y0342068D01*
X0420401Y0343482D02*
X0354937Y0343482D01*
X0354937Y0345480D02*
X0420263Y0345480D01*
X0421013Y0347479D02*
X0354937Y0347479D01*
X0354937Y0349477D02*
X0421451Y0349477D01*
X0420351Y0351476D02*
X0354937Y0351476D01*
X0354937Y0353474D02*
X0387067Y0353474D01*
X0385069Y0355473D02*
X0354937Y0355473D01*
X0354937Y0357471D02*
X0383070Y0357471D01*
X0381780Y0359470D02*
X0354937Y0359470D01*
X0354937Y0361468D02*
X0381677Y0361468D01*
X0381677Y0363467D02*
X0354937Y0363467D01*
X0354937Y0365465D02*
X0381677Y0365465D01*
X0381677Y0367464D02*
X0354937Y0367464D01*
X0354937Y0369462D02*
X0381677Y0369462D01*
X0381677Y0371461D02*
X0354937Y0371461D01*
X0354937Y0373459D02*
X0381677Y0373459D01*
X0381677Y0375458D02*
X0354937Y0375458D01*
X0354937Y0377456D02*
X0381847Y0377456D01*
X0383232Y0379455D02*
X0354937Y0379455D01*
X0354937Y0381453D02*
X0385231Y0381453D01*
X0386218Y0382441D02*
X0386218Y0382441D01*
X0387229Y0383452D02*
X0354937Y0383452D01*
X0354937Y0385450D02*
X0416787Y0385450D01*
X0417110Y0387449D02*
X0354937Y0387449D01*
X0354937Y0389447D02*
X0417110Y0389447D01*
X0417110Y0391446D02*
X0354937Y0391446D01*
X0354937Y0393444D02*
X0386992Y0393444D01*
X0386890Y0393487D02*
X0388637Y0392763D01*
X0390528Y0392763D01*
X0392275Y0393487D01*
X0393612Y0394824D01*
X0394335Y0396570D01*
X0394335Y0398461D01*
X0393612Y0400208D01*
X0393154Y0400665D01*
X0393520Y0401031D01*
X0394764Y0399786D01*
X0396511Y0399062D01*
X0398402Y0399062D01*
X0400149Y0399786D01*
X0401486Y0401123D01*
X0402209Y0402870D01*
X0402209Y0404760D01*
X0401486Y0406507D01*
X0400241Y0407752D01*
X0401486Y0408997D01*
X0402209Y0410744D01*
X0402209Y0412634D01*
X0401486Y0414381D01*
X0400149Y0415718D01*
X0398402Y0416442D01*
X0396511Y0416442D01*
X0394764Y0415718D01*
X0393520Y0414473D01*
X0392275Y0415718D01*
X0390528Y0416442D01*
X0388637Y0416442D01*
X0386890Y0415718D01*
X0385553Y0414381D01*
X0384830Y0412634D01*
X0384830Y0410744D01*
X0385553Y0408997D01*
X0386798Y0407752D01*
X0385553Y0406507D01*
X0384830Y0404760D01*
X0384830Y0402870D01*
X0385553Y0401123D01*
X0386011Y0400665D01*
X0385553Y0400208D01*
X0384830Y0398461D01*
X0384830Y0396570D01*
X0385553Y0394824D01*
X0386890Y0393487D01*
X0385297Y0395443D02*
X0354937Y0395443D01*
X0354937Y0397441D02*
X0384830Y0397441D01*
X0385235Y0399440D02*
X0354937Y0399440D01*
X0354937Y0401438D02*
X0385423Y0401438D01*
X0384830Y0403437D02*
X0354937Y0403437D01*
X0354937Y0405435D02*
X0385110Y0405435D01*
X0386480Y0407434D02*
X0354937Y0407434D01*
X0354937Y0409432D02*
X0385373Y0409432D01*
X0384830Y0411431D02*
X0354937Y0411431D01*
X0354937Y0413429D02*
X0385159Y0413429D01*
X0386600Y0415428D02*
X0354937Y0415428D01*
X0354937Y0417426D02*
X0552604Y0417426D01*
X0553024Y0415428D02*
X0400439Y0415428D01*
X0401880Y0413429D02*
X0543191Y0413429D01*
X0541193Y0411431D02*
X0402209Y0411431D01*
X0401666Y0409432D02*
X0539194Y0409432D01*
X0537196Y0407434D02*
X0400559Y0407434D01*
X0401930Y0405435D02*
X0535197Y0405435D01*
X0533199Y0403437D02*
X0450416Y0403437D01*
X0452690Y0401438D02*
X0531200Y0401438D01*
X0529202Y0399440D02*
X0454688Y0399440D01*
X0456249Y0397441D02*
X0527203Y0397441D01*
X0525205Y0395443D02*
X0456543Y0395443D01*
X0456543Y0393444D02*
X0523206Y0393444D01*
X0521207Y0391446D02*
X0456543Y0391446D01*
X0456543Y0389447D02*
X0519717Y0389447D01*
X0519472Y0387449D02*
X0456543Y0387449D01*
X0456543Y0385450D02*
X0519472Y0385450D01*
X0519472Y0383452D02*
X0456543Y0383452D01*
X0456543Y0381453D02*
X0519472Y0381453D01*
X0519472Y0379455D02*
X0456543Y0379455D01*
X0456543Y0377456D02*
X0519472Y0377456D01*
X0519472Y0375458D02*
X0456543Y0375458D01*
X0456543Y0373459D02*
X0519472Y0373459D01*
X0519472Y0371461D02*
X0456515Y0371461D01*
X0455330Y0369462D02*
X0519472Y0369462D01*
X0519472Y0367464D02*
X0453332Y0367464D01*
X0451333Y0365465D02*
X0519472Y0365465D01*
X0519472Y0363467D02*
X0449335Y0363467D01*
X0447336Y0361468D02*
X0519472Y0361468D01*
X0519472Y0359470D02*
X0445338Y0359470D01*
X0443339Y0357471D02*
X0519472Y0357471D01*
X0519472Y0355473D02*
X0452520Y0355473D01*
X0453391Y0353474D02*
X0519472Y0353474D01*
X0519472Y0351476D02*
X0453302Y0351476D01*
X0452202Y0349477D02*
X0519472Y0349477D01*
X0519472Y0347479D02*
X0452641Y0347479D01*
X0453391Y0345480D02*
X0519472Y0345480D01*
X0519472Y0343482D02*
X0453253Y0343482D01*
X0452082Y0341483D02*
X0519472Y0341483D01*
X0523441Y0321138D02*
X0523441Y0388067D01*
X0546591Y0411217D01*
X0558244Y0411217D01*
X0551769Y0419425D02*
X0354937Y0419425D01*
X0354937Y0421423D02*
X0551576Y0421423D01*
X0551939Y0423422D02*
X0354937Y0423422D01*
X0354937Y0425420D02*
X0553017Y0425420D01*
X0552612Y0427419D02*
X0354937Y0427419D01*
X0354937Y0429417D02*
X0522073Y0429417D01*
X0524809Y0429417D02*
X0551772Y0429417D01*
X0551576Y0431416D02*
X0527987Y0431416D01*
X0529116Y0433415D02*
X0551936Y0433415D01*
X0553009Y0435413D02*
X0529409Y0435413D01*
X0529031Y0437412D02*
X0552619Y0437412D01*
X0551775Y0439410D02*
X0528107Y0439410D01*
X0529165Y0441409D02*
X0551576Y0441409D01*
X0551933Y0443407D02*
X0529409Y0443407D01*
X0528981Y0445406D02*
X0553002Y0445406D01*
X0552627Y0447404D02*
X0528227Y0447404D01*
X0529215Y0449403D02*
X0551778Y0449403D01*
X0551576Y0451401D02*
X0529409Y0451401D01*
X0528932Y0453400D02*
X0551930Y0453400D01*
X0552994Y0455398D02*
X0528347Y0455398D01*
X0529265Y0457397D02*
X0555737Y0457397D01*
X0529409Y0459395D02*
X0666036Y0459395D01*
X0659267Y0441217D02*
X0665173Y0435311D01*
X0665173Y0423500D01*
X0660420Y0423422D02*
X0643518Y0423422D01*
X0643944Y0421423D02*
X0660889Y0421423D01*
X0662592Y0419425D02*
X0643655Y0419425D01*
X0642514Y0417426D02*
X0738415Y0417426D01*
X0738145Y0416773D02*
X0738145Y0414479D01*
X0739023Y0412358D01*
X0739692Y0411689D01*
X0739023Y0411020D01*
X0738145Y0408899D01*
X0738145Y0406605D01*
X0739023Y0404484D01*
X0739692Y0403815D01*
X0739023Y0403146D01*
X0738145Y0401025D01*
X0738145Y0398731D01*
X0739023Y0396610D01*
X0740646Y0394988D01*
X0742766Y0394109D01*
X0745061Y0394109D01*
X0747181Y0394988D01*
X0748804Y0396610D01*
X0749682Y0398731D01*
X0749682Y0401025D01*
X0748804Y0403146D01*
X0748134Y0403815D01*
X0748804Y0404484D01*
X0749682Y0406605D01*
X0749682Y0408899D01*
X0748804Y0411020D01*
X0748134Y0411689D01*
X0748804Y0412358D01*
X0749682Y0414479D01*
X0749682Y0416773D01*
X0748804Y0418894D01*
X0747449Y0420248D01*
X0747575Y0420373D01*
X0748019Y0420984D01*
X0748362Y0421657D01*
X0748595Y0422376D01*
X0748713Y0423122D01*
X0748713Y0423500D01*
X0748713Y0423878D01*
X0748595Y0424624D01*
X0748362Y0425343D01*
X0748019Y0426016D01*
X0747575Y0426627D01*
X0747040Y0427161D01*
X0746429Y0427605D01*
X0745756Y0427948D01*
X0745037Y0428182D01*
X0744291Y0428300D01*
X0743913Y0428300D01*
X0743536Y0428300D01*
X0742789Y0428182D01*
X0742071Y0427948D01*
X0741398Y0427605D01*
X0740786Y0427161D01*
X0740252Y0426627D01*
X0739808Y0426016D01*
X0739465Y0425343D01*
X0739232Y0424624D01*
X0739113Y0423878D01*
X0739113Y0423500D01*
X0739113Y0423122D01*
X0739232Y0422376D01*
X0739465Y0421657D01*
X0739808Y0420984D01*
X0740252Y0420373D01*
X0740377Y0420248D01*
X0739023Y0418894D01*
X0738145Y0416773D01*
X0738145Y0415428D02*
X0643464Y0415428D01*
X0644546Y0413429D02*
X0738579Y0413429D01*
X0739434Y0411431D02*
X0644913Y0411431D01*
X0644723Y0409432D02*
X0738366Y0409432D01*
X0738145Y0407434D02*
X0643891Y0407434D01*
X0643457Y0405435D02*
X0738629Y0405435D01*
X0739314Y0403437D02*
X0698723Y0403437D01*
X0700721Y0401438D02*
X0738316Y0401438D01*
X0738145Y0399440D02*
X0702720Y0399440D01*
X0704718Y0397441D02*
X0738679Y0397441D01*
X0740191Y0395443D02*
X0706717Y0395443D01*
X0708715Y0393444D02*
X0756628Y0393444D01*
X0756628Y0391446D02*
X0710714Y0391446D01*
X0712642Y0389447D02*
X0756628Y0389447D01*
X0756628Y0387449D02*
X0713197Y0387449D01*
X0713197Y0385450D02*
X0756628Y0385450D01*
X0756628Y0383452D02*
X0713197Y0383452D01*
X0713197Y0381453D02*
X0756628Y0381453D01*
X0756628Y0379455D02*
X0713197Y0379455D01*
X0713197Y0377456D02*
X0756628Y0377456D01*
X0756628Y0375458D02*
X0713197Y0375458D01*
X0713197Y0373459D02*
X0756628Y0373459D01*
X0756628Y0371461D02*
X0713197Y0371461D01*
X0713197Y0369462D02*
X0756628Y0369462D01*
X0756628Y0367464D02*
X0713197Y0367464D01*
X0713197Y0365465D02*
X0756628Y0365465D01*
X0756628Y0363467D02*
X0713197Y0363467D01*
X0713197Y0361468D02*
X0756628Y0361468D01*
X0756628Y0359470D02*
X0713197Y0359470D01*
X0713197Y0357471D02*
X0756628Y0357471D01*
X0756628Y0355473D02*
X0713197Y0355473D01*
X0713197Y0353474D02*
X0756628Y0353474D01*
X0756628Y0351476D02*
X0713197Y0351476D01*
X0713197Y0349477D02*
X0756628Y0349477D01*
X0756628Y0347479D02*
X0713197Y0347479D01*
X0713197Y0345480D02*
X0756628Y0345480D01*
X0756628Y0343482D02*
X0713197Y0343482D01*
X0713197Y0341483D02*
X0756628Y0341483D01*
X0756628Y0339484D02*
X0713197Y0339484D01*
X0713197Y0337486D02*
X0756628Y0337486D01*
X0756628Y0335487D02*
X0713197Y0335487D01*
X0713197Y0333489D02*
X0756628Y0333489D01*
X0756628Y0331490D02*
X0713197Y0331490D01*
X0713197Y0329492D02*
X0756628Y0329492D01*
X0756628Y0327493D02*
X0713197Y0327493D01*
X0713197Y0325495D02*
X0756628Y0325495D01*
X0756628Y0323496D02*
X0713197Y0323496D01*
X0713197Y0321498D02*
X0756628Y0321498D01*
X0756628Y0319499D02*
X0713197Y0319499D01*
X0713197Y0317501D02*
X0756628Y0317501D01*
X0756628Y0315502D02*
X0713197Y0315502D01*
X0713197Y0313504D02*
X0756628Y0313504D01*
X0756628Y0311505D02*
X0713197Y0311505D01*
X0713197Y0309507D02*
X0756628Y0309507D01*
X0756628Y0307508D02*
X0713197Y0307508D01*
X0713197Y0305510D02*
X0756628Y0305510D01*
X0756628Y0303511D02*
X0713197Y0303511D01*
X0713197Y0301513D02*
X0756628Y0301513D01*
X0756628Y0299514D02*
X0713197Y0299514D01*
X0713197Y0297516D02*
X0756628Y0297516D01*
X0756628Y0295517D02*
X0713197Y0295517D01*
X0713197Y0293519D02*
X0756628Y0293519D01*
X0756628Y0291520D02*
X0713197Y0291520D01*
X0713197Y0289522D02*
X0756628Y0289522D01*
X0756628Y0287523D02*
X0713197Y0287523D01*
X0713197Y0285525D02*
X0756628Y0285525D01*
X0756628Y0283526D02*
X0713197Y0283526D01*
X0713197Y0281528D02*
X0756628Y0281528D01*
X0756628Y0279529D02*
X0713197Y0279529D01*
X0713197Y0277531D02*
X0756628Y0277531D01*
X0756628Y0275532D02*
X0713197Y0275532D01*
X0713197Y0273534D02*
X0756628Y0273534D01*
X0756628Y0271535D02*
X0713197Y0271535D01*
X0713197Y0269537D02*
X0756628Y0269537D01*
X0756628Y0267538D02*
X0713197Y0267538D01*
X0713197Y0265540D02*
X0756628Y0265540D01*
X0756628Y0263541D02*
X0713197Y0263541D01*
X0713197Y0261543D02*
X0756628Y0261543D01*
X0756628Y0259544D02*
X0713197Y0259544D01*
X0713197Y0257546D02*
X0756628Y0257546D01*
X0756628Y0255547D02*
X0713197Y0255547D01*
X0713197Y0253548D02*
X0756628Y0253548D01*
X0756628Y0251550D02*
X0713197Y0251550D01*
X0713197Y0249551D02*
X0756628Y0249551D01*
X0756628Y0247553D02*
X0713197Y0247553D01*
X0713197Y0245554D02*
X0756628Y0245554D01*
X0756628Y0243556D02*
X0713197Y0243556D01*
X0713197Y0241557D02*
X0756628Y0241557D01*
X0756628Y0239559D02*
X0713197Y0239559D01*
X0713197Y0237560D02*
X0756628Y0237560D01*
X0756628Y0235562D02*
X0713197Y0235562D01*
X0713392Y0233563D02*
X0715065Y0233563D01*
X0719228Y0228579D02*
X0719228Y0221650D01*
X0716354Y0218776D01*
X0704543Y0218776D01*
X0700606Y0222713D01*
X0700606Y0380193D01*
X0689582Y0391217D01*
X0638244Y0391217D01*
X0638244Y0401217D02*
X0695330Y0401217D01*
X0709228Y0387319D01*
X0709228Y0228579D01*
X0696638Y0235562D02*
X0525047Y0235562D01*
X0525047Y0237560D02*
X0696638Y0237560D01*
X0696638Y0239559D02*
X0525047Y0239559D01*
X0525047Y0241557D02*
X0696638Y0241557D01*
X0696638Y0243556D02*
X0525047Y0243556D01*
X0525047Y0245554D02*
X0696638Y0245554D01*
X0696638Y0247553D02*
X0525047Y0247553D01*
X0525047Y0249551D02*
X0696638Y0249551D01*
X0696638Y0251550D02*
X0525047Y0251550D01*
X0525047Y0253548D02*
X0696638Y0253548D01*
X0696638Y0255547D02*
X0525047Y0255547D01*
X0525047Y0257546D02*
X0696638Y0257546D01*
X0696638Y0259544D02*
X0525047Y0259544D01*
X0525047Y0261543D02*
X0696638Y0261543D01*
X0696638Y0263541D02*
X0525047Y0263541D01*
X0525047Y0265540D02*
X0696638Y0265540D01*
X0696638Y0267538D02*
X0525047Y0267538D01*
X0525047Y0269537D02*
X0696638Y0269537D01*
X0696638Y0271535D02*
X0525047Y0271535D01*
X0525047Y0273534D02*
X0696638Y0273534D01*
X0696638Y0275532D02*
X0525047Y0275532D01*
X0525047Y0277531D02*
X0696638Y0277531D01*
X0696638Y0279529D02*
X0527924Y0279529D01*
X0532325Y0301513D02*
X0555369Y0301513D01*
X0554906Y0303511D02*
X0535049Y0303511D01*
X0519504Y0317201D02*
X0523441Y0321138D01*
X0519504Y0317201D02*
X0472260Y0317201D01*
X0468323Y0313264D01*
X0464354Y0303511D02*
X0409622Y0303511D01*
X0410083Y0301513D02*
X0464354Y0301513D01*
X0464354Y0299514D02*
X0409672Y0299514D01*
X0408115Y0297516D02*
X0464354Y0297516D01*
X0464354Y0275532D02*
X0405859Y0275532D01*
X0406146Y0273534D02*
X0464354Y0273534D01*
X0464354Y0271535D02*
X0405561Y0271535D01*
X0403294Y0269537D02*
X0464354Y0269537D01*
X0490008Y0237560D02*
X0506877Y0237560D01*
X0507807Y0235562D02*
X0490008Y0235562D01*
X0510148Y0245554D02*
X0517110Y0245554D01*
X0517110Y0243556D02*
X0512147Y0243556D01*
X0525047Y0233563D02*
X0552704Y0233563D01*
X0550697Y0231565D02*
X0525047Y0231565D01*
X0585252Y0204996D02*
X0613598Y0204996D01*
X0617535Y0201059D01*
X0617535Y0173500D01*
X0613174Y0171610D02*
X0455437Y0171610D01*
X0456949Y0173608D02*
X0612783Y0173608D01*
X0613264Y0175607D02*
X0481726Y0175607D01*
X0484339Y0177605D02*
X0613567Y0177605D01*
X0613567Y0179604D02*
X0519273Y0179604D01*
X0521801Y0181602D02*
X0613567Y0181602D01*
X0613567Y0183601D02*
X0523800Y0183601D01*
X0525798Y0185599D02*
X0613567Y0185599D01*
X0621504Y0187598D02*
X0627819Y0187598D01*
X0626956Y0189596D02*
X0621504Y0189596D01*
X0621504Y0191595D02*
X0627047Y0191595D01*
X0628151Y0193593D02*
X0621504Y0193593D01*
X0621504Y0195592D02*
X0628486Y0195592D01*
X0627186Y0197590D02*
X0621504Y0197590D01*
X0621504Y0199589D02*
X0626956Y0199589D01*
X0627598Y0201587D02*
X0621504Y0201587D01*
X0613393Y0199589D02*
X0587249Y0199589D01*
X0587019Y0197590D02*
X0613567Y0197590D01*
X0613567Y0195592D02*
X0585719Y0195592D01*
X0614703Y0169611D02*
X0401425Y0169611D01*
X0401425Y0171610D02*
X0449712Y0171610D01*
X0448201Y0173608D02*
X0401425Y0173608D01*
X0401425Y0175607D02*
X0437841Y0175607D01*
X0436365Y0177605D02*
X0401425Y0177605D01*
X0401425Y0179604D02*
X0407924Y0179604D01*
X0405396Y0181602D02*
X0401425Y0181602D01*
X0401425Y0183601D02*
X0403397Y0183601D01*
X0409268Y0183343D02*
X0401394Y0191217D01*
X0409268Y0199091D02*
X0444701Y0199091D01*
X0448638Y0179406D02*
X0440764Y0179406D01*
X0448638Y0179406D02*
X0452575Y0175469D01*
X0431923Y0163615D02*
X0407048Y0163615D01*
X0409046Y0161617D02*
X0429174Y0161617D01*
X0429525Y0161968D02*
X0429525Y0161968D01*
X0436827Y0155783D02*
X0452575Y0155783D01*
X0464386Y0143972D01*
X0464354Y0139220D02*
X0464354Y0123103D01*
X0464294Y0123043D01*
X0463570Y0121296D01*
X0463570Y0119405D01*
X0463818Y0118807D01*
X0462022Y0118807D01*
X0460809Y0118305D01*
X0461265Y0119405D01*
X0461265Y0121296D01*
X0460541Y0123043D01*
X0459204Y0124380D01*
X0457457Y0125103D01*
X0455566Y0125103D01*
X0453820Y0124380D01*
X0452606Y0123166D01*
X0452606Y0149093D01*
X0452002Y0150551D01*
X0450738Y0151815D01*
X0450931Y0151815D01*
X0459633Y0143113D01*
X0459633Y0143027D01*
X0460357Y0141280D01*
X0461694Y0139943D01*
X0463440Y0139220D01*
X0464354Y0139220D01*
X0464354Y0137635D02*
X0452606Y0137635D01*
X0452606Y0139633D02*
X0462442Y0139633D01*
X0460211Y0141632D02*
X0452606Y0141632D01*
X0452606Y0143630D02*
X0459116Y0143630D01*
X0457117Y0145629D02*
X0452606Y0145629D01*
X0452606Y0147627D02*
X0455119Y0147627D01*
X0453120Y0149626D02*
X0452385Y0149626D01*
X0451122Y0151624D02*
X0450929Y0151624D01*
X0448638Y0148303D02*
X0445094Y0151846D01*
X0440764Y0151846D01*
X0436827Y0155783D02*
X0432890Y0151846D01*
X0407693Y0151846D01*
X0393520Y0166020D01*
X0393520Y0212476D01*
X0381677Y0187598D02*
X0356296Y0187598D01*
X0358359Y0185599D02*
X0381677Y0185599D01*
X0381677Y0183601D02*
X0358902Y0183601D01*
X0358573Y0181602D02*
X0381677Y0181602D01*
X0381677Y0179604D02*
X0370805Y0179604D01*
X0372022Y0177605D02*
X0381677Y0177605D01*
X0381677Y0175607D02*
X0372318Y0175607D01*
X0371876Y0173608D02*
X0381677Y0173608D01*
X0381677Y0171610D02*
X0370451Y0171610D01*
X0381677Y0169611D02*
X0358118Y0169611D01*
X0358118Y0167613D02*
X0381677Y0167613D01*
X0381677Y0165614D02*
X0358118Y0165614D01*
X0358118Y0163615D02*
X0381677Y0163615D01*
X0381869Y0161617D02*
X0358118Y0161617D01*
X0358118Y0159618D02*
X0383285Y0159618D01*
X0385283Y0157620D02*
X0358118Y0157620D01*
X0358118Y0155621D02*
X0387282Y0155621D01*
X0389280Y0153623D02*
X0357550Y0153623D01*
X0355603Y0151624D02*
X0391279Y0151624D01*
X0393278Y0149626D02*
X0370782Y0149626D01*
X0372013Y0147627D02*
X0395276Y0147627D01*
X0397275Y0145629D02*
X0372318Y0145629D01*
X0371885Y0143630D02*
X0399273Y0143630D01*
X0401272Y0141632D02*
X0370473Y0141632D01*
X0370775Y0139633D02*
X0413955Y0139633D01*
X0412634Y0137635D02*
X0372010Y0137635D01*
X0372318Y0135636D02*
X0412389Y0135636D01*
X0413017Y0133638D02*
X0371888Y0133638D01*
X0370480Y0131639D02*
X0413173Y0131639D01*
X0413173Y0129641D02*
X0369118Y0129641D01*
X0369118Y0127642D02*
X0413173Y0127642D01*
X0414110Y0125644D02*
X0369118Y0125644D01*
X0369118Y0123645D02*
X0416109Y0123645D01*
X0418107Y0121647D02*
X0369385Y0121647D01*
X0369918Y0119648D02*
X0420106Y0119648D01*
X0422104Y0117650D02*
X0369918Y0117650D01*
X0369918Y0115651D02*
X0427878Y0115651D01*
X0430027Y0115651D02*
X0435752Y0115651D01*
X0437901Y0115651D02*
X0447563Y0115651D01*
X0448139Y0113653D02*
X0369918Y0113653D01*
X0369582Y0111654D02*
X0446140Y0111654D01*
X0444805Y0109656D02*
X0368350Y0109656D01*
X0359949Y0109656D02*
X0359118Y0109656D01*
X0359118Y0107657D02*
X0444669Y0107657D01*
X0444669Y0105659D02*
X0439607Y0105659D01*
X0442223Y0103660D02*
X0443242Y0103660D01*
X0434046Y0105659D02*
X0427796Y0105659D01*
X0430412Y0103660D02*
X0431431Y0103660D01*
X0422235Y0105659D02*
X0415985Y0105659D01*
X0418601Y0103660D02*
X0419620Y0103660D01*
X0410424Y0105659D02*
X0404174Y0105659D01*
X0406790Y0103660D02*
X0407809Y0103660D01*
X0398613Y0105659D02*
X0358660Y0105659D01*
X0357084Y0103660D02*
X0395997Y0103660D01*
X0394969Y0101662D02*
X0355086Y0101662D01*
X0353087Y0099663D02*
X0394625Y0099663D01*
X0394821Y0097665D02*
X0351089Y0097665D01*
X0349090Y0095666D02*
X0395649Y0095666D01*
X0397749Y0093668D02*
X0347092Y0093668D01*
X0345093Y0091669D02*
X0397187Y0091669D01*
X0395944Y0089671D02*
X0343095Y0089671D01*
X0349118Y0123645D02*
X0350424Y0123645D01*
X0349118Y0125644D02*
X0359181Y0125644D01*
X0359181Y0127642D02*
X0349118Y0127642D01*
X0349118Y0129641D02*
X0359181Y0129641D01*
X0357819Y0131639D02*
X0350480Y0131639D01*
X0351888Y0133638D02*
X0356411Y0133638D01*
X0355981Y0135636D02*
X0352318Y0135636D01*
X0352010Y0137635D02*
X0356289Y0137635D01*
X0357524Y0139633D02*
X0350775Y0139633D01*
X0350473Y0141632D02*
X0357826Y0141632D01*
X0356414Y0143630D02*
X0351885Y0143630D01*
X0352318Y0145629D02*
X0355981Y0145629D01*
X0356286Y0147627D02*
X0352013Y0147627D01*
X0353604Y0149626D02*
X0357517Y0149626D01*
X0354150Y0155783D02*
X0344150Y0145783D01*
X0354150Y0155783D02*
X0354150Y0183343D01*
X0349726Y0181602D02*
X0319203Y0181602D01*
X0319532Y0183601D02*
X0349397Y0183601D01*
X0349940Y0185599D02*
X0318989Y0185599D01*
X0316926Y0187598D02*
X0352003Y0187598D01*
X0337495Y0179604D02*
X0331434Y0179604D01*
X0332652Y0177605D02*
X0336277Y0177605D01*
X0335450Y0175607D02*
X0332948Y0175607D01*
X0332506Y0173608D02*
X0333452Y0173608D01*
X0331453Y0171610D02*
X0331081Y0171610D01*
X0329922Y0169611D02*
X0318280Y0169611D01*
X0316473Y0167613D02*
X0329496Y0167613D01*
X0329496Y0165614D02*
X0314474Y0165614D01*
X0312476Y0163615D02*
X0329496Y0163615D01*
X0329496Y0161617D02*
X0310477Y0161617D01*
X0308748Y0159618D02*
X0329496Y0159618D01*
X0329496Y0157620D02*
X0308748Y0157620D01*
X0308748Y0155621D02*
X0329496Y0155621D01*
X0329496Y0153623D02*
X0308748Y0153623D01*
X0308748Y0151624D02*
X0329496Y0151624D01*
X0318147Y0149626D02*
X0311412Y0149626D01*
X0312643Y0147627D02*
X0316916Y0147627D01*
X0316611Y0145629D02*
X0312948Y0145629D01*
X0312515Y0143630D02*
X0317044Y0143630D01*
X0318456Y0141632D02*
X0311103Y0141632D01*
X0311405Y0139633D02*
X0318154Y0139633D01*
X0316919Y0137635D02*
X0312640Y0137635D01*
X0312948Y0135636D02*
X0316611Y0135636D01*
X0317041Y0133638D02*
X0312518Y0133638D01*
X0311110Y0131639D02*
X0318449Y0131639D01*
X0319811Y0129641D02*
X0309748Y0129641D01*
X0309748Y0127642D02*
X0319811Y0127642D01*
X0319811Y0125644D02*
X0309748Y0125644D01*
X0309748Y0123645D02*
X0311054Y0123645D01*
X0318506Y0123645D02*
X0319811Y0123645D01*
X0304780Y0145783D02*
X0304780Y0161531D01*
X0314780Y0171531D01*
X0314780Y0183343D01*
X0357876Y0123645D02*
X0359181Y0123645D01*
X0405038Y0093668D02*
X0409560Y0093668D01*
X0408998Y0091669D02*
X0405600Y0091669D01*
X0406843Y0089671D02*
X0407755Y0089671D01*
X0407756Y0085674D02*
X0406842Y0085674D01*
X0405598Y0083675D02*
X0409000Y0083675D01*
X0413201Y0083675D02*
X0413209Y0083675D01*
X0413201Y0085674D02*
X0413209Y0085674D01*
X0417409Y0083675D02*
X0420812Y0083675D01*
X0419567Y0085674D02*
X0418653Y0085674D01*
X0418654Y0089671D02*
X0419566Y0089671D01*
X0420809Y0091669D02*
X0417411Y0091669D01*
X0416849Y0093668D02*
X0421371Y0093668D01*
X0419271Y0095666D02*
X0418949Y0095666D01*
X0428660Y0093668D02*
X0433182Y0093668D01*
X0432620Y0091669D02*
X0429222Y0091669D01*
X0430465Y0089671D02*
X0431377Y0089671D01*
X0431378Y0085674D02*
X0430464Y0085674D01*
X0429220Y0083675D02*
X0432623Y0083675D01*
X0425020Y0083675D02*
X0425012Y0083675D01*
X0425012Y0085674D02*
X0425020Y0085674D01*
X0430760Y0095666D02*
X0431082Y0095666D01*
X0407460Y0095666D02*
X0407138Y0095666D01*
X0401398Y0085674D02*
X0401390Y0085674D01*
X0401390Y0083675D02*
X0401398Y0083675D01*
X0440848Y0117650D02*
X0444617Y0117650D01*
X0443885Y0119648D02*
X0441580Y0119648D01*
X0441434Y0121647D02*
X0444030Y0121647D01*
X0444669Y0123645D02*
X0440253Y0123645D01*
X0444669Y0125644D02*
X0425335Y0125644D01*
X0423336Y0127642D02*
X0444669Y0127642D01*
X0444669Y0129641D02*
X0421338Y0129641D01*
X0421110Y0131639D02*
X0444669Y0131639D01*
X0444669Y0133638D02*
X0421267Y0133638D01*
X0421894Y0135636D02*
X0444669Y0135636D01*
X0444669Y0137635D02*
X0421650Y0137635D01*
X0420328Y0139633D02*
X0423072Y0139633D01*
X0417142Y0136098D02*
X0417142Y0128224D01*
X0425016Y0120350D01*
X0428953Y0120350D01*
X0432379Y0123645D02*
X0433400Y0123645D01*
X0448638Y0120350D02*
X0448638Y0148303D01*
X0460843Y0155390D02*
X0468323Y0147909D01*
X0468323Y0120350D01*
X0463715Y0121647D02*
X0461119Y0121647D01*
X0461265Y0119648D02*
X0463570Y0119648D01*
X0464354Y0123645D02*
X0459938Y0123645D01*
X0464354Y0125644D02*
X0452606Y0125644D01*
X0452606Y0127642D02*
X0464354Y0127642D01*
X0464354Y0129641D02*
X0452606Y0129641D01*
X0452606Y0131639D02*
X0464354Y0131639D01*
X0464354Y0133638D02*
X0452606Y0133638D01*
X0452606Y0135636D02*
X0464354Y0135636D01*
X0472291Y0135636D02*
X0484039Y0135636D01*
X0484039Y0133638D02*
X0472291Y0133638D01*
X0472291Y0131639D02*
X0484039Y0131639D01*
X0484039Y0129641D02*
X0472291Y0129641D01*
X0472291Y0127642D02*
X0484039Y0127642D01*
X0484039Y0125644D02*
X0472291Y0125644D01*
X0472291Y0123645D02*
X0472770Y0123645D01*
X0479623Y0123645D02*
X0484039Y0123645D01*
X0483401Y0121647D02*
X0480804Y0121647D01*
X0480950Y0119648D02*
X0483255Y0119648D01*
X0488008Y0120350D02*
X0488008Y0163657D01*
X0483255Y0163615D02*
X0477164Y0163615D01*
X0479913Y0161617D02*
X0483709Y0161617D01*
X0484039Y0159618D02*
X0481911Y0159618D01*
X0483910Y0157620D02*
X0484039Y0157620D01*
X0484071Y0151846D02*
X0476197Y0159720D01*
X0483674Y0165614D02*
X0405049Y0165614D01*
X0403051Y0167613D02*
X0485241Y0167613D01*
X0484071Y0151846D02*
X0484071Y0143972D01*
X0453085Y0123645D02*
X0452606Y0123645D01*
X0450137Y0115651D02*
X0449713Y0115651D01*
X0521593Y0143630D02*
X0661224Y0143630D01*
X0661485Y0145629D02*
X0523704Y0145629D01*
X0524257Y0147627D02*
X0537474Y0147627D01*
X0536213Y0149626D02*
X0523937Y0149626D01*
X0540764Y0151059D02*
X0582890Y0151059D01*
X0625803Y0151059D01*
X0629093Y0147627D02*
X0661883Y0147627D01*
X0663151Y0149626D02*
X0630354Y0149626D01*
X0630556Y0151624D02*
X0665013Y0151624D01*
X0617929Y0136492D02*
X0617929Y0136098D01*
X0614743Y0139633D02*
X0605368Y0139633D01*
X0606689Y0137635D02*
X0613421Y0137635D01*
X0613176Y0135636D02*
X0606934Y0135636D01*
X0606306Y0133638D02*
X0613804Y0133638D01*
X0602181Y0136098D02*
X0602181Y0136492D01*
X0598995Y0139633D02*
X0589558Y0139633D01*
X0590897Y0137635D02*
X0597673Y0137635D01*
X0597428Y0135636D02*
X0591155Y0135636D01*
X0590540Y0133638D02*
X0598056Y0133638D01*
X0586402Y0136068D02*
X0586402Y0136461D01*
X0586433Y0136492D01*
X0583247Y0139633D02*
X0573872Y0139633D01*
X0575193Y0137635D02*
X0581907Y0137635D01*
X0581649Y0135636D02*
X0575438Y0135636D01*
X0574810Y0133638D02*
X0582264Y0133638D01*
X0570685Y0136098D02*
X0570685Y0136492D01*
X0567499Y0139633D02*
X0558123Y0139633D01*
X0559445Y0137635D02*
X0566177Y0137635D01*
X0565932Y0135636D02*
X0559690Y0135636D01*
X0559062Y0133638D02*
X0566560Y0133638D01*
X0635599Y0187598D02*
X0637661Y0187598D01*
X0636798Y0189596D02*
X0636461Y0189596D01*
X0636370Y0191595D02*
X0636890Y0191595D01*
X0637994Y0193593D02*
X0635266Y0193593D01*
X0718768Y0215577D02*
X0756628Y0215577D01*
X0756628Y0217575D02*
X0720766Y0217575D01*
X0722664Y0219574D02*
X0756628Y0219574D01*
X0756628Y0221572D02*
X0723197Y0221572D01*
X0723368Y0223571D02*
X0726942Y0223571D01*
X0729228Y0223571D02*
X0729228Y0223571D01*
X0729228Y0223079D02*
X0729228Y0228579D01*
X0729228Y0228579D01*
X0729228Y0234079D01*
X0729661Y0234079D01*
X0730516Y0233943D01*
X0731340Y0233676D01*
X0732111Y0233283D01*
X0732811Y0232774D01*
X0733423Y0232162D01*
X0733607Y0231910D01*
X0733745Y0232243D01*
X0735564Y0234062D01*
X0737942Y0235047D01*
X0740515Y0235047D01*
X0742892Y0234062D01*
X0744712Y0232243D01*
X0745697Y0229865D01*
X0745697Y0227292D01*
X0744712Y0224915D01*
X0742892Y0223095D01*
X0740515Y0222110D01*
X0737942Y0222110D01*
X0735564Y0223095D01*
X0733745Y0224915D01*
X0733607Y0225248D01*
X0733423Y0224996D01*
X0732811Y0224384D01*
X0732111Y0223875D01*
X0731340Y0223482D01*
X0730516Y0223214D01*
X0729661Y0223079D01*
X0729228Y0223079D01*
X0731515Y0223571D02*
X0735088Y0223571D01*
X0729228Y0225569D02*
X0729228Y0225569D01*
X0729228Y0227568D02*
X0729228Y0227568D01*
X0729228Y0228579D02*
X0729228Y0228579D01*
X0729228Y0229566D02*
X0729228Y0229566D01*
X0729228Y0231565D02*
X0729228Y0231565D01*
X0729228Y0233563D02*
X0729228Y0233563D01*
X0726897Y0233563D02*
X0723392Y0233563D01*
X0731560Y0233563D02*
X0735065Y0233563D01*
X0743392Y0233563D02*
X0756628Y0233563D01*
X0756628Y0231565D02*
X0744993Y0231565D01*
X0745697Y0229566D02*
X0756628Y0229566D01*
X0756628Y0227568D02*
X0745697Y0227568D01*
X0744983Y0225569D02*
X0756628Y0225569D01*
X0756628Y0223571D02*
X0743368Y0223571D01*
X0696638Y0297516D02*
X0599919Y0297516D01*
X0601918Y0299514D02*
X0696638Y0299514D01*
X0696638Y0301513D02*
X0603916Y0301513D01*
X0605915Y0303511D02*
X0696638Y0303511D01*
X0696638Y0305510D02*
X0607913Y0305510D01*
X0609912Y0307508D02*
X0696638Y0307508D01*
X0696638Y0309507D02*
X0611910Y0309507D01*
X0612303Y0309899D02*
X0612303Y0309899D01*
X0613622Y0311505D02*
X0696638Y0311505D01*
X0696638Y0313504D02*
X0614024Y0313504D01*
X0614024Y0315502D02*
X0634616Y0315502D01*
X0632566Y0317501D02*
X0614024Y0317501D01*
X0614024Y0319499D02*
X0631738Y0319499D01*
X0631576Y0321498D02*
X0614024Y0321498D01*
X0614024Y0323496D02*
X0631970Y0323496D01*
X0633091Y0325495D02*
X0614024Y0325495D01*
X0614024Y0327493D02*
X0632569Y0327493D01*
X0631741Y0329492D02*
X0614024Y0329492D01*
X0614024Y0331490D02*
X0631576Y0331490D01*
X0631967Y0333489D02*
X0614024Y0333489D01*
X0614024Y0335487D02*
X0633084Y0335487D01*
X0632572Y0337486D02*
X0614024Y0337486D01*
X0614024Y0339484D02*
X0631744Y0339484D01*
X0631576Y0341483D02*
X0614024Y0341483D01*
X0614024Y0343482D02*
X0631964Y0343482D01*
X0633076Y0345480D02*
X0614024Y0345480D01*
X0614024Y0347479D02*
X0632575Y0347479D01*
X0631747Y0349477D02*
X0614024Y0349477D01*
X0614024Y0351476D02*
X0631576Y0351476D01*
X0631961Y0353474D02*
X0614024Y0353474D01*
X0614024Y0355473D02*
X0633069Y0355473D01*
X0632578Y0357471D02*
X0614024Y0357471D01*
X0614629Y0359470D02*
X0631750Y0359470D01*
X0631576Y0361468D02*
X0616628Y0361468D01*
X0618626Y0363467D02*
X0631958Y0363467D01*
X0633061Y0365465D02*
X0620625Y0365465D01*
X0607582Y0375458D02*
X0577013Y0375458D01*
X0576907Y0377456D02*
X0609580Y0377456D01*
X0611579Y0379455D02*
X0575782Y0379455D01*
X0572260Y0376256D02*
X0572260Y0316413D01*
X0576072Y0313504D02*
X0596809Y0313504D01*
X0598807Y0315502D02*
X0577013Y0315502D01*
X0576954Y0317501D02*
X0600806Y0317501D01*
X0602150Y0319499D02*
X0576228Y0319499D01*
X0576228Y0321498D02*
X0602150Y0321498D01*
X0602150Y0323496D02*
X0576228Y0323496D01*
X0576228Y0325495D02*
X0602150Y0325495D01*
X0602150Y0327493D02*
X0576228Y0327493D01*
X0576228Y0329492D02*
X0602150Y0329492D01*
X0602150Y0331490D02*
X0576228Y0331490D01*
X0576228Y0333489D02*
X0602150Y0333489D01*
X0602150Y0335487D02*
X0576228Y0335487D01*
X0576228Y0337486D02*
X0602150Y0337486D01*
X0602150Y0339484D02*
X0576228Y0339484D01*
X0576228Y0341483D02*
X0602150Y0341483D01*
X0602150Y0343482D02*
X0583832Y0343482D01*
X0583048Y0343157D02*
X0584795Y0343880D01*
X0586132Y0345217D01*
X0586855Y0346964D01*
X0586855Y0348855D01*
X0586132Y0350602D01*
X0586071Y0350662D01*
X0586071Y0362086D01*
X0586132Y0362146D01*
X0586855Y0363893D01*
X0586855Y0365784D01*
X0586132Y0367531D01*
X0584795Y0368868D01*
X0583048Y0369591D01*
X0581157Y0369591D01*
X0579410Y0368868D01*
X0578073Y0367531D01*
X0577350Y0365784D01*
X0577350Y0363893D01*
X0578073Y0362146D01*
X0578134Y0362086D01*
X0578134Y0350662D01*
X0578073Y0350602D01*
X0577350Y0348855D01*
X0577350Y0346964D01*
X0578073Y0345217D01*
X0579410Y0343880D01*
X0581157Y0343157D01*
X0583048Y0343157D01*
X0580373Y0343482D02*
X0576228Y0343482D01*
X0576228Y0345480D02*
X0577964Y0345480D01*
X0577350Y0347479D02*
X0576228Y0347479D01*
X0576228Y0349477D02*
X0577607Y0349477D01*
X0578134Y0351476D02*
X0576228Y0351476D01*
X0576228Y0353474D02*
X0578134Y0353474D01*
X0578134Y0355473D02*
X0576228Y0355473D01*
X0576228Y0357471D02*
X0578134Y0357471D01*
X0578134Y0359470D02*
X0576228Y0359470D01*
X0576228Y0361468D02*
X0578134Y0361468D01*
X0577526Y0363467D02*
X0576228Y0363467D01*
X0576228Y0365465D02*
X0577350Y0365465D01*
X0578045Y0367464D02*
X0576228Y0367464D01*
X0576228Y0369462D02*
X0580845Y0369462D01*
X0583360Y0369462D02*
X0602270Y0369462D01*
X0602150Y0367464D02*
X0586159Y0367464D01*
X0586855Y0365465D02*
X0602150Y0365465D01*
X0602150Y0363467D02*
X0586678Y0363467D01*
X0586071Y0361468D02*
X0602150Y0361468D01*
X0602150Y0359470D02*
X0586071Y0359470D01*
X0586071Y0357471D02*
X0602150Y0357471D01*
X0602150Y0355473D02*
X0586071Y0355473D01*
X0586071Y0353474D02*
X0602150Y0353474D01*
X0602150Y0351476D02*
X0586071Y0351476D01*
X0586597Y0349477D02*
X0602150Y0349477D01*
X0602150Y0347479D02*
X0586855Y0347479D01*
X0586240Y0345480D02*
X0602150Y0345480D01*
X0582102Y0347909D02*
X0582102Y0364839D01*
X0576228Y0371461D02*
X0603585Y0371461D01*
X0605583Y0373459D02*
X0576228Y0373459D01*
X0643427Y0365465D02*
X0696638Y0365465D01*
X0696638Y0363467D02*
X0644530Y0363467D01*
X0644913Y0361468D02*
X0696638Y0361468D01*
X0696638Y0359470D02*
X0644738Y0359470D01*
X0643910Y0357471D02*
X0696638Y0357471D01*
X0696638Y0355473D02*
X0643420Y0355473D01*
X0644527Y0353474D02*
X0696638Y0353474D01*
X0696638Y0351476D02*
X0644913Y0351476D01*
X0644741Y0349477D02*
X0696638Y0349477D01*
X0696638Y0347479D02*
X0643913Y0347479D01*
X0643412Y0345480D02*
X0696638Y0345480D01*
X0696638Y0343482D02*
X0644524Y0343482D01*
X0644913Y0341483D02*
X0696638Y0341483D01*
X0696638Y0339484D02*
X0644744Y0339484D01*
X0643916Y0337486D02*
X0696638Y0337486D01*
X0696638Y0335487D02*
X0643405Y0335487D01*
X0644521Y0333489D02*
X0696638Y0333489D01*
X0696638Y0331490D02*
X0644913Y0331490D01*
X0644747Y0329492D02*
X0696638Y0329492D01*
X0696638Y0327493D02*
X0643920Y0327493D01*
X0643397Y0325495D02*
X0696638Y0325495D01*
X0696638Y0323496D02*
X0644518Y0323496D01*
X0644913Y0321498D02*
X0696638Y0321498D01*
X0696638Y0319499D02*
X0644750Y0319499D01*
X0643923Y0317501D02*
X0696638Y0317501D01*
X0696638Y0315502D02*
X0641873Y0315502D01*
X0747636Y0395443D02*
X0756628Y0395443D01*
X0756628Y0397441D02*
X0749148Y0397441D01*
X0749682Y0399440D02*
X0756628Y0399440D01*
X0756628Y0401438D02*
X0749511Y0401438D01*
X0748512Y0403437D02*
X0756628Y0403437D01*
X0756628Y0405435D02*
X0749198Y0405435D01*
X0749682Y0407434D02*
X0756628Y0407434D01*
X0756628Y0409432D02*
X0749461Y0409432D01*
X0748392Y0411431D02*
X0756628Y0411431D01*
X0756628Y0413429D02*
X0749247Y0413429D01*
X0749682Y0415428D02*
X0756628Y0415428D01*
X0756628Y0417426D02*
X0749411Y0417426D01*
X0748272Y0419425D02*
X0756628Y0419425D01*
X0756628Y0421423D02*
X0748242Y0421423D01*
X0748713Y0423422D02*
X0756628Y0423422D01*
X0756628Y0425420D02*
X0748322Y0425420D01*
X0748713Y0423500D02*
X0743914Y0423500D01*
X0743914Y0423500D01*
X0748713Y0423500D01*
X0746686Y0427419D02*
X0756628Y0427419D01*
X0756628Y0429417D02*
X0669142Y0429417D01*
X0669142Y0427419D02*
X0741141Y0427419D01*
X0739505Y0425420D02*
X0669522Y0425420D01*
X0669926Y0423422D02*
X0739113Y0423422D01*
X0739113Y0423500D02*
X0743913Y0423500D01*
X0743913Y0423500D01*
X0739113Y0423500D01*
X0739584Y0421423D02*
X0669457Y0421423D01*
X0667755Y0419425D02*
X0739554Y0419425D01*
X0743913Y0423500D02*
X0743913Y0428300D01*
X0743913Y0423500D01*
X0743913Y0423500D01*
X0743913Y0425420D02*
X0743913Y0425420D01*
X0743913Y0427419D02*
X0743913Y0427419D01*
X0756628Y0431416D02*
X0669142Y0431416D01*
X0669142Y0433415D02*
X0756628Y0433415D01*
X0756628Y0435413D02*
X0669142Y0435413D01*
X0668599Y0437412D02*
X0756628Y0437412D01*
X0756628Y0439410D02*
X0666686Y0439410D01*
X0659267Y0441217D02*
X0638244Y0441217D01*
X0643479Y0435413D02*
X0659459Y0435413D01*
X0661205Y0433415D02*
X0644552Y0433415D01*
X0644913Y0431416D02*
X0661205Y0431416D01*
X0661205Y0429417D02*
X0644716Y0429417D01*
X0643876Y0427419D02*
X0661205Y0427419D01*
X0660824Y0425420D02*
X0642102Y0425420D01*
X0528882Y0461394D02*
X0756628Y0461394D01*
X0756628Y0463392D02*
X0528467Y0463392D01*
X0529315Y0465391D02*
X0756628Y0465391D01*
X0756628Y0467389D02*
X0529409Y0467389D01*
X0518050Y0469388D02*
X0442218Y0469388D01*
X0441887Y0470188D02*
X0441330Y0470744D01*
X0441887Y0471300D01*
X0442795Y0473494D01*
X0442795Y0475868D01*
X0441887Y0478062D01*
X0441330Y0478618D01*
X0441887Y0479174D01*
X0442795Y0481368D01*
X0442795Y0483742D01*
X0441887Y0485936D01*
X0441330Y0486492D01*
X0441887Y0487048D01*
X0442795Y0489242D01*
X0442795Y0491616D01*
X0441887Y0493810D01*
X0441330Y0494366D01*
X0441887Y0494922D01*
X0442795Y0497116D01*
X0442795Y0499490D01*
X0441887Y0501684D01*
X0441330Y0502240D01*
X0441887Y0502796D01*
X0442795Y0504990D01*
X0442795Y0507364D01*
X0441887Y0509558D01*
X0440208Y0511237D01*
X0438014Y0512146D01*
X0435640Y0512146D01*
X0433446Y0511237D01*
X0431767Y0509558D01*
X0430858Y0507364D01*
X0430858Y0504990D01*
X0431767Y0502796D01*
X0432323Y0502240D01*
X0431767Y0501684D01*
X0430858Y0499490D01*
X0430858Y0497116D01*
X0431767Y0494922D01*
X0432323Y0494366D01*
X0431767Y0493810D01*
X0430858Y0491616D01*
X0430858Y0489242D01*
X0431767Y0487048D01*
X0432323Y0486492D01*
X0431767Y0485936D01*
X0430858Y0483742D01*
X0430858Y0481368D01*
X0431767Y0479174D01*
X0432323Y0478618D01*
X0431767Y0478062D01*
X0430858Y0475868D01*
X0430858Y0473494D01*
X0431767Y0471300D01*
X0432323Y0470744D01*
X0431767Y0470188D01*
X0430858Y0467994D01*
X0430858Y0465620D01*
X0431767Y0463426D01*
X0432323Y0462870D01*
X0431767Y0462314D01*
X0430858Y0460120D01*
X0430858Y0457746D01*
X0431767Y0455552D01*
X0432323Y0454996D01*
X0431767Y0454440D01*
X0430858Y0452246D01*
X0430858Y0449872D01*
X0431767Y0447678D01*
X0432323Y0447122D01*
X0431767Y0446566D01*
X0430858Y0444372D01*
X0430858Y0441998D01*
X0431767Y0439804D01*
X0433009Y0438562D01*
X0432550Y0437932D01*
X0432193Y0437230D01*
X0431950Y0436482D01*
X0431827Y0435705D01*
X0431827Y0435311D01*
X0431827Y0434918D01*
X0431950Y0434140D01*
X0432193Y0433392D01*
X0432550Y0432690D01*
X0433013Y0432054D01*
X0433569Y0431497D01*
X0434206Y0431035D01*
X0434907Y0430677D01*
X0435656Y0430434D01*
X0436433Y0430311D01*
X0436827Y0430311D01*
X0437220Y0430311D01*
X0437998Y0430434D01*
X0438746Y0430677D01*
X0439447Y0431035D01*
X0440084Y0431497D01*
X0440641Y0432054D01*
X0441103Y0432690D01*
X0441460Y0433392D01*
X0441704Y0434140D01*
X0441827Y0434918D01*
X0441827Y0435311D01*
X0441827Y0435705D01*
X0441704Y0436482D01*
X0441460Y0437230D01*
X0441103Y0437932D01*
X0440645Y0438562D01*
X0441887Y0439804D01*
X0442795Y0441998D01*
X0442795Y0444372D01*
X0441887Y0446566D01*
X0441330Y0447122D01*
X0441887Y0447678D01*
X0442795Y0449872D01*
X0442795Y0452246D01*
X0441887Y0454440D01*
X0441330Y0454996D01*
X0441887Y0455552D01*
X0442795Y0457746D01*
X0442795Y0460120D01*
X0441887Y0462314D01*
X0441330Y0462870D01*
X0441887Y0463426D01*
X0442795Y0465620D01*
X0442795Y0467994D01*
X0441887Y0470188D01*
X0441922Y0471386D02*
X0518345Y0471386D01*
X0517518Y0473385D02*
X0442750Y0473385D01*
X0442795Y0475383D02*
X0517472Y0475383D01*
X0518099Y0477382D02*
X0442168Y0477382D01*
X0441972Y0479380D02*
X0518296Y0479380D01*
X0517472Y0481379D02*
X0442795Y0481379D01*
X0442795Y0483377D02*
X0517472Y0483377D01*
X0518149Y0485376D02*
X0442119Y0485376D01*
X0442022Y0487374D02*
X0518246Y0487374D01*
X0517472Y0489373D02*
X0442795Y0489373D01*
X0442795Y0491371D02*
X0517472Y0491371D01*
X0518199Y0493370D02*
X0442069Y0493370D01*
X0442071Y0495368D02*
X0518196Y0495368D01*
X0517472Y0497367D02*
X0442795Y0497367D01*
X0442795Y0499365D02*
X0517472Y0499365D01*
X0518248Y0501364D02*
X0442019Y0501364D01*
X0442121Y0503362D02*
X0518147Y0503362D01*
X0517472Y0505361D02*
X0442795Y0505361D01*
X0442795Y0507359D02*
X0517472Y0507359D01*
X0518298Y0509358D02*
X0441970Y0509358D01*
X0439919Y0511356D02*
X0520348Y0511356D01*
X0517472Y0467389D02*
X0442795Y0467389D01*
X0442700Y0465391D02*
X0517567Y0465391D01*
X0518415Y0463392D02*
X0441853Y0463392D01*
X0442268Y0461394D02*
X0518000Y0461394D01*
X0517472Y0459395D02*
X0442795Y0459395D01*
X0442651Y0457397D02*
X0517617Y0457397D01*
X0518535Y0455398D02*
X0441733Y0455398D01*
X0442318Y0453400D02*
X0517950Y0453400D01*
X0517472Y0451401D02*
X0442795Y0451401D01*
X0442601Y0449403D02*
X0517667Y0449403D01*
X0518655Y0447404D02*
X0441613Y0447404D01*
X0442367Y0445406D02*
X0517900Y0445406D01*
X0517472Y0443407D02*
X0442795Y0443407D01*
X0442551Y0441409D02*
X0517717Y0441409D01*
X0518775Y0439410D02*
X0441493Y0439410D01*
X0441368Y0437412D02*
X0517851Y0437412D01*
X0517472Y0435413D02*
X0441827Y0435413D01*
X0441827Y0435311D02*
X0436827Y0435311D01*
X0436827Y0435311D01*
X0441827Y0435311D01*
X0441468Y0433415D02*
X0517766Y0433415D01*
X0518895Y0431416D02*
X0439972Y0431416D01*
X0436827Y0431416D02*
X0436827Y0431416D01*
X0436827Y0430311D02*
X0436827Y0435311D01*
X0436827Y0435311D01*
X0425016Y0435311D01*
X0421079Y0439248D01*
X0431102Y0441409D02*
X0354937Y0441409D01*
X0354937Y0443407D02*
X0430858Y0443407D01*
X0431286Y0445406D02*
X0354937Y0445406D01*
X0354937Y0447404D02*
X0432041Y0447404D01*
X0431053Y0449403D02*
X0354937Y0449403D01*
X0354937Y0451401D02*
X0430858Y0451401D01*
X0431336Y0453400D02*
X0354937Y0453400D01*
X0354937Y0455398D02*
X0431921Y0455398D01*
X0431003Y0457397D02*
X0354937Y0457397D01*
X0354937Y0459395D02*
X0430858Y0459395D01*
X0431386Y0461394D02*
X0354937Y0461394D01*
X0354937Y0463392D02*
X0431801Y0463392D01*
X0430953Y0465391D02*
X0354937Y0465391D01*
X0354937Y0467389D02*
X0430858Y0467389D01*
X0431435Y0469388D02*
X0354937Y0469388D01*
X0354937Y0471386D02*
X0431731Y0471386D01*
X0430903Y0473385D02*
X0354937Y0473385D01*
X0354937Y0475383D02*
X0430858Y0475383D01*
X0431485Y0477382D02*
X0354937Y0477382D01*
X0354937Y0479380D02*
X0431682Y0479380D01*
X0430858Y0481379D02*
X0354937Y0481379D01*
X0354937Y0483377D02*
X0430858Y0483377D01*
X0431535Y0485376D02*
X0354937Y0485376D01*
X0354937Y0487374D02*
X0431632Y0487374D01*
X0430858Y0489373D02*
X0354937Y0489373D01*
X0354937Y0491371D02*
X0430858Y0491371D01*
X0431585Y0493370D02*
X0354937Y0493370D01*
X0354937Y0495368D02*
X0431582Y0495368D01*
X0430858Y0497367D02*
X0354937Y0497367D01*
X0354937Y0499365D02*
X0430858Y0499365D01*
X0431634Y0501364D02*
X0354937Y0501364D01*
X0354937Y0503362D02*
X0431532Y0503362D01*
X0430858Y0505361D02*
X0354937Y0505361D01*
X0354937Y0507359D02*
X0430858Y0507359D01*
X0431684Y0509358D02*
X0354937Y0509358D01*
X0354937Y0511356D02*
X0433734Y0511356D01*
X0356479Y0531342D02*
X0687730Y0531342D01*
X0687730Y0529343D02*
X0354937Y0529343D01*
X0354937Y0527345D02*
X0687730Y0527345D01*
X0452575Y0395941D02*
X0452575Y0372319D01*
X0436827Y0356571D01*
X0389583Y0356571D01*
X0385646Y0360508D01*
X0385646Y0376256D01*
X0389583Y0380193D01*
X0417142Y0380193D01*
X0421079Y0384130D01*
X0421079Y0395941D01*
X0425016Y0399878D01*
X0448638Y0399878D01*
X0452575Y0395941D01*
X0452575Y0395443D02*
X0421079Y0395443D01*
X0421079Y0393444D02*
X0452575Y0393444D01*
X0452575Y0391446D02*
X0421079Y0391446D01*
X0421079Y0389447D02*
X0452575Y0389447D01*
X0452575Y0387449D02*
X0421079Y0387449D01*
X0421079Y0385450D02*
X0452575Y0385450D01*
X0452575Y0383452D02*
X0420401Y0383452D01*
X0418402Y0381453D02*
X0452575Y0381453D01*
X0452575Y0379455D02*
X0388844Y0379455D01*
X0386846Y0377456D02*
X0452575Y0377456D01*
X0452575Y0375458D02*
X0385646Y0375458D01*
X0385646Y0373459D02*
X0452575Y0373459D01*
X0451717Y0371461D02*
X0385646Y0371461D01*
X0385646Y0369462D02*
X0449718Y0369462D01*
X0447720Y0367464D02*
X0385646Y0367464D01*
X0385646Y0365465D02*
X0445721Y0365465D01*
X0443723Y0363467D02*
X0385646Y0363467D01*
X0385646Y0361468D02*
X0441724Y0361468D01*
X0439726Y0359470D02*
X0386684Y0359470D01*
X0388682Y0357471D02*
X0437727Y0357471D01*
X0444646Y0355473D02*
X0444755Y0355473D01*
X0445193Y0341483D02*
X0444208Y0341483D01*
X0437319Y0341483D02*
X0436334Y0341483D01*
X0429445Y0341483D02*
X0428460Y0341483D01*
X0421079Y0360508D02*
X0401394Y0360508D01*
X0397457Y0364445D01*
X0397457Y0368382D01*
X0421079Y0360508D02*
X0425016Y0364445D01*
X0425016Y0372319D01*
X0425016Y0388067D01*
X0428953Y0392004D01*
X0448638Y0392004D01*
X0451074Y0397441D02*
X0422579Y0397441D01*
X0424578Y0399440D02*
X0449076Y0399440D01*
X0423238Y0403437D02*
X0402209Y0403437D01*
X0401617Y0401438D02*
X0420964Y0401438D01*
X0421651Y0402126D02*
X0421651Y0402126D01*
X0418965Y0399440D02*
X0399314Y0399440D01*
X0395600Y0399440D02*
X0393930Y0399440D01*
X0394335Y0397441D02*
X0417405Y0397441D01*
X0417110Y0395443D02*
X0393868Y0395443D01*
X0392173Y0393444D02*
X0417110Y0393444D01*
X0428953Y0376256D02*
X0448638Y0376256D01*
X0428953Y0376256D02*
X0425016Y0372319D01*
X0394474Y0415428D02*
X0392565Y0415428D01*
X0354937Y0431416D02*
X0433681Y0431416D01*
X0432186Y0433415D02*
X0354937Y0433415D01*
X0354937Y0435413D02*
X0431827Y0435413D01*
X0431827Y0435311D02*
X0436827Y0435311D01*
X0436827Y0430311D01*
X0436827Y0433415D02*
X0436827Y0433415D01*
X0436827Y0435311D02*
X0431827Y0435311D01*
X0432285Y0437412D02*
X0354937Y0437412D01*
X0354937Y0439410D02*
X0432161Y0439410D01*
X0436827Y0435311D02*
X0436827Y0435311D01*
X0346276Y0435413D02*
X0141551Y0435413D01*
X0141551Y0433415D02*
X0346276Y0433415D01*
X0346276Y0431416D02*
X0141551Y0431416D01*
X0141551Y0429417D02*
X0346276Y0429417D01*
X0346276Y0427419D02*
X0141551Y0427419D01*
X0141551Y0425420D02*
X0346276Y0425420D01*
X0346198Y0423422D02*
X0141551Y0423422D01*
X0141551Y0421423D02*
X0344199Y0421423D01*
X0346276Y0437412D02*
X0141551Y0437412D01*
X0141551Y0439410D02*
X0346276Y0439410D01*
X0346276Y0441409D02*
X0141551Y0441409D01*
X0141551Y0443407D02*
X0346276Y0443407D01*
X0346276Y0445406D02*
X0141551Y0445406D01*
X0141551Y0447404D02*
X0346276Y0447404D01*
X0346276Y0449403D02*
X0141551Y0449403D01*
X0141551Y0451401D02*
X0346276Y0451401D01*
X0346276Y0453400D02*
X0141551Y0453400D01*
X0141551Y0455398D02*
X0188393Y0455398D01*
X0186395Y0457397D02*
X0141551Y0457397D01*
X0141551Y0459395D02*
X0184396Y0459395D01*
X0182398Y0461394D02*
X0141551Y0461394D01*
X0141551Y0463392D02*
X0180921Y0463392D01*
X0180921Y0465391D02*
X0141551Y0465391D01*
X0141551Y0467389D02*
X0180921Y0467389D01*
X0180921Y0469388D02*
X0154982Y0469388D01*
X0157529Y0471386D02*
X0180921Y0471386D01*
X0180921Y0473385D02*
X0158903Y0473385D01*
X0159666Y0475383D02*
X0180921Y0475383D01*
X0180921Y0477382D02*
X0159963Y0477382D01*
X0159963Y0479380D02*
X0180921Y0479380D01*
X0180921Y0481379D02*
X0159963Y0481379D01*
X0159963Y0483377D02*
X0180921Y0483377D01*
X0180921Y0485376D02*
X0150963Y0485376D01*
X0150963Y0483377D02*
X0149963Y0483377D01*
X0149963Y0481379D02*
X0150963Y0481379D01*
X0150963Y0479380D02*
X0149963Y0479380D01*
X0149963Y0477382D02*
X0150963Y0477382D01*
X0150963Y0475383D02*
X0149963Y0475383D01*
X0149963Y0473385D02*
X0150963Y0473385D01*
X0150963Y0471386D02*
X0149963Y0471386D01*
X0149963Y0469388D02*
X0150963Y0469388D01*
X0145945Y0469388D02*
X0141551Y0469388D01*
X0141551Y0471386D02*
X0143398Y0471386D01*
X0142024Y0473385D02*
X0141551Y0473385D01*
X0134858Y0459395D02*
X0113129Y0459395D01*
X0115557Y0457397D02*
X0134858Y0457397D01*
X0134858Y0455398D02*
X0116893Y0455398D01*
X0117544Y0453400D02*
X0134858Y0453400D01*
X0134858Y0451401D02*
X0117942Y0451401D01*
X0117680Y0449403D02*
X0134858Y0449403D01*
X0134858Y0447404D02*
X0117283Y0447404D01*
X0116014Y0445406D02*
X0134858Y0445406D01*
X0134858Y0443407D02*
X0114153Y0443407D01*
X0086433Y0427437D02*
X0086433Y0411689D01*
X0082496Y0407752D01*
X0047063Y0407752D01*
X0043126Y0411689D01*
X0043126Y0415344D01*
X0043232Y0415161D01*
X0043862Y0414339D01*
X0044595Y0413607D01*
X0045417Y0412976D01*
X0046315Y0412458D01*
X0047272Y0412061D01*
X0048273Y0411793D01*
X0049301Y0411657D01*
X0054756Y0411657D01*
X0054756Y0418594D01*
X0056693Y0418594D01*
X0056693Y0411657D01*
X0062148Y0411657D01*
X0063176Y0411793D01*
X0064177Y0412061D01*
X0065134Y0412458D01*
X0066031Y0412976D01*
X0066854Y0413607D01*
X0067586Y0414339D01*
X0068217Y0415161D01*
X0068735Y0416059D01*
X0069132Y0417016D01*
X0069400Y0418017D01*
X0069476Y0418594D01*
X0056693Y0418594D01*
X0056693Y0420531D01*
X0069476Y0420531D01*
X0069400Y0421109D01*
X0069132Y0422110D01*
X0068735Y0423067D01*
X0068217Y0423964D01*
X0067586Y0424787D01*
X0066854Y0425519D01*
X0066031Y0426150D01*
X0065134Y0426668D01*
X0064177Y0427065D01*
X0063176Y0427333D01*
X0062148Y0427468D01*
X0056693Y0427468D01*
X0056693Y0420532D01*
X0054756Y0420532D01*
X0054756Y0427468D01*
X0049301Y0427468D01*
X0048273Y0427333D01*
X0047272Y0427065D01*
X0046315Y0426668D01*
X0045417Y0426150D01*
X0044595Y0425519D01*
X0043862Y0424787D01*
X0043232Y0423964D01*
X0043126Y0423782D01*
X0043126Y0427437D01*
X0047063Y0431374D01*
X0082496Y0431374D01*
X0086433Y0427437D01*
X0086433Y0427419D02*
X0083732Y0427419D01*
X0083953Y0427258D02*
X0083253Y0427767D01*
X0082481Y0428160D01*
X0081658Y0428428D01*
X0080803Y0428563D01*
X0080370Y0428563D01*
X0079937Y0428563D01*
X0079082Y0428428D01*
X0078259Y0428160D01*
X0077487Y0427767D01*
X0076787Y0427258D01*
X0076175Y0426646D01*
X0075666Y0425946D01*
X0075273Y0425174D01*
X0075006Y0424351D01*
X0074870Y0423496D01*
X0074870Y0419563D01*
X0080370Y0419563D01*
X0080370Y0419563D01*
X0074870Y0419563D01*
X0074870Y0415630D01*
X0075006Y0414775D01*
X0075273Y0413952D01*
X0075666Y0413180D01*
X0076175Y0412480D01*
X0076787Y0411868D01*
X0077487Y0411359D01*
X0078259Y0410966D01*
X0079082Y0410698D01*
X0079937Y0410563D01*
X0080370Y0410563D01*
X0080370Y0419563D01*
X0080370Y0428563D01*
X0080370Y0419563D01*
X0080370Y0419563D01*
X0080370Y0419563D01*
X0080370Y0410563D01*
X0080803Y0410563D01*
X0081658Y0410698D01*
X0082481Y0410966D01*
X0083253Y0411359D01*
X0083953Y0411868D01*
X0084565Y0412480D01*
X0085074Y0413180D01*
X0085467Y0413952D01*
X0085735Y0414775D01*
X0085870Y0415630D01*
X0085870Y0419563D01*
X0085870Y0423496D01*
X0085735Y0424351D01*
X0085467Y0425174D01*
X0085074Y0425946D01*
X0084565Y0426646D01*
X0083953Y0427258D01*
X0084453Y0429417D02*
X0045106Y0429417D01*
X0043126Y0427419D02*
X0048925Y0427419D01*
X0044496Y0425420D02*
X0043126Y0425420D01*
X0054756Y0425420D02*
X0056693Y0425420D01*
X0056693Y0423422D02*
X0054756Y0423422D01*
X0054756Y0421423D02*
X0056693Y0421423D01*
X0056693Y0419425D02*
X0074870Y0419425D01*
X0074870Y0421423D02*
X0069316Y0421423D01*
X0068530Y0423422D02*
X0074870Y0423422D01*
X0075398Y0425420D02*
X0066953Y0425420D01*
X0062524Y0427419D02*
X0077008Y0427419D01*
X0080370Y0427419D02*
X0080370Y0427419D01*
X0080370Y0425420D02*
X0080370Y0425420D01*
X0080370Y0423422D02*
X0080370Y0423422D01*
X0080370Y0421423D02*
X0080370Y0421423D01*
X0080370Y0419563D02*
X0085870Y0419563D01*
X0080370Y0419563D01*
X0080370Y0419563D01*
X0080370Y0419425D02*
X0080370Y0419425D01*
X0080370Y0417426D02*
X0080370Y0417426D01*
X0080370Y0415428D02*
X0080370Y0415428D01*
X0080370Y0413429D02*
X0080370Y0413429D01*
X0080370Y0411431D02*
X0080370Y0411431D01*
X0077388Y0411431D02*
X0043384Y0411431D01*
X0043126Y0413429D02*
X0044826Y0413429D01*
X0045383Y0409432D02*
X0084176Y0409432D01*
X0083352Y0411431D02*
X0086175Y0411431D01*
X0086433Y0413429D02*
X0085201Y0413429D01*
X0085838Y0415428D02*
X0086433Y0415428D01*
X0086433Y0417426D02*
X0085870Y0417426D01*
X0085870Y0419425D02*
X0086433Y0419425D01*
X0086433Y0421423D02*
X0085870Y0421423D01*
X0085870Y0423422D02*
X0086433Y0423422D01*
X0086433Y0425420D02*
X0085342Y0425420D01*
X0074870Y0417426D02*
X0069242Y0417426D01*
X0068371Y0415428D02*
X0074902Y0415428D01*
X0075539Y0413429D02*
X0066623Y0413429D01*
X0056693Y0413429D02*
X0054756Y0413429D01*
X0054756Y0415428D02*
X0056693Y0415428D01*
X0056693Y0417426D02*
X0054756Y0417426D01*
X0054756Y0427419D02*
X0056693Y0427419D01*
X0094307Y0409432D02*
X0109719Y0409432D01*
X0102481Y0394302D02*
X0101658Y0394569D01*
X0100803Y0394705D01*
X0100370Y0394705D01*
X0099937Y0394705D01*
X0099082Y0394569D01*
X0098259Y0394302D01*
X0097487Y0393909D01*
X0096787Y0393400D01*
X0096175Y0392788D01*
X0095666Y0392087D01*
X0095273Y0391316D01*
X0095006Y0390493D01*
X0094870Y0389638D01*
X0094870Y0385705D01*
X0100370Y0385705D01*
X0100370Y0394705D01*
X0100370Y0385705D01*
X0100370Y0385705D01*
X0100370Y0385705D01*
X0105870Y0385705D01*
X0105870Y0389638D01*
X0105735Y0390493D01*
X0105467Y0391316D01*
X0105074Y0392087D01*
X0104565Y0392788D01*
X0103953Y0393400D01*
X0103253Y0393909D01*
X0102481Y0394302D01*
X0103892Y0393444D02*
X0169110Y0393444D01*
X0169110Y0391446D02*
X0105401Y0391446D01*
X0105870Y0389447D02*
X0169110Y0389447D01*
X0169110Y0387449D02*
X0105870Y0387449D01*
X0105870Y0385705D02*
X0100370Y0385705D01*
X0100370Y0385705D01*
X0094870Y0385705D01*
X0094870Y0381772D01*
X0095006Y0380917D01*
X0095273Y0380093D01*
X0095666Y0379322D01*
X0096175Y0378622D01*
X0096787Y0378010D01*
X0097487Y0377501D01*
X0098259Y0377108D01*
X0099082Y0376840D01*
X0099937Y0376705D01*
X0100370Y0376705D01*
X0100370Y0385705D01*
X0100370Y0385705D01*
X0100370Y0376705D01*
X0100803Y0376705D01*
X0101658Y0376840D01*
X0102481Y0377108D01*
X0103253Y0377501D01*
X0103953Y0378010D01*
X0104565Y0378622D01*
X0105074Y0379322D01*
X0105467Y0380093D01*
X0105735Y0380917D01*
X0105870Y0381772D01*
X0105870Y0385705D01*
X0105870Y0385450D02*
X0169110Y0385450D01*
X0169110Y0383452D02*
X0105870Y0383452D01*
X0105820Y0381453D02*
X0169110Y0381453D01*
X0169110Y0379455D02*
X0105142Y0379455D01*
X0103165Y0377456D02*
X0169110Y0377456D01*
X0168312Y0375458D02*
X0099042Y0375458D01*
X0100370Y0377456D02*
X0100370Y0377456D01*
X0100370Y0379455D02*
X0100370Y0379455D01*
X0100370Y0381453D02*
X0100370Y0381453D01*
X0100370Y0383452D02*
X0100370Y0383452D01*
X0100370Y0385450D02*
X0100370Y0385450D01*
X0100370Y0387449D02*
X0100370Y0387449D01*
X0100370Y0389447D02*
X0100370Y0389447D01*
X0100370Y0391446D02*
X0100370Y0391446D01*
X0100370Y0393444D02*
X0100370Y0393444D01*
X0097746Y0395443D02*
X0169110Y0395443D01*
X0169110Y0397441D02*
X0135178Y0397441D01*
X0137176Y0399440D02*
X0169110Y0399440D01*
X0169110Y0401438D02*
X0139175Y0401438D01*
X0141173Y0403437D02*
X0169110Y0403437D01*
X0169110Y0405435D02*
X0141551Y0405435D01*
X0141551Y0407434D02*
X0169110Y0407434D01*
X0169110Y0409432D02*
X0141551Y0409432D01*
X0141551Y0411431D02*
X0169110Y0411431D01*
X0169110Y0413429D02*
X0141551Y0413429D01*
X0141551Y0415428D02*
X0169110Y0415428D01*
X0170911Y0417426D02*
X0141551Y0417426D01*
X0141551Y0419425D02*
X0172909Y0419425D01*
X0192210Y0463392D02*
X0232624Y0463392D01*
X0234623Y0465391D02*
X0190212Y0465391D01*
X0188795Y0467389D02*
X0236621Y0467389D01*
X0244375Y0459395D02*
X0314317Y0459395D01*
X0312319Y0461394D02*
X0246374Y0461394D01*
X0247850Y0463392D02*
X0310320Y0463392D01*
X0308322Y0465391D02*
X0247850Y0465391D01*
X0247850Y0467389D02*
X0306906Y0467389D01*
X0306906Y0469388D02*
X0281882Y0469388D01*
X0284429Y0471386D02*
X0306906Y0471386D01*
X0306906Y0473385D02*
X0285803Y0473385D01*
X0286566Y0475383D02*
X0306906Y0475383D01*
X0306906Y0477382D02*
X0286863Y0477382D01*
X0286863Y0479380D02*
X0306906Y0479380D01*
X0306906Y0481379D02*
X0286863Y0481379D01*
X0286863Y0483377D02*
X0306906Y0483377D01*
X0314780Y0483377D02*
X0327863Y0483377D01*
X0327863Y0481379D02*
X0314780Y0481379D01*
X0314780Y0479380D02*
X0327863Y0479380D01*
X0327863Y0477382D02*
X0314780Y0477382D01*
X0314780Y0475383D02*
X0328161Y0475383D01*
X0328924Y0473385D02*
X0314780Y0473385D01*
X0314780Y0471386D02*
X0330298Y0471386D01*
X0332845Y0469388D02*
X0316136Y0469388D01*
X0318134Y0467389D02*
X0342921Y0467389D01*
X0341882Y0469388D02*
X0344919Y0469388D01*
X0344429Y0471386D02*
X0346276Y0471386D01*
X0346276Y0473385D02*
X0345803Y0473385D01*
X0337863Y0473385D02*
X0336863Y0473385D01*
X0336863Y0475383D02*
X0337863Y0475383D01*
X0337863Y0477382D02*
X0336863Y0477382D01*
X0336863Y0479380D02*
X0337863Y0479380D01*
X0337863Y0481379D02*
X0336863Y0481379D01*
X0336863Y0483377D02*
X0337863Y0483377D01*
X0337863Y0471386D02*
X0336863Y0471386D01*
X0336863Y0469388D02*
X0337863Y0469388D01*
X0343875Y0457397D02*
X0242377Y0457397D01*
X0240378Y0455398D02*
X0345874Y0455398D01*
X0345686Y0497367D02*
X0346276Y0497367D01*
X0346276Y0499365D02*
X0344189Y0499365D01*
X0277863Y0483377D02*
X0276863Y0483377D01*
X0276863Y0481379D02*
X0277863Y0481379D01*
X0277863Y0479380D02*
X0276863Y0479380D01*
X0276863Y0477382D02*
X0277863Y0477382D01*
X0277863Y0475383D02*
X0276863Y0475383D01*
X0276863Y0473385D02*
X0277863Y0473385D01*
X0277863Y0471386D02*
X0276863Y0471386D01*
X0276863Y0469388D02*
X0277863Y0469388D01*
X0272845Y0469388D02*
X0247850Y0469388D01*
X0247850Y0471386D02*
X0270298Y0471386D01*
X0268924Y0473385D02*
X0247850Y0473385D01*
X0247850Y0475383D02*
X0268161Y0475383D01*
X0267863Y0477382D02*
X0247850Y0477382D01*
X0247850Y0479380D02*
X0267863Y0479380D01*
X0267863Y0481379D02*
X0247850Y0481379D01*
X0247850Y0483377D02*
X0267863Y0483377D01*
X0267863Y0487374D02*
X0247850Y0487374D01*
X0247850Y0489373D02*
X0267863Y0489373D01*
X0267863Y0491371D02*
X0247850Y0491371D01*
X0247850Y0493370D02*
X0267872Y0493370D01*
X0268215Y0495368D02*
X0248853Y0495368D01*
X0250851Y0497367D02*
X0269041Y0497367D01*
X0270538Y0499365D02*
X0252850Y0499365D01*
X0254848Y0501364D02*
X0273343Y0501364D01*
X0205945Y0469388D02*
X0188795Y0469388D01*
X0188795Y0471386D02*
X0203398Y0471386D01*
X0202024Y0473385D02*
X0188795Y0473385D01*
X0188795Y0475383D02*
X0201261Y0475383D01*
X0200963Y0477382D02*
X0188795Y0477382D01*
X0188795Y0479380D02*
X0200963Y0479380D01*
X0200963Y0481379D02*
X0188795Y0481379D01*
X0188795Y0483377D02*
X0200963Y0483377D01*
X0180921Y0487374D02*
X0159963Y0487374D01*
X0159963Y0489373D02*
X0180921Y0489373D01*
X0180921Y0491371D02*
X0159963Y0491371D01*
X0159954Y0493370D02*
X0180921Y0493370D01*
X0180921Y0495368D02*
X0159611Y0495368D01*
X0158786Y0497367D02*
X0180921Y0497367D01*
X0179859Y0499365D02*
X0157289Y0499365D01*
X0154484Y0501364D02*
X0177861Y0501364D01*
X0096848Y0393444D02*
X0095747Y0393444D01*
X0095339Y0391446D02*
X0094307Y0391446D01*
X0094307Y0389447D02*
X0094870Y0389447D01*
X0094870Y0387449D02*
X0094307Y0387449D01*
X0094307Y0385450D02*
X0094870Y0385450D01*
X0094870Y0383452D02*
X0094307Y0383452D01*
X0094307Y0381453D02*
X0094921Y0381453D01*
X0095045Y0379455D02*
X0095598Y0379455D01*
X0097044Y0377456D02*
X0097575Y0377456D01*
X0101041Y0373459D02*
X0166314Y0373459D01*
X0086433Y0376256D02*
X0082496Y0372319D01*
X0047063Y0372319D01*
X0043126Y0376256D01*
X0043126Y0381486D01*
X0043232Y0381303D01*
X0043862Y0380481D01*
X0044595Y0379748D01*
X0045417Y0379117D01*
X0046315Y0378599D01*
X0047272Y0378203D01*
X0048273Y0377934D01*
X0049301Y0377799D01*
X0054756Y0377799D01*
X0054756Y0384736D01*
X0056693Y0384736D01*
X0056693Y0377799D01*
X0062148Y0377799D01*
X0063176Y0377934D01*
X0064177Y0378203D01*
X0065134Y0378599D01*
X0066031Y0379117D01*
X0066854Y0379748D01*
X0067586Y0380481D01*
X0068217Y0381303D01*
X0068735Y0382201D01*
X0069132Y0383158D01*
X0069400Y0384159D01*
X0069476Y0384736D01*
X0056693Y0384736D01*
X0056693Y0386673D01*
X0069476Y0386673D01*
X0069400Y0387250D01*
X0069132Y0388251D01*
X0068735Y0389209D01*
X0068217Y0390106D01*
X0067586Y0390928D01*
X0066854Y0391661D01*
X0066031Y0392292D01*
X0065134Y0392810D01*
X0064177Y0393207D01*
X0063176Y0393475D01*
X0062148Y0393610D01*
X0056693Y0393610D01*
X0056693Y0386673D01*
X0054756Y0386673D01*
X0054756Y0393610D01*
X0049301Y0393610D01*
X0048273Y0393475D01*
X0047272Y0393207D01*
X0046315Y0392810D01*
X0045417Y0392292D01*
X0044595Y0391661D01*
X0043862Y0390928D01*
X0043232Y0390106D01*
X0043126Y0389923D01*
X0043126Y0392004D01*
X0047063Y0395941D01*
X0082496Y0395941D01*
X0086433Y0392004D01*
X0086433Y0376256D01*
X0085635Y0375458D02*
X0043924Y0375458D01*
X0043126Y0377456D02*
X0077575Y0377456D01*
X0077487Y0377501D02*
X0078259Y0377108D01*
X0079082Y0376840D01*
X0079937Y0376705D01*
X0080370Y0376705D01*
X0080370Y0385705D01*
X0080370Y0394705D01*
X0079937Y0394705D01*
X0079082Y0394569D01*
X0078259Y0394302D01*
X0077487Y0393909D01*
X0076787Y0393400D01*
X0076175Y0392788D01*
X0075666Y0392087D01*
X0075273Y0391316D01*
X0075006Y0390493D01*
X0074870Y0389638D01*
X0074870Y0385705D01*
X0080370Y0385705D01*
X0080370Y0385705D01*
X0080370Y0394705D01*
X0080803Y0394705D01*
X0081658Y0394569D01*
X0082481Y0394302D01*
X0083253Y0393909D01*
X0083953Y0393400D01*
X0084565Y0392788D01*
X0085074Y0392087D01*
X0085467Y0391316D01*
X0085735Y0390493D01*
X0085870Y0389638D01*
X0085870Y0385705D01*
X0080370Y0385705D01*
X0080370Y0385705D01*
X0080370Y0385705D01*
X0074870Y0385705D01*
X0074870Y0381772D01*
X0075006Y0380917D01*
X0075273Y0380093D01*
X0075666Y0379322D01*
X0076175Y0378622D01*
X0076787Y0378010D01*
X0077487Y0377501D01*
X0075598Y0379455D02*
X0066471Y0379455D01*
X0068304Y0381453D02*
X0074921Y0381453D01*
X0074870Y0383452D02*
X0069211Y0383452D01*
X0069347Y0387449D02*
X0074870Y0387449D01*
X0074870Y0389447D02*
X0068598Y0389447D01*
X0067069Y0391446D02*
X0075339Y0391446D01*
X0076848Y0393444D02*
X0063290Y0393444D01*
X0056693Y0393444D02*
X0054756Y0393444D01*
X0054756Y0391446D02*
X0056693Y0391446D01*
X0056693Y0389447D02*
X0054756Y0389447D01*
X0054756Y0387449D02*
X0056693Y0387449D01*
X0056693Y0385450D02*
X0074870Y0385450D01*
X0080370Y0385450D02*
X0080370Y0385450D01*
X0080370Y0385705D02*
X0080370Y0376705D01*
X0080803Y0376705D01*
X0081658Y0376840D01*
X0082481Y0377108D01*
X0083253Y0377501D01*
X0083953Y0378010D01*
X0084565Y0378622D01*
X0085074Y0379322D01*
X0085467Y0380093D01*
X0085735Y0380917D01*
X0085870Y0381772D01*
X0085870Y0385705D01*
X0080370Y0385705D01*
X0080370Y0385705D01*
X0080370Y0387449D02*
X0080370Y0387449D01*
X0080370Y0389447D02*
X0080370Y0389447D01*
X0080370Y0391446D02*
X0080370Y0391446D01*
X0080370Y0393444D02*
X0080370Y0393444D01*
X0082994Y0395443D02*
X0046565Y0395443D01*
X0048159Y0393444D02*
X0044566Y0393444D01*
X0044380Y0391446D02*
X0043126Y0391446D01*
X0043126Y0381453D02*
X0043145Y0381453D01*
X0043126Y0379455D02*
X0044978Y0379455D01*
X0045923Y0373459D02*
X0083636Y0373459D01*
X0083165Y0377456D02*
X0086433Y0377456D01*
X0086433Y0379455D02*
X0085142Y0379455D01*
X0085820Y0381453D02*
X0086433Y0381453D01*
X0086433Y0383452D02*
X0085870Y0383452D01*
X0085870Y0385450D02*
X0086433Y0385450D01*
X0086433Y0387449D02*
X0085870Y0387449D01*
X0085870Y0389447D02*
X0086433Y0389447D01*
X0086433Y0391446D02*
X0085401Y0391446D01*
X0084993Y0393444D02*
X0083892Y0393444D01*
X0080370Y0383452D02*
X0080370Y0383452D01*
X0080370Y0381453D02*
X0080370Y0381453D01*
X0080370Y0379455D02*
X0080370Y0379455D01*
X0080370Y0377456D02*
X0080370Y0377456D01*
X0056693Y0379455D02*
X0054756Y0379455D01*
X0054756Y0381453D02*
X0056693Y0381453D01*
X0056693Y0383452D02*
X0054756Y0383452D01*
D24*
X0314780Y0183343D03*
X0354150Y0183343D03*
X0380921Y0188461D03*
X0401394Y0191217D03*
X0405331Y0195154D03*
X0412417Y0189248D03*
X0421866Y0189248D03*
X0428953Y0175469D03*
X0440764Y0179406D03*
X0452575Y0175469D03*
X0468323Y0191217D03*
X0481709Y0189642D03*
X0488008Y0195154D03*
X0476197Y0179406D03*
X0488008Y0163657D03*
X0460843Y0155390D03*
X0464386Y0143972D03*
X0458480Y0143185D03*
X0444701Y0143972D03*
X0438795Y0143185D03*
X0440764Y0151846D03*
X0425016Y0143972D03*
X0417142Y0136098D03*
X0428953Y0120350D03*
X0436827Y0120350D03*
X0448638Y0120350D03*
X0456512Y0120350D03*
X0468323Y0120350D03*
X0476197Y0120350D03*
X0488008Y0120350D03*
X0495882Y0120350D03*
X0495882Y0114051D03*
X0484071Y0109720D03*
X0478165Y0143185D03*
X0484071Y0143972D03*
X0497850Y0143185D03*
X0519504Y0147909D03*
X0529740Y0142398D03*
X0540764Y0151059D03*
X0535646Y0159720D03*
X0554937Y0143972D03*
X0554937Y0136098D03*
X0570685Y0136098D03*
X0586402Y0136068D03*
X0598244Y0143972D03*
X0602181Y0136098D03*
X0617929Y0136098D03*
X0625803Y0151059D03*
X0621866Y0159720D03*
X0617535Y0173500D03*
X0631709Y0190429D03*
X0641551Y0190429D03*
X0631709Y0199091D03*
X0629740Y0206965D03*
X0653362Y0214839D03*
X0653362Y0222713D03*
X0661236Y0222713D03*
X0669110Y0222713D03*
X0669110Y0214839D03*
X0661236Y0214839D03*
X0661236Y0230587D03*
X0653362Y0230587D03*
X0669110Y0230587D03*
X0712417Y0206965D03*
X0716354Y0203028D03*
X0716354Y0195154D03*
X0720291Y0185311D03*
X0708480Y0185311D03*
X0696669Y0185311D03*
X0696669Y0177043D03*
X0708480Y0177437D03*
X0720291Y0177437D03*
X0641551Y0143972D03*
X0582890Y0151059D03*
X0578953Y0155783D03*
X0594307Y0181768D03*
X0582496Y0199091D03*
X0585252Y0204996D03*
X0574622Y0199091D03*
X0551787Y0191217D03*
X0551394Y0221925D03*
X0572260Y0225469D03*
X0582102Y0225469D03*
X0591157Y0230193D03*
X0525409Y0225075D03*
X0511630Y0238461D03*
X0491945Y0242398D03*
X0490370Y0250665D03*
X0464386Y0238461D03*
X0444701Y0242398D03*
X0438795Y0242398D03*
X0432890Y0242398D03*
X0426197Y0243972D03*
X0411630Y0254602D03*
X0397457Y0254209D03*
X0401394Y0273894D03*
X0405331Y0301453D03*
X0425016Y0344760D03*
X0432890Y0344760D03*
X0440764Y0344760D03*
X0448638Y0344760D03*
X0448638Y0352634D03*
X0440764Y0352634D03*
X0432890Y0352634D03*
X0425016Y0352634D03*
X0397457Y0368382D03*
X0389583Y0397516D03*
X0389583Y0403815D03*
X0397457Y0403815D03*
X0397457Y0411689D03*
X0389583Y0411689D03*
X0425016Y0411689D03*
X0448638Y0392004D03*
X0448638Y0376256D03*
X0421079Y0439248D03*
X0572260Y0376256D03*
X0582102Y0364839D03*
X0582102Y0347909D03*
X0572260Y0316413D03*
X0562811Y0313264D03*
X0562811Y0305390D03*
X0525016Y0283343D03*
X0515567Y0266020D03*
X0486039Y0284524D03*
X0451000Y0254602D03*
X0443520Y0221138D03*
X0436827Y0214839D03*
X0421472Y0203815D03*
X0412417Y0203815D03*
X0407299Y0214839D03*
X0389583Y0230587D03*
X0444701Y0199091D03*
X0467024Y0204091D03*
X0464386Y0210902D03*
X0515567Y0203028D03*
X0401394Y0183736D03*
X0384465Y0156571D03*
X0684858Y0372319D03*
X0720291Y0399878D03*
X0665173Y0423500D03*
X0716354Y0451059D03*
D25*
X0257535Y0135783D02*
X0257535Y0130035D01*
X0227378Y0099878D01*
X0220291Y0099878D01*
X0218165Y0129248D02*
X0188795Y0099878D01*
X0178795Y0121374D02*
X0178795Y0135783D01*
X0178795Y0121374D02*
X0157299Y0099878D01*
X0125803Y0099878D02*
X0125803Y0122161D01*
X0139425Y0135783D01*
X0125016Y0088854D02*
X0125803Y0088067D01*
X0218165Y0129248D02*
X0218165Y0135783D01*
D26*
X0117929Y0088854D02*
X0110055Y0096728D01*
X0110055Y0116413D01*
X0090370Y0136098D01*
X0090370Y0234524D01*
X0123102Y0267256D01*
X0150463Y0267256D01*
X0157299Y0088067D02*
X0125803Y0088067D01*
X0125016Y0088854D02*
X0117929Y0088854D01*
X0157299Y0088067D02*
X0188795Y0088067D01*
X0220291Y0088067D01*
D27*
X0295094Y0107752D02*
X0302969Y0099878D01*
X0295094Y0107752D02*
X0295094Y0166098D01*
X0304780Y0175783D01*
X0334465Y0167594D02*
X0334465Y0099878D01*
X0334465Y0088067D02*
X0354150Y0107752D01*
X0354150Y0116413D01*
X0364150Y0116413D02*
X0364150Y0135783D01*
X0344150Y0135783D02*
X0344150Y0116413D01*
X0324780Y0116413D02*
X0324780Y0135783D01*
X0304780Y0135783D02*
X0304780Y0116413D01*
X0314780Y0116413D02*
X0314780Y0099878D01*
X0302969Y0088067D01*
X0334465Y0167594D02*
X0342654Y0175783D01*
X0344150Y0175783D01*
M02*
