G75*
%MOIN*%
%OFA0B0*%
%FSLAX25Y25*%
%IPPOS*%
%LPD*%
%AMOC8*
5,1,8,0,0,1.08239X$1,22.5*
%
%ADD10C,0.08200*%
%ADD11C,0.06800*%
%ADD12C,0.07800*%
%ADD13C,0.06400*%
%ADD14R,0.05524X0.05524*%
%ADD15R,0.04737X0.06312*%
%ADD16R,0.05918X0.06706*%
%ADD17R,0.06706X0.05918*%
%ADD18C,0.09658*%
%ADD19R,0.03950X0.04343*%
%ADD20R,0.22650X0.25013*%
%ADD21R,0.04737X0.11509*%
D10*
X0284835Y0228720D03*
X0284835Y0238720D03*
X0284835Y0248720D03*
X0284835Y0258720D03*
X0284835Y0268720D03*
X0284835Y0278720D03*
X0284835Y0288720D03*
X0284835Y0298720D03*
X0284835Y0308720D03*
X0284835Y0318720D03*
X0284835Y0328720D03*
X0284835Y0338720D03*
X0284835Y0348720D03*
X0284835Y0358720D03*
X0364835Y0358720D03*
X0364835Y0348720D03*
X0364835Y0338720D03*
X0364835Y0328720D03*
X0364835Y0318720D03*
X0364835Y0308720D03*
X0364835Y0298720D03*
X0364835Y0288720D03*
X0364835Y0278720D03*
X0364835Y0268720D03*
X0364835Y0258720D03*
X0364835Y0248720D03*
X0364835Y0238720D03*
X0364835Y0228720D03*
D11*
X0410858Y0342932D03*
X0410858Y0350806D03*
X0410858Y0358680D03*
X0410858Y0366554D03*
X0410858Y0374428D03*
X0410858Y0382302D03*
X0410858Y0390176D03*
X0410858Y0398050D03*
X0410858Y0405924D03*
X0410858Y0413798D03*
X0497472Y0413798D03*
X0497472Y0405924D03*
X0497472Y0398050D03*
X0497472Y0390176D03*
X0497472Y0382302D03*
X0497472Y0374428D03*
X0497472Y0366554D03*
X0497472Y0358680D03*
X0497472Y0350806D03*
X0497472Y0342932D03*
D12*
X0238417Y0310019D03*
X0228417Y0310019D03*
X0218417Y0310019D03*
X0208417Y0310019D03*
D13*
X0635898Y0315531D03*
X0635898Y0323405D03*
X0635898Y0331279D03*
X0635898Y0339153D03*
D14*
X0567906Y0410728D03*
X0567906Y0418995D03*
X0537433Y0418995D03*
X0537433Y0410728D03*
D15*
X0519598Y0392578D03*
X0515858Y0383917D03*
X0523339Y0383917D03*
D16*
X0523339Y0368090D03*
X0515858Y0368090D03*
X0515780Y0353208D03*
X0523260Y0353208D03*
X0450622Y0114389D03*
X0443142Y0114389D03*
X0371882Y0114389D03*
X0364402Y0114389D03*
X0293142Y0114389D03*
X0285661Y0114389D03*
X0214402Y0114389D03*
X0206921Y0114389D03*
X0135661Y0114389D03*
X0128181Y0114389D03*
D17*
X0147669Y0090570D03*
X0147669Y0083090D03*
X0226409Y0083090D03*
X0226409Y0090570D03*
X0305150Y0090570D03*
X0305150Y0083090D03*
X0383890Y0083090D03*
X0383890Y0090570D03*
X0462630Y0090570D03*
X0462630Y0083090D03*
X0517748Y0087027D03*
X0517748Y0094507D03*
X0529559Y0252381D03*
X0529559Y0259861D03*
X0584677Y0259861D03*
X0584677Y0252381D03*
X0567906Y0390176D03*
X0567906Y0397657D03*
X0537433Y0397657D03*
X0537433Y0390176D03*
D18*
X0111449Y0053562D03*
X0122078Y0048050D03*
X0149638Y0036239D03*
X0131921Y0022854D03*
X0147669Y0066161D03*
X0190189Y0053562D03*
X0200818Y0048050D03*
X0228378Y0036239D03*
X0210661Y0022854D03*
X0226409Y0066161D03*
X0268929Y0053562D03*
X0279558Y0048050D03*
X0307118Y0036239D03*
X0289402Y0022854D03*
X0305150Y0066161D03*
X0347669Y0053562D03*
X0358298Y0048050D03*
X0385858Y0036239D03*
X0368142Y0022854D03*
X0383890Y0066161D03*
X0426409Y0053562D03*
X0437039Y0048050D03*
X0464598Y0036239D03*
X0446882Y0022854D03*
X0462630Y0066161D03*
X0505150Y0053562D03*
X0515779Y0048050D03*
X0543339Y0036239D03*
X0525622Y0022854D03*
X0541370Y0066161D03*
D19*
X0450622Y0098641D03*
X0443142Y0098641D03*
X0446882Y0090373D03*
X0371882Y0098641D03*
X0364402Y0098641D03*
X0368142Y0090373D03*
X0293142Y0098641D03*
X0285661Y0098641D03*
X0289402Y0090373D03*
X0214402Y0098641D03*
X0206921Y0098641D03*
X0210661Y0090373D03*
X0135661Y0098641D03*
X0128181Y0098641D03*
X0131921Y0090373D03*
D20*
X0557118Y0277775D03*
D21*
X0548102Y0251397D03*
X0566134Y0251397D03*
M02*
