G75*
%MOIN*%
%OFA0B0*%
%FSLAX25Y25*%
%IPPOS*%
%LPD*%
%AMOC8*
5,1,8,0,0,1.08239X$1,22.5*
%
%ADD10C,0.07400*%
%ADD11C,0.06000*%
%ADD12C,0.07000*%
%ADD13C,0.05600*%
%ADD14C,0.08858*%
%ADD15C,0.02000*%
%ADD16C,0.03569*%
%ADD17C,0.10000*%
%ADD18C,0.05000*%
%ADD19C,0.04000*%
D10*
X0284835Y0228720D03*
X0284835Y0238720D03*
X0284835Y0248720D03*
X0284835Y0258720D03*
X0284835Y0268720D03*
X0284835Y0278720D03*
X0284835Y0288720D03*
X0284835Y0298720D03*
X0284835Y0308720D03*
X0284835Y0318720D03*
X0284835Y0328720D03*
X0284835Y0338720D03*
X0284835Y0348720D03*
X0284835Y0358720D03*
X0364835Y0358720D03*
X0364835Y0348720D03*
X0364835Y0338720D03*
X0364835Y0328720D03*
X0364835Y0318720D03*
X0364835Y0308720D03*
X0364835Y0298720D03*
X0364835Y0288720D03*
X0364835Y0278720D03*
X0364835Y0268720D03*
X0364835Y0258720D03*
X0364835Y0248720D03*
X0364835Y0238720D03*
X0364835Y0228720D03*
D11*
X0410858Y0342932D03*
X0410858Y0350806D03*
X0410858Y0358680D03*
X0410858Y0366554D03*
X0410858Y0374428D03*
X0410858Y0382302D03*
X0410858Y0390176D03*
X0410858Y0398050D03*
X0410858Y0405924D03*
X0410858Y0413798D03*
X0497472Y0413798D03*
X0497472Y0405924D03*
X0497472Y0398050D03*
X0497472Y0390176D03*
X0497472Y0382302D03*
X0497472Y0374428D03*
X0497472Y0366554D03*
X0497472Y0358680D03*
X0497472Y0350806D03*
X0497472Y0342932D03*
D12*
X0238417Y0310019D03*
X0228417Y0310019D03*
X0218417Y0310019D03*
X0208417Y0310019D03*
D13*
X0635898Y0315531D03*
X0635898Y0323405D03*
X0635898Y0331279D03*
X0635898Y0339153D03*
D14*
X0541370Y0066161D03*
X0515779Y0048050D03*
X0505150Y0053562D03*
X0525622Y0022854D03*
X0543339Y0036239D03*
X0464598Y0036239D03*
X0446882Y0022854D03*
X0437039Y0048050D03*
X0426409Y0053562D03*
X0462630Y0066161D03*
X0383890Y0066161D03*
X0358298Y0048050D03*
X0347669Y0053562D03*
X0368142Y0022854D03*
X0385858Y0036239D03*
X0307118Y0036239D03*
X0289402Y0022854D03*
X0279558Y0048050D03*
X0268929Y0053562D03*
X0305150Y0066161D03*
X0226409Y0066161D03*
X0200818Y0048050D03*
X0190189Y0053562D03*
X0210661Y0022854D03*
X0228378Y0036239D03*
X0149638Y0036239D03*
X0131921Y0022854D03*
X0122078Y0048050D03*
X0111449Y0053562D03*
X0147669Y0066161D03*
D15*
X0069994Y0063453D02*
X0069994Y0017029D01*
X0127284Y0017029D01*
X0125650Y0018663D01*
X0124524Y0021382D01*
X0124524Y0024325D01*
X0125650Y0027044D01*
X0127731Y0029125D01*
X0130450Y0030251D01*
X0133393Y0030251D01*
X0136112Y0029125D01*
X0138193Y0027044D01*
X0139319Y0024325D01*
X0139319Y0021382D01*
X0138193Y0018663D01*
X0136558Y0017029D01*
X0206024Y0017029D01*
X0204390Y0018663D01*
X0203264Y0021382D01*
X0203264Y0024325D01*
X0204390Y0027044D01*
X0206471Y0029125D01*
X0209190Y0030251D01*
X0212133Y0030251D01*
X0214852Y0029125D01*
X0216933Y0027044D01*
X0218059Y0024325D01*
X0218059Y0021382D01*
X0216933Y0018663D01*
X0215298Y0017029D01*
X0284765Y0017029D01*
X0283130Y0018663D01*
X0282004Y0021382D01*
X0282004Y0024325D01*
X0283130Y0027044D01*
X0285211Y0029125D01*
X0287930Y0030251D01*
X0290873Y0030251D01*
X0293592Y0029125D01*
X0295673Y0027044D01*
X0296799Y0024325D01*
X0296799Y0021382D01*
X0295673Y0018663D01*
X0294039Y0017029D01*
X0363505Y0017029D01*
X0361870Y0018663D01*
X0360744Y0021382D01*
X0360744Y0024325D01*
X0361870Y0027044D01*
X0363951Y0029125D01*
X0366670Y0030251D01*
X0369613Y0030251D01*
X0372332Y0029125D01*
X0374413Y0027044D01*
X0375539Y0024325D01*
X0375539Y0021382D01*
X0374413Y0018663D01*
X0372779Y0017029D01*
X0442245Y0017029D01*
X0440610Y0018663D01*
X0439484Y0021382D01*
X0439484Y0024325D01*
X0440610Y0027044D01*
X0442691Y0029125D01*
X0445410Y0030251D01*
X0448353Y0030251D01*
X0451072Y0029125D01*
X0453153Y0027044D01*
X0454280Y0024325D01*
X0454280Y0021382D01*
X0453153Y0018663D01*
X0451519Y0017029D01*
X0522884Y0017029D01*
X0522772Y0017075D01*
X0522043Y0017496D01*
X0521374Y0018009D01*
X0520778Y0018605D01*
X0520265Y0019274D01*
X0519844Y0020004D01*
X0519521Y0020783D01*
X0519303Y0021597D01*
X0519200Y0022377D01*
X0525146Y0022377D01*
X0525146Y0023330D01*
X0525146Y0029275D01*
X0524365Y0029173D01*
X0523551Y0028955D01*
X0522772Y0028632D01*
X0522043Y0028211D01*
X0521374Y0027698D01*
X0520778Y0027102D01*
X0520265Y0026433D01*
X0519844Y0025703D01*
X0519521Y0024925D01*
X0519303Y0024110D01*
X0519200Y0023330D01*
X0525146Y0023330D01*
X0526098Y0023330D01*
X0526098Y0029275D01*
X0526879Y0029173D01*
X0527693Y0028955D01*
X0528472Y0028632D01*
X0529202Y0028211D01*
X0529870Y0027698D01*
X0530466Y0027102D01*
X0530979Y0026433D01*
X0531401Y0025703D01*
X0531723Y0024925D01*
X0531941Y0024110D01*
X0532044Y0023330D01*
X0526098Y0023330D01*
X0526098Y0022377D01*
X0532044Y0022377D01*
X0531941Y0021597D01*
X0531723Y0020783D01*
X0531401Y0020004D01*
X0530979Y0019274D01*
X0530466Y0018605D01*
X0529870Y0018009D01*
X0529202Y0017496D01*
X0528472Y0017075D01*
X0528360Y0017029D01*
X0587549Y0017029D01*
X0587549Y0063453D01*
X0588695Y0067729D01*
X0588695Y0067729D01*
X0590908Y0071563D01*
X0590908Y0071563D01*
X0594039Y0074693D01*
X0594039Y0074693D01*
X0597873Y0076907D01*
X0597873Y0076907D01*
X0602149Y0078052D01*
X0650541Y0078052D01*
X0650541Y0379072D01*
X0602149Y0379072D01*
X0597873Y0380218D01*
X0597873Y0380218D01*
X0594039Y0382431D01*
X0594039Y0382431D01*
X0590908Y0385562D01*
X0590908Y0385562D01*
X0588695Y0389395D01*
X0588695Y0389395D01*
X0587549Y0393672D01*
X0587549Y0440096D01*
X0069994Y0440096D01*
X0069994Y0393672D01*
X0068848Y0389395D01*
X0068848Y0389395D01*
X0066635Y0385562D01*
X0066635Y0385562D01*
X0066635Y0385562D01*
X0063505Y0382431D01*
X0059671Y0380218D01*
X0055395Y0379072D01*
X0007002Y0379072D01*
X0007002Y0078052D01*
X0055395Y0078052D01*
X0059671Y0076907D01*
X0059671Y0076907D01*
X0063505Y0074693D01*
X0063505Y0074693D01*
X0066635Y0071563D01*
X0066635Y0071563D01*
X0068848Y0067729D01*
X0068848Y0067729D01*
X0069994Y0063453D01*
X0069994Y0062686D02*
X0141101Y0062686D01*
X0141398Y0061970D02*
X0142201Y0061167D01*
X0142201Y0037120D01*
X0142240Y0037025D01*
X0142240Y0034768D01*
X0143366Y0032049D01*
X0145447Y0029968D01*
X0148166Y0028842D01*
X0151109Y0028842D01*
X0153828Y0029968D01*
X0154631Y0030771D01*
X0223385Y0030771D01*
X0224188Y0029968D01*
X0226906Y0028842D01*
X0229849Y0028842D01*
X0232568Y0029968D01*
X0233371Y0030771D01*
X0302125Y0030771D01*
X0302928Y0029968D01*
X0305647Y0028842D01*
X0308590Y0028842D01*
X0311309Y0029968D01*
X0312111Y0030771D01*
X0380865Y0030771D01*
X0381668Y0029968D01*
X0384387Y0028842D01*
X0387330Y0028842D01*
X0390049Y0029968D01*
X0390852Y0030771D01*
X0459605Y0030771D01*
X0460408Y0029968D01*
X0463127Y0028842D01*
X0466070Y0028842D01*
X0468789Y0029968D01*
X0469592Y0030771D01*
X0480056Y0030771D01*
X0482066Y0031603D01*
X0489350Y0038887D01*
X0490888Y0040425D01*
X0491720Y0042435D01*
X0491720Y0097109D01*
X0514899Y0097109D01*
X0516909Y0097942D01*
X0518447Y0099480D01*
X0519280Y0101490D01*
X0519280Y0103666D01*
X0518447Y0105676D01*
X0516909Y0107214D01*
X0514899Y0108046D01*
X0491720Y0108046D01*
X0491720Y0135746D01*
X0504265Y0148291D01*
X0554269Y0148291D01*
X0556279Y0149123D01*
X0557817Y0150661D01*
X0581439Y0174283D01*
X0582272Y0176293D01*
X0582272Y0228531D01*
X0589404Y0228531D01*
X0590862Y0229135D01*
X0594799Y0233072D01*
X0595916Y0234188D01*
X0596520Y0235647D01*
X0596520Y0254942D01*
X0595916Y0256401D01*
X0594799Y0257517D01*
X0593341Y0258121D01*
X0582272Y0258121D01*
X0582272Y0308390D01*
X0581439Y0310400D01*
X0576663Y0315176D01*
X0587297Y0325810D01*
X0630650Y0325810D01*
X0630129Y0324552D01*
X0630129Y0322257D01*
X0631007Y0320137D01*
X0631677Y0319468D01*
X0631007Y0318798D01*
X0630129Y0316678D01*
X0630129Y0314383D01*
X0631007Y0312263D01*
X0632630Y0310640D01*
X0634750Y0309762D01*
X0637045Y0309762D01*
X0639165Y0310640D01*
X0640788Y0312263D01*
X0641666Y0314383D01*
X0641666Y0316678D01*
X0640788Y0318798D01*
X0640119Y0319468D01*
X0640788Y0320137D01*
X0641666Y0322257D01*
X0641666Y0324552D01*
X0640788Y0326672D01*
X0640119Y0327342D01*
X0640788Y0328011D01*
X0641666Y0330131D01*
X0641666Y0332426D01*
X0640788Y0334546D01*
X0639434Y0335901D01*
X0639559Y0336026D01*
X0640003Y0336637D01*
X0640346Y0337310D01*
X0640579Y0338029D01*
X0640698Y0338775D01*
X0640698Y0339153D01*
X0640698Y0339531D01*
X0640579Y0340277D01*
X0640346Y0340995D01*
X0640003Y0341668D01*
X0639559Y0342280D01*
X0639025Y0342814D01*
X0638413Y0343258D01*
X0637740Y0343601D01*
X0637022Y0343835D01*
X0636275Y0343953D01*
X0635898Y0343953D01*
X0635898Y0339153D01*
X0640698Y0339153D01*
X0635898Y0339153D01*
X0635898Y0339153D01*
X0635898Y0339153D01*
X0635898Y0343953D01*
X0635520Y0343953D01*
X0634774Y0343835D01*
X0634055Y0343601D01*
X0633382Y0343258D01*
X0632771Y0342814D01*
X0632236Y0342280D01*
X0631792Y0341668D01*
X0631449Y0340995D01*
X0631216Y0340277D01*
X0631098Y0339531D01*
X0631098Y0339153D01*
X0635898Y0339153D01*
X0635898Y0339153D01*
X0631098Y0339153D01*
X0631098Y0338775D01*
X0631216Y0338029D01*
X0631449Y0337310D01*
X0631736Y0336747D01*
X0583944Y0336747D01*
X0581934Y0335915D01*
X0566664Y0320645D01*
X0546839Y0320645D01*
X0546839Y0371382D01*
X0546006Y0373392D01*
X0544468Y0374930D01*
X0542458Y0375763D01*
X0540282Y0375763D01*
X0538272Y0374930D01*
X0536734Y0373392D01*
X0535902Y0371382D01*
X0535902Y0320645D01*
X0500328Y0320645D01*
X0487783Y0333190D01*
X0487783Y0402878D01*
X0486951Y0404888D01*
X0485413Y0406427D01*
X0473405Y0418434D01*
X0471395Y0419267D01*
X0469219Y0419267D01*
X0468012Y0418767D01*
X0414330Y0418767D01*
X0414239Y0418858D01*
X0412045Y0419767D01*
X0409671Y0419767D01*
X0408464Y0419267D01*
X0182211Y0419267D01*
X0180202Y0418434D01*
X0160320Y0398552D01*
X0158781Y0397014D01*
X0157949Y0395004D01*
X0157949Y0302278D01*
X0158781Y0300268D01*
X0178466Y0280583D01*
X0180005Y0279044D01*
X0182015Y0278212D01*
X0231434Y0278212D01*
X0233444Y0279044D01*
X0243053Y0288654D01*
X0243886Y0290663D01*
X0243886Y0306340D01*
X0243901Y0306355D01*
X0244886Y0308732D01*
X0244886Y0311306D01*
X0243901Y0313683D01*
X0242081Y0315503D01*
X0239704Y0316487D01*
X0237131Y0316487D01*
X0234753Y0315503D01*
X0232934Y0313683D01*
X0232796Y0313350D01*
X0232612Y0313602D01*
X0232000Y0314214D01*
X0231300Y0314723D01*
X0230529Y0315116D01*
X0229705Y0315383D01*
X0228850Y0315519D01*
X0228417Y0315519D01*
X0227984Y0315519D01*
X0227129Y0315383D01*
X0226306Y0315116D01*
X0225535Y0314723D01*
X0224834Y0314214D01*
X0224222Y0313602D01*
X0224039Y0313350D01*
X0223901Y0313683D01*
X0222081Y0315503D01*
X0219704Y0316487D01*
X0217131Y0316487D01*
X0214753Y0315503D01*
X0213417Y0314167D01*
X0212081Y0315503D01*
X0209704Y0316487D01*
X0207131Y0316487D01*
X0204753Y0315503D01*
X0202934Y0313683D01*
X0201949Y0311306D01*
X0201949Y0308732D01*
X0202934Y0306355D01*
X0204753Y0304535D01*
X0207131Y0303550D01*
X0209704Y0303550D01*
X0212081Y0304535D01*
X0213417Y0305871D01*
X0214753Y0304535D01*
X0217131Y0303550D01*
X0219704Y0303550D01*
X0222081Y0304535D01*
X0223901Y0306355D01*
X0224039Y0306688D01*
X0224222Y0306436D01*
X0224834Y0305824D01*
X0225535Y0305315D01*
X0226306Y0304922D01*
X0227129Y0304654D01*
X0227984Y0304519D01*
X0228417Y0304519D01*
X0228417Y0310019D01*
X0228417Y0315519D01*
X0228417Y0310019D01*
X0228417Y0310019D01*
X0228417Y0310019D01*
X0228417Y0304519D01*
X0228850Y0304519D01*
X0229705Y0304654D01*
X0230529Y0304922D01*
X0231300Y0305315D01*
X0232000Y0305824D01*
X0232612Y0306436D01*
X0232796Y0306688D01*
X0232934Y0306355D01*
X0232949Y0306340D01*
X0232949Y0294016D01*
X0228081Y0289149D01*
X0185367Y0289149D01*
X0168886Y0305630D01*
X0168886Y0391651D01*
X0185564Y0408330D01*
X0405394Y0408330D01*
X0404890Y0407112D01*
X0404890Y0404737D01*
X0405798Y0402544D01*
X0406355Y0401987D01*
X0405798Y0401431D01*
X0404890Y0399238D01*
X0404890Y0396863D01*
X0405798Y0394670D01*
X0406355Y0394113D01*
X0405798Y0393557D01*
X0404890Y0391364D01*
X0404890Y0388989D01*
X0405798Y0386795D01*
X0406355Y0386239D01*
X0405798Y0385683D01*
X0404890Y0383490D01*
X0404890Y0381115D01*
X0405798Y0378921D01*
X0406355Y0378365D01*
X0405798Y0377809D01*
X0404890Y0375616D01*
X0404890Y0373241D01*
X0405798Y0371047D01*
X0406355Y0370491D01*
X0405798Y0369935D01*
X0404890Y0367742D01*
X0404890Y0365367D01*
X0405798Y0363173D01*
X0406355Y0362617D01*
X0405798Y0362061D01*
X0404890Y0359868D01*
X0404890Y0357493D01*
X0405798Y0355299D01*
X0406355Y0354743D01*
X0405798Y0354187D01*
X0404890Y0351994D01*
X0404890Y0349619D01*
X0405798Y0347425D01*
X0407040Y0346184D01*
X0406582Y0345553D01*
X0406225Y0344852D01*
X0405981Y0344103D01*
X0405858Y0343326D01*
X0405858Y0342932D01*
X0405858Y0342539D01*
X0405981Y0341761D01*
X0406225Y0341013D01*
X0406582Y0340312D01*
X0407044Y0339675D01*
X0407601Y0339118D01*
X0408238Y0338656D01*
X0408939Y0338299D01*
X0409687Y0338055D01*
X0410465Y0337932D01*
X0410858Y0337932D01*
X0410858Y0342932D01*
X0410858Y0342932D01*
X0405858Y0342932D01*
X0410858Y0342932D01*
X0410858Y0342932D01*
X0410858Y0337932D01*
X0411252Y0337932D01*
X0412029Y0338055D01*
X0412778Y0338299D01*
X0413479Y0338656D01*
X0414116Y0339118D01*
X0414672Y0339675D01*
X0415135Y0340312D01*
X0415492Y0341013D01*
X0415735Y0341761D01*
X0415858Y0342539D01*
X0415858Y0342932D01*
X0410858Y0342932D01*
X0410858Y0342932D01*
X0415858Y0342932D01*
X0415858Y0343326D01*
X0415735Y0344103D01*
X0415492Y0344852D01*
X0415135Y0345553D01*
X0414676Y0346184D01*
X0415918Y0347425D01*
X0416827Y0349619D01*
X0416827Y0351994D01*
X0415918Y0354187D01*
X0415362Y0354743D01*
X0415918Y0355299D01*
X0416827Y0357493D01*
X0416827Y0359868D01*
X0415918Y0362061D01*
X0415362Y0362617D01*
X0415918Y0363173D01*
X0416827Y0365367D01*
X0416827Y0367742D01*
X0415918Y0369935D01*
X0415362Y0370491D01*
X0415918Y0371047D01*
X0416827Y0373241D01*
X0416827Y0375616D01*
X0415918Y0377809D01*
X0415362Y0378365D01*
X0415918Y0378921D01*
X0416827Y0381115D01*
X0416827Y0383490D01*
X0415918Y0385683D01*
X0415362Y0386239D01*
X0415918Y0386795D01*
X0416827Y0388989D01*
X0416827Y0391364D01*
X0415918Y0393557D01*
X0415362Y0394113D01*
X0415918Y0394670D01*
X0416827Y0396863D01*
X0416827Y0399238D01*
X0415918Y0401431D01*
X0415362Y0401987D01*
X0415918Y0402544D01*
X0416827Y0404737D01*
X0416827Y0407112D01*
X0416115Y0408830D01*
X0467542Y0408830D01*
X0476846Y0399525D01*
X0476846Y0329837D01*
X0477679Y0327827D01*
X0494965Y0310540D01*
X0496975Y0309708D01*
X0566664Y0309708D01*
X0571335Y0305037D01*
X0571335Y0259583D01*
X0570112Y0260090D01*
X0560266Y0260090D01*
X0558807Y0259486D01*
X0557691Y0258369D01*
X0557118Y0256987D01*
X0556545Y0258369D01*
X0555429Y0259486D01*
X0553970Y0260090D01*
X0544518Y0260090D01*
X0543059Y0259486D01*
X0541943Y0258369D01*
X0541695Y0258121D01*
X0524833Y0258121D01*
X0523374Y0257517D01*
X0522258Y0256401D01*
X0521654Y0254942D01*
X0521654Y0235647D01*
X0522258Y0234188D01*
X0523374Y0233072D01*
X0527311Y0229135D01*
X0528770Y0228531D01*
X0529465Y0228531D01*
X0529465Y0220052D01*
X0522321Y0212909D01*
X0355694Y0212909D01*
X0352488Y0216115D01*
X0352488Y0350515D01*
X0358360Y0350515D01*
X0358166Y0350047D01*
X0358166Y0347394D01*
X0359181Y0344943D01*
X0360404Y0343720D01*
X0359181Y0342498D01*
X0358166Y0340047D01*
X0358166Y0337394D01*
X0359181Y0334943D01*
X0361057Y0333067D01*
X0361102Y0333049D01*
X0360487Y0332434D01*
X0359960Y0331708D01*
X0359552Y0330909D01*
X0359275Y0330055D01*
X0359135Y0329169D01*
X0359135Y0328721D01*
X0364835Y0328721D01*
X0370535Y0328721D01*
X0370535Y0329169D01*
X0370394Y0330055D01*
X0370117Y0330909D01*
X0369710Y0331708D01*
X0369182Y0332434D01*
X0368567Y0333049D01*
X0368612Y0333067D01*
X0370488Y0334943D01*
X0371503Y0337394D01*
X0371503Y0340047D01*
X0370488Y0342498D01*
X0369265Y0343720D01*
X0370488Y0344943D01*
X0371503Y0347394D01*
X0371503Y0350047D01*
X0370488Y0352498D01*
X0370185Y0352801D01*
X0371353Y0353970D01*
X0372566Y0356898D01*
X0372566Y0360068D01*
X0371353Y0362997D01*
X0369111Y0365239D01*
X0366183Y0366452D01*
X0346872Y0366452D01*
X0343943Y0365239D01*
X0340006Y0361302D01*
X0337764Y0359060D01*
X0336551Y0356131D01*
X0336551Y0211229D01*
X0337764Y0208300D01*
X0345638Y0200426D01*
X0347880Y0198185D01*
X0350809Y0196972D01*
X0527207Y0196972D01*
X0530136Y0198185D01*
X0541947Y0209996D01*
X0544188Y0212237D01*
X0545402Y0215166D01*
X0545402Y0228531D01*
X0550033Y0228531D01*
X0551492Y0229135D01*
X0552608Y0230251D01*
X0556545Y0234188D01*
X0557118Y0235571D01*
X0557691Y0234188D01*
X0561628Y0230251D01*
X0562744Y0229135D01*
X0564203Y0228531D01*
X0571335Y0228531D01*
X0571335Y0179646D01*
X0550916Y0159228D01*
X0500912Y0159228D01*
X0498902Y0158395D01*
X0497364Y0156857D01*
X0481616Y0141109D01*
X0480783Y0139099D01*
X0480783Y0045788D01*
X0476703Y0041708D01*
X0469592Y0041708D01*
X0468789Y0042511D01*
X0468098Y0042797D01*
X0468098Y0061167D01*
X0468901Y0061970D01*
X0470028Y0064689D01*
X0470028Y0067632D01*
X0468901Y0070351D01*
X0466820Y0072432D01*
X0464101Y0073558D01*
X0461158Y0073558D01*
X0458439Y0072432D01*
X0456359Y0070351D01*
X0455232Y0067632D01*
X0455232Y0064689D01*
X0456359Y0061970D01*
X0457161Y0061167D01*
X0457161Y0041708D01*
X0441057Y0041708D01*
X0441229Y0041779D01*
X0443310Y0043860D01*
X0444436Y0046579D01*
X0444436Y0049522D01*
X0443310Y0052241D01*
X0441229Y0054322D01*
X0438510Y0055448D01*
X0435567Y0055448D01*
X0433807Y0054719D01*
X0433807Y0055034D01*
X0432681Y0057753D01*
X0430600Y0059834D01*
X0430378Y0059926D01*
X0430378Y0135651D01*
X0429774Y0137109D01*
X0414813Y0152070D01*
X0413697Y0153186D01*
X0412390Y0153728D01*
X0460986Y0153728D01*
X0465751Y0148962D01*
X0465751Y0148877D01*
X0466475Y0147130D01*
X0467812Y0145793D01*
X0469559Y0145069D01*
X0471449Y0145069D01*
X0473196Y0145793D01*
X0474533Y0147130D01*
X0475257Y0148877D01*
X0475257Y0150767D01*
X0474533Y0152514D01*
X0473196Y0153851D01*
X0471449Y0154575D01*
X0471363Y0154575D01*
X0465994Y0159944D01*
X0464878Y0161060D01*
X0463419Y0161665D01*
X0354037Y0161665D01*
X0320929Y0194773D01*
X0320929Y0260848D01*
X0320325Y0262306D01*
X0305181Y0277450D01*
X0305181Y0331714D01*
X0304577Y0333172D01*
X0295665Y0342085D01*
X0294206Y0342689D01*
X0290297Y0342689D01*
X0289265Y0343720D01*
X0290488Y0344943D01*
X0291503Y0347394D01*
X0291503Y0350047D01*
X0290488Y0352498D01*
X0289265Y0353720D01*
X0290488Y0354943D01*
X0291503Y0357394D01*
X0291503Y0360047D01*
X0290488Y0362498D01*
X0288612Y0364374D01*
X0286161Y0365389D01*
X0283508Y0365389D01*
X0281057Y0364374D01*
X0279181Y0362498D01*
X0278166Y0360047D01*
X0278166Y0357394D01*
X0279181Y0354943D01*
X0280404Y0353720D01*
X0279181Y0352498D01*
X0278166Y0350047D01*
X0278166Y0347394D01*
X0279181Y0344943D01*
X0280404Y0343720D01*
X0279181Y0342498D01*
X0278166Y0340047D01*
X0278166Y0337394D01*
X0279181Y0334943D01*
X0280404Y0333720D01*
X0279181Y0332498D01*
X0278166Y0330047D01*
X0278166Y0327394D01*
X0279181Y0324943D01*
X0280404Y0323720D01*
X0279181Y0322498D01*
X0278166Y0320047D01*
X0278166Y0317394D01*
X0279181Y0314943D01*
X0280404Y0313720D01*
X0279181Y0312498D01*
X0278166Y0310047D01*
X0278166Y0307394D01*
X0279181Y0304943D01*
X0280404Y0303720D01*
X0279181Y0302498D01*
X0278166Y0300047D01*
X0278166Y0297394D01*
X0279181Y0294943D01*
X0280404Y0293720D01*
X0279181Y0292498D01*
X0278166Y0290047D01*
X0278166Y0287394D01*
X0279181Y0284943D01*
X0280404Y0283720D01*
X0279181Y0282498D01*
X0278166Y0280047D01*
X0278166Y0277394D01*
X0279181Y0274943D01*
X0280404Y0273720D01*
X0279181Y0272498D01*
X0278166Y0270047D01*
X0278166Y0267394D01*
X0279181Y0264943D01*
X0280404Y0263720D01*
X0279181Y0262498D01*
X0278166Y0260047D01*
X0278166Y0257394D01*
X0279181Y0254943D01*
X0280404Y0253720D01*
X0279181Y0252498D01*
X0278166Y0250047D01*
X0278166Y0247394D01*
X0279181Y0244943D01*
X0280404Y0243720D01*
X0279181Y0242498D01*
X0278166Y0240047D01*
X0278166Y0237394D01*
X0279181Y0234943D01*
X0280404Y0233720D01*
X0279181Y0232498D01*
X0278166Y0230047D01*
X0278166Y0227394D01*
X0279181Y0224943D01*
X0281057Y0223067D01*
X0283508Y0222052D01*
X0286161Y0222052D01*
X0288612Y0223067D01*
X0290488Y0224943D01*
X0291503Y0227394D01*
X0291503Y0230047D01*
X0290488Y0232498D01*
X0289265Y0233720D01*
X0290488Y0234943D01*
X0291503Y0237394D01*
X0291503Y0240047D01*
X0290488Y0242498D01*
X0289265Y0243720D01*
X0290297Y0244752D01*
X0295159Y0244752D01*
X0297244Y0242666D01*
X0297244Y0184466D01*
X0297848Y0183007D01*
X0298965Y0181891D01*
X0343701Y0137155D01*
X0343701Y0059926D01*
X0343479Y0059834D01*
X0341398Y0057753D01*
X0340272Y0055034D01*
X0340272Y0052091D01*
X0341398Y0049372D01*
X0343479Y0047291D01*
X0346198Y0046165D01*
X0348040Y0046165D01*
X0348969Y0045236D01*
X0350367Y0043838D01*
X0352193Y0043082D01*
X0352805Y0043082D01*
X0354108Y0041779D01*
X0354280Y0041708D01*
X0312111Y0041708D01*
X0311309Y0042511D01*
X0310618Y0042797D01*
X0310618Y0061167D01*
X0311421Y0061970D01*
X0312547Y0064689D01*
X0312547Y0067632D01*
X0311421Y0070351D01*
X0309340Y0072432D01*
X0306621Y0073558D01*
X0303678Y0073558D01*
X0300959Y0072432D01*
X0298878Y0070351D01*
X0297752Y0067632D01*
X0297752Y0064689D01*
X0298878Y0061970D01*
X0299681Y0061167D01*
X0299681Y0041708D01*
X0283577Y0041708D01*
X0283749Y0041779D01*
X0285830Y0043860D01*
X0286956Y0046579D01*
X0286956Y0049522D01*
X0285830Y0052241D01*
X0283749Y0054322D01*
X0281030Y0055448D01*
X0278087Y0055448D01*
X0276327Y0054719D01*
X0276327Y0055034D01*
X0275201Y0057753D01*
X0273120Y0059834D01*
X0272898Y0059926D01*
X0272898Y0092344D01*
X0272293Y0093802D01*
X0261270Y0104826D01*
X0260153Y0105942D01*
X0258695Y0106546D01*
X0204431Y0106546D01*
X0202819Y0108159D01*
X0202819Y0126989D01*
X0202215Y0128448D01*
X0190404Y0140259D01*
X0189287Y0141375D01*
X0187829Y0141980D01*
X0130737Y0141980D01*
X0130676Y0142040D01*
X0128930Y0142764D01*
X0127039Y0142764D01*
X0125292Y0142040D01*
X0123955Y0140703D01*
X0123231Y0138956D01*
X0123231Y0137674D01*
X0122802Y0138103D01*
X0121056Y0138827D01*
X0119165Y0138827D01*
X0117418Y0138103D01*
X0116081Y0136766D01*
X0115357Y0135019D01*
X0115357Y0133129D01*
X0116081Y0131382D01*
X0117418Y0130045D01*
X0119165Y0129321D01*
X0119251Y0129321D01*
X0121799Y0126773D01*
X0123258Y0126169D01*
X0181459Y0126169D01*
X0186220Y0121407D01*
X0186220Y0059926D01*
X0185999Y0059834D01*
X0183918Y0057753D01*
X0182791Y0055034D01*
X0182791Y0052091D01*
X0183918Y0049372D01*
X0185999Y0047291D01*
X0188717Y0046165D01*
X0190560Y0046165D01*
X0191489Y0045236D01*
X0192886Y0043838D01*
X0194712Y0043082D01*
X0195325Y0043082D01*
X0196628Y0041779D01*
X0196799Y0041708D01*
X0154631Y0041708D01*
X0153828Y0042511D01*
X0153138Y0042797D01*
X0153138Y0061167D01*
X0153941Y0061970D01*
X0155067Y0064689D01*
X0155067Y0067632D01*
X0153941Y0070351D01*
X0151860Y0072432D01*
X0149141Y0073558D01*
X0146198Y0073558D01*
X0143479Y0072432D01*
X0141398Y0070351D01*
X0140272Y0067632D01*
X0140272Y0064689D01*
X0141398Y0061970D01*
X0142201Y0060687D02*
X0113578Y0060687D01*
X0112920Y0060960D02*
X0109977Y0060960D01*
X0107258Y0059834D01*
X0105177Y0057753D01*
X0104051Y0055034D01*
X0104051Y0052091D01*
X0105177Y0049372D01*
X0107258Y0047291D01*
X0109977Y0046165D01*
X0111820Y0046165D01*
X0112749Y0045236D01*
X0114146Y0043838D01*
X0115972Y0043082D01*
X0116585Y0043082D01*
X0117888Y0041779D01*
X0120607Y0040653D01*
X0123550Y0040653D01*
X0126268Y0041779D01*
X0128349Y0043860D01*
X0129476Y0046579D01*
X0129476Y0049522D01*
X0128349Y0052241D01*
X0126268Y0054322D01*
X0123550Y0055448D01*
X0120607Y0055448D01*
X0118846Y0054719D01*
X0118846Y0055034D01*
X0117720Y0057753D01*
X0115639Y0059834D01*
X0112920Y0060960D01*
X0109319Y0060687D02*
X0069994Y0060687D01*
X0069994Y0058689D02*
X0106114Y0058689D01*
X0104737Y0056690D02*
X0069994Y0056690D01*
X0069994Y0054692D02*
X0104051Y0054692D01*
X0104051Y0052693D02*
X0069994Y0052693D01*
X0069994Y0050695D02*
X0104629Y0050695D01*
X0105853Y0048696D02*
X0069994Y0048696D01*
X0069994Y0046698D02*
X0108690Y0046698D01*
X0112749Y0045236D02*
X0112749Y0045236D01*
X0113285Y0044699D02*
X0069994Y0044699D01*
X0069994Y0042701D02*
X0116966Y0042701D01*
X0120487Y0040702D02*
X0069994Y0040702D01*
X0069994Y0038704D02*
X0142201Y0038704D01*
X0142201Y0040702D02*
X0123669Y0040702D01*
X0127190Y0042701D02*
X0142201Y0042701D01*
X0142201Y0044699D02*
X0128697Y0044699D01*
X0129476Y0046698D02*
X0142201Y0046698D01*
X0142201Y0048696D02*
X0129476Y0048696D01*
X0128990Y0050695D02*
X0142201Y0050695D01*
X0142201Y0052693D02*
X0127897Y0052693D01*
X0125375Y0054692D02*
X0142201Y0054692D01*
X0142201Y0056690D02*
X0118160Y0056690D01*
X0116784Y0058689D02*
X0142201Y0058689D01*
X0140274Y0064684D02*
X0069664Y0064684D01*
X0069129Y0066683D02*
X0140272Y0066683D01*
X0140706Y0068681D02*
X0068298Y0068681D01*
X0067145Y0070680D02*
X0141727Y0070680D01*
X0144073Y0072678D02*
X0065519Y0072678D01*
X0063521Y0074677D02*
X0186220Y0074677D01*
X0186220Y0076675D02*
X0060071Y0076675D01*
X0075509Y0088938D02*
X0077660Y0085719D01*
X0080880Y0083568D01*
X0084677Y0082812D01*
X0088475Y0083568D01*
X0091694Y0085719D01*
X0093845Y0088938D01*
X0094600Y0092735D01*
X0093845Y0096533D01*
X0091694Y0099752D01*
X0088475Y0101903D01*
X0084677Y0102659D01*
X0080880Y0101903D01*
X0077660Y0099752D01*
X0075509Y0096533D01*
X0074754Y0092735D01*
X0075509Y0088938D01*
X0075691Y0088666D02*
X0007002Y0088666D01*
X0007002Y0086668D02*
X0077026Y0086668D01*
X0079231Y0084669D02*
X0007002Y0084669D01*
X0007002Y0082671D02*
X0186220Y0082671D01*
X0186220Y0084669D02*
X0090124Y0084669D01*
X0092328Y0086668D02*
X0186220Y0086668D01*
X0186220Y0088666D02*
X0093664Y0088666D01*
X0094189Y0090665D02*
X0186220Y0090665D01*
X0186220Y0092663D02*
X0094586Y0092663D01*
X0094217Y0094662D02*
X0186220Y0094662D01*
X0186220Y0096660D02*
X0093760Y0096660D01*
X0092424Y0098659D02*
X0186220Y0098659D01*
X0186220Y0100657D02*
X0090339Y0100657D01*
X0084691Y0102656D02*
X0186220Y0102656D01*
X0186220Y0104655D02*
X0007002Y0104655D01*
X0007002Y0106653D02*
X0186220Y0106653D01*
X0186220Y0108652D02*
X0007002Y0108652D01*
X0007002Y0110650D02*
X0186220Y0110650D01*
X0186220Y0112649D02*
X0007002Y0112649D01*
X0007002Y0114647D02*
X0186220Y0114647D01*
X0186220Y0116646D02*
X0007002Y0116646D01*
X0007002Y0118644D02*
X0186220Y0118644D01*
X0186220Y0120643D02*
X0007002Y0120643D01*
X0007002Y0122641D02*
X0184986Y0122641D01*
X0182987Y0124640D02*
X0007002Y0124640D01*
X0007002Y0126638D02*
X0122124Y0126638D01*
X0119935Y0128637D02*
X0007002Y0128637D01*
X0007002Y0130635D02*
X0116828Y0130635D01*
X0115562Y0132634D02*
X0007002Y0132634D01*
X0007002Y0134632D02*
X0115357Y0134632D01*
X0116025Y0136631D02*
X0007002Y0136631D01*
X0007002Y0138629D02*
X0118688Y0138629D01*
X0121533Y0138629D02*
X0123231Y0138629D01*
X0123924Y0140628D02*
X0007002Y0140628D01*
X0007002Y0142626D02*
X0126707Y0142626D01*
X0129262Y0142626D02*
X0338229Y0142626D01*
X0340228Y0140628D02*
X0190035Y0140628D01*
X0192033Y0138629D02*
X0342226Y0138629D01*
X0343701Y0136631D02*
X0194032Y0136631D01*
X0196031Y0134632D02*
X0343701Y0134632D01*
X0343701Y0132634D02*
X0198029Y0132634D01*
X0200028Y0130635D02*
X0343701Y0130635D01*
X0343701Y0128637D02*
X0202026Y0128637D01*
X0202819Y0126638D02*
X0343701Y0126638D01*
X0343701Y0124640D02*
X0202819Y0124640D01*
X0202819Y0122641D02*
X0343701Y0122641D01*
X0343701Y0120643D02*
X0202819Y0120643D01*
X0202819Y0118644D02*
X0343701Y0118644D01*
X0343701Y0116646D02*
X0202819Y0116646D01*
X0202819Y0114647D02*
X0343701Y0114647D01*
X0343701Y0112649D02*
X0202819Y0112649D01*
X0202819Y0110650D02*
X0343701Y0110650D01*
X0343701Y0108652D02*
X0202819Y0108652D01*
X0204325Y0106653D02*
X0343701Y0106653D01*
X0343701Y0104655D02*
X0261441Y0104655D01*
X0263440Y0102656D02*
X0343701Y0102656D01*
X0343701Y0100657D02*
X0265438Y0100657D01*
X0267437Y0098659D02*
X0343701Y0098659D01*
X0343701Y0096660D02*
X0269435Y0096660D01*
X0271434Y0094662D02*
X0343701Y0094662D01*
X0343701Y0092663D02*
X0272765Y0092663D01*
X0272898Y0090665D02*
X0343701Y0090665D01*
X0343701Y0088666D02*
X0272898Y0088666D01*
X0272898Y0086668D02*
X0343701Y0086668D01*
X0343701Y0084669D02*
X0272898Y0084669D01*
X0272898Y0082671D02*
X0343701Y0082671D01*
X0343701Y0080672D02*
X0272898Y0080672D01*
X0272898Y0078674D02*
X0343701Y0078674D01*
X0343701Y0076675D02*
X0272898Y0076675D01*
X0272898Y0074677D02*
X0343701Y0074677D01*
X0343701Y0072678D02*
X0308745Y0072678D01*
X0311092Y0070680D02*
X0343701Y0070680D01*
X0343701Y0068681D02*
X0312113Y0068681D01*
X0312547Y0066683D02*
X0343701Y0066683D01*
X0343701Y0064684D02*
X0312545Y0064684D01*
X0311717Y0062686D02*
X0343701Y0062686D01*
X0343701Y0060687D02*
X0310618Y0060687D01*
X0310618Y0058689D02*
X0342334Y0058689D01*
X0340958Y0056690D02*
X0310618Y0056690D01*
X0310618Y0054692D02*
X0340272Y0054692D01*
X0340272Y0052693D02*
X0310618Y0052693D01*
X0310618Y0050695D02*
X0340850Y0050695D01*
X0342073Y0048696D02*
X0310618Y0048696D01*
X0310618Y0046698D02*
X0344911Y0046698D01*
X0349506Y0044699D02*
X0310618Y0044699D01*
X0310850Y0042701D02*
X0353186Y0042701D01*
X0362317Y0041708D02*
X0362489Y0041779D01*
X0364570Y0043860D01*
X0365696Y0046579D01*
X0365696Y0049522D01*
X0364570Y0052241D01*
X0362489Y0054322D01*
X0359770Y0055448D01*
X0356827Y0055448D01*
X0355067Y0054719D01*
X0355067Y0055034D01*
X0353941Y0057753D01*
X0351860Y0059834D01*
X0351638Y0059926D01*
X0351638Y0139588D01*
X0351034Y0141046D01*
X0305181Y0186899D01*
X0305181Y0188251D01*
X0305722Y0186944D01*
X0306839Y0185828D01*
X0346209Y0146458D01*
X0347667Y0145854D01*
X0349246Y0145854D01*
X0409805Y0145854D01*
X0422441Y0133218D01*
X0422441Y0059926D01*
X0422219Y0059834D01*
X0420138Y0057753D01*
X0419012Y0055034D01*
X0419012Y0052091D01*
X0420138Y0049372D01*
X0422219Y0047291D01*
X0424938Y0046165D01*
X0426781Y0046165D01*
X0427709Y0045236D01*
X0429107Y0043838D01*
X0430933Y0043082D01*
X0431545Y0043082D01*
X0432848Y0041779D01*
X0433020Y0041708D01*
X0390852Y0041708D01*
X0390049Y0042511D01*
X0389358Y0042797D01*
X0389358Y0061167D01*
X0390161Y0061970D01*
X0391287Y0064689D01*
X0391287Y0067632D01*
X0390161Y0070351D01*
X0388080Y0072432D01*
X0385361Y0073558D01*
X0382418Y0073558D01*
X0379699Y0072432D01*
X0377618Y0070351D01*
X0376492Y0067632D01*
X0376492Y0064689D01*
X0377618Y0061970D01*
X0378421Y0061167D01*
X0378421Y0041708D01*
X0362317Y0041708D01*
X0363411Y0042701D02*
X0378421Y0042701D01*
X0378421Y0044699D02*
X0364918Y0044699D01*
X0365696Y0046698D02*
X0378421Y0046698D01*
X0378421Y0048696D02*
X0365696Y0048696D01*
X0365210Y0050695D02*
X0378421Y0050695D01*
X0378421Y0052693D02*
X0364118Y0052693D01*
X0361596Y0054692D02*
X0378421Y0054692D01*
X0378421Y0056690D02*
X0354381Y0056690D01*
X0353005Y0058689D02*
X0378421Y0058689D01*
X0378421Y0060687D02*
X0351638Y0060687D01*
X0351638Y0062686D02*
X0377322Y0062686D01*
X0376494Y0064684D02*
X0351638Y0064684D01*
X0351638Y0066683D02*
X0376492Y0066683D01*
X0376927Y0068681D02*
X0351638Y0068681D01*
X0351638Y0070680D02*
X0377947Y0070680D01*
X0380294Y0072678D02*
X0351638Y0072678D01*
X0351638Y0074677D02*
X0422441Y0074677D01*
X0422441Y0076675D02*
X0351638Y0076675D01*
X0351638Y0078674D02*
X0422441Y0078674D01*
X0422441Y0080672D02*
X0351638Y0080672D01*
X0351638Y0082671D02*
X0422441Y0082671D01*
X0422441Y0084669D02*
X0351638Y0084669D01*
X0351638Y0086668D02*
X0422441Y0086668D01*
X0422441Y0088666D02*
X0351638Y0088666D01*
X0351638Y0090665D02*
X0422441Y0090665D01*
X0422441Y0092663D02*
X0351638Y0092663D01*
X0351638Y0094662D02*
X0422441Y0094662D01*
X0422441Y0096660D02*
X0351638Y0096660D01*
X0351638Y0098659D02*
X0422441Y0098659D01*
X0422441Y0100657D02*
X0351638Y0100657D01*
X0351638Y0102656D02*
X0422441Y0102656D01*
X0422441Y0104655D02*
X0351638Y0104655D01*
X0351638Y0106653D02*
X0422441Y0106653D01*
X0422441Y0108652D02*
X0351638Y0108652D01*
X0351638Y0110650D02*
X0422441Y0110650D01*
X0422441Y0112649D02*
X0351638Y0112649D01*
X0351638Y0114647D02*
X0422441Y0114647D01*
X0422441Y0116646D02*
X0351638Y0116646D01*
X0351638Y0118644D02*
X0422441Y0118644D01*
X0422441Y0120643D02*
X0351638Y0120643D01*
X0351638Y0122641D02*
X0422441Y0122641D01*
X0422441Y0124640D02*
X0351638Y0124640D01*
X0351638Y0126638D02*
X0422441Y0126638D01*
X0422441Y0128637D02*
X0351638Y0128637D01*
X0351638Y0130635D02*
X0422441Y0130635D01*
X0422441Y0132634D02*
X0351638Y0132634D01*
X0351638Y0134632D02*
X0421026Y0134632D01*
X0419028Y0136631D02*
X0351638Y0136631D01*
X0351638Y0138629D02*
X0417029Y0138629D01*
X0415031Y0140628D02*
X0351207Y0140628D01*
X0349454Y0142626D02*
X0413032Y0142626D01*
X0411034Y0144625D02*
X0347455Y0144625D01*
X0346043Y0146623D02*
X0345457Y0146623D01*
X0344045Y0148622D02*
X0343458Y0148622D01*
X0342046Y0150620D02*
X0341460Y0150620D01*
X0340048Y0152619D02*
X0339461Y0152619D01*
X0338049Y0154617D02*
X0337463Y0154617D01*
X0336051Y0156616D02*
X0335464Y0156616D01*
X0334052Y0158614D02*
X0333466Y0158614D01*
X0332054Y0160613D02*
X0331467Y0160613D01*
X0330055Y0162611D02*
X0329469Y0162611D01*
X0328057Y0164610D02*
X0327470Y0164610D01*
X0326058Y0166608D02*
X0325472Y0166608D01*
X0324060Y0168607D02*
X0323473Y0168607D01*
X0322061Y0170605D02*
X0321475Y0170605D01*
X0320063Y0172604D02*
X0319476Y0172604D01*
X0318064Y0174602D02*
X0317478Y0174602D01*
X0316066Y0176601D02*
X0315479Y0176601D01*
X0314067Y0178599D02*
X0313481Y0178599D01*
X0312068Y0180598D02*
X0311482Y0180598D01*
X0310070Y0182596D02*
X0309484Y0182596D01*
X0308071Y0184595D02*
X0307485Y0184595D01*
X0306073Y0186593D02*
X0305487Y0186593D01*
X0309087Y0189192D02*
X0309087Y0256121D01*
X0296487Y0268720D01*
X0284835Y0268720D01*
X0278166Y0268532D02*
X0007002Y0268532D01*
X0007002Y0266534D02*
X0278522Y0266534D01*
X0279589Y0264535D02*
X0007002Y0264535D01*
X0007002Y0262537D02*
X0279220Y0262537D01*
X0278370Y0260538D02*
X0007002Y0260538D01*
X0007002Y0258540D02*
X0278166Y0258540D01*
X0278519Y0256541D02*
X0007002Y0256541D01*
X0007002Y0254543D02*
X0279582Y0254543D01*
X0279228Y0252544D02*
X0007002Y0252544D01*
X0007002Y0250546D02*
X0278373Y0250546D01*
X0278166Y0248547D02*
X0007002Y0248547D01*
X0007002Y0246549D02*
X0278516Y0246549D01*
X0279574Y0244550D02*
X0007002Y0244550D01*
X0007002Y0242552D02*
X0279235Y0242552D01*
X0278376Y0240553D02*
X0007002Y0240553D01*
X0007002Y0238555D02*
X0278166Y0238555D01*
X0278513Y0236556D02*
X0007002Y0236556D01*
X0007002Y0234558D02*
X0279567Y0234558D01*
X0279243Y0232559D02*
X0007002Y0232559D01*
X0007002Y0230561D02*
X0278379Y0230561D01*
X0278166Y0228562D02*
X0007002Y0228562D01*
X0007002Y0226564D02*
X0278510Y0226564D01*
X0279559Y0224565D02*
X0007002Y0224565D01*
X0007002Y0222567D02*
X0282266Y0222567D01*
X0287404Y0222567D02*
X0297244Y0222567D01*
X0297244Y0224565D02*
X0290110Y0224565D01*
X0291159Y0226564D02*
X0297244Y0226564D01*
X0297244Y0228562D02*
X0291503Y0228562D01*
X0291290Y0230561D02*
X0297244Y0230561D01*
X0297244Y0232559D02*
X0290427Y0232559D01*
X0290103Y0234558D02*
X0297244Y0234558D01*
X0297244Y0236556D02*
X0291156Y0236556D01*
X0291503Y0238555D02*
X0297244Y0238555D01*
X0297244Y0240553D02*
X0291293Y0240553D01*
X0290434Y0242552D02*
X0297244Y0242552D01*
X0295360Y0244550D02*
X0290095Y0244550D01*
X0284835Y0248720D02*
X0296802Y0248720D01*
X0301213Y0244310D01*
X0301213Y0185255D01*
X0347669Y0138798D01*
X0347669Y0053562D01*
X0363537Y0028711D02*
X0294006Y0028711D01*
X0295810Y0026713D02*
X0361733Y0026713D01*
X0360905Y0024714D02*
X0296638Y0024714D01*
X0296799Y0022716D02*
X0360744Y0022716D01*
X0361020Y0020717D02*
X0296524Y0020717D01*
X0295696Y0018719D02*
X0361847Y0018719D01*
X0374436Y0018719D02*
X0440588Y0018719D01*
X0439760Y0020717D02*
X0375264Y0020717D01*
X0375539Y0022716D02*
X0439484Y0022716D01*
X0439645Y0024714D02*
X0375378Y0024714D01*
X0374550Y0026713D02*
X0440473Y0026713D01*
X0442278Y0028711D02*
X0372746Y0028711D01*
X0380926Y0030710D02*
X0312050Y0030710D01*
X0302186Y0030710D02*
X0233310Y0030710D01*
X0223446Y0030710D02*
X0154570Y0030710D01*
X0144706Y0030710D02*
X0069994Y0030710D01*
X0069994Y0032708D02*
X0143093Y0032708D01*
X0142266Y0034707D02*
X0069994Y0034707D01*
X0069994Y0036705D02*
X0142240Y0036705D01*
X0136526Y0028711D02*
X0206057Y0028711D01*
X0204253Y0026713D02*
X0138330Y0026713D01*
X0139158Y0024714D02*
X0203425Y0024714D01*
X0203264Y0022716D02*
X0139319Y0022716D01*
X0139043Y0020717D02*
X0203539Y0020717D01*
X0204367Y0018719D02*
X0138216Y0018719D01*
X0125627Y0018719D02*
X0069994Y0018719D01*
X0069994Y0020717D02*
X0124799Y0020717D01*
X0124524Y0022716D02*
X0069994Y0022716D01*
X0069994Y0024714D02*
X0124685Y0024714D01*
X0125513Y0026713D02*
X0069994Y0026713D01*
X0069994Y0028711D02*
X0127317Y0028711D01*
X0153370Y0042701D02*
X0195706Y0042701D01*
X0192025Y0044699D02*
X0153138Y0044699D01*
X0153138Y0046698D02*
X0187430Y0046698D01*
X0184593Y0048696D02*
X0153138Y0048696D01*
X0153138Y0050695D02*
X0183370Y0050695D01*
X0182791Y0052693D02*
X0153138Y0052693D01*
X0153138Y0054692D02*
X0182791Y0054692D01*
X0183478Y0056690D02*
X0153138Y0056690D01*
X0153138Y0058689D02*
X0184854Y0058689D01*
X0186220Y0060687D02*
X0153138Y0060687D01*
X0154237Y0062686D02*
X0186220Y0062686D01*
X0186220Y0064684D02*
X0155065Y0064684D01*
X0155067Y0066683D02*
X0186220Y0066683D01*
X0186220Y0068681D02*
X0154632Y0068681D01*
X0153612Y0070680D02*
X0186220Y0070680D01*
X0186220Y0072678D02*
X0151265Y0072678D01*
X0186220Y0078674D02*
X0007002Y0078674D01*
X0007002Y0080672D02*
X0186220Y0080672D01*
X0202787Y0102578D02*
X0198850Y0106515D01*
X0198850Y0126200D01*
X0187039Y0138011D01*
X0127984Y0138011D01*
X0124047Y0130137D02*
X0120110Y0134074D01*
X0124047Y0130137D02*
X0183102Y0130137D01*
X0190189Y0123050D01*
X0190189Y0053562D01*
X0191489Y0045236D02*
X0191489Y0045236D01*
X0215266Y0028711D02*
X0284797Y0028711D01*
X0282993Y0026713D02*
X0217070Y0026713D01*
X0217898Y0024714D02*
X0282165Y0024714D01*
X0282004Y0022716D02*
X0218059Y0022716D01*
X0217784Y0020717D02*
X0282279Y0020717D01*
X0283107Y0018719D02*
X0216956Y0018719D01*
X0268929Y0053562D02*
X0268929Y0091554D01*
X0257906Y0102578D01*
X0202787Y0102578D01*
X0206724Y0126200D02*
X0269717Y0126200D01*
X0277591Y0118326D01*
X0277591Y0102578D01*
X0305150Y0122263D02*
X0297276Y0130137D01*
X0285465Y0130137D01*
X0324240Y0156616D02*
X0007002Y0156616D01*
X0007002Y0158614D02*
X0322241Y0158614D01*
X0320243Y0160613D02*
X0007002Y0160613D01*
X0007002Y0162611D02*
X0318244Y0162611D01*
X0316246Y0164610D02*
X0007002Y0164610D01*
X0007002Y0166608D02*
X0314247Y0166608D01*
X0312249Y0168607D02*
X0007002Y0168607D01*
X0007002Y0170605D02*
X0310250Y0170605D01*
X0308252Y0172604D02*
X0007002Y0172604D01*
X0007002Y0174602D02*
X0306253Y0174602D01*
X0304254Y0176601D02*
X0007002Y0176601D01*
X0007002Y0178599D02*
X0302256Y0178599D01*
X0300257Y0180598D02*
X0007002Y0180598D01*
X0007002Y0182596D02*
X0298259Y0182596D01*
X0297244Y0184595D02*
X0007002Y0184595D01*
X0007002Y0186593D02*
X0297244Y0186593D01*
X0297244Y0188592D02*
X0007002Y0188592D01*
X0007002Y0190590D02*
X0297244Y0190590D01*
X0297244Y0192589D02*
X0007002Y0192589D01*
X0007002Y0194588D02*
X0297244Y0194588D01*
X0297244Y0196586D02*
X0007002Y0196586D01*
X0007002Y0198585D02*
X0297244Y0198585D01*
X0297244Y0200583D02*
X0007002Y0200583D01*
X0007002Y0202582D02*
X0297244Y0202582D01*
X0297244Y0204580D02*
X0007002Y0204580D01*
X0007002Y0206579D02*
X0297244Y0206579D01*
X0297244Y0208577D02*
X0007002Y0208577D01*
X0007002Y0210576D02*
X0297244Y0210576D01*
X0297244Y0212574D02*
X0007002Y0212574D01*
X0007002Y0214573D02*
X0297244Y0214573D01*
X0297244Y0216571D02*
X0007002Y0216571D01*
X0007002Y0218570D02*
X0297244Y0218570D01*
X0297244Y0220568D02*
X0007002Y0220568D01*
X0007002Y0270531D02*
X0278367Y0270531D01*
X0279213Y0272529D02*
X0007002Y0272529D01*
X0007002Y0274528D02*
X0279596Y0274528D01*
X0278525Y0276526D02*
X0007002Y0276526D01*
X0007002Y0278525D02*
X0181259Y0278525D01*
X0178526Y0280523D02*
X0007002Y0280523D01*
X0007002Y0282522D02*
X0176527Y0282522D01*
X0174529Y0284521D02*
X0007002Y0284521D01*
X0007002Y0286519D02*
X0172530Y0286519D01*
X0170531Y0288518D02*
X0007002Y0288518D01*
X0007002Y0290516D02*
X0168533Y0290516D01*
X0166534Y0292515D02*
X0007002Y0292515D01*
X0007002Y0294513D02*
X0164536Y0294513D01*
X0162537Y0296512D02*
X0007002Y0296512D01*
X0007002Y0298510D02*
X0160539Y0298510D01*
X0158682Y0300509D02*
X0007002Y0300509D01*
X0007002Y0302507D02*
X0157949Y0302507D01*
X0157949Y0304506D02*
X0007002Y0304506D01*
X0007002Y0306504D02*
X0157949Y0306504D01*
X0157949Y0308503D02*
X0007002Y0308503D01*
X0007002Y0310501D02*
X0157949Y0310501D01*
X0157949Y0312500D02*
X0007002Y0312500D01*
X0007002Y0314498D02*
X0157949Y0314498D01*
X0157949Y0316497D02*
X0007002Y0316497D01*
X0007002Y0318495D02*
X0157949Y0318495D01*
X0157949Y0320494D02*
X0007002Y0320494D01*
X0007002Y0322492D02*
X0157949Y0322492D01*
X0157949Y0324491D02*
X0007002Y0324491D01*
X0007002Y0326489D02*
X0157949Y0326489D01*
X0157949Y0328488D02*
X0007002Y0328488D01*
X0007002Y0330486D02*
X0157949Y0330486D01*
X0157949Y0332485D02*
X0007002Y0332485D01*
X0007002Y0334483D02*
X0157949Y0334483D01*
X0157949Y0336482D02*
X0007002Y0336482D01*
X0007002Y0338480D02*
X0157949Y0338480D01*
X0157949Y0340479D02*
X0007002Y0340479D01*
X0007002Y0342477D02*
X0157949Y0342477D01*
X0157949Y0344476D02*
X0007002Y0344476D01*
X0007002Y0346474D02*
X0157949Y0346474D01*
X0157949Y0348473D02*
X0007002Y0348473D01*
X0007002Y0350471D02*
X0157949Y0350471D01*
X0157949Y0352470D02*
X0007002Y0352470D01*
X0007002Y0354468D02*
X0084664Y0354468D01*
X0084677Y0354466D02*
X0088475Y0355221D01*
X0091694Y0357372D01*
X0093845Y0360592D01*
X0094600Y0364389D01*
X0093845Y0368186D01*
X0091694Y0371406D01*
X0088475Y0373557D01*
X0084677Y0374312D01*
X0080880Y0373557D01*
X0077660Y0371406D01*
X0075509Y0368186D01*
X0074754Y0364389D01*
X0075509Y0360592D01*
X0077660Y0357372D01*
X0080880Y0355221D01*
X0084677Y0354466D01*
X0084691Y0354468D02*
X0157949Y0354468D01*
X0157949Y0356467D02*
X0090339Y0356467D01*
X0092424Y0358465D02*
X0157949Y0358465D01*
X0157949Y0360464D02*
X0093760Y0360464D01*
X0094217Y0362462D02*
X0157949Y0362462D01*
X0157949Y0364461D02*
X0094586Y0364461D01*
X0094189Y0366459D02*
X0157949Y0366459D01*
X0157949Y0368458D02*
X0093664Y0368458D01*
X0092328Y0370457D02*
X0157949Y0370457D01*
X0157949Y0372455D02*
X0090124Y0372455D01*
X0079231Y0372455D02*
X0007002Y0372455D01*
X0007002Y0370457D02*
X0077026Y0370457D01*
X0075691Y0368458D02*
X0007002Y0368458D01*
X0007002Y0366459D02*
X0075166Y0366459D01*
X0074768Y0364461D02*
X0007002Y0364461D01*
X0007002Y0362462D02*
X0075137Y0362462D01*
X0075595Y0360464D02*
X0007002Y0360464D01*
X0007002Y0358465D02*
X0076930Y0358465D01*
X0079015Y0356467D02*
X0007002Y0356467D01*
X0007002Y0374454D02*
X0157949Y0374454D01*
X0157949Y0376452D02*
X0007002Y0376452D01*
X0007002Y0378451D02*
X0157949Y0378451D01*
X0157949Y0380449D02*
X0060071Y0380449D01*
X0063521Y0382448D02*
X0157949Y0382448D01*
X0157949Y0384446D02*
X0065519Y0384446D01*
X0067145Y0386445D02*
X0157949Y0386445D01*
X0157949Y0388443D02*
X0068298Y0388443D01*
X0069129Y0390442D02*
X0157949Y0390442D01*
X0157949Y0392440D02*
X0069664Y0392440D01*
X0069994Y0394439D02*
X0157949Y0394439D01*
X0158542Y0396437D02*
X0069994Y0396437D01*
X0069994Y0398436D02*
X0160203Y0398436D01*
X0162201Y0400434D02*
X0069994Y0400434D01*
X0069994Y0402433D02*
X0164200Y0402433D01*
X0166198Y0404431D02*
X0069994Y0404431D01*
X0069994Y0406430D02*
X0168197Y0406430D01*
X0170195Y0408428D02*
X0069994Y0408428D01*
X0069994Y0410427D02*
X0172194Y0410427D01*
X0174192Y0412425D02*
X0069994Y0412425D01*
X0069994Y0414424D02*
X0176191Y0414424D01*
X0178189Y0416422D02*
X0069994Y0416422D01*
X0069994Y0418421D02*
X0180188Y0418421D01*
X0183664Y0406430D02*
X0404890Y0406430D01*
X0405016Y0404431D02*
X0181666Y0404431D01*
X0179667Y0402433D02*
X0405909Y0402433D01*
X0405385Y0400434D02*
X0177669Y0400434D01*
X0175670Y0398436D02*
X0404890Y0398436D01*
X0405066Y0396437D02*
X0173672Y0396437D01*
X0171673Y0394439D02*
X0268062Y0394439D01*
X0268771Y0394732D02*
X0267024Y0394009D01*
X0265687Y0392672D01*
X0264964Y0390925D01*
X0264964Y0389034D01*
X0265687Y0387287D01*
X0265748Y0387227D01*
X0265748Y0365173D01*
X0265687Y0365113D01*
X0264964Y0363366D01*
X0264964Y0361475D01*
X0265687Y0359728D01*
X0267024Y0358391D01*
X0268771Y0357668D01*
X0270662Y0357668D01*
X0272409Y0358391D01*
X0273746Y0359728D01*
X0274469Y0361475D01*
X0274469Y0363366D01*
X0273746Y0365113D01*
X0273685Y0365173D01*
X0273685Y0387227D01*
X0273746Y0387287D01*
X0274469Y0389034D01*
X0274469Y0390925D01*
X0273746Y0392672D01*
X0272409Y0394009D01*
X0270662Y0394732D01*
X0268771Y0394732D01*
X0271371Y0394439D02*
X0406029Y0394439D01*
X0405336Y0392440D02*
X0273842Y0392440D01*
X0274469Y0390442D02*
X0404890Y0390442D01*
X0405116Y0388443D02*
X0274224Y0388443D01*
X0273685Y0386445D02*
X0406149Y0386445D01*
X0405286Y0384446D02*
X0273685Y0384446D01*
X0273685Y0382448D02*
X0404890Y0382448D01*
X0405166Y0380449D02*
X0273685Y0380449D01*
X0273685Y0378451D02*
X0406269Y0378451D01*
X0405236Y0376452D02*
X0273685Y0376452D01*
X0273685Y0374454D02*
X0404890Y0374454D01*
X0405215Y0372455D02*
X0273685Y0372455D01*
X0273685Y0370457D02*
X0406320Y0370457D01*
X0405187Y0368458D02*
X0273685Y0368458D01*
X0273685Y0366459D02*
X0404890Y0366459D01*
X0405265Y0364461D02*
X0369889Y0364461D01*
X0371575Y0362462D02*
X0406200Y0362462D01*
X0405137Y0360464D02*
X0372402Y0360464D01*
X0372566Y0358465D02*
X0404890Y0358465D01*
X0405315Y0356467D02*
X0372387Y0356467D01*
X0371560Y0354468D02*
X0406080Y0354468D01*
X0405087Y0352470D02*
X0370500Y0352470D01*
X0371327Y0350471D02*
X0404890Y0350471D01*
X0405365Y0348473D02*
X0371503Y0348473D01*
X0371122Y0346474D02*
X0380907Y0346474D01*
X0381198Y0346765D02*
X0379861Y0345428D01*
X0379137Y0343681D01*
X0379137Y0341790D01*
X0379861Y0340043D01*
X0381198Y0338706D01*
X0382944Y0337983D01*
X0383030Y0337983D01*
X0393453Y0327560D01*
X0394911Y0326956D01*
X0408696Y0326956D01*
X0408757Y0326895D01*
X0410503Y0326172D01*
X0412394Y0326172D01*
X0414141Y0326895D01*
X0415478Y0328232D01*
X0416202Y0329979D01*
X0416202Y0331870D01*
X0415478Y0333617D01*
X0414141Y0334954D01*
X0412394Y0335677D01*
X0410503Y0335677D01*
X0408757Y0334954D01*
X0408696Y0334893D01*
X0397345Y0334893D01*
X0388643Y0343595D01*
X0388643Y0343681D01*
X0387919Y0345428D01*
X0386582Y0346765D01*
X0384835Y0347488D01*
X0382944Y0347488D01*
X0381198Y0346765D01*
X0379466Y0344476D02*
X0370021Y0344476D01*
X0370496Y0342477D02*
X0379137Y0342477D01*
X0379680Y0340479D02*
X0371324Y0340479D01*
X0371503Y0338480D02*
X0381743Y0338480D01*
X0384531Y0336482D02*
X0371125Y0336482D01*
X0370028Y0334483D02*
X0386530Y0334483D01*
X0388528Y0332485D02*
X0369131Y0332485D01*
X0370254Y0330486D02*
X0390527Y0330486D01*
X0392525Y0328488D02*
X0370535Y0328488D01*
X0370535Y0328272D02*
X0370535Y0328720D01*
X0364835Y0328720D01*
X0364835Y0328721D01*
X0364835Y0328720D01*
X0359135Y0328720D01*
X0359135Y0328272D01*
X0359275Y0327386D01*
X0359552Y0326532D01*
X0359960Y0325733D01*
X0360487Y0325007D01*
X0361102Y0324392D01*
X0361057Y0324374D01*
X0359181Y0322498D01*
X0358166Y0320047D01*
X0358166Y0317394D01*
X0359181Y0314943D01*
X0360404Y0313720D01*
X0359181Y0312498D01*
X0358166Y0310047D01*
X0358166Y0307394D01*
X0359181Y0304943D01*
X0360404Y0303720D01*
X0359181Y0302498D01*
X0358166Y0300047D01*
X0358166Y0297394D01*
X0359181Y0294943D01*
X0360404Y0293720D01*
X0359181Y0292498D01*
X0358166Y0290047D01*
X0358166Y0287394D01*
X0359181Y0284943D01*
X0360404Y0283720D01*
X0359181Y0282498D01*
X0358166Y0280047D01*
X0358166Y0277394D01*
X0359181Y0274943D01*
X0360404Y0273720D01*
X0359181Y0272498D01*
X0358166Y0270047D01*
X0358166Y0267394D01*
X0359181Y0264943D01*
X0360404Y0263720D01*
X0359181Y0262498D01*
X0358166Y0260047D01*
X0358166Y0257394D01*
X0359181Y0254943D01*
X0360404Y0253720D01*
X0359181Y0252498D01*
X0358166Y0250047D01*
X0358166Y0247394D01*
X0359181Y0244943D01*
X0360404Y0243720D01*
X0359181Y0242498D01*
X0358166Y0240047D01*
X0358166Y0237394D01*
X0359181Y0234943D01*
X0360404Y0233720D01*
X0359181Y0232498D01*
X0358166Y0230047D01*
X0358166Y0227394D01*
X0359181Y0224943D01*
X0361057Y0223067D01*
X0363508Y0222052D01*
X0366161Y0222052D01*
X0368612Y0223067D01*
X0370488Y0224943D01*
X0371503Y0227394D01*
X0371503Y0230047D01*
X0370488Y0232498D01*
X0369265Y0233720D01*
X0370488Y0234943D01*
X0371503Y0237394D01*
X0371503Y0240047D01*
X0370488Y0242498D01*
X0369265Y0243720D01*
X0370488Y0244943D01*
X0371503Y0247394D01*
X0371503Y0250047D01*
X0370488Y0252498D01*
X0369265Y0253720D01*
X0370488Y0254943D01*
X0371503Y0257394D01*
X0371503Y0260047D01*
X0370488Y0262498D01*
X0369265Y0263720D01*
X0370297Y0264752D01*
X0432639Y0264752D01*
X0434255Y0263136D01*
X0434255Y0263050D01*
X0434979Y0261303D01*
X0436316Y0259966D01*
X0438062Y0259243D01*
X0439953Y0259243D01*
X0441700Y0259966D01*
X0443037Y0261303D01*
X0443761Y0263050D01*
X0443761Y0264941D01*
X0443037Y0266687D01*
X0441700Y0268024D01*
X0439953Y0268748D01*
X0439867Y0268748D01*
X0437647Y0270968D01*
X0436531Y0272085D01*
X0435072Y0272689D01*
X0370297Y0272689D01*
X0369265Y0273720D01*
X0370297Y0274752D01*
X0415152Y0274752D01*
X0416611Y0275356D01*
X0421571Y0280316D01*
X0422687Y0281432D01*
X0423291Y0282891D01*
X0423291Y0293848D01*
X0424119Y0294676D01*
X0424205Y0294676D01*
X0425952Y0295399D01*
X0427289Y0296736D01*
X0428013Y0298483D01*
X0428013Y0300374D01*
X0427289Y0302121D01*
X0425952Y0303458D01*
X0424205Y0304181D01*
X0422314Y0304181D01*
X0420568Y0303458D01*
X0419231Y0302121D01*
X0418507Y0300374D01*
X0418507Y0300288D01*
X0415959Y0297739D01*
X0415354Y0296281D01*
X0415354Y0294370D01*
X0414141Y0295584D01*
X0412394Y0296307D01*
X0410503Y0296307D01*
X0408757Y0295584D01*
X0407420Y0294247D01*
X0406774Y0292689D01*
X0370297Y0292689D01*
X0369265Y0293720D01*
X0370488Y0294943D01*
X0371503Y0297394D01*
X0371503Y0300047D01*
X0370488Y0302498D01*
X0369265Y0303720D01*
X0370488Y0304943D01*
X0371503Y0307394D01*
X0371503Y0310047D01*
X0370488Y0312498D01*
X0369265Y0313720D01*
X0370488Y0314943D01*
X0371503Y0317394D01*
X0371503Y0320047D01*
X0370488Y0322498D01*
X0368612Y0324374D01*
X0368567Y0324392D01*
X0369182Y0325007D01*
X0369710Y0325733D01*
X0370117Y0326532D01*
X0370394Y0327386D01*
X0370535Y0328272D01*
X0370095Y0326489D02*
X0409737Y0326489D01*
X0413161Y0326489D02*
X0479016Y0326489D01*
X0477405Y0328488D02*
X0415584Y0328488D01*
X0416202Y0330486D02*
X0476846Y0330486D01*
X0476846Y0332485D02*
X0415947Y0332485D01*
X0414611Y0334483D02*
X0476846Y0334483D01*
X0476846Y0336482D02*
X0395756Y0336482D01*
X0393757Y0338480D02*
X0408582Y0338480D01*
X0410858Y0338480D02*
X0410858Y0338480D01*
X0410858Y0340479D02*
X0410858Y0340479D01*
X0410858Y0342477D02*
X0410858Y0342477D01*
X0413134Y0338480D02*
X0476846Y0338480D01*
X0476846Y0340479D02*
X0415220Y0340479D01*
X0415849Y0342477D02*
X0476846Y0342477D01*
X0476846Y0344476D02*
X0415614Y0344476D01*
X0414967Y0346474D02*
X0476846Y0346474D01*
X0476846Y0348473D02*
X0416352Y0348473D01*
X0416827Y0350471D02*
X0476846Y0350471D01*
X0476846Y0352470D02*
X0416629Y0352470D01*
X0415637Y0354468D02*
X0476846Y0354468D01*
X0476846Y0356467D02*
X0416402Y0356467D01*
X0416827Y0358465D02*
X0476846Y0358465D01*
X0476846Y0360464D02*
X0416580Y0360464D01*
X0415517Y0362462D02*
X0476846Y0362462D01*
X0476846Y0364461D02*
X0416451Y0364461D01*
X0416827Y0366459D02*
X0476846Y0366459D01*
X0476846Y0368458D02*
X0416530Y0368458D01*
X0415397Y0370457D02*
X0476846Y0370457D01*
X0476846Y0372455D02*
X0416501Y0372455D01*
X0416827Y0374454D02*
X0476846Y0374454D01*
X0476846Y0376452D02*
X0416480Y0376452D01*
X0415447Y0378451D02*
X0476846Y0378451D01*
X0476846Y0380449D02*
X0416551Y0380449D01*
X0416827Y0382448D02*
X0476846Y0382448D01*
X0476846Y0384446D02*
X0416431Y0384446D01*
X0415567Y0386445D02*
X0476846Y0386445D01*
X0476846Y0388443D02*
X0416601Y0388443D01*
X0416827Y0390442D02*
X0476846Y0390442D01*
X0476846Y0392440D02*
X0416381Y0392440D01*
X0415687Y0394439D02*
X0476846Y0394439D01*
X0476846Y0396437D02*
X0416650Y0396437D01*
X0416827Y0398436D02*
X0476846Y0398436D01*
X0475938Y0400434D02*
X0416331Y0400434D01*
X0415807Y0402433D02*
X0473939Y0402433D01*
X0471941Y0404431D02*
X0416700Y0404431D01*
X0416827Y0406430D02*
X0469942Y0406430D01*
X0467944Y0408428D02*
X0416281Y0408428D01*
X0473418Y0418421D02*
X0493654Y0418421D01*
X0494092Y0418858D02*
X0492413Y0417179D01*
X0491504Y0414986D01*
X0491504Y0412611D01*
X0492413Y0410418D01*
X0492969Y0409861D01*
X0492413Y0409305D01*
X0491504Y0407112D01*
X0491504Y0404737D01*
X0492413Y0402544D01*
X0492969Y0401987D01*
X0492413Y0401431D01*
X0491504Y0399238D01*
X0491504Y0396863D01*
X0492413Y0394670D01*
X0492969Y0394113D01*
X0492413Y0393557D01*
X0491504Y0391364D01*
X0491504Y0388989D01*
X0492413Y0386795D01*
X0492969Y0386239D01*
X0492413Y0385683D01*
X0491504Y0383490D01*
X0491504Y0381115D01*
X0492413Y0378921D01*
X0492969Y0378365D01*
X0492413Y0377809D01*
X0491504Y0375616D01*
X0491504Y0373241D01*
X0492413Y0371047D01*
X0492969Y0370491D01*
X0492413Y0369935D01*
X0491504Y0367742D01*
X0491504Y0365367D01*
X0492413Y0363173D01*
X0492969Y0362617D01*
X0492413Y0362061D01*
X0491504Y0359868D01*
X0491504Y0357493D01*
X0492413Y0355299D01*
X0492969Y0354743D01*
X0492413Y0354187D01*
X0491504Y0351994D01*
X0491504Y0349619D01*
X0492413Y0347425D01*
X0492969Y0346869D01*
X0492413Y0346313D01*
X0491504Y0344119D01*
X0491504Y0341745D01*
X0492413Y0339551D01*
X0494092Y0337872D01*
X0496285Y0336964D01*
X0498660Y0336964D01*
X0500853Y0337872D01*
X0502532Y0339551D01*
X0503441Y0341745D01*
X0503441Y0344119D01*
X0502532Y0346313D01*
X0501976Y0346869D01*
X0502532Y0347425D01*
X0503441Y0349619D01*
X0503441Y0351994D01*
X0502532Y0354187D01*
X0501976Y0354743D01*
X0502532Y0355299D01*
X0503441Y0357493D01*
X0503441Y0359868D01*
X0502532Y0362061D01*
X0501976Y0362617D01*
X0502532Y0363173D01*
X0503441Y0365367D01*
X0503441Y0367742D01*
X0502532Y0369935D01*
X0501976Y0370491D01*
X0502532Y0371047D01*
X0503441Y0373241D01*
X0503441Y0375616D01*
X0502532Y0377809D01*
X0501976Y0378365D01*
X0502532Y0378921D01*
X0503441Y0381115D01*
X0503441Y0383490D01*
X0502532Y0385683D01*
X0501976Y0386239D01*
X0502532Y0386795D01*
X0503441Y0388989D01*
X0503441Y0391364D01*
X0502532Y0393557D01*
X0501976Y0394113D01*
X0502532Y0394670D01*
X0503441Y0396863D01*
X0503441Y0399238D01*
X0502532Y0401431D01*
X0501976Y0401987D01*
X0502532Y0402544D01*
X0503441Y0404737D01*
X0503441Y0407112D01*
X0502532Y0409305D01*
X0501976Y0409861D01*
X0502532Y0410418D01*
X0503441Y0412611D01*
X0503441Y0414986D01*
X0502532Y0417179D01*
X0500853Y0418858D01*
X0498660Y0419767D01*
X0496285Y0419767D01*
X0494092Y0418858D01*
X0492099Y0416422D02*
X0475417Y0416422D01*
X0477415Y0414424D02*
X0491504Y0414424D01*
X0491581Y0412425D02*
X0479414Y0412425D01*
X0481412Y0410427D02*
X0492409Y0410427D01*
X0492049Y0408428D02*
X0483411Y0408428D01*
X0485409Y0406430D02*
X0491504Y0406430D01*
X0491631Y0404431D02*
X0487140Y0404431D01*
X0487783Y0402433D02*
X0492523Y0402433D01*
X0492000Y0400434D02*
X0487783Y0400434D01*
X0487783Y0398436D02*
X0491504Y0398436D01*
X0491680Y0396437D02*
X0487783Y0396437D01*
X0487783Y0394439D02*
X0492643Y0394439D01*
X0491950Y0392440D02*
X0487783Y0392440D01*
X0487783Y0390442D02*
X0491504Y0390442D01*
X0491730Y0388443D02*
X0487783Y0388443D01*
X0487783Y0386445D02*
X0492763Y0386445D01*
X0491900Y0384446D02*
X0487783Y0384446D01*
X0487783Y0382448D02*
X0491504Y0382448D01*
X0491780Y0380449D02*
X0487783Y0380449D01*
X0487783Y0378451D02*
X0492884Y0378451D01*
X0491850Y0376452D02*
X0487783Y0376452D01*
X0487783Y0374454D02*
X0491504Y0374454D01*
X0491830Y0372455D02*
X0487783Y0372455D01*
X0487783Y0370457D02*
X0492934Y0370457D01*
X0491801Y0368458D02*
X0487783Y0368458D01*
X0487783Y0366459D02*
X0491504Y0366459D01*
X0491879Y0364461D02*
X0487783Y0364461D01*
X0487783Y0362462D02*
X0492814Y0362462D01*
X0491751Y0360464D02*
X0487783Y0360464D01*
X0487783Y0358465D02*
X0491504Y0358465D01*
X0491929Y0356467D02*
X0487783Y0356467D01*
X0487783Y0354468D02*
X0492694Y0354468D01*
X0491701Y0352470D02*
X0487783Y0352470D01*
X0487783Y0350471D02*
X0491504Y0350471D01*
X0491979Y0348473D02*
X0487783Y0348473D01*
X0487783Y0346474D02*
X0492574Y0346474D01*
X0491652Y0344476D02*
X0487783Y0344476D01*
X0487783Y0342477D02*
X0491504Y0342477D01*
X0492028Y0340479D02*
X0487783Y0340479D01*
X0487783Y0338480D02*
X0493484Y0338480D01*
X0487783Y0336482D02*
X0535902Y0336482D01*
X0535902Y0338480D02*
X0501461Y0338480D01*
X0502916Y0340479D02*
X0535902Y0340479D01*
X0535902Y0342477D02*
X0503441Y0342477D01*
X0503293Y0344476D02*
X0535902Y0344476D01*
X0535902Y0346474D02*
X0502371Y0346474D01*
X0502966Y0348473D02*
X0535902Y0348473D01*
X0535902Y0350471D02*
X0503441Y0350471D01*
X0503244Y0352470D02*
X0535902Y0352470D01*
X0535902Y0354468D02*
X0502251Y0354468D01*
X0503016Y0356467D02*
X0535902Y0356467D01*
X0535902Y0358465D02*
X0503441Y0358465D01*
X0503194Y0360464D02*
X0535902Y0360464D01*
X0535902Y0362462D02*
X0502131Y0362462D01*
X0503066Y0364461D02*
X0535902Y0364461D01*
X0535902Y0366459D02*
X0503441Y0366459D01*
X0503144Y0368458D02*
X0535902Y0368458D01*
X0535902Y0370457D02*
X0502011Y0370457D01*
X0503115Y0372455D02*
X0536346Y0372455D01*
X0537795Y0374454D02*
X0503441Y0374454D01*
X0503094Y0376452D02*
X0650541Y0376452D01*
X0650541Y0374454D02*
X0544945Y0374454D01*
X0546394Y0372455D02*
X0567420Y0372455D01*
X0565849Y0371406D02*
X0563698Y0368186D01*
X0562943Y0364389D01*
X0563698Y0360592D01*
X0565849Y0357372D01*
X0569069Y0355221D01*
X0572866Y0354466D01*
X0576664Y0355221D01*
X0579883Y0357372D01*
X0582034Y0360592D01*
X0582789Y0364389D01*
X0582034Y0368186D01*
X0579883Y0371406D01*
X0576664Y0373557D01*
X0572866Y0374312D01*
X0569069Y0373557D01*
X0565849Y0371406D01*
X0565215Y0370457D02*
X0546839Y0370457D01*
X0546839Y0368458D02*
X0563880Y0368458D01*
X0563355Y0366459D02*
X0546839Y0366459D01*
X0546839Y0364461D02*
X0562957Y0364461D01*
X0563326Y0362462D02*
X0546839Y0362462D01*
X0546839Y0360464D02*
X0563784Y0360464D01*
X0565119Y0358465D02*
X0546839Y0358465D01*
X0546839Y0356467D02*
X0567204Y0356467D01*
X0572853Y0354468D02*
X0546839Y0354468D01*
X0546839Y0352470D02*
X0650541Y0352470D01*
X0650541Y0354468D02*
X0572880Y0354468D01*
X0578528Y0356467D02*
X0650541Y0356467D01*
X0650541Y0358465D02*
X0580613Y0358465D01*
X0581949Y0360464D02*
X0650541Y0360464D01*
X0650541Y0362462D02*
X0582406Y0362462D01*
X0582775Y0364461D02*
X0650541Y0364461D01*
X0650541Y0366459D02*
X0582378Y0366459D01*
X0581853Y0368458D02*
X0650541Y0368458D01*
X0650541Y0370457D02*
X0580517Y0370457D01*
X0578313Y0372455D02*
X0650541Y0372455D01*
X0650541Y0378451D02*
X0502061Y0378451D01*
X0503165Y0380449D02*
X0597472Y0380449D01*
X0594023Y0382448D02*
X0503441Y0382448D01*
X0503045Y0384446D02*
X0592024Y0384446D01*
X0590399Y0386445D02*
X0502181Y0386445D01*
X0503215Y0388443D02*
X0589245Y0388443D01*
X0588415Y0390442D02*
X0503441Y0390442D01*
X0502995Y0392440D02*
X0587879Y0392440D01*
X0587549Y0394439D02*
X0502301Y0394439D01*
X0503264Y0396437D02*
X0587549Y0396437D01*
X0587549Y0398436D02*
X0503441Y0398436D01*
X0502945Y0400434D02*
X0587549Y0400434D01*
X0587549Y0402433D02*
X0502421Y0402433D01*
X0503314Y0404431D02*
X0587549Y0404431D01*
X0587549Y0406430D02*
X0503441Y0406430D01*
X0502896Y0408428D02*
X0587549Y0408428D01*
X0587549Y0410427D02*
X0502536Y0410427D01*
X0503364Y0412425D02*
X0587549Y0412425D01*
X0587549Y0414424D02*
X0503441Y0414424D01*
X0502846Y0416422D02*
X0587549Y0416422D01*
X0587549Y0418421D02*
X0501291Y0418421D01*
X0587549Y0420419D02*
X0069994Y0420419D01*
X0069994Y0422418D02*
X0587549Y0422418D01*
X0587549Y0424416D02*
X0069994Y0424416D01*
X0069994Y0426415D02*
X0587549Y0426415D01*
X0587549Y0428413D02*
X0069994Y0428413D01*
X0069994Y0430412D02*
X0587549Y0430412D01*
X0587549Y0432410D02*
X0069994Y0432410D01*
X0069994Y0434409D02*
X0587549Y0434409D01*
X0587549Y0436407D02*
X0069994Y0436407D01*
X0069994Y0438406D02*
X0587549Y0438406D01*
X0546839Y0350471D02*
X0650541Y0350471D01*
X0650541Y0348473D02*
X0546839Y0348473D01*
X0546839Y0346474D02*
X0650541Y0346474D01*
X0650541Y0344476D02*
X0546839Y0344476D01*
X0546839Y0342477D02*
X0632434Y0342477D01*
X0631281Y0340479D02*
X0546839Y0340479D01*
X0546839Y0338480D02*
X0631144Y0338480D01*
X0635898Y0340479D02*
X0635898Y0340479D01*
X0635898Y0342477D02*
X0635898Y0342477D01*
X0639361Y0342477D02*
X0650541Y0342477D01*
X0650541Y0340479D02*
X0640514Y0340479D01*
X0640651Y0338480D02*
X0650541Y0338480D01*
X0650541Y0336482D02*
X0639890Y0336482D01*
X0640814Y0334483D02*
X0650541Y0334483D01*
X0650541Y0332485D02*
X0641642Y0332485D01*
X0641666Y0330486D02*
X0650541Y0330486D01*
X0650541Y0328488D02*
X0640985Y0328488D01*
X0640864Y0326489D02*
X0650541Y0326489D01*
X0650541Y0324491D02*
X0641666Y0324491D01*
X0641666Y0322492D02*
X0650541Y0322492D01*
X0650541Y0320494D02*
X0640936Y0320494D01*
X0640913Y0318495D02*
X0650541Y0318495D01*
X0650541Y0316497D02*
X0641666Y0316497D01*
X0641666Y0314498D02*
X0650541Y0314498D01*
X0650541Y0312500D02*
X0640886Y0312500D01*
X0638829Y0310501D02*
X0650541Y0310501D01*
X0650541Y0308503D02*
X0582225Y0308503D01*
X0582272Y0306504D02*
X0650541Y0306504D01*
X0650541Y0304506D02*
X0582272Y0304506D01*
X0582272Y0302507D02*
X0650541Y0302507D01*
X0650541Y0300509D02*
X0582272Y0300509D01*
X0582272Y0298510D02*
X0650541Y0298510D01*
X0650541Y0296512D02*
X0582272Y0296512D01*
X0582272Y0294513D02*
X0650541Y0294513D01*
X0650541Y0292515D02*
X0582272Y0292515D01*
X0582272Y0290516D02*
X0650541Y0290516D01*
X0650541Y0288518D02*
X0582272Y0288518D01*
X0582272Y0286519D02*
X0650541Y0286519D01*
X0650541Y0284521D02*
X0582272Y0284521D01*
X0582272Y0282522D02*
X0650541Y0282522D01*
X0650541Y0280523D02*
X0582272Y0280523D01*
X0582272Y0278525D02*
X0650541Y0278525D01*
X0650541Y0276526D02*
X0582272Y0276526D01*
X0582272Y0274528D02*
X0650541Y0274528D01*
X0650541Y0272529D02*
X0582272Y0272529D01*
X0582272Y0270531D02*
X0650541Y0270531D01*
X0650541Y0268532D02*
X0582272Y0268532D01*
X0582272Y0266534D02*
X0650541Y0266534D01*
X0650541Y0264535D02*
X0582272Y0264535D01*
X0582272Y0262537D02*
X0650541Y0262537D01*
X0650541Y0260538D02*
X0582272Y0260538D01*
X0582272Y0258540D02*
X0650541Y0258540D01*
X0650541Y0256541D02*
X0595775Y0256541D01*
X0596520Y0254543D02*
X0650541Y0254543D01*
X0650541Y0252544D02*
X0596520Y0252544D01*
X0596520Y0250546D02*
X0650541Y0250546D01*
X0650541Y0248547D02*
X0596520Y0248547D01*
X0596520Y0246549D02*
X0650541Y0246549D01*
X0650541Y0244550D02*
X0596520Y0244550D01*
X0596520Y0242552D02*
X0650541Y0242552D01*
X0650541Y0240553D02*
X0596520Y0240553D01*
X0596520Y0238555D02*
X0650541Y0238555D01*
X0650541Y0236556D02*
X0596520Y0236556D01*
X0596069Y0234558D02*
X0650541Y0234558D01*
X0650541Y0232559D02*
X0594286Y0232559D01*
X0592288Y0230561D02*
X0650541Y0230561D01*
X0650541Y0228562D02*
X0589480Y0228562D01*
X0588614Y0232499D02*
X0564992Y0232499D01*
X0561055Y0236436D01*
X0561055Y0256121D01*
X0569323Y0256121D01*
X0571291Y0254153D01*
X0592551Y0254153D01*
X0592551Y0236436D01*
X0588614Y0232499D01*
X0588674Y0232559D02*
X0564932Y0232559D01*
X0562934Y0234558D02*
X0590673Y0234558D01*
X0592551Y0236556D02*
X0561055Y0236556D01*
X0561055Y0238555D02*
X0592551Y0238555D01*
X0592551Y0240553D02*
X0561055Y0240553D01*
X0561055Y0242552D02*
X0592551Y0242552D01*
X0592551Y0244550D02*
X0561055Y0244550D01*
X0561055Y0246549D02*
X0592551Y0246549D01*
X0592551Y0248547D02*
X0561055Y0248547D01*
X0561055Y0250546D02*
X0592551Y0250546D01*
X0592551Y0252544D02*
X0561055Y0252544D01*
X0561055Y0254543D02*
X0570901Y0254543D01*
X0571335Y0260538D02*
X0442272Y0260538D01*
X0443548Y0262537D02*
X0571335Y0262537D01*
X0571335Y0264535D02*
X0443761Y0264535D01*
X0443101Y0266534D02*
X0571335Y0266534D01*
X0571335Y0268532D02*
X0440474Y0268532D01*
X0438084Y0270531D02*
X0571335Y0270531D01*
X0571335Y0272529D02*
X0435457Y0272529D01*
X0434283Y0268720D02*
X0364835Y0268720D01*
X0358166Y0268532D02*
X0352488Y0268532D01*
X0352488Y0266534D02*
X0358522Y0266534D01*
X0359589Y0264535D02*
X0352488Y0264535D01*
X0352488Y0262537D02*
X0359220Y0262537D01*
X0358370Y0260538D02*
X0352488Y0260538D01*
X0352488Y0258540D02*
X0358166Y0258540D01*
X0358519Y0256541D02*
X0352488Y0256541D01*
X0352488Y0254543D02*
X0359582Y0254543D01*
X0359228Y0252544D02*
X0352488Y0252544D01*
X0352488Y0250546D02*
X0358373Y0250546D01*
X0358166Y0248547D02*
X0352488Y0248547D01*
X0352488Y0246549D02*
X0358516Y0246549D01*
X0359574Y0244550D02*
X0352488Y0244550D01*
X0352488Y0242552D02*
X0359235Y0242552D01*
X0358376Y0240553D02*
X0352488Y0240553D01*
X0352488Y0238555D02*
X0358166Y0238555D01*
X0358513Y0236556D02*
X0352488Y0236556D01*
X0352488Y0234558D02*
X0359567Y0234558D01*
X0359243Y0232559D02*
X0352488Y0232559D01*
X0352488Y0230561D02*
X0358379Y0230561D01*
X0358166Y0228562D02*
X0352488Y0228562D01*
X0352488Y0226564D02*
X0358510Y0226564D01*
X0359559Y0224565D02*
X0352488Y0224565D01*
X0352488Y0222567D02*
X0362266Y0222567D01*
X0367404Y0222567D02*
X0529465Y0222567D01*
X0529465Y0224565D02*
X0370110Y0224565D01*
X0371159Y0226564D02*
X0529465Y0226564D01*
X0528694Y0228562D02*
X0371503Y0228562D01*
X0371290Y0230561D02*
X0525885Y0230561D01*
X0523887Y0232559D02*
X0370427Y0232559D01*
X0370103Y0234558D02*
X0522105Y0234558D01*
X0521654Y0236556D02*
X0371156Y0236556D01*
X0371503Y0238555D02*
X0521654Y0238555D01*
X0521654Y0240553D02*
X0371293Y0240553D01*
X0370434Y0242552D02*
X0521654Y0242552D01*
X0521654Y0244550D02*
X0370095Y0244550D01*
X0371153Y0246549D02*
X0521654Y0246549D01*
X0521654Y0248547D02*
X0371503Y0248547D01*
X0371296Y0250546D02*
X0521654Y0250546D01*
X0521654Y0252544D02*
X0370441Y0252544D01*
X0370088Y0254543D02*
X0521654Y0254543D01*
X0522398Y0256541D02*
X0371150Y0256541D01*
X0371503Y0258540D02*
X0542113Y0258540D01*
X0545307Y0256121D02*
X0553181Y0256121D01*
X0553181Y0236436D01*
X0549244Y0232499D01*
X0529559Y0232499D01*
X0525622Y0236436D01*
X0525622Y0254153D01*
X0543339Y0254153D01*
X0545307Y0256121D01*
X0543729Y0254543D02*
X0553181Y0254543D01*
X0553181Y0252544D02*
X0525622Y0252544D01*
X0525622Y0250546D02*
X0553181Y0250546D01*
X0553181Y0248547D02*
X0525622Y0248547D01*
X0525622Y0246549D02*
X0553181Y0246549D01*
X0553181Y0244550D02*
X0525622Y0244550D01*
X0525622Y0242552D02*
X0553181Y0242552D01*
X0553181Y0240553D02*
X0525622Y0240553D01*
X0525622Y0238555D02*
X0553181Y0238555D01*
X0553181Y0236556D02*
X0525622Y0236556D01*
X0527501Y0234558D02*
X0551303Y0234558D01*
X0549304Y0232559D02*
X0529499Y0232559D01*
X0545402Y0226564D02*
X0571335Y0226564D01*
X0571335Y0224565D02*
X0545402Y0224565D01*
X0545402Y0222567D02*
X0571335Y0222567D01*
X0571335Y0220568D02*
X0545402Y0220568D01*
X0545402Y0218570D02*
X0571335Y0218570D01*
X0571335Y0216571D02*
X0545402Y0216571D01*
X0545156Y0214573D02*
X0571335Y0214573D01*
X0571335Y0212574D02*
X0544328Y0212574D01*
X0542527Y0210576D02*
X0571335Y0210576D01*
X0571335Y0208577D02*
X0540528Y0208577D01*
X0541947Y0209996D02*
X0541947Y0209996D01*
X0538530Y0206579D02*
X0571335Y0206579D01*
X0571335Y0204580D02*
X0536531Y0204580D01*
X0534533Y0202582D02*
X0571335Y0202582D01*
X0571335Y0200583D02*
X0532534Y0200583D01*
X0530536Y0198585D02*
X0571335Y0198585D01*
X0571335Y0196586D02*
X0320929Y0196586D01*
X0320929Y0198585D02*
X0347480Y0198585D01*
X0345482Y0200583D02*
X0320929Y0200583D01*
X0320929Y0202582D02*
X0343483Y0202582D01*
X0341485Y0204580D02*
X0320929Y0204580D01*
X0320929Y0206579D02*
X0339486Y0206579D01*
X0337650Y0208577D02*
X0320929Y0208577D01*
X0320929Y0210576D02*
X0336822Y0210576D01*
X0336551Y0212574D02*
X0320929Y0212574D01*
X0320929Y0214573D02*
X0336551Y0214573D01*
X0336551Y0216571D02*
X0320929Y0216571D01*
X0320929Y0218570D02*
X0336551Y0218570D01*
X0336551Y0220568D02*
X0320929Y0220568D01*
X0320929Y0222567D02*
X0336551Y0222567D01*
X0336551Y0224565D02*
X0320929Y0224565D01*
X0320929Y0226564D02*
X0336551Y0226564D01*
X0336551Y0228562D02*
X0320929Y0228562D01*
X0320929Y0230561D02*
X0336551Y0230561D01*
X0336551Y0232559D02*
X0320929Y0232559D01*
X0320929Y0234558D02*
X0336551Y0234558D01*
X0336551Y0236556D02*
X0320929Y0236556D01*
X0320929Y0238555D02*
X0336551Y0238555D01*
X0336551Y0240553D02*
X0320929Y0240553D01*
X0320929Y0242552D02*
X0336551Y0242552D01*
X0336551Y0244550D02*
X0320929Y0244550D01*
X0320929Y0246549D02*
X0336551Y0246549D01*
X0336551Y0248547D02*
X0320929Y0248547D01*
X0320929Y0250546D02*
X0336551Y0250546D01*
X0336551Y0252544D02*
X0320929Y0252544D01*
X0320929Y0254543D02*
X0336551Y0254543D01*
X0336551Y0256541D02*
X0320929Y0256541D01*
X0320929Y0258540D02*
X0336551Y0258540D01*
X0336551Y0260538D02*
X0320929Y0260538D01*
X0320094Y0262537D02*
X0336551Y0262537D01*
X0336551Y0264535D02*
X0318096Y0264535D01*
X0316097Y0266534D02*
X0336551Y0266534D01*
X0336551Y0268532D02*
X0314099Y0268532D01*
X0312100Y0270531D02*
X0336551Y0270531D01*
X0336551Y0272529D02*
X0310102Y0272529D01*
X0308103Y0274528D02*
X0336551Y0274528D01*
X0336551Y0276526D02*
X0306105Y0276526D01*
X0305181Y0278525D02*
X0336551Y0278525D01*
X0336551Y0280523D02*
X0305181Y0280523D01*
X0305181Y0282522D02*
X0336551Y0282522D01*
X0336551Y0284521D02*
X0305181Y0284521D01*
X0305181Y0286519D02*
X0336551Y0286519D01*
X0336551Y0288518D02*
X0305181Y0288518D01*
X0305181Y0290516D02*
X0336551Y0290516D01*
X0336551Y0292515D02*
X0305181Y0292515D01*
X0305181Y0294513D02*
X0336551Y0294513D01*
X0336551Y0296512D02*
X0305181Y0296512D01*
X0305181Y0298510D02*
X0336551Y0298510D01*
X0336551Y0300509D02*
X0305181Y0300509D01*
X0305181Y0302507D02*
X0336551Y0302507D01*
X0336551Y0304506D02*
X0305181Y0304506D01*
X0305181Y0306504D02*
X0336551Y0306504D01*
X0336551Y0308503D02*
X0305181Y0308503D01*
X0305181Y0310501D02*
X0336551Y0310501D01*
X0336551Y0312500D02*
X0305181Y0312500D01*
X0305181Y0314498D02*
X0336551Y0314498D01*
X0336551Y0316497D02*
X0305181Y0316497D01*
X0305181Y0318495D02*
X0336551Y0318495D01*
X0336551Y0320494D02*
X0305181Y0320494D01*
X0305181Y0322492D02*
X0336551Y0322492D01*
X0336551Y0324491D02*
X0305181Y0324491D01*
X0305181Y0326489D02*
X0336551Y0326489D01*
X0336551Y0328488D02*
X0305181Y0328488D01*
X0305181Y0330486D02*
X0336551Y0330486D01*
X0336551Y0332485D02*
X0304862Y0332485D01*
X0303266Y0334483D02*
X0336551Y0334483D01*
X0336551Y0336482D02*
X0301267Y0336482D01*
X0299269Y0338480D02*
X0336551Y0338480D01*
X0336551Y0340479D02*
X0297270Y0340479D01*
X0294717Y0342477D02*
X0336551Y0342477D01*
X0336551Y0344476D02*
X0290021Y0344476D01*
X0291122Y0346474D02*
X0336551Y0346474D01*
X0336551Y0348473D02*
X0291503Y0348473D01*
X0291327Y0350471D02*
X0336551Y0350471D01*
X0336551Y0352470D02*
X0290500Y0352470D01*
X0290013Y0354468D02*
X0336551Y0354468D01*
X0336690Y0356467D02*
X0291119Y0356467D01*
X0291503Y0358465D02*
X0337518Y0358465D01*
X0339168Y0360464D02*
X0291330Y0360464D01*
X0290503Y0362462D02*
X0341167Y0362462D01*
X0343165Y0364461D02*
X0288401Y0364461D01*
X0281268Y0364461D02*
X0274016Y0364461D01*
X0274469Y0362462D02*
X0279167Y0362462D01*
X0278339Y0360464D02*
X0274050Y0360464D01*
X0272483Y0358465D02*
X0278166Y0358465D01*
X0278550Y0356467D02*
X0168886Y0356467D01*
X0168886Y0358465D02*
X0266950Y0358465D01*
X0265383Y0360464D02*
X0168886Y0360464D01*
X0168886Y0362462D02*
X0264964Y0362462D01*
X0265417Y0364461D02*
X0168886Y0364461D01*
X0168886Y0366459D02*
X0265748Y0366459D01*
X0265748Y0368458D02*
X0168886Y0368458D01*
X0168886Y0370457D02*
X0265748Y0370457D01*
X0265748Y0372455D02*
X0168886Y0372455D01*
X0168886Y0374454D02*
X0265748Y0374454D01*
X0265748Y0376452D02*
X0168886Y0376452D01*
X0168886Y0378451D02*
X0265748Y0378451D01*
X0265748Y0380449D02*
X0168886Y0380449D01*
X0168886Y0382448D02*
X0265748Y0382448D01*
X0265748Y0384446D02*
X0168886Y0384446D01*
X0168886Y0386445D02*
X0265748Y0386445D01*
X0265209Y0388443D02*
X0168886Y0388443D01*
X0168886Y0390442D02*
X0264964Y0390442D01*
X0265591Y0392440D02*
X0169675Y0392440D01*
X0168886Y0354468D02*
X0279656Y0354468D01*
X0279170Y0352470D02*
X0168886Y0352470D01*
X0168886Y0350471D02*
X0278342Y0350471D01*
X0278166Y0348473D02*
X0168886Y0348473D01*
X0168886Y0346474D02*
X0278547Y0346474D01*
X0279649Y0344476D02*
X0168886Y0344476D01*
X0168886Y0342477D02*
X0279173Y0342477D01*
X0278345Y0340479D02*
X0168886Y0340479D01*
X0168886Y0338480D02*
X0278166Y0338480D01*
X0278544Y0336482D02*
X0168886Y0336482D01*
X0168886Y0334483D02*
X0279641Y0334483D01*
X0279176Y0332485D02*
X0168886Y0332485D01*
X0168886Y0330486D02*
X0278348Y0330486D01*
X0278166Y0328488D02*
X0168886Y0328488D01*
X0168886Y0326489D02*
X0278541Y0326489D01*
X0279634Y0324491D02*
X0168886Y0324491D01*
X0168886Y0322492D02*
X0279179Y0322492D01*
X0278351Y0320494D02*
X0168886Y0320494D01*
X0168886Y0318495D02*
X0278166Y0318495D01*
X0278538Y0316497D02*
X0168886Y0316497D01*
X0168886Y0314498D02*
X0203749Y0314498D01*
X0202443Y0312500D02*
X0168886Y0312500D01*
X0168886Y0310501D02*
X0201949Y0310501D01*
X0202044Y0308503D02*
X0168886Y0308503D01*
X0168886Y0306504D02*
X0202872Y0306504D01*
X0204824Y0304506D02*
X0170011Y0304506D01*
X0172009Y0302507D02*
X0232949Y0302507D01*
X0232949Y0300509D02*
X0174008Y0300509D01*
X0176006Y0298510D02*
X0232949Y0298510D01*
X0232949Y0296512D02*
X0178005Y0296512D01*
X0180003Y0294513D02*
X0232949Y0294513D01*
X0231447Y0292515D02*
X0182002Y0292515D01*
X0184000Y0290516D02*
X0229449Y0290516D01*
X0236922Y0282522D02*
X0279205Y0282522D01*
X0279604Y0284521D02*
X0238920Y0284521D01*
X0240919Y0286519D02*
X0278529Y0286519D01*
X0278166Y0288518D02*
X0242917Y0288518D01*
X0243825Y0290516D02*
X0278360Y0290516D01*
X0279198Y0292515D02*
X0243886Y0292515D01*
X0243886Y0294513D02*
X0279611Y0294513D01*
X0278532Y0296512D02*
X0243886Y0296512D01*
X0243886Y0298510D02*
X0278166Y0298510D01*
X0278357Y0300509D02*
X0243886Y0300509D01*
X0243886Y0302507D02*
X0279191Y0302507D01*
X0279619Y0304506D02*
X0243886Y0304506D01*
X0243963Y0306504D02*
X0278535Y0306504D01*
X0278166Y0308503D02*
X0244791Y0308503D01*
X0244886Y0310501D02*
X0278354Y0310501D01*
X0279183Y0312500D02*
X0244391Y0312500D01*
X0243086Y0314498D02*
X0279626Y0314498D01*
X0301213Y0330924D02*
X0293417Y0338720D01*
X0284835Y0338720D01*
X0301213Y0330924D02*
X0301213Y0275806D01*
X0316961Y0260058D01*
X0316961Y0193129D01*
X0352394Y0157696D01*
X0462630Y0157696D01*
X0470504Y0149822D01*
X0474027Y0146623D02*
X0487131Y0146623D01*
X0489129Y0148622D02*
X0475151Y0148622D01*
X0475257Y0150620D02*
X0491128Y0150620D01*
X0493126Y0152619D02*
X0474429Y0152619D01*
X0471321Y0154617D02*
X0495125Y0154617D01*
X0497123Y0156616D02*
X0469322Y0156616D01*
X0467324Y0158614D02*
X0499432Y0158614D01*
X0502598Y0146623D02*
X0650541Y0146623D01*
X0650541Y0144625D02*
X0500599Y0144625D01*
X0498601Y0142626D02*
X0650541Y0142626D01*
X0650541Y0140628D02*
X0496602Y0140628D01*
X0494604Y0138629D02*
X0650541Y0138629D01*
X0650541Y0136631D02*
X0492605Y0136631D01*
X0491720Y0134632D02*
X0650541Y0134632D01*
X0650541Y0132634D02*
X0491720Y0132634D01*
X0491720Y0130635D02*
X0650541Y0130635D01*
X0650541Y0128637D02*
X0491720Y0128637D01*
X0491720Y0126638D02*
X0650541Y0126638D01*
X0650541Y0124640D02*
X0491720Y0124640D01*
X0491720Y0122641D02*
X0650541Y0122641D01*
X0650541Y0120643D02*
X0491720Y0120643D01*
X0491720Y0118644D02*
X0650541Y0118644D01*
X0650541Y0116646D02*
X0491720Y0116646D01*
X0491720Y0114647D02*
X0650541Y0114647D01*
X0650541Y0112649D02*
X0491720Y0112649D01*
X0491720Y0110650D02*
X0650541Y0110650D01*
X0650541Y0108652D02*
X0491720Y0108652D01*
X0480783Y0108652D02*
X0430378Y0108652D01*
X0430378Y0110650D02*
X0480783Y0110650D01*
X0480783Y0112649D02*
X0430378Y0112649D01*
X0430378Y0114647D02*
X0480783Y0114647D01*
X0480783Y0116646D02*
X0430378Y0116646D01*
X0430378Y0118644D02*
X0480783Y0118644D01*
X0480783Y0120643D02*
X0430378Y0120643D01*
X0430378Y0122641D02*
X0480783Y0122641D01*
X0480783Y0124640D02*
X0430378Y0124640D01*
X0430378Y0126638D02*
X0480783Y0126638D01*
X0480783Y0128637D02*
X0430378Y0128637D01*
X0430378Y0130635D02*
X0480783Y0130635D01*
X0480783Y0132634D02*
X0430378Y0132634D01*
X0430378Y0134632D02*
X0480783Y0134632D01*
X0480783Y0136631D02*
X0429972Y0136631D01*
X0428254Y0138629D02*
X0480783Y0138629D01*
X0481417Y0140628D02*
X0426255Y0140628D01*
X0424257Y0142626D02*
X0483134Y0142626D01*
X0485132Y0144625D02*
X0422258Y0144625D01*
X0420260Y0146623D02*
X0466981Y0146623D01*
X0465857Y0148622D02*
X0418261Y0148622D01*
X0416263Y0150620D02*
X0464093Y0150620D01*
X0462095Y0152619D02*
X0414264Y0152619D01*
X0411449Y0149822D02*
X0348457Y0149822D01*
X0309087Y0189192D01*
X0321115Y0194588D02*
X0571335Y0194588D01*
X0571335Y0192589D02*
X0323113Y0192589D01*
X0325112Y0190590D02*
X0571335Y0190590D01*
X0571335Y0188592D02*
X0327110Y0188592D01*
X0329109Y0186593D02*
X0571335Y0186593D01*
X0571335Y0184595D02*
X0331107Y0184595D01*
X0333106Y0182596D02*
X0571335Y0182596D01*
X0571335Y0180598D02*
X0335104Y0180598D01*
X0337103Y0178599D02*
X0570288Y0178599D01*
X0568289Y0176601D02*
X0339101Y0176601D01*
X0341100Y0174602D02*
X0566291Y0174602D01*
X0564292Y0172604D02*
X0343098Y0172604D01*
X0345097Y0170605D02*
X0562294Y0170605D01*
X0560295Y0168607D02*
X0347095Y0168607D01*
X0349094Y0166608D02*
X0558297Y0166608D01*
X0556298Y0164610D02*
X0351092Y0164610D01*
X0353091Y0162611D02*
X0554300Y0162611D01*
X0552301Y0160613D02*
X0465325Y0160613D01*
X0465994Y0159944D02*
X0465994Y0159944D01*
X0426409Y0134861D02*
X0411449Y0149822D01*
X0426409Y0134861D02*
X0426409Y0053562D01*
X0419590Y0050695D02*
X0389358Y0050695D01*
X0389358Y0052693D02*
X0419012Y0052693D01*
X0419012Y0054692D02*
X0389358Y0054692D01*
X0389358Y0056690D02*
X0419698Y0056690D01*
X0421074Y0058689D02*
X0389358Y0058689D01*
X0389358Y0060687D02*
X0422441Y0060687D01*
X0422441Y0062686D02*
X0390458Y0062686D01*
X0391285Y0064684D02*
X0422441Y0064684D01*
X0422441Y0066683D02*
X0391287Y0066683D01*
X0390853Y0068681D02*
X0422441Y0068681D01*
X0422441Y0070680D02*
X0389832Y0070680D01*
X0387486Y0072678D02*
X0422441Y0072678D01*
X0430378Y0072678D02*
X0459034Y0072678D01*
X0456687Y0070680D02*
X0430378Y0070680D01*
X0430378Y0068681D02*
X0455667Y0068681D01*
X0455232Y0066683D02*
X0430378Y0066683D01*
X0430378Y0064684D02*
X0455234Y0064684D01*
X0456062Y0062686D02*
X0430378Y0062686D01*
X0430378Y0060687D02*
X0457161Y0060687D01*
X0457161Y0058689D02*
X0431745Y0058689D01*
X0433121Y0056690D02*
X0457161Y0056690D01*
X0457161Y0054692D02*
X0440336Y0054692D01*
X0442858Y0052693D02*
X0457161Y0052693D01*
X0457161Y0050695D02*
X0443950Y0050695D01*
X0444436Y0048696D02*
X0457161Y0048696D01*
X0457161Y0046698D02*
X0444436Y0046698D01*
X0443658Y0044699D02*
X0457161Y0044699D01*
X0457161Y0042701D02*
X0442151Y0042701D01*
X0431927Y0042701D02*
X0389590Y0042701D01*
X0389358Y0044699D02*
X0428246Y0044699D01*
X0423651Y0046698D02*
X0389358Y0046698D01*
X0389358Y0048696D02*
X0420814Y0048696D01*
X0390790Y0030710D02*
X0459666Y0030710D01*
X0453291Y0026713D02*
X0520479Y0026713D01*
X0519465Y0024714D02*
X0454118Y0024714D01*
X0454280Y0022716D02*
X0525146Y0022716D01*
X0526098Y0022716D02*
X0587549Y0022716D01*
X0587549Y0024714D02*
X0531779Y0024714D01*
X0530765Y0026713D02*
X0587549Y0026713D01*
X0587549Y0028711D02*
X0528281Y0028711D01*
X0526098Y0028711D02*
X0525146Y0028711D01*
X0525146Y0026713D02*
X0526098Y0026713D01*
X0526098Y0024714D02*
X0525146Y0024714D01*
X0522963Y0028711D02*
X0451486Y0028711D01*
X0454004Y0020717D02*
X0519548Y0020717D01*
X0520691Y0018719D02*
X0453176Y0018719D01*
X0469530Y0030710D02*
X0538407Y0030710D01*
X0539148Y0029968D02*
X0541867Y0028842D01*
X0544810Y0028842D01*
X0547529Y0029968D01*
X0549610Y0032049D01*
X0550736Y0034768D01*
X0550736Y0037711D01*
X0549610Y0040430D01*
X0547529Y0042511D01*
X0544810Y0043637D01*
X0541867Y0043637D01*
X0539148Y0042511D01*
X0537067Y0040430D01*
X0535941Y0037711D01*
X0535941Y0034768D01*
X0537067Y0032049D01*
X0539148Y0029968D01*
X0536794Y0032708D02*
X0483171Y0032708D01*
X0485169Y0034707D02*
X0535966Y0034707D01*
X0535941Y0036705D02*
X0487168Y0036705D01*
X0489166Y0038704D02*
X0536352Y0038704D01*
X0537340Y0040702D02*
X0517370Y0040702D01*
X0517250Y0040653D02*
X0519969Y0041779D01*
X0522050Y0043860D01*
X0523176Y0046579D01*
X0523176Y0049522D01*
X0522050Y0052241D01*
X0519969Y0054322D01*
X0517250Y0055448D01*
X0514307Y0055448D01*
X0512547Y0054719D01*
X0512547Y0055034D01*
X0511421Y0057753D01*
X0509340Y0059834D01*
X0506621Y0060960D01*
X0503678Y0060960D01*
X0500959Y0059834D01*
X0498878Y0057753D01*
X0497752Y0055034D01*
X0497752Y0052091D01*
X0498878Y0049372D01*
X0500959Y0047291D01*
X0503678Y0046165D01*
X0505521Y0046165D01*
X0507847Y0043838D01*
X0509673Y0043082D01*
X0510285Y0043082D01*
X0511588Y0041779D01*
X0514307Y0040653D01*
X0517250Y0040653D01*
X0514188Y0040702D02*
X0491003Y0040702D01*
X0491720Y0042701D02*
X0510667Y0042701D01*
X0506986Y0044699D02*
X0491720Y0044699D01*
X0491720Y0046698D02*
X0502391Y0046698D01*
X0499554Y0048696D02*
X0491720Y0048696D01*
X0491720Y0050695D02*
X0498330Y0050695D01*
X0497752Y0052693D02*
X0491720Y0052693D01*
X0491720Y0054692D02*
X0497752Y0054692D01*
X0498438Y0056690D02*
X0491720Y0056690D01*
X0491720Y0058689D02*
X0499814Y0058689D01*
X0503020Y0060687D02*
X0491720Y0060687D01*
X0491720Y0062686D02*
X0534802Y0062686D01*
X0535099Y0061970D02*
X0537180Y0059889D01*
X0539899Y0058763D01*
X0542842Y0058763D01*
X0545560Y0059889D01*
X0547641Y0061970D01*
X0548768Y0064689D01*
X0548768Y0067632D01*
X0547641Y0070351D01*
X0545560Y0072432D01*
X0542842Y0073558D01*
X0539899Y0073558D01*
X0537180Y0072432D01*
X0535099Y0070351D01*
X0533972Y0067632D01*
X0533972Y0064689D01*
X0535099Y0061970D01*
X0536382Y0060687D02*
X0507279Y0060687D01*
X0510485Y0058689D02*
X0587549Y0058689D01*
X0587549Y0060687D02*
X0546359Y0060687D01*
X0547938Y0062686D02*
X0587549Y0062686D01*
X0587879Y0064684D02*
X0548766Y0064684D01*
X0548768Y0066683D02*
X0588415Y0066683D01*
X0589245Y0068681D02*
X0548333Y0068681D01*
X0547313Y0070680D02*
X0590399Y0070680D01*
X0592024Y0072678D02*
X0544966Y0072678D01*
X0537774Y0072678D02*
X0491720Y0072678D01*
X0491720Y0070680D02*
X0535427Y0070680D01*
X0534407Y0068681D02*
X0491720Y0068681D01*
X0491720Y0066683D02*
X0533972Y0066683D01*
X0533974Y0064684D02*
X0491720Y0064684D01*
X0491720Y0074677D02*
X0594023Y0074677D01*
X0597472Y0076675D02*
X0491720Y0076675D01*
X0491720Y0078674D02*
X0650541Y0078674D01*
X0650541Y0080672D02*
X0491720Y0080672D01*
X0491720Y0082671D02*
X0650541Y0082671D01*
X0650541Y0084669D02*
X0578313Y0084669D01*
X0579883Y0085719D02*
X0582034Y0088938D01*
X0582789Y0092735D01*
X0582034Y0096533D01*
X0579883Y0099752D01*
X0576664Y0101903D01*
X0572866Y0102659D01*
X0569069Y0101903D01*
X0565849Y0099752D01*
X0563698Y0096533D01*
X0562943Y0092735D01*
X0563698Y0088938D01*
X0565849Y0085719D01*
X0569069Y0083568D01*
X0572866Y0082812D01*
X0576664Y0083568D01*
X0579883Y0085719D01*
X0580517Y0086668D02*
X0650541Y0086668D01*
X0650541Y0088666D02*
X0581853Y0088666D01*
X0582377Y0090665D02*
X0650541Y0090665D01*
X0650541Y0092663D02*
X0582775Y0092663D01*
X0582406Y0094662D02*
X0650541Y0094662D01*
X0650541Y0096660D02*
X0581949Y0096660D01*
X0580613Y0098659D02*
X0650541Y0098659D01*
X0650541Y0100657D02*
X0578528Y0100657D01*
X0572880Y0102656D02*
X0650541Y0102656D01*
X0650541Y0104655D02*
X0518870Y0104655D01*
X0519280Y0102656D02*
X0572853Y0102656D01*
X0567204Y0100657D02*
X0518935Y0100657D01*
X0517626Y0098659D02*
X0565119Y0098659D01*
X0563784Y0096660D02*
X0491720Y0096660D01*
X0491720Y0094662D02*
X0563326Y0094662D01*
X0562957Y0092663D02*
X0491720Y0092663D01*
X0491720Y0090665D02*
X0563355Y0090665D01*
X0563880Y0088666D02*
X0491720Y0088666D01*
X0491720Y0086668D02*
X0565215Y0086668D01*
X0567420Y0084669D02*
X0491720Y0084669D01*
X0480783Y0084669D02*
X0430378Y0084669D01*
X0430378Y0082671D02*
X0480783Y0082671D01*
X0480783Y0080672D02*
X0430378Y0080672D01*
X0430378Y0078674D02*
X0480783Y0078674D01*
X0480783Y0076675D02*
X0430378Y0076675D01*
X0430378Y0074677D02*
X0480783Y0074677D01*
X0480783Y0072678D02*
X0466226Y0072678D01*
X0468573Y0070680D02*
X0480783Y0070680D01*
X0480783Y0068681D02*
X0469593Y0068681D01*
X0470028Y0066683D02*
X0480783Y0066683D01*
X0480783Y0064684D02*
X0470026Y0064684D01*
X0469198Y0062686D02*
X0480783Y0062686D01*
X0480783Y0060687D02*
X0468098Y0060687D01*
X0468098Y0058689D02*
X0480783Y0058689D01*
X0480783Y0056690D02*
X0468098Y0056690D01*
X0468098Y0054692D02*
X0480783Y0054692D01*
X0480783Y0052693D02*
X0468098Y0052693D01*
X0468098Y0050695D02*
X0480783Y0050695D01*
X0480783Y0048696D02*
X0468098Y0048696D01*
X0468098Y0046698D02*
X0480783Y0046698D01*
X0479695Y0044699D02*
X0468098Y0044699D01*
X0468330Y0042701D02*
X0477696Y0042701D01*
X0511861Y0056690D02*
X0587549Y0056690D01*
X0587549Y0054692D02*
X0519076Y0054692D01*
X0521598Y0052693D02*
X0587549Y0052693D01*
X0587549Y0050695D02*
X0522691Y0050695D01*
X0523176Y0048696D02*
X0587549Y0048696D01*
X0587549Y0046698D02*
X0523176Y0046698D01*
X0522398Y0044699D02*
X0587549Y0044699D01*
X0587549Y0042701D02*
X0547071Y0042701D01*
X0549338Y0040702D02*
X0587549Y0040702D01*
X0587549Y0038704D02*
X0550325Y0038704D01*
X0550736Y0036705D02*
X0587549Y0036705D01*
X0587549Y0034707D02*
X0550711Y0034707D01*
X0549883Y0032708D02*
X0587549Y0032708D01*
X0587549Y0030710D02*
X0548271Y0030710D01*
X0531696Y0020717D02*
X0587549Y0020717D01*
X0587549Y0018719D02*
X0530553Y0018719D01*
X0539607Y0042701D02*
X0520891Y0042701D01*
X0480783Y0086668D02*
X0430378Y0086668D01*
X0430378Y0088666D02*
X0480783Y0088666D01*
X0480783Y0090665D02*
X0430378Y0090665D01*
X0430378Y0092663D02*
X0480783Y0092663D01*
X0480783Y0094662D02*
X0430378Y0094662D01*
X0430378Y0096660D02*
X0480783Y0096660D01*
X0480783Y0098659D02*
X0430378Y0098659D01*
X0430378Y0100657D02*
X0480783Y0100657D01*
X0480783Y0102656D02*
X0430378Y0102656D01*
X0430378Y0104655D02*
X0480783Y0104655D01*
X0480783Y0106653D02*
X0430378Y0106653D01*
X0387827Y0122263D02*
X0379953Y0130137D01*
X0364205Y0130137D01*
X0336231Y0144625D02*
X0007002Y0144625D01*
X0007002Y0146623D02*
X0334232Y0146623D01*
X0332234Y0148622D02*
X0007002Y0148622D01*
X0007002Y0150620D02*
X0330235Y0150620D01*
X0328237Y0152619D02*
X0007002Y0152619D01*
X0007002Y0154617D02*
X0326238Y0154617D01*
X0354030Y0214573D02*
X0523985Y0214573D01*
X0525984Y0216571D02*
X0352488Y0216571D01*
X0352488Y0218570D02*
X0527982Y0218570D01*
X0529465Y0220568D02*
X0352488Y0220568D01*
X0371300Y0260538D02*
X0435743Y0260538D01*
X0434468Y0262537D02*
X0370449Y0262537D01*
X0370080Y0264535D02*
X0432855Y0264535D01*
X0434283Y0268720D02*
X0439008Y0263995D01*
X0419780Y0278525D02*
X0571335Y0278525D01*
X0571335Y0280523D02*
X0421778Y0280523D01*
X0423139Y0282522D02*
X0571335Y0282522D01*
X0571335Y0284521D02*
X0423291Y0284521D01*
X0423291Y0286519D02*
X0571335Y0286519D01*
X0571335Y0288518D02*
X0423291Y0288518D01*
X0423291Y0290516D02*
X0571335Y0290516D01*
X0571335Y0292515D02*
X0423291Y0292515D01*
X0423957Y0294513D02*
X0571335Y0294513D01*
X0571335Y0296512D02*
X0427064Y0296512D01*
X0428013Y0298510D02*
X0571335Y0298510D01*
X0571335Y0300509D02*
X0427957Y0300509D01*
X0426902Y0302507D02*
X0571335Y0302507D01*
X0571335Y0304506D02*
X0370050Y0304506D01*
X0370479Y0302507D02*
X0419617Y0302507D01*
X0418563Y0300509D02*
X0371312Y0300509D01*
X0371503Y0298510D02*
X0416729Y0298510D01*
X0415450Y0296512D02*
X0371138Y0296512D01*
X0370058Y0294513D02*
X0407686Y0294513D01*
X0411449Y0291554D02*
X0408615Y0288720D01*
X0364835Y0288720D01*
X0358166Y0288518D02*
X0352488Y0288518D01*
X0352488Y0290516D02*
X0358360Y0290516D01*
X0359198Y0292515D02*
X0352488Y0292515D01*
X0352488Y0294513D02*
X0359611Y0294513D01*
X0358532Y0296512D02*
X0352488Y0296512D01*
X0352488Y0298510D02*
X0358166Y0298510D01*
X0358357Y0300509D02*
X0352488Y0300509D01*
X0352488Y0302507D02*
X0359191Y0302507D01*
X0359619Y0304506D02*
X0352488Y0304506D01*
X0352488Y0306504D02*
X0358535Y0306504D01*
X0358166Y0308503D02*
X0352488Y0308503D01*
X0352488Y0310501D02*
X0358354Y0310501D01*
X0359183Y0312500D02*
X0352488Y0312500D01*
X0352488Y0314498D02*
X0359626Y0314498D01*
X0358538Y0316497D02*
X0352488Y0316497D01*
X0352488Y0318495D02*
X0358166Y0318495D01*
X0358351Y0320494D02*
X0352488Y0320494D01*
X0352488Y0322492D02*
X0359179Y0322492D01*
X0361003Y0324491D02*
X0352488Y0324491D01*
X0352488Y0326489D02*
X0359574Y0326489D01*
X0359135Y0328488D02*
X0352488Y0328488D01*
X0352488Y0330486D02*
X0359415Y0330486D01*
X0360538Y0332485D02*
X0352488Y0332485D01*
X0352488Y0334483D02*
X0359641Y0334483D01*
X0358544Y0336482D02*
X0352488Y0336482D01*
X0352488Y0338480D02*
X0358166Y0338480D01*
X0358345Y0340479D02*
X0352488Y0340479D01*
X0352488Y0342477D02*
X0359173Y0342477D01*
X0359649Y0344476D02*
X0352488Y0344476D01*
X0352488Y0346474D02*
X0358547Y0346474D01*
X0358166Y0348473D02*
X0352488Y0348473D01*
X0352488Y0350471D02*
X0358342Y0350471D01*
X0364598Y0358483D02*
X0364835Y0358720D01*
X0386872Y0346474D02*
X0406749Y0346474D01*
X0406102Y0344476D02*
X0388313Y0344476D01*
X0389760Y0342477D02*
X0405868Y0342477D01*
X0406497Y0340479D02*
X0391759Y0340479D01*
X0383890Y0342735D02*
X0395701Y0330924D01*
X0411449Y0330924D01*
X0371318Y0320494D02*
X0485012Y0320494D01*
X0483013Y0322492D02*
X0370490Y0322492D01*
X0368666Y0324491D02*
X0481015Y0324491D01*
X0487011Y0318495D02*
X0371503Y0318495D01*
X0371131Y0316497D02*
X0489009Y0316497D01*
X0491008Y0314498D02*
X0370043Y0314498D01*
X0370486Y0312500D02*
X0493006Y0312500D01*
X0495060Y0310501D02*
X0371315Y0310501D01*
X0371503Y0308503D02*
X0567869Y0308503D01*
X0569868Y0306504D02*
X0371135Y0306504D01*
X0358529Y0286519D02*
X0352488Y0286519D01*
X0352488Y0284521D02*
X0359604Y0284521D01*
X0359205Y0282522D02*
X0352488Y0282522D01*
X0352488Y0280523D02*
X0358364Y0280523D01*
X0358166Y0278525D02*
X0352488Y0278525D01*
X0352488Y0276526D02*
X0358525Y0276526D01*
X0359596Y0274528D02*
X0352488Y0274528D01*
X0352488Y0272529D02*
X0359213Y0272529D01*
X0358367Y0270531D02*
X0352488Y0270531D01*
X0364835Y0278720D02*
X0414363Y0278720D01*
X0419323Y0283680D01*
X0419323Y0295491D01*
X0423260Y0299428D01*
X0415354Y0294513D02*
X0415211Y0294513D01*
X0417781Y0276526D02*
X0571335Y0276526D01*
X0571335Y0274528D02*
X0370073Y0274528D01*
X0278364Y0280523D02*
X0234923Y0280523D01*
X0232190Y0278525D02*
X0278166Y0278525D01*
X0232949Y0304506D02*
X0222010Y0304506D01*
X0223963Y0306504D02*
X0224173Y0306504D01*
X0228417Y0306504D02*
X0228417Y0306504D01*
X0228417Y0308503D02*
X0228417Y0308503D01*
X0228417Y0310501D02*
X0228417Y0310501D01*
X0228417Y0312500D02*
X0228417Y0312500D01*
X0228417Y0314498D02*
X0228417Y0314498D01*
X0225225Y0314498D02*
X0223086Y0314498D01*
X0213749Y0314498D02*
X0213086Y0314498D01*
X0212010Y0304506D02*
X0214824Y0304506D01*
X0232662Y0306504D02*
X0232872Y0306504D01*
X0233749Y0314498D02*
X0231609Y0314498D01*
X0269717Y0362420D02*
X0269717Y0389980D01*
X0487783Y0334483D02*
X0535902Y0334483D01*
X0535902Y0332485D02*
X0488488Y0332485D01*
X0490487Y0330486D02*
X0535902Y0330486D01*
X0535902Y0328488D02*
X0492485Y0328488D01*
X0494484Y0326489D02*
X0535902Y0326489D01*
X0535902Y0324491D02*
X0496482Y0324491D01*
X0498481Y0322492D02*
X0535902Y0322492D01*
X0546839Y0322492D02*
X0568511Y0322492D01*
X0570510Y0324491D02*
X0546839Y0324491D01*
X0546839Y0326489D02*
X0572508Y0326489D01*
X0574507Y0328488D02*
X0546839Y0328488D01*
X0546839Y0330486D02*
X0576505Y0330486D01*
X0578504Y0332485D02*
X0546839Y0332485D01*
X0546839Y0334483D02*
X0580502Y0334483D01*
X0583303Y0336482D02*
X0546839Y0336482D01*
X0577983Y0316497D02*
X0630129Y0316497D01*
X0630129Y0314498D02*
X0577341Y0314498D01*
X0579339Y0312500D02*
X0630909Y0312500D01*
X0632966Y0310501D02*
X0581338Y0310501D01*
X0579982Y0318495D02*
X0630882Y0318495D01*
X0630860Y0320494D02*
X0581980Y0320494D01*
X0583979Y0322492D02*
X0630129Y0322492D01*
X0630129Y0324491D02*
X0585977Y0324491D01*
X0557861Y0258540D02*
X0556375Y0258540D01*
X0556698Y0234558D02*
X0557538Y0234558D01*
X0559320Y0232559D02*
X0554916Y0232559D01*
X0552918Y0230561D02*
X0561318Y0230561D01*
X0564127Y0228562D02*
X0550110Y0228562D01*
X0582272Y0226564D02*
X0650541Y0226564D01*
X0650541Y0224565D02*
X0582272Y0224565D01*
X0582272Y0222567D02*
X0650541Y0222567D01*
X0650541Y0220568D02*
X0582272Y0220568D01*
X0582272Y0218570D02*
X0650541Y0218570D01*
X0650541Y0216571D02*
X0582272Y0216571D01*
X0582272Y0214573D02*
X0650541Y0214573D01*
X0650541Y0212574D02*
X0582272Y0212574D01*
X0582272Y0210576D02*
X0650541Y0210576D01*
X0650541Y0208577D02*
X0582272Y0208577D01*
X0582272Y0206579D02*
X0650541Y0206579D01*
X0650541Y0204580D02*
X0582272Y0204580D01*
X0582272Y0202582D02*
X0650541Y0202582D01*
X0650541Y0200583D02*
X0582272Y0200583D01*
X0582272Y0198585D02*
X0650541Y0198585D01*
X0650541Y0196586D02*
X0582272Y0196586D01*
X0582272Y0194588D02*
X0650541Y0194588D01*
X0650541Y0192589D02*
X0582272Y0192589D01*
X0582272Y0190590D02*
X0650541Y0190590D01*
X0650541Y0188592D02*
X0582272Y0188592D01*
X0582272Y0186593D02*
X0650541Y0186593D01*
X0650541Y0184595D02*
X0582272Y0184595D01*
X0582272Y0182596D02*
X0650541Y0182596D01*
X0650541Y0180598D02*
X0582272Y0180598D01*
X0582272Y0178599D02*
X0650541Y0178599D01*
X0650541Y0176601D02*
X0582272Y0176601D01*
X0581571Y0174602D02*
X0650541Y0174602D01*
X0650541Y0172604D02*
X0579760Y0172604D01*
X0577761Y0170605D02*
X0650541Y0170605D01*
X0650541Y0168607D02*
X0575763Y0168607D01*
X0573764Y0166608D02*
X0650541Y0166608D01*
X0650541Y0164610D02*
X0571766Y0164610D01*
X0569767Y0162611D02*
X0650541Y0162611D01*
X0650541Y0160613D02*
X0567768Y0160613D01*
X0565770Y0158614D02*
X0650541Y0158614D01*
X0650541Y0156616D02*
X0563771Y0156616D01*
X0561773Y0154617D02*
X0650541Y0154617D01*
X0650541Y0152619D02*
X0559774Y0152619D01*
X0557776Y0150620D02*
X0650541Y0150620D01*
X0650541Y0148622D02*
X0555068Y0148622D01*
X0517470Y0106653D02*
X0650541Y0106653D01*
X0301554Y0072678D02*
X0272898Y0072678D01*
X0272898Y0070680D02*
X0299207Y0070680D01*
X0298187Y0068681D02*
X0272898Y0068681D01*
X0272898Y0066683D02*
X0297752Y0066683D01*
X0297754Y0064684D02*
X0272898Y0064684D01*
X0272898Y0062686D02*
X0298582Y0062686D01*
X0299681Y0060687D02*
X0272898Y0060687D01*
X0274264Y0058689D02*
X0299681Y0058689D01*
X0299681Y0056690D02*
X0275641Y0056690D01*
X0282856Y0054692D02*
X0299681Y0054692D01*
X0299681Y0052693D02*
X0285377Y0052693D01*
X0286470Y0050695D02*
X0299681Y0050695D01*
X0299681Y0048696D02*
X0286956Y0048696D01*
X0286956Y0046698D02*
X0299681Y0046698D01*
X0299681Y0044699D02*
X0286177Y0044699D01*
X0284670Y0042701D02*
X0299681Y0042701D01*
X0120110Y0102578D02*
X0104362Y0102578D01*
X0100425Y0106515D01*
X0084664Y0102656D02*
X0007002Y0102656D01*
X0007002Y0100657D02*
X0079015Y0100657D01*
X0076930Y0098659D02*
X0007002Y0098659D01*
X0007002Y0096660D02*
X0075595Y0096660D01*
X0075137Y0094662D02*
X0007002Y0094662D01*
X0007002Y0092663D02*
X0074768Y0092663D01*
X0075166Y0090665D02*
X0007002Y0090665D01*
D16*
X0100425Y0106515D03*
X0120110Y0102578D03*
X0120110Y0134074D03*
X0127984Y0138011D03*
X0206724Y0126200D03*
X0277591Y0102578D03*
X0305150Y0122263D03*
X0285465Y0130137D03*
X0364205Y0130137D03*
X0387827Y0122263D03*
X0470504Y0149822D03*
X0513811Y0102578D03*
X0529559Y0236436D03*
X0537433Y0236436D03*
X0545307Y0236436D03*
X0537433Y0244310D03*
X0529559Y0244310D03*
X0568929Y0236436D03*
X0576803Y0236436D03*
X0584677Y0236436D03*
X0584677Y0244310D03*
X0576803Y0244310D03*
X0439008Y0263995D03*
X0411449Y0291554D03*
X0423260Y0299428D03*
X0411449Y0330924D03*
X0383890Y0342735D03*
X0269717Y0362420D03*
X0269717Y0389980D03*
X0541370Y0370294D03*
D17*
X0364598Y0358483D02*
X0348457Y0358483D01*
X0344520Y0354546D01*
X0344520Y0212814D01*
X0352394Y0204940D01*
X0525622Y0204940D01*
X0537433Y0216751D01*
X0537433Y0236436D01*
D18*
X0576803Y0236436D02*
X0576803Y0307302D01*
X0568929Y0315176D01*
X0585031Y0331279D01*
X0635898Y0331279D01*
X0568929Y0315176D02*
X0541370Y0315176D01*
X0541370Y0370294D01*
X0482315Y0401791D02*
X0482315Y0330924D01*
X0498063Y0315176D01*
X0541370Y0315176D01*
X0576803Y0236436D02*
X0576803Y0177381D01*
X0553181Y0153759D01*
X0502000Y0153759D01*
X0486252Y0138011D01*
X0486252Y0102578D01*
X0513811Y0102578D01*
X0486252Y0102578D02*
X0486252Y0043523D01*
X0478969Y0036239D01*
X0464598Y0036239D01*
X0385858Y0036239D01*
X0307118Y0036239D01*
X0228378Y0036239D01*
X0149638Y0036239D01*
X0147669Y0038208D01*
X0147669Y0066161D01*
X0226409Y0066161D02*
X0226409Y0038208D01*
X0228378Y0036239D01*
X0305150Y0038208D02*
X0307118Y0036239D01*
X0305150Y0038208D02*
X0305150Y0066161D01*
X0383890Y0066161D02*
X0383890Y0038208D01*
X0385858Y0036239D01*
X0462630Y0038208D02*
X0464598Y0036239D01*
X0462630Y0038208D02*
X0462630Y0066161D01*
X0238417Y0291751D02*
X0230346Y0283680D01*
X0183102Y0283680D01*
X0163417Y0303365D01*
X0163417Y0393917D01*
X0183299Y0413798D01*
X0410858Y0413798D01*
X0470307Y0413798D02*
X0482315Y0401791D01*
X0238417Y0310019D02*
X0238417Y0291751D01*
D19*
X0410858Y0413798D02*
X0470307Y0413798D01*
X0505150Y0053562D02*
X0510661Y0048050D01*
X0515779Y0048050D01*
X0437039Y0048050D02*
X0431921Y0048050D01*
X0426409Y0053562D01*
X0358298Y0048050D02*
X0353181Y0048050D01*
X0347669Y0053562D01*
X0279558Y0048050D02*
X0274441Y0048050D01*
X0268929Y0053562D01*
X0200818Y0048050D02*
X0195701Y0048050D01*
X0190189Y0053562D01*
X0122078Y0048050D02*
X0116961Y0048050D01*
X0111449Y0053562D01*
M02*
