G75*
%MOIN*%
%OFA0B0*%
%FSLAX25Y25*%
%IPPOS*%
%LPD*%
%AMOC8*
5,1,8,0,0,1.08239X$1,22.5*
%
%ADD10C,0.07400*%
%ADD11C,0.06000*%
%ADD12C,0.07000*%
%ADD13C,0.05600*%
%ADD14R,0.04724X0.04724*%
%ADD15R,0.03937X0.05512*%
%ADD16R,0.05118X0.05906*%
%ADD17R,0.05906X0.05118*%
%ADD18C,0.08858*%
%ADD19R,0.03150X0.03543*%
%ADD20R,0.21850X0.24213*%
%ADD21R,0.03937X0.10709*%
%ADD22C,0.02000*%
%ADD23C,0.03569*%
%ADD24C,0.04000*%
D10*
X0284835Y0228720D03*
X0284835Y0238720D03*
X0284835Y0248720D03*
X0284835Y0258720D03*
X0284835Y0268720D03*
X0284835Y0278720D03*
X0284835Y0288720D03*
X0284835Y0298720D03*
X0284835Y0308720D03*
X0284835Y0318720D03*
X0284835Y0328720D03*
X0284835Y0338720D03*
X0284835Y0348720D03*
X0284835Y0358720D03*
X0364835Y0358720D03*
X0364835Y0348720D03*
X0364835Y0338720D03*
X0364835Y0328720D03*
X0364835Y0318720D03*
X0364835Y0308720D03*
X0364835Y0298720D03*
X0364835Y0288720D03*
X0364835Y0278720D03*
X0364835Y0268720D03*
X0364835Y0258720D03*
X0364835Y0248720D03*
X0364835Y0238720D03*
X0364835Y0228720D03*
D11*
X0410858Y0342932D03*
X0410858Y0350806D03*
X0410858Y0358680D03*
X0410858Y0366554D03*
X0410858Y0374428D03*
X0410858Y0382302D03*
X0410858Y0390176D03*
X0410858Y0398050D03*
X0410858Y0405924D03*
X0410858Y0413798D03*
X0497472Y0413798D03*
X0497472Y0405924D03*
X0497472Y0398050D03*
X0497472Y0390176D03*
X0497472Y0382302D03*
X0497472Y0374428D03*
X0497472Y0366554D03*
X0497472Y0358680D03*
X0497472Y0350806D03*
X0497472Y0342932D03*
D12*
X0238417Y0310019D03*
X0228417Y0310019D03*
X0218417Y0310019D03*
X0208417Y0310019D03*
D13*
X0635898Y0315531D03*
X0635898Y0323405D03*
X0635898Y0331279D03*
X0635898Y0339153D03*
D14*
X0567906Y0410728D03*
X0567906Y0418995D03*
X0537433Y0418995D03*
X0537433Y0410728D03*
D15*
X0519598Y0392578D03*
X0515858Y0383917D03*
X0523339Y0383917D03*
D16*
X0523339Y0368090D03*
X0515858Y0368090D03*
X0515780Y0353208D03*
X0523260Y0353208D03*
X0450622Y0114389D03*
X0443142Y0114389D03*
X0371882Y0114389D03*
X0364402Y0114389D03*
X0293142Y0114389D03*
X0285661Y0114389D03*
X0214402Y0114389D03*
X0206921Y0114389D03*
X0135661Y0114389D03*
X0128181Y0114389D03*
D17*
X0147669Y0090570D03*
X0147669Y0083090D03*
X0226409Y0083090D03*
X0226409Y0090570D03*
X0305150Y0090570D03*
X0305150Y0083090D03*
X0383890Y0083090D03*
X0383890Y0090570D03*
X0462630Y0090570D03*
X0462630Y0083090D03*
X0517748Y0087027D03*
X0517748Y0094507D03*
X0529559Y0252381D03*
X0529559Y0259861D03*
X0584677Y0259861D03*
X0584677Y0252381D03*
X0567906Y0390176D03*
X0567906Y0397657D03*
X0537433Y0397657D03*
X0537433Y0390176D03*
D18*
X0541370Y0066161D03*
X0515779Y0048050D03*
X0505150Y0053562D03*
X0525622Y0022854D03*
X0543339Y0036239D03*
X0464598Y0036239D03*
X0446882Y0022854D03*
X0437039Y0048050D03*
X0426409Y0053562D03*
X0462630Y0066161D03*
X0383890Y0066161D03*
X0358298Y0048050D03*
X0347669Y0053562D03*
X0368142Y0022854D03*
X0385858Y0036239D03*
X0307118Y0036239D03*
X0289402Y0022854D03*
X0279558Y0048050D03*
X0268929Y0053562D03*
X0305150Y0066161D03*
X0226409Y0066161D03*
X0200818Y0048050D03*
X0190189Y0053562D03*
X0210661Y0022854D03*
X0228378Y0036239D03*
X0149638Y0036239D03*
X0131921Y0022854D03*
X0122078Y0048050D03*
X0111449Y0053562D03*
X0147669Y0066161D03*
D19*
X0131921Y0090373D03*
X0128181Y0098641D03*
X0135661Y0098641D03*
X0206921Y0098641D03*
X0214402Y0098641D03*
X0210661Y0090373D03*
X0285661Y0098641D03*
X0293142Y0098641D03*
X0289402Y0090373D03*
X0364402Y0098641D03*
X0371882Y0098641D03*
X0368142Y0090373D03*
X0443142Y0098641D03*
X0450622Y0098641D03*
X0446882Y0090373D03*
D20*
X0557118Y0277775D03*
D21*
X0548102Y0251397D03*
X0566134Y0251397D03*
D22*
X0069994Y0063453D02*
X0069994Y0017029D01*
X0127284Y0017029D01*
X0125650Y0018663D01*
X0124524Y0021382D01*
X0124524Y0024325D01*
X0125650Y0027044D01*
X0127731Y0029125D01*
X0127953Y0029217D01*
X0127953Y0043463D01*
X0126268Y0041779D01*
X0123550Y0040653D01*
X0120607Y0040653D01*
X0117888Y0041779D01*
X0115807Y0043860D01*
X0114680Y0046579D01*
X0114680Y0046894D01*
X0112920Y0046165D01*
X0109977Y0046165D01*
X0107258Y0047291D01*
X0105177Y0049372D01*
X0104051Y0052091D01*
X0104051Y0055034D01*
X0105177Y0057753D01*
X0107258Y0059834D01*
X0107480Y0059926D01*
X0107480Y0248249D01*
X0108084Y0249708D01*
X0136431Y0278054D01*
X0137547Y0279171D01*
X0139006Y0279775D01*
X0240514Y0279775D01*
X0272824Y0312085D01*
X0274282Y0312689D01*
X0279372Y0312689D01*
X0280404Y0313720D01*
X0279372Y0314752D01*
X0277194Y0314752D01*
X0275735Y0315356D01*
X0266352Y0324739D01*
X0265748Y0326198D01*
X0265748Y0359668D01*
X0265687Y0359728D01*
X0264964Y0361475D01*
X0264964Y0363366D01*
X0265687Y0365113D01*
X0266901Y0366326D01*
X0239864Y0366326D01*
X0222386Y0348848D01*
X0222386Y0315198D01*
X0223901Y0313683D01*
X0224039Y0313350D01*
X0224222Y0313602D01*
X0224834Y0314214D01*
X0225535Y0314723D01*
X0226306Y0315116D01*
X0227129Y0315383D01*
X0227984Y0315519D01*
X0228417Y0315519D01*
X0228417Y0310019D01*
X0228417Y0310019D01*
X0228417Y0310019D01*
X0228417Y0304519D01*
X0227984Y0304519D01*
X0227129Y0304654D01*
X0226306Y0304922D01*
X0225535Y0305315D01*
X0224834Y0305824D01*
X0224222Y0306436D01*
X0224039Y0306688D01*
X0223901Y0306355D01*
X0222081Y0304535D01*
X0219704Y0303550D01*
X0217131Y0303550D01*
X0214753Y0304535D01*
X0213417Y0305871D01*
X0212081Y0304535D01*
X0209704Y0303550D01*
X0207131Y0303550D01*
X0204753Y0304535D01*
X0202934Y0306355D01*
X0201949Y0308732D01*
X0201949Y0311306D01*
X0202934Y0313683D01*
X0204449Y0315198D01*
X0204449Y0353092D01*
X0205053Y0354550D01*
X0230919Y0380416D01*
X0232035Y0381533D01*
X0233494Y0382137D01*
X0341372Y0382137D01*
X0342831Y0381533D01*
X0350705Y0373659D01*
X0351821Y0372542D01*
X0352425Y0371084D01*
X0352425Y0316820D01*
X0356556Y0312689D01*
X0359372Y0312689D01*
X0360404Y0313720D01*
X0359181Y0314943D01*
X0358166Y0317394D01*
X0358166Y0320047D01*
X0359181Y0322498D01*
X0361057Y0324374D01*
X0361102Y0324392D01*
X0360487Y0325007D01*
X0359960Y0325733D01*
X0359552Y0326532D01*
X0359275Y0327386D01*
X0359135Y0328272D01*
X0359135Y0328720D01*
X0364835Y0328720D01*
X0364835Y0328721D01*
X0370535Y0328721D01*
X0370535Y0329169D01*
X0370394Y0330055D01*
X0370117Y0330909D01*
X0369710Y0331708D01*
X0369182Y0332434D01*
X0368567Y0333049D01*
X0368612Y0333067D01*
X0370488Y0334943D01*
X0371503Y0337394D01*
X0371503Y0340047D01*
X0370488Y0342498D01*
X0369265Y0343720D01*
X0370488Y0344943D01*
X0371503Y0347394D01*
X0371503Y0350047D01*
X0370488Y0352498D01*
X0369265Y0353720D01*
X0370488Y0354943D01*
X0371503Y0357394D01*
X0371503Y0360047D01*
X0370488Y0362498D01*
X0368612Y0364374D01*
X0366161Y0365389D01*
X0363508Y0365389D01*
X0361057Y0364374D01*
X0359181Y0362498D01*
X0358166Y0360047D01*
X0358166Y0357394D01*
X0359181Y0354943D01*
X0360404Y0353720D01*
X0359181Y0352498D01*
X0358166Y0350047D01*
X0358166Y0347394D01*
X0359181Y0344943D01*
X0360404Y0343720D01*
X0359181Y0342498D01*
X0358166Y0340047D01*
X0358166Y0337394D01*
X0359181Y0334943D01*
X0361057Y0333067D01*
X0361102Y0333049D01*
X0360487Y0332434D01*
X0359960Y0331708D01*
X0359552Y0330909D01*
X0359275Y0330055D01*
X0359135Y0329169D01*
X0359135Y0328721D01*
X0364835Y0328721D01*
X0364835Y0328720D02*
X0370535Y0328720D01*
X0370535Y0328272D01*
X0370394Y0327386D01*
X0370117Y0326532D01*
X0369710Y0325733D01*
X0369182Y0325007D01*
X0368567Y0324392D01*
X0368612Y0324374D01*
X0370488Y0322498D01*
X0371503Y0320047D01*
X0371503Y0317394D01*
X0370488Y0314943D01*
X0369265Y0313720D01*
X0370488Y0312498D01*
X0371503Y0310047D01*
X0371503Y0307394D01*
X0370488Y0304943D01*
X0369265Y0303720D01*
X0370488Y0302498D01*
X0371503Y0300047D01*
X0371503Y0297394D01*
X0370488Y0294943D01*
X0369265Y0293720D01*
X0370488Y0292498D01*
X0371503Y0290047D01*
X0371503Y0287394D01*
X0370488Y0284943D01*
X0369265Y0283720D01*
X0370488Y0282498D01*
X0371503Y0280047D01*
X0371503Y0277394D01*
X0370488Y0274943D01*
X0369265Y0273720D01*
X0370488Y0272498D01*
X0371503Y0270047D01*
X0371503Y0267394D01*
X0370488Y0264943D01*
X0369265Y0263720D01*
X0370297Y0262689D01*
X0384845Y0262689D01*
X0387795Y0265639D01*
X0387795Y0339920D01*
X0386582Y0338706D01*
X0384835Y0337983D01*
X0382944Y0337983D01*
X0381198Y0338706D01*
X0379861Y0340043D01*
X0379137Y0341790D01*
X0379137Y0343681D01*
X0379861Y0345428D01*
X0379921Y0345488D01*
X0379921Y0380462D01*
X0374372Y0386011D01*
X0272469Y0386011D01*
X0272409Y0385950D01*
X0270662Y0385227D01*
X0268771Y0385227D01*
X0267024Y0385950D01*
X0265687Y0387287D01*
X0264964Y0389034D01*
X0264964Y0390925D01*
X0265687Y0392672D01*
X0267024Y0394009D01*
X0268771Y0394732D01*
X0270662Y0394732D01*
X0272409Y0394009D01*
X0272469Y0393948D01*
X0376805Y0393948D01*
X0378264Y0393344D01*
X0379380Y0392227D01*
X0387254Y0384353D01*
X0387795Y0383047D01*
X0387795Y0398643D01*
X0388399Y0400102D01*
X0389516Y0401218D01*
X0397587Y0409289D01*
X0399045Y0409893D01*
X0406323Y0409893D01*
X0405798Y0410418D01*
X0404890Y0412611D01*
X0404890Y0414986D01*
X0405798Y0417179D01*
X0407477Y0418858D01*
X0409671Y0419767D01*
X0412045Y0419767D01*
X0414239Y0418858D01*
X0415918Y0417179D01*
X0416827Y0414986D01*
X0416827Y0412611D01*
X0415918Y0410418D01*
X0415362Y0409861D01*
X0415918Y0409305D01*
X0416827Y0407112D01*
X0416827Y0404737D01*
X0415918Y0402544D01*
X0415362Y0401987D01*
X0415918Y0401431D01*
X0416827Y0399238D01*
X0416827Y0396863D01*
X0415918Y0394670D01*
X0415362Y0394113D01*
X0415918Y0393557D01*
X0416827Y0391364D01*
X0416827Y0388989D01*
X0415918Y0386795D01*
X0415362Y0386239D01*
X0415918Y0385683D01*
X0416827Y0383490D01*
X0416827Y0381115D01*
X0415918Y0378921D01*
X0415362Y0378365D01*
X0415918Y0377809D01*
X0416827Y0375616D01*
X0416827Y0373241D01*
X0415918Y0371047D01*
X0415362Y0370491D01*
X0415918Y0369935D01*
X0416827Y0367742D01*
X0416827Y0365367D01*
X0415918Y0363173D01*
X0415362Y0362617D01*
X0415918Y0362061D01*
X0416827Y0359868D01*
X0416827Y0357493D01*
X0415918Y0355299D01*
X0415362Y0354743D01*
X0415918Y0354187D01*
X0416827Y0351994D01*
X0416827Y0349619D01*
X0415918Y0347425D01*
X0414676Y0346184D01*
X0415135Y0345553D01*
X0415492Y0344852D01*
X0415735Y0344103D01*
X0415858Y0343326D01*
X0415858Y0342932D01*
X0410858Y0342932D01*
X0410858Y0342932D01*
X0410858Y0337932D01*
X0410465Y0337932D01*
X0409687Y0338055D01*
X0408939Y0338299D01*
X0408238Y0338656D01*
X0407601Y0339118D01*
X0407044Y0339675D01*
X0406582Y0340312D01*
X0406225Y0341013D01*
X0405981Y0341761D01*
X0405858Y0342539D01*
X0405858Y0342932D01*
X0410858Y0342932D01*
X0410858Y0342932D01*
X0410858Y0337932D01*
X0411252Y0337932D01*
X0412029Y0338055D01*
X0412778Y0338299D01*
X0413479Y0338656D01*
X0414116Y0339118D01*
X0414672Y0339675D01*
X0415135Y0340312D01*
X0415492Y0341013D01*
X0415735Y0341761D01*
X0415858Y0342539D01*
X0415858Y0342932D01*
X0410858Y0342932D01*
X0405858Y0342932D01*
X0405858Y0343326D01*
X0405981Y0344103D01*
X0406225Y0344852D01*
X0406582Y0345553D01*
X0407040Y0346184D01*
X0405798Y0347425D01*
X0404890Y0349619D01*
X0404890Y0351994D01*
X0405798Y0354187D01*
X0406355Y0354743D01*
X0405798Y0355299D01*
X0404890Y0357493D01*
X0404890Y0359868D01*
X0405798Y0362061D01*
X0406355Y0362617D01*
X0405798Y0363173D01*
X0404890Y0365367D01*
X0404890Y0367742D01*
X0405798Y0369935D01*
X0406355Y0370491D01*
X0405798Y0371047D01*
X0404890Y0373241D01*
X0404890Y0375616D01*
X0405798Y0377809D01*
X0406355Y0378365D01*
X0405798Y0378921D01*
X0404890Y0381115D01*
X0404890Y0383490D01*
X0405798Y0385683D01*
X0406355Y0386239D01*
X0405798Y0386795D01*
X0404890Y0388989D01*
X0404890Y0391364D01*
X0405798Y0393557D01*
X0406323Y0394082D01*
X0405415Y0394082D01*
X0403606Y0392273D01*
X0403606Y0259269D01*
X0403002Y0257810D01*
X0390548Y0245356D01*
X0389089Y0244752D01*
X0370297Y0244752D01*
X0369265Y0243720D01*
X0370297Y0242689D01*
X0374521Y0242689D01*
X0375979Y0242085D01*
X0386138Y0231927D01*
X0386138Y0231927D01*
X0387254Y0230810D01*
X0387858Y0229352D01*
X0387858Y0164781D01*
X0387254Y0163322D01*
X0386138Y0162206D01*
X0375850Y0151918D01*
X0375850Y0119971D01*
X0376122Y0119858D01*
X0376958Y0119023D01*
X0377409Y0117932D01*
X0377409Y0110846D01*
X0376958Y0109755D01*
X0376122Y0108920D01*
X0375850Y0108807D01*
X0375850Y0102217D01*
X0375973Y0102094D01*
X0376425Y0101003D01*
X0376425Y0096279D01*
X0375973Y0095188D01*
X0375138Y0094353D01*
X0375112Y0094342D01*
X0378226Y0094342D01*
X0378420Y0094811D01*
X0379255Y0095646D01*
X0380347Y0096098D01*
X0387433Y0096098D01*
X0388524Y0095646D01*
X0389359Y0094811D01*
X0389811Y0093720D01*
X0389811Y0087421D01*
X0389566Y0086830D01*
X0389811Y0086239D01*
X0389811Y0079940D01*
X0389359Y0078849D01*
X0388858Y0078348D01*
X0388858Y0071654D01*
X0390161Y0070351D01*
X0391287Y0067632D01*
X0391287Y0064689D01*
X0390161Y0061970D01*
X0388080Y0059889D01*
X0385361Y0058763D01*
X0382418Y0058763D01*
X0379699Y0059889D01*
X0377618Y0061970D01*
X0376492Y0064689D01*
X0376492Y0067632D01*
X0377618Y0070351D01*
X0378921Y0071654D01*
X0378921Y0078348D01*
X0378420Y0078849D01*
X0377969Y0079940D01*
X0377969Y0086239D01*
X0378037Y0086405D01*
X0372110Y0086405D01*
X0372110Y0029217D01*
X0372332Y0029125D01*
X0374413Y0027044D01*
X0375539Y0024325D01*
X0375539Y0021382D01*
X0374413Y0018663D01*
X0372779Y0017029D01*
X0442245Y0017029D01*
X0440610Y0018663D01*
X0439484Y0021382D01*
X0439484Y0024325D01*
X0440610Y0027044D01*
X0442691Y0029125D01*
X0442913Y0029217D01*
X0442913Y0043463D01*
X0441229Y0041779D01*
X0438510Y0040653D01*
X0435567Y0040653D01*
X0432848Y0041779D01*
X0430767Y0043860D01*
X0429641Y0046579D01*
X0429641Y0046894D01*
X0427881Y0046165D01*
X0424938Y0046165D01*
X0422219Y0047291D01*
X0420138Y0049372D01*
X0419012Y0052091D01*
X0419012Y0055034D01*
X0420138Y0057753D01*
X0422219Y0059834D01*
X0424938Y0060960D01*
X0427881Y0060960D01*
X0430600Y0059834D01*
X0432681Y0057753D01*
X0433807Y0055034D01*
X0433807Y0054719D01*
X0435567Y0055448D01*
X0438510Y0055448D01*
X0441229Y0054322D01*
X0442913Y0052637D01*
X0442913Y0086797D01*
X0442791Y0086920D01*
X0442339Y0088011D01*
X0442339Y0092735D01*
X0442791Y0093826D01*
X0443626Y0094661D01*
X0444127Y0094869D01*
X0443142Y0094869D01*
X0443142Y0098641D01*
X0443142Y0098641D01*
X0443142Y0102413D01*
X0444980Y0102413D01*
X0445488Y0102276D01*
X0445945Y0102013D01*
X0446317Y0101641D01*
X0446332Y0101614D01*
X0446531Y0102094D01*
X0446654Y0102217D01*
X0446654Y0108807D01*
X0446381Y0108920D01*
X0445865Y0109436D01*
X0443421Y0109436D01*
X0443421Y0114109D01*
X0442862Y0114109D01*
X0442862Y0109436D01*
X0440319Y0109436D01*
X0439811Y0109573D01*
X0439355Y0109836D01*
X0438982Y0110208D01*
X0438719Y0110664D01*
X0438583Y0111173D01*
X0438583Y0114109D01*
X0442862Y0114109D01*
X0442862Y0114669D01*
X0442862Y0119342D01*
X0440319Y0119342D01*
X0439811Y0119205D01*
X0439355Y0118942D01*
X0438982Y0118570D01*
X0438719Y0118114D01*
X0438583Y0117605D01*
X0438583Y0114669D01*
X0442862Y0114669D01*
X0443421Y0114669D01*
X0443421Y0119342D01*
X0445865Y0119342D01*
X0446381Y0119858D01*
X0446654Y0119971D01*
X0446654Y0250737D01*
X0438148Y0259243D01*
X0438062Y0259243D01*
X0436316Y0259966D01*
X0434979Y0261303D01*
X0434255Y0263050D01*
X0434255Y0264941D01*
X0434979Y0266687D01*
X0436316Y0268024D01*
X0438062Y0268748D01*
X0439953Y0268748D01*
X0441700Y0268024D01*
X0443037Y0266687D01*
X0443761Y0264941D01*
X0443761Y0264855D01*
X0453986Y0254629D01*
X0454591Y0253170D01*
X0454591Y0119971D01*
X0454863Y0119858D01*
X0455698Y0119023D01*
X0456150Y0117932D01*
X0456150Y0110846D01*
X0455698Y0109755D01*
X0454863Y0108920D01*
X0454591Y0108807D01*
X0454591Y0102217D01*
X0454713Y0102094D01*
X0455165Y0101003D01*
X0455165Y0096279D01*
X0454713Y0095188D01*
X0453878Y0094353D01*
X0453852Y0094342D01*
X0456966Y0094342D01*
X0457161Y0094811D01*
X0457996Y0095646D01*
X0459087Y0096098D01*
X0466173Y0096098D01*
X0466535Y0095948D01*
X0466535Y0147069D01*
X0466475Y0147130D01*
X0465751Y0148877D01*
X0465751Y0150767D01*
X0466475Y0152514D01*
X0467812Y0153851D01*
X0469559Y0154575D01*
X0471449Y0154575D01*
X0473196Y0153851D01*
X0474533Y0152514D01*
X0475257Y0150767D01*
X0475257Y0148877D01*
X0474533Y0147130D01*
X0474472Y0147069D01*
X0474472Y0096348D01*
X0479825Y0090995D01*
X0511977Y0090995D01*
X0511827Y0091358D01*
X0511827Y0097657D01*
X0512039Y0098168D01*
X0511119Y0098549D01*
X0509782Y0099886D01*
X0509058Y0101633D01*
X0509058Y0103523D01*
X0509782Y0105270D01*
X0511119Y0106607D01*
X0512866Y0107331D01*
X0514756Y0107331D01*
X0516503Y0106607D01*
X0517840Y0105270D01*
X0518564Y0103523D01*
X0518564Y0103437D01*
X0521112Y0100889D01*
X0521502Y0099947D01*
X0522382Y0099583D01*
X0523217Y0098748D01*
X0523669Y0097657D01*
X0523669Y0091358D01*
X0523425Y0090767D01*
X0523669Y0090176D01*
X0523669Y0083877D01*
X0523217Y0082786D01*
X0522382Y0081951D01*
X0521717Y0081675D01*
X0521717Y0074230D01*
X0521112Y0072771D01*
X0519996Y0071655D01*
X0509118Y0060777D01*
X0509118Y0059926D01*
X0509340Y0059834D01*
X0511421Y0057753D01*
X0512547Y0055034D01*
X0512547Y0054719D01*
X0514307Y0055448D01*
X0517250Y0055448D01*
X0519969Y0054322D01*
X0522050Y0052241D01*
X0523176Y0049522D01*
X0523176Y0046579D01*
X0522050Y0043860D01*
X0519969Y0041779D01*
X0517250Y0040653D01*
X0514307Y0040653D01*
X0511588Y0041779D01*
X0509507Y0043860D01*
X0508381Y0046579D01*
X0508381Y0046894D01*
X0506621Y0046165D01*
X0503678Y0046165D01*
X0500959Y0047291D01*
X0498878Y0049372D01*
X0497752Y0052091D01*
X0497752Y0055034D01*
X0498878Y0057753D01*
X0500959Y0059834D01*
X0501181Y0059926D01*
X0501181Y0063210D01*
X0501785Y0064668D01*
X0513780Y0076663D01*
X0513780Y0081675D01*
X0513114Y0081951D01*
X0512279Y0082786D01*
X0512166Y0083058D01*
X0477392Y0083058D01*
X0475933Y0083662D01*
X0468551Y0091044D01*
X0468551Y0087421D01*
X0468307Y0086830D01*
X0468551Y0086239D01*
X0468551Y0079940D01*
X0468099Y0078849D01*
X0467598Y0078348D01*
X0467598Y0071654D01*
X0468901Y0070351D01*
X0470028Y0067632D01*
X0470028Y0064689D01*
X0468901Y0061970D01*
X0466820Y0059889D01*
X0464101Y0058763D01*
X0461158Y0058763D01*
X0458439Y0059889D01*
X0456359Y0061970D01*
X0455232Y0064689D01*
X0455232Y0067632D01*
X0456359Y0070351D01*
X0457661Y0071654D01*
X0457661Y0078348D01*
X0457161Y0078849D01*
X0456709Y0079940D01*
X0456709Y0086239D01*
X0456777Y0086405D01*
X0450850Y0086405D01*
X0450850Y0029217D01*
X0451072Y0029125D01*
X0453153Y0027044D01*
X0454280Y0024325D01*
X0454280Y0021382D01*
X0453153Y0018663D01*
X0451519Y0017029D01*
X0522884Y0017029D01*
X0522772Y0017075D01*
X0522043Y0017496D01*
X0521374Y0018009D01*
X0520778Y0018605D01*
X0520265Y0019274D01*
X0519844Y0020004D01*
X0519521Y0020783D01*
X0519303Y0021597D01*
X0519200Y0022377D01*
X0525146Y0022377D01*
X0525146Y0023330D01*
X0525146Y0029275D01*
X0524365Y0029173D01*
X0523551Y0028955D01*
X0522772Y0028632D01*
X0522043Y0028211D01*
X0521374Y0027698D01*
X0520778Y0027102D01*
X0520265Y0026433D01*
X0519844Y0025703D01*
X0519521Y0024925D01*
X0519303Y0024110D01*
X0519200Y0023330D01*
X0525146Y0023330D01*
X0526098Y0023330D01*
X0526098Y0029275D01*
X0526879Y0029173D01*
X0527693Y0028955D01*
X0528472Y0028632D01*
X0529202Y0028211D01*
X0529870Y0027698D01*
X0530466Y0027102D01*
X0530979Y0026433D01*
X0531401Y0025703D01*
X0531723Y0024925D01*
X0531941Y0024110D01*
X0532044Y0023330D01*
X0526098Y0023330D01*
X0526098Y0022377D01*
X0532044Y0022377D01*
X0531941Y0021597D01*
X0531723Y0020783D01*
X0531401Y0020004D01*
X0530979Y0019274D01*
X0530466Y0018605D01*
X0529870Y0018009D01*
X0529202Y0017496D01*
X0528472Y0017075D01*
X0528360Y0017029D01*
X0587549Y0017029D01*
X0587549Y0063453D01*
X0588695Y0067729D01*
X0588695Y0067729D01*
X0590908Y0071563D01*
X0590908Y0071563D01*
X0594039Y0074693D01*
X0594039Y0074693D01*
X0597873Y0076907D01*
X0597873Y0076907D01*
X0602149Y0078052D01*
X0650541Y0078052D01*
X0650541Y0379072D01*
X0602149Y0379072D01*
X0597873Y0380218D01*
X0597873Y0380218D01*
X0594039Y0382431D01*
X0594039Y0382431D01*
X0590908Y0385562D01*
X0590908Y0385562D01*
X0588695Y0389395D01*
X0588695Y0389395D01*
X0587549Y0393672D01*
X0587549Y0440096D01*
X0069994Y0440096D01*
X0069994Y0393672D01*
X0068848Y0389395D01*
X0068848Y0389395D01*
X0066635Y0385562D01*
X0066635Y0385562D01*
X0066635Y0385562D01*
X0063505Y0382431D01*
X0059671Y0380218D01*
X0055395Y0379072D01*
X0007002Y0379072D01*
X0007002Y0078052D01*
X0055395Y0078052D01*
X0059671Y0076907D01*
X0059671Y0076907D01*
X0063505Y0074693D01*
X0063505Y0074693D01*
X0066635Y0071563D01*
X0066635Y0071563D01*
X0068848Y0067729D01*
X0068848Y0067729D01*
X0069994Y0063453D01*
X0069994Y0062686D02*
X0107480Y0062686D01*
X0107480Y0064684D02*
X0069664Y0064684D01*
X0069129Y0066683D02*
X0107480Y0066683D01*
X0107480Y0068681D02*
X0068298Y0068681D01*
X0067145Y0070680D02*
X0107480Y0070680D01*
X0107480Y0072678D02*
X0065519Y0072678D01*
X0063521Y0074677D02*
X0107480Y0074677D01*
X0107480Y0076675D02*
X0060071Y0076675D01*
X0075509Y0088938D02*
X0077660Y0085719D01*
X0080880Y0083568D01*
X0084677Y0082812D01*
X0088475Y0083568D01*
X0091694Y0085719D01*
X0093845Y0088938D01*
X0094600Y0092735D01*
X0093845Y0096533D01*
X0091694Y0099752D01*
X0088475Y0101903D01*
X0084677Y0102659D01*
X0080880Y0101903D01*
X0077660Y0099752D01*
X0075509Y0096533D01*
X0074754Y0092735D01*
X0075509Y0088938D01*
X0075691Y0088666D02*
X0007002Y0088666D01*
X0007002Y0086668D02*
X0077026Y0086668D01*
X0079231Y0084669D02*
X0007002Y0084669D01*
X0007002Y0082671D02*
X0107480Y0082671D01*
X0107480Y0084669D02*
X0090124Y0084669D01*
X0092328Y0086668D02*
X0107480Y0086668D01*
X0107480Y0088666D02*
X0093664Y0088666D01*
X0094189Y0090665D02*
X0107480Y0090665D01*
X0107480Y0092663D02*
X0094586Y0092663D01*
X0094217Y0094662D02*
X0107480Y0094662D01*
X0107480Y0096660D02*
X0093760Y0096660D01*
X0092424Y0098659D02*
X0107480Y0098659D01*
X0107480Y0100657D02*
X0090339Y0100657D01*
X0084691Y0102656D02*
X0107480Y0102656D01*
X0107480Y0104655D02*
X0007002Y0104655D01*
X0007002Y0106653D02*
X0107480Y0106653D01*
X0107480Y0108652D02*
X0007002Y0108652D01*
X0007002Y0110650D02*
X0107480Y0110650D01*
X0107480Y0112649D02*
X0007002Y0112649D01*
X0007002Y0114647D02*
X0107480Y0114647D01*
X0107480Y0116646D02*
X0007002Y0116646D01*
X0007002Y0118644D02*
X0107480Y0118644D01*
X0107480Y0120643D02*
X0007002Y0120643D01*
X0007002Y0122641D02*
X0107480Y0122641D01*
X0107480Y0124640D02*
X0007002Y0124640D01*
X0007002Y0126638D02*
X0107480Y0126638D01*
X0107480Y0128637D02*
X0007002Y0128637D01*
X0007002Y0130635D02*
X0107480Y0130635D01*
X0107480Y0132634D02*
X0007002Y0132634D01*
X0007002Y0134632D02*
X0107480Y0134632D01*
X0107480Y0136631D02*
X0007002Y0136631D01*
X0007002Y0138629D02*
X0107480Y0138629D01*
X0107480Y0140628D02*
X0007002Y0140628D01*
X0007002Y0142626D02*
X0107480Y0142626D01*
X0107480Y0144625D02*
X0007002Y0144625D01*
X0007002Y0146623D02*
X0107480Y0146623D01*
X0107480Y0148622D02*
X0007002Y0148622D01*
X0007002Y0150620D02*
X0107480Y0150620D01*
X0107480Y0152619D02*
X0007002Y0152619D01*
X0007002Y0154617D02*
X0107480Y0154617D01*
X0107480Y0156616D02*
X0007002Y0156616D01*
X0007002Y0158614D02*
X0107480Y0158614D01*
X0107480Y0160613D02*
X0007002Y0160613D01*
X0007002Y0162611D02*
X0107480Y0162611D01*
X0107480Y0164610D02*
X0007002Y0164610D01*
X0007002Y0166608D02*
X0107480Y0166608D01*
X0107480Y0168607D02*
X0007002Y0168607D01*
X0007002Y0170605D02*
X0107480Y0170605D01*
X0107480Y0172604D02*
X0007002Y0172604D01*
X0007002Y0174602D02*
X0107480Y0174602D01*
X0107480Y0176601D02*
X0007002Y0176601D01*
X0007002Y0178599D02*
X0107480Y0178599D01*
X0107480Y0180598D02*
X0007002Y0180598D01*
X0007002Y0182596D02*
X0107480Y0182596D01*
X0107480Y0184595D02*
X0007002Y0184595D01*
X0007002Y0186593D02*
X0107480Y0186593D01*
X0107480Y0188592D02*
X0007002Y0188592D01*
X0007002Y0190590D02*
X0107480Y0190590D01*
X0107480Y0192589D02*
X0007002Y0192589D01*
X0007002Y0194588D02*
X0107480Y0194588D01*
X0107480Y0196586D02*
X0007002Y0196586D01*
X0007002Y0198585D02*
X0107480Y0198585D01*
X0107480Y0200583D02*
X0007002Y0200583D01*
X0007002Y0202582D02*
X0107480Y0202582D01*
X0107480Y0204580D02*
X0007002Y0204580D01*
X0007002Y0206579D02*
X0107480Y0206579D01*
X0107480Y0208577D02*
X0007002Y0208577D01*
X0007002Y0210576D02*
X0107480Y0210576D01*
X0107480Y0212574D02*
X0007002Y0212574D01*
X0007002Y0214573D02*
X0107480Y0214573D01*
X0107480Y0216571D02*
X0007002Y0216571D01*
X0007002Y0218570D02*
X0107480Y0218570D01*
X0107480Y0220568D02*
X0007002Y0220568D01*
X0007002Y0222567D02*
X0107480Y0222567D01*
X0107480Y0224565D02*
X0007002Y0224565D01*
X0007002Y0226564D02*
X0107480Y0226564D01*
X0107480Y0228562D02*
X0007002Y0228562D01*
X0007002Y0230561D02*
X0107480Y0230561D01*
X0107480Y0232559D02*
X0007002Y0232559D01*
X0007002Y0234558D02*
X0107480Y0234558D01*
X0107480Y0236556D02*
X0007002Y0236556D01*
X0007002Y0238555D02*
X0107480Y0238555D01*
X0107480Y0240553D02*
X0007002Y0240553D01*
X0007002Y0242552D02*
X0107480Y0242552D01*
X0107480Y0244550D02*
X0007002Y0244550D01*
X0007002Y0246549D02*
X0107480Y0246549D01*
X0107604Y0248547D02*
X0007002Y0248547D01*
X0007002Y0250546D02*
X0108923Y0250546D01*
X0110921Y0252544D02*
X0007002Y0252544D01*
X0007002Y0254543D02*
X0112920Y0254543D01*
X0114918Y0256541D02*
X0007002Y0256541D01*
X0007002Y0258540D02*
X0116917Y0258540D01*
X0118915Y0260538D02*
X0007002Y0260538D01*
X0007002Y0262537D02*
X0120914Y0262537D01*
X0122912Y0264535D02*
X0007002Y0264535D01*
X0007002Y0266534D02*
X0124911Y0266534D01*
X0126909Y0268532D02*
X0007002Y0268532D01*
X0007002Y0270531D02*
X0128908Y0270531D01*
X0130906Y0272529D02*
X0007002Y0272529D01*
X0007002Y0274528D02*
X0132905Y0274528D01*
X0134903Y0276526D02*
X0007002Y0276526D01*
X0007002Y0278525D02*
X0136902Y0278525D01*
X0139795Y0275806D02*
X0242157Y0275806D01*
X0275072Y0308720D01*
X0284835Y0308720D01*
X0291503Y0308503D02*
X0336614Y0308503D01*
X0336614Y0306513D02*
X0337218Y0305054D01*
X0346917Y0295356D01*
X0348375Y0294752D01*
X0359372Y0294752D01*
X0360404Y0293720D01*
X0359181Y0292498D01*
X0358166Y0290047D01*
X0358166Y0287394D01*
X0359181Y0284943D01*
X0360404Y0283720D01*
X0359181Y0282498D01*
X0358166Y0280047D01*
X0358166Y0277394D01*
X0359181Y0274943D01*
X0360404Y0273720D01*
X0359181Y0272498D01*
X0358166Y0270047D01*
X0358166Y0267394D01*
X0359181Y0264943D01*
X0360404Y0263720D01*
X0359181Y0262498D01*
X0358166Y0260047D01*
X0358166Y0257394D01*
X0359181Y0254943D01*
X0360404Y0253720D01*
X0359181Y0252498D01*
X0358166Y0250047D01*
X0358166Y0247394D01*
X0359181Y0244943D01*
X0360404Y0243720D01*
X0359181Y0242498D01*
X0358166Y0240047D01*
X0358166Y0237394D01*
X0359181Y0234943D01*
X0360404Y0233720D01*
X0359372Y0232689D01*
X0347826Y0232689D01*
X0346367Y0232085D01*
X0337218Y0222936D01*
X0336614Y0221478D01*
X0336614Y0202647D01*
X0331065Y0197098D01*
X0300423Y0197098D01*
X0298965Y0196493D01*
X0297848Y0195377D01*
X0289777Y0187306D01*
X0289173Y0185848D01*
X0289173Y0119971D01*
X0288901Y0119858D01*
X0288385Y0119342D01*
X0285941Y0119342D01*
X0285941Y0114669D01*
X0285382Y0114669D01*
X0285382Y0119342D01*
X0282839Y0119342D01*
X0282330Y0119205D01*
X0281874Y0118942D01*
X0281502Y0118570D01*
X0281239Y0118114D01*
X0281102Y0117605D01*
X0281102Y0114669D01*
X0285382Y0114669D01*
X0285382Y0114109D01*
X0285941Y0114109D01*
X0285941Y0109436D01*
X0288385Y0109436D01*
X0288901Y0108920D01*
X0289173Y0108807D01*
X0289173Y0102217D01*
X0289050Y0102094D01*
X0288852Y0101614D01*
X0288837Y0101641D01*
X0288464Y0102013D01*
X0288008Y0102276D01*
X0287500Y0102413D01*
X0285661Y0102413D01*
X0283823Y0102413D01*
X0283315Y0102276D01*
X0282859Y0102013D01*
X0282486Y0101641D01*
X0282223Y0101185D01*
X0282087Y0100676D01*
X0282087Y0098641D01*
X0282087Y0096606D01*
X0282223Y0096097D01*
X0282486Y0095641D01*
X0282859Y0095269D01*
X0283315Y0095006D01*
X0283823Y0094869D01*
X0285661Y0094869D01*
X0285661Y0098641D01*
X0285661Y0098641D01*
X0282087Y0098641D01*
X0285661Y0098641D01*
X0285661Y0102413D01*
X0285661Y0098641D01*
X0285661Y0098641D01*
X0285661Y0098641D01*
X0281528Y0098641D01*
X0277591Y0102578D01*
X0282087Y0100657D02*
X0218945Y0100657D01*
X0218945Y0101003D02*
X0218493Y0102094D01*
X0218370Y0102217D01*
X0218370Y0108807D01*
X0218642Y0108920D01*
X0219477Y0109755D01*
X0219929Y0110846D01*
X0219929Y0117932D01*
X0219477Y0119023D01*
X0218642Y0119858D01*
X0218370Y0119971D01*
X0218370Y0210974D01*
X0232149Y0224752D01*
X0279372Y0224752D01*
X0281057Y0223067D01*
X0283508Y0222052D01*
X0286161Y0222052D01*
X0288612Y0223067D01*
X0290488Y0224943D01*
X0291503Y0227394D01*
X0291503Y0230047D01*
X0290488Y0232498D01*
X0289265Y0233720D01*
X0290488Y0234943D01*
X0291503Y0237394D01*
X0291503Y0240047D01*
X0290488Y0242498D01*
X0289265Y0243720D01*
X0290488Y0244943D01*
X0291503Y0247394D01*
X0291503Y0250047D01*
X0290488Y0252498D01*
X0289265Y0253720D01*
X0290488Y0254943D01*
X0291503Y0257394D01*
X0291503Y0260047D01*
X0290488Y0262498D01*
X0289265Y0263720D01*
X0290488Y0264943D01*
X0291503Y0267394D01*
X0291503Y0270047D01*
X0290488Y0272498D01*
X0289265Y0273720D01*
X0290488Y0274943D01*
X0291503Y0277394D01*
X0291503Y0280047D01*
X0290488Y0282498D01*
X0289265Y0283720D01*
X0290488Y0284943D01*
X0291503Y0287394D01*
X0291503Y0290047D01*
X0290488Y0292498D01*
X0289265Y0293720D01*
X0290488Y0294943D01*
X0291503Y0297394D01*
X0291503Y0300047D01*
X0290488Y0302498D01*
X0289265Y0303720D01*
X0290488Y0304943D01*
X0291503Y0307394D01*
X0291503Y0310047D01*
X0290488Y0312498D01*
X0289265Y0313720D01*
X0290488Y0314943D01*
X0291503Y0317394D01*
X0291503Y0320047D01*
X0290488Y0322498D01*
X0289265Y0323720D01*
X0290488Y0324943D01*
X0291503Y0327394D01*
X0291503Y0330047D01*
X0290488Y0332498D01*
X0289265Y0333720D01*
X0290488Y0334943D01*
X0291503Y0337394D01*
X0291503Y0340047D01*
X0290488Y0342498D01*
X0289265Y0343720D01*
X0290488Y0344943D01*
X0291503Y0347394D01*
X0291503Y0350047D01*
X0290488Y0352498D01*
X0289265Y0353720D01*
X0290488Y0354943D01*
X0291503Y0357394D01*
X0291503Y0360047D01*
X0290488Y0362498D01*
X0288612Y0364374D01*
X0286161Y0365389D01*
X0283508Y0365389D01*
X0281057Y0364374D01*
X0279181Y0362498D01*
X0278166Y0360047D01*
X0278166Y0357394D01*
X0279181Y0354943D01*
X0280404Y0353720D01*
X0279181Y0352498D01*
X0278166Y0350047D01*
X0278166Y0347394D01*
X0279181Y0344943D01*
X0280404Y0343720D01*
X0279181Y0342498D01*
X0278166Y0340047D01*
X0278166Y0337394D01*
X0279181Y0334943D01*
X0280404Y0333720D01*
X0279181Y0332498D01*
X0278166Y0330047D01*
X0278166Y0327394D01*
X0279181Y0324943D01*
X0280404Y0323720D01*
X0279500Y0322816D01*
X0273685Y0328631D01*
X0273685Y0359668D01*
X0273746Y0359728D01*
X0274469Y0361475D01*
X0274469Y0363366D01*
X0273746Y0365113D01*
X0272532Y0366326D01*
X0335002Y0366326D01*
X0336614Y0364714D01*
X0336614Y0306513D01*
X0336618Y0306504D02*
X0291135Y0306504D01*
X0290050Y0304506D02*
X0337767Y0304506D01*
X0339766Y0302507D02*
X0290479Y0302507D01*
X0291312Y0300509D02*
X0341764Y0300509D01*
X0343763Y0298510D02*
X0291503Y0298510D01*
X0291138Y0296512D02*
X0345761Y0296512D01*
X0349165Y0298720D02*
X0340583Y0307302D01*
X0340583Y0366357D01*
X0336646Y0370294D01*
X0238220Y0370294D01*
X0218417Y0350491D01*
X0218417Y0310019D01*
X0223086Y0314498D02*
X0225225Y0314498D01*
X0228417Y0314498D02*
X0228417Y0314498D01*
X0228417Y0315519D02*
X0228417Y0310019D01*
X0228417Y0304519D01*
X0228850Y0304519D01*
X0229705Y0304654D01*
X0230529Y0304922D01*
X0231300Y0305315D01*
X0232000Y0305824D01*
X0232612Y0306436D01*
X0232796Y0306688D01*
X0232934Y0306355D01*
X0234753Y0304535D01*
X0237131Y0303550D01*
X0239704Y0303550D01*
X0242081Y0304535D01*
X0243901Y0306355D01*
X0244886Y0308732D01*
X0244886Y0311306D01*
X0243901Y0313683D01*
X0242081Y0315503D01*
X0239704Y0316487D01*
X0237131Y0316487D01*
X0234753Y0315503D01*
X0232934Y0313683D01*
X0232796Y0313350D01*
X0232612Y0313602D01*
X0232000Y0314214D01*
X0231300Y0314723D01*
X0230529Y0315116D01*
X0229705Y0315383D01*
X0228850Y0315519D01*
X0228417Y0315519D01*
X0228417Y0312500D02*
X0228417Y0312500D01*
X0228417Y0310501D02*
X0228417Y0310501D01*
X0228417Y0308503D02*
X0228417Y0308503D01*
X0228417Y0306504D02*
X0228417Y0306504D01*
X0224173Y0306504D02*
X0223963Y0306504D01*
X0222010Y0304506D02*
X0234824Y0304506D01*
X0232872Y0306504D02*
X0232662Y0306504D01*
X0242010Y0304506D02*
X0265245Y0304506D01*
X0267243Y0306504D02*
X0243963Y0306504D01*
X0244791Y0308503D02*
X0269242Y0308503D01*
X0271240Y0310501D02*
X0244886Y0310501D01*
X0244391Y0312500D02*
X0273825Y0312500D01*
X0274595Y0316497D02*
X0222386Y0316497D01*
X0222386Y0318495D02*
X0272596Y0318495D01*
X0270598Y0320494D02*
X0222386Y0320494D01*
X0222386Y0322492D02*
X0268599Y0322492D01*
X0266601Y0324491D02*
X0222386Y0324491D01*
X0222386Y0326489D02*
X0265748Y0326489D01*
X0265748Y0328488D02*
X0222386Y0328488D01*
X0222386Y0330486D02*
X0265748Y0330486D01*
X0265748Y0332485D02*
X0222386Y0332485D01*
X0222386Y0334483D02*
X0265748Y0334483D01*
X0265748Y0336482D02*
X0222386Y0336482D01*
X0222386Y0338480D02*
X0265748Y0338480D01*
X0265748Y0340479D02*
X0222386Y0340479D01*
X0222386Y0342477D02*
X0265748Y0342477D01*
X0265748Y0344476D02*
X0222386Y0344476D01*
X0222386Y0346474D02*
X0265748Y0346474D01*
X0265748Y0348473D02*
X0222386Y0348473D01*
X0224010Y0350471D02*
X0265748Y0350471D01*
X0265748Y0352470D02*
X0226008Y0352470D01*
X0228007Y0354468D02*
X0265748Y0354468D01*
X0265748Y0356467D02*
X0230005Y0356467D01*
X0232004Y0358465D02*
X0265748Y0358465D01*
X0265383Y0360464D02*
X0234002Y0360464D01*
X0236001Y0362462D02*
X0264964Y0362462D01*
X0265417Y0364461D02*
X0237999Y0364461D01*
X0224956Y0374454D02*
X0007002Y0374454D01*
X0007002Y0376452D02*
X0226955Y0376452D01*
X0228953Y0378451D02*
X0007002Y0378451D01*
X0007002Y0372455D02*
X0079231Y0372455D01*
X0077660Y0371406D02*
X0075509Y0368186D01*
X0074754Y0364389D01*
X0075509Y0360592D01*
X0077660Y0357372D01*
X0080880Y0355221D01*
X0084677Y0354466D01*
X0088475Y0355221D01*
X0091694Y0357372D01*
X0093845Y0360592D01*
X0094600Y0364389D01*
X0093845Y0368186D01*
X0091694Y0371406D01*
X0088475Y0373557D01*
X0084677Y0374312D01*
X0080880Y0373557D01*
X0077660Y0371406D01*
X0077026Y0370457D02*
X0007002Y0370457D01*
X0007002Y0368458D02*
X0075691Y0368458D01*
X0075166Y0366459D02*
X0007002Y0366459D01*
X0007002Y0364461D02*
X0074768Y0364461D01*
X0075137Y0362462D02*
X0007002Y0362462D01*
X0007002Y0360464D02*
X0075595Y0360464D01*
X0076930Y0358465D02*
X0007002Y0358465D01*
X0007002Y0356467D02*
X0079015Y0356467D01*
X0084664Y0354468D02*
X0007002Y0354468D01*
X0007002Y0352470D02*
X0204449Y0352470D01*
X0204449Y0350471D02*
X0007002Y0350471D01*
X0007002Y0348473D02*
X0204449Y0348473D01*
X0204449Y0346474D02*
X0007002Y0346474D01*
X0007002Y0344476D02*
X0204449Y0344476D01*
X0204449Y0342477D02*
X0007002Y0342477D01*
X0007002Y0340479D02*
X0204449Y0340479D01*
X0204449Y0338480D02*
X0007002Y0338480D01*
X0007002Y0336482D02*
X0204449Y0336482D01*
X0204449Y0334483D02*
X0007002Y0334483D01*
X0007002Y0332485D02*
X0204449Y0332485D01*
X0204449Y0330486D02*
X0007002Y0330486D01*
X0007002Y0328488D02*
X0204449Y0328488D01*
X0204449Y0326489D02*
X0007002Y0326489D01*
X0007002Y0324491D02*
X0204449Y0324491D01*
X0204449Y0322492D02*
X0007002Y0322492D01*
X0007002Y0320494D02*
X0204449Y0320494D01*
X0204449Y0318495D02*
X0007002Y0318495D01*
X0007002Y0316497D02*
X0204449Y0316497D01*
X0203749Y0314498D02*
X0007002Y0314498D01*
X0007002Y0312500D02*
X0202443Y0312500D01*
X0201949Y0310501D02*
X0007002Y0310501D01*
X0007002Y0308503D02*
X0202044Y0308503D01*
X0202872Y0306504D02*
X0007002Y0306504D01*
X0007002Y0304506D02*
X0204824Y0304506D01*
X0208417Y0310019D02*
X0208417Y0352302D01*
X0234283Y0378169D01*
X0340583Y0378169D01*
X0348457Y0370294D01*
X0348457Y0315176D01*
X0354913Y0308720D01*
X0364835Y0308720D01*
X0371503Y0308503D02*
X0387795Y0308503D01*
X0387795Y0310501D02*
X0371315Y0310501D01*
X0370486Y0312500D02*
X0387795Y0312500D01*
X0387795Y0314498D02*
X0370043Y0314498D01*
X0371131Y0316497D02*
X0387795Y0316497D01*
X0387795Y0318495D02*
X0371503Y0318495D01*
X0371318Y0320494D02*
X0387795Y0320494D01*
X0387795Y0322492D02*
X0370490Y0322492D01*
X0368666Y0324491D02*
X0387795Y0324491D01*
X0387795Y0326489D02*
X0370095Y0326489D01*
X0370535Y0328488D02*
X0387795Y0328488D01*
X0387795Y0330486D02*
X0370254Y0330486D01*
X0369131Y0332485D02*
X0387795Y0332485D01*
X0387795Y0334483D02*
X0370028Y0334483D01*
X0371125Y0336482D02*
X0387795Y0336482D01*
X0387795Y0338480D02*
X0386037Y0338480D01*
X0381743Y0338480D02*
X0371503Y0338480D01*
X0371324Y0340479D02*
X0379680Y0340479D01*
X0379137Y0342477D02*
X0370496Y0342477D01*
X0370021Y0344476D02*
X0379466Y0344476D01*
X0379921Y0346474D02*
X0371122Y0346474D01*
X0371503Y0348473D02*
X0379921Y0348473D01*
X0379921Y0350471D02*
X0371327Y0350471D01*
X0370500Y0352470D02*
X0379921Y0352470D01*
X0379921Y0354468D02*
X0370013Y0354468D01*
X0371119Y0356467D02*
X0379921Y0356467D01*
X0379921Y0358465D02*
X0371503Y0358465D01*
X0371330Y0360464D02*
X0379921Y0360464D01*
X0379921Y0362462D02*
X0370503Y0362462D01*
X0368401Y0364461D02*
X0379921Y0364461D01*
X0379921Y0366459D02*
X0352425Y0366459D01*
X0352425Y0364461D02*
X0361268Y0364461D01*
X0359167Y0362462D02*
X0352425Y0362462D01*
X0352425Y0360464D02*
X0358339Y0360464D01*
X0358166Y0358465D02*
X0352425Y0358465D01*
X0352425Y0356467D02*
X0358550Y0356467D01*
X0359656Y0354468D02*
X0352425Y0354468D01*
X0352425Y0352470D02*
X0359170Y0352470D01*
X0358342Y0350471D02*
X0352425Y0350471D01*
X0352425Y0348473D02*
X0358166Y0348473D01*
X0358547Y0346474D02*
X0352425Y0346474D01*
X0352425Y0344476D02*
X0359649Y0344476D01*
X0359173Y0342477D02*
X0352425Y0342477D01*
X0352425Y0340479D02*
X0358345Y0340479D01*
X0358166Y0338480D02*
X0352425Y0338480D01*
X0352425Y0336482D02*
X0358544Y0336482D01*
X0359641Y0334483D02*
X0352425Y0334483D01*
X0352425Y0332485D02*
X0360538Y0332485D01*
X0359415Y0330486D02*
X0352425Y0330486D01*
X0352425Y0328488D02*
X0359135Y0328488D01*
X0359574Y0326489D02*
X0352425Y0326489D01*
X0352425Y0324491D02*
X0361003Y0324491D01*
X0359179Y0322492D02*
X0352425Y0322492D01*
X0352425Y0320494D02*
X0358351Y0320494D01*
X0358166Y0318495D02*
X0352425Y0318495D01*
X0352749Y0316497D02*
X0358538Y0316497D01*
X0359626Y0314498D02*
X0354747Y0314498D01*
X0370050Y0304506D02*
X0387795Y0304506D01*
X0387795Y0306504D02*
X0371135Y0306504D01*
X0370479Y0302507D02*
X0387795Y0302507D01*
X0387795Y0300509D02*
X0371312Y0300509D01*
X0371503Y0298510D02*
X0387795Y0298510D01*
X0387795Y0296512D02*
X0371138Y0296512D01*
X0370058Y0294513D02*
X0387795Y0294513D01*
X0387795Y0292515D02*
X0370471Y0292515D01*
X0371309Y0290516D02*
X0387795Y0290516D01*
X0387795Y0288518D02*
X0371503Y0288518D01*
X0371141Y0286519D02*
X0387795Y0286519D01*
X0387795Y0284521D02*
X0370065Y0284521D01*
X0370464Y0282522D02*
X0387795Y0282522D01*
X0387795Y0280523D02*
X0371306Y0280523D01*
X0371503Y0278525D02*
X0387795Y0278525D01*
X0387795Y0276526D02*
X0371144Y0276526D01*
X0370073Y0274528D02*
X0387795Y0274528D01*
X0387795Y0272529D02*
X0370456Y0272529D01*
X0371303Y0270531D02*
X0387795Y0270531D01*
X0387795Y0268532D02*
X0371503Y0268532D01*
X0371147Y0266534D02*
X0387795Y0266534D01*
X0386692Y0264535D02*
X0370080Y0264535D01*
X0364835Y0258720D02*
X0386489Y0258720D01*
X0391764Y0263995D01*
X0391764Y0397854D01*
X0399835Y0405924D01*
X0410858Y0405924D01*
X0416281Y0408428D02*
X0492049Y0408428D01*
X0492413Y0409305D02*
X0491504Y0407112D01*
X0491504Y0404737D01*
X0492413Y0402544D01*
X0492969Y0401987D01*
X0492413Y0401431D01*
X0491504Y0399238D01*
X0491504Y0396863D01*
X0492413Y0394670D01*
X0492969Y0394113D01*
X0492413Y0393557D01*
X0491504Y0391364D01*
X0491504Y0388989D01*
X0492413Y0386795D01*
X0492969Y0386239D01*
X0492413Y0385683D01*
X0491504Y0383490D01*
X0491504Y0381115D01*
X0492413Y0378921D01*
X0492969Y0378365D01*
X0492413Y0377809D01*
X0491504Y0375616D01*
X0491504Y0373241D01*
X0492413Y0371047D01*
X0492969Y0370491D01*
X0492413Y0369935D01*
X0491504Y0367742D01*
X0491504Y0365367D01*
X0492413Y0363173D01*
X0492969Y0362617D01*
X0492413Y0362061D01*
X0491504Y0359868D01*
X0491504Y0357493D01*
X0492413Y0355299D01*
X0492969Y0354743D01*
X0492413Y0354187D01*
X0491504Y0351994D01*
X0491504Y0349619D01*
X0492413Y0347425D01*
X0492969Y0346869D01*
X0492413Y0346313D01*
X0491504Y0344119D01*
X0491504Y0341745D01*
X0492413Y0339551D01*
X0494092Y0337872D01*
X0496285Y0336964D01*
X0498660Y0336964D01*
X0500853Y0337872D01*
X0502532Y0339551D01*
X0503441Y0341745D01*
X0503441Y0344119D01*
X0502532Y0346313D01*
X0501976Y0346869D01*
X0502532Y0347425D01*
X0503441Y0349619D01*
X0503441Y0351994D01*
X0502532Y0354187D01*
X0501976Y0354743D01*
X0502532Y0355299D01*
X0503441Y0357493D01*
X0503441Y0359868D01*
X0502532Y0362061D01*
X0501976Y0362617D01*
X0502532Y0363173D01*
X0503441Y0365367D01*
X0503441Y0367742D01*
X0502532Y0369935D01*
X0501976Y0370491D01*
X0502532Y0371047D01*
X0503441Y0373241D01*
X0503441Y0375616D01*
X0502532Y0377809D01*
X0501976Y0378365D01*
X0502532Y0378921D01*
X0503441Y0381115D01*
X0503441Y0383490D01*
X0502532Y0385683D01*
X0501976Y0386239D01*
X0502532Y0386795D01*
X0503441Y0388989D01*
X0503441Y0391364D01*
X0502532Y0393557D01*
X0501976Y0394113D01*
X0502532Y0394670D01*
X0503441Y0396863D01*
X0503441Y0399238D01*
X0502532Y0401431D01*
X0501976Y0401987D01*
X0502532Y0402544D01*
X0503441Y0404737D01*
X0503441Y0407112D01*
X0502532Y0409305D01*
X0501976Y0409861D01*
X0502532Y0410418D01*
X0503441Y0412611D01*
X0503441Y0414986D01*
X0502532Y0417179D01*
X0500853Y0418858D01*
X0498660Y0419767D01*
X0496285Y0419767D01*
X0494092Y0418858D01*
X0492413Y0417179D01*
X0491504Y0414986D01*
X0491504Y0412611D01*
X0492413Y0410418D01*
X0492969Y0409861D01*
X0492413Y0409305D01*
X0492409Y0410427D02*
X0415922Y0410427D01*
X0416750Y0412425D02*
X0491581Y0412425D01*
X0491504Y0414424D02*
X0416827Y0414424D01*
X0416232Y0416422D02*
X0492099Y0416422D01*
X0493654Y0418421D02*
X0414677Y0418421D01*
X0407040Y0418421D02*
X0069994Y0418421D01*
X0069994Y0420419D02*
X0522890Y0420419D01*
X0524831Y0422360D02*
X0516234Y0413763D01*
X0515630Y0412304D01*
X0515630Y0397532D01*
X0515113Y0397015D01*
X0514661Y0395924D01*
X0514661Y0389641D01*
X0513299Y0389641D01*
X0512208Y0389189D01*
X0511373Y0388354D01*
X0510921Y0387263D01*
X0510921Y0380570D01*
X0511373Y0379479D01*
X0511890Y0378963D01*
X0511890Y0373672D01*
X0511618Y0373559D01*
X0510783Y0372724D01*
X0510331Y0371633D01*
X0510331Y0364547D01*
X0510783Y0363455D01*
X0511618Y0362620D01*
X0511890Y0362508D01*
X0511890Y0358823D01*
X0511539Y0358677D01*
X0510704Y0357842D01*
X0510252Y0356751D01*
X0510252Y0349665D01*
X0510704Y0348574D01*
X0511539Y0347739D01*
X0512630Y0347287D01*
X0518929Y0347287D01*
X0519291Y0347437D01*
X0519291Y0338080D01*
X0516104Y0334893D01*
X0414202Y0334893D01*
X0414141Y0334954D01*
X0412394Y0335677D01*
X0410503Y0335677D01*
X0408757Y0334954D01*
X0407420Y0333617D01*
X0406696Y0331870D01*
X0406696Y0329979D01*
X0407420Y0328232D01*
X0408757Y0326895D01*
X0410503Y0326172D01*
X0412394Y0326172D01*
X0414141Y0326895D01*
X0414202Y0326956D01*
X0445439Y0326956D01*
X0444988Y0326769D01*
X0443872Y0325653D01*
X0422400Y0304181D01*
X0422314Y0304181D01*
X0420568Y0303458D01*
X0419231Y0302121D01*
X0418507Y0300374D01*
X0418507Y0298483D01*
X0419231Y0296736D01*
X0420444Y0295523D01*
X0414202Y0295523D01*
X0414141Y0295584D01*
X0412394Y0296307D01*
X0410503Y0296307D01*
X0408757Y0295584D01*
X0407420Y0294247D01*
X0406696Y0292500D01*
X0406696Y0290609D01*
X0407420Y0288862D01*
X0408757Y0287525D01*
X0410503Y0286802D01*
X0412394Y0286802D01*
X0414141Y0287525D01*
X0414202Y0287586D01*
X0424049Y0287586D01*
X0425508Y0288190D01*
X0448880Y0311562D01*
X0631708Y0311562D01*
X0632630Y0310640D01*
X0634750Y0309762D01*
X0637045Y0309762D01*
X0639165Y0310640D01*
X0640788Y0312263D01*
X0641666Y0314383D01*
X0641666Y0316678D01*
X0640788Y0318798D01*
X0640119Y0319468D01*
X0640788Y0320137D01*
X0641666Y0322257D01*
X0641666Y0324552D01*
X0640788Y0326672D01*
X0640119Y0327342D01*
X0640788Y0328011D01*
X0641666Y0330131D01*
X0641666Y0332426D01*
X0640788Y0334546D01*
X0639434Y0335901D01*
X0639559Y0336026D01*
X0640003Y0336637D01*
X0640346Y0337310D01*
X0640579Y0338029D01*
X0640698Y0338775D01*
X0640698Y0339153D01*
X0640698Y0339531D01*
X0640579Y0340277D01*
X0640346Y0340995D01*
X0640003Y0341668D01*
X0639559Y0342280D01*
X0639025Y0342814D01*
X0638413Y0343258D01*
X0637740Y0343601D01*
X0637022Y0343835D01*
X0636275Y0343953D01*
X0635898Y0343953D01*
X0635898Y0339153D01*
X0640698Y0339153D01*
X0635898Y0339153D01*
X0635898Y0339153D01*
X0635898Y0339153D01*
X0635898Y0343953D01*
X0635520Y0343953D01*
X0634774Y0343835D01*
X0634055Y0343601D01*
X0633382Y0343258D01*
X0632771Y0342814D01*
X0632236Y0342280D01*
X0631792Y0341668D01*
X0631449Y0340995D01*
X0631216Y0340277D01*
X0631098Y0339531D01*
X0631098Y0339153D01*
X0635898Y0339153D01*
X0635898Y0339153D01*
X0631098Y0339153D01*
X0631098Y0338775D01*
X0631216Y0338029D01*
X0631449Y0337310D01*
X0631792Y0336637D01*
X0632236Y0336026D01*
X0632362Y0335901D01*
X0631007Y0334546D01*
X0630129Y0332426D01*
X0630129Y0330131D01*
X0631007Y0328011D01*
X0631645Y0327373D01*
X0519545Y0327373D01*
X0519996Y0327560D01*
X0526624Y0334188D01*
X0527228Y0335647D01*
X0527228Y0347626D01*
X0527500Y0347739D01*
X0528335Y0348574D01*
X0528787Y0349665D01*
X0528787Y0356751D01*
X0528335Y0357842D01*
X0527500Y0358677D01*
X0526409Y0359129D01*
X0520110Y0359129D01*
X0519827Y0359012D01*
X0519827Y0362508D01*
X0520099Y0362620D01*
X0520615Y0363137D01*
X0523059Y0363137D01*
X0523059Y0367810D01*
X0523618Y0367810D01*
X0523618Y0363137D01*
X0526161Y0363137D01*
X0526670Y0363273D01*
X0527126Y0363537D01*
X0527498Y0363909D01*
X0527761Y0364365D01*
X0527898Y0364874D01*
X0527898Y0367810D01*
X0523618Y0367810D01*
X0523618Y0368369D01*
X0527898Y0368369D01*
X0527898Y0371306D01*
X0527761Y0371814D01*
X0527498Y0372271D01*
X0527126Y0372643D01*
X0526670Y0372906D01*
X0526161Y0373043D01*
X0523618Y0373043D01*
X0523618Y0368369D01*
X0523059Y0368369D01*
X0523059Y0373043D01*
X0520615Y0373043D01*
X0520099Y0373559D01*
X0519827Y0373672D01*
X0519827Y0378963D01*
X0520321Y0379457D01*
X0520598Y0379297D01*
X0521107Y0379161D01*
X0523339Y0379161D01*
X0525570Y0379161D01*
X0526079Y0379297D01*
X0526535Y0379560D01*
X0526907Y0379933D01*
X0527171Y0380389D01*
X0527307Y0380897D01*
X0527307Y0383916D01*
X0523339Y0383916D01*
X0523339Y0383917D01*
X0527307Y0383917D01*
X0527307Y0386936D01*
X0527171Y0387444D01*
X0526907Y0387900D01*
X0526535Y0388273D01*
X0526079Y0388536D01*
X0525570Y0388672D01*
X0524304Y0388672D01*
X0524535Y0389232D01*
X0524535Y0395924D01*
X0524083Y0397015D01*
X0523567Y0397532D01*
X0523567Y0409871D01*
X0528723Y0415027D01*
X0532523Y0415027D01*
X0532554Y0414952D01*
X0532644Y0414861D01*
X0532554Y0414771D01*
X0532102Y0413680D01*
X0532102Y0407775D01*
X0532554Y0406684D01*
X0533389Y0405849D01*
X0533465Y0405818D01*
X0533465Y0403008D01*
X0532799Y0402732D01*
X0531964Y0401897D01*
X0531512Y0400806D01*
X0531512Y0394507D01*
X0531756Y0393917D01*
X0531512Y0393326D01*
X0531512Y0387027D01*
X0531964Y0385936D01*
X0532799Y0385101D01*
X0533465Y0384825D01*
X0533465Y0373442D01*
X0534069Y0371984D01*
X0536617Y0369435D01*
X0536617Y0369349D01*
X0537341Y0367602D01*
X0538678Y0366265D01*
X0540425Y0365542D01*
X0542315Y0365542D01*
X0544062Y0366265D01*
X0545399Y0367602D01*
X0546123Y0369349D01*
X0546123Y0371240D01*
X0545399Y0372987D01*
X0544062Y0374324D01*
X0542315Y0375047D01*
X0542230Y0375047D01*
X0541402Y0375875D01*
X0541402Y0384825D01*
X0542067Y0385101D01*
X0542902Y0385936D01*
X0543015Y0386208D01*
X0562323Y0386208D01*
X0562436Y0385936D01*
X0563271Y0385101D01*
X0564362Y0384649D01*
X0571449Y0384649D01*
X0572540Y0385101D01*
X0573375Y0385936D01*
X0573827Y0387027D01*
X0573827Y0393326D01*
X0573582Y0393917D01*
X0573827Y0394507D01*
X0573827Y0400806D01*
X0573375Y0401897D01*
X0572540Y0402732D01*
X0571874Y0403008D01*
X0571874Y0405818D01*
X0571949Y0405849D01*
X0572784Y0406684D01*
X0573236Y0407775D01*
X0573236Y0413680D01*
X0572784Y0414771D01*
X0571971Y0415584D01*
X0572131Y0415861D01*
X0572268Y0416370D01*
X0572268Y0418814D01*
X0568087Y0418814D01*
X0568087Y0419176D01*
X0572268Y0419176D01*
X0572268Y0421621D01*
X0572131Y0422129D01*
X0571868Y0422586D01*
X0571496Y0422958D01*
X0571040Y0423221D01*
X0570531Y0423357D01*
X0568087Y0423357D01*
X0568087Y0419176D01*
X0567724Y0419176D01*
X0567724Y0418814D01*
X0563543Y0418814D01*
X0563543Y0416370D01*
X0563680Y0415861D01*
X0563840Y0415584D01*
X0563027Y0414771D01*
X0562575Y0413680D01*
X0562575Y0407775D01*
X0563027Y0406684D01*
X0563862Y0405849D01*
X0563937Y0405818D01*
X0563937Y0403008D01*
X0563271Y0402732D01*
X0562436Y0401897D01*
X0561984Y0400806D01*
X0561984Y0394507D01*
X0562134Y0394145D01*
X0543204Y0394145D01*
X0543354Y0394507D01*
X0543354Y0400806D01*
X0542902Y0401897D01*
X0542067Y0402732D01*
X0541402Y0403008D01*
X0541402Y0405818D01*
X0541477Y0405849D01*
X0542312Y0406684D01*
X0542764Y0407775D01*
X0542764Y0413680D01*
X0542312Y0414771D01*
X0542222Y0414861D01*
X0542312Y0414952D01*
X0542764Y0416043D01*
X0542764Y0421948D01*
X0542312Y0423039D01*
X0541477Y0423874D01*
X0540386Y0424326D01*
X0534480Y0424326D01*
X0533389Y0423874D01*
X0532554Y0423039D01*
X0532523Y0422964D01*
X0526289Y0422964D01*
X0524831Y0422360D01*
X0524971Y0422418D02*
X0069994Y0422418D01*
X0069994Y0424416D02*
X0587549Y0424416D01*
X0587549Y0422418D02*
X0571965Y0422418D01*
X0572268Y0420419D02*
X0587549Y0420419D01*
X0587549Y0418421D02*
X0572268Y0418421D01*
X0572268Y0416422D02*
X0587549Y0416422D01*
X0587549Y0414424D02*
X0572928Y0414424D01*
X0573236Y0412425D02*
X0587549Y0412425D01*
X0587549Y0410427D02*
X0573236Y0410427D01*
X0573236Y0408428D02*
X0587549Y0408428D01*
X0587549Y0406430D02*
X0572530Y0406430D01*
X0571874Y0404431D02*
X0587549Y0404431D01*
X0587549Y0402433D02*
X0572839Y0402433D01*
X0573827Y0400434D02*
X0587549Y0400434D01*
X0587549Y0398436D02*
X0573827Y0398436D01*
X0573827Y0396437D02*
X0587549Y0396437D01*
X0587549Y0394439D02*
X0573798Y0394439D01*
X0573827Y0392440D02*
X0587879Y0392440D01*
X0588415Y0390442D02*
X0573827Y0390442D01*
X0573827Y0388443D02*
X0589245Y0388443D01*
X0590399Y0386445D02*
X0573586Y0386445D01*
X0567906Y0390176D02*
X0537433Y0390176D01*
X0537433Y0374231D01*
X0541370Y0370294D01*
X0536986Y0368458D02*
X0527898Y0368458D01*
X0527898Y0370457D02*
X0535596Y0370457D01*
X0533873Y0372455D02*
X0527314Y0372455D01*
X0523618Y0372455D02*
X0523059Y0372455D01*
X0523059Y0370457D02*
X0523618Y0370457D01*
X0523618Y0368458D02*
X0523059Y0368458D01*
X0523339Y0368090D02*
X0523339Y0383917D01*
X0523339Y0383916D02*
X0523339Y0379161D01*
X0523339Y0383916D01*
X0523339Y0383916D01*
X0523339Y0382448D02*
X0523339Y0382448D01*
X0523339Y0380449D02*
X0523339Y0380449D01*
X0527187Y0380449D02*
X0533465Y0380449D01*
X0533465Y0378451D02*
X0519827Y0378451D01*
X0519827Y0376452D02*
X0533465Y0376452D01*
X0533465Y0374454D02*
X0519827Y0374454D01*
X0515858Y0368090D02*
X0515858Y0353287D01*
X0515780Y0353208D01*
X0510252Y0352470D02*
X0503244Y0352470D01*
X0503441Y0350471D02*
X0510252Y0350471D01*
X0510805Y0348473D02*
X0502966Y0348473D01*
X0502371Y0346474D02*
X0519291Y0346474D01*
X0519291Y0344476D02*
X0503293Y0344476D01*
X0503441Y0342477D02*
X0519291Y0342477D01*
X0519291Y0340479D02*
X0502916Y0340479D01*
X0501461Y0338480D02*
X0519291Y0338480D01*
X0517693Y0336482D02*
X0403606Y0336482D01*
X0403606Y0338480D02*
X0408582Y0338480D01*
X0410858Y0338480D02*
X0410858Y0338480D01*
X0410858Y0340479D02*
X0410858Y0340479D01*
X0410858Y0342477D02*
X0410858Y0342477D01*
X0410858Y0342932D02*
X0410858Y0342932D01*
X0406102Y0344476D02*
X0403606Y0344476D01*
X0403606Y0346474D02*
X0406749Y0346474D01*
X0405365Y0348473D02*
X0403606Y0348473D01*
X0403606Y0350471D02*
X0404890Y0350471D01*
X0405087Y0352470D02*
X0403606Y0352470D01*
X0403606Y0354468D02*
X0406080Y0354468D01*
X0405315Y0356467D02*
X0403606Y0356467D01*
X0403606Y0358465D02*
X0404890Y0358465D01*
X0405137Y0360464D02*
X0403606Y0360464D01*
X0403606Y0362462D02*
X0406200Y0362462D01*
X0405265Y0364461D02*
X0403606Y0364461D01*
X0403606Y0366459D02*
X0404890Y0366459D01*
X0405187Y0368458D02*
X0403606Y0368458D01*
X0403606Y0370457D02*
X0406320Y0370457D01*
X0405215Y0372455D02*
X0403606Y0372455D01*
X0403606Y0374454D02*
X0404890Y0374454D01*
X0405236Y0376452D02*
X0403606Y0376452D01*
X0403606Y0378451D02*
X0406269Y0378451D01*
X0405166Y0380449D02*
X0403606Y0380449D01*
X0403606Y0382448D02*
X0404890Y0382448D01*
X0405286Y0384446D02*
X0403606Y0384446D01*
X0403606Y0386445D02*
X0406149Y0386445D01*
X0405116Y0388443D02*
X0403606Y0388443D01*
X0403606Y0390442D02*
X0404890Y0390442D01*
X0405336Y0392440D02*
X0403774Y0392440D01*
X0399638Y0393917D02*
X0399638Y0260058D01*
X0388300Y0248720D01*
X0364835Y0248720D01*
X0358166Y0248547D02*
X0291503Y0248547D01*
X0291296Y0250546D02*
X0358373Y0250546D01*
X0359228Y0252544D02*
X0290441Y0252544D01*
X0290088Y0254543D02*
X0359582Y0254543D01*
X0358519Y0256541D02*
X0291150Y0256541D01*
X0291503Y0258540D02*
X0358166Y0258540D01*
X0358370Y0260538D02*
X0291300Y0260538D01*
X0290449Y0262537D02*
X0359220Y0262537D01*
X0359589Y0264535D02*
X0290080Y0264535D01*
X0291147Y0266534D02*
X0358522Y0266534D01*
X0358166Y0268532D02*
X0291503Y0268532D01*
X0291303Y0270531D02*
X0358367Y0270531D01*
X0359213Y0272529D02*
X0290456Y0272529D01*
X0290073Y0274528D02*
X0359596Y0274528D01*
X0358525Y0276526D02*
X0291144Y0276526D01*
X0291503Y0278525D02*
X0358166Y0278525D01*
X0358364Y0280523D02*
X0291306Y0280523D01*
X0290464Y0282522D02*
X0359205Y0282522D01*
X0359604Y0284521D02*
X0290065Y0284521D01*
X0291141Y0286519D02*
X0358529Y0286519D01*
X0358166Y0288518D02*
X0291503Y0288518D01*
X0291309Y0290516D02*
X0358360Y0290516D01*
X0359198Y0292515D02*
X0290471Y0292515D01*
X0290058Y0294513D02*
X0359611Y0294513D01*
X0364835Y0298720D02*
X0349165Y0298720D01*
X0336614Y0310501D02*
X0291315Y0310501D01*
X0290486Y0312500D02*
X0336614Y0312500D01*
X0336614Y0314498D02*
X0290043Y0314498D01*
X0291131Y0316497D02*
X0336614Y0316497D01*
X0336614Y0318495D02*
X0291503Y0318495D01*
X0291318Y0320494D02*
X0336614Y0320494D01*
X0336614Y0322492D02*
X0290490Y0322492D01*
X0290036Y0324491D02*
X0336614Y0324491D01*
X0336614Y0326489D02*
X0291128Y0326489D01*
X0291503Y0328488D02*
X0336614Y0328488D01*
X0336614Y0330486D02*
X0291321Y0330486D01*
X0290493Y0332485D02*
X0336614Y0332485D01*
X0336614Y0334483D02*
X0290028Y0334483D01*
X0291125Y0336482D02*
X0336614Y0336482D01*
X0336614Y0338480D02*
X0291503Y0338480D01*
X0291324Y0340479D02*
X0336614Y0340479D01*
X0336614Y0342477D02*
X0290496Y0342477D01*
X0290021Y0344476D02*
X0336614Y0344476D01*
X0336614Y0346474D02*
X0291122Y0346474D01*
X0291503Y0348473D02*
X0336614Y0348473D01*
X0336614Y0350471D02*
X0291327Y0350471D01*
X0290500Y0352470D02*
X0336614Y0352470D01*
X0336614Y0354468D02*
X0290013Y0354468D01*
X0291119Y0356467D02*
X0336614Y0356467D01*
X0336614Y0358465D02*
X0291503Y0358465D01*
X0291330Y0360464D02*
X0336614Y0360464D01*
X0336614Y0362462D02*
X0290503Y0362462D01*
X0288401Y0364461D02*
X0336614Y0364461D01*
X0349910Y0374454D02*
X0379921Y0374454D01*
X0379921Y0376452D02*
X0347911Y0376452D01*
X0345913Y0378451D02*
X0379921Y0378451D01*
X0379921Y0380449D02*
X0343914Y0380449D01*
X0351857Y0372455D02*
X0379921Y0372455D01*
X0379921Y0370457D02*
X0352425Y0370457D01*
X0352425Y0368458D02*
X0379921Y0368458D01*
X0377935Y0382448D02*
X0063521Y0382448D01*
X0065519Y0384446D02*
X0375937Y0384446D01*
X0376016Y0389980D02*
X0269717Y0389980D01*
X0271371Y0394439D02*
X0387795Y0394439D01*
X0387795Y0396437D02*
X0069994Y0396437D01*
X0069994Y0394439D02*
X0268062Y0394439D01*
X0265591Y0392440D02*
X0069664Y0392440D01*
X0069129Y0390442D02*
X0264964Y0390442D01*
X0265209Y0388443D02*
X0068298Y0388443D01*
X0067145Y0386445D02*
X0266530Y0386445D01*
X0274016Y0364461D02*
X0281268Y0364461D01*
X0279167Y0362462D02*
X0274469Y0362462D01*
X0274050Y0360464D02*
X0278339Y0360464D01*
X0278166Y0358465D02*
X0273685Y0358465D01*
X0273685Y0356467D02*
X0278550Y0356467D01*
X0279656Y0354468D02*
X0273685Y0354468D01*
X0273685Y0352470D02*
X0279170Y0352470D01*
X0278342Y0350471D02*
X0273685Y0350471D01*
X0273685Y0348473D02*
X0278166Y0348473D01*
X0278547Y0346474D02*
X0273685Y0346474D01*
X0273685Y0344476D02*
X0279649Y0344476D01*
X0279173Y0342477D02*
X0273685Y0342477D01*
X0273685Y0340479D02*
X0278345Y0340479D01*
X0278166Y0338480D02*
X0273685Y0338480D01*
X0273685Y0336482D02*
X0278544Y0336482D01*
X0279641Y0334483D02*
X0273685Y0334483D01*
X0273685Y0332485D02*
X0279176Y0332485D01*
X0278348Y0330486D02*
X0273685Y0330486D01*
X0273828Y0328488D02*
X0278166Y0328488D01*
X0278541Y0326489D02*
X0275827Y0326489D01*
X0277825Y0324491D02*
X0279634Y0324491D01*
X0277983Y0318720D02*
X0269717Y0326987D01*
X0269717Y0362420D01*
X0230952Y0380449D02*
X0060071Y0380449D01*
X0069994Y0398436D02*
X0387795Y0398436D01*
X0388732Y0400434D02*
X0069994Y0400434D01*
X0069994Y0402433D02*
X0390731Y0402433D01*
X0392729Y0404431D02*
X0069994Y0404431D01*
X0069994Y0406430D02*
X0394728Y0406430D01*
X0396726Y0408428D02*
X0069994Y0408428D01*
X0069994Y0410427D02*
X0405795Y0410427D01*
X0404967Y0412425D02*
X0069994Y0412425D01*
X0069994Y0414424D02*
X0404890Y0414424D01*
X0405485Y0416422D02*
X0069994Y0416422D01*
X0069994Y0426415D02*
X0587549Y0426415D01*
X0587549Y0428413D02*
X0069994Y0428413D01*
X0069994Y0430412D02*
X0587549Y0430412D01*
X0587549Y0432410D02*
X0069994Y0432410D01*
X0069994Y0434409D02*
X0587549Y0434409D01*
X0587549Y0436407D02*
X0069994Y0436407D01*
X0069994Y0438406D02*
X0587549Y0438406D01*
X0567724Y0423357D02*
X0565280Y0423357D01*
X0564771Y0423221D01*
X0564315Y0422958D01*
X0563943Y0422586D01*
X0563680Y0422129D01*
X0563543Y0421621D01*
X0563543Y0419176D01*
X0567724Y0419176D01*
X0567724Y0423357D01*
X0567724Y0422418D02*
X0568087Y0422418D01*
X0568087Y0420419D02*
X0567724Y0420419D01*
X0563543Y0420419D02*
X0542764Y0420419D01*
X0542764Y0418421D02*
X0563543Y0418421D01*
X0563543Y0416422D02*
X0542764Y0416422D01*
X0542456Y0414424D02*
X0562883Y0414424D01*
X0562575Y0412425D02*
X0542764Y0412425D01*
X0542764Y0410427D02*
X0562575Y0410427D01*
X0562575Y0408428D02*
X0542764Y0408428D01*
X0542058Y0406430D02*
X0563281Y0406430D01*
X0563937Y0404431D02*
X0541402Y0404431D01*
X0542367Y0402433D02*
X0562972Y0402433D01*
X0561984Y0400434D02*
X0543354Y0400434D01*
X0543354Y0398436D02*
X0561984Y0398436D01*
X0561984Y0396437D02*
X0543354Y0396437D01*
X0543326Y0394439D02*
X0562013Y0394439D01*
X0567906Y0397657D02*
X0567906Y0410728D01*
X0563846Y0422418D02*
X0542569Y0422418D01*
X0537433Y0418995D02*
X0527079Y0418995D01*
X0519598Y0411515D01*
X0519598Y0392578D01*
X0514661Y0392440D02*
X0502995Y0392440D01*
X0503441Y0390442D02*
X0514661Y0390442D01*
X0511462Y0388443D02*
X0503215Y0388443D01*
X0502181Y0386445D02*
X0510921Y0386445D01*
X0510921Y0384446D02*
X0503045Y0384446D01*
X0503441Y0382448D02*
X0510921Y0382448D01*
X0510971Y0380449D02*
X0503165Y0380449D01*
X0502061Y0378451D02*
X0511890Y0378451D01*
X0511890Y0376452D02*
X0503094Y0376452D01*
X0503441Y0374454D02*
X0511890Y0374454D01*
X0510671Y0372455D02*
X0503115Y0372455D01*
X0502011Y0370457D02*
X0510331Y0370457D01*
X0510331Y0368458D02*
X0503144Y0368458D01*
X0503441Y0366459D02*
X0510331Y0366459D01*
X0510366Y0364461D02*
X0503066Y0364461D01*
X0502131Y0362462D02*
X0511890Y0362462D01*
X0511890Y0360464D02*
X0503194Y0360464D01*
X0503441Y0358465D02*
X0511327Y0358465D01*
X0510252Y0356467D02*
X0503016Y0356467D01*
X0502251Y0354468D02*
X0510252Y0354468D01*
X0519827Y0360464D02*
X0563784Y0360464D01*
X0563698Y0360592D02*
X0565849Y0357372D01*
X0569069Y0355221D01*
X0572866Y0354466D01*
X0576664Y0355221D01*
X0579883Y0357372D01*
X0582034Y0360592D01*
X0582789Y0364389D01*
X0582034Y0368186D01*
X0579883Y0371406D01*
X0576664Y0373557D01*
X0572866Y0374312D01*
X0569069Y0373557D01*
X0565849Y0371406D01*
X0563698Y0368186D01*
X0562943Y0364389D01*
X0563698Y0360592D01*
X0563326Y0362462D02*
X0519827Y0362462D01*
X0523059Y0364461D02*
X0523618Y0364461D01*
X0523618Y0366459D02*
X0523059Y0366459D01*
X0527898Y0366459D02*
X0538484Y0366459D01*
X0544256Y0366459D02*
X0563355Y0366459D01*
X0562957Y0364461D02*
X0527787Y0364461D01*
X0527712Y0358465D02*
X0565119Y0358465D01*
X0567204Y0356467D02*
X0528787Y0356467D01*
X0528787Y0354468D02*
X0572853Y0354468D01*
X0572880Y0354468D02*
X0650541Y0354468D01*
X0650541Y0352470D02*
X0528787Y0352470D01*
X0528787Y0350471D02*
X0650541Y0350471D01*
X0650541Y0348473D02*
X0528235Y0348473D01*
X0527228Y0346474D02*
X0650541Y0346474D01*
X0650541Y0344476D02*
X0527228Y0344476D01*
X0527228Y0342477D02*
X0632434Y0342477D01*
X0631281Y0340479D02*
X0527228Y0340479D01*
X0527228Y0338480D02*
X0631144Y0338480D01*
X0631905Y0336482D02*
X0527228Y0336482D01*
X0526746Y0334483D02*
X0630981Y0334483D01*
X0630153Y0332485D02*
X0524921Y0332485D01*
X0522922Y0330486D02*
X0630129Y0330486D01*
X0630810Y0328488D02*
X0520924Y0328488D01*
X0517748Y0330924D02*
X0523260Y0336436D01*
X0523260Y0353208D01*
X0515858Y0368090D02*
X0515858Y0383917D01*
X0526240Y0388443D02*
X0531512Y0388443D01*
X0531512Y0390442D02*
X0524535Y0390442D01*
X0524535Y0392440D02*
X0531512Y0392440D01*
X0531540Y0394439D02*
X0524535Y0394439D01*
X0524323Y0396437D02*
X0531512Y0396437D01*
X0531512Y0398436D02*
X0523567Y0398436D01*
X0523567Y0400434D02*
X0531512Y0400434D01*
X0532499Y0402433D02*
X0523567Y0402433D01*
X0523567Y0404431D02*
X0533465Y0404431D01*
X0532808Y0406430D02*
X0523567Y0406430D01*
X0523567Y0408428D02*
X0532102Y0408428D01*
X0532102Y0410427D02*
X0524123Y0410427D01*
X0526121Y0412425D02*
X0532102Y0412425D01*
X0532410Y0414424D02*
X0528120Y0414424D01*
X0520892Y0418421D02*
X0501291Y0418421D01*
X0502846Y0416422D02*
X0518893Y0416422D01*
X0516895Y0414424D02*
X0503441Y0414424D01*
X0503364Y0412425D02*
X0515680Y0412425D01*
X0515630Y0410427D02*
X0502536Y0410427D01*
X0502896Y0408428D02*
X0515630Y0408428D01*
X0515630Y0406430D02*
X0503441Y0406430D01*
X0503314Y0404431D02*
X0515630Y0404431D01*
X0515630Y0402433D02*
X0502421Y0402433D01*
X0502945Y0400434D02*
X0515630Y0400434D01*
X0515630Y0398436D02*
X0503441Y0398436D01*
X0503264Y0396437D02*
X0514874Y0396437D01*
X0514661Y0394439D02*
X0502301Y0394439D01*
X0492643Y0394439D02*
X0415687Y0394439D01*
X0416381Y0392440D02*
X0491950Y0392440D01*
X0491504Y0390442D02*
X0416827Y0390442D01*
X0416601Y0388443D02*
X0491730Y0388443D01*
X0492763Y0386445D02*
X0415567Y0386445D01*
X0416431Y0384446D02*
X0491900Y0384446D01*
X0491504Y0382448D02*
X0416827Y0382448D01*
X0416551Y0380449D02*
X0491780Y0380449D01*
X0492884Y0378451D02*
X0415447Y0378451D01*
X0416480Y0376452D02*
X0491850Y0376452D01*
X0491504Y0374454D02*
X0416827Y0374454D01*
X0416501Y0372455D02*
X0491830Y0372455D01*
X0492934Y0370457D02*
X0415397Y0370457D01*
X0416530Y0368458D02*
X0491801Y0368458D01*
X0491504Y0366459D02*
X0416827Y0366459D01*
X0416451Y0364461D02*
X0491879Y0364461D01*
X0492814Y0362462D02*
X0415517Y0362462D01*
X0416580Y0360464D02*
X0491751Y0360464D01*
X0491504Y0358465D02*
X0416827Y0358465D01*
X0416402Y0356467D02*
X0491929Y0356467D01*
X0492694Y0354468D02*
X0415637Y0354468D01*
X0416629Y0352470D02*
X0491701Y0352470D01*
X0491504Y0350471D02*
X0416827Y0350471D01*
X0416352Y0348473D02*
X0491979Y0348473D01*
X0492574Y0346474D02*
X0414967Y0346474D01*
X0415614Y0344476D02*
X0491652Y0344476D01*
X0491504Y0342477D02*
X0415849Y0342477D01*
X0415220Y0340479D02*
X0492028Y0340479D01*
X0493484Y0338480D02*
X0413134Y0338480D01*
X0408286Y0334483D02*
X0403606Y0334483D01*
X0403606Y0332485D02*
X0406951Y0332485D01*
X0406696Y0330486D02*
X0403606Y0330486D01*
X0403606Y0328488D02*
X0407314Y0328488D01*
X0409737Y0326489D02*
X0403606Y0326489D01*
X0403606Y0324491D02*
X0442710Y0324491D01*
X0444708Y0326489D02*
X0413161Y0326489D01*
X0411449Y0330924D02*
X0517748Y0330924D01*
X0545754Y0368458D02*
X0563880Y0368458D01*
X0565215Y0370457D02*
X0546123Y0370457D01*
X0545620Y0372455D02*
X0567420Y0372455D01*
X0578313Y0372455D02*
X0650541Y0372455D01*
X0650541Y0370457D02*
X0580517Y0370457D01*
X0581853Y0368458D02*
X0650541Y0368458D01*
X0650541Y0366459D02*
X0582378Y0366459D01*
X0582775Y0364461D02*
X0650541Y0364461D01*
X0650541Y0362462D02*
X0582406Y0362462D01*
X0581949Y0360464D02*
X0650541Y0360464D01*
X0650541Y0358465D02*
X0580613Y0358465D01*
X0578528Y0356467D02*
X0650541Y0356467D01*
X0650541Y0342477D02*
X0639361Y0342477D01*
X0640514Y0340479D02*
X0650541Y0340479D01*
X0650541Y0338480D02*
X0640651Y0338480D01*
X0639890Y0336482D02*
X0650541Y0336482D01*
X0650541Y0334483D02*
X0640814Y0334483D01*
X0641642Y0332485D02*
X0650541Y0332485D01*
X0650541Y0330486D02*
X0641666Y0330486D01*
X0640985Y0328488D02*
X0650541Y0328488D01*
X0650541Y0326489D02*
X0640864Y0326489D01*
X0641666Y0324491D02*
X0650541Y0324491D01*
X0650541Y0322492D02*
X0641666Y0322492D01*
X0640936Y0320494D02*
X0650541Y0320494D01*
X0650541Y0318495D02*
X0640913Y0318495D01*
X0641666Y0316497D02*
X0650541Y0316497D01*
X0650541Y0314498D02*
X0641666Y0314498D01*
X0640886Y0312500D02*
X0650541Y0312500D01*
X0650541Y0310501D02*
X0638829Y0310501D01*
X0635898Y0315531D02*
X0447236Y0315531D01*
X0423260Y0291554D01*
X0411449Y0291554D01*
X0407764Y0288518D02*
X0403606Y0288518D01*
X0403606Y0290516D02*
X0406735Y0290516D01*
X0406702Y0292515D02*
X0403606Y0292515D01*
X0403606Y0294513D02*
X0407686Y0294513D01*
X0403606Y0296512D02*
X0419455Y0296512D01*
X0418507Y0298510D02*
X0403606Y0298510D01*
X0403606Y0300509D02*
X0418563Y0300509D01*
X0419617Y0302507D02*
X0403606Y0302507D01*
X0403606Y0304506D02*
X0422725Y0304506D01*
X0424723Y0306504D02*
X0403606Y0306504D01*
X0403606Y0308503D02*
X0426722Y0308503D01*
X0428720Y0310501D02*
X0403606Y0310501D01*
X0403606Y0312500D02*
X0430719Y0312500D01*
X0432717Y0314498D02*
X0403606Y0314498D01*
X0403606Y0316497D02*
X0434716Y0316497D01*
X0436714Y0318495D02*
X0403606Y0318495D01*
X0403606Y0320494D02*
X0438713Y0320494D01*
X0440711Y0322492D02*
X0403606Y0322492D01*
X0403606Y0340479D02*
X0406497Y0340479D01*
X0405868Y0342477D02*
X0403606Y0342477D01*
X0383890Y0342735D02*
X0383890Y0382106D01*
X0376016Y0389980D01*
X0379167Y0392440D02*
X0387795Y0392440D01*
X0387795Y0390442D02*
X0381166Y0390442D01*
X0383164Y0388443D02*
X0387795Y0388443D01*
X0387795Y0386445D02*
X0385163Y0386445D01*
X0387161Y0384446D02*
X0387795Y0384446D01*
X0399638Y0393917D02*
X0403772Y0398050D01*
X0410858Y0398050D01*
X0416331Y0400434D02*
X0492000Y0400434D01*
X0491504Y0398436D02*
X0416827Y0398436D01*
X0416650Y0396437D02*
X0491680Y0396437D01*
X0492523Y0402433D02*
X0415807Y0402433D01*
X0416700Y0404431D02*
X0491631Y0404431D01*
X0491504Y0406430D02*
X0416827Y0406430D01*
X0527307Y0386445D02*
X0531753Y0386445D01*
X0533465Y0384446D02*
X0527307Y0384446D01*
X0527307Y0382448D02*
X0533465Y0382448D01*
X0541402Y0382448D02*
X0594023Y0382448D01*
X0592024Y0384446D02*
X0541402Y0384446D01*
X0541402Y0380449D02*
X0597472Y0380449D01*
X0650541Y0378451D02*
X0541402Y0378451D01*
X0541402Y0376452D02*
X0650541Y0376452D01*
X0650541Y0374454D02*
X0543749Y0374454D01*
X0537433Y0397657D02*
X0537433Y0410728D01*
X0635898Y0342477D02*
X0635898Y0342477D01*
X0635898Y0340479D02*
X0635898Y0340479D01*
X0635898Y0323405D02*
X0447236Y0323405D01*
X0423260Y0299428D01*
X0431831Y0294513D02*
X0650541Y0294513D01*
X0650541Y0292515D02*
X0429832Y0292515D01*
X0427834Y0290516D02*
X0544293Y0290516D01*
X0544329Y0290653D02*
X0544193Y0290144D01*
X0544193Y0278775D01*
X0556118Y0278775D01*
X0556118Y0291881D01*
X0545930Y0291881D01*
X0545421Y0291745D01*
X0544965Y0291481D01*
X0544593Y0291109D01*
X0544329Y0290653D01*
X0544193Y0288518D02*
X0425835Y0288518D01*
X0433829Y0296512D02*
X0650541Y0296512D01*
X0650541Y0298510D02*
X0435828Y0298510D01*
X0437826Y0300509D02*
X0650541Y0300509D01*
X0650541Y0302507D02*
X0439825Y0302507D01*
X0441823Y0304506D02*
X0650541Y0304506D01*
X0650541Y0306504D02*
X0443822Y0306504D01*
X0445820Y0308503D02*
X0650541Y0308503D01*
X0632966Y0310501D02*
X0447819Y0310501D01*
X0403606Y0286519D02*
X0544193Y0286519D01*
X0544193Y0284521D02*
X0403606Y0284521D01*
X0403606Y0282522D02*
X0544193Y0282522D01*
X0544193Y0280523D02*
X0403606Y0280523D01*
X0403606Y0278525D02*
X0556118Y0278525D01*
X0556118Y0278775D02*
X0556118Y0276775D01*
X0544193Y0276775D01*
X0544193Y0265405D01*
X0544329Y0264897D01*
X0544593Y0264440D01*
X0544965Y0264068D01*
X0545421Y0263805D01*
X0545930Y0263669D01*
X0556118Y0263669D01*
X0556118Y0276775D01*
X0558118Y0276775D01*
X0558118Y0278775D01*
X0556118Y0278775D01*
X0556118Y0280523D02*
X0558118Y0280523D01*
X0558118Y0278775D02*
X0558118Y0291881D01*
X0568307Y0291881D01*
X0568815Y0291745D01*
X0569271Y0291481D01*
X0569644Y0291109D01*
X0569907Y0290653D01*
X0570043Y0290144D01*
X0570043Y0278775D01*
X0558118Y0278775D01*
X0558118Y0278525D02*
X0650541Y0278525D01*
X0650541Y0280523D02*
X0570043Y0280523D01*
X0570043Y0282522D02*
X0650541Y0282522D01*
X0650541Y0284521D02*
X0570043Y0284521D01*
X0570043Y0286519D02*
X0650541Y0286519D01*
X0650541Y0288518D02*
X0570043Y0288518D01*
X0569944Y0290516D02*
X0650541Y0290516D01*
X0650541Y0276526D02*
X0570043Y0276526D01*
X0570043Y0276775D02*
X0558118Y0276775D01*
X0558118Y0263669D01*
X0568307Y0263669D01*
X0568815Y0263805D01*
X0569271Y0264068D01*
X0569644Y0264440D01*
X0569907Y0264897D01*
X0570043Y0265405D01*
X0570043Y0276775D01*
X0570043Y0274528D02*
X0650541Y0274528D01*
X0650541Y0272529D02*
X0570043Y0272529D01*
X0570043Y0270531D02*
X0650541Y0270531D01*
X0650541Y0268532D02*
X0570043Y0268532D01*
X0570043Y0266534D02*
X0650541Y0266534D01*
X0650541Y0264535D02*
X0569699Y0264535D01*
X0570112Y0260090D02*
X0560266Y0260090D01*
X0558807Y0259486D01*
X0557691Y0258369D01*
X0557118Y0256987D01*
X0556545Y0258369D01*
X0555429Y0259486D01*
X0553970Y0260090D01*
X0544518Y0260090D01*
X0543059Y0259486D01*
X0541943Y0258369D01*
X0541695Y0258121D01*
X0534512Y0258121D01*
X0534512Y0259582D01*
X0529839Y0259582D01*
X0529839Y0260141D01*
X0534512Y0260141D01*
X0534512Y0262684D01*
X0534376Y0263192D01*
X0534112Y0263648D01*
X0533740Y0264021D01*
X0533284Y0264284D01*
X0532775Y0264420D01*
X0529839Y0264420D01*
X0529839Y0260141D01*
X0529280Y0260141D01*
X0529280Y0264420D01*
X0526343Y0264420D01*
X0525834Y0264284D01*
X0525378Y0264021D01*
X0525006Y0263648D01*
X0524743Y0263192D01*
X0524606Y0262684D01*
X0524606Y0260141D01*
X0529279Y0260141D01*
X0529279Y0259582D01*
X0524606Y0259582D01*
X0524606Y0258027D01*
X0523374Y0257517D01*
X0522258Y0256401D01*
X0521654Y0254942D01*
X0521654Y0235647D01*
X0522258Y0234188D01*
X0523374Y0233072D01*
X0527311Y0229135D01*
X0528770Y0228531D01*
X0550033Y0228531D01*
X0551492Y0229135D01*
X0552608Y0230251D01*
X0556545Y0234188D01*
X0557118Y0235571D01*
X0557691Y0234188D01*
X0561628Y0230251D01*
X0562744Y0229135D01*
X0564203Y0228531D01*
X0589404Y0228531D01*
X0590862Y0229135D01*
X0594799Y0233072D01*
X0595916Y0234188D01*
X0596520Y0235647D01*
X0596520Y0254942D01*
X0595916Y0256401D01*
X0594799Y0257517D01*
X0593341Y0258121D01*
X0589630Y0258121D01*
X0589630Y0259582D01*
X0584957Y0259582D01*
X0584957Y0260141D01*
X0589630Y0260141D01*
X0589630Y0262684D01*
X0589494Y0263192D01*
X0589230Y0263648D01*
X0588858Y0264021D01*
X0588402Y0264284D01*
X0587893Y0264420D01*
X0584957Y0264420D01*
X0584957Y0260141D01*
X0584398Y0260141D01*
X0584398Y0264420D01*
X0581461Y0264420D01*
X0580952Y0264284D01*
X0580496Y0264021D01*
X0580124Y0263648D01*
X0579861Y0263192D01*
X0579724Y0262684D01*
X0579724Y0260141D01*
X0584398Y0260141D01*
X0584398Y0259582D01*
X0579724Y0259582D01*
X0579724Y0258121D01*
X0572935Y0258121D01*
X0572687Y0258369D01*
X0571571Y0259486D01*
X0570112Y0260090D01*
X0572517Y0258540D02*
X0579724Y0258540D01*
X0579724Y0260538D02*
X0534512Y0260538D01*
X0534512Y0258540D02*
X0542113Y0258540D01*
X0541943Y0258369D02*
X0541943Y0258369D01*
X0544134Y0254948D02*
X0544134Y0251397D01*
X0548102Y0251397D01*
X0548102Y0251397D01*
X0544134Y0251397D01*
X0544134Y0245779D01*
X0544270Y0245271D01*
X0544533Y0244814D01*
X0544906Y0244442D01*
X0545362Y0244179D01*
X0545871Y0244043D01*
X0548102Y0244043D01*
X0548102Y0251397D01*
X0548102Y0251397D01*
X0552071Y0251397D01*
X0552071Y0256121D01*
X0553181Y0256121D01*
X0553181Y0236436D01*
X0549244Y0232499D01*
X0529559Y0232499D01*
X0525622Y0236436D01*
X0525622Y0248081D01*
X0525834Y0247958D01*
X0526343Y0247822D01*
X0529280Y0247822D01*
X0529280Y0252101D01*
X0529839Y0252101D01*
X0529839Y0247822D01*
X0532775Y0247822D01*
X0533284Y0247958D01*
X0533740Y0248222D01*
X0534112Y0248594D01*
X0534376Y0249050D01*
X0534512Y0249559D01*
X0534512Y0252102D01*
X0529839Y0252102D01*
X0529839Y0252661D01*
X0534512Y0252661D01*
X0534512Y0254153D01*
X0543339Y0254153D01*
X0544134Y0254948D01*
X0544134Y0254543D02*
X0543729Y0254543D01*
X0544134Y0252544D02*
X0529839Y0252544D01*
X0529559Y0252381D02*
X0530543Y0251397D01*
X0529839Y0250546D02*
X0529280Y0250546D01*
X0529280Y0248547D02*
X0529839Y0248547D01*
X0534066Y0248547D02*
X0544134Y0248547D01*
X0544134Y0246549D02*
X0525622Y0246549D01*
X0525622Y0244550D02*
X0544798Y0244550D01*
X0548102Y0244550D02*
X0548102Y0244550D01*
X0548102Y0244043D02*
X0550334Y0244043D01*
X0550843Y0244179D01*
X0551299Y0244442D01*
X0551671Y0244814D01*
X0551935Y0245271D01*
X0552071Y0245779D01*
X0552071Y0251397D01*
X0548102Y0251397D01*
X0548102Y0251397D01*
X0548102Y0244043D01*
X0548102Y0246549D02*
X0548102Y0246549D01*
X0548102Y0248547D02*
X0548102Y0248547D01*
X0548102Y0250546D02*
X0548102Y0250546D01*
X0544134Y0250546D02*
X0534512Y0250546D01*
X0522398Y0256541D02*
X0452074Y0256541D01*
X0454022Y0254543D02*
X0521654Y0254543D01*
X0521654Y0252544D02*
X0454591Y0252544D01*
X0454591Y0250546D02*
X0521654Y0250546D01*
X0521654Y0248547D02*
X0454591Y0248547D01*
X0454591Y0246549D02*
X0521654Y0246549D01*
X0521654Y0244550D02*
X0454591Y0244550D01*
X0454591Y0242552D02*
X0521654Y0242552D01*
X0521654Y0240553D02*
X0454591Y0240553D01*
X0454591Y0238555D02*
X0521654Y0238555D01*
X0521654Y0236556D02*
X0454591Y0236556D01*
X0454591Y0234558D02*
X0522105Y0234558D01*
X0523887Y0232559D02*
X0454591Y0232559D01*
X0454591Y0230561D02*
X0525885Y0230561D01*
X0528694Y0228562D02*
X0454591Y0228562D01*
X0454591Y0226564D02*
X0650541Y0226564D01*
X0650541Y0228562D02*
X0589480Y0228562D01*
X0592288Y0230561D02*
X0650541Y0230561D01*
X0650541Y0232559D02*
X0594286Y0232559D01*
X0596069Y0234558D02*
X0650541Y0234558D01*
X0650541Y0236556D02*
X0596520Y0236556D01*
X0596520Y0238555D02*
X0650541Y0238555D01*
X0650541Y0240553D02*
X0596520Y0240553D01*
X0596520Y0242552D02*
X0650541Y0242552D01*
X0650541Y0244550D02*
X0596520Y0244550D01*
X0596520Y0246549D02*
X0650541Y0246549D01*
X0650541Y0248547D02*
X0596520Y0248547D01*
X0596520Y0250546D02*
X0650541Y0250546D01*
X0650541Y0252544D02*
X0596520Y0252544D01*
X0596520Y0254543D02*
X0650541Y0254543D01*
X0650541Y0256541D02*
X0595775Y0256541D01*
X0592551Y0254153D02*
X0592551Y0236436D01*
X0588614Y0232499D01*
X0564992Y0232499D01*
X0561055Y0236436D01*
X0561055Y0256121D01*
X0562165Y0256121D01*
X0562165Y0251397D01*
X0566134Y0251397D01*
X0570102Y0251397D01*
X0570102Y0255342D01*
X0571291Y0254153D01*
X0579724Y0254153D01*
X0579724Y0252661D01*
X0584398Y0252661D01*
X0584398Y0252102D01*
X0579724Y0252102D01*
X0579724Y0249559D01*
X0579861Y0249050D01*
X0580124Y0248594D01*
X0580496Y0248222D01*
X0580952Y0247958D01*
X0581461Y0247822D01*
X0584398Y0247822D01*
X0584398Y0252101D01*
X0584957Y0252101D01*
X0584957Y0247822D01*
X0587893Y0247822D01*
X0588402Y0247958D01*
X0588858Y0248222D01*
X0589230Y0248594D01*
X0589494Y0249050D01*
X0589630Y0249559D01*
X0589630Y0252102D01*
X0584957Y0252102D01*
X0584957Y0252661D01*
X0589630Y0252661D01*
X0589630Y0254153D01*
X0592551Y0254153D01*
X0592551Y0252544D02*
X0584957Y0252544D01*
X0584677Y0252381D02*
X0583693Y0251397D01*
X0584398Y0250546D02*
X0584957Y0250546D01*
X0584957Y0248547D02*
X0584398Y0248547D01*
X0584398Y0252544D02*
X0570102Y0252544D01*
X0570102Y0251397D02*
X0566134Y0251397D01*
X0566134Y0251397D01*
X0566134Y0244043D01*
X0568366Y0244043D01*
X0568874Y0244179D01*
X0569330Y0244442D01*
X0569703Y0244814D01*
X0569966Y0245271D01*
X0570102Y0245779D01*
X0570102Y0251397D01*
X0570102Y0250546D02*
X0579724Y0250546D01*
X0580171Y0248547D02*
X0570102Y0248547D01*
X0570102Y0246549D02*
X0592551Y0246549D01*
X0592551Y0248547D02*
X0589184Y0248547D01*
X0589630Y0250546D02*
X0592551Y0250546D01*
X0592551Y0244550D02*
X0569439Y0244550D01*
X0566134Y0244550D02*
X0566134Y0244550D01*
X0566134Y0244043D02*
X0566134Y0251397D01*
X0566134Y0251397D01*
X0566134Y0251397D01*
X0562165Y0251397D01*
X0562165Y0245779D01*
X0562302Y0245271D01*
X0562565Y0244814D01*
X0562937Y0244442D01*
X0563393Y0244179D01*
X0563902Y0244043D01*
X0566134Y0244043D01*
X0566134Y0246549D02*
X0566134Y0246549D01*
X0566134Y0248547D02*
X0566134Y0248547D01*
X0566134Y0250546D02*
X0566134Y0250546D01*
X0562165Y0250546D02*
X0561055Y0250546D01*
X0561055Y0252544D02*
X0562165Y0252544D01*
X0562165Y0254543D02*
X0561055Y0254543D01*
X0557861Y0258540D02*
X0556375Y0258540D01*
X0553181Y0254543D02*
X0552071Y0254543D01*
X0552071Y0252544D02*
X0553181Y0252544D01*
X0553181Y0250546D02*
X0552071Y0250546D01*
X0552071Y0248547D02*
X0553181Y0248547D01*
X0553181Y0246549D02*
X0552071Y0246549D01*
X0551407Y0244550D02*
X0553181Y0244550D01*
X0553181Y0242552D02*
X0525622Y0242552D01*
X0525622Y0240553D02*
X0553181Y0240553D01*
X0553181Y0238555D02*
X0525622Y0238555D01*
X0525622Y0236556D02*
X0553181Y0236556D01*
X0551303Y0234558D02*
X0527501Y0234558D01*
X0529499Y0232559D02*
X0549304Y0232559D01*
X0550110Y0228562D02*
X0564127Y0228562D01*
X0561318Y0230561D02*
X0552918Y0230561D01*
X0554916Y0232559D02*
X0559320Y0232559D01*
X0557538Y0234558D02*
X0556698Y0234558D01*
X0561055Y0236556D02*
X0592551Y0236556D01*
X0592551Y0238555D02*
X0561055Y0238555D01*
X0561055Y0240553D02*
X0592551Y0240553D01*
X0592551Y0242552D02*
X0561055Y0242552D01*
X0561055Y0244550D02*
X0562829Y0244550D01*
X0562165Y0246549D02*
X0561055Y0246549D01*
X0561055Y0248547D02*
X0562165Y0248547D01*
X0570102Y0254543D02*
X0570901Y0254543D01*
X0579724Y0262537D02*
X0534512Y0262537D01*
X0529839Y0262537D02*
X0529280Y0262537D01*
X0529280Y0260538D02*
X0529839Y0260538D01*
X0524606Y0260538D02*
X0448077Y0260538D01*
X0450076Y0258540D02*
X0524606Y0258540D01*
X0524606Y0262537D02*
X0446079Y0262537D01*
X0444080Y0264535D02*
X0544538Y0264535D01*
X0544193Y0266534D02*
X0443101Y0266534D01*
X0440474Y0268532D02*
X0544193Y0268532D01*
X0544193Y0270531D02*
X0403606Y0270531D01*
X0403606Y0272529D02*
X0544193Y0272529D01*
X0544193Y0274528D02*
X0403606Y0274528D01*
X0403606Y0276526D02*
X0544193Y0276526D01*
X0556118Y0276526D02*
X0558118Y0276526D01*
X0558118Y0274528D02*
X0556118Y0274528D01*
X0556118Y0272529D02*
X0558118Y0272529D01*
X0558118Y0270531D02*
X0556118Y0270531D01*
X0556118Y0268532D02*
X0558118Y0268532D01*
X0558118Y0266534D02*
X0556118Y0266534D01*
X0556118Y0264535D02*
X0558118Y0264535D01*
X0558118Y0282522D02*
X0556118Y0282522D01*
X0556118Y0284521D02*
X0558118Y0284521D01*
X0558118Y0286519D02*
X0556118Y0286519D01*
X0556118Y0288518D02*
X0558118Y0288518D01*
X0558118Y0290516D02*
X0556118Y0290516D01*
X0584398Y0262537D02*
X0584957Y0262537D01*
X0584957Y0260538D02*
X0584398Y0260538D01*
X0589630Y0260538D02*
X0650541Y0260538D01*
X0650541Y0258540D02*
X0589630Y0258540D01*
X0589630Y0262537D02*
X0650541Y0262537D01*
X0650541Y0224565D02*
X0454591Y0224565D01*
X0454591Y0222567D02*
X0650541Y0222567D01*
X0650541Y0220568D02*
X0454591Y0220568D01*
X0454591Y0218570D02*
X0650541Y0218570D01*
X0650541Y0216571D02*
X0454591Y0216571D01*
X0454591Y0214573D02*
X0650541Y0214573D01*
X0650541Y0212574D02*
X0454591Y0212574D01*
X0454591Y0210576D02*
X0650541Y0210576D01*
X0650541Y0208577D02*
X0454591Y0208577D01*
X0454591Y0206579D02*
X0650541Y0206579D01*
X0650541Y0204580D02*
X0454591Y0204580D01*
X0454591Y0202582D02*
X0650541Y0202582D01*
X0650541Y0200583D02*
X0454591Y0200583D01*
X0454591Y0198585D02*
X0650541Y0198585D01*
X0650541Y0196586D02*
X0454591Y0196586D01*
X0454591Y0194588D02*
X0650541Y0194588D01*
X0650541Y0192589D02*
X0454591Y0192589D01*
X0454591Y0190590D02*
X0650541Y0190590D01*
X0650541Y0188592D02*
X0454591Y0188592D01*
X0454591Y0186593D02*
X0650541Y0186593D01*
X0650541Y0184595D02*
X0454591Y0184595D01*
X0454591Y0182596D02*
X0650541Y0182596D01*
X0650541Y0180598D02*
X0454591Y0180598D01*
X0454591Y0178599D02*
X0650541Y0178599D01*
X0650541Y0176601D02*
X0454591Y0176601D01*
X0454591Y0174602D02*
X0650541Y0174602D01*
X0650541Y0172604D02*
X0454591Y0172604D01*
X0454591Y0170605D02*
X0650541Y0170605D01*
X0650541Y0168607D02*
X0454591Y0168607D01*
X0454591Y0166608D02*
X0650541Y0166608D01*
X0650541Y0164610D02*
X0454591Y0164610D01*
X0454591Y0162611D02*
X0650541Y0162611D01*
X0650541Y0160613D02*
X0454591Y0160613D01*
X0454591Y0158614D02*
X0650541Y0158614D01*
X0650541Y0156616D02*
X0454591Y0156616D01*
X0454591Y0154617D02*
X0650541Y0154617D01*
X0650541Y0152619D02*
X0474429Y0152619D01*
X0475257Y0150620D02*
X0650541Y0150620D01*
X0650541Y0148622D02*
X0475151Y0148622D01*
X0474472Y0146623D02*
X0650541Y0146623D01*
X0650541Y0144625D02*
X0474472Y0144625D01*
X0474472Y0142626D02*
X0650541Y0142626D01*
X0650541Y0140628D02*
X0474472Y0140628D01*
X0474472Y0138629D02*
X0650541Y0138629D01*
X0650541Y0136631D02*
X0474472Y0136631D01*
X0474472Y0134632D02*
X0650541Y0134632D01*
X0650541Y0132634D02*
X0474472Y0132634D01*
X0474472Y0130635D02*
X0650541Y0130635D01*
X0650541Y0128637D02*
X0474472Y0128637D01*
X0474472Y0126638D02*
X0650541Y0126638D01*
X0650541Y0124640D02*
X0474472Y0124640D01*
X0474472Y0122641D02*
X0650541Y0122641D01*
X0650541Y0120643D02*
X0474472Y0120643D01*
X0474472Y0118644D02*
X0650541Y0118644D01*
X0650541Y0116646D02*
X0474472Y0116646D01*
X0474472Y0114647D02*
X0650541Y0114647D01*
X0650541Y0112649D02*
X0474472Y0112649D01*
X0474472Y0110650D02*
X0650541Y0110650D01*
X0650541Y0108652D02*
X0474472Y0108652D01*
X0474472Y0106653D02*
X0511230Y0106653D01*
X0509527Y0104655D02*
X0474472Y0104655D01*
X0474472Y0102656D02*
X0509058Y0102656D01*
X0509462Y0100657D02*
X0474472Y0100657D01*
X0474472Y0098659D02*
X0511009Y0098659D01*
X0511827Y0096660D02*
X0474472Y0096660D01*
X0476158Y0094662D02*
X0511827Y0094662D01*
X0511827Y0092663D02*
X0478157Y0092663D01*
X0478181Y0087027D02*
X0470504Y0094704D01*
X0470504Y0149822D01*
X0465857Y0148622D02*
X0454591Y0148622D01*
X0454591Y0150620D02*
X0465751Y0150620D01*
X0466579Y0152619D02*
X0454591Y0152619D01*
X0454591Y0146623D02*
X0466535Y0146623D01*
X0466535Y0144625D02*
X0454591Y0144625D01*
X0454591Y0142626D02*
X0466535Y0142626D01*
X0466535Y0140628D02*
X0454591Y0140628D01*
X0454591Y0138629D02*
X0466535Y0138629D01*
X0466535Y0136631D02*
X0454591Y0136631D01*
X0454591Y0134632D02*
X0466535Y0134632D01*
X0466535Y0132634D02*
X0454591Y0132634D01*
X0454591Y0130635D02*
X0466535Y0130635D01*
X0466535Y0128637D02*
X0454591Y0128637D01*
X0454591Y0126638D02*
X0466535Y0126638D01*
X0466535Y0124640D02*
X0454591Y0124640D01*
X0454591Y0122641D02*
X0466535Y0122641D01*
X0466535Y0120643D02*
X0454591Y0120643D01*
X0455855Y0118644D02*
X0466535Y0118644D01*
X0466535Y0116646D02*
X0456150Y0116646D01*
X0456150Y0114647D02*
X0466535Y0114647D01*
X0466535Y0112649D02*
X0456150Y0112649D01*
X0456069Y0110650D02*
X0466535Y0110650D01*
X0466535Y0108652D02*
X0454591Y0108652D01*
X0454591Y0106653D02*
X0466535Y0106653D01*
X0466535Y0104655D02*
X0454591Y0104655D01*
X0454591Y0102656D02*
X0466535Y0102656D01*
X0466535Y0100657D02*
X0455165Y0100657D01*
X0455165Y0098659D02*
X0466535Y0098659D01*
X0466535Y0096660D02*
X0455165Y0096660D01*
X0454188Y0094662D02*
X0457099Y0094662D01*
X0462433Y0090373D02*
X0462630Y0090570D01*
X0462433Y0090373D02*
X0446882Y0090373D01*
X0446882Y0022854D01*
X0454280Y0022716D02*
X0525146Y0022716D01*
X0526098Y0022716D02*
X0587549Y0022716D01*
X0587549Y0024714D02*
X0531779Y0024714D01*
X0530765Y0026713D02*
X0587549Y0026713D01*
X0587549Y0028711D02*
X0528281Y0028711D01*
X0526098Y0028711D02*
X0525146Y0028711D01*
X0525146Y0026713D02*
X0526098Y0026713D01*
X0526098Y0024714D02*
X0525146Y0024714D01*
X0522963Y0028711D02*
X0451486Y0028711D01*
X0450850Y0030710D02*
X0459666Y0030710D01*
X0460408Y0029968D02*
X0463127Y0028842D01*
X0466070Y0028842D01*
X0468789Y0029968D01*
X0470870Y0032049D01*
X0471996Y0034768D01*
X0471996Y0037711D01*
X0470870Y0040430D01*
X0468789Y0042511D01*
X0466070Y0043637D01*
X0463127Y0043637D01*
X0460408Y0042511D01*
X0458327Y0040430D01*
X0457201Y0037711D01*
X0457201Y0034768D01*
X0458327Y0032049D01*
X0460408Y0029968D01*
X0458054Y0032708D02*
X0450850Y0032708D01*
X0450850Y0034707D02*
X0457226Y0034707D01*
X0457201Y0036705D02*
X0450850Y0036705D01*
X0450850Y0038704D02*
X0457612Y0038704D01*
X0458599Y0040702D02*
X0450850Y0040702D01*
X0450850Y0042701D02*
X0460866Y0042701D01*
X0468330Y0042701D02*
X0510667Y0042701D01*
X0509160Y0044699D02*
X0450850Y0044699D01*
X0450850Y0046698D02*
X0502391Y0046698D01*
X0499554Y0048696D02*
X0450850Y0048696D01*
X0450850Y0050695D02*
X0498330Y0050695D01*
X0497752Y0052693D02*
X0450850Y0052693D01*
X0450850Y0054692D02*
X0497752Y0054692D01*
X0498438Y0056690D02*
X0450850Y0056690D01*
X0450850Y0058689D02*
X0499814Y0058689D01*
X0501181Y0060687D02*
X0467618Y0060687D01*
X0469198Y0062686D02*
X0501181Y0062686D01*
X0501801Y0064684D02*
X0470026Y0064684D01*
X0470028Y0066683D02*
X0503800Y0066683D01*
X0505798Y0068681D02*
X0469593Y0068681D01*
X0468573Y0070680D02*
X0507797Y0070680D01*
X0509795Y0072678D02*
X0467598Y0072678D01*
X0467598Y0074677D02*
X0511794Y0074677D01*
X0513780Y0076675D02*
X0467598Y0076675D01*
X0467924Y0078674D02*
X0513780Y0078674D01*
X0513780Y0080672D02*
X0468551Y0080672D01*
X0468551Y0082671D02*
X0512394Y0082671D01*
X0517748Y0087027D02*
X0478181Y0087027D01*
X0474926Y0084669D02*
X0468551Y0084669D01*
X0468374Y0086668D02*
X0472928Y0086668D01*
X0470929Y0088666D02*
X0468551Y0088666D01*
X0468551Y0090665D02*
X0468931Y0090665D01*
X0456709Y0084669D02*
X0450850Y0084669D01*
X0450850Y0082671D02*
X0456709Y0082671D01*
X0456709Y0080672D02*
X0450850Y0080672D01*
X0450850Y0078674D02*
X0457336Y0078674D01*
X0457661Y0076675D02*
X0450850Y0076675D01*
X0450850Y0074677D02*
X0457661Y0074677D01*
X0457661Y0072678D02*
X0450850Y0072678D01*
X0450850Y0070680D02*
X0456687Y0070680D01*
X0455667Y0068681D02*
X0450850Y0068681D01*
X0450850Y0066683D02*
X0455232Y0066683D01*
X0455234Y0064684D02*
X0450850Y0064684D01*
X0450850Y0062686D02*
X0456062Y0062686D01*
X0457641Y0060687D02*
X0450850Y0060687D01*
X0442913Y0060687D02*
X0428539Y0060687D01*
X0431745Y0058689D02*
X0442913Y0058689D01*
X0442913Y0056690D02*
X0433121Y0056690D01*
X0440336Y0054692D02*
X0442913Y0054692D01*
X0442858Y0052693D02*
X0442913Y0052693D01*
X0442913Y0042701D02*
X0442151Y0042701D01*
X0442913Y0040702D02*
X0438629Y0040702D01*
X0435448Y0040702D02*
X0391857Y0040702D01*
X0392130Y0040430D02*
X0390049Y0042511D01*
X0387330Y0043637D01*
X0384387Y0043637D01*
X0381668Y0042511D01*
X0379587Y0040430D01*
X0378461Y0037711D01*
X0378461Y0034768D01*
X0379587Y0032049D01*
X0381668Y0029968D01*
X0384387Y0028842D01*
X0387330Y0028842D01*
X0390049Y0029968D01*
X0392130Y0032049D01*
X0393256Y0034768D01*
X0393256Y0037711D01*
X0392130Y0040430D01*
X0392845Y0038704D02*
X0442913Y0038704D01*
X0442913Y0036705D02*
X0393256Y0036705D01*
X0393231Y0034707D02*
X0442913Y0034707D01*
X0442913Y0032708D02*
X0392403Y0032708D01*
X0390790Y0030710D02*
X0442913Y0030710D01*
X0442278Y0028711D02*
X0372746Y0028711D01*
X0372110Y0030710D02*
X0380926Y0030710D01*
X0379314Y0032708D02*
X0372110Y0032708D01*
X0372110Y0034707D02*
X0378486Y0034707D01*
X0378461Y0036705D02*
X0372110Y0036705D01*
X0372110Y0038704D02*
X0378872Y0038704D01*
X0379859Y0040702D02*
X0372110Y0040702D01*
X0372110Y0042701D02*
X0382126Y0042701D01*
X0389590Y0042701D02*
X0431927Y0042701D01*
X0430420Y0044699D02*
X0372110Y0044699D01*
X0372110Y0046698D02*
X0423651Y0046698D01*
X0420814Y0048696D02*
X0372110Y0048696D01*
X0372110Y0050695D02*
X0419590Y0050695D01*
X0419012Y0052693D02*
X0372110Y0052693D01*
X0372110Y0054692D02*
X0419012Y0054692D01*
X0419698Y0056690D02*
X0372110Y0056690D01*
X0372110Y0058689D02*
X0421074Y0058689D01*
X0424280Y0060687D02*
X0388878Y0060687D01*
X0390458Y0062686D02*
X0442913Y0062686D01*
X0442913Y0064684D02*
X0391285Y0064684D01*
X0391287Y0066683D02*
X0442913Y0066683D01*
X0442913Y0068681D02*
X0390853Y0068681D01*
X0389832Y0070680D02*
X0442913Y0070680D01*
X0442913Y0072678D02*
X0388858Y0072678D01*
X0388858Y0074677D02*
X0442913Y0074677D01*
X0442913Y0076675D02*
X0388858Y0076675D01*
X0389184Y0078674D02*
X0442913Y0078674D01*
X0442913Y0080672D02*
X0389811Y0080672D01*
X0389811Y0082671D02*
X0442913Y0082671D01*
X0442913Y0084669D02*
X0389811Y0084669D01*
X0389633Y0086668D02*
X0442913Y0086668D01*
X0442339Y0088666D02*
X0389811Y0088666D01*
X0389811Y0090665D02*
X0442339Y0090665D01*
X0442339Y0092663D02*
X0389811Y0092663D01*
X0389421Y0094662D02*
X0443627Y0094662D01*
X0443142Y0094869D02*
X0443142Y0098641D01*
X0443142Y0114389D01*
X0395701Y0114389D01*
X0387827Y0122263D01*
X0377115Y0118644D02*
X0439057Y0118644D01*
X0438583Y0116646D02*
X0377409Y0116646D01*
X0377409Y0114647D02*
X0442862Y0114647D01*
X0442862Y0112649D02*
X0443421Y0112649D01*
X0443421Y0110650D02*
X0442862Y0110650D01*
X0438727Y0110650D02*
X0377328Y0110650D01*
X0377409Y0112649D02*
X0438583Y0112649D01*
X0442862Y0116646D02*
X0443421Y0116646D01*
X0443421Y0118644D02*
X0442862Y0118644D01*
X0446654Y0120643D02*
X0375850Y0120643D01*
X0375850Y0122641D02*
X0446654Y0122641D01*
X0446654Y0124640D02*
X0375850Y0124640D01*
X0375850Y0126638D02*
X0446654Y0126638D01*
X0446654Y0128637D02*
X0375850Y0128637D01*
X0375850Y0130635D02*
X0446654Y0130635D01*
X0446654Y0132634D02*
X0375850Y0132634D01*
X0375850Y0134632D02*
X0446654Y0134632D01*
X0446654Y0136631D02*
X0375850Y0136631D01*
X0375850Y0138629D02*
X0446654Y0138629D01*
X0446654Y0140628D02*
X0375850Y0140628D01*
X0375850Y0142626D02*
X0446654Y0142626D01*
X0446654Y0144625D02*
X0375850Y0144625D01*
X0375850Y0146623D02*
X0446654Y0146623D01*
X0446654Y0148622D02*
X0375850Y0148622D01*
X0375850Y0150620D02*
X0446654Y0150620D01*
X0446654Y0152619D02*
X0376551Y0152619D01*
X0378549Y0154617D02*
X0446654Y0154617D01*
X0446654Y0156616D02*
X0380548Y0156616D01*
X0382546Y0158614D02*
X0446654Y0158614D01*
X0446654Y0160613D02*
X0384545Y0160613D01*
X0386543Y0162611D02*
X0446654Y0162611D01*
X0446654Y0164610D02*
X0387787Y0164610D01*
X0387858Y0166608D02*
X0446654Y0166608D01*
X0446654Y0168607D02*
X0387858Y0168607D01*
X0387858Y0170605D02*
X0446654Y0170605D01*
X0446654Y0172604D02*
X0387858Y0172604D01*
X0387858Y0174602D02*
X0446654Y0174602D01*
X0446654Y0176601D02*
X0387858Y0176601D01*
X0387858Y0178599D02*
X0446654Y0178599D01*
X0446654Y0180598D02*
X0387858Y0180598D01*
X0387858Y0182596D02*
X0446654Y0182596D01*
X0446654Y0184595D02*
X0387858Y0184595D01*
X0387858Y0186593D02*
X0446654Y0186593D01*
X0446654Y0188592D02*
X0387858Y0188592D01*
X0387858Y0190590D02*
X0446654Y0190590D01*
X0446654Y0192589D02*
X0387858Y0192589D01*
X0387858Y0194588D02*
X0446654Y0194588D01*
X0446654Y0196586D02*
X0387858Y0196586D01*
X0387858Y0198585D02*
X0446654Y0198585D01*
X0446654Y0200583D02*
X0387858Y0200583D01*
X0387858Y0202582D02*
X0446654Y0202582D01*
X0446654Y0204580D02*
X0387858Y0204580D01*
X0387858Y0206579D02*
X0446654Y0206579D01*
X0446654Y0208577D02*
X0387858Y0208577D01*
X0387858Y0210576D02*
X0446654Y0210576D01*
X0446654Y0212574D02*
X0387858Y0212574D01*
X0387858Y0214573D02*
X0446654Y0214573D01*
X0446654Y0216571D02*
X0387858Y0216571D01*
X0387858Y0218570D02*
X0446654Y0218570D01*
X0446654Y0220568D02*
X0387858Y0220568D01*
X0387858Y0222567D02*
X0446654Y0222567D01*
X0446654Y0224565D02*
X0387858Y0224565D01*
X0387858Y0226564D02*
X0446654Y0226564D01*
X0446654Y0228562D02*
X0387858Y0228562D01*
X0387357Y0230561D02*
X0446654Y0230561D01*
X0446654Y0232559D02*
X0385505Y0232559D01*
X0383507Y0234558D02*
X0446654Y0234558D01*
X0446654Y0236556D02*
X0381508Y0236556D01*
X0379509Y0238555D02*
X0446654Y0238555D01*
X0446654Y0240553D02*
X0377511Y0240553D01*
X0374852Y0242552D02*
X0446654Y0242552D01*
X0446654Y0244550D02*
X0370095Y0244550D01*
X0359574Y0244550D02*
X0290095Y0244550D01*
X0290434Y0242552D02*
X0359235Y0242552D01*
X0358376Y0240553D02*
X0291293Y0240553D01*
X0291503Y0238555D02*
X0358166Y0238555D01*
X0358513Y0236556D02*
X0291156Y0236556D01*
X0290103Y0234558D02*
X0359567Y0234558D01*
X0364835Y0238720D02*
X0373731Y0238720D01*
X0383890Y0228562D01*
X0383890Y0165570D01*
X0371882Y0153562D01*
X0371882Y0114389D01*
X0371882Y0098641D01*
X0376425Y0098659D02*
X0439567Y0098659D01*
X0439567Y0098641D02*
X0443142Y0098641D01*
X0443142Y0098641D01*
X0443142Y0102413D01*
X0441304Y0102413D01*
X0440795Y0102276D01*
X0440339Y0102013D01*
X0439967Y0101641D01*
X0439703Y0101185D01*
X0439567Y0100676D01*
X0439567Y0098641D01*
X0439567Y0096606D01*
X0439703Y0096097D01*
X0439967Y0095641D01*
X0440339Y0095269D01*
X0440795Y0095006D01*
X0441304Y0094869D01*
X0443142Y0094869D01*
X0443142Y0096660D02*
X0443142Y0096660D01*
X0443142Y0098641D02*
X0439567Y0098641D01*
X0439567Y0096660D02*
X0376425Y0096660D01*
X0375447Y0094662D02*
X0378359Y0094662D01*
X0383693Y0090373D02*
X0383890Y0090570D01*
X0383693Y0090373D02*
X0368142Y0090373D01*
X0368142Y0022854D01*
X0375539Y0022716D02*
X0439484Y0022716D01*
X0439645Y0024714D02*
X0375378Y0024714D01*
X0374550Y0026713D02*
X0440473Y0026713D01*
X0439760Y0020717D02*
X0375264Y0020717D01*
X0374436Y0018719D02*
X0440588Y0018719D01*
X0453176Y0018719D02*
X0520691Y0018719D01*
X0519548Y0020717D02*
X0454004Y0020717D01*
X0454118Y0024714D02*
X0519465Y0024714D01*
X0520479Y0026713D02*
X0453291Y0026713D01*
X0469530Y0030710D02*
X0538407Y0030710D01*
X0539148Y0029968D02*
X0541867Y0028842D01*
X0544810Y0028842D01*
X0547529Y0029968D01*
X0549610Y0032049D01*
X0550736Y0034768D01*
X0550736Y0037711D01*
X0549610Y0040430D01*
X0547529Y0042511D01*
X0544810Y0043637D01*
X0541867Y0043637D01*
X0539148Y0042511D01*
X0537067Y0040430D01*
X0535941Y0037711D01*
X0535941Y0034768D01*
X0537067Y0032049D01*
X0539148Y0029968D01*
X0536794Y0032708D02*
X0471143Y0032708D01*
X0471971Y0034707D02*
X0535966Y0034707D01*
X0535941Y0036705D02*
X0471996Y0036705D01*
X0471585Y0038704D02*
X0536352Y0038704D01*
X0537340Y0040702D02*
X0517370Y0040702D01*
X0514188Y0040702D02*
X0470597Y0040702D01*
X0505150Y0053562D02*
X0505150Y0062420D01*
X0517748Y0075019D01*
X0517748Y0087027D01*
X0523669Y0086668D02*
X0565215Y0086668D01*
X0565849Y0085719D02*
X0563698Y0088938D01*
X0562943Y0092735D01*
X0563698Y0096533D01*
X0565849Y0099752D01*
X0569069Y0101903D01*
X0572866Y0102659D01*
X0576664Y0101903D01*
X0579883Y0099752D01*
X0582034Y0096533D01*
X0582789Y0092735D01*
X0582034Y0088938D01*
X0579883Y0085719D01*
X0576664Y0083568D01*
X0572866Y0082812D01*
X0569069Y0083568D01*
X0565849Y0085719D01*
X0567420Y0084669D02*
X0523669Y0084669D01*
X0523102Y0082671D02*
X0650541Y0082671D01*
X0650541Y0084669D02*
X0578313Y0084669D01*
X0580517Y0086668D02*
X0650541Y0086668D01*
X0650541Y0088666D02*
X0581853Y0088666D01*
X0582377Y0090665D02*
X0650541Y0090665D01*
X0650541Y0092663D02*
X0582775Y0092663D01*
X0582406Y0094662D02*
X0650541Y0094662D01*
X0650541Y0096660D02*
X0581949Y0096660D01*
X0580613Y0098659D02*
X0650541Y0098659D01*
X0650541Y0100657D02*
X0578528Y0100657D01*
X0572880Y0102656D02*
X0650541Y0102656D01*
X0650541Y0104655D02*
X0518095Y0104655D01*
X0519345Y0102656D02*
X0572853Y0102656D01*
X0567204Y0100657D02*
X0521208Y0100657D01*
X0523254Y0098659D02*
X0565119Y0098659D01*
X0563784Y0096660D02*
X0523669Y0096660D01*
X0523669Y0094662D02*
X0563326Y0094662D01*
X0562957Y0092663D02*
X0523669Y0092663D01*
X0523467Y0090665D02*
X0563355Y0090665D01*
X0563880Y0088666D02*
X0523669Y0088666D01*
X0517748Y0094507D02*
X0517748Y0098641D01*
X0513811Y0102578D01*
X0516392Y0106653D02*
X0650541Y0106653D01*
X0650541Y0080672D02*
X0521717Y0080672D01*
X0521717Y0078674D02*
X0650541Y0078674D01*
X0597472Y0076675D02*
X0521717Y0076675D01*
X0521717Y0074677D02*
X0594023Y0074677D01*
X0592024Y0072678D02*
X0544966Y0072678D01*
X0545560Y0072432D02*
X0542842Y0073558D01*
X0539899Y0073558D01*
X0537180Y0072432D01*
X0535099Y0070351D01*
X0533972Y0067632D01*
X0533972Y0064689D01*
X0535099Y0061970D01*
X0537180Y0059889D01*
X0539899Y0058763D01*
X0542842Y0058763D01*
X0545560Y0059889D01*
X0547641Y0061970D01*
X0548768Y0064689D01*
X0548768Y0067632D01*
X0547641Y0070351D01*
X0545560Y0072432D01*
X0547313Y0070680D02*
X0590399Y0070680D01*
X0589245Y0068681D02*
X0548333Y0068681D01*
X0548768Y0066683D02*
X0588415Y0066683D01*
X0587879Y0064684D02*
X0548766Y0064684D01*
X0547938Y0062686D02*
X0587549Y0062686D01*
X0587549Y0060687D02*
X0546359Y0060687D01*
X0536382Y0060687D02*
X0509118Y0060687D01*
X0510485Y0058689D02*
X0587549Y0058689D01*
X0587549Y0056690D02*
X0511861Y0056690D01*
X0511027Y0062686D02*
X0534802Y0062686D01*
X0533974Y0064684D02*
X0513026Y0064684D01*
X0515024Y0066683D02*
X0533972Y0066683D01*
X0534407Y0068681D02*
X0517023Y0068681D01*
X0519021Y0070680D02*
X0535427Y0070680D01*
X0537774Y0072678D02*
X0521020Y0072678D01*
X0519076Y0054692D02*
X0587549Y0054692D01*
X0587549Y0052693D02*
X0521598Y0052693D01*
X0522691Y0050695D02*
X0587549Y0050695D01*
X0587549Y0048696D02*
X0523176Y0048696D01*
X0523176Y0046698D02*
X0587549Y0046698D01*
X0587549Y0044699D02*
X0522398Y0044699D01*
X0520891Y0042701D02*
X0539607Y0042701D01*
X0547071Y0042701D02*
X0587549Y0042701D01*
X0587549Y0040702D02*
X0549338Y0040702D01*
X0550325Y0038704D02*
X0587549Y0038704D01*
X0587549Y0036705D02*
X0550736Y0036705D01*
X0550711Y0034707D02*
X0587549Y0034707D01*
X0587549Y0032708D02*
X0549883Y0032708D01*
X0548271Y0030710D02*
X0587549Y0030710D01*
X0587549Y0020717D02*
X0531696Y0020717D01*
X0530553Y0018719D02*
X0587549Y0018719D01*
X0508381Y0046698D02*
X0507908Y0046698D01*
X0450622Y0098641D02*
X0450622Y0114389D01*
X0450622Y0252381D01*
X0439008Y0263995D01*
X0435743Y0260538D02*
X0403606Y0260538D01*
X0403606Y0262537D02*
X0434468Y0262537D01*
X0434255Y0264535D02*
X0403606Y0264535D01*
X0403606Y0266534D02*
X0434915Y0266534D01*
X0437542Y0268532D02*
X0403606Y0268532D01*
X0403304Y0258540D02*
X0438851Y0258540D01*
X0440849Y0256541D02*
X0401733Y0256541D01*
X0399735Y0254543D02*
X0442848Y0254543D01*
X0444846Y0252544D02*
X0397736Y0252544D01*
X0395738Y0250546D02*
X0446654Y0250546D01*
X0446654Y0248547D02*
X0393739Y0248547D01*
X0391741Y0246549D02*
X0446654Y0246549D01*
X0379921Y0226918D02*
X0379921Y0167214D01*
X0368518Y0155810D01*
X0367913Y0154352D01*
X0367913Y0119971D01*
X0367641Y0119858D01*
X0367125Y0119342D01*
X0364681Y0119342D01*
X0364681Y0114669D01*
X0364122Y0114669D01*
X0364122Y0119342D01*
X0361579Y0119342D01*
X0361071Y0119205D01*
X0360614Y0118942D01*
X0360242Y0118570D01*
X0359979Y0118114D01*
X0359843Y0117605D01*
X0359843Y0114669D01*
X0364122Y0114669D01*
X0364122Y0114109D01*
X0364681Y0114109D01*
X0364681Y0109436D01*
X0367125Y0109436D01*
X0367641Y0108920D01*
X0367913Y0108807D01*
X0367913Y0102217D01*
X0367791Y0102094D01*
X0367592Y0101614D01*
X0367577Y0101641D01*
X0367204Y0102013D01*
X0366748Y0102276D01*
X0366240Y0102413D01*
X0364402Y0102413D01*
X0364402Y0098641D01*
X0364402Y0098641D01*
X0364402Y0094869D01*
X0365387Y0094869D01*
X0364885Y0094661D01*
X0364050Y0093826D01*
X0363598Y0092735D01*
X0363598Y0088011D01*
X0364050Y0086920D01*
X0364173Y0086797D01*
X0364173Y0052637D01*
X0362489Y0054322D01*
X0359770Y0055448D01*
X0356827Y0055448D01*
X0355067Y0054719D01*
X0355067Y0055034D01*
X0353941Y0057753D01*
X0351860Y0059834D01*
X0349141Y0060960D01*
X0346198Y0060960D01*
X0343479Y0059834D01*
X0341398Y0057753D01*
X0340272Y0055034D01*
X0340272Y0052091D01*
X0341398Y0049372D01*
X0343479Y0047291D01*
X0346198Y0046165D01*
X0349141Y0046165D01*
X0350901Y0046894D01*
X0350901Y0046579D01*
X0352027Y0043860D01*
X0354108Y0041779D01*
X0356827Y0040653D01*
X0359770Y0040653D01*
X0362489Y0041779D01*
X0364173Y0043463D01*
X0364173Y0029217D01*
X0363951Y0029125D01*
X0361870Y0027044D01*
X0360744Y0024325D01*
X0360744Y0021382D01*
X0361870Y0018663D01*
X0363505Y0017029D01*
X0294039Y0017029D01*
X0295673Y0018663D01*
X0296799Y0021382D01*
X0296799Y0024325D01*
X0295673Y0027044D01*
X0293592Y0029125D01*
X0293370Y0029217D01*
X0293370Y0086405D01*
X0299297Y0086405D01*
X0299228Y0086239D01*
X0299228Y0079940D01*
X0299680Y0078849D01*
X0300181Y0078348D01*
X0300181Y0071654D01*
X0298878Y0070351D01*
X0297752Y0067632D01*
X0297752Y0064689D01*
X0298878Y0061970D01*
X0300959Y0059889D01*
X0303678Y0058763D01*
X0306621Y0058763D01*
X0309340Y0059889D01*
X0311421Y0061970D01*
X0312547Y0064689D01*
X0312547Y0067632D01*
X0311421Y0070351D01*
X0310118Y0071654D01*
X0310118Y0078348D01*
X0310619Y0078849D01*
X0311071Y0079940D01*
X0311071Y0086239D01*
X0310826Y0086830D01*
X0311071Y0087421D01*
X0311071Y0093720D01*
X0310619Y0094811D01*
X0309784Y0095646D01*
X0308693Y0096098D01*
X0301606Y0096098D01*
X0300515Y0095646D01*
X0299680Y0094811D01*
X0299486Y0094342D01*
X0296371Y0094342D01*
X0296398Y0094353D01*
X0297233Y0095188D01*
X0297685Y0096279D01*
X0297685Y0101003D01*
X0297233Y0102094D01*
X0297110Y0102217D01*
X0297110Y0108807D01*
X0297382Y0108920D01*
X0298217Y0109755D01*
X0298669Y0110846D01*
X0298669Y0117932D01*
X0298217Y0119023D01*
X0297382Y0119858D01*
X0297110Y0119971D01*
X0297110Y0183414D01*
X0302856Y0189161D01*
X0333498Y0189161D01*
X0334957Y0189765D01*
X0342831Y0197639D01*
X0343947Y0198755D01*
X0344551Y0200214D01*
X0344551Y0219044D01*
X0350259Y0224752D01*
X0359372Y0224752D01*
X0361057Y0223067D01*
X0363508Y0222052D01*
X0366161Y0222052D01*
X0368612Y0223067D01*
X0370488Y0224943D01*
X0371503Y0227394D01*
X0371503Y0230047D01*
X0370488Y0232498D01*
X0369265Y0233720D01*
X0370297Y0234752D01*
X0372088Y0234752D01*
X0379921Y0226918D01*
X0379921Y0226564D02*
X0371159Y0226564D01*
X0371503Y0228562D02*
X0378277Y0228562D01*
X0376279Y0230561D02*
X0371290Y0230561D01*
X0370427Y0232559D02*
X0374280Y0232559D01*
X0372282Y0234558D02*
X0370103Y0234558D01*
X0364835Y0228720D02*
X0348615Y0228720D01*
X0340583Y0220688D01*
X0340583Y0201003D01*
X0332709Y0193129D01*
X0301213Y0193129D01*
X0293142Y0185058D01*
X0293142Y0114389D01*
X0293142Y0098641D01*
X0297685Y0098659D02*
X0360827Y0098659D01*
X0360827Y0098641D02*
X0364401Y0098641D01*
X0364401Y0098641D01*
X0360827Y0098641D01*
X0360827Y0100676D01*
X0360963Y0101185D01*
X0361226Y0101641D01*
X0361599Y0102013D01*
X0362055Y0102276D01*
X0362563Y0102413D01*
X0364402Y0102413D01*
X0364402Y0098641D01*
X0364402Y0098641D01*
X0364402Y0114389D01*
X0364205Y0114586D01*
X0364205Y0130137D01*
X0367913Y0130635D02*
X0297110Y0130635D01*
X0297110Y0128637D02*
X0367913Y0128637D01*
X0367913Y0126638D02*
X0297110Y0126638D01*
X0297110Y0124640D02*
X0367913Y0124640D01*
X0367913Y0122641D02*
X0297110Y0122641D01*
X0297110Y0120643D02*
X0367913Y0120643D01*
X0364681Y0118644D02*
X0364122Y0118644D01*
X0364122Y0116646D02*
X0364681Y0116646D01*
X0364122Y0114647D02*
X0298669Y0114647D01*
X0298669Y0112649D02*
X0359843Y0112649D01*
X0359843Y0114109D02*
X0359843Y0111173D01*
X0359979Y0110664D01*
X0360242Y0110208D01*
X0360614Y0109836D01*
X0361071Y0109573D01*
X0361579Y0109436D01*
X0364122Y0109436D01*
X0364122Y0114109D01*
X0359843Y0114109D01*
X0359843Y0116646D02*
X0298669Y0116646D01*
X0298374Y0118644D02*
X0360316Y0118644D01*
X0364402Y0114389D02*
X0313024Y0114389D01*
X0305150Y0122263D01*
X0297110Y0132634D02*
X0367913Y0132634D01*
X0367913Y0134632D02*
X0297110Y0134632D01*
X0297110Y0136631D02*
X0367913Y0136631D01*
X0367913Y0138629D02*
X0297110Y0138629D01*
X0297110Y0140628D02*
X0367913Y0140628D01*
X0367913Y0142626D02*
X0297110Y0142626D01*
X0297110Y0144625D02*
X0367913Y0144625D01*
X0367913Y0146623D02*
X0297110Y0146623D01*
X0297110Y0148622D02*
X0367913Y0148622D01*
X0367913Y0150620D02*
X0297110Y0150620D01*
X0297110Y0152619D02*
X0367913Y0152619D01*
X0368023Y0154617D02*
X0297110Y0154617D01*
X0297110Y0156616D02*
X0369323Y0156616D01*
X0371322Y0158614D02*
X0297110Y0158614D01*
X0297110Y0160613D02*
X0373320Y0160613D01*
X0375319Y0162611D02*
X0297110Y0162611D01*
X0297110Y0164610D02*
X0377317Y0164610D01*
X0379316Y0166608D02*
X0297110Y0166608D01*
X0297110Y0168607D02*
X0379921Y0168607D01*
X0379921Y0170605D02*
X0297110Y0170605D01*
X0297110Y0172604D02*
X0379921Y0172604D01*
X0379921Y0174602D02*
X0297110Y0174602D01*
X0297110Y0176601D02*
X0379921Y0176601D01*
X0379921Y0178599D02*
X0297110Y0178599D01*
X0297110Y0180598D02*
X0379921Y0180598D01*
X0379921Y0182596D02*
X0297110Y0182596D01*
X0298291Y0184595D02*
X0379921Y0184595D01*
X0379921Y0186593D02*
X0300289Y0186593D01*
X0302288Y0188592D02*
X0379921Y0188592D01*
X0379921Y0190590D02*
X0335782Y0190590D01*
X0337781Y0192589D02*
X0379921Y0192589D01*
X0379921Y0194588D02*
X0339779Y0194588D01*
X0341778Y0196586D02*
X0379921Y0196586D01*
X0379921Y0198585D02*
X0343776Y0198585D01*
X0344551Y0200583D02*
X0379921Y0200583D01*
X0379921Y0202582D02*
X0344551Y0202582D01*
X0344551Y0204580D02*
X0379921Y0204580D01*
X0379921Y0206579D02*
X0344551Y0206579D01*
X0344551Y0208577D02*
X0379921Y0208577D01*
X0379921Y0210576D02*
X0344551Y0210576D01*
X0344551Y0212574D02*
X0379921Y0212574D01*
X0379921Y0214573D02*
X0344551Y0214573D01*
X0344551Y0216571D02*
X0379921Y0216571D01*
X0379921Y0218570D02*
X0344551Y0218570D01*
X0346075Y0220568D02*
X0379921Y0220568D01*
X0379921Y0222567D02*
X0367404Y0222567D01*
X0370110Y0224565D02*
X0379921Y0224565D01*
X0362266Y0222567D02*
X0348073Y0222567D01*
X0350072Y0224565D02*
X0359559Y0224565D01*
X0347512Y0232559D02*
X0290427Y0232559D01*
X0291290Y0230561D02*
X0344843Y0230561D01*
X0342844Y0228562D02*
X0291503Y0228562D01*
X0291159Y0226564D02*
X0340846Y0226564D01*
X0338847Y0224565D02*
X0290110Y0224565D01*
X0287404Y0222567D02*
X0337065Y0222567D01*
X0336614Y0220568D02*
X0227965Y0220568D01*
X0229963Y0222567D02*
X0282266Y0222567D01*
X0279559Y0224565D02*
X0231962Y0224565D01*
X0230505Y0228720D02*
X0214402Y0212617D01*
X0214402Y0114389D01*
X0214402Y0098641D01*
X0218945Y0098659D02*
X0282087Y0098659D01*
X0282087Y0096660D02*
X0218945Y0096660D01*
X0218945Y0096279D02*
X0218945Y0101003D01*
X0218370Y0102656D02*
X0289173Y0102656D01*
X0289173Y0104655D02*
X0218370Y0104655D01*
X0218370Y0106653D02*
X0289173Y0106653D01*
X0289173Y0108652D02*
X0218370Y0108652D01*
X0219848Y0110650D02*
X0281247Y0110650D01*
X0281239Y0110664D02*
X0281502Y0110208D01*
X0281874Y0109836D01*
X0282330Y0109573D01*
X0282839Y0109436D01*
X0285382Y0109436D01*
X0285382Y0114109D01*
X0281102Y0114109D01*
X0281102Y0111173D01*
X0281239Y0110664D01*
X0281102Y0112649D02*
X0219929Y0112649D01*
X0219929Y0114647D02*
X0285382Y0114647D01*
X0285465Y0114586D02*
X0285661Y0114389D01*
X0285661Y0098641D01*
X0285661Y0094869D01*
X0286647Y0094869D01*
X0286145Y0094661D01*
X0285310Y0093826D01*
X0284858Y0092735D01*
X0284858Y0088011D01*
X0285310Y0086920D01*
X0285433Y0086797D01*
X0285433Y0052637D01*
X0283749Y0054322D01*
X0281030Y0055448D01*
X0278087Y0055448D01*
X0276327Y0054719D01*
X0276327Y0055034D01*
X0275201Y0057753D01*
X0273120Y0059834D01*
X0270401Y0060960D01*
X0267458Y0060960D01*
X0264739Y0059834D01*
X0262658Y0057753D01*
X0261531Y0055034D01*
X0261531Y0052091D01*
X0262658Y0049372D01*
X0264739Y0047291D01*
X0267458Y0046165D01*
X0270401Y0046165D01*
X0272161Y0046894D01*
X0272161Y0046579D01*
X0273287Y0043860D01*
X0275368Y0041779D01*
X0278087Y0040653D01*
X0281030Y0040653D01*
X0283749Y0041779D01*
X0285433Y0043463D01*
X0285433Y0029217D01*
X0285211Y0029125D01*
X0283130Y0027044D01*
X0282004Y0024325D01*
X0282004Y0021382D01*
X0283130Y0018663D01*
X0284765Y0017029D01*
X0215298Y0017029D01*
X0216933Y0018663D01*
X0218059Y0021382D01*
X0218059Y0024325D01*
X0216933Y0027044D01*
X0214852Y0029125D01*
X0214630Y0029217D01*
X0214630Y0086405D01*
X0220557Y0086405D01*
X0220488Y0086239D01*
X0220488Y0079940D01*
X0220940Y0078849D01*
X0221441Y0078348D01*
X0221441Y0071654D01*
X0220138Y0070351D01*
X0219012Y0067632D01*
X0219012Y0064689D01*
X0220138Y0061970D01*
X0222219Y0059889D01*
X0224938Y0058763D01*
X0227881Y0058763D01*
X0230600Y0059889D01*
X0232681Y0061970D01*
X0233807Y0064689D01*
X0233807Y0067632D01*
X0232681Y0070351D01*
X0231378Y0071654D01*
X0231378Y0078348D01*
X0231879Y0078849D01*
X0232331Y0079940D01*
X0232331Y0086239D01*
X0232086Y0086830D01*
X0232331Y0087421D01*
X0232331Y0093720D01*
X0231879Y0094811D01*
X0231044Y0095646D01*
X0229953Y0096098D01*
X0222866Y0096098D01*
X0221775Y0095646D01*
X0220940Y0094811D01*
X0220746Y0094342D01*
X0217631Y0094342D01*
X0217658Y0094353D01*
X0218493Y0095188D01*
X0218945Y0096279D01*
X0217967Y0094662D02*
X0220879Y0094662D01*
X0226213Y0090373D02*
X0226409Y0090570D01*
X0226213Y0090373D02*
X0210661Y0090373D01*
X0210661Y0022854D01*
X0203264Y0022716D02*
X0139319Y0022716D01*
X0139319Y0021382D02*
X0139319Y0024325D01*
X0138193Y0027044D01*
X0136112Y0029125D01*
X0135890Y0029217D01*
X0135890Y0086602D01*
X0141898Y0086602D01*
X0141748Y0086239D01*
X0141748Y0079940D01*
X0142200Y0078849D01*
X0142701Y0078348D01*
X0142701Y0071654D01*
X0141398Y0070351D01*
X0140272Y0067632D01*
X0140272Y0064689D01*
X0141398Y0061970D01*
X0143479Y0059889D01*
X0146198Y0058763D01*
X0149141Y0058763D01*
X0151860Y0059889D01*
X0153941Y0061970D01*
X0155067Y0064689D01*
X0155067Y0067632D01*
X0153941Y0070351D01*
X0152638Y0071654D01*
X0152638Y0078348D01*
X0153139Y0078849D01*
X0153591Y0079940D01*
X0153591Y0086239D01*
X0153346Y0086830D01*
X0153591Y0087421D01*
X0153591Y0093720D01*
X0153139Y0094811D01*
X0152304Y0095646D01*
X0151213Y0096098D01*
X0144126Y0096098D01*
X0143035Y0095646D01*
X0142200Y0094811D01*
X0142087Y0094539D01*
X0139104Y0094539D01*
X0139753Y0095188D01*
X0140205Y0096279D01*
X0140205Y0101003D01*
X0139753Y0102094D01*
X0139630Y0102217D01*
X0139630Y0108807D01*
X0139902Y0108920D01*
X0140737Y0109755D01*
X0141189Y0110846D01*
X0141189Y0117932D01*
X0140737Y0119023D01*
X0139902Y0119858D01*
X0139630Y0119971D01*
X0139630Y0210974D01*
X0163408Y0234752D01*
X0279372Y0234752D01*
X0280404Y0233720D01*
X0279372Y0232689D01*
X0229715Y0232689D01*
X0228257Y0232085D01*
X0211037Y0214865D01*
X0210433Y0213407D01*
X0210433Y0119971D01*
X0210161Y0119858D01*
X0209644Y0119342D01*
X0207201Y0119342D01*
X0207201Y0114669D01*
X0206642Y0114669D01*
X0206642Y0119342D01*
X0204099Y0119342D01*
X0203590Y0119205D01*
X0203134Y0118942D01*
X0202762Y0118570D01*
X0202498Y0118114D01*
X0202362Y0117605D01*
X0202362Y0114669D01*
X0206642Y0114669D01*
X0206642Y0114109D01*
X0207201Y0114109D01*
X0207201Y0109436D01*
X0209644Y0109436D01*
X0210161Y0108920D01*
X0210433Y0108807D01*
X0210433Y0102217D01*
X0210310Y0102094D01*
X0210112Y0101614D01*
X0210096Y0101641D01*
X0209724Y0102013D01*
X0209268Y0102276D01*
X0208759Y0102413D01*
X0206921Y0102413D01*
X0205083Y0102413D01*
X0204574Y0102276D01*
X0204118Y0102013D01*
X0203746Y0101641D01*
X0203483Y0101185D01*
X0203346Y0100676D01*
X0203346Y0098641D01*
X0206921Y0098641D01*
X0206921Y0098641D01*
X0203346Y0098641D01*
X0203346Y0096606D01*
X0203483Y0096097D01*
X0203746Y0095641D01*
X0204118Y0095269D01*
X0204574Y0095006D01*
X0205083Y0094869D01*
X0206921Y0094869D01*
X0206921Y0098641D01*
X0206921Y0102413D01*
X0206921Y0098641D01*
X0206921Y0098641D01*
X0206921Y0098641D01*
X0206921Y0114389D01*
X0206724Y0114586D01*
X0206724Y0126200D01*
X0210433Y0126638D02*
X0139630Y0126638D01*
X0139630Y0124640D02*
X0210433Y0124640D01*
X0210433Y0122641D02*
X0139630Y0122641D01*
X0139630Y0120643D02*
X0210433Y0120643D01*
X0207201Y0118644D02*
X0206642Y0118644D01*
X0206642Y0116646D02*
X0207201Y0116646D01*
X0206642Y0114647D02*
X0141189Y0114647D01*
X0141189Y0112649D02*
X0202362Y0112649D01*
X0202362Y0114109D02*
X0202362Y0111173D01*
X0202498Y0110664D01*
X0202762Y0110208D01*
X0203134Y0109836D01*
X0203590Y0109573D01*
X0204099Y0109436D01*
X0206642Y0109436D01*
X0206642Y0114109D01*
X0202362Y0114109D01*
X0202362Y0116646D02*
X0141189Y0116646D01*
X0140894Y0118644D02*
X0202836Y0118644D01*
X0206642Y0112649D02*
X0207201Y0112649D01*
X0207201Y0110650D02*
X0206642Y0110650D01*
X0202507Y0110650D02*
X0141108Y0110650D01*
X0139630Y0108652D02*
X0210433Y0108652D01*
X0210433Y0106653D02*
X0139630Y0106653D01*
X0139630Y0104655D02*
X0210433Y0104655D01*
X0210433Y0102656D02*
X0139630Y0102656D01*
X0140205Y0100657D02*
X0203346Y0100657D01*
X0203346Y0098659D02*
X0140205Y0098659D01*
X0140205Y0096660D02*
X0203346Y0096660D01*
X0206921Y0096660D02*
X0206921Y0096660D01*
X0206921Y0094869D02*
X0206921Y0098641D01*
X0206921Y0098659D02*
X0206921Y0098659D01*
X0206921Y0100657D02*
X0206921Y0100657D01*
X0206921Y0094869D02*
X0207907Y0094869D01*
X0207405Y0094661D01*
X0206570Y0093826D01*
X0206118Y0092735D01*
X0206118Y0088011D01*
X0206570Y0086920D01*
X0206693Y0086797D01*
X0206693Y0052637D01*
X0205009Y0054322D01*
X0202290Y0055448D01*
X0199347Y0055448D01*
X0197587Y0054719D01*
X0197587Y0055034D01*
X0196460Y0057753D01*
X0194379Y0059834D01*
X0191660Y0060960D01*
X0188717Y0060960D01*
X0185999Y0059834D01*
X0183918Y0057753D01*
X0182791Y0055034D01*
X0182791Y0052091D01*
X0183918Y0049372D01*
X0185999Y0047291D01*
X0188717Y0046165D01*
X0191660Y0046165D01*
X0193421Y0046894D01*
X0193421Y0046579D01*
X0194547Y0043860D01*
X0196628Y0041779D01*
X0199347Y0040653D01*
X0202290Y0040653D01*
X0205009Y0041779D01*
X0206693Y0043463D01*
X0206693Y0029217D01*
X0206471Y0029125D01*
X0204390Y0027044D01*
X0203264Y0024325D01*
X0203264Y0021382D01*
X0204390Y0018663D01*
X0206024Y0017029D01*
X0136558Y0017029D01*
X0138193Y0018663D01*
X0139319Y0021382D01*
X0139043Y0020717D02*
X0203539Y0020717D01*
X0204367Y0018719D02*
X0138216Y0018719D01*
X0139158Y0024714D02*
X0203425Y0024714D01*
X0204253Y0026713D02*
X0138330Y0026713D01*
X0136526Y0028711D02*
X0206057Y0028711D01*
X0206693Y0030710D02*
X0154570Y0030710D01*
X0153828Y0029968D02*
X0155909Y0032049D01*
X0157035Y0034768D01*
X0157035Y0037711D01*
X0155909Y0040430D01*
X0153828Y0042511D01*
X0151109Y0043637D01*
X0148166Y0043637D01*
X0145447Y0042511D01*
X0143366Y0040430D01*
X0142240Y0037711D01*
X0142240Y0034768D01*
X0143366Y0032049D01*
X0145447Y0029968D01*
X0148166Y0028842D01*
X0151109Y0028842D01*
X0153828Y0029968D01*
X0156182Y0032708D02*
X0206693Y0032708D01*
X0206693Y0034707D02*
X0157010Y0034707D01*
X0157035Y0036705D02*
X0206693Y0036705D01*
X0206693Y0038704D02*
X0156624Y0038704D01*
X0155637Y0040702D02*
X0199227Y0040702D01*
X0202409Y0040702D02*
X0206693Y0040702D01*
X0206693Y0042701D02*
X0205930Y0042701D01*
X0214630Y0042701D02*
X0224646Y0042701D01*
X0224188Y0042511D02*
X0222107Y0040430D01*
X0220980Y0037711D01*
X0220980Y0034768D01*
X0222107Y0032049D01*
X0224188Y0029968D01*
X0226906Y0028842D01*
X0229849Y0028842D01*
X0232568Y0029968D01*
X0234649Y0032049D01*
X0235776Y0034768D01*
X0235776Y0037711D01*
X0234649Y0040430D01*
X0232568Y0042511D01*
X0229849Y0043637D01*
X0226906Y0043637D01*
X0224188Y0042511D01*
X0222379Y0040702D02*
X0214630Y0040702D01*
X0214630Y0038704D02*
X0221392Y0038704D01*
X0220980Y0036705D02*
X0214630Y0036705D01*
X0214630Y0034707D02*
X0221006Y0034707D01*
X0221834Y0032708D02*
X0214630Y0032708D01*
X0214630Y0030710D02*
X0223446Y0030710D01*
X0217070Y0026713D02*
X0282993Y0026713D01*
X0282165Y0024714D02*
X0217898Y0024714D01*
X0218059Y0022716D02*
X0282004Y0022716D01*
X0282279Y0020717D02*
X0217784Y0020717D01*
X0216956Y0018719D02*
X0283107Y0018719D01*
X0289402Y0022854D02*
X0289402Y0090373D01*
X0304953Y0090373D01*
X0305150Y0090570D01*
X0311071Y0090665D02*
X0363598Y0090665D01*
X0363598Y0092663D02*
X0311071Y0092663D01*
X0310681Y0094662D02*
X0364887Y0094662D01*
X0364402Y0094869D02*
X0364402Y0098641D01*
X0364402Y0098659D02*
X0364402Y0098659D01*
X0364402Y0100657D02*
X0364402Y0100657D01*
X0360827Y0100657D02*
X0297685Y0100657D01*
X0297110Y0102656D02*
X0367913Y0102656D01*
X0367913Y0104655D02*
X0297110Y0104655D01*
X0297110Y0106653D02*
X0367913Y0106653D01*
X0367913Y0108652D02*
X0297110Y0108652D01*
X0298588Y0110650D02*
X0359987Y0110650D01*
X0364122Y0110650D02*
X0364681Y0110650D01*
X0364681Y0112649D02*
X0364122Y0112649D01*
X0375850Y0108652D02*
X0446654Y0108652D01*
X0446654Y0106653D02*
X0375850Y0106653D01*
X0375850Y0104655D02*
X0446654Y0104655D01*
X0446654Y0102656D02*
X0375850Y0102656D01*
X0376425Y0100657D02*
X0439567Y0100657D01*
X0443142Y0100657D02*
X0443142Y0100657D01*
X0443142Y0098659D02*
X0443142Y0098659D01*
X0443142Y0098641D02*
X0443142Y0098641D01*
X0377969Y0084669D02*
X0372110Y0084669D01*
X0372110Y0082671D02*
X0377969Y0082671D01*
X0377969Y0080672D02*
X0372110Y0080672D01*
X0372110Y0078674D02*
X0378596Y0078674D01*
X0378921Y0076675D02*
X0372110Y0076675D01*
X0372110Y0074677D02*
X0378921Y0074677D01*
X0378921Y0072678D02*
X0372110Y0072678D01*
X0372110Y0070680D02*
X0377947Y0070680D01*
X0376927Y0068681D02*
X0372110Y0068681D01*
X0372110Y0066683D02*
X0376492Y0066683D01*
X0376494Y0064684D02*
X0372110Y0064684D01*
X0372110Y0062686D02*
X0377322Y0062686D01*
X0378901Y0060687D02*
X0372110Y0060687D01*
X0364173Y0060687D02*
X0349799Y0060687D01*
X0353005Y0058689D02*
X0364173Y0058689D01*
X0364173Y0056690D02*
X0354381Y0056690D01*
X0361596Y0054692D02*
X0364173Y0054692D01*
X0364118Y0052693D02*
X0364173Y0052693D01*
X0364173Y0042701D02*
X0363411Y0042701D01*
X0364173Y0040702D02*
X0359889Y0040702D01*
X0356708Y0040702D02*
X0313117Y0040702D01*
X0313390Y0040430D02*
X0311309Y0042511D01*
X0308590Y0043637D01*
X0305647Y0043637D01*
X0302928Y0042511D01*
X0300847Y0040430D01*
X0299720Y0037711D01*
X0299720Y0034768D01*
X0300847Y0032049D01*
X0302928Y0029968D01*
X0305647Y0028842D01*
X0308590Y0028842D01*
X0311309Y0029968D01*
X0313390Y0032049D01*
X0314516Y0034768D01*
X0314516Y0037711D01*
X0313390Y0040430D01*
X0314105Y0038704D02*
X0364173Y0038704D01*
X0364173Y0036705D02*
X0314516Y0036705D01*
X0314490Y0034707D02*
X0364173Y0034707D01*
X0364173Y0032708D02*
X0313663Y0032708D01*
X0312050Y0030710D02*
X0364173Y0030710D01*
X0363537Y0028711D02*
X0294006Y0028711D01*
X0293370Y0030710D02*
X0302186Y0030710D01*
X0300574Y0032708D02*
X0293370Y0032708D01*
X0293370Y0034707D02*
X0299746Y0034707D01*
X0299720Y0036705D02*
X0293370Y0036705D01*
X0293370Y0038704D02*
X0300132Y0038704D01*
X0301119Y0040702D02*
X0293370Y0040702D01*
X0293370Y0042701D02*
X0303386Y0042701D01*
X0293370Y0044699D02*
X0351679Y0044699D01*
X0350901Y0046698D02*
X0350428Y0046698D01*
X0353186Y0042701D02*
X0310850Y0042701D01*
X0293370Y0046698D02*
X0344911Y0046698D01*
X0342073Y0048696D02*
X0293370Y0048696D01*
X0293370Y0050695D02*
X0340850Y0050695D01*
X0340272Y0052693D02*
X0293370Y0052693D01*
X0293370Y0054692D02*
X0340272Y0054692D01*
X0340958Y0056690D02*
X0293370Y0056690D01*
X0293370Y0058689D02*
X0342334Y0058689D01*
X0345540Y0060687D02*
X0310138Y0060687D01*
X0311717Y0062686D02*
X0364173Y0062686D01*
X0364173Y0064684D02*
X0312545Y0064684D01*
X0312547Y0066683D02*
X0364173Y0066683D01*
X0364173Y0068681D02*
X0312113Y0068681D01*
X0311092Y0070680D02*
X0364173Y0070680D01*
X0364173Y0072678D02*
X0310118Y0072678D01*
X0310118Y0074677D02*
X0364173Y0074677D01*
X0364173Y0076675D02*
X0310118Y0076675D01*
X0310444Y0078674D02*
X0364173Y0078674D01*
X0364173Y0080672D02*
X0311071Y0080672D01*
X0311071Y0082671D02*
X0364173Y0082671D01*
X0364173Y0084669D02*
X0311071Y0084669D01*
X0310893Y0086668D02*
X0364173Y0086668D01*
X0363598Y0088666D02*
X0311071Y0088666D01*
X0299228Y0084669D02*
X0293370Y0084669D01*
X0293370Y0082671D02*
X0299228Y0082671D01*
X0299228Y0080672D02*
X0293370Y0080672D01*
X0293370Y0078674D02*
X0299856Y0078674D01*
X0300181Y0076675D02*
X0293370Y0076675D01*
X0293370Y0074677D02*
X0300181Y0074677D01*
X0300181Y0072678D02*
X0293370Y0072678D01*
X0293370Y0070680D02*
X0299207Y0070680D01*
X0298187Y0068681D02*
X0293370Y0068681D01*
X0293370Y0066683D02*
X0297752Y0066683D01*
X0297754Y0064684D02*
X0293370Y0064684D01*
X0293370Y0062686D02*
X0298582Y0062686D01*
X0300161Y0060687D02*
X0293370Y0060687D01*
X0285433Y0060687D02*
X0271059Y0060687D01*
X0274264Y0058689D02*
X0285433Y0058689D01*
X0285433Y0056690D02*
X0275641Y0056690D01*
X0282856Y0054692D02*
X0285433Y0054692D01*
X0285377Y0052693D02*
X0285433Y0052693D01*
X0285433Y0042701D02*
X0284670Y0042701D01*
X0285433Y0040702D02*
X0281149Y0040702D01*
X0277968Y0040702D02*
X0234377Y0040702D01*
X0235364Y0038704D02*
X0285433Y0038704D01*
X0285433Y0036705D02*
X0235776Y0036705D01*
X0235750Y0034707D02*
X0285433Y0034707D01*
X0285433Y0032708D02*
X0234922Y0032708D01*
X0233310Y0030710D02*
X0285433Y0030710D01*
X0284797Y0028711D02*
X0215266Y0028711D01*
X0214630Y0044699D02*
X0272939Y0044699D01*
X0272161Y0046698D02*
X0271688Y0046698D01*
X0274446Y0042701D02*
X0232110Y0042701D01*
X0214630Y0046698D02*
X0266171Y0046698D01*
X0263333Y0048696D02*
X0214630Y0048696D01*
X0214630Y0050695D02*
X0262110Y0050695D01*
X0261531Y0052693D02*
X0214630Y0052693D01*
X0214630Y0054692D02*
X0261531Y0054692D01*
X0262218Y0056690D02*
X0214630Y0056690D01*
X0214630Y0058689D02*
X0263594Y0058689D01*
X0266800Y0060687D02*
X0231398Y0060687D01*
X0232977Y0062686D02*
X0285433Y0062686D01*
X0285433Y0064684D02*
X0233805Y0064684D01*
X0233807Y0066683D02*
X0285433Y0066683D01*
X0285433Y0068681D02*
X0233372Y0068681D01*
X0232352Y0070680D02*
X0285433Y0070680D01*
X0285433Y0072678D02*
X0231378Y0072678D01*
X0231378Y0074677D02*
X0285433Y0074677D01*
X0285433Y0076675D02*
X0231378Y0076675D01*
X0231703Y0078674D02*
X0285433Y0078674D01*
X0285433Y0080672D02*
X0232331Y0080672D01*
X0232331Y0082671D02*
X0285433Y0082671D01*
X0285433Y0084669D02*
X0232331Y0084669D01*
X0232153Y0086668D02*
X0285433Y0086668D01*
X0284858Y0088666D02*
X0232331Y0088666D01*
X0232331Y0090665D02*
X0284858Y0090665D01*
X0284858Y0092663D02*
X0232331Y0092663D01*
X0231940Y0094662D02*
X0286146Y0094662D01*
X0285661Y0096660D02*
X0285661Y0096660D01*
X0285661Y0098659D02*
X0285661Y0098659D01*
X0285661Y0100657D02*
X0285661Y0100657D01*
X0285382Y0110650D02*
X0285941Y0110650D01*
X0285941Y0112649D02*
X0285382Y0112649D01*
X0285465Y0114586D02*
X0285465Y0130137D01*
X0289173Y0130635D02*
X0218370Y0130635D01*
X0218370Y0128637D02*
X0289173Y0128637D01*
X0289173Y0126638D02*
X0218370Y0126638D01*
X0218370Y0124640D02*
X0289173Y0124640D01*
X0289173Y0122641D02*
X0218370Y0122641D01*
X0218370Y0120643D02*
X0289173Y0120643D01*
X0285941Y0118644D02*
X0285382Y0118644D01*
X0285382Y0116646D02*
X0285941Y0116646D01*
X0281576Y0118644D02*
X0219634Y0118644D01*
X0219929Y0116646D02*
X0281102Y0116646D01*
X0289173Y0132634D02*
X0218370Y0132634D01*
X0218370Y0134632D02*
X0289173Y0134632D01*
X0289173Y0136631D02*
X0218370Y0136631D01*
X0218370Y0138629D02*
X0289173Y0138629D01*
X0289173Y0140628D02*
X0218370Y0140628D01*
X0218370Y0142626D02*
X0289173Y0142626D01*
X0289173Y0144625D02*
X0218370Y0144625D01*
X0218370Y0146623D02*
X0289173Y0146623D01*
X0289173Y0148622D02*
X0218370Y0148622D01*
X0218370Y0150620D02*
X0289173Y0150620D01*
X0289173Y0152619D02*
X0218370Y0152619D01*
X0218370Y0154617D02*
X0289173Y0154617D01*
X0289173Y0156616D02*
X0218370Y0156616D01*
X0218370Y0158614D02*
X0289173Y0158614D01*
X0289173Y0160613D02*
X0218370Y0160613D01*
X0218370Y0162611D02*
X0289173Y0162611D01*
X0289173Y0164610D02*
X0218370Y0164610D01*
X0218370Y0166608D02*
X0289173Y0166608D01*
X0289173Y0168607D02*
X0218370Y0168607D01*
X0218370Y0170605D02*
X0289173Y0170605D01*
X0289173Y0172604D02*
X0218370Y0172604D01*
X0218370Y0174602D02*
X0289173Y0174602D01*
X0289173Y0176601D02*
X0218370Y0176601D01*
X0218370Y0178599D02*
X0289173Y0178599D01*
X0289173Y0180598D02*
X0218370Y0180598D01*
X0218370Y0182596D02*
X0289173Y0182596D01*
X0289173Y0184595D02*
X0218370Y0184595D01*
X0218370Y0186593D02*
X0289482Y0186593D01*
X0291063Y0188592D02*
X0218370Y0188592D01*
X0218370Y0190590D02*
X0293062Y0190590D01*
X0295060Y0192589D02*
X0218370Y0192589D01*
X0218370Y0194588D02*
X0297059Y0194588D01*
X0299188Y0196586D02*
X0218370Y0196586D01*
X0218370Y0198585D02*
X0332552Y0198585D01*
X0334550Y0200583D02*
X0218370Y0200583D01*
X0218370Y0202582D02*
X0336549Y0202582D01*
X0336614Y0204580D02*
X0218370Y0204580D01*
X0218370Y0206579D02*
X0336614Y0206579D01*
X0336614Y0208577D02*
X0218370Y0208577D01*
X0218370Y0210576D02*
X0336614Y0210576D01*
X0336614Y0212574D02*
X0219971Y0212574D01*
X0221969Y0214573D02*
X0336614Y0214573D01*
X0336614Y0216571D02*
X0223968Y0216571D01*
X0225966Y0218570D02*
X0336614Y0218570D01*
X0358516Y0246549D02*
X0291153Y0246549D01*
X0284835Y0238720D02*
X0161765Y0238720D01*
X0135661Y0212617D01*
X0135661Y0114389D01*
X0135661Y0098641D01*
X0131371Y0101614D02*
X0131356Y0101641D01*
X0130984Y0102013D01*
X0130528Y0102276D01*
X0130019Y0102413D01*
X0128181Y0102413D01*
X0126343Y0102413D01*
X0125834Y0102276D01*
X0125378Y0102013D01*
X0125006Y0101641D01*
X0124743Y0101185D01*
X0124606Y0100676D01*
X0124606Y0098641D01*
X0128181Y0098641D01*
X0128181Y0098641D01*
X0128181Y0102413D01*
X0128181Y0098641D01*
X0128181Y0098641D01*
X0124047Y0098641D01*
X0120110Y0102578D01*
X0115417Y0102656D02*
X0131693Y0102656D01*
X0131693Y0102217D02*
X0131570Y0102094D01*
X0131371Y0101614D01*
X0131693Y0102217D02*
X0131693Y0108807D01*
X0131421Y0108920D01*
X0130904Y0109436D01*
X0128461Y0109436D01*
X0128461Y0114109D01*
X0127902Y0114109D01*
X0127902Y0109436D01*
X0125359Y0109436D01*
X0124850Y0109573D01*
X0124394Y0109836D01*
X0124022Y0110208D01*
X0123758Y0110664D01*
X0123622Y0111173D01*
X0123622Y0114109D01*
X0127901Y0114109D01*
X0127901Y0114669D01*
X0123622Y0114669D01*
X0123622Y0117605D01*
X0123758Y0118114D01*
X0124022Y0118570D01*
X0124394Y0118942D01*
X0124850Y0119205D01*
X0125359Y0119342D01*
X0127902Y0119342D01*
X0127902Y0114669D01*
X0128461Y0114669D01*
X0128461Y0119342D01*
X0130904Y0119342D01*
X0131421Y0119858D01*
X0131693Y0119971D01*
X0131693Y0134998D01*
X0130676Y0133982D01*
X0128930Y0133258D01*
X0127039Y0133258D01*
X0125292Y0133982D01*
X0124863Y0134411D01*
X0124863Y0133129D01*
X0124139Y0131382D01*
X0122802Y0130045D01*
X0121056Y0129321D01*
X0119165Y0129321D01*
X0117418Y0130045D01*
X0116081Y0131382D01*
X0115417Y0132984D01*
X0115417Y0059926D01*
X0115639Y0059834D01*
X0117720Y0057753D01*
X0118846Y0055034D01*
X0118846Y0054719D01*
X0120607Y0055448D01*
X0123550Y0055448D01*
X0126268Y0054322D01*
X0127953Y0052637D01*
X0127953Y0086797D01*
X0127830Y0086920D01*
X0127378Y0088011D01*
X0127378Y0092735D01*
X0127830Y0093826D01*
X0128665Y0094661D01*
X0129167Y0094869D01*
X0128181Y0094869D01*
X0128181Y0098641D01*
X0128181Y0114389D01*
X0127901Y0114647D02*
X0115417Y0114647D01*
X0115417Y0112649D02*
X0123622Y0112649D01*
X0123767Y0110650D02*
X0115417Y0110650D01*
X0115417Y0108652D02*
X0131693Y0108652D01*
X0131693Y0106653D02*
X0115417Y0106653D01*
X0115417Y0104655D02*
X0131693Y0104655D01*
X0128181Y0100657D02*
X0128181Y0100657D01*
X0128181Y0098659D02*
X0128181Y0098659D01*
X0128181Y0098641D02*
X0124606Y0098641D01*
X0124606Y0096606D01*
X0124743Y0096097D01*
X0125006Y0095641D01*
X0125378Y0095269D01*
X0125834Y0095006D01*
X0126343Y0094869D01*
X0128181Y0094869D01*
X0128181Y0098641D01*
X0128181Y0098641D01*
X0128181Y0096660D02*
X0128181Y0096660D01*
X0128666Y0094662D02*
X0115417Y0094662D01*
X0115417Y0096660D02*
X0124606Y0096660D01*
X0124606Y0098659D02*
X0115417Y0098659D01*
X0115417Y0100657D02*
X0124606Y0100657D01*
X0127378Y0092663D02*
X0115417Y0092663D01*
X0115417Y0090665D02*
X0127378Y0090665D01*
X0127378Y0088666D02*
X0115417Y0088666D01*
X0115417Y0086668D02*
X0127953Y0086668D01*
X0127953Y0084669D02*
X0115417Y0084669D01*
X0115417Y0082671D02*
X0127953Y0082671D01*
X0127953Y0080672D02*
X0115417Y0080672D01*
X0115417Y0078674D02*
X0127953Y0078674D01*
X0127953Y0076675D02*
X0115417Y0076675D01*
X0115417Y0074677D02*
X0127953Y0074677D01*
X0127953Y0072678D02*
X0115417Y0072678D01*
X0115417Y0070680D02*
X0127953Y0070680D01*
X0127953Y0068681D02*
X0115417Y0068681D01*
X0115417Y0066683D02*
X0127953Y0066683D01*
X0127953Y0064684D02*
X0115417Y0064684D01*
X0115417Y0062686D02*
X0127953Y0062686D01*
X0127953Y0060687D02*
X0115417Y0060687D01*
X0116784Y0058689D02*
X0127953Y0058689D01*
X0127953Y0056690D02*
X0118160Y0056690D01*
X0111449Y0053562D02*
X0111449Y0247460D01*
X0139795Y0275806D01*
X0143732Y0267932D02*
X0246094Y0267932D01*
X0276883Y0298720D01*
X0284835Y0298720D01*
X0284835Y0288720D02*
X0278694Y0288720D01*
X0250031Y0260058D01*
X0147669Y0260058D01*
X0127984Y0240373D01*
X0127984Y0138011D01*
X0131327Y0134632D02*
X0131693Y0134632D01*
X0131693Y0132634D02*
X0124658Y0132634D01*
X0123393Y0130635D02*
X0131693Y0130635D01*
X0131693Y0128637D02*
X0115417Y0128637D01*
X0115417Y0130635D02*
X0116828Y0130635D01*
X0115562Y0132634D02*
X0115417Y0132634D01*
X0120110Y0134074D02*
X0120110Y0244310D01*
X0143732Y0267932D01*
X0163214Y0234558D02*
X0279567Y0234558D01*
X0284835Y0228720D02*
X0230505Y0228720D01*
X0229402Y0232559D02*
X0161216Y0232559D01*
X0159217Y0230561D02*
X0226733Y0230561D01*
X0224734Y0228562D02*
X0157219Y0228562D01*
X0155220Y0226564D02*
X0222736Y0226564D01*
X0220737Y0224565D02*
X0153222Y0224565D01*
X0151223Y0222567D02*
X0218739Y0222567D01*
X0216740Y0220568D02*
X0149225Y0220568D01*
X0147226Y0218570D02*
X0214742Y0218570D01*
X0212743Y0216571D02*
X0145228Y0216571D01*
X0143229Y0214573D02*
X0210916Y0214573D01*
X0210433Y0212574D02*
X0141231Y0212574D01*
X0139630Y0210576D02*
X0210433Y0210576D01*
X0210433Y0208577D02*
X0139630Y0208577D01*
X0139630Y0206579D02*
X0210433Y0206579D01*
X0210433Y0204580D02*
X0139630Y0204580D01*
X0139630Y0202582D02*
X0210433Y0202582D01*
X0210433Y0200583D02*
X0139630Y0200583D01*
X0139630Y0198585D02*
X0210433Y0198585D01*
X0210433Y0196586D02*
X0139630Y0196586D01*
X0139630Y0194588D02*
X0210433Y0194588D01*
X0210433Y0192589D02*
X0139630Y0192589D01*
X0139630Y0190590D02*
X0210433Y0190590D01*
X0210433Y0188592D02*
X0139630Y0188592D01*
X0139630Y0186593D02*
X0210433Y0186593D01*
X0210433Y0184595D02*
X0139630Y0184595D01*
X0139630Y0182596D02*
X0210433Y0182596D01*
X0210433Y0180598D02*
X0139630Y0180598D01*
X0139630Y0178599D02*
X0210433Y0178599D01*
X0210433Y0176601D02*
X0139630Y0176601D01*
X0139630Y0174602D02*
X0210433Y0174602D01*
X0210433Y0172604D02*
X0139630Y0172604D01*
X0139630Y0170605D02*
X0210433Y0170605D01*
X0210433Y0168607D02*
X0139630Y0168607D01*
X0139630Y0166608D02*
X0210433Y0166608D01*
X0210433Y0164610D02*
X0139630Y0164610D01*
X0139630Y0162611D02*
X0210433Y0162611D01*
X0210433Y0160613D02*
X0139630Y0160613D01*
X0139630Y0158614D02*
X0210433Y0158614D01*
X0210433Y0156616D02*
X0139630Y0156616D01*
X0139630Y0154617D02*
X0210433Y0154617D01*
X0210433Y0152619D02*
X0139630Y0152619D01*
X0139630Y0150620D02*
X0210433Y0150620D01*
X0210433Y0148622D02*
X0139630Y0148622D01*
X0139630Y0146623D02*
X0210433Y0146623D01*
X0210433Y0144625D02*
X0139630Y0144625D01*
X0139630Y0142626D02*
X0210433Y0142626D01*
X0210433Y0140628D02*
X0139630Y0140628D01*
X0139630Y0138629D02*
X0210433Y0138629D01*
X0210433Y0136631D02*
X0139630Y0136631D01*
X0139630Y0134632D02*
X0210433Y0134632D01*
X0210433Y0132634D02*
X0139630Y0132634D01*
X0139630Y0130635D02*
X0210433Y0130635D01*
X0210433Y0128637D02*
X0139630Y0128637D01*
X0131693Y0126638D02*
X0115417Y0126638D01*
X0115417Y0124640D02*
X0131693Y0124640D01*
X0131693Y0122641D02*
X0115417Y0122641D01*
X0115417Y0120643D02*
X0131693Y0120643D01*
X0128461Y0118644D02*
X0127902Y0118644D01*
X0127902Y0116646D02*
X0128461Y0116646D01*
X0128461Y0112649D02*
X0127902Y0112649D01*
X0127902Y0110650D02*
X0128461Y0110650D01*
X0123622Y0116646D02*
X0115417Y0116646D01*
X0115417Y0118644D02*
X0124096Y0118644D01*
X0139227Y0094662D02*
X0142138Y0094662D01*
X0147669Y0090570D02*
X0132118Y0090570D01*
X0131921Y0090373D01*
X0131921Y0022854D01*
X0124524Y0022716D02*
X0069994Y0022716D01*
X0069994Y0024714D02*
X0124685Y0024714D01*
X0125513Y0026713D02*
X0069994Y0026713D01*
X0069994Y0028711D02*
X0127317Y0028711D01*
X0127953Y0030710D02*
X0069994Y0030710D01*
X0069994Y0032708D02*
X0127953Y0032708D01*
X0127953Y0034707D02*
X0069994Y0034707D01*
X0069994Y0036705D02*
X0127953Y0036705D01*
X0127953Y0038704D02*
X0069994Y0038704D01*
X0069994Y0040702D02*
X0120487Y0040702D01*
X0123669Y0040702D02*
X0127953Y0040702D01*
X0127953Y0042701D02*
X0127190Y0042701D01*
X0135890Y0042701D02*
X0145906Y0042701D01*
X0143639Y0040702D02*
X0135890Y0040702D01*
X0135890Y0038704D02*
X0142651Y0038704D01*
X0142240Y0036705D02*
X0135890Y0036705D01*
X0135890Y0034707D02*
X0142266Y0034707D01*
X0143093Y0032708D02*
X0135890Y0032708D01*
X0135890Y0030710D02*
X0144706Y0030710D01*
X0125627Y0018719D02*
X0069994Y0018719D01*
X0069994Y0020717D02*
X0124799Y0020717D01*
X0116966Y0042701D02*
X0069994Y0042701D01*
X0069994Y0044699D02*
X0115459Y0044699D01*
X0114680Y0046698D02*
X0114207Y0046698D01*
X0108690Y0046698D02*
X0069994Y0046698D01*
X0069994Y0048696D02*
X0105853Y0048696D01*
X0104629Y0050695D02*
X0069994Y0050695D01*
X0069994Y0052693D02*
X0104051Y0052693D01*
X0104051Y0054692D02*
X0069994Y0054692D01*
X0069994Y0056690D02*
X0104737Y0056690D01*
X0106114Y0058689D02*
X0069994Y0058689D01*
X0069994Y0060687D02*
X0107480Y0060687D01*
X0125375Y0054692D02*
X0127953Y0054692D01*
X0127897Y0052693D02*
X0127953Y0052693D01*
X0135890Y0052693D02*
X0182791Y0052693D01*
X0182791Y0054692D02*
X0135890Y0054692D01*
X0135890Y0056690D02*
X0183478Y0056690D01*
X0184854Y0058689D02*
X0135890Y0058689D01*
X0135890Y0060687D02*
X0142681Y0060687D01*
X0141101Y0062686D02*
X0135890Y0062686D01*
X0135890Y0064684D02*
X0140274Y0064684D01*
X0140272Y0066683D02*
X0135890Y0066683D01*
X0135890Y0068681D02*
X0140706Y0068681D01*
X0141727Y0070680D02*
X0135890Y0070680D01*
X0135890Y0072678D02*
X0142701Y0072678D01*
X0142701Y0074677D02*
X0135890Y0074677D01*
X0135890Y0076675D02*
X0142701Y0076675D01*
X0142375Y0078674D02*
X0135890Y0078674D01*
X0135890Y0080672D02*
X0141748Y0080672D01*
X0141748Y0082671D02*
X0135890Y0082671D01*
X0135890Y0084669D02*
X0141748Y0084669D01*
X0153413Y0086668D02*
X0206693Y0086668D01*
X0206693Y0084669D02*
X0153591Y0084669D01*
X0153591Y0082671D02*
X0206693Y0082671D01*
X0206693Y0080672D02*
X0153591Y0080672D01*
X0152963Y0078674D02*
X0206693Y0078674D01*
X0206693Y0076675D02*
X0152638Y0076675D01*
X0152638Y0074677D02*
X0206693Y0074677D01*
X0206693Y0072678D02*
X0152638Y0072678D01*
X0153612Y0070680D02*
X0206693Y0070680D01*
X0206693Y0068681D02*
X0154632Y0068681D01*
X0155067Y0066683D02*
X0206693Y0066683D01*
X0206693Y0064684D02*
X0155065Y0064684D01*
X0154237Y0062686D02*
X0206693Y0062686D01*
X0206693Y0060687D02*
X0192319Y0060687D01*
X0195524Y0058689D02*
X0206693Y0058689D01*
X0206693Y0056690D02*
X0196900Y0056690D01*
X0204116Y0054692D02*
X0206693Y0054692D01*
X0206637Y0052693D02*
X0206693Y0052693D01*
X0214630Y0060687D02*
X0221421Y0060687D01*
X0219842Y0062686D02*
X0214630Y0062686D01*
X0214630Y0064684D02*
X0219014Y0064684D01*
X0219012Y0066683D02*
X0214630Y0066683D01*
X0214630Y0068681D02*
X0219446Y0068681D01*
X0220467Y0070680D02*
X0214630Y0070680D01*
X0214630Y0072678D02*
X0221441Y0072678D01*
X0221441Y0074677D02*
X0214630Y0074677D01*
X0214630Y0076675D02*
X0221441Y0076675D01*
X0221115Y0078674D02*
X0214630Y0078674D01*
X0214630Y0080672D02*
X0220488Y0080672D01*
X0220488Y0082671D02*
X0214630Y0082671D01*
X0214630Y0084669D02*
X0220488Y0084669D01*
X0206118Y0088666D02*
X0153591Y0088666D01*
X0153591Y0090665D02*
X0206118Y0090665D01*
X0206118Y0092663D02*
X0153591Y0092663D01*
X0153200Y0094662D02*
X0207406Y0094662D01*
X0188059Y0060687D02*
X0152658Y0060687D01*
X0135890Y0050695D02*
X0183370Y0050695D01*
X0184593Y0048696D02*
X0135890Y0048696D01*
X0135890Y0046698D02*
X0187430Y0046698D01*
X0192947Y0046698D02*
X0193421Y0046698D01*
X0194199Y0044699D02*
X0135890Y0044699D01*
X0153370Y0042701D02*
X0195706Y0042701D01*
X0107480Y0078674D02*
X0007002Y0078674D01*
X0007002Y0080672D02*
X0107480Y0080672D01*
X0084664Y0102656D02*
X0007002Y0102656D01*
X0007002Y0100657D02*
X0079015Y0100657D01*
X0076930Y0098659D02*
X0007002Y0098659D01*
X0007002Y0096660D02*
X0075595Y0096660D01*
X0075137Y0094662D02*
X0007002Y0094662D01*
X0007002Y0092663D02*
X0074768Y0092663D01*
X0075166Y0090665D02*
X0007002Y0090665D01*
X0007002Y0280523D02*
X0241262Y0280523D01*
X0243261Y0282522D02*
X0007002Y0282522D01*
X0007002Y0284521D02*
X0245259Y0284521D01*
X0247258Y0286519D02*
X0007002Y0286519D01*
X0007002Y0288518D02*
X0249256Y0288518D01*
X0251255Y0290516D02*
X0007002Y0290516D01*
X0007002Y0292515D02*
X0253253Y0292515D01*
X0255252Y0294513D02*
X0007002Y0294513D01*
X0007002Y0296512D02*
X0257250Y0296512D01*
X0259249Y0298510D02*
X0007002Y0298510D01*
X0007002Y0300509D02*
X0261247Y0300509D01*
X0263246Y0302507D02*
X0007002Y0302507D01*
X0084691Y0354468D02*
X0205019Y0354468D01*
X0206970Y0356467D02*
X0090339Y0356467D01*
X0092424Y0358465D02*
X0208968Y0358465D01*
X0210967Y0360464D02*
X0093760Y0360464D01*
X0094217Y0362462D02*
X0212965Y0362462D01*
X0214964Y0364461D02*
X0094586Y0364461D01*
X0094189Y0366459D02*
X0216962Y0366459D01*
X0218961Y0368458D02*
X0093664Y0368458D01*
X0092328Y0370457D02*
X0220959Y0370457D01*
X0222958Y0372455D02*
X0090124Y0372455D01*
X0212010Y0304506D02*
X0214824Y0304506D01*
X0231609Y0314498D02*
X0233749Y0314498D01*
X0243086Y0314498D02*
X0279626Y0314498D01*
X0277983Y0318720D02*
X0284835Y0318720D01*
X0364835Y0328721D02*
X0364835Y0328720D01*
X0562934Y0234558D02*
X0590673Y0234558D01*
X0588674Y0232559D02*
X0564932Y0232559D01*
X0364402Y0096660D02*
X0364402Y0096660D01*
X0364402Y0094869D02*
X0362563Y0094869D01*
X0362055Y0095006D01*
X0361599Y0095269D01*
X0361226Y0095641D01*
X0360963Y0096097D01*
X0360827Y0096606D01*
X0360827Y0098641D01*
X0360827Y0096660D02*
X0297685Y0096660D01*
X0296707Y0094662D02*
X0299619Y0094662D01*
X0295810Y0026713D02*
X0361733Y0026713D01*
X0360905Y0024714D02*
X0296638Y0024714D01*
X0296799Y0022716D02*
X0360744Y0022716D01*
X0361020Y0020717D02*
X0296524Y0020717D01*
X0295696Y0018719D02*
X0361847Y0018719D01*
X0429168Y0046698D02*
X0429641Y0046698D01*
D23*
X0513811Y0102578D03*
X0470504Y0149822D03*
X0387827Y0122263D03*
X0364205Y0130137D03*
X0305150Y0122263D03*
X0285465Y0130137D03*
X0277591Y0102578D03*
X0206724Y0126200D03*
X0127984Y0138011D03*
X0120110Y0134074D03*
X0100425Y0106515D03*
X0120110Y0102578D03*
X0411449Y0291554D03*
X0423260Y0299428D03*
X0411449Y0330924D03*
X0383890Y0342735D03*
X0439008Y0263995D03*
X0529559Y0244310D03*
X0537433Y0244310D03*
X0537433Y0236436D03*
X0529559Y0236436D03*
X0545307Y0236436D03*
X0568929Y0236436D03*
X0576803Y0236436D03*
X0584677Y0236436D03*
X0584677Y0244310D03*
X0576803Y0244310D03*
X0541370Y0370294D03*
X0269717Y0362420D03*
X0269717Y0389980D03*
D24*
X0530543Y0251397D02*
X0548102Y0251397D01*
X0566134Y0251397D02*
X0576803Y0251397D01*
X0576803Y0244310D01*
X0576803Y0251397D02*
X0583693Y0251397D01*
X0462630Y0083090D02*
X0462630Y0066161D01*
X0383890Y0066161D02*
X0383890Y0083090D01*
X0305150Y0083090D02*
X0305150Y0066161D01*
X0226409Y0066161D02*
X0226409Y0083090D01*
X0147669Y0083090D02*
X0147669Y0066161D01*
M02*
