%
M48
M72
T01C0.0197
T02C0.0276
T03C0.0315
T04C0.0354
T05C0.0400
T06C0.0591
%
T01
X12011Y10258
X10043Y10651
X12011Y13407
X12798Y13801
X20672Y12620
X27759Y10258
X30515Y12226
X28546Y13014
X36420Y13014
X38783Y12226
X47050Y14982
X51381Y10258
X52956Y23644
X53743Y23644
X54531Y23644
X53743Y24431
X52956Y24431
X56893Y23644
X57680Y23644
X58468Y23644
X58468Y24431
X57680Y24431
X43901Y26400
X41145Y29155
X42326Y29943
X41145Y33092
X38389Y34274
X26972Y36242
X26972Y38998
X54137Y37029
T02
X63590Y33915
X63590Y33128
X63590Y32340
X63590Y31553
T03
X49747Y34293
X49747Y35081
X49747Y35868
X49747Y36655
X49747Y37443
X49747Y38230
X49747Y39018
X49747Y39805
X49747Y40592
X49747Y41380
X41086Y41380
X41086Y40592
X41086Y39805
X41086Y39018
X41086Y38230
X41086Y37443
X41086Y36655
X41086Y35868
X41086Y35081
X41086Y34293
T04
X23842Y31002
X22842Y31002
X21842Y31002
X20842Y31002
T05
X28483Y30872
X28483Y29872
X28483Y28872
X28483Y27872
X28483Y26872
X28483Y25872
X28483Y24872
X28483Y23872
X28483Y22872
X36483Y22872
X36483Y23872
X36483Y24872
X36483Y25872
X36483Y26872
X36483Y27872
X36483Y28872
X36483Y29872
X36483Y30872
X36483Y31872
X36483Y32872
X36483Y33872
X36483Y34872
X36483Y35872
X28483Y35872
X28483Y34872
X28483Y33872
X28483Y32872
X28483Y31872
T06
X11145Y5356
X12208Y4805
X14964Y3624
X13192Y2285
X14767Y6616
X19019Y5356
X20082Y4805
X22838Y3624
X21066Y2285
X22641Y6616
X26893Y5356
X27956Y4805
X30712Y3624
X28940Y2285
X30515Y6616
X34767Y5356
X35830Y4805
X38586Y3624
X36814Y2285
X38389Y6616
X42641Y5356
X43704Y4805
X46460Y3624
X44688Y2285
X46263Y6616
X50515Y5356
X51578Y4805
X54334Y3624
X52562Y2285
X54137Y6616
M30
